<svg width="24" height="24" viewBox="0 0 24 24" fill="none" xmlns="http://www.w3.org/2000/svg">
<g id="setting">
<g id="vuesax/outline/setting">
<g id="setting_2">
<path id="Vector" d="M12.0022 22.6308C11.3322 22.6308 10.6522 22.4808 10.1222 22.1708L4.62219 19.0008C2.38219 17.4908 2.24219 17.2608 2.24219 14.8908V9.11078C2.24219 6.74078 2.37219 6.51078 4.57219 5.02078L10.1122 1.82078C11.1622 1.21078 12.8122 1.21078 13.8622 1.82078L19.3822 5.00078C21.6222 6.51078 21.7622 6.74078 21.7622 9.11078V14.8808C21.7622 17.2508 21.6322 17.4808 19.4322 18.9708L13.8922 22.1708C13.3522 22.4808 12.6722 22.6308 12.0022 22.6308ZM12.0022 2.87078C11.5822 2.87078 11.1722 2.95078 10.8822 3.12078L5.38219 6.30078C3.75219 7.40078 3.75219 7.40078 3.75219 9.11078V14.8808C3.75219 16.5908 3.75219 16.5908 5.42219 17.7208L10.8822 20.8708C11.4722 21.2108 12.5422 21.2108 13.1322 20.8708L18.6322 17.6908C20.2522 16.5908 20.2522 16.5908 20.2522 14.8808V9.11078C20.2522 7.40078 20.2522 7.40078 18.5822 6.27078L13.1222 3.12078C12.8322 2.95078 12.4222 2.87078 12.0022 2.87078Z" fill="#FFD66B" style="fill:#FFD66B;fill:color(display-p3 1.0000 0.8378 0.4208);fill-opacity:1;"/>
<path id="Vector_2" d="M12 15.75C9.93 15.75 8.25 14.07 8.25 12C8.25 9.93 9.93 8.25 12 8.25C14.07 8.25 15.75 9.93 15.75 12C15.75 14.07 14.07 15.75 12 15.75ZM12 9.75C10.76 9.75 9.75 10.76 9.75 12C9.75 13.24 10.76 14.25 12 14.25C13.24 14.25 14.25 13.24 14.25 12C14.25 10.76 13.24 9.75 12 9.75Z" fill="#FFD66B" style="fill:#FFD66B;fill:color(display-p3 1.0000 0.8378 0.4208);fill-opacity:1;"/>
</g>
</g>
</g>
</svg>
