<svg width="50" height="60" viewBox="0 0 50 60" fill="none" xmlns="http://www.w3.org/2000/svg">
<rect x="23.75" width="3.75" height="1.25" rx="0.625" fill="#8F8F92" style="fill:#8F8F92;fill:color(display-p3 0.5608 0.5608 0.5725);fill-opacity:1;"/>
<rect x="12.5" width="6.25" height="1.25" rx="0.625" fill="#8F8F92" style="fill:#8F8F92;fill:color(display-p3 0.5608 0.5608 0.5725);fill-opacity:1;"/>
<rect x="32.5" width="6.25" height="1.25" rx="0.625" fill="#8F8F92" style="fill:#8F8F92;fill:color(display-p3 0.5608 0.5608 0.5725);fill-opacity:1;"/>
<rect x="28.75" width="2.5" height="1.25" rx="0.625" fill="#FFA469" style="fill:#FFA469;fill:color(display-p3 1.0000 0.6431 0.4118);fill-opacity:1;"/>
<rect x="20" width="2.5" height="1.25" rx="0.625" fill="#FFA469" style="fill:#FFA469;fill:color(display-p3 1.0000 0.6431 0.4118);fill-opacity:1;"/>
<g clip-path="url(#clip0_2610_1748)">
<path d="M14.4944 50.7359L10.6567 57.7874C10.4882 58.0969 10.5725 58.4826 10.8549 58.6926C11.1577 58.9197 11.5869 58.8699 11.8288 58.5791L17.2053 52.1497L14.4944 50.7344V50.7359Z" fill="#585960" stroke="#585960" style="fill:#585960;fill:color(display-p3 0.3451 0.3490 0.3765);fill-opacity:1;stroke:#585960;stroke:color(display-p3 0.3451 0.3490 0.3765);stroke-opacity:1;" stroke-width="0.265352" stroke-linecap="round" stroke-linejoin="round"/>
<path d="M35.6093 50.7359L39.447 57.7874C39.6155 58.0969 39.5312 58.4826 39.2488 58.6926C38.946 58.9197 38.5168 58.8699 38.2749 58.5791L32.8984 52.1497L35.6093 50.7344V50.7359Z" fill="#585960" stroke="#585960" style="fill:#585960;fill:color(display-p3 0.3451 0.3490 0.3765);fill-opacity:1;stroke:#585960;stroke:color(display-p3 0.3451 0.3490 0.3765);stroke-opacity:1;" stroke-width="0.265352" stroke-linecap="round" stroke-linejoin="round"/>
<path d="M25.0033 54.5015C38.4735 54.5015 49.3933 43.6196 49.3933 30.1961C49.3933 16.7725 38.4735 5.89062 25.0033 5.89062C11.5331 5.89062 0.613281 16.7725 0.613281 30.1961C0.613281 43.6196 11.5331 54.5015 25.0033 54.5015Z" fill="url(#paint0_linear_2610_1748)" style=""/>
<path d="M38.8653 44.0112C46.5221 36.3809 46.5221 24.0097 38.8653 16.3794C31.2084 8.74913 18.7942 8.74913 11.1374 16.3794C3.48054 24.0097 3.48054 36.3809 11.1374 44.0112C18.7942 51.6415 31.2084 51.6415 38.8653 44.0112Z" fill="white" stroke="#585960" style="fill:white;fill-opacity:1;stroke:#585960;stroke:color(display-p3 0.3451 0.3490 0.3765);stroke-opacity:1;" stroke-width="0.265352" stroke-miterlimit="10"/>
<path d="M41.3605 20.3378C43.0998 23.2248 44.0388 26.523 44.0806 29.8933C44.1225 33.2635 43.2658 36.5841 41.5987 39.5134C39.9315 42.4427 37.5141 44.875 34.5951 46.5601C31.6761 48.2453 28.3609 49.1224 24.9905 49.1013L25.1094 30.1289L41.3605 20.3378Z" fill="#FCCD82" style="fill:#FCCD82;fill:color(display-p3 0.9882 0.8039 0.5098);fill-opacity:1;"/>
<path d="M41.3605 20.3378C43.0998 23.2248 44.0388 26.523 44.0806 29.8933C44.1225 33.2635 43.2658 36.5841 41.5987 39.5134C39.9315 42.4427 37.5141 44.875 34.5951 46.5601C31.6761 48.2453 28.3609 49.1224 24.9905 49.1013L25.1094 30.1289L41.3605 20.3378Z" fill="url(#paint1_linear_2610_1748)" style=""/>
<path d="M25.8496 30.1914C25.8496 29.7232 25.4688 29.3438 24.999 29.3438C24.5292 29.3438 24.1484 29.7232 24.1484 30.1914C24.1484 30.6595 24.5292 31.039 24.999 31.039C25.4688 31.039 25.8496 30.6595 25.8496 30.1914Z" fill="#585960" stroke="#585960" style="fill:#585960;fill:color(display-p3 0.3451 0.3490 0.3765);fill-opacity:1;stroke:#585960;stroke:color(display-p3 0.3451 0.3490 0.3765);stroke-opacity:1;" stroke-width="0.265352" stroke-miterlimit="10"/>
<path d="M26.368 30.8548L25.6985 31.522L17.6501 23.8204C17.558 23.7255 17.5596 23.5762 17.6532 23.4844C17.7469 23.3911 17.8967 23.3911 17.9904 23.4813L26.368 30.8532V30.8548Z" fill="#585960" stroke="#585960" style="fill:#585960;fill:color(display-p3 0.3451 0.3490 0.3765);fill-opacity:1;stroke:#585960;stroke:color(display-p3 0.3451 0.3490 0.3765);stroke-opacity:1;" stroke-width="0.265352" stroke-miterlimit="10"/>
<path d="M25.6617 28.8281L26.3312 29.4953L13.7741 41.6807C13.6805 41.7725 13.5291 41.7709 13.437 41.6792C13.345 41.5874 13.3434 41.4365 13.4355 41.3432L25.6632 28.8297L25.6617 28.8281Z" fill="#585960" stroke="#585960" style="fill:#585960;fill:color(display-p3 0.3451 0.3490 0.3765);fill-opacity:1;stroke:#585960;stroke:color(display-p3 0.3451 0.3490 0.3765);stroke-opacity:1;" stroke-width="0.265352" stroke-miterlimit="10"/>
<path d="M24.5391 28.4248L24.7794 28.375L28.2597 45.5387C28.2597 45.5387 28.2566 45.5543 28.2488 45.5558C28.2488 45.5558 28.2331 45.5527 28.2316 45.545L24.5391 28.4263V28.4248Z" fill="#585960" style="fill:#585960;fill:color(display-p3 0.3451 0.3490 0.3765);fill-opacity:1;"/>
<path d="M25.4022 11.6484H24.6094V12.8631H25.4022V11.6484Z" fill="#585960" style="fill:#585960;fill:color(display-p3 0.3451 0.3490 0.3765);fill-opacity:1;"/>
<path d="M43.6017 29.8047H42.3828V30.5948H43.6017V29.8047Z" fill="#585960" style="fill:#585960;fill:color(display-p3 0.3451 0.3490 0.3765);fill-opacity:1;"/>
<path d="M25.4022 47.5391H24.6094V48.7537H25.4022V47.5391Z" fill="#585960" style="fill:#585960;fill:color(display-p3 0.3451 0.3490 0.3765);fill-opacity:1;"/>
<path d="M7.61731 29.8047H6.39844V30.5948H7.61731V29.8047Z" fill="#585960" style="fill:#585960;fill:color(display-p3 0.3451 0.3490 0.3765);fill-opacity:1;"/>
<path d="M8.79688 21.0625L9.85812 21.6613" stroke="#585960" style="stroke:#585960;stroke:color(display-p3 0.3451 0.3490 0.3765);stroke-opacity:1;" stroke-width="1.06141" stroke-miterlimit="10"/>
<path d="M34.1477 14.0469L33.5469 15.1044" stroke="#585960" style="stroke:#585960;stroke:color(display-p3 0.3451 0.3490 0.3765);stroke-opacity:1;" stroke-width="1.06141" stroke-miterlimit="10"/>
<path d="M41.1862 39.3019L40.125 38.7031" stroke="#585960" style="stroke:#585960;stroke:color(display-p3 0.3451 0.3490 0.3765);stroke-opacity:1;" stroke-width="1.06141" stroke-miterlimit="10"/>
<path d="M15.8281 46.3154L16.429 45.2578" stroke="#585960" style="stroke:#585960;stroke:color(display-p3 0.3451 0.3490 0.3765);stroke-opacity:1;" stroke-width="1.06141" stroke-miterlimit="10"/>
<path d="M15.4805 14.2656L16.1047 15.3092" stroke="#585960" style="stroke:#585960;stroke:color(display-p3 0.3451 0.3490 0.3765);stroke-opacity:1;" stroke-width="1.06141" stroke-miterlimit="10"/>
<path d="M40.9769 20.7031L39.9297 21.3252" stroke="#585960" style="stroke:#585960;stroke:color(display-p3 0.3451 0.3490 0.3765);stroke-opacity:1;" stroke-width="1.06141" stroke-miterlimit="10"/>
<path d="M34.5266 46.0983L33.9023 45.0547" stroke="#585960" style="stroke:#585960;stroke:color(display-p3 0.3451 0.3490 0.3765);stroke-opacity:1;" stroke-width="1.06141" stroke-miterlimit="10"/>
<path d="M9.01953 39.6924L10.0667 39.0703" stroke="#585960" style="stroke:#585960;stroke:color(display-p3 0.3451 0.3490 0.3765);stroke-opacity:1;" stroke-width="1.06141" stroke-miterlimit="10"/>
<path d="M23.9822 17.3548V14.4341C23.965 14.4589 23.9323 14.4838 23.8839 14.5072C23.8339 14.532 23.7809 14.5538 23.7216 14.5725C23.6623 14.5911 23.6092 14.6082 23.5608 14.6238C23.5124 14.6394 23.4812 14.6471 23.4688 14.6502V14.4076C23.5078 14.3967 23.553 14.3812 23.6045 14.361C23.656 14.3407 23.7091 14.3143 23.7606 14.2816C23.8121 14.249 23.8636 14.2117 23.9135 14.1712C23.9635 14.1308 24.0072 14.0841 24.0446 14.0312H24.2881V17.3533H23.9838L23.9822 17.3548Z" fill="#585960" style="fill:#585960;fill:color(display-p3 0.3451 0.3490 0.3765);fill-opacity:1;"/>
<path d="M25 17.3593V17.1416L25.8974 15.7668C25.9629 15.6657 26.0254 15.5677 26.0831 15.4728C26.1408 15.378 26.1877 15.28 26.2251 15.1758C26.2626 15.0716 26.2813 14.9549 26.2813 14.8227C26.2813 14.6454 26.2454 14.5055 26.1721 14.4044C26.0987 14.3033 25.9879 14.252 25.8365 14.252C25.6992 14.252 25.5946 14.2815 25.5213 14.3422C25.4479 14.4028 25.398 14.4852 25.3683 14.591C25.3387 14.6968 25.3246 14.815 25.3246 14.9456V15.0187H25.0234V14.9363C25.0234 14.731 25.0515 14.5599 25.1061 14.4215C25.1607 14.2831 25.2466 14.1789 25.3636 14.1073C25.4807 14.0358 25.6336 14 25.8225 14C26.0753 14 26.2641 14.0747 26.3905 14.224C26.517 14.3733 26.5794 14.5801 26.5794 14.8461C26.5794 14.9798 26.5607 15.1027 26.5216 15.2147C26.4826 15.3266 26.4342 15.4339 26.3734 15.5366C26.3125 15.6392 26.2501 15.7419 26.1845 15.8461L25.3496 17.1012H26.5107V17.3562H25V17.3593Z" fill="#585960" style="fill:#585960;fill:color(display-p3 0.3451 0.3490 0.3765);fill-opacity:1;"/>
<path d="M33.201 19.4798V16.5591C33.1838 16.5839 33.151 16.6088 33.1026 16.6322C33.0527 16.657 32.9996 16.6788 32.9403 16.6975C32.881 16.7161 32.828 16.7332 32.7796 16.7488C32.7312 16.7644 32.7 16.7721 32.6875 16.7752V16.5326C32.7265 16.5217 32.7718 16.5062 32.8233 16.486C32.8748 16.4657 32.9278 16.4393 32.9793 16.4066C33.0308 16.374 33.0823 16.3367 33.1323 16.2962C33.1822 16.2558 33.2259 16.2091 33.2634 16.1562H33.5068V19.4783H33.2025L33.201 19.4798Z" fill="#585960" style="fill:#585960;fill:color(display-p3 0.3451 0.3490 0.3765);fill-opacity:1;"/>
<path d="M37.6641 24.5937V24.376L38.5614 23.0011C38.627 22.9 38.6894 22.8021 38.7472 22.7072C38.8049 22.6123 38.8517 22.5143 38.8892 22.4101C38.9266 22.3059 38.9454 22.1893 38.9454 22.0571C38.9454 21.8798 38.9095 21.7398 38.8361 21.6387C38.7628 21.5376 38.652 21.4863 38.5006 21.4863C38.3632 21.4863 38.2587 21.5159 38.1853 21.5765C38.112 21.6372 38.062 21.7196 38.0324 21.8254C38.0027 21.9311 37.9887 22.0493 37.9887 22.18V22.2531H37.6875V22.1706C37.6875 21.9653 37.7156 21.7943 37.7702 21.6558C37.8248 21.5174 37.9106 21.4132 38.0277 21.3417C38.1447 21.2701 38.2977 21.2344 38.4865 21.2344C38.7394 21.2344 38.9282 21.309 39.0546 21.4583C39.181 21.6076 39.2435 21.8145 39.2435 22.0804C39.2435 22.2142 39.2247 22.337 39.1857 22.449C39.1467 22.561 39.0983 22.6683 39.0374 22.771C38.9766 22.8736 38.9142 22.9763 38.8486 23.0805L38.0137 24.3355H39.1748V24.5906H37.6641V24.5937Z" fill="#585960" style="fill:#585960;fill:color(display-p3 0.3451 0.3490 0.3765);fill-opacity:1;"/>
<path d="M41.0304 31.5467C40.8571 31.5467 40.7167 31.514 40.6059 31.4487C40.4966 31.3834 40.4155 31.29 40.3655 31.1672C40.3156 31.0459 40.2891 30.9028 40.2891 30.7379V30.6555H40.5778V30.7255C40.5809 30.8437 40.5965 30.9448 40.6246 31.0303C40.6543 31.1159 40.7011 31.1827 40.7666 31.2294C40.8322 31.276 40.9196 31.2994 41.0304 31.2994C41.1349 31.2994 41.2239 31.276 41.2957 31.2325C41.3675 31.189 41.4237 31.1127 41.4596 31.0085C41.497 30.9043 41.5157 30.769 41.5157 30.6026C41.5157 30.3973 41.4783 30.2294 41.4049 30.1003C41.33 29.9696 41.2021 29.9028 41.0179 29.8965H40.9352V29.6088H41.0179C41.1958 29.6088 41.3238 29.5591 41.4003 29.4595C41.4767 29.36 41.5157 29.1982 41.5157 28.9774C41.5157 28.8048 41.483 28.6648 41.419 28.5544C41.355 28.4455 41.2364 28.3895 41.0631 28.3895C40.8899 28.3895 40.7744 28.4362 40.6995 28.531C40.6246 28.6259 40.584 28.7705 40.5778 28.9681V29.0256H40.2891V28.9478C40.2891 28.783 40.314 28.643 40.3655 28.5233C40.417 28.4051 40.4998 28.3117 40.6152 28.2464C40.7307 28.1811 40.879 28.1484 41.06 28.1484C41.2411 28.1484 41.38 28.1842 41.4923 28.2558C41.6047 28.3273 41.6874 28.4253 41.742 28.5497C41.7951 28.6741 41.8216 28.8172 41.8216 28.9789C41.8216 29.2107 41.7779 29.3911 41.6905 29.5186C41.6031 29.6461 41.4892 29.7255 41.3488 29.7581C41.4315 29.7799 41.5079 29.8234 41.5797 29.8888C41.6515 29.9541 41.7093 30.0458 41.7545 30.1609C41.7998 30.2776 41.8232 30.4222 41.8232 30.598C41.8232 30.7846 41.7967 30.9494 41.7452 31.0925C41.6937 31.2356 41.6078 31.3476 41.4923 31.4269C41.3753 31.5062 41.2223 31.5467 41.0335 31.5467H41.0304Z" fill="#585960" style="fill:#585960;fill:color(display-p3 0.3451 0.3490 0.3765);fill-opacity:1;"/>
<path d="M39.009 38.7908V37.8187H38.0039V37.5155L38.9512 35.4688H39.3055V37.5481H39.6879V37.8187H39.3055V38.7908H39.009ZM38.3098 37.5481H39.009V35.8669L38.3098 37.5481Z" fill="#585960" style="fill:#585960;fill:color(display-p3 0.3451 0.3490 0.3765);fill-opacity:1;"/>
<path d="M33.3273 44.5328C33.1493 44.5328 33.0058 44.4986 32.8965 44.4301C32.7888 44.3617 32.7092 44.2606 32.6593 44.1268C32.6093 43.9931 32.5859 43.8298 32.5859 43.6385H32.8871C32.8871 43.7723 32.8996 43.8889 32.9262 43.9869C32.9527 44.0849 32.9995 44.1611 33.0666 44.2139C33.1337 44.2668 33.2258 44.2933 33.3397 44.2933C33.4662 44.2933 33.5614 44.2606 33.6285 44.1953C33.694 44.13 33.7393 44.0335 33.7642 43.9076C33.7892 43.7816 33.8017 43.6276 33.8017 43.4441C33.8017 43.2419 33.7876 43.0802 33.758 42.9604C33.7299 42.8407 33.6815 42.7536 33.6144 42.6991C33.5473 42.6463 33.4568 42.6198 33.3444 42.6198C33.2586 42.6198 33.179 42.6431 33.1056 42.6898C33.0323 42.7365 32.9667 42.8049 32.9121 42.8951H32.6609V41.1719H33.9578L33.9531 41.4549H32.9277L32.9106 42.6074C32.9605 42.5467 33.026 42.4954 33.1103 42.4518C33.1946 42.4083 33.2976 42.3865 33.4209 42.3865C33.5863 42.3865 33.7174 42.427 33.8189 42.5094C33.9187 42.5918 33.9905 42.7085 34.0342 42.8593C34.0779 43.0117 34.0998 43.1937 34.0998 43.4068C34.0998 43.5872 34.0857 43.7474 34.0592 43.8873C34.0311 44.0273 33.9874 44.144 33.925 44.2404C33.8626 44.3368 33.783 44.4084 33.6862 44.4581C33.5894 44.5079 33.4693 44.5328 33.3257 44.5328H33.3273Z" fill="#585960" style="fill:#585960;fill:color(display-p3 0.3451 0.3490 0.3765);fill-opacity:1;"/>
<path d="M25.0311 46.3498C24.847 46.3498 24.6987 46.3078 24.5863 46.2254C24.474 46.1414 24.3913 46.0216 24.3398 45.8661C24.2882 45.7106 24.2617 45.524 24.2617 45.3078V43.9827C24.2617 43.7774 24.2867 43.5986 24.3351 43.443C24.385 43.2891 24.4646 43.1677 24.5785 43.0822C24.6909 42.9967 24.8407 42.9531 25.028 42.9531C25.195 42.9531 25.3339 42.9811 25.4431 43.0387C25.5524 43.0962 25.6367 43.1817 25.6928 43.2953C25.749 43.4088 25.7771 43.5503 25.7771 43.7199C25.7771 43.7245 25.7771 43.737 25.7787 43.7541C25.7787 43.7712 25.7802 43.7836 25.7802 43.7883H25.479C25.479 43.5752 25.4447 43.4228 25.3776 43.3326C25.3105 43.2424 25.1966 43.1973 25.0342 43.1973C24.9437 43.1973 24.8626 43.2206 24.7892 43.2657C24.7159 43.3108 24.6597 43.3855 24.6207 43.4897C24.5817 43.5939 24.5614 43.7339 24.5614 43.9127V44.5441C24.6113 44.4944 24.6831 44.4493 24.7767 44.4088C24.8719 44.3684 24.9781 44.3466 25.0951 44.3466C25.2793 44.3466 25.4229 44.3808 25.5274 44.4493C25.632 44.5177 25.7053 44.625 25.749 44.7697C25.7927 44.9143 25.8146 45.104 25.8146 45.3358C25.8146 45.538 25.788 45.7152 25.7365 45.8692C25.685 46.0232 25.6008 46.1414 25.4853 46.2238C25.3698 46.3078 25.2184 46.3482 25.028 46.3482L25.0311 46.3498ZM25.0311 46.0994C25.1404 46.0994 25.2309 46.0761 25.3011 46.0279C25.3713 45.9796 25.4244 45.9034 25.4603 45.8008C25.4962 45.6966 25.5134 45.5613 25.5134 45.3949C25.5134 45.2145 25.5024 45.0636 25.4822 44.9438C25.4619 44.8241 25.4182 44.7339 25.3511 44.6732C25.284 44.6126 25.1778 44.583 25.0327 44.583C24.9671 44.583 24.9031 44.5939 24.8438 44.6141C24.783 44.6343 24.7284 44.6592 24.6784 44.6888C24.6285 44.7168 24.591 44.7463 24.5629 44.7728V45.3467C24.5629 45.524 24.5801 45.6701 24.6129 45.7821C24.6456 45.8941 24.6971 45.975 24.7674 46.0263C24.8376 46.0776 24.9266 46.1025 25.0327 46.1025L25.0311 46.0994Z" fill="#585960" style="fill:#585960;fill:color(display-p3 0.3451 0.3490 0.3765);fill-opacity:1;"/>
<path d="M17.1386 44.4954L17.7894 41.4145H16.7812V41.1719H18.0984V41.3196L17.432 44.4939H17.1402L17.1386 44.4954Z" fill="#585960" style="fill:#585960;fill:color(display-p3 0.3451 0.3490 0.3765);fill-opacity:1;"/>
<path d="M11.353 38.8029C11.161 38.8029 11.0081 38.764 10.8941 38.6878C10.7802 38.6116 10.6975 38.5028 10.6444 38.3612C10.5929 38.2197 10.5664 38.0564 10.5664 37.8713C10.5664 37.7267 10.5805 37.6054 10.6101 37.5089C10.6382 37.4125 10.6772 37.3317 10.724 37.2694C10.7709 37.2072 10.8224 37.1559 10.8801 37.117C10.9378 37.0781 10.994 37.0455 11.0487 37.019C10.9144 36.9646 10.8052 36.8729 10.724 36.7469C10.6413 36.6193 10.6007 36.4514 10.6007 36.2399C10.6007 36.0781 10.6257 35.935 10.6741 35.8091C10.724 35.6831 10.8036 35.5851 10.9144 35.5136C11.0252 35.442 11.1719 35.4062 11.353 35.4062C11.534 35.4062 11.6792 35.442 11.7868 35.5151C11.8945 35.5882 11.9741 35.6862 12.0241 35.8122C12.074 35.9381 12.099 36.0828 12.099 36.2476C12.099 36.4576 12.0584 36.6256 11.9772 36.7484C11.8961 36.8713 11.7884 36.9615 11.6542 37.019C11.7088 37.047 11.765 37.0797 11.8212 37.117C11.8774 37.1559 11.9289 37.2057 11.9757 37.2694C12.0225 37.3332 12.06 37.4125 12.0912 37.5089C12.1208 37.6054 12.1364 37.7267 12.1364 37.8713C12.1364 38.058 12.1099 38.2213 12.0584 38.3612C12.0069 38.5012 11.9226 38.6101 11.8087 38.6878C11.6948 38.764 11.5434 38.8029 11.3545 38.8029H11.353ZM11.353 38.565C11.4622 38.565 11.5527 38.5401 11.6245 38.4888C11.6963 38.4374 11.7494 38.3612 11.7853 38.2586C11.8212 38.1559 11.8383 38.0268 11.8383 37.8713C11.8383 37.7345 11.8227 37.6147 11.7915 37.5121C11.7603 37.4094 11.7088 37.327 11.6386 37.2632C11.5684 37.201 11.4732 37.1652 11.353 37.1559C11.2328 37.1637 11.136 37.1995 11.0627 37.2632C10.9893 37.3254 10.9378 37.4094 10.9066 37.5121C10.8754 37.6147 10.8598 37.7345 10.8598 37.8713C10.8598 38.0268 10.8785 38.1559 10.916 38.2586C10.9534 38.3612 11.0081 38.4374 11.0799 38.4888C11.1532 38.5385 11.2437 38.565 11.353 38.565ZM11.353 36.8837C11.4685 36.8791 11.5574 36.8464 11.623 36.7889C11.687 36.7313 11.7338 36.6551 11.7603 36.5587C11.7884 36.4638 11.8009 36.355 11.8009 36.2352C11.8009 36.0439 11.765 35.8977 11.6932 35.7982C11.6214 35.6986 11.5075 35.6489 11.3514 35.6489C11.1954 35.6489 11.0767 35.6986 11.0034 35.7982C10.93 35.8977 10.8941 36.0439 10.8941 36.2352C10.8941 36.355 10.9082 36.4638 10.9347 36.5587C10.9628 36.6551 11.0096 36.7313 11.0767 36.7889C11.1439 36.8464 11.2359 36.8775 11.3499 36.8837H11.353Z" fill="#585960" style="fill:#585960;fill:color(display-p3 0.3451 0.3490 0.3765);fill-opacity:1;"/>
<path d="M9.12249 31.5467C8.9555 31.5467 8.81504 31.5187 8.70267 31.4611C8.59031 31.4036 8.50603 31.3165 8.44985 31.1998C8.39366 31.0832 8.36401 30.9401 8.36089 30.7706V30.7084H8.65742C8.65742 30.9183 8.69175 31.0692 8.75886 31.1594C8.82597 31.2496 8.94926 31.2947 9.12717 31.2947C9.22081 31.2947 9.30041 31.2729 9.36752 31.2294C9.43462 31.1858 9.48613 31.1112 9.52202 31.0054C9.55792 30.8997 9.57508 30.7581 9.57508 30.5808V29.9525C9.53451 30.0023 9.46896 30.0474 9.38 30.0878C9.29104 30.1283 9.17712 30.15 9.03978 30.15C8.85562 30.15 8.71204 30.1158 8.60747 30.0458C8.50291 29.9759 8.42956 29.8685 8.38586 29.7223C8.34216 29.5762 8.32031 29.388 8.32031 29.1578C8.32031 28.9525 8.34684 28.7752 8.39991 28.6243C8.45297 28.4735 8.5388 28.3568 8.65585 28.2729C8.7729 28.1889 8.92585 28.1484 9.11469 28.1484C9.30353 28.1484 9.44243 28.1904 9.55479 28.2729C9.66716 28.3568 9.74988 28.475 9.80138 28.629C9.85288 28.783 9.87941 28.9681 9.87941 29.1842V30.5093C9.87941 30.7115 9.85444 30.8903 9.80606 31.0474C9.75612 31.2029 9.67809 31.3243 9.56884 31.4129C9.46116 31.5 9.31133 31.5435 9.12249 31.5435V31.5467ZM9.11001 29.9183C9.22862 29.9183 9.32538 29.8965 9.40185 29.8545C9.47832 29.8126 9.53607 29.769 9.57508 29.7255V29.1547C9.57508 28.9743 9.55948 28.8281 9.52826 28.7177C9.49705 28.6072 9.44711 28.5264 9.37844 28.475C9.30977 28.4237 9.22237 28.3988 9.11469 28.3988C9.007 28.3988 8.91805 28.4237 8.84469 28.475C8.77134 28.5264 8.71828 28.6026 8.68239 28.7068C8.64649 28.811 8.62932 28.9416 8.62932 29.1002C8.62932 29.2838 8.64025 29.4346 8.66054 29.5559C8.68083 29.6757 8.72608 29.7659 8.79475 29.8266C8.86342 29.8872 8.96955 29.9168 9.11157 29.9168L9.11001 29.9183Z" fill="#585960" style="fill:#585960;fill:color(display-p3 0.3451 0.3490 0.3765);fill-opacity:1;"/>
<path d="M10.8963 24.5579V21.6372C10.8791 21.6621 10.8463 21.687 10.7979 21.7103C10.748 21.7352 10.6949 21.7569 10.6356 21.7756C10.5763 21.7943 10.5233 21.8114 10.4749 21.8269C10.4265 21.8425 10.3953 21.8503 10.3828 21.8534V21.6107C10.4218 21.5999 10.4671 21.5843 10.5186 21.5641C10.5701 21.5439 10.6232 21.5174 10.6747 21.4848C10.7262 21.4521 10.7777 21.4148 10.8276 21.3743C10.8775 21.3339 10.9212 21.2873 10.9587 21.2344H11.2022V24.5564H10.8978L10.8963 24.5579Z" fill="#585960" style="fill:#585960;fill:color(display-p3 0.3451 0.3490 0.3765);fill-opacity:1;"/>
<path d="M12.7741 24.5982C12.5759 24.5982 12.4198 24.5562 12.3043 24.4707C12.1888 24.3852 12.1061 24.2701 12.0577 24.1223C12.0078 23.9746 11.9844 23.8066 11.9844 23.6184V22.1752C11.9844 21.9839 12.0093 21.8143 12.0608 21.6681C12.1108 21.5219 12.1951 21.4069 12.3121 21.326C12.4292 21.2436 12.5837 21.2031 12.7756 21.2031C12.9676 21.2031 13.1299 21.2436 13.2454 21.326C13.3609 21.4084 13.4436 21.5219 13.4951 21.6681C13.545 21.8143 13.5716 21.9839 13.5716 22.1752V23.6184C13.5716 23.8097 13.5466 23.9792 13.4967 24.127C13.4467 24.2747 13.3656 24.3898 13.2501 24.4738C13.1346 24.5578 12.977 24.5982 12.7772 24.5982H12.7741ZM12.7741 24.3603C12.9036 24.3603 13.0019 24.3276 13.0722 24.2639C13.1424 24.2001 13.1923 24.113 13.2204 24.0057C13.2485 23.8984 13.2641 23.7771 13.2641 23.6433V22.1549C13.2641 22.0212 13.2501 21.8999 13.2204 21.7926C13.1923 21.6853 13.1424 21.5997 13.0737 21.5359C13.005 21.4737 12.9052 21.4411 12.7725 21.4411C12.6399 21.4411 12.5478 21.4722 12.4775 21.5359C12.4073 21.5997 12.3574 21.6837 12.3293 21.7926C12.3012 21.8999 12.2856 22.0212 12.2856 22.1549V23.6433C12.2856 23.7771 12.2996 23.8984 12.3293 24.0057C12.3589 24.113 12.4089 24.2001 12.4791 24.2639C12.5509 24.3276 12.6477 24.3603 12.7709 24.3603H12.7741Z" fill="#585960" style="fill:#585960;fill:color(display-p3 0.3451 0.3490 0.3765);fill-opacity:1;"/>
<path d="M16.9705 19.4642V16.5434C16.9533 16.5683 16.9205 16.5932 16.8722 16.6165C16.8222 16.6414 16.7692 16.6632 16.7099 16.6819C16.6506 16.7005 16.5975 16.7176 16.5491 16.7332C16.5007 16.7487 16.4695 16.7565 16.457 16.7596V16.517C16.496 16.5061 16.5413 16.4906 16.5928 16.4703C16.6443 16.4501 16.6974 16.4237 16.7489 16.391C16.8004 16.3584 16.8519 16.321 16.9018 16.2806C16.9518 16.2402 16.9955 16.1935 17.0329 16.1406H17.2764V19.4626H16.972L16.9705 19.4642Z" fill="#585960" style="fill:#585960;fill:color(display-p3 0.3451 0.3490 0.3765);fill-opacity:1;"/>
<path d="M18.4783 19.4642V16.5434C18.4611 16.5683 18.4284 16.5932 18.38 16.6165C18.33 16.6414 18.277 16.6632 18.2177 16.6819C18.1584 16.7005 18.1053 16.7176 18.0569 16.7332C18.0085 16.7487 17.9773 16.7565 17.9648 16.7596V16.517C18.0039 16.5061 18.0491 16.4906 18.1006 16.4703C18.1521 16.4501 18.2052 16.4237 18.2567 16.391C18.3082 16.3584 18.3597 16.321 18.4096 16.2806C18.4596 16.2402 18.5033 16.1935 18.5407 16.1406H18.7842V19.4626H18.4799L18.4783 19.4642Z" fill="#585960" style="fill:#585960;fill:color(display-p3 0.3451 0.3490 0.3765);fill-opacity:1;"/>
</g>
<defs>
<linearGradient id="paint0_linear_2610_1748" x1="25.2703" y1="7.83098" x2="25.2716" y2="55.1238" gradientUnits="userSpaceOnUse">
<stop stop-color="#FFD66B" style="stop-color:#FFD66B;stop-color:color(display-p3 1.0000 0.8378 0.4208);stop-opacity:1;"/>
<stop offset="1" stop-color="#FFA469" style="stop-color:#FFA469;stop-color:color(display-p3 1.0000 0.6431 0.4118);stop-opacity:1;"/>
</linearGradient>
<linearGradient id="paint1_linear_2610_1748" x1="24.9767" y1="30.2616" x2="41.6942" y2="39.2831" gradientUnits="userSpaceOnUse">
<stop stop-color="#FFD66B" style="stop-color:#FFD66B;stop-color:color(display-p3 1.0000 0.8378 0.4208);stop-opacity:1;"/>
<stop offset="1" stop-color="#FFA469" style="stop-color:#FFA469;stop-color:color(display-p3 1.0000 0.6431 0.4118);stop-opacity:1;"/>
</linearGradient>
<clipPath id="clip0_2610_1748">
<rect width="50" height="55" fill="white" style="fill:white;fill-opacity:1;" transform="translate(0 5)"/>
</clipPath>
</defs>
</svg>
