<svg width="44" height="56" viewBox="0 0 44 56" fill="none" xmlns="http://www.w3.org/2000/svg">
<rect x="2" y="46.5" width="17.5" height="7.5" rx="2.5" fill="#B9BABD" style="fill:#B9BABD;fill:color(display-p3 0.7255 0.7294 0.7412);fill-opacity:1;"/>
<rect x="42" y="54" width="17.5" height="7.5" rx="2.5" transform="rotate(-180 42 54)" fill="#B9BABD" style="fill:#B9BABD;fill:color(display-p3 0.7255 0.7294 0.7412);fill-opacity:1;"/>
<rect x="1.375" y="45.875" width="8.75" height="8.75" rx="3.125" fill="#E7E5E6" style="fill:#E7E5E6;fill:color(display-p3 0.9059 0.8980 0.9020);fill-opacity:1;"/>
<rect x="1.375" y="45.875" width="8.75" height="8.75" rx="3.125" fill="url(#paint0_linear_2610_1747)" style=""/>
<rect x="1.375" y="45.875" width="8.75" height="8.75" rx="3.125" stroke="#585960" style="stroke:#585960;stroke:color(display-p3 0.3451 0.3490 0.3765);stroke-opacity:1;" stroke-width="1.25"/>
<rect x="42.625" y="54.625" width="8.75" height="8.75" rx="3.125" transform="rotate(-180 42.625 54.625)" fill="#E7E5E6" style="fill:#E7E5E6;fill:color(display-p3 0.9059 0.8980 0.9020);fill-opacity:1;"/>
<rect x="42.625" y="54.625" width="8.75" height="8.75" rx="3.125" transform="rotate(-180 42.625 54.625)" fill="#8F8F92" style="fill:#8F8F92;fill:color(display-p3 0.5608 0.5608 0.5725);fill-opacity:1;"/>
<rect x="42.625" y="54.625" width="8.75" height="8.75" rx="3.125" transform="rotate(-180 42.625 54.625)" stroke="#585960" style="stroke:#585960;stroke:color(display-p3 0.3451 0.3490 0.3765);stroke-opacity:1;" stroke-width="1.25"/>
<path d="M22.0043 39.1101C31.0416 39.1101 38.3679 31.7838 38.3679 22.7465C38.3679 13.7091 31.0416 6.38281 22.0043 6.38281C12.9669 6.38281 5.64062 13.7091 5.64062 22.7465C5.64062 31.7838 12.9669 39.1101 22.0043 39.1101Z" fill="url(#paint1_linear_2610_1747)" stroke="#585960" style="stroke:#585960;stroke:color(display-p3 0.3451 0.3490 0.3765);stroke-opacity:1;" stroke-width="1.25" stroke-linecap="round" stroke-linejoin="round"/>
<rect x="20.1289" y="8.375" width="3.75" height="11.25" rx="1.875" fill="#585960" style="fill:#585960;fill:color(display-p3 0.3451 0.3490 0.3765);fill-opacity:1;"/>
<rect x="20.1289" y="8.375" width="3.75" height="11.25" rx="1.875" fill="url(#paint2_linear_2610_1747)" style=""/>
<rect x="20.1289" y="8.375" width="3.75" height="11.25" rx="1.875" stroke="#585960" style="stroke:#585960;stroke:color(display-p3 0.3451 0.3490 0.3765);stroke-opacity:1;" stroke-width="1.25"/>
<path d="M22 42.75C33.0457 42.75 42 33.7957 42 22.75C42 11.7043 33.0457 2.75 22 2.75C10.9543 2.75 2 11.7043 2 22.75C2 33.7957 10.9543 42.75 22 42.75Z" stroke="#8F8F92" style="stroke:#8F8F92;stroke:color(display-p3 0.5608 0.5608 0.5725);stroke-opacity:1;" stroke-width="3.75" stroke-miterlimit="10" stroke-linejoin="round" stroke-dasharray="1.25 7.5"/>
<defs>
<linearGradient id="paint0_linear_2610_1747" x1="5.79106" y1="46.7994" x2="5.79126" y2="54.096" gradientUnits="userSpaceOnUse">
<stop stop-color="#FFD66B" style="stop-color:#FFD66B;stop-color:color(display-p3 1.0000 0.8378 0.4208);stop-opacity:1;"/>
<stop offset="1" stop-color="#FFA469" style="stop-color:#FFA469;stop-color:color(display-p3 1.0000 0.6431 0.4118);stop-opacity:1;"/>
</linearGradient>
<linearGradient id="paint1_linear_2610_1747" x1="22.0043" y1="6.38281" x2="22.0043" y2="39.1101" gradientUnits="userSpaceOnUse">
<stop stop-color="#B9BABD" style="stop-color:#B9BABD;stop-color:color(display-p3 0.7255 0.7294 0.7412);stop-opacity:1;"/>
<stop offset="1" stop-color="#46474E" style="stop-color:#46474E;stop-color:color(display-p3 0.2745 0.2784 0.3059);stop-opacity:1;"/>
</linearGradient>
<linearGradient id="paint2_linear_2610_1747" x1="22.0176" y1="9.39916" x2="22.0187" y2="19.128" gradientUnits="userSpaceOnUse">
<stop stop-color="#FFD66B" style="stop-color:#FFD66B;stop-color:color(display-p3 1.0000 0.8378 0.4208);stop-opacity:1;"/>
<stop offset="1" stop-color="#FFA469" style="stop-color:#FFA469;stop-color:color(display-p3 1.0000 0.6431 0.4118);stop-opacity:1;"/>
</linearGradient>
</defs>
</svg>
