<svg width="44" height="55" viewBox="0 0 44 55" fill="none" xmlns="http://www.w3.org/2000/svg">
<circle cx="22" cy="16.75" r="16.25" fill="#D9D9D9" style="fill:#D9D9D9;fill:color(display-p3 0.8510 0.8510 0.8510);fill-opacity:1;"/>
<circle cx="22" cy="16.75" r="16.25" fill="white" style="fill:white;fill-opacity:1;"/>
<circle cx="22" cy="16.75" r="16.25" fill="url(#paint0_linear_2610_1744)" style=""/>
<path d="M38.25 16.75C38.25 25.7246 30.9746 33 22 33C13.0254 33 5.75 25.7246 5.75 16.75C5.75 7.77537 13.0254 0.5 22 0.5C30.9746 0.5 38.25 7.77537 38.25 16.75ZM9.04428 16.75C9.04428 23.9052 14.8448 29.7057 22 29.7057C29.1552 29.7057 34.9557 23.9052 34.9557 16.75C34.9557 9.59475 29.1552 3.79428 22 3.79428C14.8448 3.79428 9.04428 9.59475 9.04428 16.75Z" fill="#D9D9D9" style="fill:#D9D9D9;fill:color(display-p3 0.8510 0.8510 0.8510);fill-opacity:1;"/>
<path d="M38.25 16.75C38.25 25.7246 30.9746 33 22 33C13.0254 33 5.75 25.7246 5.75 16.75C5.75 7.77537 13.0254 0.5 22 0.5C30.9746 0.5 38.25 7.77537 38.25 16.75ZM9.04428 16.75C9.04428 23.9052 14.8448 29.7057 22 29.7057C29.1552 29.7057 34.9557 23.9052 34.9557 16.75C34.9557 9.59475 29.1552 3.79428 22 3.79428C14.8448 3.79428 9.04428 9.59475 9.04428 16.75Z" fill="url(#paint1_linear_2610_1744)" style=""/>
<path d="M19.939 25.1531C19.2486 25.1536 18.6884 24.5943 18.688 23.9039L18.6782 9.59761C18.6777 8.90732 19.2369 8.34732 19.9272 8.34675L23.5832 8.34375C25.5627 8.34213 27.0047 8.78033 27.909 9.65835C28.8276 10.5364 29.2875 11.7443 29.2885 13.2821C29.2892 14.1923 29.1033 15.0476 28.7308 15.8482C28.3584 16.6488 27.7349 17.2927 26.8602 17.7799C25.9999 18.2671 24.8238 18.5113 23.3319 18.5125L23.1832 18.5126C22.4929 18.5132 21.9337 19.0732 21.9342 19.7635L21.937 23.9016C21.9375 24.5919 21.3783 25.1519 20.688 25.1525L19.939 25.1531ZM18.1075 22.636C17.477 22.6365 16.9654 22.1257 16.965 21.4952V21.4952C16.9645 20.8647 17.4752 20.3533 18.1056 20.3528L24.1064 20.3478C24.737 20.3473 25.2485 20.8581 25.249 21.4887V21.4887C25.2494 22.1191 24.7387 22.6305 24.1083 22.6311L18.1075 22.636ZM18.2131 18.5167C17.5227 18.5173 16.9625 17.958 16.9621 17.2675L16.9618 16.8488C16.9613 16.1585 17.5205 15.5985 18.2108 15.5979L22.0152 15.5948C22.7056 15.5943 23.2658 16.1535 23.2662 16.844L23.2665 17.2627C23.267 17.953 22.7078 18.513 22.0175 18.5136L18.2131 18.5167ZM23.0072 15.594C23.624 15.5935 24.1547 15.5225 24.5993 15.3809C25.0439 15.2236 25.388 14.9801 25.6316 14.6503C25.8752 14.3206 25.9969 13.9047 25.9965 13.4025C25.996 12.6807 25.7877 12.1473 25.3714 11.8024C24.9552 11.4418 24.3024 11.2619 23.413 11.2626L23.1782 11.2628C22.4879 11.2634 21.9288 11.8234 21.9292 12.5137L21.9306 14.5191C21.931 15.1132 22.413 15.5945 23.0072 15.594V15.594Z" fill="#46474E" style="fill:#46474E;fill:color(display-p3 0.2745 0.2784 0.3059);fill-opacity:1;"/>
<path d="M19.939 25.1531C19.2486 25.1536 18.6884 24.5943 18.688 23.9039L18.6782 9.59761C18.6777 8.90732 19.2369 8.34732 19.9272 8.34675L23.5832 8.34375C25.5627 8.34213 27.0047 8.78033 27.909 9.65835C28.8276 10.5364 29.2875 11.7443 29.2885 13.2821C29.2892 14.1923 29.1033 15.0476 28.7308 15.8482C28.3584 16.6488 27.7349 17.2927 26.8602 17.7799C25.9999 18.2671 24.8238 18.5113 23.3319 18.5125L23.1832 18.5126C22.4929 18.5132 21.9337 19.0732 21.9342 19.7635L21.937 23.9016C21.9375 24.5919 21.3783 25.1519 20.688 25.1525L19.939 25.1531ZM18.1075 22.636C17.477 22.6365 16.9654 22.1257 16.965 21.4952V21.4952C16.9645 20.8647 17.4752 20.3533 18.1056 20.3528L24.1064 20.3478C24.737 20.3473 25.2485 20.8581 25.249 21.4887V21.4887C25.2494 22.1191 24.7387 22.6305 24.1083 22.6311L18.1075 22.636ZM18.2131 18.5167C17.5227 18.5173 16.9625 17.958 16.9621 17.2675L16.9618 16.8488C16.9613 16.1585 17.5205 15.5985 18.2108 15.5979L22.0152 15.5948C22.7056 15.5943 23.2658 16.1535 23.2662 16.844L23.2665 17.2627C23.267 17.953 22.7078 18.513 22.0175 18.5136L18.2131 18.5167ZM23.0072 15.594C23.624 15.5935 24.1547 15.5225 24.5993 15.3809C25.0439 15.2236 25.388 14.9801 25.6316 14.6503C25.8752 14.3206 25.9969 13.9047 25.9965 13.4025C25.996 12.6807 25.7877 12.1473 25.3714 11.8024C24.9552 11.4418 24.3024 11.2619 23.413 11.2626L23.1782 11.2628C22.4879 11.2634 21.9288 11.8234 21.9292 12.5137L21.9306 14.5191C21.931 15.1132 22.413 15.5945 23.0072 15.594V15.594Z" fill="url(#paint2_linear_2610_1744)" style=""/>
<rect x="0.75" y="45.5" width="8.75" height="8.75" rx="3.75" fill="#B9BABD" style="fill:#B9BABD;fill:color(display-p3 0.7255 0.7294 0.7412);fill-opacity:1;"/>
<rect x="12" y="43" width="8.75" height="11.25" rx="3.75" fill="#8F8F92" style="fill:#8F8F92;fill:color(display-p3 0.5608 0.5608 0.5725);fill-opacity:1;"/>
<rect x="23.25" y="39.25" width="8.75" height="15" rx="3.75" fill="#FFA469" style="fill:#FFA469;fill:color(display-p3 1.0000 0.6431 0.4118);fill-opacity:1;"/>
<rect x="34.5" y="34.25" width="8.75" height="20" rx="3.75" fill="#FFD66B" style="fill:#FFD66B;fill:color(display-p3 1.0000 0.8378 0.4208);fill-opacity:1;"/>
<rect x="34.5" y="34.25" width="8.75" height="20" rx="3.75" fill="url(#paint3_linear_2610_1744)" style=""/>
<defs>
<linearGradient id="paint0_linear_2610_1744" x1="21.4397" y1="2.30131" x2="31.5795" y2="29.1739" gradientUnits="userSpaceOnUse">
<stop stop-color="#4F5058" style="stop-color:#4F5058;stop-color:color(display-p3 0.3098 0.3137 0.3451);stop-opacity:1;"/>
<stop offset="1" stop-color="#C27B4C" style="stop-color:#C27B4C;stop-color:color(display-p3 0.7592 0.4808 0.2983);stop-opacity:1;"/>
</linearGradient>
<linearGradient id="paint1_linear_2610_1744" x1="22.1789" y1="0.487377" x2="22.1437" y2="32.9874" gradientUnits="userSpaceOnUse">
<stop stop-color="#FFD66B" style="stop-color:#FFD66B;stop-color:color(display-p3 1.0000 0.8392 0.4196);stop-opacity:1;"/>
<stop offset="1" stop-color="#FFA469" style="stop-color:#FFA469;stop-color:color(display-p3 1.0000 0.6431 0.4118);stop-opacity:1;"/>
</linearGradient>
<linearGradient id="paint2_linear_2610_1744" x1="23.1922" y1="9.01475" x2="23.1928" y2="25.3693" gradientUnits="userSpaceOnUse">
<stop stop-color="#FFD66B" style="stop-color:#FFD66B;stop-color:color(display-p3 1.0000 0.8392 0.4196);stop-opacity:1;"/>
<stop offset="1" stop-color="#FFA469" style="stop-color:#FFA469;stop-color:color(display-p3 1.0000 0.6431 0.4118);stop-opacity:1;"/>
</linearGradient>
<linearGradient id="paint3_linear_2610_1744" x1="38.9232" y1="34.2422" x2="38.8737" y2="54.2421" gradientUnits="userSpaceOnUse">
<stop stop-color="#FFD66B" style="stop-color:#FFD66B;stop-color:color(display-p3 1.0000 0.8392 0.4196);stop-opacity:1;"/>
<stop offset="1" stop-color="#FFA469" style="stop-color:#FFA469;stop-color:color(display-p3 1.0000 0.6431 0.4118);stop-opacity:1;"/>
</linearGradient>
</defs>
</svg>
