<svg width="55" height="64" viewBox="0 0 55 64" fill="none" xmlns="http://www.w3.org/2000/svg">
<path d="M49.8828 18.0938H19.7891V29.9528H49.8828V18.0938Z" fill="white" style="fill:white;fill-opacity:1;"/>
<path d="M51.1411 16.0469H-43.3672V18.5243H51.1411V16.0469Z" fill="#65666D" style="fill:#65666D;fill:color(display-p3 0.3961 0.4000 0.4275);fill-opacity:1;"/>
<path d="M50.7066 29.4062H-43.3672V31.8837H50.7066V29.4062Z" fill="#65666D" style="fill:#65666D;fill:color(display-p3 0.3961 0.4000 0.4275);fill-opacity:1;"/>
<path d="M19.791 16.6328L19.6501 31.4155H-43.3672V16.6328H19.791Z" fill="#65666D" style="fill:#65666D;fill:color(display-p3 0.3961 0.4000 0.4275);fill-opacity:1;"/>
<path d="M4.48047 24.0033C4.48047 26.0346 6.00688 27.6784 7.88554 27.6784C9.7642 27.6784 11.2906 26.0346 11.2906 24.0033C11.2906 21.972 9.7642 20.3281 7.88554 20.3281C6.00688 20.3281 4.48047 21.972 4.48047 24.0033Z" fill="#585960" style="fill:#585960;fill:color(display-p3 0.3451 0.3490 0.3765);fill-opacity:1;"/>
<path d="M3.94922 24.0082C3.94922 21.6833 5.71046 19.8047 7.88266 19.8047C10.0549 19.8047 11.8161 21.6951 11.8161 24.0082C11.8161 26.3213 10.0549 28.2117 7.88266 28.2117C5.71046 28.2117 3.94922 26.3213 3.94922 24.0082ZM5.00596 24.0082C5.00596 25.7459 6.29754 27.1549 7.88266 27.1549C9.46778 27.1549 10.7594 25.7459 10.7594 24.0082C10.7594 22.2704 9.46778 20.8614 7.88266 20.8614C6.29754 20.8614 5.00596 22.2704 5.00596 24.0082Z" fill="white" style="fill:white;fill-opacity:1;"/>
<path d="M22.0586 27.0357C22.0586 27.1883 28.2464 27.3057 35.8667 27.3057C43.487 27.3057 49.6749 27.1766 49.6749 27.0357C49.6749 26.8948 43.4988 26.7656 35.8667 26.7656C28.2464 26.7656 22.0586 26.8948 22.0586 27.0357Z" fill="#65666D" style="fill:#65666D;fill:color(display-p3 0.3961 0.4000 0.4275);fill-opacity:1;"/>
<path d="M22.0586 24.9576C22.0586 25.1102 28.2464 25.2276 35.8667 25.2276C43.487 25.2276 49.6749 25.0985 49.6749 24.9576C49.6749 24.8167 43.4988 24.6875 35.8667 24.6875C28.2347 24.6875 22.0586 24.8049 22.0586 24.9576Z" fill="#65666D" style="fill:#65666D;fill:color(display-p3 0.3961 0.4000 0.4275);fill-opacity:1;"/>
<path d="M22.0586 22.8951C22.0586 23.0477 28.2464 23.1651 35.8667 23.1651C43.487 23.1651 49.6749 23.036 49.6749 22.8951C49.6749 22.7542 43.4988 22.625 35.8667 22.625C28.2347 22.625 22.0586 22.7542 22.0586 22.8951Z" fill="#65666D" style="fill:#65666D;fill:color(display-p3 0.3961 0.4000 0.4275);fill-opacity:1;"/>
<path d="M22.0586 20.8326C22.0586 20.9852 28.2464 21.1026 35.8667 21.1026C43.487 21.1026 49.6749 20.9735 49.6749 20.8326C49.6749 20.6917 43.4988 20.5625 35.8667 20.5625C28.2347 20.5625 22.0586 20.6917 22.0586 20.8326Z" fill="#65666D" style="fill:#65666D;fill:color(display-p3 0.3961 0.4000 0.4275);fill-opacity:1;"/>
<path d="M53.7344 49.3438H23.6406V61.2028H53.7344V49.3438Z" fill="white" style="fill:white;fill-opacity:1;"/>
<path d="M54.9966 47.2969H-39.5117V49.7743H54.9966V47.2969Z" fill="#FFD66B" style="fill:#FFD66B;fill:color(display-p3 1.0000 0.8378 0.4208);fill-opacity:1;"/>
<path d="M54.5621 60.6562H-39.5117V63.1337H54.5621V60.6562Z" fill="#FFD66B" style="fill:#FFD66B;fill:color(display-p3 1.0000 0.8378 0.4208);fill-opacity:1;"/>
<path d="M23.6464 47.8828L23.5055 62.6655H-39.5117V47.8828H23.6464Z" fill="#FFD66B" style="fill:#FFD66B;fill:color(display-p3 1.0000 0.8378 0.4208);fill-opacity:1;"/>
<path d="M8.33203 55.2533C8.33203 57.2846 9.85844 58.9284 11.7371 58.9284C13.6158 58.9284 15.1422 57.2846 15.1422 55.2533C15.1422 53.222 13.6158 51.5781 11.7371 51.5781C9.85844 51.5781 8.33203 53.222 8.33203 55.2533Z" fill="#585960" style="fill:#585960;fill:color(display-p3 0.3451 0.3490 0.3765);fill-opacity:1;"/>
<path d="M7.80078 55.2582C7.80078 52.9333 9.56202 51.0547 11.7342 51.0547C13.9064 51.0547 15.6677 52.9451 15.6677 55.2582C15.6677 57.5713 13.9064 59.4617 11.7342 59.4617C9.56202 59.4617 7.80078 57.5713 7.80078 55.2582ZM8.85752 55.2582C8.85752 56.9959 10.1491 58.4049 11.7342 58.4049C13.3193 58.4049 14.6109 56.9959 14.6109 55.2582C14.6109 53.5204 13.3193 52.1114 11.7342 52.1114C10.1491 52.1114 8.85752 53.5204 8.85752 55.2582Z" fill="white" style="fill:white;fill-opacity:1;"/>
<path d="M25.9141 58.2857C25.9141 58.4383 32.1019 58.5557 39.7222 58.5557C47.3425 58.5557 53.5303 58.4266 53.5303 58.2857C53.5303 58.1448 47.3543 58.0156 39.7222 58.0156C32.1019 58.0156 25.9141 58.1448 25.9141 58.2857Z" fill="#FFD66B" style="fill:#FFD66B;fill:color(display-p3 1.0000 0.8378 0.4208);fill-opacity:1;"/>
<path d="M25.9141 56.2076C25.9141 56.3602 32.1019 56.4776 39.7222 56.4776C47.3425 56.4776 53.5303 56.3485 53.5303 56.2076C53.5303 56.0667 47.3543 55.9375 39.7222 55.9375C32.0902 55.9375 25.9141 56.0549 25.9141 56.2076Z" fill="#FFD66B" style="fill:#FFD66B;fill:color(display-p3 1.0000 0.8378 0.4208);fill-opacity:1;"/>
<path d="M25.9141 54.1451C25.9141 54.2977 32.1019 54.4151 39.7222 54.4151C47.3425 54.4151 53.5303 54.286 53.5303 54.1451C53.5303 54.0042 47.3543 53.875 39.7222 53.875C32.0902 53.875 25.9141 54.0042 25.9141 54.1451Z" fill="#FFD66B" style="fill:#FFD66B;fill:color(display-p3 1.0000 0.8378 0.4208);fill-opacity:1;"/>
<path d="M25.9141 52.0826C25.9141 52.2352 32.1019 52.3526 39.7222 52.3526C47.3425 52.3526 53.5303 52.2235 53.5303 52.0826C53.5303 51.9417 47.3543 51.8125 39.7222 51.8125C32.0902 51.8125 25.9141 51.9417 25.9141 52.0826Z" fill="#FFD66B" style="fill:#FFD66B;fill:color(display-p3 1.0000 0.8378 0.4208);fill-opacity:1;"/>
<path d="M44.5 33.4844H14.4062V45.3434H44.5V33.4844Z" fill="white" style="fill:white;fill-opacity:1;"/>
<path d="M45.7583 31.4375H-48.75V33.915H45.7583V31.4375Z" fill="#FFA469" style="fill:#FFA469;fill:color(display-p3 1.0000 0.6431 0.4118);fill-opacity:1;"/>
<path d="M45.3238 44.7969H-48.75V47.2743H45.3238V44.7969Z" fill="#FFA469" style="fill:#FFA469;fill:color(display-p3 1.0000 0.6431 0.4118);fill-opacity:1;"/>
<path d="M14.4082 32.0469L14.2673 46.8178H-48.75V32.0469H14.4082Z" fill="#FFA469" style="fill:#FFA469;fill:color(display-p3 1.0000 0.6431 0.4118);fill-opacity:1;"/>
<path d="M-0.914062 39.4095C-0.914062 41.4408 0.612349 43.0846 2.49101 43.0846C4.36967 43.0846 5.89608 41.4408 5.89608 39.4095C5.89608 37.3782 4.36967 35.7344 2.49101 35.7344C0.612349 35.7344 -0.914062 37.3782 -0.914062 39.4095Z" fill="#585960" style="fill:#585960;fill:color(display-p3 0.3451 0.3490 0.3765);fill-opacity:1;"/>
<path d="M-1.44531 39.4145C-1.44531 37.0896 0.315928 35.2109 2.48813 35.2109C4.66033 35.2109 6.42157 37.1014 6.42157 39.4145C6.42157 41.7276 4.66033 43.6179 2.48813 43.6179C0.315928 43.6179 -1.44531 41.7276 -1.44531 39.4145ZM-0.38857 39.4145C-0.38857 41.1522 0.903009 42.5612 2.48813 42.5612C4.07325 42.5612 5.36482 41.1522 5.36482 39.4145C5.36482 37.6767 4.07325 36.2677 2.48813 36.2677C0.903009 36.2677 -0.38857 37.6767 -0.38857 39.4145Z" fill="white" style="fill:white;fill-opacity:1;"/>
<path d="M16.6758 42.4185C16.6758 42.5711 22.8636 42.6885 30.4839 42.6885C38.1042 42.6885 44.2921 42.5594 44.2921 42.4185C44.2921 42.2776 38.116 42.1484 30.4839 42.1484C22.8519 42.1484 16.6758 42.2776 16.6758 42.4185Z" fill="#8F8F92" style="fill:#8F8F92;fill:color(display-p3 0.5608 0.5608 0.5725);fill-opacity:1;"/>
<path d="M16.6758 40.3716C16.6758 40.5243 22.8636 40.6417 30.4839 40.6417C38.1042 40.6417 44.2921 40.5125 44.2921 40.3716C44.2921 40.2307 38.116 40.1016 30.4839 40.1016C22.8519 40.1016 16.6758 40.2307 16.6758 40.3716Z" fill="#8F8F92" style="fill:#8F8F92;fill:color(display-p3 0.5608 0.5608 0.5725);fill-opacity:1;"/>
<path d="M16.6758 38.2857C16.6758 38.4383 22.8636 38.5558 30.4839 38.5558C38.1042 38.5558 44.2921 38.4266 44.2921 38.2857C44.2921 38.1448 38.116 38.0156 30.4839 38.0156C22.8519 38.0156 16.6758 38.1448 16.6758 38.2857Z" fill="#8F8F92" style="fill:#8F8F92;fill:color(display-p3 0.5608 0.5608 0.5725);fill-opacity:1;"/>
<path d="M16.6758 36.231C16.6758 36.3836 22.8636 36.501 30.4839 36.501C38.1042 36.501 44.2921 36.3719 44.2921 36.231C44.2921 36.0901 38.116 35.9609 30.4839 35.9609C22.8519 35.9609 16.6758 36.0901 16.6758 36.231Z" fill="#8F8F92" style="fill:#8F8F92;fill:color(display-p3 0.5608 0.5608 0.5725);fill-opacity:1;"/>
<path d="M33.0234 23.6927H26.9818C26.0547 23.6927 24.8672 23.2031 24.2214 22.5469L19.9505 18.276C19.2943 17.6198 18.8047 16.4323 18.8047 15.5156V9.47396C18.8047 8.54688 19.2943 7.35939 19.9505 6.71355L24.2214 2.44271C24.8776 1.78646 26.0651 1.29688 26.9818 1.29688H33.0234C33.9505 1.29688 35.138 1.78646 35.7839 2.44271L40.0547 6.71355C40.7109 7.3698 41.2005 8.5573 41.2005 9.47396V15.5156C41.2005 16.4427 40.7109 17.6302 40.0547 18.276L35.7839 22.5469C35.1276 23.2031 33.9505 23.6927 33.0234 23.6927Z" fill="#FF6D3F" style="fill:#FF6D3F;fill:color(display-p3 1.0000 0.4291 0.2489);fill-opacity:1;"/>
<path d="M33.0234 23.6927H26.9818C26.0547 23.6927 24.8672 23.2031 24.2214 22.5469L19.9505 18.276C19.2943 17.6198 18.8047 16.4323 18.8047 15.5156V9.47396C18.8047 8.54688 19.2943 7.35939 19.9505 6.71355L24.2214 2.44271C24.8776 1.78646 26.0651 1.29688 26.9818 1.29688H33.0234C33.9505 1.29688 35.138 1.78646 35.7839 2.44271L40.0547 6.71355C40.7109 7.3698 41.2005 8.5573 41.2005 9.47396V15.5156C41.2005 16.4427 40.7109 17.6302 40.0547 18.276L35.7839 22.5469C35.1276 23.2031 33.9505 23.6927 33.0234 23.6927Z" fill="url(#paint0_linear_2610_1746)" style=""/>
<path d="M33.0234 23.6927H26.9818C26.0547 23.6927 24.8672 23.2031 24.2214 22.5469L19.9505 18.276C19.2943 17.6198 18.8047 16.4323 18.8047 15.5156V9.47396C18.8047 8.54688 19.2943 7.35939 19.9505 6.71355L24.2214 2.44271C24.8776 1.78646 26.0651 1.29688 26.9818 1.29688H33.0234C33.9505 1.29688 35.138 1.78646 35.7839 2.44271L40.0547 6.71355C40.7109 7.3698 41.2005 8.5573 41.2005 9.47396V15.5156C41.2005 16.4427 40.7109 17.6302 40.0547 18.276L35.7839 22.5469C35.1276 23.2031 33.9505 23.6927 33.0234 23.6927Z" fill="url(#paint1_linear_2610_1746)" style=""/>
<path d="M33.0234 23.6927H26.9818C26.0547 23.6927 24.8672 23.2031 24.2214 22.5469L19.9505 18.276C19.2943 17.6198 18.8047 16.4323 18.8047 15.5156V9.47396C18.8047 8.54688 19.2943 7.35939 19.9505 6.71355L24.2214 2.44271C24.8776 1.78646 26.0651 1.29688 26.9818 1.29688H33.0234C33.9505 1.29688 35.138 1.78646 35.7839 2.44271L40.0547 6.71355C40.7109 7.3698 41.2005 8.5573 41.2005 9.47396V15.5156C41.2005 16.4427 40.7109 17.6302 40.0547 18.276L35.7839 22.5469C35.1276 23.2031 33.9505 23.6927 33.0234 23.6927Z" fill="url(#paint2_linear_2610_1746)" style=""/>
<path d="M26.349 16.9297C26.151 16.9297 25.9531 16.8568 25.7969 16.7005C25.4948 16.3984 25.4948 15.8984 25.7969 15.5964L33.0885 8.30469C33.3906 8.0026 33.8906 8.0026 34.1927 8.30469C34.4948 8.60677 34.4948 9.10677 34.1927 9.40885L26.901 16.7005C26.7448 16.8568 26.5469 16.9297 26.349 16.9297Z" fill="white" style="fill:white;fill-opacity:1;"/>
<path d="M26.349 16.9297C26.151 16.9297 25.9531 16.8568 25.7969 16.7005C25.4948 16.3984 25.4948 15.8984 25.7969 15.5964L33.0885 8.30469C33.3906 8.0026 33.8906 8.0026 34.1927 8.30469C34.4948 8.60677 34.4948 9.10677 34.1927 9.40885L26.901 16.7005C26.7448 16.8568 26.5469 16.9297 26.349 16.9297Z" fill="url(#paint3_linear_2610_1746)" style=""/>
<path d="M33.6406 16.9297C33.4427 16.9297 33.2448 16.8568 33.0885 16.7005L25.7969 9.40885C25.4948 9.10677 25.4948 8.60677 25.7969 8.30469C26.099 8.0026 26.599 8.0026 26.901 8.30469L34.1927 15.5964C34.4948 15.8984 34.4948 16.3984 34.1927 16.7005C34.0365 16.8568 33.8385 16.9297 33.6406 16.9297Z" fill="white" style="fill:white;fill-opacity:1;"/>
<path d="M33.6406 16.9297C33.4427 16.9297 33.2448 16.8568 33.0885 16.7005L25.7969 9.40885C25.4948 9.10677 25.4948 8.60677 25.7969 8.30469C26.099 8.0026 26.599 8.0026 26.901 8.30469L34.1927 15.5964C34.4948 15.8984 34.4948 16.3984 34.1927 16.7005C34.0365 16.8568 33.8385 16.9297 33.6406 16.9297Z" fill="url(#paint4_linear_2610_1746)" style=""/>
<defs>
<linearGradient id="paint0_linear_2610_1746" x1="30.0026" y1="1.29687" x2="30.0026" y2="23.6927" gradientUnits="userSpaceOnUse">
<stop stop-color="#FFA469" style="stop-color:#FFA469;stop-color:color(display-p3 1.0000 0.6431 0.4118);stop-opacity:1;"/>
<stop offset="1" stop-color="#FF6D3F" style="stop-color:#FF6D3F;stop-color:color(display-p3 1.0000 0.4275 0.2471);stop-opacity:1;"/>
</linearGradient>
<linearGradient id="paint1_linear_2610_1746" x1="30.0026" y1="1.29687" x2="30.0026" y2="23.6927" gradientUnits="userSpaceOnUse">
<stop stop-color="#FFA469" style="stop-color:#FFA469;stop-color:color(display-p3 1.0000 0.6431 0.4118);stop-opacity:1;"/>
<stop offset="0.615" stop-color="#FF6D3F" style="stop-color:#FF6D3F;stop-color:color(display-p3 1.0000 0.4275 0.2471);stop-opacity:1;"/>
</linearGradient>
<linearGradient id="paint2_linear_2610_1746" x1="29.9243" y1="1.03646" x2="29.9249" y2="23.9531" gradientUnits="userSpaceOnUse">
<stop stop-color="#FFD66B" style="stop-color:#FFD66B;stop-color:color(display-p3 1.0000 0.8378 0.4208);stop-opacity:1;"/>
<stop offset="1" stop-color="#FFA469" style="stop-color:#FFA469;stop-color:color(display-p3 1.0000 0.6431 0.4118);stop-opacity:1;"/>
</linearGradient>
<linearGradient id="paint3_linear_2610_1746" x1="30.9704" y1="8.39329" x2="32.9446" y2="16.1056" gradientUnits="userSpaceOnUse">
<stop stop-color="#4F5058" style="stop-color:#4F5058;stop-color:color(display-p3 0.3098 0.3137 0.3451);stop-opacity:1;"/>
<stop offset="1" stop-color="#C27B4C" style="stop-color:#C27B4C;stop-color:color(display-p3 0.7592 0.4808 0.2983);stop-opacity:1;"/>
</linearGradient>
<linearGradient id="paint4_linear_2610_1746" x1="30.9704" y1="8.39329" x2="32.9446" y2="16.1056" gradientUnits="userSpaceOnUse">
<stop stop-color="#4F5058" style="stop-color:#4F5058;stop-color:color(display-p3 0.3098 0.3137 0.3451);stop-opacity:1;"/>
<stop offset="1" stop-color="#C27B4C" style="stop-color:#C27B4C;stop-color:color(display-p3 0.7592 0.4808 0.2983);stop-opacity:1;"/>
</linearGradient>
</defs>
</svg>
