<svg width="60" height="63" viewBox="0 0 60 63" fill="none" xmlns="http://www.w3.org/2000/svg">
<path d="M29.5257 18.8638C27.9074 18.8638 26.5938 17.5502 26.5938 15.9319C26.5938 14.3136 27.9074 13 29.5257 13C31.144 13 32.4576 14.3136 32.4576 15.9319C32.4576 17.5502 31.144 18.8638 29.5257 18.8638ZM29.5257 14.4279C28.6975 14.4279 28.0216 15.1037 28.0216 15.9319C28.0216 16.7601 28.6975 17.4359 29.5257 17.4359C30.3539 17.4359 31.0298 16.7601 31.0298 15.9319C31.0298 15.1037 30.3539 14.4279 29.5257 14.4279Z" fill="#585960" style="fill:#585960;fill:color(display-p3 0.3451 0.3490 0.3765);fill-opacity:1;"/>
<path d="M33.3293 24.2499C32.9391 24.2499 32.6154 23.9262 32.6154 23.5359C32.6154 22.2223 31.2256 21.1466 29.5216 21.1466C27.8177 21.1466 26.4279 22.2223 26.4279 23.5359C26.4279 23.9262 26.1042 24.2499 25.7139 24.2499C25.3237 24.2499 25 23.9262 25 23.5359C25 21.4322 27.0276 19.7188 29.5216 19.7188C32.0157 19.7188 34.0433 21.4322 34.0433 23.5359C34.0433 23.9262 33.7196 24.2499 33.3293 24.2499Z" fill="#585960" style="fill:#585960;fill:color(display-p3 0.3451 0.3490 0.3765);fill-opacity:1;"/>
<rect x="47.3203" y="13.9766" width="4.08473" height="1.36158" rx="0.680788" fill="#8F8F92" style="fill:#8F8F92;fill:color(display-p3 0.5608 0.5608 0.5725);fill-opacity:1;"/>
<rect x="37.7891" y="13.9766" width="6.80788" height="1.36158" rx="0.680788" fill="#8F8F92" style="fill:#8F8F92;fill:color(display-p3 0.5608 0.5608 0.5725);fill-opacity:1;"/>
<rect x="47.3203" y="18.0703" width="8.16945" height="1.36158" rx="0.680788" fill="#8F8F92" style="fill:#8F8F92;fill:color(display-p3 0.5608 0.5608 0.5725);fill-opacity:1;"/>
<rect x="47.3203" y="22.1406" width="6.80788" height="1.36158" rx="0.680788" fill="#8F8F92" style="fill:#8F8F92;fill:color(display-p3 0.5608 0.5608 0.5725);fill-opacity:1;"/>
<rect x="37.7891" y="18.0703" width="8.16945" height="1.36158" rx="0.680788" fill="#8F8F92" style="fill:#8F8F92;fill:color(display-p3 0.5608 0.5608 0.5725);fill-opacity:1;"/>
<rect x="37.7891" y="22.1406" width="5.4463" height="1.36158" rx="0.680788" fill="#8F8F92" style="fill:#8F8F92;fill:color(display-p3 0.5608 0.5608 0.5725);fill-opacity:1;"/>
<path d="M77.0978 31.3157L76.9925 56.0585C76.9899 56.3981 76.693 56.6669 76.3252 56.6624L-22.3268 55.7324C-22.6945 55.7279 -22.9875 55.4521 -22.9843 55.116L-22.9795 53.7233C-18.8827 53.7626 -17.1921 50.7097 -14.4431 50.7359C-11.6941 50.7622 -10.0222 52.3119 -7.44926 52.3367C-4.87261 52.3609 -1.8757 46.4081 0.94236 46.4358C1.42835 46.4389 1.85907 46.5023 2.24878 46.5957C3.37393 46.8643 4.2104 47.4289 5.27869 47.8428C6.00411 48.1217 6.83403 48.3373 7.93288 48.3479C11.2294 48.3797 15.9405 36.7457 19.7654 36.782C20.4318 36.7896 21.0227 37.0403 21.5702 37.4486C24.1373 39.382 25.6032 44.8702 28.7884 44.899C32.6512 44.9339 33.7573 38.9901 37.5019 39.0265C41.2464 39.0628 43.2723 44.7527 47.6142 44.7951C51.9599 44.837 54.8249 33.5134 59.3317 33.5588C63.8341 33.6013 65.983 38.9393 69.8993 38.9742C74.1915 39.0161 77.094 31.3162 77.094 31.3162L77.0978 31.3157Z" fill="#FCCD82" style="fill:#FCCD82;fill:color(display-p3 0.9882 0.8039 0.5098);fill-opacity:1;"/>
<path d="M67.8447 41.0928C67.7115 41.3746 67.5492 41.6872 67.3582 42.0012C67.0492 42.5092 66.6499 43.0461 66.1563 43.46C65.6605 43.8756 65.0337 44.1958 64.2881 44.1875C63.2314 44.1759 62.5229 43.8711 61.8877 43.5077C61.716 43.4095 61.5581 43.3131 61.4047 43.2196C60.9864 42.9644 60.6018 42.7298 60.0622 42.5326L60.0608 42.5321C59.4935 42.3232 58.758 42.1645 57.6979 42.1522L57.6973 42.1522C57.0037 42.1435 56.3932 42.411 55.7937 42.8953C55.1832 43.3885 54.6209 44.0763 54.0296 44.854L54.0294 44.8543C53.917 45.002 53.8034 45.1533 53.6882 45.3066C53.0794 46.1171 52.4285 46.9835 51.6988 47.6684C50.8154 48.4975 49.7441 49.1335 48.3721 49.1182L48.3712 49.1182C46.5575 49.0955 45.0853 48.2541 43.7547 47.3245C43.3952 47.0735 43.0518 46.8211 42.7139 46.5728C42.0241 46.0657 41.3574 45.5757 40.6241 45.1498C39.5651 44.5348 38.4496 44.1105 37.1401 44.096L37.1389 44.096C35.9383 44.0805 34.6859 44.6858 33.3888 45.6599C32.2269 46.5357 31.1184 47.6348 30.0513 48.6929C29.7131 49.0282 29.3791 49.3594 29.0488 49.6781C28.376 50.3273 27.7143 50.9276 27.0846 51.3656C26.4704 51.7929 25.7957 52.132 25.1062 52.1244L25.1054 52.1244C24.2398 52.1139 23.4336 51.7571 22.7107 51.299C21.9878 50.8408 21.2872 50.2407 20.6366 49.6772C20.6012 49.6465 20.5659 49.6159 20.5307 49.5855C19.9046 49.0428 19.3264 48.5416 18.7626 48.1628C18.1633 47.7603 17.6649 47.556 17.2333 47.551C16.291 47.5401 15.6681 48.0938 14.9277 48.8585C14.8902 48.8972 14.8522 48.9368 14.8136 48.9768C14.495 49.3077 14.1403 49.6759 13.7513 49.9608C13.2987 50.2921 12.7529 50.5481 12.0755 50.5406C10.9984 50.5288 10.3219 50.0427 9.74358 49.6271C9.65412 49.5628 9.56701 49.5002 9.48112 49.4413C8.8536 49.011 8.07336 48.5742 6.45849 48.5561C5.07734 48.5408 4.28258 49.1916 3.21724 50.0641C3.12538 50.1393 3.03151 50.2162 2.93508 50.2944C1.72115 51.2792 0.237284 52.3228 -2.46173 52.2923C-5.12067 52.2622 -6.60385 51.405 -7.97581 50.6012L-8.00326 50.5852C-9.31529 49.8164 -10.5147 49.1137 -12.7336 49.0879L-12.7336 49.0879C-14.9958 49.0614 -16.2355 49.6474 -17.3513 50.2549C-17.4527 50.3101 -17.5541 50.3662 -17.6559 50.4226C-18.6987 50.9996 -19.7914 51.6043 -21.5102 51.5842L67.8447 41.0928ZM67.8447 41.0928L75.3144 52.3407L75.5071 52.6308L75.7836 52.6308C75.7812 52.6424 75.7784 52.6548 75.7752 52.6681C75.6786 53.07 75.3313 53.7308 74.7262 54.6106C73.5401 56.3349 71.5523 58.6368 69.3956 60.8899C67.2419 63.1397 64.9449 65.3148 63.1537 66.7864C62.2525 67.5269 61.5052 68.0676 60.9801 68.3552C60.8914 68.4038 60.8156 68.4413 60.752 68.4702L60.7221 68.3723L60.2321 68.3843L-0.599044 69.8744C-2.70253 69.5274 -5.67438 68.2701 -9.00638 66.5157C-12.3484 64.7559 -15.9862 62.5324 -19.356 60.3362C-22.7244 58.141 -25.8165 55.9786 -28.0652 54.3447C-29.1898 53.5276 -30.1008 52.8445 -30.7285 52.357C-31.0432 52.1125 -31.2819 51.9209 -31.4392 51.7878C-31.4484 51.7801 -31.4572 51.7726 -31.4656 51.7654L-31.4647 51.5624C-31.268 51.3461 -30.8701 50.9384 -30.3372 50.5418C-29.5855 49.9825 -28.6442 49.5043 -27.6675 49.5167L-27.6664 49.5167C-26.7383 49.5269 -26.2098 49.8614 -25.4761 50.3258C-25.4139 50.3652 -25.3503 50.4055 -25.2847 50.4467C-24.4177 50.9908 -23.3694 51.5627 -21.5103 51.5842L67.8447 41.0928ZM-31.4667 52.0297L-31.4667 52.0282L-31.4667 52.0297ZM75.932 52.6368C75.932 52.6368 75.9308 52.6366 75.9287 52.6359C75.931 52.6364 75.9321 52.6367 75.932 52.6368Z" fill="url(#paint0_linear_2610_1745)" style=""/>
<path d="M67.8447 41.0928C67.7115 41.3746 67.5492 41.6872 67.3582 42.0012C67.0492 42.5092 66.6499 43.0461 66.1563 43.46C65.6605 43.8756 65.0337 44.1958 64.2881 44.1875C63.2314 44.1759 62.5229 43.8711 61.8877 43.5077C61.716 43.4095 61.5581 43.3131 61.4047 43.2196C60.9864 42.9644 60.6018 42.7298 60.0622 42.5326L60.0608 42.5321C59.4935 42.3232 58.758 42.1645 57.6979 42.1522L57.6973 42.1522C57.0037 42.1435 56.3932 42.411 55.7937 42.8953C55.1832 43.3885 54.6209 44.0763 54.0296 44.854L54.0294 44.8543C53.917 45.002 53.8034 45.1533 53.6882 45.3066C53.0794 46.1171 52.4285 46.9835 51.6988 47.6684C50.8154 48.4975 49.7441 49.1335 48.3721 49.1182L48.3712 49.1182C46.5575 49.0955 45.0853 48.2541 43.7547 47.3245C43.3952 47.0735 43.0518 46.8211 42.7139 46.5728C42.0241 46.0657 41.3574 45.5757 40.6241 45.1498C39.5651 44.5348 38.4496 44.1105 37.1401 44.096L37.1389 44.096C35.9383 44.0805 34.6859 44.6858 33.3888 45.6599C32.2269 46.5357 31.1184 47.6348 30.0513 48.6929C29.7131 49.0282 29.3791 49.3594 29.0488 49.6781C28.376 50.3273 27.7143 50.9276 27.0846 51.3656C26.4704 51.7929 25.7957 52.132 25.1062 52.1244L25.1054 52.1244C24.2398 52.1139 23.4336 51.7571 22.7107 51.299C21.9878 50.8408 21.2872 50.2407 20.6366 49.6772C20.6012 49.6465 20.5659 49.6159 20.5307 49.5855C19.9046 49.0428 19.3264 48.5416 18.7626 48.1628C18.1633 47.7603 17.6649 47.556 17.2333 47.551C16.291 47.5401 15.6681 48.0938 14.9277 48.8585C14.8902 48.8972 14.8522 48.9368 14.8136 48.9768C14.495 49.3077 14.1403 49.6759 13.7513 49.9608C13.2987 50.2921 12.7529 50.5481 12.0755 50.5406C10.9984 50.5288 10.3219 50.0427 9.74358 49.6271C9.65412 49.5628 9.56701 49.5002 9.48112 49.4413C8.8536 49.011 8.07336 48.5742 6.45849 48.5561C5.07734 48.5408 4.28258 49.1916 3.21724 50.0641C3.12538 50.1393 3.03151 50.2162 2.93508 50.2944C1.72115 51.2792 0.237284 52.3228 -2.46173 52.2923C-5.12067 52.2622 -6.60385 51.405 -7.97581 50.6012L-8.00326 50.5852C-9.31529 49.8164 -10.5147 49.1137 -12.7336 49.0879L-12.7336 49.0879C-14.9958 49.0614 -16.2355 49.6474 -17.3513 50.2549C-17.4527 50.3101 -17.5541 50.3662 -17.6559 50.4226C-18.6987 50.9996 -19.7914 51.6043 -21.5102 51.5842L67.8447 41.0928ZM67.8447 41.0928L75.3144 52.3407L75.5071 52.6308L75.7836 52.6308C75.7812 52.6424 75.7784 52.6548 75.7752 52.6681C75.6786 53.07 75.3313 53.7308 74.7262 54.6106C73.5401 56.3349 71.5523 58.6368 69.3956 60.8899C67.2419 63.1397 64.9449 65.3148 63.1537 66.7864C62.2525 67.5269 61.5052 68.0676 60.9801 68.3552C60.8914 68.4038 60.8156 68.4413 60.752 68.4702L60.7221 68.3723L60.2321 68.3843L-0.599044 69.8744C-2.70253 69.5274 -5.67438 68.2701 -9.00638 66.5157C-12.3484 64.7559 -15.9862 62.5324 -19.356 60.3362C-22.7244 58.141 -25.8165 55.9786 -28.0652 54.3447C-29.1898 53.5276 -30.1008 52.8445 -30.7285 52.357C-31.0432 52.1125 -31.2819 51.9209 -31.4392 51.7878C-31.4484 51.7801 -31.4572 51.7726 -31.4656 51.7654L-31.4647 51.5624C-31.268 51.3461 -30.8701 50.9384 -30.3372 50.5418C-29.5855 49.9825 -28.6442 49.5043 -27.6675 49.5167L-27.6664 49.5167C-26.7383 49.5269 -26.2098 49.8614 -25.4761 50.3258C-25.4139 50.3652 -25.3503 50.4055 -25.2847 50.4467C-24.4177 50.9908 -23.3694 51.5627 -21.5103 51.5842L67.8447 41.0928ZM-31.4667 52.0297L-31.4667 52.0282L-31.4667 52.0297ZM75.932 52.6368C75.932 52.6368 75.9308 52.6366 75.9287 52.6359C75.931 52.6364 75.9321 52.6367 75.932 52.6368Z" fill="#D7D7D7" style="fill:#D7D7D7;fill:color(display-p3 0.8431 0.8431 0.8431);fill-opacity:1;"/>
<path d="M67.8447 41.0928C67.7115 41.3746 67.5492 41.6872 67.3582 42.0012C67.0492 42.5092 66.6499 43.0461 66.1563 43.46C65.6605 43.8756 65.0337 44.1958 64.2881 44.1875C63.2314 44.1759 62.5229 43.8711 61.8877 43.5077C61.716 43.4095 61.5581 43.3131 61.4047 43.2196C60.9864 42.9644 60.6018 42.7298 60.0622 42.5326L60.0608 42.5321C59.4935 42.3232 58.758 42.1645 57.6979 42.1522L57.6973 42.1522C57.0037 42.1435 56.3932 42.411 55.7937 42.8953C55.1832 43.3885 54.6209 44.0763 54.0296 44.854L54.0294 44.8543C53.917 45.002 53.8034 45.1533 53.6882 45.3066C53.0794 46.1171 52.4285 46.9835 51.6988 47.6684C50.8154 48.4975 49.7441 49.1335 48.3721 49.1182L48.3712 49.1182C46.5575 49.0955 45.0853 48.2541 43.7547 47.3245C43.3952 47.0735 43.0518 46.8211 42.7139 46.5728C42.0241 46.0657 41.3574 45.5757 40.6241 45.1498C39.5651 44.5348 38.4496 44.1105 37.1401 44.096L37.1389 44.096C35.9383 44.0805 34.6859 44.6858 33.3888 45.6599C32.2269 46.5357 31.1184 47.6348 30.0513 48.6929C29.7131 49.0282 29.3791 49.3594 29.0488 49.6781C28.376 50.3273 27.7143 50.9276 27.0846 51.3656C26.4704 51.7929 25.7957 52.132 25.1062 52.1244L25.1054 52.1244C24.2398 52.1139 23.4336 51.7571 22.7107 51.299C21.9878 50.8408 21.2872 50.2407 20.6366 49.6772C20.6012 49.6465 20.5659 49.6159 20.5307 49.5855C19.9046 49.0428 19.3264 48.5416 18.7626 48.1628C18.1633 47.7603 17.6649 47.556 17.2333 47.551C16.291 47.5401 15.6681 48.0938 14.9277 48.8585C14.8902 48.8972 14.8522 48.9368 14.8136 48.9768C14.495 49.3077 14.1403 49.6759 13.7513 49.9608C13.2987 50.2921 12.7529 50.5481 12.0755 50.5406C10.9984 50.5288 10.3219 50.0427 9.74358 49.6271C9.65412 49.5628 9.56701 49.5002 9.48112 49.4413C8.8536 49.011 8.07336 48.5742 6.45849 48.5561C5.07734 48.5408 4.28258 49.1916 3.21724 50.0641C3.12538 50.1393 3.03151 50.2162 2.93508 50.2944C1.72115 51.2792 0.237284 52.3228 -2.46173 52.2923C-5.12067 52.2622 -6.60385 51.405 -7.97581 50.6012L-8.00326 50.5852C-9.31529 49.8164 -10.5147 49.1137 -12.7336 49.0879L-12.7336 49.0879C-14.9958 49.0614 -16.2355 49.6474 -17.3513 50.2549C-17.4527 50.3101 -17.5541 50.3662 -17.6559 50.4226C-18.6987 50.9996 -19.7914 51.6043 -21.5102 51.5842L67.8447 41.0928ZM67.8447 41.0928L75.3144 52.3407L75.5071 52.6308L75.7836 52.6308C75.7812 52.6424 75.7784 52.6548 75.7752 52.6681C75.6786 53.07 75.3313 53.7308 74.7262 54.6106C73.5401 56.3349 71.5523 58.6368 69.3956 60.8899C67.2419 63.1397 64.9449 65.3148 63.1537 66.7864C62.2525 67.5269 61.5052 68.0676 60.9801 68.3552C60.8914 68.4038 60.8156 68.4413 60.752 68.4702L60.7221 68.3723L60.2321 68.3843L-0.599044 69.8744C-2.70253 69.5274 -5.67438 68.2701 -9.00638 66.5157C-12.3484 64.7559 -15.9862 62.5324 -19.356 60.3362C-22.7244 58.141 -25.8165 55.9786 -28.0652 54.3447C-29.1898 53.5276 -30.1008 52.8445 -30.7285 52.357C-31.0432 52.1125 -31.2819 51.9209 -31.4392 51.7878C-31.4484 51.7801 -31.4572 51.7726 -31.4656 51.7654L-31.4647 51.5624C-31.268 51.3461 -30.8701 50.9384 -30.3372 50.5418C-29.5855 49.9825 -28.6442 49.5043 -27.6675 49.5167L-27.6664 49.5167C-26.7383 49.5269 -26.2098 49.8614 -25.4761 50.3258C-25.4139 50.3652 -25.3503 50.4055 -25.2847 50.4467C-24.4177 50.9908 -23.3694 51.5627 -21.5103 51.5842L67.8447 41.0928ZM-31.4667 52.0297L-31.4667 52.0282L-31.4667 52.0297ZM75.932 52.6368C75.932 52.6368 75.9308 52.6366 75.9287 52.6359C75.931 52.6364 75.9321 52.6367 75.932 52.6368Z" fill="#F3F0F0" style="fill:#F3F0F0;fill:color(display-p3 0.9529 0.9412 0.9412);fill-opacity:1;"/>
<path d="M67.8447 41.0928C67.7115 41.3746 67.5492 41.6872 67.3582 42.0012C67.0492 42.5092 66.6499 43.0461 66.1563 43.46C65.6605 43.8756 65.0337 44.1958 64.2881 44.1875C63.2314 44.1759 62.5229 43.8711 61.8877 43.5077C61.716 43.4095 61.5581 43.3131 61.4047 43.2196C60.9864 42.9644 60.6018 42.7298 60.0622 42.5326L60.0608 42.5321C59.4935 42.3232 58.758 42.1645 57.6979 42.1522L57.6973 42.1522C57.0037 42.1435 56.3932 42.411 55.7937 42.8953C55.1832 43.3885 54.6209 44.0763 54.0296 44.854L54.0294 44.8543C53.917 45.002 53.8034 45.1533 53.6882 45.3066C53.0794 46.1171 52.4285 46.9835 51.6988 47.6684C50.8154 48.4975 49.7441 49.1335 48.3721 49.1182L48.3712 49.1182C46.5575 49.0955 45.0853 48.2541 43.7547 47.3245C43.3952 47.0735 43.0518 46.8211 42.7139 46.5728C42.0241 46.0657 41.3574 45.5757 40.6241 45.1498C39.5651 44.5348 38.4496 44.1105 37.1401 44.096L37.1389 44.096C35.9383 44.0805 34.6859 44.6858 33.3888 45.6599C32.2269 46.5357 31.1184 47.6348 30.0513 48.6929C29.7131 49.0282 29.3791 49.3594 29.0488 49.6781C28.376 50.3273 27.7143 50.9276 27.0846 51.3656C26.4704 51.7929 25.7957 52.132 25.1062 52.1244L25.1054 52.1244C24.2398 52.1139 23.4336 51.7571 22.7107 51.299C21.9878 50.8408 21.2872 50.2407 20.6366 49.6772C20.6012 49.6465 20.5659 49.6159 20.5307 49.5855C19.9046 49.0428 19.3264 48.5416 18.7626 48.1628C18.1633 47.7603 17.6649 47.556 17.2333 47.551C16.291 47.5401 15.6681 48.0938 14.9277 48.8585C14.8902 48.8972 14.8522 48.9368 14.8136 48.9768C14.495 49.3077 14.1403 49.6759 13.7513 49.9608C13.2987 50.2921 12.7529 50.5481 12.0755 50.5406C10.9984 50.5288 10.3219 50.0427 9.74358 49.6271C9.65412 49.5628 9.56701 49.5002 9.48112 49.4413C8.8536 49.011 8.07336 48.5742 6.45849 48.5561C5.07734 48.5408 4.28258 49.1916 3.21724 50.0641C3.12538 50.1393 3.03151 50.2162 2.93508 50.2944C1.72115 51.2792 0.237284 52.3228 -2.46173 52.2923C-5.12067 52.2622 -6.60385 51.405 -7.97581 50.6012L-8.00326 50.5852C-9.31529 49.8164 -10.5147 49.1137 -12.7336 49.0879L-12.7336 49.0879C-14.9958 49.0614 -16.2355 49.6474 -17.3513 50.2549C-17.4527 50.3101 -17.5541 50.3662 -17.6559 50.4226C-18.6987 50.9996 -19.7914 51.6043 -21.5102 51.5842L67.8447 41.0928ZM67.8447 41.0928L75.3144 52.3407L75.5071 52.6308L75.7836 52.6308C75.7812 52.6424 75.7784 52.6548 75.7752 52.6681C75.6786 53.07 75.3313 53.7308 74.7262 54.6106C73.5401 56.3349 71.5523 58.6368 69.3956 60.8899C67.2419 63.1397 64.9449 65.3148 63.1537 66.7864C62.2525 67.5269 61.5052 68.0676 60.9801 68.3552C60.8914 68.4038 60.8156 68.4413 60.752 68.4702L60.7221 68.3723L60.2321 68.3843L-0.599044 69.8744C-2.70253 69.5274 -5.67438 68.2701 -9.00638 66.5157C-12.3484 64.7559 -15.9862 62.5324 -19.356 60.3362C-22.7244 58.141 -25.8165 55.9786 -28.0652 54.3447C-29.1898 53.5276 -30.1008 52.8445 -30.7285 52.357C-31.0432 52.1125 -31.2819 51.9209 -31.4392 51.7878C-31.4484 51.7801 -31.4572 51.7726 -31.4656 51.7654L-31.4647 51.5624C-31.268 51.3461 -30.8701 50.9384 -30.3372 50.5418C-29.5855 49.9825 -28.6442 49.5043 -27.6675 49.5167L-27.6664 49.5167C-26.7383 49.5269 -26.2098 49.8614 -25.4761 50.3258C-25.4139 50.3652 -25.3503 50.4055 -25.2847 50.4467C-24.4177 50.9908 -23.3694 51.5627 -21.5103 51.5842L67.8447 41.0928ZM-31.4667 52.0297L-31.4667 52.0282L-31.4667 52.0297ZM75.932 52.6368C75.932 52.6368 75.9308 52.6366 75.9287 52.6359C75.931 52.6364 75.9321 52.6367 75.932 52.6368Z" stroke="white" style="stroke:white;stroke-opacity:1;" stroke-width="1.25"/>
<path d="M67.8447 41.0928C67.7115 41.3746 67.5492 41.6872 67.3582 42.0012C67.0492 42.5092 66.6499 43.0461 66.1563 43.46C65.6605 43.8756 65.0337 44.1958 64.2881 44.1875C63.2314 44.1759 62.5229 43.8711 61.8877 43.5077C61.716 43.4095 61.5581 43.3131 61.4047 43.2196C60.9864 42.9644 60.6018 42.7298 60.0622 42.5326L60.0608 42.5321C59.4935 42.3232 58.758 42.1645 57.6979 42.1522L57.6973 42.1522C57.0037 42.1435 56.3932 42.411 55.7937 42.8953C55.1832 43.3885 54.6209 44.0763 54.0296 44.854L54.0294 44.8543C53.917 45.002 53.8034 45.1533 53.6882 45.3066C53.0794 46.1171 52.4285 46.9835 51.6988 47.6684C50.8154 48.4975 49.7441 49.1335 48.3721 49.1182L48.3712 49.1182C46.5575 49.0955 45.0853 48.2541 43.7547 47.3245C43.3952 47.0735 43.0518 46.8211 42.7139 46.5728C42.0241 46.0657 41.3574 45.5757 40.6241 45.1498C39.5651 44.5348 38.4496 44.1105 37.1401 44.096L37.1389 44.096C35.9383 44.0805 34.6859 44.6858 33.3888 45.6599C32.2269 46.5357 31.1184 47.6348 30.0513 48.6929C29.7131 49.0282 29.3791 49.3594 29.0488 49.6781C28.376 50.3273 27.7143 50.9276 27.0846 51.3656C26.4704 51.7929 25.7957 52.132 25.1062 52.1244L25.1054 52.1244C24.2398 52.1139 23.4336 51.7571 22.7107 51.299C21.9878 50.8408 21.2872 50.2407 20.6366 49.6772C20.6012 49.6465 20.5659 49.6159 20.5307 49.5855C19.9046 49.0428 19.3264 48.5416 18.7626 48.1628C18.1633 47.7603 17.6649 47.556 17.2333 47.551C16.291 47.5401 15.6681 48.0938 14.9277 48.8585C14.8902 48.8972 14.8522 48.9368 14.8136 48.9768C14.495 49.3077 14.1403 49.6759 13.7513 49.9608C13.2987 50.2921 12.7529 50.5481 12.0755 50.5406C10.9984 50.5288 10.3219 50.0427 9.74358 49.6271C9.65412 49.5628 9.56701 49.5002 9.48112 49.4413C8.8536 49.011 8.07336 48.5742 6.45849 48.5561C5.07734 48.5408 4.28258 49.1916 3.21724 50.0641C3.12538 50.1393 3.03151 50.2162 2.93508 50.2944C1.72115 51.2792 0.237284 52.3228 -2.46173 52.2923C-5.12067 52.2622 -6.60385 51.405 -7.97581 50.6012L-8.00326 50.5852C-9.31529 49.8164 -10.5147 49.1137 -12.7336 49.0879L-12.7336 49.0879C-14.9958 49.0614 -16.2355 49.6474 -17.3513 50.2549C-17.4527 50.3101 -17.5541 50.3662 -17.6559 50.4226C-18.6987 50.9996 -19.7914 51.6043 -21.5102 51.5842L67.8447 41.0928ZM67.8447 41.0928L75.3144 52.3407L75.5071 52.6308L75.7836 52.6308C75.7812 52.6424 75.7784 52.6548 75.7752 52.6681C75.6786 53.07 75.3313 53.7308 74.7262 54.6106C73.5401 56.3349 71.5523 58.6368 69.3956 60.8899C67.2419 63.1397 64.9449 65.3148 63.1537 66.7864C62.2525 67.5269 61.5052 68.0676 60.9801 68.3552C60.8914 68.4038 60.8156 68.4413 60.752 68.4702L60.7221 68.3723L60.2321 68.3843L-0.599044 69.8744C-2.70253 69.5274 -5.67438 68.2701 -9.00638 66.5157C-12.3484 64.7559 -15.9862 62.5324 -19.356 60.3362C-22.7244 58.141 -25.8165 55.9786 -28.0652 54.3447C-29.1898 53.5276 -30.1008 52.8445 -30.7285 52.357C-31.0432 52.1125 -31.2819 51.9209 -31.4392 51.7878C-31.4484 51.7801 -31.4572 51.7726 -31.4656 51.7654L-31.4647 51.5624C-31.268 51.3461 -30.8701 50.9384 -30.3372 50.5418C-29.5855 49.9825 -28.6442 49.5043 -27.6675 49.5167L-27.6664 49.5167C-26.7383 49.5269 -26.2098 49.8614 -25.4761 50.3258C-25.4139 50.3652 -25.3503 50.4055 -25.2847 50.4467C-24.4177 50.9908 -23.3694 51.5627 -21.5103 51.5842L67.8447 41.0928ZM-31.4667 52.0297L-31.4667 52.0282L-31.4667 52.0297ZM75.932 52.6368C75.932 52.6368 75.9308 52.6366 75.9287 52.6359C75.931 52.6364 75.9321 52.6367 75.932 52.6368Z" stroke="#FFA469" style="stroke:#FFA469;stroke:color(display-p3 1.0000 0.6431 0.4118);stroke-opacity:1;" stroke-width="1.25"/>
<rect x="6.25" y="39.25" width="2.76465" height="2.5" rx="1.25" fill="#FFA469" style="fill:#FFA469;fill:color(display-p3 1.0000 0.6431 0.4118);fill-opacity:1;"/>
<rect x="46.25" y="38" width="2.76465" height="2.5" rx="1.25" fill="#FFA469" style="fill:#FFA469;fill:color(display-p3 1.0000 0.6431 0.4118);fill-opacity:1;"/>
<rect x="6.25" y="55.5" width="2.5" height="1.25" rx="0.625" transform="rotate(90 6.25 55.5)" fill="#8F8F92" style="fill:#8F8F92;fill:color(display-p3 0.5608 0.5608 0.5725);fill-opacity:1;"/>
<rect x="16.25" y="55.5" width="2.5" height="1.25" rx="0.625" transform="rotate(90 16.25 55.5)" fill="#8F8F92" style="fill:#8F8F92;fill:color(display-p3 0.5608 0.5608 0.5725);fill-opacity:1;"/>
<rect x="26.25" y="55.5" width="2.5" height="1.25" rx="0.625" transform="rotate(90 26.25 55.5)" fill="#8F8F92" style="fill:#8F8F92;fill:color(display-p3 0.5608 0.5608 0.5725);fill-opacity:1;"/>
<rect x="36.25" y="55.5" width="2.5" height="1.25" rx="0.625" transform="rotate(90 36.25 55.5)" fill="#8F8F92" style="fill:#8F8F92;fill:color(display-p3 0.5608 0.5608 0.5725);fill-opacity:1;"/>
<rect x="46.25" y="55.5" width="2.5" height="1.25" rx="0.625" transform="rotate(90 46.25 55.5)" fill="#8F8F92" style="fill:#8F8F92;fill:color(display-p3 0.5608 0.5608 0.5725);fill-opacity:1;"/>
<rect x="56.25" y="55.5" width="2.5" height="1.25" rx="0.625" transform="rotate(90 56.25 55.5)" fill="#8F8F92" style="fill:#8F8F92;fill:color(display-p3 0.5608 0.5608 0.5725);fill-opacity:1;"/>
<rect x="27.5" y="33" width="5" height="22.5" rx="2.5" fill="#585960" style="fill:#585960;fill:color(display-p3 0.3451 0.3490 0.3765);fill-opacity:1;"/>
<path d="M48.75 19.25C48.75 29.6053 40.3553 38 30 38C19.6447 38 11.25 29.6053 11.25 19.25C11.25 8.89466 19.6447 0.5 30 0.5C40.3553 0.5 48.75 8.89466 48.75 19.25ZM16.875 19.25C16.875 26.4987 22.7513 32.375 30 32.375C37.2487 32.375 43.125 26.4987 43.125 19.25C43.125 12.0013 37.2487 6.125 30 6.125C22.7513 6.125 16.875 12.0013 16.875 19.25Z" fill="#B9BABD" style="fill:#B9BABD;fill:color(display-p3 0.7255 0.7294 0.7412);fill-opacity:1;"/>
<path d="M48.75 19.25C48.75 29.6053 40.3553 38 30 38C19.6447 38 11.25 29.6053 11.25 19.25C11.25 8.89466 19.6447 0.5 30 0.5C40.3553 0.5 48.75 8.89466 48.75 19.25ZM16.875 19.25C16.875 26.4987 22.7513 32.375 30 32.375C37.2487 32.375 43.125 26.4987 43.125 19.25C43.125 12.0013 37.2487 6.125 30 6.125C22.7513 6.125 16.875 12.0013 16.875 19.25Z" fill="url(#paint1_linear_2610_1745)" style=""/>
<circle opacity="0.6" cx="30" cy="19.25" r="15.625" fill="white" style="fill:white;fill-opacity:1;"/>
<defs>
<linearGradient id="paint0_linear_2610_1745" x1="35.625" y1="43.623" x2="36.4157" y2="71.1003" gradientUnits="userSpaceOnUse">
<stop stop-color="#F3F0F0" style="stop-color:#F3F0F0;stop-color:color(display-p3 0.9529 0.9412 0.9412);stop-opacity:1;"/>
<stop offset="1" stop-color="#B9BABD" style="stop-color:#B9BABD;stop-color:color(display-p3 0.7255 0.7294 0.7412);stop-opacity:1;"/>
</linearGradient>
<linearGradient id="paint1_linear_2610_1745" x1="30.2053" y1="1.99685" x2="30.2063" y2="38.48" gradientUnits="userSpaceOnUse">
<stop stop-color="#FFD66B" style="stop-color:#FFD66B;stop-color:color(display-p3 1.0000 0.8378 0.4208);stop-opacity:1;"/>
<stop offset="1" stop-color="#FFA469" style="stop-color:#FFA469;stop-color:color(display-p3 1.0000 0.6431 0.4118);stop-opacity:1;"/>
</linearGradient>
</defs>
</svg>
