<svg width="24" height="25" viewBox="0 0 24 25" fill="none" xmlns="http://www.w3.org/2000/svg">
<g id="forbidden-2">
<g id="vuesax/outline/forbidden-2">
<g id="forbidden-2_2">
<g id="Vector">
<path d="M14.9 23.5703H9.10001C8.21001 23.5703 7.07 23.1003 6.45 22.4703L2.35001 18.3703C1.72001 17.7403 1.25 16.6003 1.25 15.7203V9.92032C1.25 9.03032 1.72001 7.89032 2.35001 7.27032L6.45 3.17032C7.08 2.54032 8.22001 2.07031 9.10001 2.07031H14.9C15.79 2.07031 16.93 2.54032 17.55 3.17032L21.65 7.27032C22.28 7.90032 22.75 9.04032 22.75 9.92032V15.7203C22.75 16.6103 22.28 17.7503 21.65 18.3703L17.55 22.4703C16.92 23.1003 15.79 23.5703 14.9 23.5703Z" fill="#FF6D3F" style="fill:#FF6D3F;fill:color(display-p3 1.0000 0.4291 0.2489);fill-opacity:1;"/>
<path d="M14.9 23.5703H9.10001C8.21001 23.5703 7.07 23.1003 6.45 22.4703L2.35001 18.3703C1.72001 17.7403 1.25 16.6003 1.25 15.7203V9.92032C1.25 9.03032 1.72001 7.89032 2.35001 7.27032L6.45 3.17032C7.08 2.54032 8.22001 2.07031 9.10001 2.07031H14.9C15.79 2.07031 16.93 2.54032 17.55 3.17032L21.65 7.27032C22.28 7.90032 22.75 9.04032 22.75 9.92032V15.7203C22.75 16.6103 22.28 17.7503 21.65 18.3703L17.55 22.4703C16.92 23.1003 15.79 23.5703 14.9 23.5703Z" fill="url(#paint0_linear_2620_1418)" style=""/>
<path d="M14.9 23.5703H9.10001C8.21001 23.5703 7.07 23.1003 6.45 22.4703L2.35001 18.3703C1.72001 17.7403 1.25 16.6003 1.25 15.7203V9.92032C1.25 9.03032 1.72001 7.89032 2.35001 7.27032L6.45 3.17032C7.08 2.54032 8.22001 2.07031 9.10001 2.07031H14.9C15.79 2.07031 16.93 2.54032 17.55 3.17032L21.65 7.27032C22.28 7.90032 22.75 9.04032 22.75 9.92032V15.7203C22.75 16.6103 22.28 17.7503 21.65 18.3703L17.55 22.4703C16.92 23.1003 15.79 23.5703 14.9 23.5703Z" fill="url(#paint1_linear_2620_1418)" style=""/>
</g>
<path id="Vector_2" d="M8.4975 17.0678C8.3075 17.0678 8.1175 16.9978 7.9675 16.8478C7.6775 16.5578 7.6775 16.0778 7.9675 15.7878L14.9675 8.78781C15.2575 8.49781 15.7375 8.49781 16.0275 8.78781C16.3175 9.07781 16.3175 9.55781 16.0275 9.84781L9.0275 16.8478C8.8775 16.9978 8.6875 17.0678 8.4975 17.0678Z" fill="white" style="fill:white;fill-opacity:1;"/>
<path id="Vector_3" d="M15.4975 17.0678C15.3075 17.0678 15.1175 16.9978 14.9675 16.8478L7.9675 9.84781C7.6775 9.55781 7.6775 9.07781 7.9675 8.78781C8.2575 8.49781 8.7375 8.49781 9.0275 8.78781L16.0275 15.7878C16.3175 16.0778 16.3175 16.5578 16.0275 16.8478C15.8775 16.9978 15.6875 17.0678 15.4975 17.0678Z" fill="white" style="fill:white;fill-opacity:1;"/>
</g>
</g>
</g>
<defs>
<linearGradient id="paint0_linear_2620_1418" x1="12" y1="2.07031" x2="12" y2="23.5703" gradientUnits="userSpaceOnUse">
<stop stop-color="#FFA469" style="stop-color:#FFA469;stop-color:color(display-p3 1.0000 0.6431 0.4118);stop-opacity:1;"/>
<stop offset="1" stop-color="#FF6D3F" style="stop-color:#FF6D3F;stop-color:color(display-p3 1.0000 0.4275 0.2471);stop-opacity:1;"/>
</linearGradient>
<linearGradient id="paint1_linear_2620_1418" x1="12" y1="2.07031" x2="12" y2="23.5703" gradientUnits="userSpaceOnUse">
<stop stop-color="#FFA469" style="stop-color:#FFA469;stop-color:color(display-p3 1.0000 0.6431 0.4118);stop-opacity:1;"/>
<stop offset="0.615" stop-color="#FF6D3F" style="stop-color:#FF6D3F;stop-color:color(display-p3 1.0000 0.4275 0.2471);stop-opacity:1;"/>
</linearGradient>
</defs>
</svg>
