<svg width="24" height="24" viewBox="0 0 24 24" fill="none" xmlns="http://www.w3.org/2000/svg">
<g id="setting-3">
<g id="vuesax/outline/setting-3">
<g id="setting-3_2">
<path id="Vector" d="M15 22.75H9C3.57 22.75 1.25 20.43 1.25 15V9C1.25 3.57 3.57 1.25 9 1.25H15C20.43 1.25 22.75 3.57 22.75 9V15C22.75 20.43 20.43 22.75 15 22.75ZM9 2.75C4.39 2.75 2.75 4.39 2.75 9V15C2.75 19.61 4.39 21.25 9 21.25H15C19.61 21.25 21.25 19.61 21.25 15V9C21.25 4.39 19.61 2.75 15 2.75H9Z" fill="#FFD66B" style="fill:#FFD66B;fill:color(display-p3 1.0000 0.8378 0.4208);fill-opacity:1;"/>
<path id="Vector_2" d="M15.5781 19.2516C15.1681 19.2516 14.8281 18.9116 14.8281 18.5016V14.6016C14.8281 14.1916 15.1681 13.8516 15.5781 13.8516C15.9881 13.8516 16.3281 14.1916 16.3281 14.6016V18.5016C16.3281 18.9116 15.9881 19.2516 15.5781 19.2516Z" fill="#FFD66B" style="fill:#FFD66B;fill:color(display-p3 1.0000 0.8378 0.4208);fill-opacity:1;"/>
<path id="Vector_3" d="M15.5781 8.2C15.1681 8.2 14.8281 7.86 14.8281 7.45V5.5C14.8281 5.09 15.1681 4.75 15.5781 4.75C15.9881 4.75 16.3281 5.09 16.3281 5.5V7.45C16.3281 7.86 15.9881 8.2 15.5781 8.2Z" fill="#FFD66B" style="fill:#FFD66B;fill:color(display-p3 1.0000 0.8378 0.4208);fill-opacity:1;"/>
<path id="Vector_4" d="M15.5844 13.3992C13.7344 13.3992 12.2344 11.8992 12.2344 10.0492C12.2344 8.19922 13.7344 6.69922 15.5844 6.69922C17.4344 6.69922 18.9344 8.19922 18.9344 10.0492C18.9344 11.8992 17.4244 13.3992 15.5844 13.3992ZM15.5844 8.19922C14.5644 8.19922 13.7344 9.02922 13.7344 10.0492C13.7344 11.0692 14.5644 11.8992 15.5844 11.8992C16.6044 11.8992 17.4344 11.0692 17.4344 10.0492C17.4344 9.02922 16.5944 8.19922 15.5844 8.19922Z" fill="#FFD66B" style="fill:#FFD66B;fill:color(display-p3 1.0000 0.8378 0.4208);fill-opacity:1;"/>
<path id="Vector_5" d="M8.42188 19.2508C8.01188 19.2508 7.67188 18.9108 7.67188 18.5008V16.5508C7.67188 16.1408 8.01188 15.8008 8.42188 15.8008C8.83187 15.8008 9.17188 16.1408 9.17188 16.5508V18.5008C9.17188 18.9108 8.84187 19.2508 8.42188 19.2508Z" fill="#FFD66B" style="fill:#FFD66B;fill:color(display-p3 1.0000 0.8378 0.4208);fill-opacity:1;"/>
<path id="Vector_6" d="M8.42188 10.15C8.01188 10.15 7.67188 9.81 7.67188 9.4V5.5C7.67188 5.09 8.01188 4.75 8.42188 4.75C8.83187 4.75 9.17188 5.09 9.17188 5.5V9.4C9.17188 9.81 8.84187 10.15 8.42188 10.15Z" fill="#FFD66B" style="fill:#FFD66B;fill:color(display-p3 1.0000 0.8378 0.4208);fill-opacity:1;"/>
<path id="Vector_7" d="M8.42031 17.3016C6.57031 17.3016 5.07031 15.8016 5.07031 13.9516C5.07031 12.1016 6.57031 10.6016 8.42031 10.6016C10.2703 10.6016 11.7703 12.1016 11.7703 13.9516C11.7703 15.8016 10.2703 17.3016 8.42031 17.3016ZM8.42031 12.1016C7.40031 12.1016 6.57031 12.9316 6.57031 13.9516C6.57031 14.9716 7.40031 15.8016 8.42031 15.8016C9.44031 15.8016 10.2703 14.9716 10.2703 13.9516C10.2703 12.9316 9.45031 12.1016 8.42031 12.1016Z" fill="#FFD66B" style="fill:#FFD66B;fill:color(display-p3 1.0000 0.8378 0.4208);fill-opacity:1;"/>
</g>
</g>
</g>
</svg>
