<svg width="197" height="230" viewBox="0 0 197 230" fill="none" xmlns="http://www.w3.org/2000/svg">
<path d="M196.003 114.565C196.003 120.009 191.594 124.425 186.15 124.432L151.669 124.479C146.215 124.486 141.789 120.067 141.789 114.612V91.9149C141.789 86.4697 146.2 82.054 151.645 82.0481L186.126 82.0107C191.579 82.0048 196.003 86.424 196.003 91.8775V114.565Z" fill="#46474E" style="fill:#46474E;fill:color(display-p3 0.2745 0.2784 0.3059);fill-opacity:1;"/>
<path d="M196.007 166.513C196.007 171.958 191.596 176.374 186.151 176.38L151.67 176.417C146.217 176.423 141.793 172.004 141.793 166.55V143.862C141.793 138.418 146.202 134.003 151.646 133.996L186.127 133.949C191.582 133.942 196.007 138.361 196.007 143.816V166.513Z" fill="#46474E" style="fill:#46474E;fill:color(display-p3 0.2745 0.2784 0.3059);fill-opacity:1;"/>
<path d="M185.706 91.2734L23.8477 91.2734L23.8477 204.76H185.706V91.2734Z" fill="#46474E" style="fill:#46474E;fill:color(display-p3 0.2745 0.2784 0.3059);fill-opacity:1;"/>
<path d="M160.738 82L9.87267 82C4.42338 82 0.00585938 86.4175 0.00585938 91.8668L0.00585938 114.464C0.00585938 119.914 4.42339 124.331 9.87268 124.331L160.738 124.331C166.188 124.331 170.605 119.914 170.605 114.464V91.8668C170.605 86.4175 166.188 82 160.738 82Z" fill="#65666D" style="fill:#65666D;fill:color(display-p3 0.3961 0.4000 0.4275);fill-opacity:1;"/>
<path d="M54.0304 93.0591C54.0304 94.1288 53.1659 94.9933 52.0962 94.9933C51.0266 94.9933 50.1621 94.1288 50.1621 93.0591C50.1621 91.9895 51.0266 91.125 52.0962 91.125C53.1659 91.125 54.0304 91.9895 54.0304 93.0591Z" fill="#46474E" style="fill:#46474E;fill:color(display-p3 0.2745 0.2784 0.3059);fill-opacity:1;"/>
<path d="M62.5343 93.0748C62.5343 94.1444 61.6698 95.0089 60.6001 95.0089C59.5305 95.0089 58.666 94.1444 58.666 93.0748C58.666 92.0051 59.5305 91.1406 60.6001 91.1406C61.6698 91.1406 62.5343 92.0051 62.5343 93.0748Z" fill="#46474E" style="fill:#46474E;fill:color(display-p3 0.2745 0.2784 0.3059);fill-opacity:1;"/>
<path d="M71.0265 93.0591C71.0265 94.1288 70.162 94.9933 69.0923 94.9933C68.0227 94.9933 67.1582 94.1288 67.1582 93.0591C67.1582 91.9895 68.0227 91.125 69.0923 91.125C70.162 91.125 71.0265 91.9895 71.0265 93.0591Z" fill="#46474E" style="fill:#46474E;fill:color(display-p3 0.2745 0.2784 0.3059);fill-opacity:1;"/>
<path d="M79.5382 93.0748C79.5382 94.1444 78.6737 95.0089 77.6041 95.0089C76.5344 95.0089 75.6699 94.1444 75.6699 93.0748C75.6699 92.0051 76.5344 91.1406 77.6041 91.1406C78.6737 91.1406 79.5382 92.0051 79.5382 93.0748Z" fill="#46474E" style="fill:#46474E;fill:color(display-p3 0.2745 0.2784 0.3059);fill-opacity:1;"/>
<path d="M145.431 93.0748C145.431 94.1444 144.566 95.0089 143.497 95.0089C142.427 95.0089 141.562 94.1444 141.562 93.0748C141.562 92.0051 142.427 91.1406 143.497 91.1406C144.566 91.1406 145.431 92.0051 145.431 93.0748Z" fill="#46474E" style="fill:#46474E;fill:color(display-p3 0.2745 0.2784 0.3059);fill-opacity:1;"/>
<path d="M154.093 93.0748C154.093 94.1444 153.228 95.0089 152.159 95.0089C151.089 95.0089 150.225 94.1444 150.225 93.0748C150.225 92.0051 151.089 91.1406 152.159 91.1406C153.228 91.1406 154.093 92.0051 154.093 93.0748Z" fill="#46474E" style="fill:#46474E;fill:color(display-p3 0.2745 0.2784 0.3059);fill-opacity:1;"/>
<path d="M88.0401 93.0591C88.0401 94.1288 87.1756 94.9933 86.106 94.9933C85.0364 94.9933 84.1719 94.1288 84.1719 93.0591C84.1719 91.9895 85.0364 91.125 86.106 91.125C87.1756 91.125 88.0401 91.9895 88.0401 93.0591Z" fill="#46474E" style="fill:#46474E;fill:color(display-p3 0.2745 0.2784 0.3059);fill-opacity:1;"/>
<path d="M129.8 93.0591C129.8 94.1288 128.935 94.9933 127.866 94.9933C126.796 94.9933 125.932 94.1288 125.932 93.0591C125.932 91.9895 126.796 91.125 127.866 91.125C128.935 91.125 129.8 91.9895 129.8 93.0591Z" fill="#46474E" style="fill:#46474E;fill:color(display-p3 0.2745 0.2784 0.3059);fill-opacity:1;"/>
<path d="M96.5362 93.0591C96.5362 94.1288 95.6717 94.9933 94.6021 94.9933C93.5325 94.9933 92.668 94.1288 92.668 93.0591C92.668 91.9895 93.5325 91.125 94.6021 91.125C95.6717 91.125 96.5362 91.9895 96.5362 93.0591Z" fill="#B9BABD" style="fill:#B9BABD;fill:color(display-p3 0.7255 0.7294 0.7412);fill-opacity:1;"/>
<path d="M105.048 93.0748C105.048 94.1444 104.183 95.0089 103.114 95.0089C102.044 95.0089 101.18 94.1444 101.18 93.0748C101.18 92.0051 102.044 91.1406 103.114 91.1406C104.183 91.1406 105.048 92.0051 105.048 93.0748Z" fill="#B9BABD" style="fill:#B9BABD;fill:color(display-p3 0.7255 0.7294 0.7412);fill-opacity:1;"/>
<path d="M122.294 93.0591C122.294 94.1288 121.43 94.9933 120.36 94.9933C119.29 94.9933 118.426 94.1288 118.426 93.0591C118.426 91.9895 119.29 91.125 120.36 91.125C121.43 91.125 122.294 91.9895 122.294 93.0591Z" fill="#B9BABD" style="fill:#B9BABD;fill:color(display-p3 0.7255 0.7294 0.7412);fill-opacity:1;"/>
<path d="M161.151 93.0591C161.151 94.1288 160.287 94.9933 159.217 94.9933C158.148 94.9933 157.283 94.1288 157.283 93.0591C157.283 91.9895 158.148 91.125 159.217 91.125C160.287 91.125 161.151 91.9895 161.151 93.0591Z" fill="#B9BABD" style="fill:#B9BABD;fill:color(display-p3 0.7255 0.7294 0.7412);fill-opacity:1;"/>
<path d="M113.55 93.0591C113.55 94.1288 112.685 94.9933 111.616 94.9933C110.546 94.9933 109.682 94.1288 109.682 93.0591C109.682 91.9895 110.546 91.125 111.616 91.125C112.685 91.125 113.55 91.9895 113.55 93.0591Z" fill="#FFD66B" style="fill:#FFD66B;fill:color(display-p3 1.0000 0.8378 0.4208);fill-opacity:1;"/>
<path d="M137.898 93.0748C137.898 94.1444 137.033 95.0089 135.963 95.0089C134.894 95.0089 134.029 94.1444 134.029 93.0748C134.029 92.0051 134.894 91.1406 135.963 91.1406C137.033 91.1406 137.898 92.0051 137.898 93.0748Z" fill="#FFD66B" style="fill:#FFD66B;fill:color(display-p3 1.0000 0.8378 0.4208);fill-opacity:1;"/>
<path d="M157.299 102.376C157.299 101.306 158.163 100.441 159.233 100.441C160.303 100.441 161.167 101.306 161.167 102.376C161.167 103.445 160.303 104.31 159.233 104.31C158.163 104.31 157.299 103.445 157.299 102.376Z" fill="#46474E" style="fill:#46474E;fill:color(display-p3 0.2745 0.2784 0.3059);fill-opacity:1;"/>
<path d="M150.727 104.325C151.795 104.325 152.661 103.459 152.661 102.391C152.661 101.323 151.795 100.457 150.727 100.457C149.659 100.457 148.793 101.323 148.793 102.391C148.793 103.459 149.659 104.325 150.727 104.325Z" fill="#46474E" style="fill:#46474E;fill:color(display-p3 0.2745 0.2784 0.3059);fill-opacity:1;"/>
<path d="M140.287 102.376C140.287 101.306 141.152 100.441 142.221 100.441C143.291 100.441 144.155 101.306 144.155 102.376C144.155 103.445 143.291 104.31 142.221 104.31C141.152 104.31 140.287 103.445 140.287 102.376Z" fill="#46474E" style="fill:#46474E;fill:color(display-p3 0.2745 0.2784 0.3059);fill-opacity:1;"/>
<path d="M131.791 102.391C131.791 101.322 132.656 100.457 133.725 100.457C134.795 100.457 135.659 101.322 135.659 102.391C135.659 103.461 134.795 104.325 133.725 104.325C132.656 104.325 131.791 103.461 131.791 102.391Z" fill="#46474E" style="fill:#46474E;fill:color(display-p3 0.2745 0.2784 0.3059);fill-opacity:1;"/>
<path d="M65.8965 102.391C65.8965 101.322 66.761 100.457 67.8306 100.457C68.9003 100.457 69.7647 101.322 69.7647 102.391C69.7647 103.461 68.9003 104.325 67.8306 104.325C66.761 104.325 65.8965 103.461 65.8965 102.391Z" fill="#46474E" style="fill:#46474E;fill:color(display-p3 0.2745 0.2784 0.3059);fill-opacity:1;"/>
<path d="M57.2266 102.376C57.2266 101.306 58.0911 100.441 59.1607 100.441C60.2303 100.441 61.0948 101.306 61.0948 102.376C61.0948 103.445 60.2303 104.31 59.1607 104.31C58.0911 104.31 57.2266 103.445 57.2266 102.376Z" fill="#46474E" style="fill:#46474E;fill:color(display-p3 0.2745 0.2784 0.3059);fill-opacity:1;"/>
<path d="M125.215 104.325C126.284 104.325 127.15 103.459 127.15 102.391C127.15 101.323 126.284 100.457 125.215 100.457C124.147 100.457 123.281 101.323 123.281 102.391C123.281 103.459 124.147 104.325 125.215 104.325Z" fill="#46474E" style="fill:#46474E;fill:color(display-p3 0.2745 0.2784 0.3059);fill-opacity:1;"/>
<path d="M81.5293 102.376C81.5293 101.306 82.3938 100.441 83.4634 100.441C84.5331 100.441 85.3976 101.306 85.3976 102.376C85.3976 103.445 84.5331 104.31 83.4634 104.31C82.3938 104.31 81.5293 103.445 81.5293 102.376Z" fill="#46474E" style="fill:#46474E;fill:color(display-p3 0.2745 0.2784 0.3059);fill-opacity:1;"/>
<path d="M114.775 102.376C114.775 101.306 115.64 100.441 116.71 100.441C117.779 100.441 118.644 101.306 118.644 102.376C118.644 103.445 117.779 104.31 116.71 104.31C115.64 104.31 114.775 103.445 114.775 102.376Z" fill="#B9BABD" style="fill:#B9BABD;fill:color(display-p3 0.7255 0.7294 0.7412);fill-opacity:1;"/>
<path d="M106.281 102.391C106.281 101.322 107.146 100.457 108.215 100.457C109.285 100.457 110.15 101.322 110.15 102.391C110.15 103.461 109.285 104.325 108.215 104.325C107.146 104.325 106.281 103.461 106.281 102.391Z" fill="#B9BABD" style="fill:#B9BABD;fill:color(display-p3 0.7255 0.7294 0.7412);fill-opacity:1;"/>
<path d="M90.9556 104.31C92.0238 104.31 92.8897 103.444 92.8897 102.376C92.8897 101.307 92.0238 100.441 90.9556 100.441C89.8874 100.441 89.0215 101.307 89.0215 102.376C89.0215 103.444 89.8874 104.31 90.9556 104.31Z" fill="#B9BABD" style="fill:#B9BABD;fill:color(display-p3 0.7255 0.7294 0.7412);fill-opacity:1;"/>
<path d="M50.1777 102.376C50.1777 101.306 51.0422 100.441 52.1119 100.441C53.1815 100.441 54.046 101.306 54.046 102.376C54.046 103.445 53.1815 104.31 52.1119 104.31C51.0422 104.31 50.1777 103.445 50.1777 102.376Z" fill="#B9BABD" style="fill:#B9BABD;fill:color(display-p3 0.7255 0.7294 0.7412);fill-opacity:1;"/>
<path d="M97.7793 102.376C97.7793 101.306 98.6438 100.441 99.7134 100.441C100.783 100.441 101.648 101.306 101.648 102.376C101.648 103.445 100.783 104.31 99.7134 104.31C98.6438 104.31 97.7793 103.445 97.7793 102.376Z" fill="#FFD66B" style="fill:#FFD66B;fill:color(display-p3 1.0000 0.8378 0.4208);fill-opacity:1;"/>
<path d="M73.4336 102.391C73.4336 101.322 74.2981 100.457 75.3677 100.457C76.4374 100.457 77.3019 101.322 77.3019 102.391C77.3019 103.461 76.4374 104.325 75.3677 104.325C74.2981 104.325 73.4336 103.461 73.4336 102.391Z" fill="#FFD66B" style="fill:#FFD66B;fill:color(display-p3 1.0000 0.8378 0.4208);fill-opacity:1;"/>
<path d="M54.0304 110.604C54.0304 111.674 53.1659 112.538 52.0962 112.538C51.0266 112.538 50.1621 111.674 50.1621 110.604C50.1621 109.534 51.0266 108.67 52.0962 108.67C53.1659 108.67 54.0304 109.534 54.0304 110.604Z" fill="#46474E" style="fill:#46474E;fill:color(display-p3 0.2745 0.2784 0.3059);fill-opacity:1;"/>
<path d="M62.5343 110.62C62.5343 111.689 61.6698 112.554 60.6001 112.554C59.5305 112.554 58.666 111.689 58.666 110.62C58.666 109.55 59.5305 108.686 60.6001 108.686C61.6698 108.686 62.5343 109.55 62.5343 110.62Z" fill="#46474E" style="fill:#46474E;fill:color(display-p3 0.2745 0.2784 0.3059);fill-opacity:1;"/>
<path d="M71.0265 110.604C71.0265 111.674 70.162 112.538 69.0923 112.538C68.0227 112.538 67.1582 111.674 67.1582 110.604C67.1582 109.534 68.0227 108.67 69.0923 108.67C70.162 108.67 71.0265 109.534 71.0265 110.604Z" fill="#46474E" style="fill:#46474E;fill:color(display-p3 0.2745 0.2784 0.3059);fill-opacity:1;"/>
<path d="M79.5382 110.62C79.5382 111.689 78.6737 112.554 77.6041 112.554C76.5344 112.554 75.6699 111.689 75.6699 110.62C75.6699 109.55 76.5344 108.686 77.6041 108.686C78.6737 108.686 79.5382 109.55 79.5382 110.62Z" fill="#46474E" style="fill:#46474E;fill:color(display-p3 0.2745 0.2784 0.3059);fill-opacity:1;"/>
<path d="M145.431 110.62C145.431 111.689 144.566 112.554 143.497 112.554C142.427 112.554 141.562 111.689 141.562 110.62C141.562 109.55 142.427 108.686 143.497 108.686C144.566 108.686 145.431 109.55 145.431 110.62Z" fill="#46474E" style="fill:#46474E;fill:color(display-p3 0.2745 0.2784 0.3059);fill-opacity:1;"/>
<path d="M154.089 110.62C154.089 111.689 153.224 112.554 152.155 112.554C151.085 112.554 150.221 111.689 150.221 110.62C150.221 109.55 151.085 108.686 152.155 108.686C153.224 108.686 154.089 109.55 154.089 110.62Z" fill="#46474E" style="fill:#46474E;fill:color(display-p3 0.2745 0.2784 0.3059);fill-opacity:1;"/>
<path d="M88.0401 110.604C88.0401 111.674 87.1756 112.538 86.106 112.538C85.0364 112.538 84.1719 111.674 84.1719 110.604C84.1719 109.534 85.0364 108.67 86.106 108.67C87.1756 108.67 88.0401 109.534 88.0401 110.604Z" fill="#46474E" style="fill:#46474E;fill:color(display-p3 0.2745 0.2784 0.3059);fill-opacity:1;"/>
<path d="M129.8 110.604C129.8 111.674 128.935 112.538 127.866 112.538C126.796 112.538 125.932 111.674 125.932 110.604C125.932 109.534 126.796 108.67 127.866 108.67C128.935 108.67 129.8 109.534 129.8 110.604Z" fill="#46474E" style="fill:#46474E;fill:color(display-p3 0.2745 0.2784 0.3059);fill-opacity:1;"/>
<path d="M96.5362 110.604C96.5362 111.674 95.6717 112.538 94.6021 112.538C93.5325 112.538 92.668 111.674 92.668 110.604C92.668 109.534 93.5325 108.67 94.6021 108.67C95.6717 108.67 96.5362 109.534 96.5362 110.604Z" fill="#B9BABD" style="fill:#B9BABD;fill:color(display-p3 0.7255 0.7294 0.7412);fill-opacity:1;"/>
<path d="M105.048 110.62C105.048 111.689 104.183 112.554 103.114 112.554C102.044 112.554 101.18 111.689 101.18 110.62C101.18 109.55 102.044 108.686 103.114 108.686C104.183 108.686 105.048 109.55 105.048 110.62Z" fill="#B9BABD" style="fill:#B9BABD;fill:color(display-p3 0.7255 0.7294 0.7412);fill-opacity:1;"/>
<path d="M122.294 110.604C122.294 111.674 121.43 112.538 120.36 112.538C119.29 112.538 118.426 111.674 118.426 110.604C118.426 109.534 119.29 108.67 120.36 108.67C121.43 108.67 122.294 109.534 122.294 110.604Z" fill="#B9BABD" style="fill:#B9BABD;fill:color(display-p3 0.7255 0.7294 0.7412);fill-opacity:1;"/>
<path d="M161.151 110.604C161.151 111.674 160.287 112.538 159.217 112.538C158.148 112.538 157.283 111.674 157.283 110.604C157.283 109.534 158.148 108.67 159.217 108.67C160.287 108.67 161.151 109.534 161.151 110.604Z" fill="#B9BABD" style="fill:#B9BABD;fill:color(display-p3 0.7255 0.7294 0.7412);fill-opacity:1;"/>
<path d="M113.55 110.604C113.55 111.674 112.685 112.538 111.616 112.538C110.546 112.538 109.682 111.674 109.682 110.604C109.682 109.534 110.546 108.67 111.616 108.67C112.685 108.67 113.55 109.534 113.55 110.604Z" fill="#FFD66B" style="fill:#FFD66B;fill:color(display-p3 1.0000 0.8378 0.4208);fill-opacity:1;"/>
<path d="M137.898 110.62C137.898 111.689 137.033 112.554 135.963 112.554C134.894 112.554 134.029 111.689 134.029 110.62C134.029 109.55 134.894 108.686 135.963 108.686C137.033 108.686 137.898 109.55 137.898 110.62Z" fill="#FFD66B" style="fill:#FFD66B;fill:color(display-p3 1.0000 0.8378 0.4208);fill-opacity:1;"/>
<path d="M38.5599 90.4004H10.1487C8.72037 90.4004 7.5625 91.5583 7.5625 92.9866C7.5625 94.4149 8.72037 95.5728 10.1487 95.5728H38.5599C39.9882 95.5728 41.1461 94.4149 41.1461 92.9866C41.1461 91.5583 39.9882 90.4004 38.5599 90.4004Z" fill="#46474E" style="fill:#46474E;fill:color(display-p3 0.2745 0.2784 0.3059);fill-opacity:1;"/>
<path d="M38.5677 99.2969H10.1565C8.72818 99.2969 7.57031 100.455 7.57031 101.883C7.57031 103.311 8.72818 104.469 10.1565 104.469H38.5677C39.996 104.469 41.1539 103.311 41.1539 101.883C41.1539 100.455 39.996 99.2969 38.5677 99.2969Z" fill="#46474E" style="fill:#46474E;fill:color(display-p3 0.2745 0.2784 0.3059);fill-opacity:1;"/>
<path d="M38.5677 108.484H10.1565C8.72818 108.484 7.57031 109.642 7.57031 111.071C7.57031 112.499 8.72818 113.657 10.1565 113.657H38.5677C39.996 113.657 41.1539 112.499 41.1539 111.071C41.1539 109.642 39.996 108.484 38.5677 108.484Z" fill="#46474E" style="fill:#46474E;fill:color(display-p3 0.2745 0.2784 0.3059);fill-opacity:1;"/>
<path d="M160.738 133.916H9.87267C4.42338 133.916 0.00585938 138.334 0.00585938 143.783L0.00585938 166.38C0.00585938 171.83 4.42339 176.247 9.87268 176.247H160.738C166.188 176.247 170.605 171.83 170.605 166.38V143.783C170.605 138.334 166.188 133.916 160.738 133.916Z" fill="#65666D" style="fill:#65666D;fill:color(display-p3 0.3961 0.4000 0.4275);fill-opacity:1;"/>
<path d="M38.5677 142.637H10.1565C8.72818 142.637 7.57031 143.795 7.57031 145.223C7.57031 146.651 8.72818 147.809 10.1565 147.809H38.5677C39.996 147.809 41.1539 146.651 41.1539 145.223C41.1539 143.795 39.996 142.637 38.5677 142.637Z" fill="#46474E" style="fill:#46474E;fill:color(display-p3 0.2745 0.2784 0.3059);fill-opacity:1;"/>
<path d="M38.5599 151.521H10.1487C8.72037 151.521 7.5625 152.679 7.5625 154.108C7.5625 155.536 8.72037 156.694 10.1487 156.694H38.5599C39.9882 156.694 41.1461 155.536 41.1461 154.108C41.1461 152.679 39.9882 151.521 38.5599 151.521Z" fill="#46474E" style="fill:#46474E;fill:color(display-p3 0.2745 0.2784 0.3059);fill-opacity:1;"/>
<path d="M38.5677 160.705H10.1565C8.72818 160.705 7.57031 161.863 7.57031 163.291C7.57031 164.72 8.72818 165.877 10.1565 165.877H38.5677C39.996 165.877 41.1539 164.72 41.1539 163.291C41.1539 161.863 39.996 160.705 38.5677 160.705Z" fill="#46474E" style="fill:#46474E;fill:color(display-p3 0.2745 0.2784 0.3059);fill-opacity:1;"/>
<path d="M53.4073 145.325C53.4073 146.394 52.5428 147.259 51.4732 147.259C50.4036 147.259 49.5391 146.394 49.5391 145.325C49.5391 144.255 50.4036 143.391 51.4732 143.391C52.5428 143.391 53.4073 144.255 53.4073 145.325Z" fill="#46474E" style="fill:#46474E;fill:color(display-p3 0.2745 0.2784 0.3059);fill-opacity:1;"/>
<path d="M61.9171 145.34C61.9171 146.41 61.0526 147.275 59.983 147.275C58.9133 147.275 58.0488 146.41 58.0488 145.34C58.0488 144.271 58.9133 143.406 59.983 143.406C61.0526 143.406 61.9171 144.271 61.9171 145.34Z" fill="#46474E" style="fill:#46474E;fill:color(display-p3 0.2745 0.2784 0.3059);fill-opacity:1;"/>
<path d="M70.4171 145.325C70.4171 146.394 69.5526 147.259 68.483 147.259C67.4133 147.259 66.5488 146.394 66.5488 145.325C66.5488 144.255 67.4133 143.391 68.483 143.391C69.5526 143.391 70.4171 144.255 70.4171 145.325Z" fill="#46474E" style="fill:#46474E;fill:color(display-p3 0.2745 0.2784 0.3059);fill-opacity:1;"/>
<path d="M78.9151 145.34C78.9151 146.41 78.0506 147.275 76.981 147.275C75.9114 147.275 75.0469 146.41 75.0469 145.34C75.0469 144.271 75.9114 143.406 76.981 143.406C78.0506 143.406 78.9151 144.271 78.9151 145.34Z" fill="#46474E" style="fill:#46474E;fill:color(display-p3 0.2745 0.2784 0.3059);fill-opacity:1;"/>
<path d="M144.823 145.325C144.823 146.394 143.959 147.259 142.889 147.259C141.82 147.259 140.955 146.394 140.955 145.325C140.955 144.255 141.82 143.391 142.889 143.391C143.959 143.391 144.823 144.255 144.823 145.325Z" fill="#46474E" style="fill:#46474E;fill:color(display-p3 0.2745 0.2784 0.3059);fill-opacity:1;"/>
<path d="M153.487 145.325C153.487 146.394 152.623 147.259 151.553 147.259C150.484 147.259 149.619 146.394 149.619 145.325C149.619 144.255 150.484 143.391 151.553 143.391C152.623 143.391 153.487 144.255 153.487 145.325Z" fill="#46474E" style="fill:#46474E;fill:color(display-p3 0.2745 0.2784 0.3059);fill-opacity:1;"/>
<path d="M87.4249 145.34C87.4249 146.41 86.5604 147.275 85.4908 147.275C84.4211 147.275 83.5566 146.41 83.5566 145.34C83.5566 144.271 84.4211 143.406 85.4908 143.406C86.5604 143.406 87.4249 144.271 87.4249 145.34Z" fill="#46474E" style="fill:#46474E;fill:color(display-p3 0.2745 0.2784 0.3059);fill-opacity:1;"/>
<path d="M129.191 145.325C129.191 146.394 128.326 147.259 127.256 147.259C126.187 147.259 125.322 146.394 125.322 145.325C125.322 144.255 126.187 143.391 127.256 143.391C128.326 143.391 129.191 144.255 129.191 145.325Z" fill="#46474E" style="fill:#46474E;fill:color(display-p3 0.2745 0.2784 0.3059);fill-opacity:1;"/>
<path d="M95.9288 145.325C95.9288 146.394 95.0643 147.259 93.9947 147.259C92.925 147.259 92.0605 146.394 92.0605 145.325C92.0605 144.255 92.925 143.391 93.9947 143.391C95.0643 143.391 95.9288 144.255 95.9288 145.325Z" fill="#B9BABD" style="fill:#B9BABD;fill:color(display-p3 0.7255 0.7294 0.7412);fill-opacity:1;"/>
<path d="M104.425 145.34C104.425 146.41 103.56 147.275 102.491 147.275C101.421 147.275 100.557 146.41 100.557 145.34C100.557 144.271 101.421 143.406 102.491 143.406C103.56 143.406 104.425 144.271 104.425 145.34Z" fill="#B9BABD" style="fill:#B9BABD;fill:color(display-p3 0.7255 0.7294 0.7412);fill-opacity:1;"/>
<path d="M121.687 145.325C121.687 146.394 120.822 147.259 119.752 147.259C118.683 147.259 117.818 146.394 117.818 145.325C117.818 144.255 118.683 143.391 119.752 143.391C120.822 143.391 121.687 144.255 121.687 145.325Z" fill="#B9BABD" style="fill:#B9BABD;fill:color(display-p3 0.7255 0.7294 0.7412);fill-opacity:1;"/>
<path d="M160.548 145.34C160.548 146.41 159.683 147.275 158.614 147.275C157.544 147.275 156.68 146.41 156.68 145.34C156.68 144.271 157.544 143.406 158.614 143.406C159.683 143.406 160.548 144.271 160.548 145.34Z" fill="#B9BABD" style="fill:#B9BABD;fill:color(display-p3 0.7255 0.7294 0.7412);fill-opacity:1;"/>
<path d="M112.944 145.325C112.944 146.394 112.08 147.259 111.01 147.259C109.941 147.259 109.076 146.394 109.076 145.325C109.076 144.255 109.941 143.391 111.01 143.391C112.08 143.391 112.944 144.255 112.944 145.325Z" fill="#FFD66B" style="fill:#FFD66B;fill:color(display-p3 1.0000 0.8378 0.4208);fill-opacity:1;"/>
<path d="M137.275 145.34C137.275 146.41 136.41 147.275 135.34 147.275C134.271 147.275 133.406 146.41 133.406 145.34C133.406 144.271 134.271 143.406 135.34 143.406C136.41 143.406 137.275 144.271 137.275 145.34Z" fill="#FFD66B" style="fill:#FFD66B;fill:color(display-p3 1.0000 0.8378 0.4208);fill-opacity:1;"/>
<path d="M156.697 154.629C156.697 153.56 157.562 152.695 158.631 152.695C159.701 152.695 160.566 153.56 160.566 154.629C160.566 155.699 159.701 156.564 158.631 156.564C157.562 156.564 156.697 155.699 156.697 154.629Z" fill="#46474E" style="fill:#46474E;fill:color(display-p3 0.2745 0.2784 0.3059);fill-opacity:1;"/>
<path d="M148.186 154.629C148.186 153.56 149.05 152.695 150.12 152.695C151.189 152.695 152.054 153.56 152.054 154.629C152.054 155.699 151.189 156.564 150.12 156.564C149.05 156.564 148.186 155.699 148.186 154.629Z" fill="#46474E" style="fill:#46474E;fill:color(display-p3 0.2745 0.2784 0.3059);fill-opacity:1;"/>
<path d="M139.684 154.614C139.684 153.544 140.548 152.68 141.618 152.68C142.687 152.68 143.552 153.544 143.552 154.614C143.552 155.683 142.687 156.548 141.618 156.548C140.548 156.548 139.684 155.683 139.684 154.614Z" fill="#46474E" style="fill:#46474E;fill:color(display-p3 0.2745 0.2784 0.3059);fill-opacity:1;"/>
<path d="M131.188 154.629C131.188 153.56 132.052 152.695 133.122 152.695C134.191 152.695 135.056 153.56 135.056 154.629C135.056 155.699 134.191 156.564 133.122 156.564C132.052 156.564 131.188 155.699 131.188 154.629Z" fill="#46474E" style="fill:#46474E;fill:color(display-p3 0.2745 0.2784 0.3059);fill-opacity:1;"/>
<path d="M65.2891 154.629C65.2891 153.56 66.1536 152.695 67.2232 152.695C68.2928 152.695 69.1573 153.56 69.1573 154.629C69.1573 155.699 68.2928 156.564 67.2232 156.564C66.1536 156.564 65.2891 155.699 65.2891 154.629Z" fill="#46474E" style="fill:#46474E;fill:color(display-p3 0.2745 0.2784 0.3059);fill-opacity:1;"/>
<path d="M56.6211 154.614C56.6211 153.544 57.4856 152.68 58.5552 152.68C59.6249 152.68 60.4894 153.544 60.4894 154.614C60.4894 155.683 59.6249 156.548 58.5552 156.548C57.4856 156.548 56.6211 155.683 56.6211 154.614Z" fill="#46474E" style="fill:#46474E;fill:color(display-p3 0.2745 0.2784 0.3059);fill-opacity:1;"/>
<path d="M122.688 154.614C122.688 153.544 123.552 152.68 124.622 152.68C125.691 152.68 126.556 153.544 126.556 154.614C126.556 155.683 125.691 156.548 124.622 156.548C123.552 156.548 122.688 155.683 122.688 154.614Z" fill="#46474E" style="fill:#46474E;fill:color(display-p3 0.2745 0.2784 0.3059);fill-opacity:1;"/>
<path d="M80.9082 154.614C80.9082 153.544 81.7727 152.68 82.8423 152.68C83.912 152.68 84.7765 153.544 84.7765 154.614C84.7765 155.683 83.912 156.548 82.8423 156.548C81.7727 156.548 80.9082 155.683 80.9082 154.614Z" fill="#46474E" style="fill:#46474E;fill:color(display-p3 0.2745 0.2784 0.3059);fill-opacity:1;"/>
<path d="M114.178 154.614C114.178 153.544 115.042 152.68 116.112 152.68C117.182 152.68 118.046 153.544 118.046 154.614C118.046 155.683 117.182 156.548 116.112 156.548C115.042 156.548 114.178 155.683 114.178 154.614Z" fill="#B9BABD" style="fill:#B9BABD;fill:color(display-p3 0.7255 0.7294 0.7412);fill-opacity:1;"/>
<path d="M105.674 154.629C105.674 153.56 106.538 152.695 107.608 152.695C108.678 152.695 109.542 153.56 109.542 154.629C109.542 155.699 108.678 156.564 107.608 156.564C106.538 156.564 105.674 155.699 105.674 154.629Z" fill="#B9BABD" style="fill:#B9BABD;fill:color(display-p3 0.7255 0.7294 0.7412);fill-opacity:1;"/>
<path d="M88.4141 154.614C88.4141 153.544 89.2786 152.68 90.3482 152.68C91.4178 152.68 92.2823 153.544 92.2823 154.614C92.2823 155.683 91.4178 156.548 90.3482 156.548C89.2786 156.548 88.4141 155.683 88.4141 154.614Z" fill="#B9BABD" style="fill:#B9BABD;fill:color(display-p3 0.7255 0.7294 0.7412);fill-opacity:1;"/>
<path d="M49.5566 154.614C49.5566 153.544 50.4211 152.68 51.4908 152.68C52.5604 152.68 53.4249 153.544 53.4249 154.614C53.4249 155.683 52.5604 156.548 51.4908 156.548C50.4211 156.548 49.5566 155.683 49.5566 154.614Z" fill="#B9BABD" style="fill:#B9BABD;fill:color(display-p3 0.7255 0.7294 0.7412);fill-opacity:1;"/>
<path d="M97.1582 154.614C97.1582 153.544 98.0227 152.68 99.0923 152.68C100.162 152.68 101.026 153.544 101.026 154.614C101.026 155.683 100.162 156.548 99.0923 156.548C98.0227 156.548 97.1582 155.683 97.1582 154.614Z" fill="#FFD66B" style="fill:#FFD66B;fill:color(display-p3 1.0000 0.8378 0.4208);fill-opacity:1;"/>
<path d="M72.8281 154.629C72.8281 153.56 73.6926 152.695 74.7623 152.695C75.8319 152.695 76.6964 153.56 76.6964 154.629C76.6964 155.699 75.8319 156.564 74.7623 156.564C73.6926 156.564 72.8281 155.699 72.8281 154.629Z" fill="#FFD66B" style="fill:#FFD66B;fill:color(display-p3 1.0000 0.8378 0.4208);fill-opacity:1;"/>
<path d="M53.4073 162.852C53.4073 163.922 52.5428 164.786 51.4732 164.786C50.4036 164.786 49.5391 163.922 49.5391 162.852C49.5391 161.782 50.4036 160.918 51.4732 160.918C52.5428 160.918 53.4073 161.782 53.4073 162.852Z" fill="#46474E" style="fill:#46474E;fill:color(display-p3 0.2745 0.2784 0.3059);fill-opacity:1;"/>
<path d="M61.9171 162.868C61.9171 163.937 61.0526 164.802 59.983 164.802C58.9133 164.802 58.0488 163.937 58.0488 162.868C58.0488 161.798 58.9133 160.934 59.983 160.934C61.0526 160.934 61.9171 161.798 61.9171 162.868Z" fill="#46474E" style="fill:#46474E;fill:color(display-p3 0.2745 0.2784 0.3059);fill-opacity:1;"/>
<path d="M70.419 162.852C70.419 163.922 69.5545 164.786 68.4849 164.786C67.4153 164.786 66.5508 163.922 66.5508 162.852C66.5508 161.782 67.4153 160.918 68.4849 160.918C69.5545 160.918 70.419 161.782 70.419 162.852Z" fill="#46474E" style="fill:#46474E;fill:color(display-p3 0.2745 0.2784 0.3059);fill-opacity:1;"/>
<path d="M78.9151 162.868C78.9151 163.937 78.0506 164.802 76.981 164.802C75.9114 164.802 75.0469 163.937 75.0469 162.868C75.0469 161.798 75.9114 160.934 76.981 160.934C78.0506 160.934 78.9151 161.798 78.9151 162.868Z" fill="#46474E" style="fill:#46474E;fill:color(display-p3 0.2745 0.2784 0.3059);fill-opacity:1;"/>
<path d="M144.823 162.852C144.823 163.922 143.959 164.786 142.889 164.786C141.82 164.786 140.955 163.922 140.955 162.852C140.955 161.782 141.82 160.918 142.889 160.918C143.959 160.918 144.823 161.782 144.823 162.852Z" fill="#46474E" style="fill:#46474E;fill:color(display-p3 0.2745 0.2784 0.3059);fill-opacity:1;"/>
<path d="M153.487 162.852C153.487 163.922 152.623 164.786 151.553 164.786C150.484 164.786 149.619 163.922 149.619 162.852C149.619 161.782 150.484 160.918 151.553 160.918C152.623 160.918 153.487 161.782 153.487 162.852Z" fill="#46474E" style="fill:#46474E;fill:color(display-p3 0.2745 0.2784 0.3059);fill-opacity:1;"/>
<path d="M87.4249 162.868C87.4249 163.937 86.5604 164.802 85.4908 164.802C84.4211 164.802 83.5566 163.937 83.5566 162.868C83.5566 161.798 84.4211 160.934 85.4908 160.934C86.5604 160.934 87.4249 161.798 87.4249 162.868Z" fill="#46474E" style="fill:#46474E;fill:color(display-p3 0.2745 0.2784 0.3059);fill-opacity:1;"/>
<path d="M129.191 162.852C129.191 163.922 128.326 164.786 127.256 164.786C126.187 164.786 125.322 163.922 125.322 162.852C125.322 161.782 126.187 160.918 127.256 160.918C128.326 160.918 129.191 161.782 129.191 162.852Z" fill="#46474E" style="fill:#46474E;fill:color(display-p3 0.2745 0.2784 0.3059);fill-opacity:1;"/>
<path d="M95.9288 162.852C95.9288 163.922 95.0643 164.786 93.9947 164.786C92.925 164.786 92.0605 163.922 92.0605 162.852C92.0605 161.782 92.925 160.918 93.9947 160.918C95.0643 160.918 95.9288 161.782 95.9288 162.852Z" fill="#B9BABD" style="fill:#B9BABD;fill:color(display-p3 0.7255 0.7294 0.7412);fill-opacity:1;"/>
<path d="M104.425 162.868C104.425 163.937 103.56 164.802 102.491 164.802C101.421 164.802 100.557 163.937 100.557 162.868C100.557 161.798 101.421 160.934 102.491 160.934C103.56 160.934 104.425 161.798 104.425 162.868Z" fill="#B9BABD" style="fill:#B9BABD;fill:color(display-p3 0.7255 0.7294 0.7412);fill-opacity:1;"/>
<path d="M121.687 162.852C121.687 163.922 120.822 164.786 119.752 164.786C118.683 164.786 117.818 163.922 117.818 162.852C117.818 161.782 118.683 160.918 119.752 160.918C120.822 160.918 121.687 161.782 121.687 162.852Z" fill="#B9BABD" style="fill:#B9BABD;fill:color(display-p3 0.7255 0.7294 0.7412);fill-opacity:1;"/>
<path d="M160.548 162.868C160.548 163.937 159.683 164.802 158.614 164.802C157.544 164.802 156.68 163.937 156.68 162.868C156.68 161.798 157.544 160.934 158.614 160.934C159.683 160.934 160.548 161.798 160.548 162.868Z" fill="#B9BABD" style="fill:#B9BABD;fill:color(display-p3 0.7255 0.7294 0.7412);fill-opacity:1;"/>
<path d="M112.944 162.852C112.944 163.922 112.08 164.786 111.01 164.786C109.941 164.786 109.076 163.922 109.076 162.852C109.076 161.782 109.941 160.918 111.01 160.918C112.08 160.918 112.944 161.782 112.944 162.852Z" fill="#FFD66B" style="fill:#FFD66B;fill:color(display-p3 1.0000 0.8378 0.4208);fill-opacity:1;"/>
<path d="M137.275 162.868C137.275 163.937 136.41 164.802 135.34 164.802C134.271 164.802 133.406 163.937 133.406 162.868C133.406 161.798 134.271 160.934 135.34 160.934C136.41 160.934 137.275 161.798 137.275 162.868Z" fill="#FFD66B" style="fill:#FFD66B;fill:color(display-p3 1.0000 0.8378 0.4208);fill-opacity:1;"/>
<path d="M196.342 219.272C196.342 224.716 191.932 229.132 186.488 229.139L149.077 229.187C143.623 229.194 139.197 224.774 139.197 219.32V196.635C139.197 191.19 143.607 186.775 149.051 186.768L186.463 186.72C191.917 186.713 196.342 191.132 196.342 196.587V219.272Z" fill="#46474E" style="fill:#46474E;fill:color(display-p3 0.2745 0.2784 0.3059);fill-opacity:1;"/>
<path d="M160.732 186.881H9.86681C4.41752 186.881 0 191.298 0 196.748L0 219.345C0 224.794 4.41753 229.212 9.86682 229.212H160.733C166.182 229.212 170.599 224.794 170.599 219.345V196.748C170.599 191.298 166.182 186.881 160.732 186.881Z" fill="#65666D" style="fill:#65666D;fill:color(display-p3 0.3961 0.4000 0.4275);fill-opacity:1;"/>
<path d="M38.5814 195.619H10.1702C8.74185 195.619 7.58398 196.777 7.58398 198.205C7.58398 199.634 8.74185 200.791 10.1702 200.791H38.5814C40.0097 200.791 41.1676 199.634 41.1676 198.205C41.1676 196.777 40.0097 195.619 38.5814 195.619Z" fill="#46474E" style="fill:#46474E;fill:color(display-p3 0.2745 0.2784 0.3059);fill-opacity:1;"/>
<path d="M38.5814 204.787H10.1702C8.74185 204.787 7.58398 205.945 7.58398 207.373C7.58398 208.802 8.74185 209.959 10.1702 209.959H38.5814C40.0097 209.959 41.1676 208.802 41.1676 207.373C41.1676 205.945 40.0097 204.787 38.5814 204.787Z" fill="#46474E" style="fill:#46474E;fill:color(display-p3 0.2745 0.2784 0.3059);fill-opacity:1;"/>
<path d="M38.5814 214.09H10.1702C8.74185 214.09 7.58398 215.248 7.58398 216.676C7.58398 218.104 8.74185 219.262 10.1702 219.262H38.5814C40.0097 219.262 41.1676 218.104 41.1676 216.676C41.1676 215.248 40.0097 214.09 38.5814 214.09Z" fill="#46474E" style="fill:#46474E;fill:color(display-p3 0.2745 0.2784 0.3059);fill-opacity:1;"/>
<path d="M54.4581 198.733C54.4581 199.803 53.5936 200.667 52.524 200.667C51.4543 200.667 50.5898 199.803 50.5898 198.733C50.5898 197.663 51.4543 196.799 52.524 196.799C53.5936 196.799 54.4581 197.663 54.4581 198.733Z" fill="#46474E" style="fill:#46474E;fill:color(display-p3 0.2745 0.2784 0.3059);fill-opacity:1;"/>
<path d="M62.962 198.749C62.962 199.818 62.0975 200.683 61.0279 200.683C59.9582 200.683 59.0938 199.818 59.0938 198.749C59.0938 197.679 59.9582 196.814 61.0279 196.814C62.0975 196.814 62.962 197.679 62.962 198.749Z" fill="#46474E" style="fill:#46474E;fill:color(display-p3 0.2745 0.2784 0.3059);fill-opacity:1;"/>
<path d="M71.4679 198.733C71.4679 199.803 70.6034 200.667 69.5337 200.667C68.4641 200.667 67.5996 199.803 67.5996 198.733C67.5996 197.663 68.4641 196.799 69.5337 196.799C70.6034 196.799 71.4679 197.663 71.4679 198.733Z" fill="#46474E" style="fill:#46474E;fill:color(display-p3 0.2745 0.2784 0.3059);fill-opacity:1;"/>
<path d="M79.9659 198.749C79.9659 199.818 79.1014 200.683 78.0318 200.683C76.9622 200.683 76.0977 199.818 76.0977 198.749C76.0977 197.679 76.9622 196.814 78.0318 196.814C79.1014 196.814 79.9659 197.679 79.9659 198.749Z" fill="#46474E" style="fill:#46474E;fill:color(display-p3 0.2745 0.2784 0.3059);fill-opacity:1;"/>
<path d="M145.858 198.749C145.858 199.818 144.994 200.683 143.924 200.683C142.855 200.683 141.99 199.818 141.99 198.749C141.99 197.679 142.855 196.814 143.924 196.814C144.994 196.814 145.858 197.679 145.858 198.749Z" fill="#46474E" style="fill:#46474E;fill:color(display-p3 0.2745 0.2784 0.3059);fill-opacity:1;"/>
<path d="M154.538 198.733C154.538 199.803 153.674 200.667 152.604 200.667C151.534 200.667 150.67 199.803 150.67 198.733C150.67 197.663 151.534 196.799 152.604 196.799C153.674 196.799 154.538 197.663 154.538 198.733Z" fill="#46474E" style="fill:#46474E;fill:color(display-p3 0.2745 0.2784 0.3059);fill-opacity:1;"/>
<path d="M88.4679 198.733C88.4679 199.803 87.6034 200.667 86.5337 200.667C85.4641 200.667 84.5996 199.803 84.5996 198.733C84.5996 197.663 85.4641 196.799 86.5337 196.799C87.6034 196.799 88.4679 197.663 88.4679 198.733Z" fill="#46474E" style="fill:#46474E;fill:color(display-p3 0.2745 0.2784 0.3059);fill-opacity:1;"/>
<path d="M130.228 198.733C130.228 199.803 129.363 200.667 128.294 200.667C127.224 200.667 126.359 199.803 126.359 198.733C126.359 197.663 127.224 196.799 128.294 196.799C129.363 196.799 130.228 197.663 130.228 198.733Z" fill="#46474E" style="fill:#46474E;fill:color(display-p3 0.2745 0.2784 0.3059);fill-opacity:1;"/>
<path d="M96.9796 198.733C96.9796 199.803 96.1151 200.667 95.0455 200.667C93.9758 200.667 93.1113 199.803 93.1113 198.733C93.1113 197.663 93.9758 196.799 95.0455 196.799C96.1151 196.799 96.9796 197.663 96.9796 198.733Z" fill="#B9BABD" style="fill:#B9BABD;fill:color(display-p3 0.7255 0.7294 0.7412);fill-opacity:1;"/>
<path d="M105.476 198.749C105.476 199.818 104.611 200.683 103.542 200.683C102.472 200.683 101.607 199.818 101.607 198.749C101.607 197.679 102.472 196.814 103.542 196.814C104.611 196.814 105.476 197.679 105.476 198.749Z" fill="#B9BABD" style="fill:#B9BABD;fill:color(display-p3 0.7255 0.7294 0.7412);fill-opacity:1;"/>
<path d="M122.722 198.733C122.722 199.803 121.857 200.667 120.788 200.667C119.718 200.667 118.854 199.803 118.854 198.733C118.854 197.663 119.718 196.799 120.788 196.799C121.857 196.799 122.722 197.663 122.722 198.733Z" fill="#B9BABD" style="fill:#B9BABD;fill:color(display-p3 0.7255 0.7294 0.7412);fill-opacity:1;"/>
<path d="M161.579 198.733C161.579 199.803 160.715 200.667 159.645 200.667C158.575 200.667 157.711 199.803 157.711 198.733C157.711 197.663 158.575 196.799 159.645 196.799C160.715 196.799 161.579 197.663 161.579 198.733Z" fill="#B9BABD" style="fill:#B9BABD;fill:color(display-p3 0.7255 0.7294 0.7412);fill-opacity:1;"/>
<path d="M113.978 198.733C113.978 199.803 113.113 200.667 112.044 200.667C110.974 200.667 110.109 199.803 110.109 198.733C110.109 197.663 110.974 196.799 112.044 196.799C113.113 196.799 113.978 197.663 113.978 198.733Z" fill="#FFD66B" style="fill:#FFD66B;fill:color(display-p3 1.0000 0.8378 0.4208);fill-opacity:1;"/>
<path d="M138.325 198.749C138.325 199.818 137.461 200.683 136.391 200.683C135.322 200.683 134.457 199.818 134.457 198.749C134.457 197.679 135.322 196.814 136.391 196.814C137.461 196.814 138.325 197.679 138.325 198.749Z" fill="#FFD66B" style="fill:#FFD66B;fill:color(display-p3 1.0000 0.8378 0.4208);fill-opacity:1;"/>
<path d="M157.721 208.014C157.721 206.945 158.585 206.08 159.655 206.08C160.724 206.08 161.589 206.945 161.589 208.014C161.589 209.084 160.724 209.948 159.655 209.948C158.585 209.948 157.721 209.084 157.721 208.014Z" fill="#46474E" style="fill:#46474E;fill:color(display-p3 0.2745 0.2784 0.3059);fill-opacity:1;"/>
<path d="M149.227 208.03C149.227 206.96 150.091 206.096 151.161 206.096C152.23 206.096 153.095 206.96 153.095 208.03C153.095 209.099 152.23 209.964 151.161 209.964C150.091 209.964 149.227 209.099 149.227 208.03Z" fill="#46474E" style="fill:#46474E;fill:color(display-p3 0.2745 0.2784 0.3059);fill-opacity:1;"/>
<path d="M140.73 208.014C140.73 206.945 141.595 206.08 142.665 206.08C143.734 206.08 144.599 206.945 144.599 208.014C144.599 209.084 143.734 209.948 142.665 209.948C141.595 209.948 140.73 209.084 140.73 208.014Z" fill="#46474E" style="fill:#46474E;fill:color(display-p3 0.2745 0.2784 0.3059);fill-opacity:1;"/>
<path d="M132.211 208.03C132.211 206.96 133.075 206.096 134.145 206.096C135.215 206.096 136.079 206.96 136.079 208.03C136.079 209.099 135.215 209.964 134.145 209.964C133.075 209.964 132.211 209.099 132.211 208.03Z" fill="#46474E" style="fill:#46474E;fill:color(display-p3 0.2745 0.2784 0.3059);fill-opacity:1;"/>
<path d="M66.3203 208.03C66.3203 206.96 67.1848 206.096 68.2545 206.096C69.3241 206.096 70.1886 206.96 70.1886 208.03C70.1886 209.099 69.3241 209.964 68.2545 209.964C67.1848 209.964 66.3203 209.099 66.3203 208.03Z" fill="#46474E" style="fill:#46474E;fill:color(display-p3 0.2745 0.2784 0.3059);fill-opacity:1;"/>
<path d="M57.6445 208.014C57.6445 206.945 58.509 206.08 59.5787 206.08C60.6483 206.08 61.5128 206.945 61.5128 208.014C61.5128 209.084 60.6483 209.948 59.5787 209.948C58.509 209.948 57.6445 209.084 57.6445 208.014Z" fill="#46474E" style="fill:#46474E;fill:color(display-p3 0.2745 0.2784 0.3059);fill-opacity:1;"/>
<path d="M123.711 208.03C123.711 206.96 124.575 206.096 125.645 206.096C126.715 206.096 127.579 206.96 127.579 208.03C127.579 209.099 126.715 209.964 125.645 209.964C124.575 209.964 123.711 209.099 123.711 208.03Z" fill="#46474E" style="fill:#46474E;fill:color(display-p3 0.2745 0.2784 0.3059);fill-opacity:1;"/>
<path d="M81.9512 208.014C81.9512 206.945 82.8157 206.08 83.8853 206.08C84.9549 206.08 85.8194 206.945 85.8194 208.014C85.8194 209.084 84.9549 209.948 83.8853 209.948C82.8157 209.948 81.9512 209.084 81.9512 208.014Z" fill="#46474E" style="fill:#46474E;fill:color(display-p3 0.2745 0.2784 0.3059);fill-opacity:1;"/>
<path d="M115.223 208.014C115.223 206.945 116.087 206.08 117.157 206.08C118.226 206.08 119.091 206.945 119.091 208.014C119.091 209.084 118.226 209.948 117.157 209.948C116.087 209.948 115.223 209.084 115.223 208.014Z" fill="#B9BABD" style="fill:#B9BABD;fill:color(display-p3 0.7255 0.7294 0.7412);fill-opacity:1;"/>
<path d="M106.705 208.03C106.705 206.96 107.57 206.096 108.639 206.096C109.709 206.096 110.573 206.96 110.573 208.03C110.573 209.099 109.709 209.964 108.639 209.964C107.57 209.964 106.705 209.099 106.705 208.03Z" fill="#B9BABD" style="fill:#B9BABD;fill:color(display-p3 0.7255 0.7294 0.7412);fill-opacity:1;"/>
<path d="M89.4492 208.014C89.4492 206.945 90.3137 206.08 91.3834 206.08C92.453 206.08 93.3175 206.945 93.3175 208.014C93.3175 209.084 92.453 209.948 91.3834 209.948C90.3137 209.948 89.4492 209.084 89.4492 208.014Z" fill="#B9BABD" style="fill:#B9BABD;fill:color(display-p3 0.7255 0.7294 0.7412);fill-opacity:1;"/>
<path d="M50.5977 208.014C50.5977 206.945 51.4622 206.08 52.5318 206.08C53.6014 206.08 54.4659 206.945 54.4659 208.014C54.4659 209.084 53.6014 209.948 52.5318 209.948C51.4622 209.948 50.5977 209.084 50.5977 208.014Z" fill="#B9BABD" style="fill:#B9BABD;fill:color(display-p3 0.7255 0.7294 0.7412);fill-opacity:1;"/>
<path d="M98.2031 208.014C98.2031 206.945 99.0676 206.08 100.137 206.08C101.207 206.08 102.071 206.945 102.071 208.014C102.071 209.084 101.207 209.948 100.137 209.948C99.0676 209.948 98.2031 209.084 98.2031 208.014Z" fill="#FFD66B" style="fill:#FFD66B;fill:color(display-p3 1.0000 0.8378 0.4208);fill-opacity:1;"/>
<path d="M73.8535 208.03C73.8535 206.96 74.718 206.096 75.7876 206.096C76.8573 206.096 77.7218 206.96 77.7218 208.03C77.7218 209.099 76.8573 209.964 75.7876 209.964C74.718 209.964 73.8535 209.099 73.8535 208.03Z" fill="#FFD66B" style="fill:#FFD66B;fill:color(display-p3 1.0000 0.8378 0.4208);fill-opacity:1;"/>
<path d="M54.4522 216.254C54.4522 217.324 53.5878 218.189 52.5181 218.189C51.4485 218.189 50.584 217.324 50.584 216.254C50.584 215.185 51.4485 214.32 52.5181 214.32C53.5878 214.32 54.4522 215.185 54.4522 216.254Z" fill="#46474E" style="fill:#46474E;fill:color(display-p3 0.2745 0.2784 0.3059);fill-opacity:1;"/>
<path d="M62.9562 216.27C62.9562 217.34 62.0917 218.204 61.022 218.204C59.9524 218.204 59.0879 217.34 59.0879 216.27C59.0879 215.2 59.9524 214.336 61.022 214.336C62.0917 214.336 62.9562 215.2 62.9562 216.27Z" fill="#46474E" style="fill:#46474E;fill:color(display-p3 0.2745 0.2784 0.3059);fill-opacity:1;"/>
<path d="M69.5279 218.189C70.5961 218.189 71.462 217.323 71.462 216.254C71.462 215.186 70.5961 214.32 69.5279 214.32C68.4597 214.32 67.5938 215.186 67.5938 216.254C67.5938 217.323 68.4597 218.189 69.5279 218.189Z" fill="#46474E" style="fill:#46474E;fill:color(display-p3 0.2745 0.2784 0.3059);fill-opacity:1;"/>
<path d="M79.9601 216.27C79.9601 217.34 79.0956 218.204 78.0259 218.204C76.9563 218.204 76.0918 217.34 76.0918 216.27C76.0918 215.2 76.9563 214.336 78.0259 214.336C79.0956 214.336 79.9601 215.2 79.9601 216.27Z" fill="#46474E" style="fill:#46474E;fill:color(display-p3 0.2745 0.2784 0.3059);fill-opacity:1;"/>
<path d="M143.922 218.204C144.991 218.204 145.857 217.338 145.857 216.27C145.857 215.202 144.991 214.336 143.922 214.336C142.854 214.336 141.988 215.202 141.988 216.27C141.988 217.338 142.854 218.204 143.922 218.204Z" fill="#46474E" style="fill:#46474E;fill:color(display-p3 0.2745 0.2784 0.3059);fill-opacity:1;"/>
<path d="M152.6 218.189C153.668 218.189 154.534 217.323 154.534 216.254C154.534 215.186 153.668 214.32 152.6 214.32C151.532 214.32 150.666 215.186 150.666 216.254C150.666 217.323 151.532 218.189 152.6 218.189Z" fill="#46474E" style="fill:#46474E;fill:color(display-p3 0.2745 0.2784 0.3059);fill-opacity:1;"/>
<path d="M88.462 216.254C88.462 217.324 87.5975 218.189 86.5279 218.189C85.4582 218.189 84.5938 217.324 84.5938 216.254C84.5938 215.185 85.4582 214.32 86.5279 214.32C87.5975 214.32 88.462 215.185 88.462 216.254Z" fill="#46474E" style="fill:#46474E;fill:color(display-p3 0.2745 0.2784 0.3059);fill-opacity:1;"/>
<path d="M130.222 216.254C130.222 217.324 129.357 218.189 128.288 218.189C127.218 218.189 126.354 217.324 126.354 216.254C126.354 215.185 127.218 214.32 128.288 214.32C129.357 214.32 130.222 215.185 130.222 216.254Z" fill="#46474E" style="fill:#46474E;fill:color(display-p3 0.2745 0.2784 0.3059);fill-opacity:1;"/>
<path d="M96.9737 216.254C96.9737 217.324 96.1092 218.189 95.0396 218.189C93.97 218.189 93.1055 217.324 93.1055 216.254C93.1055 215.185 93.97 214.32 95.0396 214.32C96.1092 214.32 96.9737 215.185 96.9737 216.254Z" fill="#B9BABD" style="fill:#B9BABD;fill:color(display-p3 0.7255 0.7294 0.7412);fill-opacity:1;"/>
<path d="M103.54 218.204C104.608 218.204 105.474 217.338 105.474 216.27C105.474 215.202 104.608 214.336 103.54 214.336C102.471 214.336 101.605 215.202 101.605 216.27C101.605 217.338 102.471 218.204 103.54 218.204Z" fill="#B9BABD" style="fill:#B9BABD;fill:color(display-p3 0.7255 0.7294 0.7412);fill-opacity:1;"/>
<path d="M122.72 216.254C122.72 217.324 121.855 218.189 120.786 218.189C119.716 218.189 118.852 217.324 118.852 216.254C118.852 215.185 119.716 214.32 120.786 214.32C121.855 214.32 122.72 215.185 122.72 216.254Z" fill="#B9BABD" style="fill:#B9BABD;fill:color(display-p3 0.7255 0.7294 0.7412);fill-opacity:1;"/>
<path d="M161.575 216.254C161.575 217.324 160.711 218.189 159.641 218.189C158.572 218.189 157.707 217.324 157.707 216.254C157.707 215.185 158.572 214.32 159.641 214.32C160.711 214.32 161.575 215.185 161.575 216.254Z" fill="#B9BABD" style="fill:#B9BABD;fill:color(display-p3 0.7255 0.7294 0.7412);fill-opacity:1;"/>
<path d="M113.972 216.254C113.972 217.324 113.107 218.189 112.038 218.189C110.968 218.189 110.104 217.324 110.104 216.254C110.104 215.185 110.968 214.32 112.038 214.32C113.107 214.32 113.972 215.185 113.972 216.254Z" fill="#FFD66B" style="fill:#FFD66B;fill:color(display-p3 1.0000 0.8378 0.4208);fill-opacity:1;"/>
<path d="M136.385 218.204C137.453 218.204 138.319 217.338 138.319 216.27C138.319 215.202 137.453 214.336 136.385 214.336C135.317 214.336 134.451 215.202 134.451 216.27C134.451 217.338 135.317 218.204 136.385 218.204Z" fill="#FFD66B" style="fill:#FFD66B;fill:color(display-p3 1.0000 0.8378 0.4208);fill-opacity:1;"/>
<path d="M152.271 37.3048L152.271 17.7559L155.812 17.7559C156.15 17.7559 156.42 18.0259 156.42 18.3635L156.42 36.7033C156.42 37.0409 156.15 37.3109 155.812 37.3109L152.271 37.3109L152.271 37.3048Z" fill="#E8E8E8" stroke="#585960" style="fill:#E8E8E8;fill:color(display-p3 0.9083 0.9083 0.9083);fill-opacity:1;stroke:#585960;stroke:color(display-p3 0.3451 0.3490 0.3765);stroke-opacity:1;" stroke-width="0.613781" stroke-linecap="round" stroke-linejoin="round"/>
<path d="M32.1507 -5.3916e-06L142.748 -5.57243e-07C149.788 -2.49512e-07 155.496 5.70816 155.496 12.7482L155.094 139.746C155.094 146.786 149.386 152.495 142.346 152.495L31.7483 152.495C24.7082 152.495 19.0002 146.786 19.0002 139.746L19.4024 12.7544C19.4024 5.71429 25.1106 0.00612869 32.1507 0.006129L32.1507 -5.3916e-06Z" fill="#F3F0F0" style="fill:#F3F0F0;fill:color(display-p3 0.9529 0.9412 0.9412);fill-opacity:1;"/>
<path d="M144.696 146.777L30.8086 146.777C27.8318 146.777 25.4258 144.365 25.4258 141.394L25.0039 50.879C25.0039 47.9021 27.4161 45.4961 30.3868 45.4961L144.28 45.4961C147.257 45.4961 149.663 47.9083 149.663 50.879L150.085 141.394C150.085 144.371 147.673 146.777 144.702 146.777L144.696 146.777Z" fill="#FCCD82" style="fill:#FCCD82;fill:color(display-p3 0.9882 0.8039 0.5098);fill-opacity:1;"/>
<path d="M20.4298 139.915L20.8037 12.8405C20.8037 6.81315 25.6894 1.93359 31.7106 1.93359L143.13 1.93359C149.158 1.93359 154.037 6.81929 154.037 12.8405L153.663 139.915C153.663 145.942 148.778 150.822 142.756 150.822L31.3367 150.822C25.3094 150.822 20.4298 145.936 20.4298 139.915Z" fill="#585960" style="fill:#585960;fill:color(display-p3 0.3451 0.3490 0.3765);fill-opacity:1;"/>
<path d="M149.752 11.6016C149.752 8.63091 147.346 6.21875 144.369 6.21875L30.4821 6.21874L30.4759 6.21874C27.5052 6.21874 25.0931 8.62476 25.0931 11.6016" stroke="#585960" style="stroke:#585960;stroke:color(display-p3 0.3451 0.3490 0.3765);stroke-opacity:1;" stroke-width="0.613781" stroke-linecap="round" stroke-linejoin="round"/>
<path d="M144.696 146.777L30.8086 146.777C27.8318 146.777 25.4258 144.365 25.4258 141.394L25.0039 50.879C25.0039 47.9021 27.4161 45.4961 30.3868 45.4961L144.28 45.4961C147.257 45.4961 149.663 47.9083 149.663 50.879L150.085 141.394C150.085 144.371 147.673 146.777 144.702 146.777L144.696 146.777Z" fill="#FCCD82" style="fill:#FCCD82;fill:color(display-p3 0.9882 0.8039 0.5098);fill-opacity:1;"/>
<path d="M139.699 15.8138L114.233 15.8138C113.601 15.8138 113.092 15.3044 113.092 14.6722L113.092 12.9659C113.092 12.3337 113.601 11.8242 114.233 11.8242L139.699 11.8242C140.331 11.8242 140.841 12.3337 140.841 12.9659L140.841 14.6722C140.841 15.3044 140.331 15.8138 139.699 15.8138Z" fill="#585960" stroke="white" style="fill:#585960;fill:color(display-p3 0.3451 0.3490 0.3765);fill-opacity:1;stroke:white;stroke-opacity:1;" stroke-width="0.613781" stroke-linecap="round" stroke-linejoin="round"/>
<path d="M137.992 13.0625L138.937 14.5908L139.889 13.0625L137.992 13.0625Z" fill="#FCCD82" style="fill:#FCCD82;fill:color(display-p3 0.9882 0.8039 0.5098);fill-opacity:1;"/>
<path d="M125.317 14.443L115.257 14.443C114.913 14.443 114.631 14.1668 114.631 13.823C114.631 13.4793 114.907 13.2031 115.257 13.2031L125.317 13.2031C125.661 13.2031 125.943 13.4793 125.943 13.823C125.943 14.1668 125.661 14.443 125.317 14.443Z" fill="white" style="fill:white;fill-opacity:1;"/>
<path d="M139.697 23.1829L114.231 23.1829C113.599 23.1829 113.09 22.6735 113.09 22.0413L113.09 20.335C113.09 19.7028 113.599 19.1934 114.231 19.1934L139.697 19.1934C140.329 19.1934 140.839 19.7028 140.839 20.335L140.839 22.0413C140.839 22.6735 140.329 23.1829 139.697 23.1829Z" fill="#585960" stroke="white" style="fill:#585960;fill:color(display-p3 0.3451 0.3490 0.3765);fill-opacity:1;stroke:white;stroke-opacity:1;" stroke-width="0.613781" stroke-linecap="round" stroke-linejoin="round"/>
<path d="M137.992 20.4316L138.937 21.96L139.889 20.4316L137.992 20.4316Z" fill="#FCCD82" style="fill:#FCCD82;fill:color(display-p3 0.9882 0.8039 0.5098);fill-opacity:1;"/>
<path d="M128.304 21.8199L115.261 21.8199C114.917 21.8199 114.635 21.5437 114.635 21.2C114.635 20.8563 114.911 20.5801 115.261 20.5801L128.304 20.5801C128.647 20.5801 128.93 20.8563 128.93 21.2C128.93 21.5437 128.647 21.8199 128.304 21.8199Z" fill="white" style="fill:white;fill-opacity:1;"/>
<path d="M139.697 30.5599L114.231 30.5599C113.599 30.5599 113.09 30.0505 113.09 29.4183L113.09 27.7119C113.09 27.0798 113.599 26.5703 114.231 26.5703L139.697 26.5703C140.329 26.5703 140.839 27.0798 140.839 27.7119L140.839 29.4183C140.839 30.0505 140.329 30.5599 139.697 30.5599Z" fill="#585960" stroke="white" style="fill:#585960;fill:color(display-p3 0.3451 0.3490 0.3765);fill-opacity:1;stroke:white;stroke-opacity:1;" stroke-width="0.613781" stroke-linecap="round" stroke-linejoin="round"/>
<path d="M137.99 27.8008L138.935 29.3291L139.887 27.8008L137.99 27.8008Z" fill="#FCCD82" style="fill:#FCCD82;fill:color(display-p3 0.9882 0.8039 0.5098);fill-opacity:1;"/>
<path d="M125.319 29.1969L115.259 29.1969C114.915 29.1969 114.633 28.9207 114.633 28.5769C114.633 28.2332 114.909 27.957 115.259 27.957L125.319 27.957C125.662 27.957 125.945 28.2332 125.945 28.5769C125.945 28.9207 125.662 29.1969 125.319 29.1969Z" fill="white" style="fill:white;fill-opacity:1;"/>
<path d="M139.699 37.9368L114.233 37.9368C113.601 37.9368 113.092 37.4274 113.092 36.7952L113.092 35.0889C113.092 34.4567 113.601 33.9473 114.233 33.9473L139.699 33.9473C140.331 33.9473 140.841 34.4567 140.841 35.0889L140.841 36.7952C140.841 37.4274 140.331 37.9368 139.699 37.9368Z" fill="#E8E8E8" stroke="white" style="fill:#E8E8E8;fill:color(display-p3 0.9083 0.9083 0.9083);fill-opacity:1;stroke:white;stroke-opacity:1;" stroke-width="0.613781" stroke-linecap="round" stroke-linejoin="round"/>
<path d="M137.994 35.1777L138.939 36.706L139.891 35.1777L137.994 35.1777Z" fill="#FCCD82" style="fill:#FCCD82;fill:color(display-p3 0.9882 0.8039 0.5098);fill-opacity:1;"/>
<path d="M128.302 36.5627L115.259 36.5627C114.915 36.5627 114.633 36.2865 114.633 35.9366C114.633 35.5929 114.909 35.3105 115.259 35.3105L128.302 35.3105C128.645 35.3105 128.928 35.5867 128.928 35.9366C128.928 36.2803 128.645 36.5627 128.302 36.5627Z" fill="white" style="fill:white;fill-opacity:1;"/>
<path d="M107.532 14.0552L94.3993 14.0552C94.1736 14.0552 93.9883 13.8724 93.9883 13.6448C93.9883 13.4172 94.1696 13.2344 94.3993 13.2344L107.532 13.2344C107.758 13.2344 107.943 13.4172 107.943 13.6448C107.943 13.8724 107.758 14.0552 107.532 14.0552Z" fill="white" style="fill:white;fill-opacity:1;"/>
<path d="M103.437 21.4322L94.3936 21.4322C94.1721 21.4322 93.9902 21.2493 93.9902 21.0218C93.9902 20.7942 94.1682 20.6113 94.3936 20.6113L103.437 20.6113C103.659 20.6113 103.841 20.7942 103.841 21.0218C103.841 21.2493 103.663 21.4322 103.437 21.4322Z" fill="white" style="fill:white;fill-opacity:1;"/>
<path d="M105.068 28.8267L94.4086 28.8267C94.18 28.8267 93.9922 28.6438 93.9922 28.4163C93.9922 28.1887 94.1759 28.0059 94.4086 28.0059L105.068 28.0059C105.296 28.0059 105.484 28.1887 105.484 28.4163C105.484 28.6438 105.296 28.8267 105.068 28.8267Z" fill="white" style="fill:white;fill-opacity:1;"/>
<path d="M101.783 36.2193L94.4098 36.2193C94.1805 36.2193 93.9922 36.0382 93.9922 35.8089C93.9922 35.5835 94.1764 35.3984 94.4098 35.3984L101.783 35.3984C102.012 35.3984 102.201 35.5795 102.201 35.8089C102.201 36.0342 102.012 36.2193 101.783 36.2193Z" fill="white" style="fill:white;fill-opacity:1;"/>
<path d="M34.4884 112.539L31.9941 112.539L31.9941 115.033L34.4884 115.033L34.4884 112.539Z" fill="#E8E8E8" stroke="#585960" style="fill:#E8E8E8;fill:color(display-p3 0.9083 0.9083 0.9083);fill-opacity:1;stroke:#585960;stroke:color(display-p3 0.3451 0.3490 0.3765);stroke-opacity:1;" stroke-width="0.613781" stroke-linecap="round" stroke-linejoin="round"/>
<path d="M38.2052 112.539L35.7109 112.539L35.7109 115.033L38.2052 115.033L38.2052 112.539Z" fill="#E8E8E8" stroke="#585960" style="fill:#E8E8E8;fill:color(display-p3 0.9083 0.9083 0.9083);fill-opacity:1;stroke:#585960;stroke:color(display-p3 0.3451 0.3490 0.3765);stroke-opacity:1;" stroke-width="0.613781" stroke-linecap="round" stroke-linejoin="round"/>
<path d="M41.9083 112.539L39.4141 112.539L39.4141 115.033L41.9083 115.033L41.9083 112.539Z" fill="#E8E8E8" stroke="#585960" style="fill:#E8E8E8;fill:color(display-p3 0.9083 0.9083 0.9083);fill-opacity:1;stroke:#585960;stroke:color(display-p3 0.3451 0.3490 0.3765);stroke-opacity:1;" stroke-width="0.613781" stroke-linecap="round" stroke-linejoin="round"/>
<path d="M45.6134 112.541L43.1191 112.541L43.1191 115.035L45.6134 115.035L45.6134 112.541Z" fill="#E8E8E8" stroke="#585960" style="fill:#E8E8E8;fill:color(display-p3 0.9083 0.9083 0.9083);fill-opacity:1;stroke:#585960;stroke:color(display-p3 0.3451 0.3490 0.3765);stroke-opacity:1;" stroke-width="0.613781" stroke-linecap="round" stroke-linejoin="round"/>
<path d="M49.3244 112.541L46.8301 112.541L46.8301 115.035L49.3244 115.035L49.3244 112.541Z" fill="#E8E8E8" stroke="#585960" style="fill:#E8E8E8;fill:color(display-p3 0.9083 0.9083 0.9083);fill-opacity:1;stroke:#585960;stroke:color(display-p3 0.3451 0.3490 0.3765);stroke-opacity:1;" stroke-width="0.613781" stroke-linecap="round" stroke-linejoin="round"/>
<path d="M53.0294 112.541L50.5352 112.541L50.5352 115.035L53.0294 115.035L53.0294 112.541Z" fill="#E8E8E8" stroke="#585960" style="fill:#E8E8E8;fill:color(display-p3 0.9083 0.9083 0.9083);fill-opacity:1;stroke:#585960;stroke:color(display-p3 0.3451 0.3490 0.3765);stroke-opacity:1;" stroke-width="0.613781" stroke-linecap="round" stroke-linejoin="round"/>
<path d="M56.7463 112.535L54.252 112.535L54.252 115.029L56.7463 115.029L56.7463 112.535Z" fill="#E8E8E8" stroke="#585960" style="fill:#E8E8E8;fill:color(display-p3 0.9083 0.9083 0.9083);fill-opacity:1;stroke:#585960;stroke:color(display-p3 0.3451 0.3490 0.3765);stroke-opacity:1;" stroke-width="0.613781" stroke-linecap="round" stroke-linejoin="round"/>
<path d="M60.4455 112.543L57.9512 112.543L57.9512 115.037L60.4455 115.037L60.4455 112.543Z" fill="#E8E8E8" stroke="#585960" style="fill:#E8E8E8;fill:color(display-p3 0.9083 0.9083 0.9083);fill-opacity:1;stroke:#585960;stroke:color(display-p3 0.3451 0.3490 0.3765);stroke-opacity:1;" stroke-width="0.613781" stroke-linecap="round" stroke-linejoin="round"/>
<path d="M64.1603 112.545L61.666 112.545L61.666 115.039L64.1603 115.039L64.1603 112.545Z" fill="#FCCD82" stroke="#585960" style="fill:#FCCD82;fill:color(display-p3 0.9882 0.8039 0.5098);fill-opacity:1;stroke:#585960;stroke:color(display-p3 0.3451 0.3490 0.3765);stroke-opacity:1;" stroke-width="0.613781" stroke-linecap="round" stroke-linejoin="round"/>
<path d="M67.8654 112.545L65.3711 112.545L65.3711 115.039L67.8654 115.039L67.8654 112.545Z" fill="#FCCD82" stroke="#585960" style="fill:#FCCD82;fill:color(display-p3 0.9882 0.8039 0.5098);fill-opacity:1;stroke:#585960;stroke:color(display-p3 0.3451 0.3490 0.3765);stroke-opacity:1;" stroke-width="0.613781" stroke-linecap="round" stroke-linejoin="round"/>
<path opacity="0.2" d="M71.5744 112.545L69.0801 112.545L69.0801 115.039L71.5744 115.039L71.5744 112.545Z" fill="#585960" style="fill:#585960;fill:color(display-p3 0.3451 0.3490 0.3765);fill-opacity:1;"/>
<path opacity="0.2" d="M75.2775 112.545L72.7832 112.545L72.7832 115.039L75.2775 115.039L75.2775 112.545Z" fill="#585960" style="fill:#585960;fill:color(display-p3 0.3451 0.3490 0.3765);fill-opacity:1;"/>
<path opacity="0.2" d="M78.9943 112.539L76.5 112.539L76.5 115.033L78.9943 115.033L78.9943 112.539Z" fill="#585960" style="fill:#585960;fill:color(display-p3 0.3451 0.3490 0.3765);fill-opacity:1;"/>
<path d="M34.4884 120.961L31.9941 120.961L31.9941 123.455L34.4884 123.455L34.4884 120.961Z" fill="#E8E8E8" stroke="#585960" style="fill:#E8E8E8;fill:color(display-p3 0.9083 0.9083 0.9083);fill-opacity:1;stroke:#585960;stroke:color(display-p3 0.3451 0.3490 0.3765);stroke-opacity:1;" stroke-width="0.613781" stroke-linecap="round" stroke-linejoin="round"/>
<path d="M38.2052 120.961L35.7109 120.961L35.7109 123.455L38.2052 123.455L38.2052 120.961Z" fill="#E8E8E8" stroke="#585960" style="fill:#E8E8E8;fill:color(display-p3 0.9083 0.9083 0.9083);fill-opacity:1;stroke:#585960;stroke:color(display-p3 0.3451 0.3490 0.3765);stroke-opacity:1;" stroke-width="0.613781" stroke-linecap="round" stroke-linejoin="round"/>
<path d="M41.9083 120.961L39.4141 120.961L39.4141 123.455L41.9083 123.455L41.9083 120.961Z" fill="#E8E8E8" stroke="#585960" style="fill:#E8E8E8;fill:color(display-p3 0.9083 0.9083 0.9083);fill-opacity:1;stroke:#585960;stroke:color(display-p3 0.3451 0.3490 0.3765);stroke-opacity:1;" stroke-width="0.613781" stroke-linecap="round" stroke-linejoin="round"/>
<path d="M45.6134 120.963L43.1191 120.963L43.1191 123.457L45.6134 123.457L45.6134 120.963Z" fill="#E8E8E8" stroke="#585960" style="fill:#E8E8E8;fill:color(display-p3 0.9083 0.9083 0.9083);fill-opacity:1;stroke:#585960;stroke:color(display-p3 0.3451 0.3490 0.3765);stroke-opacity:1;" stroke-width="0.613781" stroke-linecap="round" stroke-linejoin="round"/>
<path d="M49.3244 120.963L46.8301 120.963L46.8301 123.457L49.3244 123.457L49.3244 120.963Z" fill="#E8E8E8" stroke="#585960" style="fill:#E8E8E8;fill:color(display-p3 0.9083 0.9083 0.9083);fill-opacity:1;stroke:#585960;stroke:color(display-p3 0.3451 0.3490 0.3765);stroke-opacity:1;" stroke-width="0.613781" stroke-linecap="round" stroke-linejoin="round"/>
<path d="M53.0294 120.963L50.5352 120.963L50.5352 123.457L53.0294 123.457L53.0294 120.963Z" fill="#E8E8E8" stroke="#585960" style="fill:#E8E8E8;fill:color(display-p3 0.9083 0.9083 0.9083);fill-opacity:1;stroke:#585960;stroke:color(display-p3 0.3451 0.3490 0.3765);stroke-opacity:1;" stroke-width="0.613781" stroke-linecap="round" stroke-linejoin="round"/>
<path d="M56.7463 120.957L54.252 120.957L54.252 123.451L56.7463 123.451L56.7463 120.957Z" fill="#E8E8E8" stroke="#585960" style="fill:#E8E8E8;fill:color(display-p3 0.9083 0.9083 0.9083);fill-opacity:1;stroke:#585960;stroke:color(display-p3 0.3451 0.3490 0.3765);stroke-opacity:1;" stroke-width="0.613781" stroke-linecap="round" stroke-linejoin="round"/>
<path opacity="0.2" d="M60.4455 120.965L57.9512 120.965L57.9512 123.459L60.4455 123.459L60.4455 120.965Z" fill="#585960" style="fill:#585960;fill:color(display-p3 0.3451 0.3490 0.3765);fill-opacity:1;"/>
<path opacity="0.2" d="M64.1603 120.967L61.666 120.967L61.666 123.461L64.1603 123.461L64.1603 120.967Z" fill="#585960" style="fill:#585960;fill:color(display-p3 0.3451 0.3490 0.3765);fill-opacity:1;"/>
<path opacity="0.2" d="M67.8654 120.967L65.3711 120.967L65.3711 123.461L67.8654 123.461L67.8654 120.967Z" fill="#585960" style="fill:#585960;fill:color(display-p3 0.3451 0.3490 0.3765);fill-opacity:1;"/>
<path opacity="0.2" d="M71.5744 120.967L69.0801 120.967L69.0801 123.461L71.5744 123.461L71.5744 120.967Z" fill="#585960" style="fill:#585960;fill:color(display-p3 0.3451 0.3490 0.3765);fill-opacity:1;"/>
<path opacity="0.2" d="M75.2775 120.967L72.7832 120.967L72.7832 123.461L75.2775 123.461L75.2775 120.967Z" fill="#585960" style="fill:#585960;fill:color(display-p3 0.3451 0.3490 0.3765);fill-opacity:1;"/>
<path opacity="0.2" d="M78.9943 120.961L76.5 120.961L76.5 123.455L78.9943 123.455L78.9943 120.961Z" fill="#585960" style="fill:#585960;fill:color(display-p3 0.3451 0.3490 0.3765);fill-opacity:1;"/>
<path d="M34.4904 137.803L31.9961 137.803L31.9961 140.297L34.4904 140.297L34.4904 137.803Z" fill="#E8E8E8" stroke="#585960" style="fill:#E8E8E8;fill:color(display-p3 0.9083 0.9083 0.9083);fill-opacity:1;stroke:#585960;stroke:color(display-p3 0.3451 0.3490 0.3765);stroke-opacity:1;" stroke-width="0.613781" stroke-linecap="round" stroke-linejoin="round"/>
<path d="M38.2072 137.803L35.7129 137.803L35.7129 140.297L38.2072 140.297L38.2072 137.803Z" fill="#E8E8E8" stroke="#585960" style="fill:#E8E8E8;fill:color(display-p3 0.9083 0.9083 0.9083);fill-opacity:1;stroke:#585960;stroke:color(display-p3 0.3451 0.3490 0.3765);stroke-opacity:1;" stroke-width="0.613781" stroke-linecap="round" stroke-linejoin="round"/>
<path d="M41.9103 137.803L39.416 137.803L39.416 140.297L41.9103 140.297L41.9103 137.803Z" fill="#E8E8E8" stroke="#585960" style="fill:#E8E8E8;fill:color(display-p3 0.9083 0.9083 0.9083);fill-opacity:1;stroke:#585960;stroke:color(display-p3 0.3451 0.3490 0.3765);stroke-opacity:1;" stroke-width="0.613781" stroke-linecap="round" stroke-linejoin="round"/>
<path d="M45.6154 137.805L43.1211 137.805L43.1211 140.299L45.6154 140.299L45.6154 137.805Z" fill="#E8E8E8" stroke="#585960" style="fill:#E8E8E8;fill:color(display-p3 0.9083 0.9083 0.9083);fill-opacity:1;stroke:#585960;stroke:color(display-p3 0.3451 0.3490 0.3765);stroke-opacity:1;" stroke-width="0.613781" stroke-linecap="round" stroke-linejoin="round"/>
<path d="M49.3263 137.805L46.832 137.805L46.832 140.299L49.3263 140.299L49.3263 137.805Z" fill="#E8E8E8" stroke="#585960" style="fill:#E8E8E8;fill:color(display-p3 0.9083 0.9083 0.9083);fill-opacity:1;stroke:#585960;stroke:color(display-p3 0.3451 0.3490 0.3765);stroke-opacity:1;" stroke-width="0.613781" stroke-linecap="round" stroke-linejoin="round"/>
<path d="M53.0314 137.805L50.5371 137.805L50.5371 140.299L53.0314 140.299L53.0314 137.805Z" fill="#E8E8E8" stroke="#585960" style="fill:#E8E8E8;fill:color(display-p3 0.9083 0.9083 0.9083);fill-opacity:1;stroke:#585960;stroke:color(display-p3 0.3451 0.3490 0.3765);stroke-opacity:1;" stroke-width="0.613781" stroke-linecap="round" stroke-linejoin="round"/>
<path d="M56.7482 137.799L54.2539 137.799L54.2539 140.293L56.7482 140.293L56.7482 137.799Z" fill="#E8E8E8" stroke="#585960" style="fill:#E8E8E8;fill:color(display-p3 0.9083 0.9083 0.9083);fill-opacity:1;stroke:#585960;stroke:color(display-p3 0.3451 0.3490 0.3765);stroke-opacity:1;" stroke-width="0.613781" stroke-linecap="round" stroke-linejoin="round"/>
<path d="M60.4474 137.807L57.9531 137.807L57.9531 140.301L60.4474 140.301L60.4474 137.807Z" fill="#E8E8E8" stroke="#585960" style="fill:#E8E8E8;fill:color(display-p3 0.9083 0.9083 0.9083);fill-opacity:1;stroke:#585960;stroke:color(display-p3 0.3451 0.3490 0.3765);stroke-opacity:1;" stroke-width="0.613781" stroke-linecap="round" stroke-linejoin="round"/>
<path d="M64.1622 137.809L61.668 137.809L61.668 140.303L64.1622 140.303L64.1622 137.809Z" fill="#FCCD82" stroke="#585960" style="fill:#FCCD82;fill:color(display-p3 0.9882 0.8039 0.5098);fill-opacity:1;stroke:#585960;stroke:color(display-p3 0.3451 0.3490 0.3765);stroke-opacity:1;" stroke-width="0.613781" stroke-linecap="round" stroke-linejoin="round"/>
<path d="M67.8673 137.809L65.373 137.809L65.373 140.303L67.8673 140.303L67.8673 137.809Z" fill="#FCCD82" stroke="#585960" style="fill:#FCCD82;fill:color(display-p3 0.9882 0.8039 0.5098);fill-opacity:1;stroke:#585960;stroke:color(display-p3 0.3451 0.3490 0.3765);stroke-opacity:1;" stroke-width="0.613781" stroke-linecap="round" stroke-linejoin="round"/>
<path d="M71.5763 137.809L69.082 137.809L69.082 140.303L71.5763 140.303L71.5763 137.809Z" fill="#FCCD82" stroke="#585960" style="fill:#FCCD82;fill:color(display-p3 0.9882 0.8039 0.5098);fill-opacity:1;stroke:#585960;stroke:color(display-p3 0.3451 0.3490 0.3765);stroke-opacity:1;" stroke-width="0.613781" stroke-linecap="round" stroke-linejoin="round"/>
<path d="M75.2794 137.809L72.7852 137.809L72.7852 140.303L75.2794 140.303L75.2794 137.809Z" fill="#FCCD82" stroke="#585960" style="fill:#FCCD82;fill:color(display-p3 0.9882 0.8039 0.5098);fill-opacity:1;stroke:#585960;stroke:color(display-p3 0.3451 0.3490 0.3765);stroke-opacity:1;" stroke-width="0.613781" stroke-linecap="round" stroke-linejoin="round"/>
<path opacity="0.2" d="M78.9962 137.803L76.502 137.803L76.502 140.297L78.9962 140.297L78.9962 137.803Z" fill="#585960" style="fill:#585960;fill:color(display-p3 0.3451 0.3490 0.3765);fill-opacity:1;"/>
<path d="M34.4904 129.381L31.9961 129.381L31.9961 131.875L34.4904 131.875L34.4904 129.381Z" fill="#E8E8E8" stroke="#585960" style="fill:#E8E8E8;fill:color(display-p3 0.9083 0.9083 0.9083);fill-opacity:1;stroke:#585960;stroke:color(display-p3 0.3451 0.3490 0.3765);stroke-opacity:1;" stroke-width="0.613781" stroke-linecap="round" stroke-linejoin="round"/>
<path d="M38.2072 129.381L35.7129 129.381L35.7129 131.875L38.2072 131.875L38.2072 129.381Z" fill="#E8E8E8" stroke="#585960" style="fill:#E8E8E8;fill:color(display-p3 0.9083 0.9083 0.9083);fill-opacity:1;stroke:#585960;stroke:color(display-p3 0.3451 0.3490 0.3765);stroke-opacity:1;" stroke-width="0.613781" stroke-linecap="round" stroke-linejoin="round"/>
<path d="M41.9103 129.381L39.416 129.381L39.416 131.875L41.9103 131.875L41.9103 129.381Z" fill="#E8E8E8" stroke="#585960" style="fill:#E8E8E8;fill:color(display-p3 0.9083 0.9083 0.9083);fill-opacity:1;stroke:#585960;stroke:color(display-p3 0.3451 0.3490 0.3765);stroke-opacity:1;" stroke-width="0.613781" stroke-linecap="round" stroke-linejoin="round"/>
<path d="M45.6154 129.383L43.1211 129.383L43.1211 131.877L45.6154 131.877L45.6154 129.383Z" fill="#E8E8E8" stroke="#585960" style="fill:#E8E8E8;fill:color(display-p3 0.9083 0.9083 0.9083);fill-opacity:1;stroke:#585960;stroke:color(display-p3 0.3451 0.3490 0.3765);stroke-opacity:1;" stroke-width="0.613781" stroke-linecap="round" stroke-linejoin="round"/>
<path d="M49.3263 129.383L46.832 129.383L46.832 131.877L49.3263 131.877L49.3263 129.383Z" fill="#E8E8E8" stroke="#585960" style="fill:#E8E8E8;fill:color(display-p3 0.9083 0.9083 0.9083);fill-opacity:1;stroke:#585960;stroke:color(display-p3 0.3451 0.3490 0.3765);stroke-opacity:1;" stroke-width="0.613781" stroke-linecap="round" stroke-linejoin="round"/>
<path opacity="0.2" d="M53.0314 129.383L50.5371 129.383L50.5371 131.877L53.0314 131.877L53.0314 129.383Z" fill="#585960" style="fill:#585960;fill:color(display-p3 0.3451 0.3490 0.3765);fill-opacity:1;"/>
<path opacity="0.2" d="M56.7482 129.377L54.2539 129.377L54.2539 131.871L56.7482 131.871L56.7482 129.377Z" fill="#585960" style="fill:#585960;fill:color(display-p3 0.3451 0.3490 0.3765);fill-opacity:1;"/>
<path opacity="0.2" d="M60.4474 129.385L57.9531 129.385L57.9531 131.879L60.4474 131.879L60.4474 129.385Z" fill="#585960" style="fill:#585960;fill:color(display-p3 0.3451 0.3490 0.3765);fill-opacity:1;"/>
<path opacity="0.2" d="M64.1622 129.387L61.668 129.387L61.668 131.881L64.1622 131.881L64.1622 129.387Z" fill="#585960" style="fill:#585960;fill:color(display-p3 0.3451 0.3490 0.3765);fill-opacity:1;"/>
<path opacity="0.2" d="M67.8673 129.387L65.373 129.387L65.373 131.881L67.8673 131.881L67.8673 129.387Z" fill="#585960" style="fill:#585960;fill:color(display-p3 0.3451 0.3490 0.3765);fill-opacity:1;"/>
<path opacity="0.2" d="M71.5763 129.387L69.082 129.387L69.082 131.881L71.5763 131.881L71.5763 129.387Z" fill="#585960" style="fill:#585960;fill:color(display-p3 0.3451 0.3490 0.3765);fill-opacity:1;"/>
<path opacity="0.2" d="M75.2794 129.387L72.7852 129.387L72.7852 131.881L75.2794 131.881L75.2794 129.387Z" fill="#585960" style="fill:#585960;fill:color(display-p3 0.3451 0.3490 0.3765);fill-opacity:1;"/>
<path opacity="0.2" d="M78.9962 129.381L76.502 129.381L76.502 131.875L78.9962 131.875L78.9962 129.381Z" fill="#585960" style="fill:#585960;fill:color(display-p3 0.3451 0.3490 0.3765);fill-opacity:1;"/>
<path d="M66.1527 15.0133L32.2352 15.0133C31.8914 15.0133 31.6152 14.7371 31.6152 14.3934C31.6152 14.0496 31.8914 13.7734 32.2352 13.7734L66.1527 13.7734C66.4964 13.7734 66.7726 14.0496 66.7726 14.3934C66.7726 14.7371 66.4964 15.0133 66.1527 15.0133Z" fill="white" style="fill:white;fill-opacity:1;"/>
<path d="M56.2156 22.3902L32.2352 22.3902C31.8914 22.3902 31.6152 22.114 31.6152 21.7703C31.6152 21.4266 31.8914 21.1504 32.2352 21.1504L56.2156 21.1504C56.5593 21.1504 56.8355 21.4266 56.8355 21.7703C56.8355 22.114 56.5532 22.3902 56.2094 22.3902L56.2156 22.3902Z" fill="white" style="fill:white;fill-opacity:1;"/>
<path d="M71.1224 29.7672L32.2332 29.7672C31.8895 29.7672 31.6133 29.491 31.6133 29.1473C31.6133 28.8035 31.8895 28.5273 32.2332 28.5273L71.1224 28.5273C71.4661 28.5273 71.7423 28.8035 71.7423 29.1473C71.7423 29.491 71.4661 29.7672 71.1224 29.7672Z" fill="white" style="fill:white;fill-opacity:1;"/>
<path d="M66.1488 37.1363L32.2312 37.1363C31.8875 37.1363 31.6113 36.8601 31.6113 36.5164C31.6113 36.1727 31.8875 35.8965 32.2312 35.8965L66.1488 35.8965C66.4925 35.8965 66.7687 36.1727 66.7687 36.5164C66.7687 36.8601 66.4925 37.1363 66.1488 37.1363Z" fill="white" style="fill:white;fill-opacity:1;"/>
<path opacity="0.2" d="M76.4299 12.8301L83.1017 12.8301C83.697 12.8301 84.1819 13.315 84.1819 13.9103L84.1819 14.8801C84.1819 15.4755 83.697 15.9604 83.1017 15.9604L76.4299 15.9604C75.8345 15.9604 75.3496 15.4755 75.3496 14.8801L75.3496 13.9103C75.3496 13.315 75.8345 12.8301 76.4299 12.8301Z" fill="white" style="fill:white;fill-opacity:1;"/>
<path d="M76.4299 12.8301L77.7863 12.8301C78.3817 12.8301 78.8666 13.315 78.8666 13.9103L78.8666 14.8801C78.8666 15.4755 78.3817 15.9604 77.7863 15.9604L76.4299 15.9604C75.8345 15.9604 75.3496 15.4755 75.3496 14.8801L75.3496 13.9103C75.3496 13.315 75.8345 12.8301 76.4299 12.8301Z" fill="#FFD66B" stroke="white" style="fill:#FFD66B;fill:color(display-p3 1.0000 0.8378 0.4208);fill-opacity:1;stroke:white;stroke-opacity:1;" stroke-width="0.613781" stroke-linecap="round" stroke-linejoin="round"/>
<path opacity="0.2" d="M83.1017 23.3471L76.4299 23.3471C75.8345 23.3471 75.3496 22.8622 75.3496 22.2668L75.3496 21.2971C75.3496 20.7017 75.8345 20.2168 76.4299 20.2168L83.1017 20.2168C83.697 20.2168 84.1819 20.7017 84.1819 21.2971L84.1819 22.2668C84.1819 22.8622 83.697 23.3471 83.1017 23.3471Z" fill="white" style="fill:white;fill-opacity:1;"/>
<path d="M83.0988 23.3432L81.7424 23.3432C81.147 23.3432 80.6621 22.8583 80.6621 22.2629L80.6621 21.2931C80.6621 20.6978 81.147 20.2129 81.7424 20.2129L83.0988 20.2129C83.6942 20.2129 84.1791 20.6978 84.1791 21.2931L84.1791 22.2629C84.1791 22.8583 83.6942 23.3432 83.0988 23.3432Z" fill="#585960" stroke="white" style="fill:#585960;fill:color(display-p3 0.3451 0.3490 0.3765);fill-opacity:1;stroke:white;stroke-opacity:1;" stroke-width="0.613781" stroke-linecap="round" stroke-linejoin="round"/>
<path opacity="0.2" d="M83.1017 30.7162L76.4299 30.7162C75.8345 30.7162 75.3496 30.2313 75.3496 29.636L75.3496 28.6662C75.3496 28.0708 75.8345 27.5859 76.4299 27.5859L83.1017 27.5859C83.697 27.5859 84.1819 28.0708 84.1819 28.6662L84.1819 29.636C84.1819 30.2313 83.697 30.7162 83.1017 30.7162Z" fill="white" style="fill:white;fill-opacity:1;"/>
<path d="M83.0988 30.7123L81.7424 30.7123C81.147 30.7123 80.6621 30.2274 80.6621 29.6321L80.6621 28.6623C80.6621 28.0669 81.147 27.582 81.7424 27.582L83.0988 27.582C83.6942 27.582 84.1791 28.0669 84.1791 28.6623L84.1791 29.6321C84.1791 30.2274 83.6942 30.7123 83.0988 30.7123Z" fill="#585960" stroke="white" style="fill:#585960;fill:color(display-p3 0.3451 0.3490 0.3765);fill-opacity:1;stroke:white;stroke-opacity:1;" stroke-width="0.613781" stroke-linecap="round" stroke-linejoin="round"/>
<path opacity="0.2" d="M76.4338 34.9453L83.1056 34.9453C83.7009 34.9453 84.1858 35.4302 84.1858 36.0256L84.1858 36.9953C84.1858 37.5907 83.7009 38.0756 83.1056 38.0756L76.4338 38.0756C75.8384 38.0756 75.3535 37.5907 75.3535 36.9953L75.3535 36.0256C75.3535 35.4302 75.8384 34.9453 76.4338 34.9453Z" fill="white" style="fill:white;fill-opacity:1;"/>
<path d="M76.4338 34.9453L77.7902 34.9453C78.3856 34.9453 78.8705 35.4302 78.8705 36.0256L78.8705 36.9953C78.8705 37.5907 78.3856 38.0756 77.7902 38.0756L76.4338 38.0756C75.8384 38.0756 75.3535 37.5907 75.3535 36.9953L75.3535 36.0256C75.3535 35.4302 75.8384 34.9453 76.4338 34.9453Z" fill="#FFD66B" stroke="white" style="fill:#FFD66B;fill:color(display-p3 1.0000 0.8378 0.4208);fill-opacity:1;stroke:white;stroke-opacity:1;" stroke-width="0.613781" stroke-linecap="round" stroke-linejoin="round"/>
<path opacity="0.4" d="M61.8052 16.6905L31.9263 16.6905C31.7545 16.6905 31.6133 16.5493 31.6133 16.3775C31.6133 16.2056 31.7545 16.0645 31.9263 16.0645L61.8052 16.0645C61.977 16.0645 62.1182 16.2056 62.1182 16.3775C62.1182 16.5493 61.977 16.6905 61.8052 16.6905Z" fill="white" style="fill:white;fill-opacity:1;"/>
<path opacity="0.4" d="M63.7919 24.0675L31.9244 24.0675C31.7525 24.0675 31.6113 23.9263 31.6113 23.7544C31.6113 23.5826 31.7525 23.4414 31.9244 23.4414L63.7919 23.4414C63.9637 23.4414 64.1049 23.5826 64.1049 23.7544C64.1049 23.9263 63.9637 24.0675 63.7919 24.0675Z" fill="white" style="fill:white;fill-opacity:1;"/>
<path opacity="0.4" d="M43.9154 31.4386L31.9283 31.4386C31.7564 31.4386 31.6152 31.2974 31.6152 31.1255C31.6152 30.9537 31.7564 30.8125 31.9283 30.8125L43.9154 30.8125C44.0873 30.8125 44.2284 30.9537 44.2284 31.1255C44.2284 31.2974 44.0873 31.4386 43.9154 31.4386Z" fill="white" style="fill:white;fill-opacity:1;"/>
<path opacity="0.4" d="M53.8528 38.8155L31.9224 38.8155C31.7505 38.8155 31.6094 38.6743 31.6094 38.5025C31.6094 38.3306 31.7505 38.1895 31.9224 38.1895L53.8528 38.1895C54.0247 38.1895 54.1658 38.3306 54.1658 38.5025C54.1658 38.6743 54.0247 38.8155 53.8528 38.8155Z" fill="white" style="fill:white;fill-opacity:1;"/>
<path d="M128.551 63.6832L94.6336 63.6832C94.2899 63.6832 94.0137 63.407 94.0137 63.0633C94.0137 62.7196 94.2899 62.4434 94.6336 62.4434L128.551 62.4434C128.895 62.4434 129.171 62.7196 129.171 63.0633C129.171 63.407 128.895 63.6832 128.551 63.6832Z" fill="#585960" style="fill:#585960;fill:color(display-p3 0.3451 0.3490 0.3765);fill-opacity:1;"/>
<path d="M118.614 71.0602L94.6336 71.0602C94.2899 71.0602 94.0137 70.7839 94.0137 70.4402C94.0137 70.0965 94.2899 69.8203 94.6336 69.8203L118.614 69.8203C118.958 69.8203 119.234 70.0965 119.234 70.4402C119.234 70.7839 118.952 71.0602 118.608 71.0602L118.614 71.0602Z" fill="#585960" style="fill:#585960;fill:color(display-p3 0.3451 0.3490 0.3765);fill-opacity:1;"/>
<path d="M133.521 78.4371L94.6316 78.4371C94.2879 78.4371 94.0117 78.1609 94.0117 77.8172C94.0117 77.4735 94.2879 77.1973 94.6316 77.1973L133.521 77.1973C133.865 77.1973 134.141 77.4735 134.141 77.8172C134.141 78.1609 133.865 78.4371 133.521 78.4371Z" fill="#585960" style="fill:#585960;fill:color(display-p3 0.3451 0.3490 0.3765);fill-opacity:1;"/>
<path d="M128.547 85.8062L94.6297 85.8062C94.286 85.8062 94.0098 85.53 94.0098 85.1863C94.0098 84.8426 94.286 84.5664 94.6297 84.5664L128.547 84.5664C128.891 84.5664 129.167 84.8426 129.167 85.1863C129.167 85.53 128.891 85.8062 128.547 85.8062Z" fill="#585960" style="fill:#585960;fill:color(display-p3 0.3451 0.3490 0.3765);fill-opacity:1;"/>
<path opacity="0.2" d="M138.828 61.5L145.5 61.5C146.095 61.5 146.58 61.9849 146.58 62.5803L146.58 63.55C146.58 64.1454 146.095 64.6303 145.5 64.6303L138.828 64.6303C138.233 64.6303 137.748 64.1454 137.748 63.55L137.748 62.5803C137.748 61.9849 138.233 61.5 138.828 61.5Z" fill="#585960" style="fill:#585960;fill:color(display-p3 0.3451 0.3490 0.3765);fill-opacity:1;"/>
<path d="M138.828 61.5L140.185 61.5C140.78 61.5 141.265 61.9849 141.265 62.5803L141.265 63.55C141.265 64.1454 140.78 64.6303 140.185 64.6303L138.828 64.6303C138.233 64.6303 137.748 64.1454 137.748 63.55L137.748 62.5803C137.748 61.9849 138.233 61.5 138.828 61.5Z" fill="#FFD66B" stroke="#585960" style="fill:#FFD66B;fill:color(display-p3 1.0000 0.8378 0.4208);fill-opacity:1;stroke:#585960;stroke:color(display-p3 0.3451 0.3490 0.3765);stroke-opacity:1;" stroke-width="0.613781" stroke-linecap="round" stroke-linejoin="round"/>
<path opacity="0.2" d="M145.5 72.017L138.828 72.017C138.233 72.017 137.748 71.5321 137.748 70.9367L137.748 69.967C137.748 69.3716 138.233 68.8867 138.828 68.8867L145.5 68.8867C146.095 68.8867 146.58 69.3716 146.58 69.967L146.58 70.9367C146.58 71.5321 146.095 72.017 145.5 72.017Z" fill="#585960" style="fill:#585960;fill:color(display-p3 0.3451 0.3490 0.3765);fill-opacity:1;"/>
<path d="M145.497 72.0131L144.141 72.0131C143.545 72.0131 143.061 71.5282 143.061 70.9328L143.061 69.9631C143.061 69.3677 143.545 68.8828 144.141 68.8828L145.497 68.8828C146.093 68.8828 146.578 69.3677 146.578 69.9631L146.578 70.9328C146.578 71.5282 146.093 72.0131 145.497 72.0131Z" fill="#585960" stroke="#585960" style="fill:#585960;fill:color(display-p3 0.3451 0.3490 0.3765);fill-opacity:1;stroke:#585960;stroke:color(display-p3 0.3451 0.3490 0.3765);stroke-opacity:1;" stroke-width="0.613781" stroke-linecap="round" stroke-linejoin="round"/>
<path opacity="0.2" d="M145.5 79.3861L138.828 79.3861C138.233 79.3861 137.748 78.9013 137.748 78.3059L137.748 77.3361C137.748 76.7407 138.233 76.2559 138.828 76.2559L145.5 76.2559C146.095 76.2559 146.58 76.7407 146.58 77.3361L146.58 78.3059C146.58 78.9013 146.095 79.3861 145.5 79.3861Z" fill="#585960" style="fill:#585960;fill:color(display-p3 0.3451 0.3490 0.3765);fill-opacity:1;"/>
<path d="M145.497 79.3822L144.141 79.3822C143.545 79.3822 143.061 78.8974 143.061 78.302L143.061 77.3322C143.061 76.7368 143.545 76.252 144.141 76.252L145.497 76.252C146.093 76.252 146.578 76.7368 146.578 77.3322L146.578 78.302C146.578 78.8974 146.093 79.3822 145.497 79.3822Z" fill="#585960" stroke="#585960" style="fill:#585960;fill:color(display-p3 0.3451 0.3490 0.3765);fill-opacity:1;stroke:#585960;stroke:color(display-p3 0.3451 0.3490 0.3765);stroke-opacity:1;" stroke-width="0.613781" stroke-linecap="round" stroke-linejoin="round"/>
<path opacity="0.2" d="M138.832 83.6152L145.504 83.6152C146.099 83.6152 146.584 84.1001 146.584 84.6955L146.584 85.6653C146.584 86.2606 146.099 86.7455 145.504 86.7455L138.832 86.7455C138.237 86.7455 137.752 86.2606 137.752 85.6653L137.752 84.6955C137.752 84.1001 138.237 83.6152 138.832 83.6152Z" fill="#585960" style="fill:#585960;fill:color(display-p3 0.3451 0.3490 0.3765);fill-opacity:1;"/>
<path d="M138.832 83.6152L140.189 83.6152C140.784 83.6152 141.269 84.1001 141.269 84.6955L141.269 85.6653C141.269 86.2606 140.784 86.7455 140.189 86.7455L138.832 86.7455C138.237 86.7455 137.752 86.2606 137.752 85.6653L137.752 84.6955C137.752 84.1001 138.237 83.6152 138.832 83.6152Z" fill="#FFD66B" stroke="#585960" style="fill:#FFD66B;fill:color(display-p3 1.0000 0.8378 0.4208);fill-opacity:1;stroke:#585960;stroke:color(display-p3 0.3451 0.3490 0.3765);stroke-opacity:1;" stroke-width="0.613781" stroke-linecap="round" stroke-linejoin="round"/>
<path opacity="0.4" d="M124.204 65.3604L94.3247 65.3604C94.1529 65.3604 94.0117 65.2193 94.0117 65.0474C94.0117 64.8755 94.1529 64.7344 94.3247 64.7344L124.204 64.7344C124.375 64.7344 124.517 64.8755 124.517 65.0474C124.517 65.2193 124.375 65.3604 124.204 65.3604Z" fill="#585960" style="fill:#585960;fill:color(display-p3 0.3451 0.3490 0.3765);fill-opacity:1;"/>
<path opacity="0.4" d="M126.19 72.7374L94.3228 72.7374C94.1509 72.7374 94.0098 72.5962 94.0098 72.4244C94.0098 72.2525 94.1509 72.1113 94.3228 72.1113L126.19 72.1113C126.362 72.1113 126.503 72.2525 126.503 72.4244C126.503 72.5962 126.362 72.7374 126.19 72.7374Z" fill="#585960" style="fill:#585960;fill:color(display-p3 0.3451 0.3490 0.3765);fill-opacity:1;"/>
<path opacity="0.4" d="M106.314 80.1085L94.3267 80.1085C94.1548 80.1085 94.0137 79.9673 94.0137 79.7954C94.0137 79.6236 94.1548 79.4824 94.3267 79.4824L106.314 79.4824C106.486 79.4824 106.627 79.6236 106.627 79.7954C106.627 79.9673 106.486 80.1085 106.314 80.1085Z" fill="#585960" style="fill:#585960;fill:color(display-p3 0.3451 0.3490 0.3765);fill-opacity:1;"/>
<path opacity="0.4" d="M116.251 87.4854L94.3208 87.4854C94.149 87.4854 94.0078 87.3443 94.0078 87.1724C94.0078 87.0005 94.149 86.8594 94.3208 86.8594L116.251 86.8594C116.423 86.8594 116.564 87.0005 116.564 87.1724C116.564 87.3443 116.423 87.4854 116.251 87.4854Z" fill="#585960" style="fill:#585960;fill:color(display-p3 0.3451 0.3490 0.3765);fill-opacity:1;"/>
<path d="M61.8938 99.1701L45.868 99.1701C45.5242 99.1701 45.248 98.8939 45.248 98.544C45.248 98.2003 45.5242 97.918 45.868 97.918L61.8938 97.918C62.2375 97.918 62.5137 98.1942 62.5137 98.544C62.5137 98.8877 62.2314 99.1701 61.8938 99.1701Z" fill="#585960" style="fill:#585960;fill:color(display-p3 0.3451 0.3490 0.3765);fill-opacity:1;"/>
<path opacity="0.4" d="M60.8709 100.839L46.8951 100.839C46.7232 100.839 46.582 100.698 46.582 100.526C46.582 100.354 46.7232 100.213 46.8951 100.213L60.8709 100.213C61.0427 100.213 61.1839 100.354 61.1839 100.526C61.1839 100.698 61.0427 100.839 60.8709 100.839Z" fill="#585960" style="fill:#585960;fill:color(display-p3 0.3451 0.3490 0.3765);fill-opacity:1;"/>
<path d="M53.8742 91.4359C63.2572 91.4359 70.8637 83.8295 70.8637 74.4465C70.8637 65.0635 63.2572 57.457 53.8742 57.457C44.4912 57.457 36.8848 65.0635 36.8848 74.4465C36.8848 83.8295 44.4912 91.4359 53.8742 91.4359Z" fill="#E8E8E8" style="fill:#E8E8E8;fill:color(display-p3 0.9083 0.9083 0.9083);fill-opacity:1;"/>
<path d="M53.8742 91.4359C63.2572 91.4359 70.8637 83.8295 70.8637 74.4465C70.8637 65.0635 63.2572 57.457 53.8742 57.457C44.4912 57.457 36.8848 65.0635 36.8848 74.4465C36.8848 83.8295 44.4912 91.4359 53.8742 91.4359Z" fill="url(#paint0_linear_2541_2475)" style=""/>
<path d="M53.8742 91.4359C63.2572 91.4359 70.8637 83.8295 70.8637 74.4465C70.8637 65.0635 63.2572 57.457 53.8742 57.457C44.4912 57.457 36.8848 65.0635 36.8848 74.4465C36.8848 83.8295 44.4912 91.4359 53.8742 91.4359Z" stroke="#585960" style="stroke:#585960;stroke:color(display-p3 0.3451 0.3490 0.3765);stroke-opacity:1;" stroke-width="0.613781" stroke-linecap="round" stroke-linejoin="round"/>
<path d="M55.2321 60.9536L55.232 60.9536L55.231 60.9579L53.4 68.6236C53.2614 69.1739 53.6033 69.7158 54.1417 69.8528C54.6928 69.9929 55.2361 69.6508 55.3732 69.1116L55.3733 69.1117L55.3743 69.1073L57.2053 61.4417C57.3439 60.8914 57.002 60.3494 56.4636 60.2125C55.9125 60.0723 55.3692 60.4145 55.2321 60.9536Z" fill="#FFD66B" stroke="#585960" style="fill:#FFD66B;fill:color(display-p3 1.0000 0.8378 0.4208);fill-opacity:1;stroke:#585960;stroke:color(display-p3 0.3451 0.3490 0.3765);stroke-opacity:1;" stroke-width="0.613781" stroke-linecap="round" stroke-linejoin="round"/>
<path d="M53.8795 94.2513C64.8253 94.2513 73.6985 85.378 73.6985 74.4323C73.6985 63.4865 64.8253 54.6133 53.8795 54.6133C42.9338 54.6133 34.0605 63.4865 34.0605 74.4323C34.0605 85.378 42.9338 94.2513 53.8795 94.2513Z" stroke="#585960" style="stroke:#585960;stroke:color(display-p3 0.3451 0.3490 0.3765);stroke-opacity:1;" stroke-width="1.84134" stroke-miterlimit="10" stroke-dasharray="0.82 4.1"/>
<defs>
<linearGradient id="paint0_linear_2541_2475" x1="53.8742" y1="57.457" x2="53.8742" y2="91.4359" gradientUnits="userSpaceOnUse">
<stop stop-color="#8F8F92" style="stop-color:#8F8F92;stop-color:color(display-p3 0.5608 0.5608 0.5725);stop-opacity:1;"/>
<stop offset="1" stop-color="#393A3F" style="stop-color:#393A3F;stop-color:color(display-p3 0.2235 0.2275 0.2471);stop-opacity:1;"/>
</linearGradient>
</defs>
</svg>
