<svg width="396" height="250" viewBox="0 0 396 250" fill="none" xmlns="http://www.w3.org/2000/svg">
<g clip-path="url(#clip0_2610_1252)">
<path d="M204.789 132.09H37.9512V202.285H204.789V132.09Z" fill="#FCCD82" stroke="#585960" style="fill:#FCCD82;fill:color(display-p3 0.9882 0.8039 0.5098);fill-opacity:1;stroke:#585960;stroke:color(display-p3 0.3451 0.3490 0.3765);stroke-opacity:1;" stroke-linecap="round" stroke-linejoin="round"/>
<path d="M57.1316 136.342H41.4365V145.02H57.1316V136.342Z" fill="#F3F0F0" stroke="#585960" style="fill:#F3F0F0;fill:color(display-p3 0.9529 0.9412 0.9412);fill-opacity:1;stroke:#585960;stroke:color(display-p3 0.3451 0.3490 0.3765);stroke-opacity:1;" stroke-miterlimit="10"/>
<path d="M200.926 178.654H176.204V187.332H200.926V178.654Z" fill="#F3F0F0" stroke="#585960" style="fill:#F3F0F0;fill:color(display-p3 0.9529 0.9412 0.9412);fill-opacity:1;stroke:#585960;stroke:color(display-p3 0.3451 0.3490 0.3765);stroke-opacity:1;" stroke-miterlimit="10"/>
<path d="M200.923 147.182H185.662V155.859H200.923V147.182Z" fill="#F3F0F0" stroke="#585960" style="fill:#F3F0F0;fill:color(display-p3 0.9529 0.9412 0.9412);fill-opacity:1;stroke:#585960;stroke:color(display-p3 0.3451 0.3490 0.3765);stroke-opacity:1;" stroke-miterlimit="10"/>
<path d="M57.1316 167.949H41.4365V176.627H57.1316V167.949Z" fill="#F3F0F0" stroke="#585960" style="fill:#F3F0F0;fill:color(display-p3 0.9529 0.9412 0.9412);fill-opacity:1;stroke:#585960;stroke:color(display-p3 0.3451 0.3490 0.3765);stroke-opacity:1;" stroke-miterlimit="10"/>
<path d="M54.1445 157.498H41.4365V166.176H54.1445V157.498Z" fill="#F3F0F0" stroke="#585960" style="fill:#F3F0F0;fill:color(display-p3 0.9529 0.9412 0.9412);fill-opacity:1;stroke:#585960;stroke:color(display-p3 0.3451 0.3490 0.3765);stroke-opacity:1;" stroke-miterlimit="10"/>
<path d="M50.1231 146.92H41.4365V155.598H50.1231V146.92Z" fill="#F3F0F0" stroke="#585960" style="fill:#F3F0F0;fill:color(display-p3 0.9529 0.9412 0.9412);fill-opacity:1;stroke:#585960;stroke:color(display-p3 0.3451 0.3490 0.3765);stroke-opacity:1;" stroke-miterlimit="10"/>
<path d="M61.208 146.92H52.5215V155.598H61.208V146.92Z" fill="#F3F0F0" stroke="#585960" style="fill:#F3F0F0;fill:color(display-p3 0.9529 0.9412 0.9412);fill-opacity:1;stroke:#585960;stroke:color(display-p3 0.3451 0.3490 0.3765);stroke-opacity:1;" stroke-miterlimit="10"/>
<path d="M72.2979 146.92H63.6113V155.598H72.2979V146.92Z" fill="#F3F0F0" stroke="#585960" style="fill:#F3F0F0;fill:color(display-p3 0.9529 0.9412 0.9412);fill-opacity:1;stroke:#585960;stroke:color(display-p3 0.3451 0.3490 0.3765);stroke-opacity:1;" stroke-miterlimit="10"/>
<path d="M83.3916 146.92H74.7051V155.598H83.3916V146.92Z" fill="#F3F0F0" stroke="#585960" style="fill:#F3F0F0;fill:color(display-p3 0.9529 0.9412 0.9412);fill-opacity:1;stroke:#585960;stroke:color(display-p3 0.3451 0.3490 0.3765);stroke-opacity:1;" stroke-miterlimit="10"/>
<path d="M94.4805 146.92H85.7939V155.598H94.4805V146.92Z" fill="#F3F0F0" stroke="#585960" style="fill:#F3F0F0;fill:color(display-p3 0.9529 0.9412 0.9412);fill-opacity:1;stroke:#585960;stroke:color(display-p3 0.3451 0.3490 0.3765);stroke-opacity:1;" stroke-miterlimit="10"/>
<path d="M105.579 146.92H96.8926V155.598H105.579V146.92Z" fill="#F3F0F0" stroke="#585960" style="fill:#F3F0F0;fill:color(display-p3 0.9529 0.9412 0.9412);fill-opacity:1;stroke:#585960;stroke:color(display-p3 0.3451 0.3490 0.3765);stroke-opacity:1;" stroke-miterlimit="10"/>
<path d="M116.664 146.92H107.978V155.598H116.664V146.92Z" fill="#F3F0F0" stroke="#585960" style="fill:#F3F0F0;fill:color(display-p3 0.9529 0.9412 0.9412);fill-opacity:1;stroke:#585960;stroke:color(display-p3 0.3451 0.3490 0.3765);stroke-opacity:1;" stroke-miterlimit="10"/>
<path d="M127.753 146.92H119.066V155.598H127.753V146.92Z" fill="#F3F0F0" stroke="#585960" style="fill:#F3F0F0;fill:color(display-p3 0.9529 0.9412 0.9412);fill-opacity:1;stroke:#585960;stroke:color(display-p3 0.3451 0.3490 0.3765);stroke-opacity:1;" stroke-miterlimit="10"/>
<path d="M138.847 146.92H130.16V155.598H138.847V146.92Z" fill="#F3F0F0" stroke="#585960" style="fill:#F3F0F0;fill:color(display-p3 0.9529 0.9412 0.9412);fill-opacity:1;stroke:#585960;stroke:color(display-p3 0.3451 0.3490 0.3765);stroke-opacity:1;" stroke-miterlimit="10"/>
<path d="M149.933 146.92H141.246V155.598H149.933V146.92Z" fill="#F3F0F0" stroke="#585960" style="fill:#F3F0F0;fill:color(display-p3 0.9529 0.9412 0.9412);fill-opacity:1;stroke:#585960;stroke:color(display-p3 0.3451 0.3490 0.3765);stroke-opacity:1;" stroke-miterlimit="10"/>
<path d="M161.022 146.92H152.335V155.598H161.022V146.92Z" fill="#F3F0F0" stroke="#585960" style="fill:#F3F0F0;fill:color(display-p3 0.9529 0.9412 0.9412);fill-opacity:1;stroke:#585960;stroke:color(display-p3 0.3451 0.3490 0.3765);stroke-opacity:1;" stroke-miterlimit="10"/>
<path d="M172.12 146.92H163.434V155.598H172.12V146.92Z" fill="#F3F0F0" stroke="#585960" style="fill:#F3F0F0;fill:color(display-p3 0.9529 0.9412 0.9412);fill-opacity:1;stroke:#585960;stroke:color(display-p3 0.3451 0.3490 0.3765);stroke-opacity:1;" stroke-miterlimit="10"/>
<path d="M183.205 146.92H174.519V155.598H183.205V146.92Z" fill="#F3F0F0" stroke="#585960" style="fill:#F3F0F0;fill:color(display-p3 0.9529 0.9412 0.9412);fill-opacity:1;stroke:#585960;stroke:color(display-p3 0.3451 0.3490 0.3765);stroke-opacity:1;" stroke-miterlimit="10"/>
<path d="M50.1231 189.363H41.4365V198.041H50.1231V189.363Z" fill="#F3F0F0" stroke="#585960" style="fill:#F3F0F0;fill:color(display-p3 0.9529 0.9412 0.9412);fill-opacity:1;stroke:#585960;stroke:color(display-p3 0.3451 0.3490 0.3765);stroke-opacity:1;" stroke-miterlimit="10"/>
<path d="M61.208 189.363H52.5215V198.041H61.208V189.363Z" fill="#F3F0F0" stroke="#585960" style="fill:#F3F0F0;fill:color(display-p3 0.9529 0.9412 0.9412);fill-opacity:1;stroke:#585960;stroke:color(display-p3 0.3451 0.3490 0.3765);stroke-opacity:1;" stroke-miterlimit="10"/>
<path d="M72.2979 189.363H63.6113V198.041H72.2979V189.363Z" fill="#F3F0F0" stroke="#585960" style="fill:#F3F0F0;fill:color(display-p3 0.9529 0.9412 0.9412);fill-opacity:1;stroke:#585960;stroke:color(display-p3 0.3451 0.3490 0.3765);stroke-opacity:1;" stroke-miterlimit="10"/>
<path d="M85.3083 189.363H74.7051V198.041H85.3083V189.363Z" fill="#F3F0F0" stroke="#585960" style="fill:#F3F0F0;fill:color(display-p3 0.9529 0.9412 0.9412);fill-opacity:1;stroke:#585960;stroke:color(display-p3 0.3451 0.3490 0.3765);stroke-opacity:1;" stroke-miterlimit="10"/>
<path d="M140.764 189.363H87.7119V198.041H140.764V189.363Z" fill="#F3F0F0" stroke="#585960" style="fill:#F3F0F0;fill:color(display-p3 0.9529 0.9412 0.9412);fill-opacity:1;stroke:#585960;stroke:color(display-p3 0.3451 0.3490 0.3765);stroke-opacity:1;" stroke-miterlimit="10"/>
<path d="M167.285 189.363H158.599V198.041H167.285V189.363Z" fill="#F3F0F0" stroke="#585960" style="fill:#F3F0F0;fill:color(display-p3 0.9529 0.9412 0.9412);fill-opacity:1;stroke:#585960;stroke:color(display-p3 0.3451 0.3490 0.3765);stroke-opacity:1;" stroke-miterlimit="10"/>
<path d="M178.375 189.363H169.688V198.041H178.375V189.363Z" fill="#F3F0F0" stroke="#585960" style="fill:#F3F0F0;fill:color(display-p3 0.9529 0.9412 0.9412);fill-opacity:1;stroke:#585960;stroke:color(display-p3 0.3451 0.3490 0.3765);stroke-opacity:1;" stroke-miterlimit="10"/>
<path d="M189.485 189.363H180.799V198.041H189.485V189.363Z" fill="#F3F0F0" stroke="#585960" style="fill:#F3F0F0;fill:color(display-p3 0.9529 0.9412 0.9412);fill-opacity:1;stroke:#585960;stroke:color(display-p3 0.3451 0.3490 0.3765);stroke-opacity:1;" stroke-miterlimit="10"/>
<path d="M156.425 189.363H142.936V198.041H156.425V189.363Z" fill="#F3F0F0" stroke="#585960" style="fill:#F3F0F0;fill:color(display-p3 0.9529 0.9412 0.9412);fill-opacity:1;stroke:#585960;stroke:color(display-p3 0.3451 0.3490 0.3765);stroke-opacity:1;" stroke-miterlimit="10"/>
<path d="M200.925 189.363H192.238V198.041H200.925V189.363Z" fill="#F3F0F0" stroke="#585960" style="fill:#F3F0F0;fill:color(display-p3 0.9529 0.9412 0.9412);fill-opacity:1;stroke:#585960;stroke:color(display-p3 0.3451 0.3490 0.3765);stroke-opacity:1;" stroke-miterlimit="10"/>
<path d="M65.293 157.498H56.6064V166.176H65.293V157.498Z" fill="#F3F0F0" stroke="#585960" style="fill:#F3F0F0;fill:color(display-p3 0.9529 0.9412 0.9412);fill-opacity:1;stroke:#585960;stroke:color(display-p3 0.3451 0.3490 0.3765);stroke-opacity:1;" stroke-miterlimit="10"/>
<path d="M76.378 157.498H67.6914V166.176H76.378V157.498Z" fill="#F3F0F0" stroke="#585960" style="fill:#F3F0F0;fill:color(display-p3 0.9529 0.9412 0.9412);fill-opacity:1;stroke:#585960;stroke:color(display-p3 0.3451 0.3490 0.3765);stroke-opacity:1;" stroke-miterlimit="10"/>
<path d="M87.4678 157.498H78.7812V166.176H87.4678V157.498Z" fill="#F3F0F0" stroke="#585960" style="fill:#F3F0F0;fill:color(display-p3 0.9529 0.9412 0.9412);fill-opacity:1;stroke:#585960;stroke:color(display-p3 0.3451 0.3490 0.3765);stroke-opacity:1;" stroke-miterlimit="10"/>
<path d="M98.5616 157.498H89.875V166.176H98.5616V157.498Z" fill="#F3F0F0" stroke="#585960" style="fill:#F3F0F0;fill:color(display-p3 0.9529 0.9412 0.9412);fill-opacity:1;stroke:#585960;stroke:color(display-p3 0.3451 0.3490 0.3765);stroke-opacity:1;" stroke-miterlimit="10"/>
<path d="M109.65 157.498H100.964V166.176H109.65V157.498Z" fill="#F3F0F0" stroke="#585960" style="fill:#F3F0F0;fill:color(display-p3 0.9529 0.9412 0.9412);fill-opacity:1;stroke:#585960;stroke:color(display-p3 0.3451 0.3490 0.3765);stroke-opacity:1;" stroke-miterlimit="10"/>
<path d="M120.736 157.498H112.05V166.176H120.736V157.498Z" fill="#F3F0F0" stroke="#585960" style="fill:#F3F0F0;fill:color(display-p3 0.9529 0.9412 0.9412);fill-opacity:1;stroke:#585960;stroke:color(display-p3 0.3451 0.3490 0.3765);stroke-opacity:1;" stroke-miterlimit="10"/>
<path d="M131.834 157.498H123.147V166.176H131.834V157.498Z" fill="#F3F0F0" stroke="#585960" style="fill:#F3F0F0;fill:color(display-p3 0.9529 0.9412 0.9412);fill-opacity:1;stroke:#585960;stroke:color(display-p3 0.3451 0.3490 0.3765);stroke-opacity:1;" stroke-miterlimit="10"/>
<path d="M142.923 157.498H134.236V166.176H142.923V157.498Z" fill="#F3F0F0" stroke="#585960" style="fill:#F3F0F0;fill:color(display-p3 0.9529 0.9412 0.9412);fill-opacity:1;stroke:#585960;stroke:color(display-p3 0.3451 0.3490 0.3765);stroke-opacity:1;" stroke-miterlimit="10"/>
<path d="M154.017 157.498H145.33V166.176H154.017V157.498Z" fill="#F3F0F0" stroke="#585960" style="fill:#F3F0F0;fill:color(display-p3 0.9529 0.9412 0.9412);fill-opacity:1;stroke:#585960;stroke:color(display-p3 0.3451 0.3490 0.3765);stroke-opacity:1;" stroke-miterlimit="10"/>
<path d="M165.103 157.498H156.416V166.176H165.103V157.498Z" fill="#F3F0F0" stroke="#585960" style="fill:#F3F0F0;fill:color(display-p3 0.9529 0.9412 0.9412);fill-opacity:1;stroke:#585960;stroke:color(display-p3 0.3451 0.3490 0.3765);stroke-opacity:1;" stroke-miterlimit="10"/>
<path d="M176.191 157.498H167.505V166.176H176.191V157.498Z" fill="#F3F0F0" stroke="#585960" style="fill:#F3F0F0;fill:color(display-p3 0.9529 0.9412 0.9412);fill-opacity:1;stroke:#585960;stroke:color(display-p3 0.3451 0.3490 0.3765);stroke-opacity:1;" stroke-miterlimit="10"/>
<path d="M187.29 157.498H178.604V166.176H187.29V157.498Z" fill="#F3F0F0" stroke="#585960" style="fill:#F3F0F0;fill:color(display-p3 0.9529 0.9412 0.9412);fill-opacity:1;stroke:#585960;stroke:color(display-p3 0.3451 0.3490 0.3765);stroke-opacity:1;" stroke-miterlimit="10"/>
<path d="M200.921 157.498V176.761H192.234V166.176H189.688V157.498H200.921Z" fill="#F3F0F0" stroke="#585960" style="fill:#F3F0F0;fill:color(display-p3 0.9529 0.9412 0.9412);fill-opacity:1;stroke:#585960;stroke:color(display-p3 0.3451 0.3490 0.3765);stroke-opacity:1;" stroke-miterlimit="10"/>
<path d="M67.8379 168.076H59.1514V176.754H67.8379V168.076Z" fill="#F3F0F0" stroke="#585960" style="fill:#F3F0F0;fill:color(display-p3 0.9529 0.9412 0.9412);fill-opacity:1;stroke:#585960;stroke:color(display-p3 0.3451 0.3490 0.3765);stroke-opacity:1;" stroke-miterlimit="10"/>
<path d="M78.9317 168.076H70.2451V176.754H78.9317V168.076Z" fill="#F3F0F0" stroke="#585960" style="fill:#F3F0F0;fill:color(display-p3 0.9529 0.9412 0.9412);fill-opacity:1;stroke:#585960;stroke:color(display-p3 0.3451 0.3490 0.3765);stroke-opacity:1;" stroke-miterlimit="10"/>
<path d="M90.0215 168.076H81.335V176.754H90.0215V168.076Z" fill="#F3F0F0" stroke="#585960" style="fill:#F3F0F0;fill:color(display-p3 0.9529 0.9412 0.9412);fill-opacity:1;stroke:#585960;stroke:color(display-p3 0.3451 0.3490 0.3765);stroke-opacity:1;" stroke-miterlimit="10"/>
<path d="M101.106 168.076H92.4199V176.754H101.106V168.076Z" fill="#F3F0F0" stroke="#585960" style="fill:#F3F0F0;fill:color(display-p3 0.9529 0.9412 0.9412);fill-opacity:1;stroke:#585960;stroke:color(display-p3 0.3451 0.3490 0.3765);stroke-opacity:1;" stroke-miterlimit="10"/>
<path d="M112.208 168.076H103.521V176.754H112.208V168.076Z" fill="#F3F0F0" stroke="#585960" style="fill:#F3F0F0;fill:color(display-p3 0.9529 0.9412 0.9412);fill-opacity:1;stroke:#585960;stroke:color(display-p3 0.3451 0.3490 0.3765);stroke-opacity:1;" stroke-miterlimit="10"/>
<path d="M123.294 168.076H114.607V176.754H123.294V168.076Z" fill="#F3F0F0" stroke="#585960" style="fill:#F3F0F0;fill:color(display-p3 0.9529 0.9412 0.9412);fill-opacity:1;stroke:#585960;stroke:color(display-p3 0.3451 0.3490 0.3765);stroke-opacity:1;" stroke-miterlimit="10"/>
<path d="M134.379 168.076H125.692V176.754H134.379V168.076Z" fill="#F3F0F0" stroke="#585960" style="fill:#F3F0F0;fill:color(display-p3 0.9529 0.9412 0.9412);fill-opacity:1;stroke:#585960;stroke:color(display-p3 0.3451 0.3490 0.3765);stroke-opacity:1;" stroke-miterlimit="10"/>
<path d="M145.48 168.076H136.794V176.754H145.48V168.076Z" fill="#F3F0F0" stroke="#585960" style="fill:#F3F0F0;fill:color(display-p3 0.9529 0.9412 0.9412);fill-opacity:1;stroke:#585960;stroke:color(display-p3 0.3451 0.3490 0.3765);stroke-opacity:1;" stroke-miterlimit="10"/>
<path d="M156.562 168.076H147.875V176.754H156.562V168.076Z" fill="#F3F0F0" stroke="#585960" style="fill:#F3F0F0;fill:color(display-p3 0.9529 0.9412 0.9412);fill-opacity:1;stroke:#585960;stroke:color(display-p3 0.3451 0.3490 0.3765);stroke-opacity:1;" stroke-miterlimit="10"/>
<path d="M167.655 168.076H158.969V176.754H167.655V168.076Z" fill="#F3F0F0" stroke="#585960" style="fill:#F3F0F0;fill:color(display-p3 0.9529 0.9412 0.9412);fill-opacity:1;stroke:#585960;stroke:color(display-p3 0.3451 0.3490 0.3765);stroke-opacity:1;" stroke-miterlimit="10"/>
<path d="M178.749 168.076H170.062V176.754H178.749V168.076Z" fill="#F3F0F0" stroke="#585960" style="fill:#F3F0F0;fill:color(display-p3 0.9529 0.9412 0.9412);fill-opacity:1;stroke:#585960;stroke:color(display-p3 0.3451 0.3490 0.3765);stroke-opacity:1;" stroke-miterlimit="10"/>
<path d="M189.835 168.076H181.148V176.754H189.835V168.076Z" fill="#F3F0F0" stroke="#585960" style="fill:#F3F0F0;fill:color(display-p3 0.9529 0.9412 0.9412);fill-opacity:1;stroke:#585960;stroke:color(display-p3 0.3451 0.3490 0.3765);stroke-opacity:1;" stroke-miterlimit="10"/>
<path d="M63.126 178.654H54.4395V187.332H63.126V178.654Z" fill="#F3F0F0" stroke="#585960" style="fill:#F3F0F0;fill:color(display-p3 0.9529 0.9412 0.9412);fill-opacity:1;stroke:#585960;stroke:color(display-p3 0.3451 0.3490 0.3765);stroke-opacity:1;" stroke-miterlimit="10"/>
<path d="M74.211 178.654H65.5244V187.332H74.211V178.654Z" fill="#F3F0F0" stroke="#585960" style="fill:#F3F0F0;fill:color(display-p3 0.9529 0.9412 0.9412);fill-opacity:1;stroke:#585960;stroke:color(display-p3 0.3451 0.3490 0.3765);stroke-opacity:1;" stroke-miterlimit="10"/>
<path d="M85.3008 178.654H76.6143V187.332H85.3008V178.654Z" fill="#F3F0F0" stroke="#585960" style="fill:#F3F0F0;fill:color(display-p3 0.9529 0.9412 0.9412);fill-opacity:1;stroke:#585960;stroke:color(display-p3 0.3451 0.3490 0.3765);stroke-opacity:1;" stroke-miterlimit="10"/>
<path d="M96.3946 178.654H87.708V187.332H96.3946V178.654Z" fill="#F3F0F0" stroke="#585960" style="fill:#F3F0F0;fill:color(display-p3 0.9529 0.9412 0.9412);fill-opacity:1;stroke:#585960;stroke:color(display-p3 0.3451 0.3490 0.3765);stroke-opacity:1;" stroke-miterlimit="10"/>
<path d="M107.483 178.654H98.7969V187.332H107.483V178.654Z" fill="#F3F0F0" stroke="#585960" style="fill:#F3F0F0;fill:color(display-p3 0.9529 0.9412 0.9412);fill-opacity:1;stroke:#585960;stroke:color(display-p3 0.3451 0.3490 0.3765);stroke-opacity:1;" stroke-miterlimit="10"/>
<path d="M118.569 178.654H109.883V187.332H118.569V178.654Z" fill="#F3F0F0" stroke="#585960" style="fill:#F3F0F0;fill:color(display-p3 0.9529 0.9412 0.9412);fill-opacity:1;stroke:#585960;stroke:color(display-p3 0.3451 0.3490 0.3765);stroke-opacity:1;" stroke-miterlimit="10"/>
<path d="M129.667 178.654H120.98V187.332H129.667V178.654Z" fill="#F3F0F0" stroke="#585960" style="fill:#F3F0F0;fill:color(display-p3 0.9529 0.9412 0.9412);fill-opacity:1;stroke:#585960;stroke:color(display-p3 0.3451 0.3490 0.3765);stroke-opacity:1;" stroke-miterlimit="10"/>
<path d="M140.756 178.654H132.069V187.332H140.756V178.654Z" fill="#F3F0F0" stroke="#585960" style="fill:#F3F0F0;fill:color(display-p3 0.9529 0.9412 0.9412);fill-opacity:1;stroke:#585960;stroke:color(display-p3 0.3451 0.3490 0.3765);stroke-opacity:1;" stroke-miterlimit="10"/>
<path d="M151.85 178.654H143.163V187.332H151.85V178.654Z" fill="#F3F0F0" stroke="#585960" style="fill:#F3F0F0;fill:color(display-p3 0.9529 0.9412 0.9412);fill-opacity:1;stroke:#585960;stroke:color(display-p3 0.3451 0.3490 0.3765);stroke-opacity:1;" stroke-miterlimit="10"/>
<path d="M162.936 178.654H154.249V187.332H162.936V178.654Z" fill="#F3F0F0" stroke="#585960" style="fill:#F3F0F0;fill:color(display-p3 0.9529 0.9412 0.9412);fill-opacity:1;stroke:#585960;stroke:color(display-p3 0.3451 0.3490 0.3765);stroke-opacity:1;" stroke-miterlimit="10"/>
<path d="M174.024 178.654H165.338V187.332H174.024V178.654Z" fill="#F3F0F0" stroke="#585960" style="fill:#F3F0F0;fill:color(display-p3 0.9529 0.9412 0.9412);fill-opacity:1;stroke:#585960;stroke:color(display-p3 0.3451 0.3490 0.3765);stroke-opacity:1;" stroke-miterlimit="10"/>
<path d="M67.8379 136.863H59.1514V145.541H67.8379V136.863Z" fill="#F3F0F0" stroke="#585960" style="fill:#F3F0F0;fill:color(display-p3 0.9529 0.9412 0.9412);fill-opacity:1;stroke:#585960;stroke:color(display-p3 0.3451 0.3490 0.3765);stroke-opacity:1;" stroke-miterlimit="10"/>
<path d="M78.9317 136.863H70.2451V145.541H78.9317V136.863Z" fill="#F3F0F0" stroke="#585960" style="fill:#F3F0F0;fill:color(display-p3 0.9529 0.9412 0.9412);fill-opacity:1;stroke:#585960;stroke:color(display-p3 0.3451 0.3490 0.3765);stroke-opacity:1;" stroke-miterlimit="10"/>
<path d="M90.0215 136.863H81.335V145.541H90.0215V136.863Z" fill="#F3F0F0" stroke="#585960" style="fill:#F3F0F0;fill:color(display-p3 0.9529 0.9412 0.9412);fill-opacity:1;stroke:#585960;stroke:color(display-p3 0.3451 0.3490 0.3765);stroke-opacity:1;" stroke-miterlimit="10"/>
<path d="M101.106 136.863H92.4199V145.541H101.106V136.863Z" fill="#F3F0F0" stroke="#585960" style="fill:#F3F0F0;fill:color(display-p3 0.9529 0.9412 0.9412);fill-opacity:1;stroke:#585960;stroke:color(display-p3 0.3451 0.3490 0.3765);stroke-opacity:1;" stroke-miterlimit="10"/>
<path d="M112.208 136.863H103.521V145.541H112.208V136.863Z" fill="#F3F0F0" stroke="#585960" style="fill:#F3F0F0;fill:color(display-p3 0.9529 0.9412 0.9412);fill-opacity:1;stroke:#585960;stroke:color(display-p3 0.3451 0.3490 0.3765);stroke-opacity:1;" stroke-miterlimit="10"/>
<path d="M123.294 136.863H114.607V145.541H123.294V136.863Z" fill="#F3F0F0" stroke="#585960" style="fill:#F3F0F0;fill:color(display-p3 0.9529 0.9412 0.9412);fill-opacity:1;stroke:#585960;stroke:color(display-p3 0.3451 0.3490 0.3765);stroke-opacity:1;" stroke-miterlimit="10"/>
<path d="M134.379 136.863H125.692V145.541H134.379V136.863Z" fill="#F3F0F0" stroke="#585960" style="fill:#F3F0F0;fill:color(display-p3 0.9529 0.9412 0.9412);fill-opacity:1;stroke:#585960;stroke:color(display-p3 0.3451 0.3490 0.3765);stroke-opacity:1;" stroke-miterlimit="10"/>
<path d="M145.48 136.863H136.794V145.541H145.48V136.863Z" fill="#F3F0F0" stroke="#585960" style="fill:#F3F0F0;fill:color(display-p3 0.9529 0.9412 0.9412);fill-opacity:1;stroke:#585960;stroke:color(display-p3 0.3451 0.3490 0.3765);stroke-opacity:1;" stroke-miterlimit="10"/>
<path d="M156.562 136.863H147.875V145.541H156.562V136.863Z" fill="#F3F0F0" stroke="#585960" style="fill:#F3F0F0;fill:color(display-p3 0.9529 0.9412 0.9412);fill-opacity:1;stroke:#585960;stroke:color(display-p3 0.3451 0.3490 0.3765);stroke-opacity:1;" stroke-miterlimit="10"/>
<path d="M167.655 136.863H158.969V145.541H167.655V136.863Z" fill="#F3F0F0" stroke="#585960" style="fill:#F3F0F0;fill:color(display-p3 0.9529 0.9412 0.9412);fill-opacity:1;stroke:#585960;stroke:color(display-p3 0.3451 0.3490 0.3765);stroke-opacity:1;" stroke-miterlimit="10"/>
<path d="M178.749 136.863H170.062V145.541H178.749V136.863Z" fill="#F3F0F0" stroke="#585960" style="fill:#F3F0F0;fill:color(display-p3 0.9529 0.9412 0.9412);fill-opacity:1;stroke:#585960;stroke:color(display-p3 0.3451 0.3490 0.3765);stroke-opacity:1;" stroke-miterlimit="10"/>
<path d="M189.835 136.863H181.148V145.541H189.835V136.863Z" fill="#F3F0F0" stroke="#585960" style="fill:#F3F0F0;fill:color(display-p3 0.9529 0.9412 0.9412);fill-opacity:1;stroke:#585960;stroke:color(display-p3 0.3451 0.3490 0.3765);stroke-opacity:1;" stroke-miterlimit="10"/>
<path d="M200.928 136.863H192.241V145.541H200.928V136.863Z" fill="#F3F0F0" stroke="#585960" style="fill:#F3F0F0;fill:color(display-p3 0.9529 0.9412 0.9412);fill-opacity:1;stroke:#585960;stroke:color(display-p3 0.3451 0.3490 0.3765);stroke-opacity:1;" stroke-miterlimit="10"/>
<path d="M51.9674 178.654H41.4365V187.332H51.9674V178.654Z" fill="#F3F0F0" stroke="#585960" style="fill:#F3F0F0;fill:color(display-p3 0.9529 0.9412 0.9412);fill-opacity:1;stroke:#585960;stroke:color(display-p3 0.3451 0.3490 0.3765);stroke-opacity:1;" stroke-miterlimit="10"/>
<path d="M37.9512 132.532L41.4374 131.369H202.518L204.818 132.518L37.9512 132.532Z" fill="#585960" style="fill:#585960;fill:color(display-p3 0.3451 0.3490 0.3765);fill-opacity:1;"/>
<path d="M184.041 215.694L184.128 183.758C184.475 182.464 184.757 177.724 185.495 174.422C186.746 168.888 181.806 162.211 181.452 161.995C180.063 161.128 177.119 161.142 177.119 161.142C177.119 161.142 174.248 157.84 171.644 156.8C169.055 155.766 166.104 156.113 166.104 156.113C166.104 156.113 162.813 153.346 159.522 152.132C156.231 150.925 153.982 153.18 153.982 153.18L150.748 158.216C149.794 159.697 149.931 161.684 151.19 162.927C152.737 164.451 154.719 163.736 155.717 163.736C157.106 163.736 157.62 162.175 157.62 162.175C157.62 162.175 157.96 170.311 157.62 171.344H157.612C157.258 172.385 154.669 174.805 154.669 174.805L146.018 163.36C143.508 160.051 139.957 154.292 138.229 150.521C137.975 149.971 137.664 149.451 137.252 149.003C135.733 147.284 132.486 146.785 131.64 149.964C131.415 150.817 131.495 152.197 131.777 153.028C135.401 163.707 140.008 171.778 144.203 180.188C146.705 185.181 145.772 185.123 147.016 187.378C146.872 187.479 146.937 187.667 146.785 187.753C146.17 190.181 145.751 192.616 145.136 195.044C144.55 192.132 143.762 188.873 142.366 186.243C142.648 184.545 142.915 182.818 142.742 181.099C142.575 179.379 141.917 177.652 140.601 176.539C139.921 175.969 139.002 175.622 138.077 175.557C136.71 175.456 135.502 176.453 135.299 177.804C135.104 179.09 134.93 180.651 134.569 181.713C133.477 185.008 132.573 186.503 132.573 186.626C132.573 189.849 134.569 189.321 136.023 202.291C137.151 212.392 150.17 219.061 157.258 226.352L164.809 250.087C173.575 246.576 181.965 242.081 190.015 236.865L184.019 215.687L184.041 215.694Z" fill="#E8E8E8" style="fill:#E8E8E8;fill:color(display-p3 0.9083 0.9083 0.9083);fill-opacity:1;"/>
<path d="M134.779 184.348C133.94 185.012 133.224 185.822 132.66 186.732L134.779 184.348Z" fill="#F3F0F0" style="fill:#F3F0F0;fill:color(display-p3 0.9529 0.9412 0.9412);fill-opacity:1;"/>
<path d="M164.836 250.088L157.285 226.353C150.197 219.062 137.178 212.386 136.05 202.292C134.596 189.322 132.6 189.85 132.6 186.627C132.6 186.512 133.504 185.009 134.596 181.714C134.951 180.645 135.131 179.084 135.327 177.805C135.529 176.454 136.737 175.457 138.104 175.558C139.023 175.623 139.948 175.97 140.628 176.54C141.945 177.653 142.61 179.387 142.769 181.1C142.943 182.819 142.668 184.539 142.393 186.244C143.789 188.874 144.577 192.126 145.163 195.045C145.778 192.617 146.198 190.182 146.812 187.754C146.964 187.66 146.899 187.473 147.044 187.379C145.8 185.124 146.726 185.182 144.23 180.189C140.028 171.779 135.421 163.708 131.804 153.029C131.515 152.205 131.443 150.818 131.667 149.965C132.513 146.786 135.761 147.292 137.28 149.004C137.692 149.452 137.996 149.973 138.256 150.522C139.992 154.293 143.543 160.052 146.046 163.361L154.696 174.806C154.696 174.806 157.278 172.386 157.64 171.353H157.647C157.987 170.312 157.647 162.176 157.647 162.176C157.647 162.176 157.126 163.737 155.745 163.737C154.747 163.737 152.765 164.445 151.217 162.928C149.959 161.692 149.821 159.705 150.776 158.217L154.009 153.181C154.009 153.181 156.258 150.934 159.549 152.14C162.84 153.354 166.131 156.121 166.131 156.121C166.131 156.121 169.082 155.775 171.671 156.808C174.275 157.856 177.147 161.15 177.147 161.15C177.147 161.15 180.098 161.136 181.479 162.003C181.826 162.22 186.773 168.889 185.522 174.431C184.777 177.733 184.502 182.473 184.155 183.766L184.068 215.702L190.064 236.88" stroke="#585960" style="stroke:#585960;stroke:color(display-p3 0.3451 0.3490 0.3765);stroke-opacity:1;" stroke-miterlimit="10"/>
<path d="M166.898 157.248C168.179 161.959 168.837 166.836 168.873 171.713C168.873 172.53 168.873 173.368 169.133 174.141C169.394 174.914 169.994 175.63 170.79 175.796" stroke="#585960" style="stroke:#585960;stroke:color(display-p3 0.3451 0.3490 0.3765);stroke-opacity:1;" stroke-miterlimit="10"/>
<path d="M177.124 162.002C179.272 166.525 177.073 176.626 177.233 177.342C177.392 178.05 177.804 178.743 178.448 179.076" stroke="#585960" style="stroke:#585960;stroke:color(display-p3 0.3451 0.3490 0.3765);stroke-opacity:1;" stroke-miterlimit="10"/>
<path d="M158.486 156.629C158.232 158.066 158.023 159.735 157.769 161.173C156.091 159.743 155.021 157.618 154.869 155.422" stroke="#585960" style="stroke:#585960;stroke:color(display-p3 0.3451 0.3490 0.3765);stroke-opacity:1;" stroke-miterlimit="10"/>
<path d="M144.626 195.184C144.105 195.415 143.584 195.639 143.063 195.87" stroke="#585960" style="stroke:#585960;stroke:color(display-p3 0.3451 0.3490 0.3765);stroke-opacity:1;" stroke-miterlimit="10"/>
<path d="M145.027 196.434C144.774 197.633 144.767 198.883 145.013 200.09" stroke="#585960" style="stroke:#585960;stroke:color(display-p3 0.3451 0.3490 0.3765);stroke-opacity:1;" stroke-miterlimit="10"/>
<path d="M154.161 182.93C154.74 183.97 155.318 185.003 155.89 186.044" stroke="#585960" style="stroke:#585960;stroke:color(display-p3 0.3451 0.3490 0.3765);stroke-opacity:1;" stroke-miterlimit="10"/>
<path d="M157.491 171.533C158.063 170.724 158.641 169.915 159.213 169.105" stroke="#585960" style="stroke:#585960;stroke:color(display-p3 0.3451 0.3490 0.3765);stroke-opacity:1;" stroke-miterlimit="10"/>
<path d="M181.703 182.93C181.53 183.566 181.356 184.201 181.183 184.83" stroke="#585960" style="stroke:#585960;stroke:color(display-p3 0.3451 0.3490 0.3765);stroke-opacity:1;" stroke-miterlimit="10"/>
<path d="M177.499 177.725C178.005 176.106 178.512 174.488 179.025 172.869" stroke="#585960" style="stroke:#585960;stroke:color(display-p3 0.3451 0.3490 0.3765);stroke-opacity:1;" stroke-miterlimit="10"/>
<path d="M182.582 169.116C183.472 168.596 184.774 169 185.215 169.932" stroke="#585960" style="stroke:#585960;stroke:color(display-p3 0.3451 0.3490 0.3765);stroke-opacity:1;" stroke-miterlimit="10"/>
<path d="M172.188 160.82C173.382 160.473 174.749 160.783 175.675 161.614" stroke="#585960" style="stroke:#585960;stroke:color(display-p3 0.3451 0.3490 0.3765);stroke-opacity:1;" stroke-miterlimit="10"/>
<path d="M139.974 165.633C141.087 164.398 142.809 163.747 144.458 163.942" stroke="#585960" style="stroke:#585960;stroke:color(display-p3 0.3451 0.3490 0.3765);stroke-opacity:1;" stroke-miterlimit="10"/>
<path d="M133.448 152.01C134.483 151.251 135.828 150.941 137.094 151.157" stroke="#585960" style="stroke:#585960;stroke:color(display-p3 0.3451 0.3490 0.3765);stroke-opacity:1;" stroke-miterlimit="10"/>
<path d="M134.788 184.348C133.949 185.012 133.233 185.822 132.669 186.732" stroke="#585960" style="stroke:#585960;stroke:color(display-p3 0.3451 0.3490 0.3765);stroke-opacity:1;" stroke-miterlimit="10"/>
<path d="M135.484 181.059C136.627 180.243 138.45 182.071 139.499 181.139C139.918 180.77 139.947 180.127 139.853 179.571C139.759 179.014 139.564 178.465 139.643 177.916" stroke="#585960" style="stroke:#585960;stroke:color(display-p3 0.3451 0.3490 0.3765);stroke-opacity:1;" stroke-miterlimit="10"/>
<path d="M167.732 176.051C169.121 178.898 169.41 182.265 168.528 185.314" stroke="#585960" style="stroke:#585960;stroke:color(display-p3 0.3451 0.3490 0.3765);stroke-opacity:1;" stroke-miterlimit="10"/>
<path d="M176.131 180.504C176.363 181.855 176.095 183.293 175.408 184.478" stroke="#585960" style="stroke:#585960;stroke:color(display-p3 0.3451 0.3490 0.3765);stroke-opacity:1;" stroke-miterlimit="10"/>
<path d="M104.148 178.078C103.837 176.647 101.805 176.857 101.805 176.857C94.9699 177.261 94.0513 187.962 94.0513 187.962L91.6066 195.289L90.84 184.263L90.9195 170.05C90.9195 170.05 92.9881 156.452 92.0623 154.313C91.151 152.175 89.2343 152.247 89.2343 152.247C85.2563 151.25 85.0248 156.98 85.0248 156.98L81.6688 168.67L80.2946 181.279L79.1518 180.665C79.1518 180.665 78.6094 167.29 78.8408 167.066C79.0723 166.835 80.4537 157.818 80.4537 157.818C80.4537 157.818 81.2132 156.141 82.1317 153.996C83.043 151.857 82.1317 150.173 82.1317 150.173C80.5188 146.886 77.1628 148.417 76.4757 150.173C75.7886 151.929 73.72 155.368 73.72 155.368L69.8866 165.838C70.0313 168.201 68.6715 179.891 68.6715 179.891L67.2973 179.263L65.0768 172.399L66.7621 165.368C66.7621 165.368 70.4291 161.322 69.8216 158.952C69.2068 156.589 66.075 157.276 66.075 157.276L59.8042 164.761H57.9598L53.6057 170.267C52.4267 173.822 51.8336 177.529 51.8336 181.25C51.8336 183.685 52.0868 186.134 52.6076 188.54L53.6057 193.186V223.215C53.6057 223.215 50.6258 228.027 50.6258 228.483C50.6258 228.692 49.3962 232.485 47.6748 237.218C55.1752 241.626 61.6341 245.036 66.2124 246.835C68.3678 247.688 70.5376 248.497 72.7219 249.27C75.4703 241.561 78.6817 233.309 80.4537 231.387C83.9688 227.565 90.8472 220.231 90.8472 220.231C90.8472 220.231 98.6731 207.681 99.5844 203.511C100.344 200.087 102.181 193.873 102.81 191.734C102.955 191.257 103.02 190.744 102.991 190.238C102.94 189.111 102.825 186.922 102.825 184.985C102.825 182.233 104.459 179.48 104.156 178.056L104.148 178.078Z" fill="#E8E8E8" style="fill:#E8E8E8;fill:color(display-p3 0.9083 0.9083 0.9083);fill-opacity:1;"/>
<path d="M47.6582 237.236C49.3796 232.503 50.6092 228.71 50.6092 228.5C50.6092 228.045 53.5891 223.233 53.5891 223.233V193.204L52.5909 188.558C52.0702 186.152 51.817 183.702 51.817 181.267C51.817 177.546 52.4101 173.847 53.5891 170.285L57.9432 164.779H59.7875L66.0584 157.293C66.0584 157.293 69.1902 156.607 69.8049 158.97C70.4197 161.347 66.7455 165.386 66.7455 165.386L65.0602 172.416L67.2807 179.28L68.6549 179.909C68.6549 179.909 70.0147 168.218 69.87 165.856L73.7034 155.386C73.7034 155.386 75.772 151.947 76.4591 150.191C77.1462 148.435 80.5094 146.903 82.1151 150.191C82.1151 150.191 83.0264 151.867 82.1151 154.013C81.1966 156.152 80.4371 157.835 80.4371 157.835C80.4371 157.835 79.0629 166.853 78.8242 167.084C78.5928 167.308 79.1352 180.682 79.1352 180.682L80.278 181.296L81.6522 168.688L85.0082 156.997C85.0082 156.997 85.2397 151.267 89.2177 152.265C89.2177 152.265 91.1271 152.185 92.0457 154.331C92.9643 156.463 90.9029 170.068 90.9029 170.068L90.8234 184.28L91.59 195.306L94.0347 187.98C94.0347 187.98 94.9533 177.279 101.788 176.874C101.788 176.874 103.821 176.665 104.132 178.095C104.435 179.519 102.801 182.272 102.801 185.025C102.801 186.954 102.909 189.143 102.967 190.278C102.996 190.783 102.938 191.289 102.786 191.773C102.15 193.905 100.32 200.126 99.5605 203.551C98.6492 207.727 90.8234 220.27 90.8234 220.27C90.8234 220.27 83.945 227.604 80.4299 231.426C78.6578 233.348 75.4465 241.6 72.698 249.309" stroke="#585960" style="stroke:#585960;stroke:color(display-p3 0.3451 0.3490 0.3765);stroke-opacity:1;" stroke-miterlimit="10"/>
<path d="M68.5329 181.039C68.9307 182.462 68.5329 184.081 67.5059 185.158Z" fill="#F3F0F0" style="fill:#F3F0F0;fill:color(display-p3 0.9529 0.9412 0.9412);fill-opacity:1;"/>
<path d="M68.5329 181.039C68.9307 182.462 68.5329 184.081 67.5059 185.158" stroke="#585960" style="stroke:#585960;stroke:color(display-p3 0.3451 0.3490 0.3765);stroke-opacity:1;" stroke-miterlimit="10"/>
<path d="M56.8633 191.145C57.8614 189.606 58.8234 187.497 58.5557 185.683C58.035 182.135 56.4148 178.053 57.1454 174.541C57.6083 172.301 58.0784 170.054 58.5413 167.814" fill="#F3F0F0" style="fill:#F3F0F0;fill:color(display-p3 0.9529 0.9412 0.9412);fill-opacity:1;"/>
<path d="M56.8633 191.145C57.8614 189.606 58.8234 187.497 58.5557 185.683C58.035 182.135 56.4148 178.053 57.1454 174.541C57.6083 172.301 58.0784 170.054 58.5413 167.814" stroke="#585960" style="stroke:#585960;stroke:color(display-p3 0.3451 0.3490 0.3765);stroke-opacity:1;" stroke-miterlimit="10"/>
<path d="M85.7061 157.63C86.885 157.319 88.1363 157.326 89.3152 157.637C89.3297 157.305 89.3441 156.965 89.3586 156.633" stroke="#585960" style="stroke:#585960;stroke:color(display-p3 0.3451 0.3490 0.3765);stroke-opacity:1;" stroke-miterlimit="10"/>
<path d="M76.2061 153.125C76.9004 153.623 77.8768 153.688 78.629 153.291C79.3812 152.893 79.8803 152.048 79.8586 151.195" stroke="#585960" style="stroke:#585960;stroke:color(display-p3 0.3451 0.3490 0.3765);stroke-opacity:1;" stroke-miterlimit="10"/>
<path d="M102.352 178.207C100.349 178.662 98.8444 180.736 99.0325 182.781C99.6256 182.954 100.211 183.135 100.805 183.308" stroke="#585960" style="stroke:#585960;stroke:color(display-p3 0.3451 0.3490 0.3765);stroke-opacity:1;" stroke-miterlimit="10"/>
<path d="M79.0699 179.082C79.1494 180.296 79.0048 183.193 79.0843 184.4Z" fill="#F3F0F0" style="fill:#F3F0F0;fill:color(display-p3 0.9529 0.9412 0.9412);fill-opacity:1;"/>
<path d="M79.0699 179.082C79.1494 180.296 79.0048 183.193 79.0843 184.4" stroke="#585960" style="stroke:#585960;stroke:color(display-p3 0.3451 0.3490 0.3765);stroke-opacity:1;" stroke-miterlimit="10"/>
<path d="M80.4109 180.762C80.2663 182.749 80.1216 184.736 79.9697 186.715C79.9842 186.463 79.9914 186.21 80.0059 185.957" fill="#F3F0F0" style="fill:#F3F0F0;fill:color(display-p3 0.9529 0.9412 0.9412);fill-opacity:1;"/>
<path d="M80.4109 180.762C80.2663 182.749 80.1216 184.736 79.9697 186.715C79.9842 186.463 79.9914 186.21 80.0059 185.957" stroke="#585960" style="stroke:#585960;stroke:color(display-p3 0.3451 0.3490 0.3765);stroke-opacity:1;" stroke-miterlimit="10"/>
<path d="M91.4412 197.51C91.9692 199.685 91.7305 202.033 90.7686 204.056Z" fill="#F3F0F0" style="fill:#F3F0F0;fill:color(display-p3 0.9529 0.9412 0.9412);fill-opacity:1;"/>
<path d="M91.4412 197.51C91.9692 199.685 91.7305 202.033 90.7686 204.056" stroke="#585960" style="stroke:#585960;stroke:color(display-p3 0.3451 0.3490 0.3765);stroke-opacity:1;" stroke-miterlimit="10"/>
<path d="M73.1032 187.096C71.5265 188.823 71.7579 192.963 72.8718 195.246" stroke="#585960" style="stroke:#585960;stroke:color(display-p3 0.3451 0.3490 0.3765);stroke-opacity:1;" stroke-miterlimit="10"/>
<path d="M84.7544 189.945C84.7906 191.809 84.1107 193.681 82.8232 195.242" stroke="#585960" style="stroke:#585960;stroke:color(display-p3 0.3451 0.3490 0.3765);stroke-opacity:1;" stroke-miterlimit="10"/>
<path d="M61.617 187.918C61.3566 189.652 61.7472 191.48 62.6947 192.954" stroke="#585960" style="stroke:#585960;stroke:color(display-p3 0.3451 0.3490 0.3765);stroke-opacity:1;" stroke-miterlimit="10"/>
<path d="M54.9132 193.314C54.8336 194.68 55.2386 196.06 56.027 197.173" stroke="#585960" style="stroke:#585960;stroke:color(display-p3 0.3451 0.3490 0.3765);stroke-opacity:1;" stroke-miterlimit="10"/>
<path d="M64.1094 160.007C64.9267 159.61 65.9899 159.784 66.6408 160.412C66.9374 160.022 67.2339 159.625 67.5377 159.234" stroke="#585960" style="stroke:#585960;stroke:color(display-p3 0.3451 0.3490 0.3765);stroke-opacity:1;" stroke-miterlimit="10"/>
<path d="M71.5273 165.31C72.7208 164.551 74.4711 164.847 75.3535 165.96" stroke="#585960" style="stroke:#585960;stroke:color(display-p3 0.3451 0.3490 0.3765);stroke-opacity:1;" stroke-miterlimit="10"/>
<path d="M83.1221 168.92C84.4167 168.334 85.9645 168.37 87.2303 169.006" stroke="#585960" style="stroke:#585960;stroke:color(display-p3 0.3451 0.3490 0.3765);stroke-opacity:1;" stroke-miterlimit="10"/>
<path d="M57.3271 174.987C58.0794 173.693 59.6344 172.92 61.1171 173.108" stroke="#585960" style="stroke:#585960;stroke:color(display-p3 0.3451 0.3490 0.3765);stroke-opacity:1;" stroke-miterlimit="10"/>
<path d="M52.4844 181.893C52.5061 180.961 53.2727 180.094 54.1985 179.971" stroke="#585960" style="stroke:#585960;stroke:color(display-p3 0.3451 0.3490 0.3765);stroke-opacity:1;" stroke-miterlimit="10"/>
<path d="M242.562 8.97014L-0.0761719 10.0756L3.59084 4.5843C5.35564 1.93979 8.32107 0.357422 11.5035 0.357422H231.061C233.94 0.357422 236.667 1.658 238.468 3.89788L242.554 8.97014H242.562Z" fill="#F3F0F0" stroke="#585960" style="fill:#F3F0F0;fill:color(display-p3 0.9529 0.9412 0.9412);fill-opacity:1;stroke:#585960;stroke:color(display-p3 0.3451 0.3490 0.3765);stroke-opacity:1;" stroke-linecap="round" stroke-linejoin="round"/>
<path d="M125.478 107.948H112.184C98.5433 107.948 87.4844 96.9007 87.4844 83.2736V69.9932C87.4844 56.366 98.5433 45.3184 112.184 45.3184H125.478C139.119 45.3184 150.178 56.366 150.178 69.9932V83.2736C150.178 96.9007 139.119 107.948 125.478 107.948Z" fill="#585960" stroke="#585960" style="fill:#585960;fill:color(display-p3 0.3451 0.3490 0.3765);fill-opacity:1;stroke:#585960;stroke:color(display-p3 0.3451 0.3490 0.3765);stroke-opacity:1;" stroke-linecap="round" stroke-linejoin="round"/>
<path d="M98.873 81.9219V90.8236C98.873 93.6199 101.137 95.8814 103.936 95.8814H134.509C137.294 95.8814 139.543 93.6415 139.572 90.8597C139.608 86.8568 139.825 81.9219 139.825 81.9219H98.873Z" fill="#FCCD82" stroke="#585960" style="fill:#FCCD82;fill:color(display-p3 0.9882 0.8039 0.5098);fill-opacity:1;stroke:#585960;stroke:color(display-p3 0.3451 0.3490 0.3765);stroke-opacity:1;" stroke-linecap="round" stroke-linejoin="round"/>
<path d="M210.764 84.8897H31.9697C30.082 84.8897 28.3895 83.7336 27.7024 81.9778L0.123831 11.2697C-0.599446 9.42 0.767547 7.42578 2.75656 7.42578H239.984C241.973 7.42578 243.34 9.42 242.617 11.2697L215.038 81.9778C214.351 83.7336 212.659 84.8897 210.771 84.8897H210.764Z" fill="#F3F0F0" stroke="#585960" style="fill:#F3F0F0;fill:color(display-p3 0.9529 0.9412 0.9412);fill-opacity:1;stroke:#585960;stroke:color(display-p3 0.3451 0.3490 0.3765);stroke-opacity:1;" stroke-linecap="round" stroke-linejoin="round"/>
<path d="M212.095 78.729H30.2123L5.17969 11.9082H237.004L212.095 78.729Z" fill="#585960" style="fill:#585960;fill:color(display-p3 0.3451 0.3490 0.3765);fill-opacity:1;"/>
<path d="M139.613 84.793H99.0664V87.5675H139.613V84.793Z" fill="#585960" style="fill:#585960;fill:color(display-p3 0.3451 0.3490 0.3765);fill-opacity:1;"/>
<path d="M185.518 75.8596H57.0789C56.37 75.8596 55.6974 75.5417 55.5744 75.1443L37.3045 17.1602C37.1019 16.5099 37.6733 15.9824 38.5774 15.9824H204.013C204.924 15.9824 205.488 16.5099 205.286 17.1602L187.016 75.1443C186.893 75.5417 186.22 75.8596 185.511 75.8596H185.518Z" fill="#FCCD82" style="fill:#FCCD82;fill:color(display-p3 0.9882 0.8039 0.5098);fill-opacity:1;"/>
<path d="M185.044 74.5442H57.5518L42.0303 23.5977H200.565L185.044 74.5442Z" fill="#585960" style="fill:#585960;fill:color(display-p3 0.3451 0.3490 0.3765);fill-opacity:1;"/>
<path d="M75.8591 36.2461H51.7233C51.1302 36.2461 50.7324 36.5712 50.8482 36.9614C50.9639 37.3516 51.5353 37.6767 52.1211 37.6767H76.1195C76.7125 37.6767 77.132 37.3588 77.067 36.9614C76.9946 36.564 76.4522 36.2461 75.8591 36.2461Z" fill="#F3F0F0" style="fill:#F3F0F0;fill:color(display-p3 0.9529 0.9412 0.9412);fill-opacity:1;"/>
<path d="M76.6707 40.6445H56.1441C55.5582 40.6445 55.1676 40.9552 55.2689 41.3382C55.3702 41.7211 55.9271 42.0246 56.5129 42.0246H76.9238C77.5024 42.0246 77.9219 41.7139 77.8568 41.3382C77.7918 40.9552 77.2565 40.6445 76.6707 40.6445Z" fill="#F3F0F0" style="fill:#F3F0F0;fill:color(display-p3 0.9529 0.9412 0.9412);fill-opacity:1;"/>
<path opacity="0.5" d="M77.4483 44.8926H54.1587C53.5874 44.8926 53.204 45.1888 53.3053 45.5573C53.4138 45.9258 53.9562 46.2221 54.5276 46.2221H77.6869C78.2583 46.2221 78.6706 45.9258 78.6055 45.5573C78.5404 45.1888 78.0197 44.8926 77.441 44.8926H77.4483Z" fill="#F3F0F0" style="fill:#F3F0F0;fill:color(display-p3 0.9529 0.9412 0.9412);fill-opacity:1;"/>
<path d="M78.2027 49H64.5255C63.9614 49 63.5708 49.289 63.6576 49.6431C63.7444 49.9971 64.2724 50.2861 64.8365 50.2861H78.4414C79.0055 50.2861 79.4106 49.9971 79.3455 49.6431C79.2804 49.289 78.7741 49 78.2027 49Z" fill="#F3F0F0" style="fill:#F3F0F0;fill:color(display-p3 0.9529 0.9412 0.9412);fill-opacity:1;"/>
<path d="M78.9329 52.9609H56.4245C55.8676 52.9609 55.4987 53.2427 55.5928 53.5823C55.6868 53.9219 56.2148 54.2037 56.7717 54.2037H79.1571C79.7068 54.2037 80.1118 53.9291 80.0467 53.5823C79.9889 53.2355 79.4826 52.9609 78.9329 52.9609Z" fill="#F3F0F0" style="fill:#F3F0F0;fill:color(display-p3 0.9529 0.9412 0.9412);fill-opacity:1;"/>
<path d="M79.6346 56.7949H61.4587C60.909 56.7949 60.5401 57.0623 60.6269 57.3946C60.7137 57.727 61.2272 57.9943 61.7697 57.9943H79.8444C80.3868 57.9943 80.7774 57.727 80.7195 57.3946C80.6617 57.0623 80.1698 56.7949 79.6202 56.7949H79.6346Z" fill="#F3F0F0" style="fill:#F3F0F0;fill:color(display-p3 0.9529 0.9412 0.9412);fill-opacity:1;"/>
<path d="M80.31 60.5039H62.4306C61.8953 60.5039 61.5265 60.764 61.6132 61.0892C61.7 61.4071 62.1991 61.6672 62.7343 61.6672H80.5197C81.0549 61.6672 81.4383 61.4071 81.3876 61.0892C81.3298 60.764 80.8452 60.5039 80.31 60.5039Z" fill="#F3F0F0" style="fill:#F3F0F0;fill:color(display-p3 0.9529 0.9412 0.9412);fill-opacity:1;"/>
<path d="M80.967 64.0859H61.4602C60.9322 64.0859 60.5706 64.3388 60.6574 64.6495C60.7442 64.9602 61.236 65.2131 61.764 65.2131H81.1695C81.6975 65.2131 82.0809 64.9602 82.023 64.6495C81.9651 64.3388 81.495 64.0859 80.967 64.0859Z" fill="#F3F0F0" style="fill:#F3F0F0;fill:color(display-p3 0.9529 0.9412 0.9412);fill-opacity:1;"/>
<path opacity="0.5" d="M81.6072 67.5625H69.0077C68.487 67.5625 68.1254 67.8082 68.1977 68.1116C68.27 68.4151 68.7546 68.6535 69.2681 68.6535H81.8025C82.3233 68.6535 82.6994 68.4079 82.6415 68.1116C82.5909 67.8082 82.1208 67.5625 81.6 67.5625H81.6072Z" fill="#F3F0F0" style="fill:#F3F0F0;fill:color(display-p3 0.9529 0.9412 0.9412);fill-opacity:1;"/>
<path opacity="0.5" d="M75.0189 31.6836H57.031C56.4235 31.6836 56.0185 32.016 56.127 32.4278C56.2354 32.8397 56.8068 33.1648 57.4072 33.1648H75.2866C75.8869 33.1648 76.3208 32.8324 76.2485 32.4278C76.1762 32.016 75.6265 31.6836 75.0189 31.6836Z" fill="#F3F0F0" style="fill:#F3F0F0;fill:color(display-p3 0.9529 0.9412 0.9412);fill-opacity:1;"/>
<path d="M74.1521 26.9512H49.1122C48.4974 26.9512 48.0924 27.298 48.2154 27.7243C48.3383 28.1506 48.9314 28.4902 49.5462 28.4902H74.4414C75.0562 28.4902 75.4901 28.1506 75.4178 27.7243C75.3455 27.298 74.7813 26.9512 74.1593 26.9512H74.1521Z" fill="#F3F0F0" style="fill:#F3F0F0;fill:color(display-p3 0.9529 0.9412 0.9412);fill-opacity:1;"/>
<path d="M82.2324 70.9316H61.4815C60.968 70.9316 60.6208 71.1701 60.7076 71.4591C60.7944 71.7481 61.2718 71.9866 61.7781 71.9866H82.4276C82.9412 71.9866 83.31 71.7481 83.2594 71.4591C83.2088 71.1701 82.7459 70.9316 82.2396 70.9316H82.2324Z" fill="#F3F0F0" style="fill:#F3F0F0;fill:color(display-p3 0.9529 0.9412 0.9412);fill-opacity:1;"/>
<path opacity="0.5" d="M84.3379 37.853H89.0248L88.7861 36.0684H84.0703L84.3379 37.853Z" fill="#F3F0F0" style="fill:#F3F0F0;fill:color(display-p3 0.9529 0.9412 0.9412);fill-opacity:1;"/>
<path opacity="0.5" d="M84.9967 42.2001H89.5895L89.3653 40.4805H84.7363L84.9967 42.2001Z" fill="#F3F0F0" style="fill:#F3F0F0;fill:color(display-p3 0.9529 0.9412 0.9412);fill-opacity:1;"/>
<path opacity="0.5" d="M85.6262 46.3982H90.1467L89.9225 44.7363H85.373L85.6262 46.3982Z" fill="#F3F0F0" style="fill:#F3F0F0;fill:color(display-p3 0.9529 0.9412 0.9412);fill-opacity:1;"/>
<path opacity="0.5" d="M86.2318 50.4472H90.6728L90.463 48.8359H85.9932L86.2318 50.4472Z" fill="#F3F0F0" style="fill:#F3F0F0;fill:color(display-p3 0.9529 0.9412 0.9412);fill-opacity:1;"/>
<path opacity="0.5" d="M86.8184 54.3679H91.187L90.9844 52.8145H86.5869L86.8184 54.3679Z" fill="#F3F0F0" style="fill:#F3F0F0;fill:color(display-p3 0.9529 0.9412 0.9412);fill-opacity:1;"/>
<path opacity="0.5" d="M87.3883 58.1474H91.6845L91.4893 56.6445H87.1641L87.3883 58.1474Z" fill="#F3F0F0" style="fill:#F3F0F0;fill:color(display-p3 0.9529 0.9412 0.9412);fill-opacity:1;"/>
<path opacity="0.5" d="M87.9377 61.8131H92.1616L91.9736 60.3535H87.7207L87.9377 61.8131Z" fill="#F3F0F0" style="fill:#F3F0F0;fill:color(display-p3 0.9529 0.9412 0.9412);fill-opacity:1;"/>
<path opacity="0.5" d="M88.4705 65.349H92.6293L92.4413 63.9473H88.2607L88.4705 65.349Z" fill="#F3F0F0" style="fill:#F3F0F0;fill:color(display-p3 0.9529 0.9412 0.9412);fill-opacity:1;"/>
<path opacity="0.5" d="M88.9857 68.7894H93.0795L92.8986 67.4238H88.7832L88.9857 68.7894Z" fill="#F3F0F0" style="fill:#F3F0F0;fill:color(display-p3 0.9529 0.9412 0.9412);fill-opacity:1;"/>
<path opacity="0.5" d="M83.6659 33.3511H88.4323L88.1863 31.4941H83.3838L83.6659 33.3511Z" fill="#F3F0F0" style="fill:#F3F0F0;fill:color(display-p3 0.9529 0.9412 0.9412);fill-opacity:1;"/>
<path opacity="0.5" d="M82.954 28.6759H87.8144L87.5612 26.7539H82.6719L82.954 28.6759Z" fill="#F3F0F0" style="fill:#F3F0F0;fill:color(display-p3 0.9529 0.9412 0.9412);fill-opacity:1;"/>
<path opacity="0.5" d="M89.4916 72.1191H93.5202L93.3466 70.7969H89.2891L89.4916 72.1191Z" fill="#F3F0F0" style="fill:#F3F0F0;fill:color(display-p3 0.9529 0.9412 0.9412);fill-opacity:1;"/>
<path d="M114.157 64.6495C114.15 64.3388 114.57 64.0859 115.098 64.0859H184.402C184.93 64.0859 185.284 64.3388 185.198 64.6495C185.111 64.9602 184.605 65.2131 184.084 65.2131H115.134C114.606 65.2131 114.172 64.9602 114.165 64.6495H114.157Z" fill="#F3F0F0" style="fill:#F3F0F0;fill:color(display-p3 0.9529 0.9412 0.9412);fill-opacity:1;"/>
<path d="M185.096 61.6672H146.726C146.19 61.6672 145.785 61.4071 145.822 61.0892C145.858 60.764 146.321 60.5039 146.856 60.5039H185.428C185.963 60.5039 186.325 60.764 186.231 61.0892C186.137 61.4071 185.631 61.6672 185.096 61.6672Z" fill="#F3F0F0" style="fill:#F3F0F0;fill:color(display-p3 0.9529 0.9412 0.9412);fill-opacity:1;"/>
<path opacity="0.5" d="M137.618 61.6672H125.677C125.142 61.6672 124.715 61.4071 124.715 61.0892C124.715 60.764 125.156 60.5039 125.699 60.5039H137.698C138.233 60.5039 138.652 60.764 138.623 61.0892C138.595 61.4071 138.146 61.6672 137.611 61.6672H137.618Z" fill="#F3F0F0" style="fill:#F3F0F0;fill:color(display-p3 0.9529 0.9412 0.9412);fill-opacity:1;"/>
<path d="M162.526 57.9943H108.396C107.853 57.9943 107.397 57.727 107.376 57.3946C107.354 57.0623 107.781 56.7949 108.331 56.7949H162.75C163.3 56.7949 163.69 57.0623 163.625 57.3946C163.567 57.727 163.075 57.9943 162.533 57.9943H162.526Z" fill="#F3F0F0" style="fill:#F3F0F0;fill:color(display-p3 0.9529 0.9412 0.9412);fill-opacity:1;"/>
<path opacity="0.5" d="M97.0838 56.7949H100.946C101.496 56.7949 101.959 57.0623 101.988 57.3946C102.017 57.727 101.597 57.9943 101.055 57.9943H97.214C96.6716 57.9943 96.2015 57.727 96.1653 57.3946C96.1291 57.0623 96.5414 56.7949 97.0838 56.7949Z" fill="#F3F0F0" style="fill:#F3F0F0;fill:color(display-p3 0.9529 0.9412 0.9412);fill-opacity:1;"/>
<path d="M170.358 53.5862C170.285 53.9258 169.779 54.2076 169.222 54.2076H118.217C117.667 54.2076 117.211 53.9331 117.204 53.5862C117.204 53.2394 117.645 52.9648 118.202 52.9648H169.49C170.047 52.9648 170.437 53.2466 170.365 53.5862H170.358Z" fill="#F3F0F0" style="fill:#F3F0F0;fill:color(display-p3 0.9529 0.9412 0.9412);fill-opacity:1;"/>
<path d="M96.667 52.9609H111.14C111.697 52.9609 112.16 53.2427 112.174 53.5823C112.189 53.9219 111.747 54.2037 111.198 54.2037H96.7972C96.2475 54.2037 95.7629 53.9291 95.7268 53.5823C95.6906 53.2355 96.1101 52.9609 96.667 52.9609Z" fill="#F3F0F0" style="fill:#F3F0F0;fill:color(display-p3 0.9529 0.9412 0.9412);fill-opacity:1;"/>
<path d="M96.2479 49H151.89C152.454 49 152.873 49.289 152.83 49.6431C152.779 49.9971 152.287 50.2861 151.723 50.2861H96.3853C95.8211 50.2861 95.3366 49.9971 95.2932 49.6431C95.257 49.289 95.6837 49 96.2479 49Z" fill="#F3F0F0" style="fill:#F3F0F0;fill:color(display-p3 0.9529 0.9412 0.9412);fill-opacity:1;"/>
<path d="M132.376 46.2221C131.804 46.2221 131.356 45.9258 131.37 45.5573C131.385 45.1888 131.862 44.8926 132.441 44.8926H161.799C162.377 44.8926 162.79 45.1888 162.725 45.5573C162.659 45.9258 162.146 46.2221 161.575 46.2221H132.376Z" fill="#F3F0F0" style="fill:#F3F0F0;fill:color(display-p3 0.9529 0.9412 0.9412);fill-opacity:1;"/>
<path d="M95.8087 44.8926H121.217C121.796 44.8926 122.259 45.1888 122.259 45.5573C122.259 45.9258 121.796 46.2221 121.225 46.2221H95.9534C95.382 46.2221 94.8829 45.9258 94.8467 45.5573C94.8033 45.1888 95.2373 44.8926 95.8159 44.8926H95.8087Z" fill="#F3F0F0" style="fill:#F3F0F0;fill:color(display-p3 0.9529 0.9412 0.9412);fill-opacity:1;"/>
<path d="M190.738 42.0246H120.797C120.219 42.0246 119.741 41.7139 119.741 41.3382C119.741 40.9552 120.211 40.6445 120.797 40.6445H191.136C191.722 40.6445 192.105 40.9552 191.997 41.3382C191.888 41.7211 191.324 42.0246 190.745 42.0246H190.738Z" fill="#F3F0F0" style="fill:#F3F0F0;fill:color(display-p3 0.9529 0.9412 0.9412);fill-opacity:1;"/>
<path d="M191.991 37.6728H130.448C129.854 37.6728 129.384 37.3549 129.399 36.9575C129.413 36.5601 129.905 36.2422 130.498 36.2422H192.403C192.997 36.2422 193.387 36.5601 193.271 36.9575C193.156 37.3549 192.584 37.6728 191.991 37.6728Z" fill="#F3F0F0" style="fill:#F3F0F0;fill:color(display-p3 0.9529 0.9412 0.9412);fill-opacity:1;"/>
<path opacity="0.5" d="M193.284 33.1648H180.395C179.794 33.1648 179.382 32.8324 179.476 32.4278C179.57 32.016 180.142 31.6836 180.749 31.6836H193.71C194.318 31.6836 194.716 32.016 194.593 32.4278C194.47 32.8397 193.884 33.1648 193.284 33.1648Z" fill="#F3F0F0" style="fill:#F3F0F0;fill:color(display-p3 0.9529 0.9412 0.9412);fill-opacity:1;"/>
<path d="M171.384 33.1648H124.06C123.459 33.1648 122.967 32.8324 122.975 32.4278C122.975 32.016 123.474 31.6836 124.081 31.6836H171.687C172.295 31.6836 172.714 32.016 172.635 32.4278C172.548 32.8397 171.991 33.1648 171.391 33.1648H171.384Z" fill="#F3F0F0" style="fill:#F3F0F0;fill:color(display-p3 0.9529 0.9412 0.9412);fill-opacity:1;"/>
<path d="M98.2323 67.5625H141.933C142.453 67.5625 142.851 67.8082 142.822 68.1116C142.793 68.4151 142.345 68.6535 141.831 68.6535H98.3481C97.8273 68.6535 97.3861 68.4079 97.3499 68.1116C97.3138 67.8082 97.7116 67.5625 98.2323 67.5625Z" fill="#F3F0F0" style="fill:#F3F0F0;fill:color(display-p3 0.9529 0.9412 0.9412);fill-opacity:1;"/>
<path d="M98.5882 70.9316H165.73C166.244 70.9316 166.605 71.1701 166.547 71.4591C166.482 71.7481 166.019 71.9866 165.513 71.9866H98.7039C98.1904 71.9866 97.7564 71.7481 97.7203 71.4591C97.6914 71.1701 98.0747 70.9316 98.5882 70.9316Z" fill="#F3F0F0" style="fill:#F3F0F0;fill:color(display-p3 0.9529 0.9412 0.9412);fill-opacity:1;"/>
<path d="M169.034 28.4785H134.852C134.237 28.4785 133.752 28.1389 133.774 27.7126C133.796 27.2863 134.309 26.9395 134.931 26.9395H169.323C169.945 26.9395 170.379 27.2863 170.292 27.7126C170.213 28.1389 169.649 28.4785 169.034 28.4785Z" fill="#F3F0F0" style="fill:#F3F0F0;fill:color(display-p3 0.9529 0.9412 0.9412);fill-opacity:1;"/>
<path opacity="0.5" d="M125.149 28.4785H94.055C93.4402 28.4785 92.905 28.1389 92.8544 27.7126C92.8037 27.2863 93.2666 26.9395 93.8887 26.9395H125.17C125.792 26.9395 126.284 27.2863 126.277 27.7126C126.27 28.1389 125.763 28.4785 125.149 28.4785Z" fill="#F3F0F0" style="fill:#F3F0F0;fill:color(display-p3 0.9529 0.9412 0.9412);fill-opacity:1;"/>
<path opacity="0.5" d="M151.626 67.5625C152.147 67.5625 152.53 67.8082 152.487 68.1116C152.443 68.4151 151.987 68.6535 151.474 68.6535H148.096C147.575 68.6535 147.185 68.4079 147.221 68.1116C147.257 67.8082 147.706 67.5625 148.226 67.5625H151.619H151.626Z" fill="#F3F0F0" style="fill:#F3F0F0;fill:color(display-p3 0.9529 0.9412 0.9412);fill-opacity:1;"/>
<path opacity="0.5" d="M110.175 64.6495C110.189 64.9602 109.777 65.2131 109.249 65.2131H104.649C104.121 65.2131 103.673 64.9602 103.651 64.6495C103.622 64.3388 104.034 64.0859 104.562 64.0859H109.191C109.719 64.0859 110.16 64.3388 110.182 64.6495H110.175Z" fill="#F3F0F0" style="fill:#F3F0F0;fill:color(display-p3 0.9529 0.9412 0.9412);fill-opacity:1;"/>
<path opacity="0.5" d="M165.697 49.6431C165.632 49.9971 165.118 50.2861 164.554 50.2861H159.173C158.609 50.2861 158.197 49.9971 158.254 49.6431C158.312 49.289 158.811 49 159.383 49H164.793C165.357 49 165.762 49.289 165.69 49.6431H165.697Z" fill="#F3F0F0" style="fill:#F3F0F0;fill:color(display-p3 0.9529 0.9412 0.9412);fill-opacity:1;"/>
<path opacity="0.5" d="M182.475 52.9609C183.032 52.9609 183.409 53.2427 183.314 53.5823C183.22 53.9219 182.7 54.2037 182.15 54.2037H177.861C177.311 54.2037 176.928 53.9291 177.008 53.5823C177.087 53.2355 177.608 52.9609 178.165 52.9609H182.475Z" fill="#F3F0F0" style="fill:#F3F0F0;fill:color(display-p3 0.9529 0.9412 0.9412);fill-opacity:1;"/>
<path opacity="0.5" d="M112.329 42.0246C111.751 42.0246 111.259 41.7139 111.244 41.3382C111.23 40.9552 111.693 40.6445 112.279 40.6445H116.843C117.428 40.6445 117.906 40.9552 117.913 41.3382C117.913 41.7211 117.45 42.0246 116.872 42.0246H112.329Z" fill="#F3F0F0" style="fill:#F3F0F0;fill:color(display-p3 0.9529 0.9412 0.9412);fill-opacity:1;"/>
<path d="M50.1645 19.7856C50.5189 20.9706 49.8318 21.9171 48.6456 21.9171C47.4595 21.9171 46.1793 20.9706 45.7959 19.7856C45.4054 18.5862 46.0852 17.6035 47.3003 17.6035C48.5154 17.6035 49.8029 18.5862 50.1645 19.7856Z" fill="#F3F0F0" style="fill:#F3F0F0;fill:color(display-p3 0.9529 0.9412 0.9412);fill-opacity:1;"/>
<path d="M56.0521 19.8227C56.3703 21.0077 55.6543 21.9542 54.4609 21.9542C53.2675 21.9542 52.0234 21.0077 51.6835 19.8227C51.3363 18.6233 52.0379 17.6406 53.2602 17.6406C54.4826 17.6406 55.7338 18.6233 56.0521 19.8227Z" fill="#F3F0F0" style="fill:#F3F0F0;fill:color(display-p3 0.9529 0.9412 0.9412);fill-opacity:1;"/>
<path d="M62.0056 19.7856C62.2804 20.9706 61.5354 21.9171 60.342 21.9171C59.1486 21.9171 57.9407 20.9706 57.6297 19.7856C57.3187 18.5862 58.0565 17.6035 59.2788 17.6035C60.5011 17.6035 61.7235 18.5862 61.9983 19.7856H62.0056Z" fill="#F3F0F0" style="fill:#F3F0F0;fill:color(display-p3 0.9529 0.9412 0.9412);fill-opacity:1;"/>
<path d="M56.9218 107.738H41.6607C39.6789 107.738 38.0732 109.342 38.0732 111.322V118.735C38.0732 120.715 39.6789 122.319 41.6607 122.319H45.646L48.6693 129.162L52.9294 122.319H56.9146C58.8964 122.319 60.5021 120.715 60.5021 118.735V111.322C60.5021 109.342 58.8964 107.738 56.9146 107.738H56.9218Z" fill="#F3F0F0" stroke="#585960" style="fill:#F3F0F0;fill:color(display-p3 0.9529 0.9412 0.9412);fill-opacity:1;stroke:#585960;stroke:color(display-p3 0.3451 0.3490 0.3765);stroke-opacity:1;" stroke-linecap="round" stroke-linejoin="round"/>
<path d="M47.1689 111.981C47.1689 111.591 47.4872 111.287 47.9139 111.287C48.3407 111.287 48.6589 111.576 48.6589 111.959C48.6589 112.371 48.3551 112.682 47.9139 112.682C47.4872 112.682 47.1689 112.371 47.1689 111.981ZM47.3281 113.491H48.4925V118.448H47.3281V113.491Z" fill="#585960" style="fill:#585960;fill:color(display-p3 0.3451 0.3490 0.3765);fill-opacity:1;"/>
<path d="M51.2894 113.23V113.526H52.6564V114.458H51.3255V118.446H50.1611V114.458H49.3438V113.526H50.1611V113.208C50.1611 112.167 50.7831 111.488 51.9331 111.488C52.3309 111.488 52.7215 111.575 52.9818 111.756L52.6564 112.63C52.4828 112.507 52.2586 112.428 52.0126 112.428C51.528 112.428 51.2821 112.695 51.2821 113.222L51.2894 113.23Z" fill="#585960" style="fill:#585960;fill:color(display-p3 0.3451 0.3490 0.3765);fill-opacity:1;"/>
<path d="M103.362 108.77H88.1011C86.1193 108.77 84.5137 110.374 84.5137 112.353V119.767C84.5137 121.746 86.1193 123.35 88.1011 123.35H92.0864L95.1097 130.193L99.3698 123.35H103.355C105.337 123.35 106.942 121.746 106.942 119.767V112.353C106.942 110.374 105.337 108.77 103.355 108.77H103.362Z" fill="#F3F0F0" stroke="#585960" style="fill:#F3F0F0;fill:color(display-p3 0.9529 0.9412 0.9412);fill-opacity:1;stroke:#585960;stroke:color(display-p3 0.3451 0.3490 0.3765);stroke-opacity:1;" stroke-linecap="round" stroke-linejoin="round"/>
<path d="M91.3106 117.381H87.4194C87.5568 118.104 88.1643 118.573 89.025 118.573C89.5819 118.573 90.0159 118.4 90.3703 118.031L90.9923 118.747C90.5439 119.274 89.8496 119.556 88.9961 119.556C87.3326 119.556 86.2549 118.487 86.2549 117.013C86.2549 115.539 87.3398 114.477 88.8225 114.477C90.3052 114.477 91.3323 115.488 91.3323 117.042C91.3323 117.136 91.325 117.273 91.3106 117.388V117.381ZM87.4049 116.608H90.2184C90.1244 115.893 89.5747 115.401 88.8153 115.401C88.0558 115.401 87.5134 115.886 87.4049 116.608Z" fill="#585960" style="fill:#585960;fill:color(display-p3 0.3451 0.3490 0.3765);fill-opacity:1;"/>
<path d="M92.4385 112.6H93.603V119.485H92.4385V112.6Z" fill="#585960" style="fill:#585960;fill:color(display-p3 0.3451 0.3490 0.3765);fill-opacity:1;"/>
<path d="M94.5537 119L95.0021 118.118C95.4361 118.407 96.1088 118.61 96.7308 118.61C97.4613 118.61 97.7723 118.407 97.7723 118.06C97.7723 117.114 94.7056 118.003 94.7056 116.03C94.7056 115.091 95.5518 114.477 96.8899 114.477C97.5481 114.477 98.3003 114.636 98.7487 114.903L98.3003 115.784C97.8302 115.51 97.3528 115.416 96.8827 115.416C96.1739 115.416 95.8411 115.647 95.8411 115.972C95.8411 116.977 98.9078 116.081 98.9078 118.024C98.9078 118.956 98.0544 119.556 96.6584 119.556C95.8267 119.556 95.0021 119.318 94.5537 119Z" fill="#585960" style="fill:#585960;fill:color(display-p3 0.3451 0.3490 0.3765);fill-opacity:1;"/>
<path d="M104.558 117.381H100.666C100.804 118.104 101.411 118.573 102.272 118.573C102.829 118.573 103.263 118.4 103.617 118.031L104.239 118.747C103.791 119.274 103.097 119.556 102.243 119.556C100.58 119.556 99.502 118.487 99.502 117.013C99.502 115.539 100.587 114.477 102.07 114.477C103.552 114.477 104.579 115.488 104.579 117.042C104.579 117.136 104.565 117.273 104.558 117.388V117.381ZM100.652 116.608H103.466C103.371 115.893 102.822 115.401 102.062 115.401C101.303 115.401 100.76 115.886 100.652 116.608Z" fill="#585960" style="fill:#585960;fill:color(display-p3 0.3451 0.3490 0.3765);fill-opacity:1;"/>
<path d="M148.394 108.332H133.133C131.152 108.332 129.546 109.936 129.546 111.916V119.329C129.546 121.309 131.152 122.913 133.133 122.913H137.119L140.142 129.755L144.402 122.913H148.387C150.369 122.913 151.975 121.309 151.975 119.329V111.916C151.975 109.936 150.369 108.332 148.387 108.332H148.394Z" fill="#F3F0F0" stroke="#585960" style="fill:#F3F0F0;fill:color(display-p3 0.9529 0.9412 0.9412);fill-opacity:1;stroke:#585960;stroke:color(display-p3 0.3451 0.3490 0.3765);stroke-opacity:1;" stroke-linecap="round" stroke-linejoin="round"/>
<path d="M136.638 113.833V114.129H138.005V115.061H136.674V119.05H135.51V115.061H134.692V114.129H135.51V113.811C135.51 112.771 136.132 112.092 137.282 112.092C137.68 112.092 138.07 112.178 138.33 112.359L138.005 113.233C137.831 113.111 137.607 113.031 137.361 113.031C136.877 113.031 136.624 113.298 136.624 113.826L136.638 113.833Z" fill="#585960" style="fill:#585960;fill:color(display-p3 0.3451 0.3490 0.3765);fill-opacity:1;"/>
<path d="M138.292 116.569C138.292 115.088 139.406 114.033 140.932 114.033C142.458 114.033 143.579 115.081 143.579 116.569C143.579 118.058 142.473 119.113 140.932 119.113C139.391 119.113 138.292 118.058 138.292 116.569ZM142.407 116.569C142.407 115.623 141.778 115.016 140.932 115.016C140.086 115.016 139.464 115.623 139.464 116.569C139.464 117.516 140.093 118.123 140.932 118.123C141.771 118.123 142.407 117.523 142.407 116.569Z" fill="#585960" style="fill:#585960;fill:color(display-p3 0.3451 0.3490 0.3765);fill-opacity:1;"/>
<path d="M147.566 114.033V115.139C147.464 115.124 147.378 115.11 147.298 115.11C146.416 115.11 145.859 115.63 145.859 116.642V119.048H144.694V114.091H145.801V114.814C146.134 114.293 146.741 114.033 147.566 114.033Z" fill="#585960" style="fill:#585960;fill:color(display-p3 0.3451 0.3490 0.3765);fill-opacity:1;"/>
<path d="M192.773 107.738H177.512C175.53 107.738 173.925 109.342 173.925 111.322V118.735C173.925 120.715 175.53 122.319 177.512 122.319H181.498L184.521 129.162L188.781 122.319H192.766C194.748 122.319 196.354 120.715 196.354 118.735V111.322C196.354 109.342 194.748 107.738 192.766 107.738H192.773Z" fill="#F3F0F0" stroke="#585960" style="fill:#F3F0F0;fill:color(display-p3 0.9529 0.9412 0.9412);fill-opacity:1;stroke:#585960;stroke:color(display-p3 0.3451 0.3490 0.3765);stroke-opacity:1;" stroke-linecap="round" stroke-linejoin="round"/>
<path d="M183.164 113.244H187.446V114.176H183.164V113.244ZM183.164 115.491H187.446V116.423H183.164V115.491Z" fill="#585960" style="fill:#585960;fill:color(display-p3 0.3451 0.3490 0.3765);fill-opacity:1;"/>
<path d="M80.1757 99.1582H64.9146C62.9328 99.1582 61.3271 100.762 61.3271 102.742V110.155C61.3271 112.135 62.9328 113.739 64.9146 113.739H68.8999L71.9231 120.582L76.1833 113.739H80.1685C82.1503 113.739 83.756 112.135 83.756 110.155V102.742C83.756 100.762 82.1503 99.1582 80.1685 99.1582H80.1757Z" fill="#F3F0F0" stroke="#585960" style="fill:#F3F0F0;fill:color(display-p3 0.9529 0.9412 0.9412);fill-opacity:1;stroke:#585960;stroke:color(display-p3 0.3451 0.3490 0.3765);stroke-opacity:1;" stroke-linecap="round" stroke-linejoin="round"/>
<path d="M68.9521 102.234H71.1726V103.166H70.1166V110.002H71.1726V110.934H68.9521V102.242V102.234Z" fill="#585960" style="fill:#585960;fill:color(display-p3 0.3451 0.3490 0.3765);fill-opacity:1;"/>
<path d="M74.0479 110.93V109.998H75.0966V103.163H74.0479V102.23H76.2611V110.923H74.0479V110.93Z" fill="#585960" style="fill:#585960;fill:color(display-p3 0.3451 0.3490 0.3765);fill-opacity:1;"/>
<path d="M125.537 98.3965H110.276C108.294 98.3965 106.688 100.001 106.688 101.98V109.394C106.688 111.373 108.294 112.977 110.276 112.977H114.261L117.284 119.82L121.545 112.977H125.53C127.512 112.977 129.117 111.373 129.117 109.394V101.98C129.117 100.001 127.512 98.3965 125.53 98.3965H125.537Z" fill="#F3F0F0" stroke="#585960" style="fill:#F3F0F0;fill:color(display-p3 0.9529 0.9412 0.9412);fill-opacity:1;stroke:#585960;stroke:color(display-p3 0.3451 0.3490 0.3765);stroke-opacity:1;" stroke-linecap="round" stroke-linejoin="round"/>
<path d="M114.805 105.786C115.174 105.909 115.355 106.154 115.355 106.732V108.495C115.355 108.943 115.579 109.203 116.042 109.203H116.238V110.136H115.775C114.726 110.136 114.198 109.608 114.198 108.625V106.711C114.198 106.407 114.039 106.263 113.778 106.263H113.475V105.316H113.778C114.039 105.316 114.198 105.179 114.198 104.868V102.953C114.198 101.971 114.726 101.443 115.775 101.443H116.238V102.375H116.042C115.579 102.375 115.355 102.636 115.355 103.084V104.847C115.355 105.425 115.182 105.67 114.805 105.793V105.786Z" fill="#585960" style="fill:#585960;fill:color(display-p3 0.3451 0.3490 0.3765);fill-opacity:1;"/>
<path d="M121.89 105.32V106.266H121.572C121.319 106.266 121.16 106.403 121.16 106.714V108.629C121.16 109.611 120.624 110.139 119.568 110.139H119.105V109.207H119.301C119.771 109.207 119.995 108.947 119.995 108.499V106.736C119.995 106.158 120.161 105.912 120.53 105.789C120.154 105.666 119.995 105.421 119.995 104.843V103.08C119.995 102.632 119.771 102.372 119.301 102.372H119.105V101.439H119.568C120.617 101.439 121.16 101.967 121.16 102.95V104.864C121.16 105.168 121.319 105.312 121.572 105.312H121.89V105.32Z" fill="#585960" style="fill:#585960;fill:color(display-p3 0.3451 0.3490 0.3765);fill-opacity:1;"/>
<path d="M170.426 96.8945H155.165C153.183 96.8945 151.577 98.4986 151.577 100.478V107.892C151.577 109.871 153.183 111.475 155.165 111.475H159.15L162.173 118.318L166.433 111.475H170.419C172.4 111.475 174.006 109.871 174.006 107.892V100.478C174.006 98.4986 172.4 96.8945 170.419 96.8945H170.426Z" fill="#F3F0F0" stroke="#585960" style="fill:#F3F0F0;fill:color(display-p3 0.9529 0.9412 0.9412);fill-opacity:1;stroke:#585960;stroke:color(display-p3 0.3451 0.3490 0.3765);stroke-opacity:1;" stroke-linecap="round" stroke-linejoin="round"/>
<path d="M162.187 102.379C162.187 101.916 162.534 101.605 162.946 101.605C163.358 101.605 163.705 101.909 163.705 102.379C163.705 102.848 163.358 103.152 162.946 103.152C162.534 103.152 162.187 102.827 162.187 102.379ZM163.713 105.912C163.713 106.114 163.662 106.28 163.496 106.707L163.026 108.014H162.273L162.642 106.591C162.382 106.483 162.208 106.237 162.208 105.905C162.208 105.442 162.534 105.131 162.96 105.131C163.387 105.131 163.713 105.449 163.713 105.905V105.912Z" fill="#585960" style="fill:#585960;fill:color(display-p3 0.3451 0.3490 0.3765);fill-opacity:1;"/>
<path d="M110.77 226.544H126.031C128.013 226.544 129.618 224.94 129.618 222.961V215.547C129.618 213.568 128.013 211.964 126.031 211.964H122.046L120.881 205.121L114.762 211.964H110.777C108.795 211.964 107.189 213.568 107.189 215.547V222.961C107.189 224.94 108.795 226.544 110.777 226.544H110.77Z" fill="#F3F0F0" stroke="#585960" style="fill:#F3F0F0;fill:color(display-p3 0.9529 0.9412 0.9412);fill-opacity:1;stroke:#585960;stroke:color(display-p3 0.3451 0.3490 0.3765);stroke-opacity:1;" stroke-linecap="round" stroke-linejoin="round"/>
<path d="M116.137 217.729L112.933 218.928L116.137 220.127V221.096L111.855 219.434V218.429L116.137 216.768V217.736V217.729Z" fill="#585960" style="fill:#585960;fill:color(display-p3 0.3451 0.3490 0.3765);fill-opacity:1;"/>
<path d="M119.517 214.352H120.558L117.492 223.094H116.45L119.517 214.352Z" fill="#585960" style="fill:#585960;fill:color(display-p3 0.3451 0.3490 0.3765);fill-opacity:1;"/>
<path d="M125.064 218.419V219.423L120.782 221.085V220.117L123.986 218.918L120.782 217.718V216.75L125.064 218.412V218.419Z" fill="#585960" style="fill:#585960;fill:color(display-p3 0.3451 0.3490 0.3765);fill-opacity:1;"/>
<path d="M13.7638 172.539H29.025C31.0067 172.539 32.6124 170.935 32.6124 168.955V161.542C32.6124 159.562 31.0067 157.958 29.025 157.958H25.0397L25.9076 151.115L17.7563 157.958H13.771C11.7893 157.958 10.1836 159.562 10.1836 161.542V168.955C10.1836 170.935 11.7893 172.539 13.771 172.539H13.7638Z" fill="#F3F0F0" stroke="#585960" style="fill:#F3F0F0;fill:color(display-p3 0.9529 0.9412 0.9412);fill-opacity:1;stroke:#585960;stroke:color(display-p3 0.3451 0.3490 0.3765);stroke-opacity:1;" stroke-linecap="round" stroke-linejoin="round"/>
<path d="M18.2891 167.838C18.2891 167.441 18.6073 167.123 19.0413 167.123C19.4752 167.123 19.7718 167.441 19.7718 167.838C19.7718 168.236 19.468 168.561 19.0413 168.561C18.6145 168.561 18.2891 168.236 18.2891 167.838ZM18.3542 162H19.7284L19.4969 166.342H18.5784L18.3542 162Z" fill="#585960" style="fill:#585960;fill:color(display-p3 0.3451 0.3490 0.3765);fill-opacity:1;"/>
<path d="M20.9238 163.658H25.2056V164.583H20.9238V163.658ZM20.9238 165.905H25.2056V166.837H20.9238V165.905Z" fill="#585960" style="fill:#585960;fill:color(display-p3 0.3451 0.3490 0.3765);fill-opacity:1;"/>
<path d="M348.468 115.367C348.468 118.344 348.222 121.227 347.767 123.944C345.669 136.444 339.095 145.569 331.305 145.569C330.611 145.569 329.909 145.49 329.236 145.353C320.738 143.554 314.142 130.815 314.142 115.367C314.142 98.6909 321.823 92.7949 331.298 92.7949C340.78 92.7949 348.461 98.6909 348.461 115.374L348.468 115.367Z" fill="#F3F0F0" style="fill:#F3F0F0;fill:color(display-p3 0.9529 0.9412 0.9412);fill-opacity:1;"/>
<path d="M348.468 115.367C348.468 118.344 348.222 121.227 347.767 123.944C345.669 136.444 339.095 145.569 331.305 145.569C330.611 145.569 329.909 145.49 329.236 145.353C320.738 143.554 314.142 130.815 314.142 115.367C314.142 98.6909 321.823 92.7949 331.298 92.7949C340.78 92.7949 348.461 98.6909 348.461 115.374L348.468 115.367Z" stroke="#585960" style="stroke:#585960;stroke:color(display-p3 0.3451 0.3490 0.3765);stroke-opacity:1;" stroke-miterlimit="10"/>
<path d="M340.515 130.705C339.372 134.556 337.47 138.176 334.888 141.254Z" fill="#F3F0F0" style="fill:#F3F0F0;fill:color(display-p3 0.9529 0.9412 0.9412);fill-opacity:1;"/>
<path d="M340.515 130.705C339.372 134.556 337.47 138.176 334.888 141.254" stroke="#585960" style="stroke:#585960;stroke:color(display-p3 0.3451 0.3490 0.3765);stroke-opacity:1;" stroke-miterlimit="10"/>
<path d="M341.068 128.605C340.974 129.017 340.88 129.422 340.771 129.827" stroke="#585960" style="stroke:#585960;stroke:color(display-p3 0.3451 0.3490 0.3765);stroke-opacity:1;" stroke-miterlimit="10"/>
<path d="M341.017 115.324C341.935 119.168 342.022 123.193 341.357 127.087Z" fill="#F3F0F0" style="fill:#F3F0F0;fill:color(display-p3 0.9529 0.9412 0.9412);fill-opacity:1;"/>
<path d="M341.017 115.324C341.935 119.168 342.022 123.193 341.357 127.087" stroke="#585960" style="stroke:#585960;stroke:color(display-p3 0.3451 0.3490 0.3765);stroke-opacity:1;" stroke-miterlimit="10"/>
<path d="M314.142 115.371C314.142 115.371 333.648 107.668 348.461 115.371" stroke="#585960" style="stroke:#585960;stroke:color(display-p3 0.3451 0.3490 0.3765);stroke-opacity:1;" stroke-miterlimit="10"/>
<path d="M331.301 92.791C331.301 92.791 333.254 100.016 333.478 111.765Z" fill="#F3F0F0" style="fill:#F3F0F0;fill:color(display-p3 0.9529 0.9412 0.9412);fill-opacity:1;"/>
<path d="M331.301 92.791C331.301 92.791 333.254 100.016 333.478 111.765" stroke="#585960" style="stroke:#585960;stroke:color(display-p3 0.3451 0.3490 0.3765);stroke-opacity:1;" stroke-miterlimit="10"/>
<path d="M334.025 101.585C334.278 103.832 333.888 105.746 333.157 105.862C332.427 105.978 331.631 104.251 331.378 102.004C331.125 99.7565 331.515 97.8418 332.246 97.7262C332.976 97.6106 333.772 99.3375 334.025 101.585Z" fill="#F3F0F0" stroke="#585960" style="fill:#F3F0F0;fill:color(display-p3 0.9529 0.9412 0.9412);fill-opacity:1;stroke:#585960;stroke:color(display-p3 0.3451 0.3490 0.3765);stroke-opacity:1;" stroke-linecap="round" stroke-linejoin="round"/>
<path d="M323.608 151.344H300.738C297.889 151.344 295.545 149.234 295.176 146.496C295.126 146.25 295.111 145.99 295.111 145.723V91.8284C295.111 91.5683 295.126 91.3082 295.176 91.0481C295.545 88.3096 297.889 86.207 300.738 86.207H365.631C366.614 86.207 367.533 86.4599 368.329 86.9007" stroke="#585960" style="stroke:#585960;stroke:color(display-p3 0.3451 0.3490 0.3765);stroke-opacity:1;" stroke-miterlimit="10"/>
</g>
<defs>
<clipPath id="clip0_2610_1252">
<rect width="396" height="250" fill="white" style="fill:white;fill-opacity:1;"/>
</clipPath>
</defs>
</svg>
