<svg width="305" height="251" viewBox="0 0 305 251" fill="none" xmlns="http://www.w3.org/2000/svg">
<g clip-path="url(#clip0_2643_1688)">
<path d="M206 -44.7928L203.724 -59.4106C202.913 -64.617 198.803 -68.7268 193.557 -69.2182C188.019 -69.7369 182.407 -70 176.733 -70C172.314 -70 167.927 -69.8357 163.582 -69.5183C158.23 -69.1273 153.988 -64.9757 153.164 -59.6737L149.945 -38.983C149.172 -34.0127 145.367 -30.1007 140.504 -28.8174C129.162 -25.8251 118.385 -21.4558 108.343 -15.9114C104.039 -13.5353 98.7248 -13.6786 94.7556 -16.5789L77.2557 -29.3659C73.0007 -32.475 67.1881 -32.4756 63.1281 -29.1158C55.4122 -22.7307 48.2418 -15.7053 41.6976 -8.12258C38.1971 -4.06656 38.1377 1.8587 41.298 6.18506L53.6691 23.1207C56.6363 27.1827 56.7111 32.6396 54.1773 36.9852C48.4004 46.8931 43.8003 57.5738 40.5501 68.8315C39.1861 73.5562 35.327 77.2155 30.4678 77.9721L9.04302 81.3083C3.83637 82.119 -0.273663 86.2285 -0.765077 91.4749C-1.28375 97.0124 -1.54688 102.624 -1.54688 108.298C-1.54688 112.716 -1.38267 117.099 -1.06541 121.441C-0.674311 126.792 3.47742 131.034 8.77942 131.859L29.4701 135.077C34.4404 135.85 38.3524 139.655 39.6358 144.519C42.6282 155.859 46.9987 166.635 52.5511 176.677C54.9315 180.982 54.7911 186.301 51.8893 190.273L39.1037 207.776C35.9955 212.031 35.9953 217.843 39.3547 221.902C45.7405 229.619 52.7666 236.789 60.3503 243.33C64.4057 246.828 70.3281 246.886 74.6529 243.727L91.5873 231.359C95.6472 228.393 101.101 228.317 105.445 230.848C116.769 237.446 129.089 242.504 142.124 245.774C143.975 246.239 145.41 247.719 145.763 249.594V249.594C146.191 251.86 148.167 253.5 150.472 253.5C158.703 253.5 169.305 253.5 176.733 253.5C183.169 253.5 193.113 253.5 200.544 253.5C202.525 253.5 204.199 252.036 204.465 250.073V250.073C204.692 248.401 205.956 247.062 207.604 246.696C220.93 243.74 233.537 238.897 245.16 232.481C249.464 230.105 254.778 230.248 258.747 233.148L276.247 245.935C280.502 249.044 286.315 249.045 290.375 245.685C298.091 239.3 305.262 232.274 311.806 224.69C315.306 220.635 315.366 214.711 312.207 210.385L299.835 193.441C296.872 189.382 296.794 183.932 299.324 179.59C305.099 169.674 309.701 158.997 312.952 147.738C314.317 143.013 318.176 139.354 323.035 138.597L344.46 135.261C349.666 134.45 353.776 130.341 354.268 125.094C354.787 119.558 355.05 113.948 355.05 108.28C355.05 103.861 354.885 99.4735 354.568 95.1287C354.177 89.7772 350.025 85.5352 344.723 84.7105L321.419 81.0856C318.02 80.5569 315.335 77.9558 314.512 74.6159V74.6159M312.1 65.9495C309.249 56.8375 305.494 48.1195 300.951 39.9015C298.571 35.5961 298.712 30.2778 301.614 26.3053L314.399 8.80224C317.507 4.54729 317.507 -1.26454 314.148 -5.32404C307.762 -13.0406 300.736 -20.2109 293.152 -26.752C289.097 -30.2498 283.175 -30.3079 278.85 -27.1491L261.915 -14.7803C257.856 -11.815 252.402 -11.7385 248.058 -14.2699C237.947 -20.1628 227.042 -24.8315 215.543 -28.0924C211.214 -29.32 207.867 -32.8547 207.175 -37.3008V-37.3008M78.1985 159.914C70.0965 144.484 65.5175 126.924 65.5175 108.289C65.5175 46.8779 115.313 -2.91739 176.733 -2.91739C238.154 -2.91739 287.949 46.8779 287.949 108.289C287.949 169.7 238.154 219.505 176.733 219.505C137.325 219.505 102.705 199.004 82.9504 168.089" stroke="#D7D7D7" style="stroke:#D7D7D7;stroke:color(display-p3 0.8417 0.8417 0.8417);stroke-opacity:1;" stroke-linecap="round" stroke-linejoin="round"/>
<path fill-rule="evenodd" clip-rule="evenodd" d="M142.942 55.4982C145.255 56.9116 148.144 56.8897 150.567 55.6751C152.609 54.6513 154.699 53.7532 156.825 52.9813C159.373 52.0561 161.374 49.9711 161.936 47.3192L162.811 43.1845C163.516 39.856 166.431 37.459 169.833 37.4111L182.11 37.2382C185.511 37.1903 188.493 39.5038 189.292 42.8108L190.283 46.9187C190.92 49.5538 192.979 51.5814 195.553 52.4342C197.7 53.1459 199.815 53.9847 201.885 54.9506C204.341 56.0961 207.229 56.0366 209.501 54.5591L213.04 52.2566C215.892 50.4013 219.649 50.768 222.088 53.1398L230.891 61.6982C233.33 64.0698 233.802 67.8142 232.028 70.7172L229.828 74.3174C228.415 76.6297 228.437 79.5189 229.651 81.9416C230.675 83.9845 231.573 86.0749 232.345 88.201C233.27 90.7494 235.355 92.7512 238.007 93.3128L242.141 94.1881C245.47 94.8928 247.867 97.8081 247.915 101.21L248.088 113.486C248.136 116.887 245.823 119.869 242.516 120.668L238.406 121.66C235.771 122.297 233.744 124.356 232.891 126.928C232.18 129.075 231.341 131.189 230.375 133.26C229.229 135.716 229.288 138.605 230.766 140.877L233.068 144.416C234.924 147.267 234.557 151.024 232.186 153.463L223.628 162.266C221.257 164.705 217.512 165.178 214.609 163.404L211.008 161.203C208.695 159.79 205.806 159.813 203.383 161.027C201.34 162.051 199.25 162.948 197.124 163.72C194.576 164.645 192.575 166.73 192.013 169.381L191.138 173.516C190.433 176.845 187.517 179.242 184.115 179.29L171.839 179.462C168.437 179.51 165.456 177.197 164.657 173.89L163.665 169.78C163.029 167.146 160.97 165.118 158.397 164.265C156.25 163.554 154.136 162.715 152.065 161.749C149.609 160.604 146.72 160.663 144.449 162.141L140.91 164.443C138.058 166.298 134.302 165.932 131.862 163.56L123.06 155.003C120.62 152.631 120.148 148.886 121.922 145.983L124.123 142.382C125.536 140.07 125.514 137.181 124.299 134.758C123.275 132.715 122.377 130.625 121.606 128.499C120.681 125.951 118.596 123.948 115.943 123.387L111.81 122.512C108.481 121.807 106.084 118.891 106.036 115.489L105.863 103.214C105.815 99.8122 108.129 96.8306 111.435 96.032L115.546 95.0393C118.18 94.403 120.208 92.3441 121.06 89.7717C121.772 87.6247 122.611 85.51 123.576 83.4393C124.721 80.9837 124.662 78.0956 123.184 75.8244L120.881 72.2841C119.026 69.4323 119.393 65.6761 121.764 63.2367L130.321 54.4344C132.693 51.9946 136.438 51.5223 139.341 53.2968L142.942 55.4982Z" fill="#E8505B" style="fill:#E8505B;fill:color(display-p3 0.9098 0.3137 0.3569);fill-opacity:1;"/>
<path fill-rule="evenodd" clip-rule="evenodd" d="M142.942 55.4982C145.255 56.9116 148.144 56.8897 150.567 55.6751C152.609 54.6513 154.699 53.7532 156.825 52.9813C159.373 52.0561 161.374 49.9711 161.936 47.3192L162.811 43.1845C163.516 39.856 166.431 37.459 169.833 37.4111L182.11 37.2382C185.511 37.1903 188.493 39.5038 189.292 42.8108L190.283 46.9187C190.92 49.5538 192.979 51.5814 195.553 52.4342C197.7 53.1459 199.815 53.9847 201.885 54.9506C204.341 56.0961 207.229 56.0366 209.501 54.5591L213.04 52.2566C215.892 50.4013 219.649 50.768 222.088 53.1398L230.891 61.6982C233.33 64.0698 233.802 67.8142 232.028 70.7172L229.828 74.3174C228.415 76.6297 228.437 79.5189 229.651 81.9416C230.675 83.9845 231.573 86.0749 232.345 88.201C233.27 90.7494 235.355 92.7512 238.007 93.3128L242.141 94.1881C245.47 94.8928 247.867 97.8081 247.915 101.21L248.088 113.486C248.136 116.887 245.823 119.869 242.516 120.668L238.406 121.66C235.771 122.297 233.744 124.356 232.891 126.928C232.18 129.075 231.341 131.189 230.375 133.26C229.229 135.716 229.288 138.605 230.766 140.877L233.068 144.416C234.924 147.267 234.557 151.024 232.186 153.463L223.628 162.266C221.257 164.705 217.512 165.178 214.609 163.404L211.008 161.203C208.695 159.79 205.806 159.813 203.383 161.027C201.34 162.051 199.25 162.948 197.124 163.72C194.576 164.645 192.575 166.73 192.013 169.381L191.138 173.516C190.433 176.845 187.517 179.242 184.115 179.29L171.839 179.462C168.437 179.51 165.456 177.197 164.657 173.89L163.665 169.78C163.029 167.146 160.97 165.118 158.397 164.265C156.25 163.554 154.136 162.715 152.065 161.749C149.609 160.604 146.72 160.663 144.449 162.141L140.91 164.443C138.058 166.298 134.302 165.932 131.862 163.56L123.06 155.003C120.62 152.631 120.148 148.886 121.922 145.983L124.123 142.382C125.536 140.07 125.514 137.181 124.299 134.758C123.275 132.715 122.377 130.625 121.606 128.499C120.681 125.951 118.596 123.948 115.943 123.387L111.81 122.512C108.481 121.807 106.084 118.891 106.036 115.489L105.863 103.214C105.815 99.8122 108.129 96.8306 111.435 96.032L115.546 95.0393C118.18 94.403 120.208 92.3441 121.06 89.7717C121.772 87.6247 122.611 85.51 123.576 83.4393C124.721 80.9837 124.662 78.0956 123.184 75.8244L120.881 72.2841C119.026 69.4323 119.393 65.6761 121.764 63.2367L130.321 54.4344C132.693 51.9946 136.438 51.5223 139.341 53.2968L142.942 55.4982Z" fill="url(#paint0_linear_2643_1688)" style=""/>
<path d="M145.655 90.4625V86.2622H146.665C147.569 86.2622 148.314 86.3685 148.845 86.6875C149.377 87.0065 149.696 87.5382 149.696 88.3889C149.696 89.8245 148.845 90.4625 146.825 90.4625H145.655ZM143.209 92.4829H146.772C150.759 92.4829 152.195 90.7283 152.195 88.2826C152.195 86.6343 151.504 85.5178 150.281 84.8798C149.324 84.3481 148.101 84.1886 146.612 84.1886H145.655V80.9985H151.025L151.663 79.0312H143.156V92.4829H143.209ZM153.843 92.4829H156.183L159.213 88.1231C159.798 87.3255 160.223 86.528 160.489 86.1027H160.542C160.489 86.6875 160.436 87.4319 160.436 88.1762V92.4297H162.829V82.8594H160.489L157.459 87.2192C156.927 88.0167 156.448 88.8143 156.183 89.2396H156.129C156.183 88.6547 156.236 87.9104 156.236 87.166V82.9126H153.843V92.4829ZM166.923 92.4829H169.368V84.8798H172.239L172.877 82.8594H163.998V84.8798H166.923V92.4829ZM173.728 97.3212H176.121V92.4829C176.599 92.6424 177.078 92.6956 177.609 92.6956C180.64 92.6956 182.607 90.622 182.607 87.6445C182.607 84.5608 180.8 82.5935 177.344 82.5935C176.014 82.5935 174.738 82.8594 173.675 83.1784V97.3212H173.728ZM176.121 90.4093V84.7734C176.493 84.6671 176.812 84.6139 177.237 84.6139C178.992 84.6139 180.108 85.571 180.108 87.6445C180.108 89.5054 179.204 90.6751 177.397 90.6751C176.918 90.6751 176.546 90.5688 176.121 90.4093ZM184.043 92.4829H186.382L189.413 88.1231C189.998 87.3255 190.423 86.528 190.689 86.1027H190.742C190.689 86.6875 190.636 87.4319 190.636 88.1762V92.4297H193.028V82.8594H190.689L187.658 87.2192C187.127 88.0167 186.648 88.8143 186.382 89.2396H186.329C186.382 88.6547 186.435 87.9104 186.435 87.166V82.9126H184.043V92.4829ZM194.942 92.4829H197.388V88.4952H198.824C199.09 88.4952 199.355 88.7611 199.674 89.3991L200.897 92.4829H203.502L201.748 88.8143C201.429 88.1762 201.11 87.8041 200.631 87.6445V87.5914C201.429 87.1129 201.535 85.7305 202.014 85.0393C202.173 84.8266 202.386 84.7203 202.705 84.7203C202.864 84.7203 203.077 84.7203 203.237 84.8266V82.753C202.971 82.6467 202.492 82.5935 202.226 82.5935C201.376 82.5935 200.844 82.9126 200.472 83.4442C199.674 84.6139 199.674 86.6343 198.505 86.6343H197.388V82.8594H194.942V92.4829ZM208.926 92.6956C210.255 92.6956 211.478 92.2702 212.222 91.7385L211.531 90.0903C210.84 90.4625 210.202 90.7283 209.298 90.7283C207.65 90.7283 206.586 89.6649 206.586 87.6977C206.586 85.9432 207.65 84.5608 209.457 84.5608C210.414 84.5608 211.106 84.8266 211.797 85.3051V83.2316C211.265 82.9125 210.414 82.5935 209.192 82.5935C206.32 82.5935 204.087 84.7203 204.087 87.7509C204.087 90.5156 205.789 92.6956 208.926 92.6956Z" fill="#655D53" style="fill:#655D53;fill:color(display-p3 0.3961 0.3647 0.3255);fill-opacity:1;"/>
<path d="M139.281 137.283H163.686V131.875H147.601C149.82 123.001 163.409 121.059 163.409 111.214C163.409 105.945 159.803 102.062 152.177 102.062C147.462 102.062 143.302 103.449 140.529 104.836L142.193 109.828C144.689 108.58 147.601 107.47 151.206 107.47C153.979 107.47 156.614 108.718 156.614 111.908C156.614 119.118 140.668 119.673 139.281 137.283ZM164.379 128.686H180.048V137.283H186.288V128.686H191.557V123.417H186.288V102.062H181.712L164.379 124.526V128.686ZM171.451 123.694L180.325 111.769C180.325 112.74 180.048 115.79 180.048 118.563V123.555H175.888C174.64 123.555 172.283 123.694 171.451 123.694Z" fill="#655D53" style="fill:#655D53;fill:color(display-p3 0.3961 0.3647 0.3255);fill-opacity:1;"/>
<path d="M212.216 128.682C219.01 128.682 224.557 123.135 224.557 116.341C224.557 109.546 219.01 104 212.216 104C205.422 104 199.875 109.546 199.875 116.341C200.014 123.135 205.422 128.682 212.216 128.682Z" stroke="#655D53" style="stroke:#655D53;stroke:color(display-p3 0.3961 0.3647 0.3255);stroke-opacity:1;" stroke-width="1.16966"/>
<path d="M219.988 116.341H213.193V109.547H211.391V118.144H219.988V116.341Z" fill="#655D53" style="fill:#655D53;fill:color(display-p3 0.3961 0.3647 0.3255);fill-opacity:1;"/>
<path fill-rule="evenodd" clip-rule="evenodd" d="M35.024 106.126C37.3356 107.361 40.118 107.163 42.4281 105.926C43.0684 105.583 43.7163 105.258 44.3711 104.952C46.7463 103.841 48.5701 101.728 48.9633 99.1357C49.4569 95.8818 52.1378 93.4032 55.4204 93.1658L60.5201 92.797C63.8024 92.5597 66.8118 94.6264 67.7687 97.7751C68.5311 100.284 70.6402 102.112 73.1507 102.87C73.8428 103.079 74.5307 103.307 75.2137 103.554C77.6779 104.446 80.4598 104.241 82.5699 102.687C85.2193 100.735 88.8669 100.878 91.3554 103.031L95.2245 106.379C97.7122 108.531 98.3783 112.119 96.8289 115.021C95.5947 117.332 95.7926 120.114 97.0295 122.424C97.3726 123.065 97.6972 123.713 98.0035 124.368C99.1142 126.744 101.227 128.568 103.82 128.961C107.074 129.455 109.552 132.136 109.789 135.418L110.158 140.516C110.396 143.799 108.329 146.809 105.18 147.766C102.671 148.529 100.843 150.638 100.085 153.148C99.8764 153.84 99.6485 154.527 99.4015 155.21C98.5094 157.674 98.7137 160.457 100.268 162.567C102.219 165.216 102.076 168.863 99.9239 171.352L96.5768 175.221C94.4245 177.709 90.8363 178.375 87.9343 176.826C85.6224 175.592 82.8398 175.79 80.5293 177.027C79.889 177.37 79.2409 177.694 78.586 178C76.2107 179.111 74.387 181.223 73.9937 183.816C73.5001 187.07 70.8192 189.549 67.5365 189.786L62.4378 190.155C59.155 190.392 56.1452 188.325 55.1882 185.176C54.4258 182.667 52.317 180.839 49.8066 180.081C49.1146 179.872 48.4268 179.645 47.744 179.397C45.2797 178.506 42.4978 178.71 40.3878 180.264C37.7387 182.216 34.0915 182.073 31.6032 179.92L27.7339 176.573C25.2458 174.421 24.5796 170.832 26.1292 167.93C27.3635 165.619 27.1656 162.837 25.9285 160.527C25.5856 159.886 25.2609 159.238 24.9546 158.583C23.8439 156.207 21.7311 154.383 19.1383 153.99C15.8847 153.496 13.4064 150.816 13.169 147.533L12.8004 142.435C12.563 139.152 14.63 136.142 17.7793 135.185C20.2881 134.422 22.1165 132.313 22.8739 129.803C23.0826 129.111 23.3104 128.423 23.5574 127.741C24.449 125.276 24.2442 122.495 22.69 120.384C20.7386 117.735 20.8815 114.087 23.0343 111.599L26.3801 107.731C28.5328 105.242 32.1216 104.576 35.024 106.126Z" fill="#E8505B" style="fill:#E8505B;fill:color(display-p3 0.9098 0.3137 0.3569);fill-opacity:1;"/>
<path fill-rule="evenodd" clip-rule="evenodd" d="M35.024 106.126C37.3356 107.361 40.118 107.163 42.4281 105.926C43.0684 105.583 43.7163 105.258 44.3711 104.952C46.7463 103.841 48.5701 101.728 48.9633 99.1357C49.4569 95.8818 52.1378 93.4032 55.4204 93.1658L60.5201 92.797C63.8024 92.5597 66.8118 94.6264 67.7687 97.7751C68.5311 100.284 70.6402 102.112 73.1507 102.87C73.8428 103.079 74.5307 103.307 75.2137 103.554C77.6779 104.446 80.4598 104.241 82.5699 102.687C85.2193 100.735 88.8669 100.878 91.3554 103.031L95.2245 106.379C97.7122 108.531 98.3783 112.119 96.8289 115.021C95.5947 117.332 95.7926 120.114 97.0295 122.424C97.3726 123.065 97.6972 123.713 98.0035 124.368C99.1142 126.744 101.227 128.568 103.82 128.961C107.074 129.455 109.552 132.136 109.789 135.418L110.158 140.516C110.396 143.799 108.329 146.809 105.18 147.766C102.671 148.529 100.843 150.638 100.085 153.148C99.8764 153.84 99.6485 154.527 99.4015 155.21C98.5094 157.674 98.7137 160.457 100.268 162.567C102.219 165.216 102.076 168.863 99.9239 171.352L96.5768 175.221C94.4245 177.709 90.8363 178.375 87.9343 176.826C85.6224 175.592 82.8398 175.79 80.5293 177.027C79.889 177.37 79.2409 177.694 78.586 178C76.2107 179.111 74.387 181.223 73.9937 183.816C73.5001 187.07 70.8192 189.549 67.5365 189.786L62.4378 190.155C59.155 190.392 56.1452 188.325 55.1882 185.176C54.4258 182.667 52.317 180.839 49.8066 180.081C49.1146 179.872 48.4268 179.645 47.744 179.397C45.2797 178.506 42.4978 178.71 40.3878 180.264C37.7387 182.216 34.0915 182.073 31.6032 179.92L27.7339 176.573C25.2458 174.421 24.5796 170.832 26.1292 167.93C27.3635 165.619 27.1656 162.837 25.9285 160.527C25.5856 159.886 25.2609 159.238 24.9546 158.583C23.8439 156.207 21.7311 154.383 19.1383 153.99C15.8847 153.496 13.4064 150.816 13.169 147.533L12.8004 142.435C12.563 139.152 14.63 136.142 17.7793 135.185C20.2881 134.422 22.1165 132.313 22.8739 129.803C23.0826 129.111 23.3104 128.423 23.5574 127.741C24.449 125.276 24.2442 122.495 22.69 120.384C20.7386 117.735 20.8815 114.087 23.0343 111.599L26.3801 107.731C28.5328 105.242 32.1216 104.576 35.024 106.126Z" fill="url(#paint1_linear_2643_1688)" style=""/>
<g clip-path="url(#clip1_2643_1688)">
<mask id="mask0_2643_1688" style="mask-type:luminance" maskUnits="userSpaceOnUse" x="-169" y="78" width="466" height="444">
<path d="M-168.902 521.82H296.963V78.3251H-168.902V521.82Z" fill="white" style="fill:white;fill-opacity:1;"/>
</mask>
<g mask="url(#mask0_2643_1688)">
<path d="M63.3739 150.922C62.423 150.862 61.3266 150.703 60.4618 150.465C60.2998 150.42 59.6291 150.185 59.4585 150.111C56.4478 148.783 54.3504 145.885 54.3504 142.523C54.3504 137.911 58.2916 134.154 63.1391 134.154C67.625 134.154 71.3351 137.373 71.8621 141.512C71.925 142.005 72.3248 142.406 72.8224 142.406H74.1802C74.6868 142.406 75.0998 141.991 75.0518 141.487C74.4992 135.692 69.369 131.136 63.1391 131.136C56.5441 131.136 51.1762 136.243 51.1762 142.523C51.1762 146.852 53.7337 150.617 57.4785 152.541C58.1547 152.881 59.1251 153.232 59.4546 153.328C60.522 153.631 61.8321 153.832 62.9982 153.916C63.3942 153.945 64.7771 153.959 65.1801 153.961H86.1342C86.6369 153.961 87.0445 153.553 87.0445 153.051V151.861C87.0445 151.358 86.6369 150.95 86.1342 150.95H65.2169C64.9265 150.95 63.6579 150.94 63.3739 150.922ZM65.2169 146.195C64.986 146.195 63.7785 146.187 63.5554 146.169C63.1774 146.139 62.6296 146.085 62.2774 146.009C61.8799 145.907 61.5066 145.773 61.3383 145.685C60.1589 145.078 59.3552 143.89 59.3552 142.523C59.3552 140.533 61.048 138.919 63.1391 138.919C64.87 138.919 66.3274 140.027 66.7767 141.54C66.9163 142.011 67.3065 142.406 67.7971 142.406H69.0411C69.5503 142.406 69.9673 141.986 69.8828 141.484C69.3617 138.385 66.5429 136.016 63.1391 136.016C59.363 136.016 56.3022 138.929 56.3022 142.523C56.3022 145.057 57.8283 147.246 60.0509 148.318C60.3929 148.509 61.0362 148.709 61.2193 148.754C61.847 148.911 62.6899 149.018 63.3739 149.066C63.626 149.086 64.8584 149.095 65.1241 149.097C65.1253 149.097 65.1261 149.098 65.1261 149.099C65.1261 149.1 65.1271 149.101 65.1283 149.101H86.1334C86.6361 149.101 87.0437 148.694 87.0437 148.191V147.105C87.0437 146.602 86.6361 146.195 86.1334 146.195H65.2169ZM49.2197 153.039C49.2197 153.542 48.8121 153.95 48.3093 153.95H46.9339C46.4311 153.95 46.0235 153.542 46.0235 153.039V135.072C46.0235 134.569 45.616 134.161 45.1132 134.161H42.2633C41.7605 134.161 41.3529 133.754 41.3529 133.251V132.028C41.3529 131.525 41.7605 131.118 42.2633 131.118H48.3093C48.8121 131.118 49.2197 131.525 49.2197 132.028V153.039ZM38.7541 135.682C38.2513 135.682 37.8438 136.089 37.8438 136.592V137.698C37.8438 138.201 38.2513 138.608 38.7541 138.608H40.4426C40.9454 138.608 41.3529 139.016 41.3529 139.519V153.039C41.3529 153.542 41.7605 153.95 42.2633 153.95H43.5135C44.0163 153.95 44.4239 153.542 44.4239 153.039V136.592C44.4239 136.089 44.0163 135.682 43.5135 135.682H38.7541Z" fill="#655D53" style="fill:#655D53;fill:color(display-p3 0.3961 0.3647 0.3255);fill-opacity:1;"/>
</g>
</g>
<path d="M209.787 118.028L192.68 120.58L191.879 105.943C191.879 105.943 190.643 105.89 189.55 99.6453C188.456 93.4 186.438 82.816 186.438 82.816C193.437 78.4879 202.268 78.1362 209.518 81.8984L210.593 82.4566L209.787 118.028Z" fill="#FFBE9D" style="fill:#FFBE9D;fill:color(display-p3 1.0000 0.7451 0.6157);fill-opacity:1;"/>
<path d="M209.82 90.4546C209.923 90.3906 214.068 88.4619 214.619 92.7633C215.17 97.0647 210.586 96.7601 210.562 96.6382C210.538 96.5157 209.82 90.4546 209.82 90.4546Z" fill="#FFBE9D" style="fill:#FFBE9D;fill:color(display-p3 1.0000 0.7451 0.6157);fill-opacity:1;"/>
<path d="M188.864 92.9274C188.746 92.8992 184.629 92.5101 185.463 96.7658C186.297 101.021 190.552 99.2862 190.536 99.162C190.52 99.0395 188.864 92.9274 188.864 92.9274Z" fill="#FFBE9D" style="fill:#FFBE9D;fill:color(display-p3 1.0000 0.7451 0.6157);fill-opacity:1;"/>
<path d="M211.172 89.7519C211.09 93.4442 211.526 95.3067 211.301 97.8004C210.945 101.747 209.466 104.968 206.237 107.433C203.008 109.897 198.22 110.637 194.766 108.553C192.369 107.107 190.548 105.329 189.8 102.687C189.051 100.046 187.966 95.331 187.508 92.6249C186.681 87.7463 185.586 83.1312 185.586 83.1312L199.631 78.2656L208.621 81.6563L211.172 89.7519Z" fill="#333439" style="fill:#333439;fill:color(display-p3 0.2000 0.2039 0.2235);fill-opacity:1;"/>
<path d="M199.273 110.781C199.267 110.884 200.448 110.971 201.841 110.587C203.236 110.21 204.203 109.536 204.144 109.451C204.084 109.35 203.068 109.847 201.734 110.205C200.403 110.575 199.272 110.664 199.273 110.781Z" fill="#46474E" style="fill:#46474E;fill:color(display-p3 0.2745 0.2784 0.3059);fill-opacity:1;"/>
<path d="M211.454 95.9592C211.282 92.2167 210.876 87.9702 210.844 84.0008C210.832 82.5114 211.029 80.3291 210.658 78.8869C210.285 77.4394 209.896 75.9546 209.011 74.7379C207.901 73.2112 206.026 72.2358 204.088 72.1748C202.15 72.1147 200.193 72.9705 198.95 74.4241C197.653 73.0749 195.458 72.6188 193.682 73.3292C191.905 74.0396 190.664 75.8686 190.704 77.7204C189.523 76.9422 187.797 77.0405 186.7 77.9481C185.602 78.8557 185.23 80.4921 185.838 81.7439C184.827 82.0781 184.01 82.9264 183.736 83.9239C183.463 84.9221 183.741 86.0399 184.452 86.7983C185.283 87.6854 186.58 88.0379 187.471 88.8679C188.498 89.8235 188.847 91.4004 188.319 92.6941" fill="#333439" style="fill:#333439;fill:color(display-p3 0.2000 0.2039 0.2235);fill-opacity:1;"/>
<path d="M189.236 85.9392C189.223 85.9468 189.283 86.0884 189.461 86.3146C189.641 86.5369 189.952 86.8453 190.449 87.0905C190.938 87.3334 191.638 87.5108 192.422 87.3608C193.194 87.2176 194.036 86.7532 194.569 85.9369L194.251 85.9064C194.554 86.8057 195.457 87.523 196.531 87.7339C197.607 87.992 198.87 87.6174 199.725 86.8103C200.524 86.0846 200.999 85.126 201.183 84.1932L200.839 84.2884C201.811 85.3117 203.229 85.6582 204.393 85.4907C205.587 85.3316 206.474 84.631 206.971 83.9587C207.481 83.2741 207.652 82.6056 207.703 82.1609C207.749 81.7094 207.693 81.4672 207.677 81.4688C207.646 81.4695 207.654 81.7132 207.568 82.1419C207.479 82.5652 207.275 83.1889 206.769 83.8117C206.273 84.4262 205.44 85.0392 204.351 85.1602C203.285 85.2927 201.993 84.9493 201.137 84.0295L200.872 83.7439L200.793 84.1247C200.617 84.982 200.171 85.8661 199.447 86.5217C198.662 87.2511 197.577 87.577 196.616 87.3585C195.653 87.1773 194.86 86.5544 194.587 85.7907L194.463 85.4465L194.268 85.7595C193.813 86.4882 193.062 86.9336 192.366 87.0844C191.661 87.2428 191.013 87.1095 190.54 86.907C189.577 86.4821 189.28 85.8942 189.236 85.9392Z" fill="#585960" style="fill:#585960;fill:color(display-p3 0.3451 0.3490 0.3765);fill-opacity:1;"/>
<path d="M188.983 84.2347C189.057 84.2385 188.856 83.5387 189.348 82.577C189.595 82.1126 190.039 81.61 190.708 81.3443C191.364 81.0747 192.231 81.0366 192.978 81.3938L193.369 81.5803L193.265 81.1676C193.165 80.7747 193.147 80.3445 193.214 79.9143C193.373 78.9495 193.944 78.1005 194.668 77.6292C195.391 77.1434 196.227 77.0246 196.89 77.0733C198.256 77.1906 198.895 77.8645 198.934 77.7921C198.949 77.7777 198.819 77.6033 198.497 77.3749C198.175 77.1541 197.644 76.8868 196.923 76.7954C196.212 76.7063 195.288 76.7985 194.459 77.3277C193.632 77.8432 192.987 78.7805 192.808 79.8587C192.733 80.3399 192.756 80.8257 192.874 81.2704L193.16 81.045C192.282 80.6376 191.303 80.7062 190.569 81.0321C189.818 81.358 189.343 81.9504 189.11 82.4704C188.87 82.9981 188.842 83.4672 188.866 83.7733C188.894 84.0816 188.963 84.2392 188.983 84.2347Z" fill="#585960" style="fill:#585960;fill:color(display-p3 0.3451 0.3490 0.3765);fill-opacity:1;"/>
<path d="M198.221 82.8587C198.272 82.826 198.17 82.6166 198.138 82.2686C198.102 81.9199 198.164 81.4379 198.385 80.9315C198.603 80.4419 198.875 79.9348 199.036 79.6622C199.223 79.4056 199.456 79.5259 199.484 79.4992C199.505 79.4886 199.491 79.4003 199.36 79.3424C199.242 79.2822 198.995 79.3066 198.824 79.4734C198.652 79.6386 198.547 79.8297 198.403 80.0421C198.267 80.2576 198.123 80.5051 198.005 80.7853C197.758 81.3427 197.729 81.9374 197.852 82.3242C197.972 82.7186 198.182 82.8892 198.221 82.8587Z" fill="#585960" style="fill:#585960;fill:color(display-p3 0.3451 0.3490 0.3765);fill-opacity:1;"/>
<path d="M205.93 76.0938C205.974 76.0702 205.878 75.7602 205.534 75.3567C205.358 75.161 205.114 74.9387 204.767 74.7932C204.425 74.6425 203.969 74.6059 203.551 74.7353C202.7 74.9973 202.225 75.6521 201.968 76.0816C201.709 76.5293 201.606 76.8247 201.651 76.8506C201.702 76.8803 201.899 76.6268 202.208 76.2361C202.517 75.8547 202.978 75.3217 203.666 75.1145C204.353 74.8937 204.971 75.2409 205.326 75.5547C205.69 75.8722 205.877 76.1265 205.93 76.0938Z" fill="#585960" style="fill:#585960;fill:color(display-p3 0.3451 0.3490 0.3765);fill-opacity:1;"/>
<path d="M206.626 94.6142C206.72 94.6576 207.398 93.3716 207.711 91.6378C208.034 89.9055 207.855 88.4808 207.75 88.4923C207.629 88.4976 207.622 89.8918 207.307 91.5723C207.004 93.2543 206.514 94.5708 206.626 94.6142Z" fill="#585960" style="fill:#585960;fill:color(display-p3 0.3451 0.3490 0.3765);fill-opacity:1;"/>
<path d="M204.843 95.948C204.948 95.9784 205.341 95.0426 205.6 93.8304C205.863 92.6182 205.89 91.6123 205.78 91.6017C205.665 91.5902 205.458 92.5618 205.199 93.7535C204.943 94.9451 204.732 95.916 204.843 95.948Z" fill="#585960" style="fill:#585960;fill:color(display-p3 0.3451 0.3490 0.3765);fill-opacity:1;"/>
<path d="M192.719 98.219C192.618 98.2129 192.704 100.021 193.827 101.898C194.931 103.787 196.492 104.768 196.537 104.681C196.623 104.588 195.237 103.508 194.183 101.699C193.106 99.9033 192.844 98.1939 192.719 98.219Z" fill="#585960" style="fill:#585960;fill:color(display-p3 0.3451 0.3490 0.3765);fill-opacity:1;"/>
<path d="M190.267 95.4067C190.171 95.3762 189.855 96.9943 190.533 98.8392C191.192 100.693 192.476 101.753 192.532 101.67C192.629 101.59 191.541 100.461 190.92 98.7045C190.274 96.9585 190.395 95.409 190.267 95.4067Z" fill="#585960" style="fill:#585960;fill:color(display-p3 0.3451 0.3490 0.3765);fill-opacity:1;"/>
<path d="M191.938 117.604L192.088 113.933L209.969 110.156L210.601 113.178L191.938 117.604Z" fill="white" style="fill:white;fill-opacity:1;"/>
<path d="M135.97 161.998C135.97 161.998 135.087 162.452 135.703 163.099C136.319 163.745 144.451 170.966 145.55 171.675C146.648 172.383 149.939 173.237 149.939 173.237L152.087 172.837L153.345 167.658L154.862 165.167L154.475 164.594L155.904 159.057C155.904 159.057 154.664 158.554 154.097 159.447C153.297 160.705 152.192 162.74 152.192 162.74C152.192 162.74 149.956 163.08 149.142 162.11C148.328 161.139 143.588 153.14 143.015 153.001C142.441 152.862 141.57 153.037 142.034 154.309C142.499 155.582 145.53 160.117 145.414 160.366C145.298 160.614 144.838 160.955 144.616 160.735C144.394 160.515 139.557 154.129 138.791 154.019C137.975 153.903 137.389 154.562 138.139 155.794C138.889 157.025 142.825 161.515 142.645 161.803C142.464 162.091 141.941 161.743 141.941 161.743C141.941 161.743 137.44 157.044 136.809 157.128C136.108 157.221 135.998 157.927 136.354 158.51C136.709 159.093 141.27 163.502 141.35 163.853C141.402 164.082 141.209 164.99 140.842 164.68C140.476 164.37 136.327 161.7 135.97 161.998Z" fill="#FFBE9D" style="fill:#FFBE9D;fill:color(display-p3 1.0000 0.7451 0.6157);fill-opacity:1;"/>
<path d="M181.938 208.776V253.5H187.5H199.998H203.498L208.701 224.07L210.165 223.98L217.498 253.5H223.5C224.513 253.247 241 253.5 241 253.5L237.098 207.38L235.326 197L189.757 198.013L181.938 208.776Z" fill="#46474E" style="fill:#46474E;fill:color(display-p3 0.2745 0.2784 0.3059);fill-opacity:1;"/>
<path d="M233.165 175.677L231.847 140.146L229.655 115.61H214.715L210.9 111.891L191.737 115.61L189.963 120.962C189.963 120.962 174.572 125.862 173.719 127.356C173.719 127.356 179.117 148.661 181.659 160.599C183.404 168.791 185.24 177.186 185.24 177.186L180.379 216.49C180.186 216.49 209.984 215.179 209.984 215.179L238.771 212.066L233.165 175.677Z" fill="#585960" style="fill:#585960;fill:color(display-p3 0.3451 0.3490 0.3765);fill-opacity:1;"/>
<path d="M248.738 104.442C248.738 104.442 244.352 104.786 244.093 104.786C243.833 104.786 239.319 105.201 239.319 105.201C239.319 105.201 239.526 104.111 240.564 103.644C241.602 103.177 243.581 102.453 243.789 102.09C243.997 101.727 244.457 101.205 244.042 100.634C243.627 100.063 236.063 92.3857 235.804 91.9707C235.544 91.5557 235.129 90.7767 235.804 90.6214C236.478 90.4661 237.308 91.1925 237.879 91.6593C238.451 92.126 241.395 94.6144 241.706 94.4583C242.018 94.3022 241.758 94.0433 241.758 94.0433C241.758 94.0433 236.756 88.896 236.705 88.7399C236.653 88.5846 236.063 87.067 237.488 87.316C238.17 87.4356 243.367 92.7458 243.575 92.5387C243.783 92.3308 239.216 86.467 239.631 86.0002C240.046 85.5335 240.513 85.0659 241.343 86.0002C242.173 86.9345 245.75 91.7087 246.012 91.7605C246.274 91.8123 246.585 91.5527 246.481 91.1894C246.377 90.8262 244.252 87.1264 244.252 86.7107C244.252 86.2957 244.669 86.1929 245.084 86.1411C245.499 86.0893 249.957 92.5387 249.957 92.5387C249.957 92.5387 253.397 98.0744 253.745 98.714C254.148 99.4564 254.731 101.516 254.731 101.516L248.738 104.442Z" fill="#FFBE9D" style="fill:#FFBE9D;fill:color(display-p3 1.0000 0.7451 0.6157);fill-opacity:1;"/>
<path d="M247.632 104.726L250.62 116.252L243.79 118.813L229.062 115.611V137.382L231.145 143.044C231.145 143.044 261.966 128.17 264.013 126.532C267.84 123.471 261.765 112.93 261.765 112.93L256.17 100.883L247.632 104.726Z" fill="#585960" style="fill:#585960;fill:color(display-p3 0.3451 0.3490 0.3765);fill-opacity:1;"/>
<path d="M173.721 127.359L170.274 134.261L161.564 163.098L151.83 165.694L150 174.591C150 174.591 165.222 178.16 168.045 176.934C172.84 174.852 180.841 154.998 180.841 154.998L179.759 138.025L173.721 127.359Z" fill="#585960" style="fill:#585960;fill:color(display-p3 0.3451 0.3490 0.3765);fill-opacity:1;"/>
<path d="M260.285 120.965C260.198 121.061 258.482 119.2 255.744 117.832C253.021 116.433 250.506 116.151 250.531 116.024C250.536 115.977 251.168 115.985 252.169 116.177C253.168 116.366 254.531 116.775 255.924 117.478C257.314 118.185 258.45 119.042 259.194 119.736C259.94 120.429 260.321 120.934 260.285 120.965Z" fill="#46474E" style="fill:#46474E;fill:color(display-p3 0.2745 0.2784 0.3059);fill-opacity:1;"/>
<path d="M257.384 116.186C257.35 116.306 255.725 115.755 253.668 115.899C251.608 116.017 250.066 116.768 250.017 116.654C249.955 116.579 251.484 115.63 253.643 115.503C255.799 115.356 257.435 116.104 257.384 116.186Z" fill="#46474E" style="fill:#46474E;fill:color(display-p3 0.2745 0.2784 0.3059);fill-opacity:1;"/>
<path d="M214.719 115.619C214.734 115.643 214.435 115.848 213.883 116.2C213.609 116.382 213.264 116.588 212.852 116.807C212.444 117.031 211.981 117.292 211.448 117.537C210.4 118.067 209.1 118.588 207.64 119.117C206.172 119.618 204.531 120.094 202.784 120.489C199.283 121.261 196.044 121.566 193.704 121.65C192.533 121.694 191.585 121.697 190.93 121.671C190.275 121.649 189.914 121.624 189.914 121.597C189.914 121.569 190.276 121.543 190.929 121.517C191.582 121.495 192.526 121.45 193.689 121.37C196.015 121.215 199.224 120.867 202.698 120.101C204.431 119.711 206.06 119.248 207.522 118.77C208.975 118.265 210.274 117.776 211.329 117.282C211.866 117.055 212.334 116.814 212.749 116.609C213.168 116.411 213.521 116.226 213.805 116.066C214.38 115.757 214.705 115.596 214.719 115.619Z" fill="#46474E" style="fill:#46474E;fill:color(display-p3 0.2745 0.2784 0.3059);fill-opacity:1;"/>
<path d="M219.237 177.233C219.242 177.26 218.851 177.358 218.138 177.513C217.426 177.675 216.385 177.855 215.091 178.029C212.505 178.38 208.883 178.6 204.902 178.302C200.92 177.995 197.373 177.231 194.869 176.494C193.617 176.127 192.614 175.792 191.935 175.524C191.253 175.264 190.882 175.107 190.891 175.082C190.9 175.056 191.29 175.163 191.984 175.378C192.676 175.6 193.688 175.893 194.943 176.223C197.453 176.888 200.98 177.602 204.931 177.906C208.881 178.202 212.476 178.028 215.057 177.75C216.348 177.613 217.392 177.476 218.11 177.361C218.83 177.254 219.232 177.206 219.237 177.233Z" fill="#46474E" style="fill:#46474E;fill:color(display-p3 0.2745 0.2784 0.3059);fill-opacity:1;"/>
<path d="M161.023 165.744C160.918 165.714 161.987 161.732 163.41 156.852C164.834 151.971 166.073 148.04 166.178 148.07C166.283 148.101 165.214 152.082 163.791 156.963C162.367 161.843 161.128 165.775 161.023 165.744Z" fill="#46474E" style="fill:#46474E;fill:color(display-p3 0.2745 0.2784 0.3059);fill-opacity:1;"/>
<path d="M207.757 188.75C207.867 188.747 208.066 193.179 208.202 198.646C208.339 204.115 208.361 208.55 208.251 208.552C208.141 208.555 207.942 204.125 207.806 198.656C207.669 193.188 207.648 188.752 207.757 188.75Z" fill="#46474E" style="fill:#46474E;fill:color(display-p3 0.2745 0.2784 0.3059);fill-opacity:1;"/>
<path d="M218.669 222.434C218.689 222.542 214.817 223.342 210.023 224.22C205.227 225.099 201.325 225.724 201.305 225.616C201.285 225.509 205.156 224.709 209.952 223.83C214.746 222.952 218.65 222.327 218.669 222.434Z" fill="#585960" style="fill:#585960;fill:color(display-p3 0.3451 0.3490 0.3765);fill-opacity:1;"/>
<path d="M185.244 177.189C185.231 177.192 185.188 177.058 185.119 176.8C185.044 176.498 184.95 176.123 184.836 175.668C184.593 174.625 184.264 173.21 183.864 171.488C183.059 167.902 181.968 163.044 180.763 157.676C179.564 152.305 178.48 147.446 177.679 143.858C177.293 142.133 176.977 140.716 176.743 139.671C176.645 139.212 176.565 138.834 176.5 138.529C176.449 138.267 176.428 138.128 176.441 138.125C176.454 138.122 176.501 138.255 176.578 138.51C176.662 138.81 176.766 139.182 176.893 139.634C177.159 140.613 177.52 142.034 177.952 143.794C178.815 147.314 179.948 152.191 181.151 157.59C182.354 162.986 183.402 167.881 184.139 171.429C184.489 173.163 184.776 174.586 184.988 175.636C185.072 176.098 185.141 176.477 185.198 176.784C185.241 177.047 185.257 177.186 185.244 177.189Z" fill="#46474E" style="fill:#46474E;fill:color(display-p3 0.2745 0.2784 0.3059);fill-opacity:1;"/>
<path d="M231.109 127.922C231.116 127.921 231.128 127.995 231.144 128.139C231.16 128.305 231.179 128.516 231.204 128.778C231.253 129.34 231.319 130.169 231.387 131.237C231.532 133.374 231.701 136.468 231.894 140.291C232.275 147.939 232.723 158.507 233.161 170.181C233.23 172.062 233.298 173.914 233.362 175.672L233.359 175.649C234.915 185.919 236.292 195.009 237.285 201.564C237.76 204.809 238.142 207.425 238.411 209.262C238.532 210.144 238.627 210.839 238.696 211.341C238.723 211.561 238.744 211.739 238.761 211.881C238.773 212.003 238.777 212.066 238.771 212.067C238.765 212.068 238.749 212.007 238.725 211.887C238.698 211.747 238.665 211.571 238.624 211.353C238.539 210.853 238.421 210.163 238.271 209.284C237.974 207.452 237.551 204.842 237.027 201.604C236.002 195.053 234.579 185.971 232.973 175.709L232.971 175.698L232.97 175.685C232.905 173.928 232.836 172.075 232.765 170.195C231.862 147.148 231.194 130.081 231.109 127.922Z" fill="#46474E" style="fill:#46474E;fill:color(display-p3 0.2745 0.2784 0.3059);fill-opacity:1;"/>
<g opacity="0.3">
<path d="M212.742 116.969C205.54 119.871 198.423 121.663 190.695 121.668C191.682 122.744 193.211 123.303 194.726 123.443C196.242 123.582 197.762 123.343 199.248 123.056C203.008 122.332 206.694 121.296 210.247 119.967C211.473 119.508 212.91 118.185 212.742 116.969Z" fill="#333439" style="fill:#333439;fill:color(display-p3 0.2000 0.2039 0.2235);fill-opacity:1;"/>
</g>
<g opacity="0.3">
<path d="M176.867 139.375C176.985 142.149 176.678 145.483 177.259 148.197C177.84 150.911 178.909 153.571 180.726 155.656C179.383 150.43 178.248 144.704 176.867 139.375Z" fill="#333439" style="fill:#333439;fill:color(display-p3 0.2000 0.2039 0.2235);fill-opacity:1;"/>
</g>
<g opacity="0.3">
<path d="M199.205 181.185L198.969 181.148C201.3 183.797 205.168 184.072 208.696 184.097C212.224 184.121 216.057 183.893 218.424 181.277C212.1 182.55 205.516 182.518 199.205 181.185Z" fill="#333439" style="fill:#333439;fill:color(display-p3 0.2000 0.2039 0.2235);fill-opacity:1;"/>
</g>
<path d="M-0.03125 196.047V209.966" stroke="#D7D7D7" style="stroke:#D7D7D7;stroke:color(display-p3 0.8417 0.8417 0.8417);stroke-opacity:1;" stroke-width="0.910335" stroke-linecap="round" stroke-linejoin="round"/>
<path d="M6.91903 203H-7" stroke="#D7D7D7" style="stroke:#D7D7D7;stroke:color(display-p3 0.8417 0.8417 0.8417);stroke-opacity:1;" stroke-width="0.910335" stroke-linecap="round" stroke-linejoin="round"/>
<path d="M15.7812 180.539V205.846" stroke="#D7D7D7" style="stroke:#D7D7D7;stroke:color(display-p3 0.8417 0.8417 0.8417);stroke-opacity:1;" stroke-width="0.910335" stroke-linecap="round" stroke-linejoin="round"/>
<path d="M28.4323 193.188H3.125" stroke="#D7D7D7" style="stroke:#D7D7D7;stroke:color(display-p3 0.8417 0.8417 0.8417);stroke-opacity:1;" stroke-width="0.910335" stroke-linecap="round" stroke-linejoin="round"/>
<path d="M284.088 213.001C284.088 214.949 282.504 216.533 280.556 216.533C278.607 216.533 277.023 214.949 277.023 213.001C277.023 211.053 278.607 209.469 280.556 209.469C282.504 209.469 284.088 211.053 284.088 213.001Z" stroke="#FFA469" style="stroke:#FFA469;stroke:color(display-p3 1.0000 0.6431 0.4118);stroke-opacity:1;" stroke-width="0.910335" stroke-linecap="round" stroke-linejoin="round"/>
<path d="M22.5359 52.5562C23.9537 52.5562 25.103 51.4068 25.103 49.989C25.103 48.5712 23.9537 47.4219 22.5359 47.4219C21.1181 47.4219 19.9688 48.5712 19.9688 49.989C19.9688 51.4068 21.1181 52.5562 22.5359 52.5562Z" stroke="#FFA469" style="stroke:#FFA469;stroke:color(display-p3 1.0000 0.6431 0.4118);stroke-opacity:1;" stroke-width="0.910335" stroke-linecap="round" stroke-linejoin="round"/>
<path d="M26.462 29.924C29.4786 29.924 31.924 27.4786 31.924 24.462C31.924 21.4454 29.4786 19 26.462 19C23.4454 19 21 21.4454 21 24.462C21 27.4786 23.4454 29.924 26.462 29.924Z" stroke="#D7D7D7" style="stroke:#D7D7D7;stroke:color(display-p3 0.8417 0.8417 0.8417);stroke-opacity:1;" stroke-width="0.910335" stroke-linecap="round" stroke-linejoin="round"/>
<path d="M10.3366 239.192C10.3366 240.785 9.04393 242.087 7.44174 242.087C5.83955 242.087 4.54688 240.794 4.54688 239.192C4.54688 237.59 5.83955 236.297 7.44174 236.297C9.04393 236.297 10.3366 237.59 10.3366 239.192Z" stroke="#D7D7D7" style="stroke:#D7D7D7;stroke:color(display-p3 0.8417 0.8417 0.8417);stroke-opacity:1;" stroke-width="0.910335" stroke-linecap="round" stroke-linejoin="round"/>
<path d="M22.9814 226.288C22.9814 227.526 21.971 228.536 20.7329 228.536C19.4948 228.536 18.4844 227.526 18.4844 226.288C18.4844 225.05 19.4948 224.039 20.7329 224.039C21.971 224.039 22.9814 225.05 22.9814 226.288Z" stroke="#FFA469" style="stroke:#FFA469;stroke:color(display-p3 1.0000 0.6431 0.4118);stroke-opacity:1;" stroke-width="0.910335" stroke-linecap="round" stroke-linejoin="round"/>
</g>
<defs>
<linearGradient id="paint0_linear_2643_1688" x1="89.4103" y1="91.5992" x2="112.79" y2="148.833" gradientUnits="userSpaceOnUse">
<stop stop-color="#FFD66B" style="stop-color:#FFD66B;stop-color:color(display-p3 1.0000 0.8378 0.4208);stop-opacity:1;"/>
<stop offset="1" stop-color="#FFA469" style="stop-color:#FFA469;stop-color:color(display-p3 1.0000 0.6431 0.4118);stop-opacity:1;"/>
</linearGradient>
<linearGradient id="paint1_linear_2643_1688" x1="0.977133" y1="133.51" x2="19.2281" y2="171.69" gradientUnits="userSpaceOnUse">
<stop stop-color="#FFD66B" style="stop-color:#FFD66B;stop-color:color(display-p3 1.0000 0.8378 0.4208);stop-opacity:1;"/>
<stop offset="1" stop-color="#FFA469" style="stop-color:#FFA469;stop-color:color(display-p3 1.0000 0.6431 0.4118);stop-opacity:1;"/>
</linearGradient>
<clipPath id="clip0_2643_1688">
<rect width="305" height="251" fill="white" style="fill:white;fill-opacity:1;"/>
</clipPath>
<clipPath id="clip1_2643_1688">
<rect width="48.7322" height="22.8432" fill="white" style="fill:white;fill-opacity:1;" transform="translate(37.4062 131.117)"/>
</clipPath>
</defs>
</svg>
