<svg width="618" height="428" viewBox="0 0 618 428" fill="none" xmlns="http://www.w3.org/2000/svg">
<g clip-path="url(#clip0_2666_25365)">
<path d="M603.169 265C603.169 265 586.025 264.742 586 279.548" stroke="#FFA469" style="stroke:#FFA469;stroke:color(display-p3 1.0000 0.6431 0.4118);stroke-opacity:1;" stroke-width="0.865978" stroke-linecap="round" stroke-linejoin="round"/>
<path d="M601.746 274.319C601.389 272.14 593.918 269.445 592.638 275.082C591.346 280.719 600.614 277.346 603.482 274.688C603.482 274.688 598.165 279.857 599.838 281.322" stroke="#FFA469" style="stroke:#FFA469;stroke:color(display-p3 1.0000 0.6431 0.4118);stroke-opacity:1;" stroke-width="0.865978" stroke-linecap="round" stroke-linejoin="round"/>
<path d="M602.827 282.969C602.827 282.969 600.574 285.8 598.125 284.458" stroke="#FFA469" style="stroke:#FFA469;stroke:color(display-p3 1.0000 0.6431 0.4118);stroke-opacity:1;" stroke-width="0.865978" stroke-linecap="round" stroke-linejoin="round"/>
<path d="M617.795 273.043L604.945 286.163C604.945 286.163 611.37 279.603 615.161 281.683C619.838 284.255 613.77 291.271 608.773 286.237" stroke="#FFA469" style="stroke:#FFA469;stroke:color(display-p3 1.0000 0.6431 0.4118);stroke-opacity:1;" stroke-width="0.865978" stroke-linecap="round" stroke-linejoin="round"/>
<path d="M624.308 276.617C624.308 276.617 627.705 292.248 610.117 292.802" stroke="#FFA469" style="stroke:#FFA469;stroke:color(display-p3 1.0000 0.6431 0.4118);stroke-opacity:1;" stroke-width="0.865978" stroke-linecap="round" stroke-linejoin="round"/>
<path d="M398.57 26.3061L404.761 27.3277L404.86 41.4201L418.435 16.6445L439.875 20.1646" stroke="#717278" style="stroke:#717278;stroke:color(display-p3 0.4431 0.4471 0.4706);stroke-opacity:1;" stroke-width="0.865978" stroke-linecap="round" stroke-linejoin="round"/>
<path d="M420.805 27.5L430.232 44.1401" stroke="#717278" style="stroke:#717278;stroke:color(display-p3 0.4431 0.4471 0.4706);stroke-opacity:1;" stroke-width="0.865978" stroke-linecap="round" stroke-linejoin="round"/>
<path d="M432.632 29.4453L415.758 41.7654" stroke="#717278" style="stroke:#717278;stroke:color(display-p3 0.4431 0.4471 0.4706);stroke-opacity:1;" stroke-width="0.865978" stroke-linecap="round" stroke-linejoin="round"/>
<path d="M313.809 51.3986C312.222 49.3801 303.077 50.8202 304.936 57.294C306.782 63.7802 314.351 55.1279 315.791 50.8078C315.791 50.8078 313.268 59.0787 315.791 59.6202" stroke="#FFA469" style="stroke:#FFA469;stroke:color(display-p3 1.0000 0.6431 0.4118);stroke-opacity:1;" stroke-width="0.865978" stroke-linecap="round" stroke-linejoin="round"/>
<path d="M320.817 44.7383L318.773 52.0491C318.773 52.0491 319.795 48.3937 321.58 48.3937C323.783 48.3937 322.983 52.1353 320.177 51.3106" stroke="#FFA469" style="stroke:#FFA469;stroke:color(display-p3 1.0000 0.6431 0.4118);stroke-opacity:1;" stroke-width="0.865978" stroke-linecap="round" stroke-linejoin="round"/>
<path d="M493.206 134.238L488.898 149.808L498.326 160.109" stroke="#717278" style="stroke:#717278;stroke:color(display-p3 0.4431 0.4471 0.4706);stroke-opacity:1;" stroke-width="0.865978" stroke-linecap="round" stroke-linejoin="round"/>
<path d="M498.602 140.562L509.395 149.584" stroke="#717278" style="stroke:#717278;stroke:color(display-p3 0.4431 0.4471 0.4706);stroke-opacity:1;" stroke-width="0.865978" stroke-linecap="round" stroke-linejoin="round"/>
<path d="M506.032 138.34L501.367 149.798" stroke="#717278" style="stroke:#717278;stroke:color(display-p3 0.4431 0.4471 0.4706);stroke-opacity:1;" stroke-width="0.865978" stroke-linecap="round" stroke-linejoin="round"/>
<path d="M513.609 148.316C513.609 148.316 513.708 151.566 512.305 151.984" stroke="#717278" style="stroke:#717278;stroke:color(display-p3 0.4431 0.4471 0.4706);stroke-opacity:1;" stroke-width="0.865978" stroke-linecap="round" stroke-linejoin="round"/>
<path d="M514.977 136.969L521.475 141.806" stroke="#717278" style="stroke:#717278;stroke:color(display-p3 0.4431 0.4471 0.4706);stroke-opacity:1;" stroke-width="0.865978" stroke-linecap="round" stroke-linejoin="round"/>
<path d="M523.901 133.004L517.477 156.143" stroke="#717278" style="stroke:#717278;stroke:color(display-p3 0.4431 0.4471 0.4706);stroke-opacity:1;" stroke-width="0.865978" stroke-linecap="round" stroke-linejoin="round"/>
<path d="M524.211 124.961L534.648 136.776L530.205 149.7" stroke="#717278" style="stroke:#717278;stroke:color(display-p3 0.4431 0.4471 0.4706);stroke-opacity:1;" stroke-width="0.865978" stroke-linecap="round" stroke-linejoin="round"/>
<path d="M141.63 178.495C150.12 178.495 157.003 171.612 157.003 163.122C157.003 154.632 150.12 147.75 141.63 147.75C133.14 147.75 126.258 154.632 126.258 163.122C126.258 171.612 133.14 178.495 141.63 178.495Z" stroke="#717278" style="stroke:#717278;stroke:color(display-p3 0.4431 0.4471 0.4706);stroke-opacity:1;" stroke-width="0.865978" stroke-linecap="round" stroke-linejoin="round"/>
<path d="M158.691 166.711C168.113 166.711 175.75 159.074 175.75 149.652C175.75 140.231 168.113 132.594 158.691 132.594C149.27 132.594 141.633 140.231 141.633 149.652C141.633 159.074 149.27 166.711 158.691 166.711Z" stroke="#717278" style="stroke:#717278;stroke:color(display-p3 0.4431 0.4471 0.4706);stroke-opacity:1;" stroke-width="0.865978" stroke-linecap="round" stroke-linejoin="round"/>
<path d="M144.65 148.039L142.57 155.264" stroke="#717278" style="stroke:#717278;stroke:color(display-p3 0.4431 0.4471 0.4706);stroke-opacity:1;" stroke-width="0.865978" stroke-linecap="round" stroke-linejoin="round"/>
<path d="M147.598 148.934L144.656 159.346" stroke="#717278" style="stroke:#717278;stroke:color(display-p3 0.4431 0.4471 0.4706);stroke-opacity:1;" stroke-width="0.865978" stroke-linecap="round" stroke-linejoin="round"/>
<path d="M150.671 150.695L147.594 162.474" stroke="#717278" style="stroke:#717278;stroke:color(display-p3 0.4431 0.4471 0.4706);stroke-opacity:1;" stroke-width="0.865978" stroke-linecap="round" stroke-linejoin="round"/>
<path d="M154.113 154.145L151.922 165.32" stroke="#717278" style="stroke:#717278;stroke:color(display-p3 0.4431 0.4471 0.4706);stroke-opacity:1;" stroke-width="0.865978" stroke-linecap="round" stroke-linejoin="round"/>
<path d="M156.054 157.793L154.109 166.101" stroke="#717278" style="stroke:#717278;stroke:color(display-p3 0.4431 0.4471 0.4706);stroke-opacity:1;" stroke-width="0.865978" stroke-linecap="round" stroke-linejoin="round"/>
<path d="M126.935 143.425C125.594 143.007 121.914 146.502 124.769 148.853C127.625 151.204 128.351 144.939 127.649 142.539C127.649 142.539 129.089 147.056 130.394 146.514" stroke="#717278" style="stroke:#717278;stroke:color(display-p3 0.4431 0.4471 0.4706);stroke-opacity:1;" stroke-width="0.865978" stroke-linecap="round" stroke-linejoin="round"/>
<path d="M146.773 123.684L151.66 132.644C151.66 132.644 149.21 128.164 150.933 126.477C153.05 124.41 155.807 128.767 152.324 130.613" stroke="#717278" style="stroke:#717278;stroke:color(display-p3 0.4431 0.4471 0.4706);stroke-opacity:1;" stroke-width="0.865978" stroke-linecap="round" stroke-linejoin="round"/>
<path d="M236.727 122.617L243.68 129.202" stroke="#717278" style="stroke:#717278;stroke:color(display-p3 0.4431 0.4471 0.4706);stroke-opacity:1;" stroke-width="0.865978" stroke-linecap="round" stroke-linejoin="round"/>
<path d="M243.67 120.902L237.836 129.592" stroke="#717278" style="stroke:#717278;stroke:color(display-p3 0.4431 0.4471 0.4706);stroke-opacity:1;" stroke-width="0.865978" stroke-linecap="round" stroke-linejoin="round"/>
<path d="M250.516 123.398L257.47 120.801" stroke="#717278" style="stroke:#717278;stroke:color(display-p3 0.4431 0.4471 0.4706);stroke-opacity:1;" stroke-width="0.865978" stroke-linecap="round" stroke-linejoin="round"/>
<path d="M260.805 113.551L265.039 117.292" stroke="#717278" style="stroke:#717278;stroke:color(display-p3 0.4431 0.4471 0.4706);stroke-opacity:1;" stroke-width="0.865978" stroke-linecap="round" stroke-linejoin="round"/>
<path d="M268.28 109.051L262.914 127.439" stroke="#717278" style="stroke:#717278;stroke:color(display-p3 0.4431 0.4471 0.4706);stroke-opacity:1;" stroke-width="0.865978" stroke-linecap="round" stroke-linejoin="round"/>
<path d="M572.228 105.36L571.945 91.3047H582.567C582.567 91.3047 576.684 94.5416 579.379 102.111C582.075 109.68 586.456 105.348 586.456 105.348" stroke="#717278" style="stroke:#717278;stroke:color(display-p3 0.4431 0.4471 0.4706);stroke-opacity:1;" stroke-width="0.865978" stroke-linecap="round" stroke-linejoin="round"/>
<path d="M204.328 222.179L216.414 213.859L232.414 214.979L233.424 235.263L221.67 243.669L207.184 242.61L204.328 222.179Z" stroke="#717278" style="stroke:#717278;stroke:color(display-p3 0.4431 0.4471 0.4706);stroke-opacity:1;" stroke-width="0.865978" stroke-linecap="round" stroke-linejoin="round"/>
<path d="M207.18 242.606L218.872 234.188L233.42 235.258" stroke="#717278" style="stroke:#717278;stroke:color(display-p3 0.4431 0.4471 0.4706);stroke-opacity:1;" stroke-width="0.865978" stroke-linecap="round" stroke-linejoin="round"/>
<path d="M218.876 234.192L216.414 213.859" stroke="#717278" style="stroke:#717278;stroke:color(display-p3 0.4431 0.4471 0.4706);stroke-opacity:1;" stroke-width="0.865978" stroke-linecap="round" stroke-linejoin="round"/>
<path d="M204.328 222.173L220.304 224.019L232.414 214.973" stroke="#717278" style="stroke:#717278;stroke:color(display-p3 0.4431 0.4471 0.4706);stroke-opacity:1;" stroke-width="0.865978" stroke-linecap="round" stroke-linejoin="round"/>
<path d="M220.305 224.023L221.671 243.667" stroke="#717278" style="stroke:#717278;stroke:color(display-p3 0.4431 0.4471 0.4706);stroke-opacity:1;" stroke-width="0.865978" stroke-linecap="round" stroke-linejoin="round"/>
<path d="M556.431 192.777L555.914 219.818L579.619 209.061L556.431 192.777Z" stroke="#717278" style="stroke:#717278;stroke:color(display-p3 0.4431 0.4471 0.4706);stroke-opacity:1;" stroke-width="0.865978" stroke-linecap="round" stroke-linejoin="round"/>
<path d="M556.43 192.777L567.728 214.304" stroke="#717278" style="stroke:#717278;stroke:color(display-p3 0.4431 0.4471 0.4706);stroke-opacity:1;" stroke-width="0.865978" stroke-linecap="round" stroke-linejoin="round"/>
<path d="M565.922 210.853L568.667 209.523L570.513 213.203" stroke="#717278" style="stroke:#717278;stroke:color(display-p3 0.4431 0.4471 0.4706);stroke-opacity:1;" stroke-width="0.865978" stroke-linecap="round" stroke-linejoin="round"/>
<path d="M349.875 190.234L359.684 200.733" stroke="#717278" style="stroke:#717278;stroke:color(display-p3 0.4431 0.4471 0.4706);stroke-opacity:1;" stroke-width="0.865978" stroke-linecap="round" stroke-linejoin="round"/>
<path d="M359.765 188.809L351.531 200.083" stroke="#717278" style="stroke:#717278;stroke:color(display-p3 0.4431 0.4471 0.4706);stroke-opacity:1;" stroke-width="0.865978" stroke-linecap="round" stroke-linejoin="round"/>
<path d="M363.749 183.311C363.749 183.311 366.026 182.425 366.506 184.788C366.986 187.151 363.109 190.228 363.109 190.228H368.636" stroke="#717278" style="stroke:#717278;stroke:color(display-p3 0.4431 0.4471 0.4706);stroke-opacity:1;" stroke-width="0.865978" stroke-linecap="round" stroke-linejoin="round"/>
<path d="M534.092 60.0518C523.827 60.1503 514.178 53.7872 510.572 43.5594C507.175 33.9101 510.129 23.5715 517.243 17.0977" stroke="#717278" style="stroke:#717278;stroke:color(display-p3 0.4431 0.4471 0.4706);stroke-opacity:1;" stroke-width="0.865978" stroke-linecap="round" stroke-linejoin="round"/>
<path d="M557.234 43.3281C554.87 50.2328 549.48 56.0298 542.07 58.6513" stroke="#717278" style="stroke:#717278;stroke:color(display-p3 0.4431 0.4471 0.4706);stroke-opacity:1;" stroke-width="0.865978" stroke-linecap="round" stroke-linejoin="round"/>
<path d="M525.68 12.0802C538.541 7.55089 552.634 14.3079 557.163 27.1695" stroke="#717278" style="stroke:#717278;stroke:color(display-p3 0.4431 0.4471 0.4706);stroke-opacity:1;" stroke-width="0.865978" stroke-linecap="round" stroke-linejoin="round"/>
<path d="M546.058 17.3086C549.799 19.8317 552.803 23.5363 554.415 28.1271C558.403 39.4749 552.446 51.9058 541.098 55.9058C532.593 58.8966 523.461 56.2996 517.75 50.0227" stroke="#717278" style="stroke:#717278;stroke:color(display-p3 0.4431 0.4471 0.4706);stroke-opacity:1;" stroke-width="0.865978" stroke-linecap="round" stroke-linejoin="round"/>
<path d="M513.325 42.6083C509.337 31.2605 515.294 18.8296 526.642 14.8296C530.9 13.328 535.306 13.2296 539.356 14.3004" stroke="#717278" style="stroke:#717278;stroke:color(display-p3 0.4431 0.4471 0.4706);stroke-opacity:1;" stroke-width="0.865978" stroke-linecap="round" stroke-linejoin="round"/>
<path d="M525.555 21.918L533.875 35.3704L526.293 45.2166" stroke="#717278" style="stroke:#717278;stroke:color(display-p3 0.4431 0.4471 0.4706);stroke-opacity:1;" stroke-width="0.865978" stroke-linecap="round" stroke-linejoin="round"/>
</g>
<g clip-path="url(#clip1_2666_25365)">
<path d="M504.757 82.1641L469.821 111.33L416.656 216.582L449.804 231.59L501.493 128.366L504.757 82.1641Z" fill="#65666D" style="fill:#65666D;fill:color(display-p3 0.3961 0.4000 0.4275);fill-opacity:1;"/>
<path d="M504.757 82.1641L469.821 111.33L416.656 216.582L449.804 231.59L501.493 128.366L504.757 82.1641Z" fill="url(#paint0_linear_2666_25365)" style=""/>
<g opacity="0.7">
<path d="M501.494 128.366C499.694 128.602 498.063 127.47 498.197 125.656C496.006 128.209 492.14 129.162 489.033 127.896C485.914 126.641 483.78 123.27 483.981 119.91C481.053 121.489 477.287 121.355 474.47 119.574C471.665 117.793 469.922 114.444 470.089 111.117L504.757 82.1641L501.494 128.366Z" fill="#D7D7D7" style="fill:#D7D7D7;fill:color(display-p3 0.8417 0.8417 0.8417);fill-opacity:1;"/>
</g>
<path d="M490.711 93.891C490.711 93.891 491.236 102.605 503.429 101.093L504.77 82.1641L490.722 93.891H490.711Z" fill="#FFA469" style="fill:#FFA469;fill:color(display-p3 1.0000 0.6431 0.4118);fill-opacity:1;"/>
<path d="M540.422 198.107V289.851C540.422 290.781 541.852 290.781 541.852 289.851V198.107C541.852 197.178 540.422 197.178 540.422 198.107Z" fill="#FFA469" style="fill:#FFA469;fill:color(display-p3 1.0000 0.6431 0.4118);fill-opacity:1;"/>
<path d="M546.327 269.632C546.327 272.488 544.013 274.806 541.163 274.806C538.313 274.806 536 272.488 536 269.632C536 266.776 538.313 264.457 541.163 264.457C544.013 264.457 546.327 266.776 546.327 269.632Z" fill="#FFA469" style="fill:#FFA469;fill:color(display-p3 1.0000 0.6431 0.4118);fill-opacity:1;"/>
<path d="M539.696 272.308C539.696 272.308 535.941 276.071 534.812 287.126C533.683 298.181 533.438 303.703 533.438 303.703L543.585 304.33C543.585 304.33 543.585 296.042 543.585 296.412C543.585 296.781 545.586 302.314 545.586 302.314L553.61 299.671C553.61 299.671 550.727 270.281 539.696 272.286V272.308Z" fill="#FFA469" style="fill:#FFA469;fill:color(display-p3 1.0000 0.6431 0.4118);fill-opacity:1;"/>
<path d="M486.92 205.609H314.586V267.884H486.92V205.609Z" fill="#65666D" style="fill:#65666D;fill:color(display-p3 0.3961 0.4000 0.4275);fill-opacity:1;"/>
<path d="M547.455 194.891H252.688V205.61H547.455V194.891Z" fill="#65666D" style="fill:#65666D;fill:color(display-p3 0.3961 0.4000 0.4275);fill-opacity:1;"/>
<path opacity="0.3" d="M314.586 250.21C314.586 250.21 366.946 231.382 400.753 224.437C434.561 217.493 486.92 219.8 486.92 219.8V205.609H314.586V250.21Z" fill="#3F3F46" style="fill:#3F3F46;fill:color(display-p3 0.2471 0.2471 0.2745);fill-opacity:1;"/>
<path opacity="0.3" d="M359.307 194.891H252.688V205.61H359.307V194.891Z" fill="#65666D" style="fill:#65666D;fill:color(display-p3 0.3961 0.4000 0.4275);fill-opacity:1;"/>
<path d="M545.322 205.611C545.322 205.779 479.774 205.913 398.949 205.913C318.124 205.913 252.555 205.779 252.555 205.611C252.555 205.443 318.08 205.309 398.949 205.309C479.819 205.309 545.322 205.443 545.322 205.611Z" fill="#8F8F92" style="fill:#8F8F92;fill:color(display-p3 0.5608 0.5608 0.5725);fill-opacity:1;"/>
<path d="M359.138 205.703C358.97 205.703 358.836 203.262 358.836 200.26C358.836 197.258 358.97 194.816 359.138 194.816C359.305 194.816 359.439 197.258 359.439 200.26C359.439 203.262 359.305 205.703 359.138 205.703Z" fill="#8F8F92" style="fill:#8F8F92;fill:color(display-p3 0.5608 0.5608 0.5725);fill-opacity:1;"/>
<path d="M383.716 267.876C383.548 267.876 383.414 255.723 383.414 240.748C383.414 225.773 383.548 213.609 383.716 213.609C383.883 213.609 384.018 225.762 384.018 240.748C384.018 255.735 383.883 267.876 383.716 267.876Z" fill="#8F8F92" style="fill:#8F8F92;fill:color(display-p3 0.5608 0.5608 0.5725);fill-opacity:1;"/>
<path d="M339.302 315.99H244.015C233.118 315.99 224.289 307.141 224.289 296.221V285.636C224.289 274.716 233.118 265.867 244.015 265.867H339.302V315.978V315.99Z" fill="#585960" style="fill:#585960;fill:color(display-p3 0.3451 0.3490 0.3765);fill-opacity:1;"/>
<path d="M511.619 274.201H310.641V265.879H511.619C513.43 265.879 514.894 267.346 514.894 269.161V270.919C514.894 272.734 513.43 274.201 511.619 274.201Z" fill="#585960" style="fill:#585960;fill:color(display-p3 0.3451 0.3490 0.3765);fill-opacity:1;"/>
<path d="M511.619 315.99H310.641V307.668H511.619C513.43 307.668 514.894 309.135 514.894 310.95V312.708C514.894 314.523 513.43 315.99 511.619 315.99Z" fill="#585960" style="fill:#585960;fill:color(display-p3 0.3451 0.3490 0.3765);fill-opacity:1;"/>
<path d="M508.794 307.682H333.431C324.211 307.682 316.734 300.189 316.734 290.948C316.734 281.708 324.211 274.215 333.431 274.215H508.794C504.089 285.371 504.089 296.526 508.794 307.693V307.682Z" fill="#D7D7D7" style="fill:#D7D7D7;fill:color(display-p3 0.8417 0.8417 0.8417);fill-opacity:1;"/>
<path d="M316.731 315.99H244.009C232.9 315.99 220.539 310.656 220.539 292.468V289.232C220.539 272.574 232.833 265.867 243.852 265.867H318.631C300.526 276.855 301.878 303.176 316.731 315.978V315.99Z" fill="#3F3F46" style="fill:#3F3F46;fill:color(display-p3 0.2471 0.2471 0.2745);fill-opacity:1;"/>
<path d="M487.481 292.494C487.481 292.662 451.483 292.796 407.092 292.796C362.701 292.796 326.703 292.662 326.703 292.494C326.703 292.326 362.69 292.191 407.092 292.191C451.495 292.191 487.481 292.326 487.481 292.494Z" fill="#65666D" style="fill:#65666D;fill:color(display-p3 0.3961 0.4000 0.4275);fill-opacity:1;"/>
<path d="M504.044 299.927C504.044 300.095 468.046 300.23 423.655 300.23C379.264 300.23 343.266 300.095 343.266 299.927C343.266 299.759 379.252 299.625 423.655 299.625C468.046 299.625 504.044 299.759 504.044 299.927Z" fill="#65666D" style="fill:#65666D;fill:color(display-p3 0.3961 0.4000 0.4275);fill-opacity:1;"/>
<path d="M499.161 281.935C499.161 282.103 463.163 282.238 418.772 282.238C374.381 282.238 338.383 282.103 338.383 281.935C338.383 281.767 374.37 281.633 418.772 281.633C463.163 281.633 499.161 281.767 499.161 281.935Z" fill="#65666D" style="fill:#65666D;fill:color(display-p3 0.3961 0.4000 0.4275);fill-opacity:1;"/>
<path d="M307.923 270.041C307.923 270.209 291.07 270.343 270.294 270.343C249.518 270.343 232.664 270.209 232.664 270.041C232.664 269.873 249.506 269.738 270.294 269.738C291.081 269.738 307.923 269.873 307.923 270.041Z" fill="#65666D" style="fill:#65666D;fill:color(display-p3 0.3961 0.4000 0.4275);fill-opacity:1;"/>
<path d="M327.12 415.936H211.837C202.053 415.936 194.125 407.031 194.125 396.04V370.869C194.125 359.878 202.053 350.973 211.837 350.973H327.12V415.925V415.936Z" fill="#585960" style="fill:#585960;fill:color(display-p3 0.3451 0.3490 0.3765);fill-opacity:1;"/>
<path d="M554.276 361.887H294.5V351.168H554.264C556.075 351.168 557.539 352.635 557.539 354.45V358.605C557.539 360.42 556.075 361.887 554.264 361.887H554.276Z" fill="#585960" style="fill:#585960;fill:color(display-p3 0.3451 0.3490 0.3765);fill-opacity:1;"/>
<path d="M554.276 415.703H294.5V404.984H554.264C556.075 404.984 557.539 406.452 557.539 408.266V412.422C557.539 414.236 556.075 415.703 554.264 415.703H554.276Z" fill="#585960" style="fill:#585960;fill:color(display-p3 0.3451 0.3490 0.3765);fill-opacity:1;"/>
<path d="M549.707 404.979H323.862C311.982 404.979 302.359 395.324 302.359 383.429C302.359 371.523 311.993 361.879 323.862 361.879H549.707C543.65 376.249 543.65 390.62 549.707 404.99V404.979Z" fill="#D7D7D7" style="fill:#D7D7D7;fill:color(display-p3 0.8417 0.8417 0.8417);fill-opacity:1;"/>
<path d="M302.344 415.705H201.29C190.539 415.705 178.469 401.334 178.469 382.898C178.469 364.418 190.841 351.156 201.983 351.156H304.803C281.489 365.314 283.233 399.207 302.355 415.694L302.344 415.705Z" fill="#3F3F46" style="fill:#3F3F46;fill:color(display-p3 0.2471 0.2471 0.2745);fill-opacity:1;"/>
<path d="M522.254 385.435C522.254 385.603 475.895 385.738 418.73 385.738C361.565 385.738 315.195 385.603 315.195 385.435C315.195 385.267 361.542 385.133 418.73 385.133C475.895 385.133 522.254 385.267 522.254 385.435Z" fill="#65666D" style="fill:#65666D;fill:color(display-p3 0.3961 0.4000 0.4275);fill-opacity:1;"/>
<path d="M543.566 395.013C543.566 395.181 497.208 395.316 440.043 395.316C382.877 395.316 336.508 395.181 336.508 395.013C336.508 394.845 382.855 394.711 440.043 394.711C497.23 394.711 543.566 394.845 543.566 395.013Z" fill="#65666D" style="fill:#65666D;fill:color(display-p3 0.3961 0.4000 0.4275);fill-opacity:1;"/>
<path d="M537.285 376.548C537.285 376.717 490.927 376.851 433.761 376.851C376.596 376.851 330.227 376.717 330.227 376.548C330.227 376.38 376.574 376.246 433.761 376.246C490.949 376.246 537.285 376.38 537.285 376.548Z" fill="#65666D" style="fill:#65666D;fill:color(display-p3 0.3961 0.4000 0.4275);fill-opacity:1;"/>
<path d="M291.012 356.506C291.012 356.674 269.308 356.808 242.553 356.808C215.798 356.808 194.094 356.674 194.094 356.506C194.094 356.338 215.786 356.203 242.553 356.203C269.32 356.203 291.012 356.338 291.012 356.506Z" fill="#65666D" style="fill:#65666D;fill:color(display-p3 0.3961 0.4000 0.4275);fill-opacity:1;"/>
<path d="M365.067 351.408H259.274C251.239 351.408 244.734 344.878 244.734 336.836V329.029C244.734 320.976 251.25 314.457 259.274 314.457H365.067V351.408Z" fill="#8F8F92" style="fill:#8F8F92;fill:color(display-p3 0.5608 0.5608 0.5725);fill-opacity:1;"/>
<path d="M549.273 323.16H338.984V314.457H549.273C551.161 314.457 552.704 315.992 552.704 317.896V319.732C552.704 321.625 551.172 323.171 549.273 323.171V323.16Z" fill="#8F8F92" style="fill:#8F8F92;fill:color(display-p3 0.5608 0.5608 0.5725);fill-opacity:1;"/>
<path d="M549.273 351.406H338.984V342.703H549.273C551.161 342.703 552.704 344.238 552.704 346.142V347.979C552.704 349.871 551.172 351.417 549.273 351.417V351.406Z" fill="#8F8F92" style="fill:#8F8F92;fill:color(display-p3 0.5608 0.5608 0.5725);fill-opacity:1;"/>
<path d="M546.335 342.71H355.113C349.726 342.71 345.367 338.33 345.367 332.943C345.367 327.544 349.737 323.176 355.113 323.176H546.335C541.417 329.694 541.417 336.202 546.335 342.721V342.71Z" fill="#D7D7D7" style="fill:#D7D7D7;fill:color(display-p3 0.8417 0.8417 0.8417);fill-opacity:1;"/>
<path d="M345.362 351.408H259.352C251.271 351.408 244.711 344.844 244.711 336.735V329.421C244.711 321.155 251.394 314.457 259.642 314.457H347.34C328.397 322.566 329.816 341.977 345.351 351.408H345.362Z" fill="#65666D" style="fill:#65666D;fill:color(display-p3 0.3961 0.4000 0.4275);fill-opacity:1;"/>
<path d="M345.362 351.408H259.352C251.271 351.408 244.711 344.844 244.711 336.735V329.421C244.711 321.155 251.394 314.457 259.642 314.457H347.34C328.397 322.566 329.816 341.977 345.351 351.408H345.362Z" fill="url(#paint1_linear_2666_25365)" style=""/>
<path d="M524.037 331.4C524.037 331.568 486.374 331.702 439.927 331.702C393.479 331.702 355.805 331.568 355.805 331.4C355.805 331.232 393.457 331.098 439.927 331.098C486.374 331.098 524.037 331.232 524.037 331.4Z" fill="#65666D" style="fill:#65666D;fill:color(display-p3 0.3961 0.4000 0.4275);fill-opacity:1;"/>
<path d="M541.35 336.662C541.35 336.83 503.687 336.964 457.239 336.964C410.792 336.964 373.117 336.83 373.117 336.662C373.117 336.494 410.769 336.359 457.239 336.359C503.709 336.359 541.35 336.494 541.35 336.662Z" fill="#65666D" style="fill:#65666D;fill:color(display-p3 0.3961 0.4000 0.4275);fill-opacity:1;"/>
<path d="M336.145 318.806C336.145 318.974 318.52 319.109 296.772 319.109C275.023 319.109 257.398 318.974 257.398 318.806C257.398 318.638 275.023 318.504 296.772 318.504C318.509 318.504 336.145 318.638 336.145 318.806Z" fill="#65666D" style="fill:#65666D;fill:color(display-p3 0.3961 0.4000 0.4275);fill-opacity:1;"/>
<path d="M550.187 314.459C550.187 314.627 485.511 314.761 405.759 314.761C326.007 314.761 261.32 314.627 261.32 314.459C261.32 314.291 325.974 314.156 405.759 314.156C485.545 314.156 550.187 314.291 550.187 314.459Z" fill="#65666D" style="fill:#65666D;fill:color(display-p3 0.3961 0.4000 0.4275);fill-opacity:1;"/>
<path d="M434.211 281.395V301.466L441.151 297.008L448.896 301.466V281.395H434.211Z" fill="#FFA469" style="fill:#FFA469;fill:color(display-p3 1.0000 0.6431 0.4118);fill-opacity:1;"/>
</g>
<path d="M118.085 132.226C118.085 132.226 119.375 114.316 122.905 118.376C126.425 122.436 149.865 152.606 154.195 161.486C158.525 170.356 151.695 176.956 151.695 176.956L129.745 199.146L122.095 190.856L137.535 167.576L114.195 143.346L118.095 132.236L118.085 132.226Z" fill="#EBD4B0" style="fill:#EBD4B0;fill:color(display-p3 0.9216 0.8314 0.6902);fill-opacity:1;"/>
<path d="M116.87 114.666C116.87 114.666 119.01 114.746 123.48 117.946C127.95 121.136 143.71 141.366 143.71 141.366L124.83 158.946L113.46 145.466C113.46 145.466 107.51 119.706 108.15 119.776C108.79 119.846 116.87 114.656 116.87 114.656V114.666Z" fill="#FF725E" style="fill:#FF725E;fill:color(display-p3 1.0000 0.4471 0.3686);fill-opacity:1;"/>
<path d="M116.87 114.666C116.87 114.666 119.01 114.746 123.48 117.946C127.95 121.136 143.71 141.366 143.71 141.366L124.83 158.946L113.46 145.466C113.46 145.466 107.51 119.706 108.15 119.776C108.79 119.846 116.87 114.656 116.87 114.656V114.666Z" fill="url(#paint2_linear_2666_25365)" style=""/>
<path d="M29.27 181.225C27.85 181.735 26.82 183.025 26.3 184.435C25.78 185.845 25.7201 187.385 25.7601 188.895C25.9101 194.895 27.55 200.745 29.16 206.525C29.49 207.715 29.84 208.925 30.52 209.955C31.2 210.985 32.3 211.815 33.53 211.865C34.15 211.885 34.85 211.645 35.06 211.055C35.18 210.725 35.11 210.365 35.05 210.025C33.19 200.395 31.33 190.755 29.47 181.125" fill="#46474E" style="fill:#46474E;fill:color(display-p3 0.2745 0.2784 0.3059);fill-opacity:1;"/>
<path d="M87.8792 181.503C84.9292 165.263 81.2092 149.063 74.7392 133.883L61.5892 127.713C54.4992 126.683 27.2192 135.303 25.1792 142.173C23.1392 149.043 24.4592 156.403 25.7892 163.443C28.1892 176.173 30.5992 188.903 32.9992 201.643C34.2792 208.443 35.8592 215.773 41.0892 220.313C47.3392 225.733 56.7792 225.323 64.6992 222.923C74.8592 219.843 84.7592 213.223 88.0592 203.133C90.3192 196.213 89.1892 188.693 87.8892 181.523L87.8792 181.503Z" fill="#585960" style="fill:#585960;fill:color(display-p3 0.3451 0.3490 0.3765);fill-opacity:1;"/>
<path d="M66.1888 86.7523C65.7788 79.5223 65.3788 72.2923 64.9688 65.0623L62.5688 54.7023C59.6088 51.7823 51.1988 54.1823 47.8988 56.7223C44.6088 59.2623 42.9788 63.4723 42.5188 67.6123C42.2188 70.3523 42.2588 73.3823 40.4588 75.4723C38.3888 77.8623 34.5188 78.2023 32.7288 80.8023C31.5588 82.5023 31.6088 84.8223 32.3688 86.7423C33.1288 88.6623 34.4888 90.2723 35.8688 91.8123C37.1088 93.2023 38.4088 94.5823 40.0288 95.4923C41.6488 96.4023 43.6688 96.7823 45.3888 96.0723C44.7588 98.7223 46.5588 101.622 49.1288 102.532C51.6988 103.442 54.7187 102.522 56.6087 100.562C58.4987 98.6023 59.3288 95.7623 59.1688 93.0423C59.5388 94.5723 61.4488 95.3823 62.9588 94.8923C64.4588 94.4123 65.4988 92.9723 65.9188 91.4523C66.3388 89.9323 66.2588 88.3223 66.1688 86.7523H66.1888Z" fill="#46474E" style="fill:#46474E;fill:color(display-p3 0.2745 0.2784 0.3059);fill-opacity:1;"/>
<path d="M63.3467 55.0731C68.6567 47.9631 76.0167 43.6831 84.8667 43.1431C89.8667 42.8431 91.9767 43.7831 95.6167 44.6031C99.2567 45.4131 102.597 47.2031 104.877 50.1531C107.587 53.6631 109.907 57.6231 110.587 62.0031C111.277 66.5031 111.977 71.0331 111.837 75.5831C111.697 80.1331 110.667 84.7531 108.157 88.5631L96.7067 91.0731C90.3367 91.5731 83.8867 92.0631 77.6167 90.8831C71.3467 89.7031 65.1567 86.6231 61.5967 81.3331C56.6467 73.9731 58.0467 62.1731 63.3567 55.0631L63.3467 55.0731Z" fill="#46474E" style="fill:#46474E;fill:color(display-p3 0.2745 0.2784 0.3059);fill-opacity:1;"/>
<path d="M73.6146 54.5422L88.7346 47.7422L92.7746 48.0322C101.825 47.6622 108.505 57.3622 108.885 64.6922C109.315 72.8322 109.505 82.7822 108.485 88.8322C106.415 101.012 96.1646 102.472 96.1646 102.472L96.3846 112.622L101.555 115.332L100.705 143.602L81.8646 146.502L72.4546 112.092L72.3245 103.392L69.7346 58.8522C69.7146 56.6222 71.4046 54.7522 73.6246 54.5422H73.6146Z" fill="#EBD4B0" style="fill:#EBD4B0;fill:color(display-p3 0.9216 0.8314 0.6902);fill-opacity:1;"/>
<path d="M105.318 75.0919C105.338 75.9219 104.658 76.6219 103.788 76.6519C102.928 76.6919 102.208 76.0519 102.188 75.2219C102.168 74.3919 102.848 73.6919 103.708 73.6619C104.568 73.6219 105.288 74.2619 105.308 75.0919H105.318Z" fill="#46474E" style="fill:#46474E;fill:color(display-p3 0.2745 0.2784 0.3059);fill-opacity:1;"/>
<path d="M106.308 68.8811C106.108 69.0811 104.938 68.1911 103.248 68.1811C101.568 68.1411 100.318 69.0011 100.138 68.7911C100.048 68.7011 100.248 68.3311 100.788 67.9511C101.318 67.5711 102.228 67.2011 103.278 67.2111C104.328 67.2311 105.208 67.6211 105.708 68.0211C106.218 68.4211 106.388 68.7911 106.298 68.8811H106.308Z" fill="#46474E" style="fill:#46474E;fill:color(display-p3 0.2745 0.2784 0.3059);fill-opacity:1;"/>
<path d="M96.0845 82.5349C96.0845 82.4349 97.1245 82.2649 98.8245 82.0749C99.2545 82.0349 99.6645 81.9549 99.7345 81.6649C99.8345 81.3549 99.6645 80.8949 99.4645 80.3849C99.0745 79.3449 98.6645 78.2449 98.2245 77.0949C96.5145 72.4149 95.2745 68.5649 95.4645 68.5049C95.6545 68.4349 97.1945 72.1749 98.9145 76.8549C99.3245 78.0049 99.7245 79.1049 100.095 80.1649C100.255 80.6549 100.525 81.2149 100.295 81.8549C100.175 82.1749 99.8545 82.4049 99.5845 82.4749C99.3045 82.5549 99.0645 82.5549 98.8545 82.5649C97.1445 82.6349 96.0845 82.6349 96.0845 82.5349Z" fill="#46474E" style="fill:#46474E;fill:color(display-p3 0.2745 0.2784 0.3059);fill-opacity:1;"/>
<path d="M96.1806 102.464C96.1806 102.464 87.9706 102.904 79.8906 97.9336C79.8906 97.9336 84.1506 106.434 96.3706 105.424L96.1806 102.464Z" fill="#46474E" style="fill:#46474E;fill:color(display-p3 0.2745 0.2784 0.3059);fill-opacity:1;"/>
<path d="M91.1243 83.6413C91.3943 83.6313 91.3843 85.4513 92.9343 86.7713C94.4843 88.0913 96.4343 87.9013 96.4443 88.1613C96.4643 88.2713 96.0043 88.5113 95.1843 88.5213C94.3743 88.5413 93.2043 88.2713 92.2543 87.4613C91.3043 86.6513 90.9143 85.5913 90.8543 84.8413C90.7943 84.0813 91.0043 83.6213 91.1243 83.6413Z" fill="#46474E" style="fill:#46474E;fill:color(display-p3 0.2745 0.2784 0.3059);fill-opacity:1;"/>
<path d="M105.464 63.0313C105.174 63.4413 103.894 63.1514 102.384 63.2614C100.874 63.3214 99.6244 63.7514 99.2944 63.3814C99.1444 63.2014 99.3144 62.8013 99.8444 62.3913C100.364 61.9813 101.254 61.6113 102.294 61.5513C103.334 61.4913 104.254 61.7614 104.814 62.1114C105.384 62.4614 105.584 62.8313 105.464 63.0313Z" fill="#46474E" style="fill:#46474E;fill:color(display-p3 0.2745 0.2784 0.3059);fill-opacity:1;"/>
<path d="M87.4944 75.1145C87.4944 75.9445 88.1844 76.6245 89.0444 76.6545C89.9044 76.6745 90.6144 76.0245 90.6144 75.2045C90.6144 74.3745 89.9244 73.6845 89.0644 73.6645C88.2044 73.6445 87.4944 74.2945 87.4844 75.1145H87.4944Z" fill="#46474E" style="fill:#46474E;fill:color(display-p3 0.2745 0.2784 0.3059);fill-opacity:1;"/>
<path d="M83.5439 69.2413C83.7439 69.4413 84.9039 68.5313 86.5839 68.4913C88.2639 68.4313 89.5239 69.2613 89.7039 69.0513C89.7939 68.9613 89.5839 68.5913 89.0339 68.2213C88.4939 67.8413 87.5839 67.4913 86.5339 67.5213C85.4839 67.5513 84.6139 67.9613 84.1139 68.3713C83.6039 68.7813 83.4439 69.1513 83.5439 69.2413Z" fill="#46474E" style="fill:#46474E;fill:color(display-p3 0.2745 0.2784 0.3059);fill-opacity:1;"/>
<path d="M84.3177 63.8127C84.6577 64.1827 85.9477 63.7527 87.5077 63.6927C89.0677 63.5827 90.3977 63.8727 90.6877 63.4627C90.8177 63.2627 90.5977 62.8927 90.0077 62.5427C89.4277 62.1927 88.4677 61.9327 87.3977 61.9827C86.3277 62.0427 85.4077 62.4127 84.8777 62.8227C84.3377 63.2327 84.1677 63.6327 84.3177 63.8127Z" fill="#46474E" style="fill:#46474E;fill:color(display-p3 0.2745 0.2784 0.3059);fill-opacity:1;"/>
<path d="M72.7183 79.2126C72.7183 78.3026 71.6983 76.1526 70.7983 76.0026C68.4083 75.6026 64.0883 75.7526 63.9783 81.8326C63.8383 90.1526 72.2183 88.5826 72.2283 88.3426C72.2383 88.1526 72.6783 82.3526 72.7083 79.2126H72.7183Z" fill="#EBD4B0" style="fill:#EBD4B0;fill:color(display-p3 0.9216 0.8314 0.6902);fill-opacity:1;"/>
<path d="M69.9941 85.2614C69.9941 85.2614 69.8441 85.3614 69.6041 85.4714C69.3641 85.5714 68.9541 85.6414 68.5241 85.4714C67.6541 85.1314 66.9341 83.7214 66.9241 82.2314C66.9241 81.4714 67.0841 80.7514 67.3641 80.1614C67.6241 79.5614 68.0341 79.1414 68.4741 79.0714C68.9141 78.9814 69.2241 79.2514 69.3241 79.4814C69.4341 79.7114 69.3741 79.8814 69.4241 79.8914C69.4441 79.9114 69.6041 79.7514 69.5441 79.4114C69.5141 79.2414 69.4141 79.0514 69.2241 78.8814C69.0241 78.7114 68.7341 78.6314 68.4241 78.6514C67.7841 78.6814 67.1941 79.2614 66.8841 79.9114C66.5441 80.5614 66.3341 81.3714 66.3441 82.2214C66.3641 83.9014 67.1941 85.4814 68.3941 85.8514C68.9741 86.0114 69.4641 85.8514 69.7241 85.6514C69.9841 85.4514 70.0341 85.2614 70.0041 85.2514L69.9941 85.2614Z" fill="#46474E" style="fill:#46474E;fill:color(display-p3 0.2745 0.2784 0.3059);fill-opacity:1;"/>
<path d="M70.4633 76.0442L72.6633 78.1342C81.3833 69.0242 98.2033 46.4242 97.2633 47.7742C97.2633 47.7742 90.9133 45.4842 84.2033 46.9342C77.4833 48.3842 64.8033 52.3342 65.3533 60.3142C65.9033 68.2842 70.4633 76.0442 70.4633 76.0442Z" fill="#46474E" style="fill:#46474E;fill:color(display-p3 0.2745 0.2784 0.3059);fill-opacity:1;"/>
<path d="M118.102 197.014C118.762 197.684 129.452 221.494 128.762 238.034C128.072 254.564 118.102 312.124 118.102 312.124L102.172 401.154H79.0322C79.0322 401.154 79.0322 344.234 81.1022 328.654C83.1722 313.074 85.5922 304.484 86.2822 293.044C86.9722 281.594 87.1722 257.524 87.8622 258.474C88.5522 259.424 34.4822 397.974 34.4822 397.974L11.7422 396.464C11.7422 396.464 19.9822 348.914 21.7122 339.894C23.4422 330.874 30.3422 303.214 35.5222 289.224C40.7022 275.234 42.5222 240.334 49.6822 225.324C56.8422 210.314 56.9022 205.594 56.9022 205.594L118.102 197.004V197.014Z" fill="#46474E" style="fill:#46474E;fill:color(display-p3 0.2745 0.2784 0.3059);fill-opacity:1;"/>
<path d="M100.813 381.112L99.6028 403.232C99.6028 403.232 121.683 411.892 121.853 416.002L78.8828 415.192L79.3528 380.652L100.813 381.112Z" fill="#46474E" style="fill:#46474E;fill:color(display-p3 0.2745 0.2784 0.3059);fill-opacity:1;"/>
<path d="M78.875 415.194L78.925 411.844L120.195 413.784C120.195 413.784 122.095 414.654 121.855 415.994L78.885 415.184L78.875 415.194Z" fill="#585960" style="fill:#585960;fill:color(display-p3 0.3451 0.3490 0.3765);fill-opacity:1;"/>
<path d="M100.303 403.032C100.293 403.242 99.2434 403.322 98.1934 403.972C97.1334 404.602 96.5835 405.502 96.3935 405.412C96.2035 405.372 96.5334 404.122 97.8134 403.352C99.0834 402.572 100.353 402.842 100.303 403.032Z" fill="#F3F0F0" style="fill:#F3F0F0;fill:color(display-p3 0.9529 0.9412 0.9412);fill-opacity:1;"/>
<path d="M104.775 404.971C104.815 405.171 103.905 405.511 103.175 406.391C102.415 407.241 102.225 408.201 102.015 408.191C101.815 408.221 101.695 406.991 102.625 405.921C103.545 404.841 104.775 404.781 104.775 404.981V404.971Z" fill="#F3F0F0" style="fill:#F3F0F0;fill:color(display-p3 0.9529 0.9412 0.9412);fill-opacity:1;"/>
<path d="M107.235 410.421C107.045 410.461 106.775 409.411 107.335 408.271C107.885 407.131 108.885 406.691 108.975 406.871C109.095 407.051 108.445 407.651 107.995 408.591C107.525 409.521 107.455 410.411 107.245 410.421H107.235Z" fill="#F3F0F0" style="fill:#F3F0F0;fill:color(display-p3 0.9529 0.9412 0.9412);fill-opacity:1;"/>
<path d="M19.2322 378.422L12.0122 404.232L0.412225 423.002C-0.427775 424.352 0.0622132 426.132 1.46221 426.872C2.25221 427.292 3.18222 427.302 3.97222 426.902C9.03222 424.342 27.5822 414.832 28.0022 412.912C28.4922 410.692 37.4322 386.192 37.4322 386.192L19.2322 378.422Z" fill="#46474E" style="fill:#46474E;fill:color(display-p3 0.2745 0.2784 0.3059);fill-opacity:1;"/>
<path d="M1.46875 426.872L28.5388 411.172L28.2087 412.262C27.9187 413.202 27.3187 414.012 26.4887 414.542C24.2787 415.962 18.0887 419.742 4.05875 426.922C3.23875 427.342 2.26875 427.322 1.46875 426.872Z" fill="#585960" style="fill:#585960;fill:color(display-p3 0.3451 0.3490 0.3765);fill-opacity:1;"/>
<path d="M10.7405 417.451C10.5705 417.481 10.4005 415.961 9.10051 414.771C7.83051 413.541 6.30051 413.471 6.32051 413.311C6.32051 413.241 6.70049 413.141 7.33049 413.241C7.95049 413.331 8.7905 413.681 9.5005 414.351C10.2105 415.021 10.6105 415.831 10.7405 416.451C10.8805 417.071 10.8005 417.461 10.7405 417.461V417.451Z" fill="#F3F0F0" style="fill:#F3F0F0;fill:color(display-p3 0.9529 0.9412 0.9412);fill-opacity:1;"/>
<path d="M7.87392 420.331C7.71392 420.401 7.15391 419.321 5.93391 418.541C4.74391 417.731 3.52391 417.631 3.52391 417.451C3.49391 417.301 4.89392 417.131 6.25392 418.051C7.62392 418.951 8.01391 420.311 7.86391 420.331H7.87392Z" fill="#F3F0F0" style="fill:#F3F0F0;fill:color(display-p3 0.9529 0.9412 0.9412);fill-opacity:1;"/>
<path d="M15.4795 414.091C15.3195 414.171 14.4594 412.501 12.6794 411.121C10.9294 409.711 9.09944 409.251 9.14944 409.071C9.14944 408.921 11.1594 409.141 13.0494 410.651C14.9494 412.141 15.6295 414.051 15.4795 414.081V414.091Z" fill="#F3F0F0" style="fill:#F3F0F0;fill:color(display-p3 0.9529 0.9412 0.9412);fill-opacity:1;"/>
<path d="M18.3347 406.422C18.2147 406.552 16.9848 405.532 15.1648 404.902C13.3548 404.252 11.7448 404.272 11.7348 404.092C11.7048 403.942 13.4048 403.642 15.3548 404.342C17.3148 405.022 18.4547 406.322 18.3347 406.412V406.422Z" fill="#F3F0F0" style="fill:#F3F0F0;fill:color(display-p3 0.9529 0.9412 0.9412);fill-opacity:1;"/>
<path d="M20.6717 400.4C20.5517 400.52 19.3817 399.24 17.4117 398.73C15.4517 398.18 13.8017 398.72 13.7517 398.55C13.7217 398.48 14.1016 398.25 14.8016 398.09C15.4916 397.93 16.5016 397.89 17.5616 398.17C18.6216 398.46 19.4816 399 19.9916 399.48C20.5116 399.97 20.7217 400.36 20.6717 400.41V400.4Z" fill="#F3F0F0" style="fill:#F3F0F0;fill:color(display-p3 0.9529 0.9412 0.9412);fill-opacity:1;"/>
<path d="M120.396 198.201C115.086 193.031 113.666 171.811 115.906 164.851C122.576 151.471 119.896 133.161 116.876 114.661C113.486 113.361 97.3156 109.781 97.3156 109.781C97.3156 109.781 93.0756 116.171 87.0556 116.021C77.2756 115.781 73.0856 107.191 73.0856 107.191C73.0856 107.191 56.6556 109.191 50.4956 112.091L45.7656 147.441C45.7656 147.441 54.0456 200.801 57.6356 205.351C61.2256 209.911 87.9556 220.161 101.136 216.041C114.306 211.921 124.286 201.981 120.396 198.201Z" fill="#FF725E" style="fill:#FF725E;fill:color(display-p3 1.0000 0.4471 0.3686);fill-opacity:1;"/>
<path d="M120.396 198.201C115.086 193.031 113.666 171.811 115.906 164.851C122.576 151.471 119.896 133.161 116.876 114.661C113.486 113.361 97.3156 109.781 97.3156 109.781C97.3156 109.781 93.0756 116.171 87.0556 116.021C77.2756 115.781 73.0856 107.191 73.0856 107.191C73.0856 107.191 56.6556 109.191 50.4956 112.091L45.7656 147.441C45.7656 147.441 54.0456 200.801 57.6356 205.351C61.2256 209.911 87.9556 220.161 101.136 216.041C114.306 211.921 124.286 201.981 120.396 198.201Z" fill="url(#paint3_linear_2666_25365)" style=""/>
<g clip-path="url(#clip2_2666_25365)">
<path d="M105.039 136.237L104.105 137.903L104.723 140.903L102.255 141.413L100.046 130.701L102.514 130.192L103.377 134.374L106.058 129.461L108.976 128.859L106.269 133.954L111.37 139.527L108.479 140.123L105.033 136.233L105.039 136.237Z" fill="#46474E" style="fill:#46474E;fill:color(display-p3 0.2745 0.2784 0.3059);fill-opacity:1;"/>
<path d="M118.863 137.23C118.611 137.488 118.33 137.716 118.025 137.914C117.741 138.101 117.432 138.253 117.118 138.377C116.353 138.675 115.535 138.803 114.719 138.742C114.209 138.712 113.71 138.598 113.242 138.401C112.78 138.209 112.372 137.912 112.038 137.54C111.677 137.128 111.439 136.625 111.34 136.088L110.516 132.092C110.394 131.559 110.409 131.005 110.564 130.48C110.712 130.003 110.966 129.558 111.3 129.184C111.643 128.802 112.052 128.483 112.508 128.248C112.967 128.001 113.464 127.822 113.981 127.715C114.622 127.583 115.283 127.547 115.938 127.593C116.554 127.625 117.159 127.799 117.701 128.098L116.898 130.259C116.519 130.044 116.088 129.916 115.65 129.894C115.265 129.874 114.883 129.9 114.512 129.977C114.304 130.02 114.103 130.096 113.913 130.2C113.718 130.305 113.546 130.44 113.399 130.605C113.246 130.777 113.136 130.982 113.077 131.206C113.01 131.478 113.008 131.754 113.076 132.027L113.701 135.056C113.745 135.328 113.857 135.587 114.021 135.811C114.157 135.989 114.329 136.141 114.531 136.24C114.721 136.336 114.926 136.393 115.142 136.413C115.351 136.435 115.566 136.426 115.774 136.383C115.971 136.342 116.162 136.273 116.343 136.183C116.54 136.084 116.715 135.942 116.851 135.773L116.552 134.327L115.079 134.631L114.649 132.548L118.592 131.735L119.538 136.322C119.368 136.663 119.139 136.974 118.871 137.24L118.863 137.23Z" fill="#46474E" style="fill:#46474E;fill:color(display-p3 0.2745 0.2784 0.3059);fill-opacity:1;"/>
<path d="M120.438 141.359L102.953 144.965L103.438 147.316L120.923 143.71L120.438 141.359Z" fill="#46474E" style="fill:#46474E;fill:color(display-p3 0.2745 0.2784 0.3059);fill-opacity:1;"/>
</g>
<path d="M114.181 112.704C114.181 112.704 121.821 114.384 124.311 124.204C127.211 135.604 126.341 144.974 124.481 152.594C122.101 162.344 115.071 179.514 115.071 179.514C115.071 179.514 114.061 171.324 116.271 164.434C118.471 157.544 120.581 148.544 120.361 141.874C120.141 135.204 119.451 125.614 115.791 120.154C112.141 114.694 107.531 112.064 107.531 112.064C107.531 112.064 112.161 111.424 114.181 112.694V112.704Z" fill="#585960" style="fill:#585960;fill:color(display-p3 0.3451 0.3490 0.3765);fill-opacity:1;"/>
<path d="M91.8597 120.164C91.6697 119.014 89.6897 113.624 89.2397 111.154C88.5997 107.664 82.1797 99.474 82.1797 99.474C82.1797 99.474 82.2497 96.2739 85.7497 98.3839C89.8897 100.884 91.6497 104.424 92.8397 103.904C94.0297 103.384 101.83 97.2439 103.69 97.7039C105.54 98.1639 105.71 100.154 104.95 100.844C104.19 101.534 103.28 102.714 103.28 102.714C103.28 102.714 107.42 102.024 106.08 106.294C106.08 106.294 110.98 104.044 109.77 109.964C109.77 109.964 111.66 111.194 110.63 113.174C109.78 114.814 107.64 117.684 106.43 119.214C105.22 120.744 103.08 126.294 103.08 126.294L100.95 135.614L87.9497 131.154L91.8597 120.164Z" fill="#EBD4B0" style="fill:#EBD4B0;fill:color(display-p3 0.9216 0.8314 0.6902);fill-opacity:1;"/>
<path d="M103.228 102.825C103.268 102.885 102.268 103.535 101.068 104.375C99.8685 105.215 98.9185 105.925 98.8685 105.865C98.8285 105.815 99.7185 105.015 100.928 104.175C102.138 103.325 103.188 102.765 103.228 102.825Z" fill="#46474E" style="fill:#46474E;fill:color(display-p3 0.2745 0.2784 0.3059);fill-opacity:1;"/>
<path d="M106.416 106.095C106.466 106.125 106.016 106.945 105.206 107.745C104.406 108.555 103.586 108.995 103.556 108.945C103.516 108.885 104.256 108.355 105.036 107.575C105.826 106.795 106.356 106.055 106.416 106.095Z" fill="#46474E" style="fill:#46474E;fill:color(display-p3 0.2745 0.2784 0.3059);fill-opacity:1;"/>
<path d="M109.719 109.733C109.719 109.733 109.319 110.343 108.709 110.983C108.099 111.633 107.569 112.113 107.519 112.073C107.469 112.023 107.919 111.463 108.529 110.823C109.139 110.173 109.669 109.693 109.719 109.733Z" fill="#46474E" style="fill:#46474E;fill:color(display-p3 0.2745 0.2784 0.3059);fill-opacity:1;"/>
<path d="M148.534 167.773C148.494 167.923 145.874 167.193 142.564 167.223C139.254 167.223 136.634 167.983 136.594 167.833C136.574 167.773 137.204 167.503 138.274 167.243C139.344 166.973 140.864 166.743 142.554 166.723C144.244 166.723 145.764 166.943 146.834 167.193C147.904 167.453 148.544 167.713 148.524 167.773H148.534Z" fill="#46474E" style="fill:#46474E;fill:color(display-p3 0.2745 0.2784 0.3059);fill-opacity:1;"/>
<path d="M122.304 190.684C119.214 189.954 110.774 180.894 107.874 179.094C104.974 177.284 99.5041 179.094 99.5041 179.094C99.6641 182.554 101.914 180.904 103.844 181.204C105.774 181.504 108.354 183.464 108.354 183.464L104.654 183.914L97.4141 187.224C97.4141 187.224 97.4141 189.184 99.5041 190.534C101.594 191.884 107.224 189.824 107.224 189.824L110.444 190.834L107.064 191.434C107.064 191.434 102.554 192.184 101.434 193.244C100.304 194.294 101.274 195.354 101.274 195.354L108.034 193.694L112.054 194.444C112.054 194.444 118.564 200.344 121.874 201.224C125.174 202.104 129.274 198.264 129.274 198.264L122.294 190.684H122.304Z" fill="#EBD4B0" style="fill:#EBD4B0;fill:color(display-p3 0.9216 0.8314 0.6902);fill-opacity:1;"/>
<path d="M112.536 187.253C112.536 187.323 111.676 187.253 110.386 186.863C109.746 186.683 108.986 186.433 108.136 186.383C107.296 186.343 106.336 186.513 105.356 186.753C103.396 187.253 101.676 187.963 100.426 188.443C99.1759 188.933 98.3959 189.223 98.3759 189.163C98.3459 189.103 99.0759 188.703 100.296 188.133C101.516 187.573 103.226 186.813 105.236 186.293C106.246 186.053 107.226 185.883 108.166 185.953C109.096 186.043 109.856 186.333 110.486 186.553C111.736 187.033 112.536 187.203 112.536 187.263V187.253Z" fill="#46474E" style="fill:#46474E;fill:color(display-p3 0.2745 0.2784 0.3059);fill-opacity:1;"/>
<path d="M120.273 136.574C120.273 136.574 120.203 136.984 120.163 137.724C120.123 138.584 120.073 139.634 120.013 140.874C119.883 143.524 119.633 147.194 119.053 151.194C118.473 155.204 117.633 158.774 116.943 161.344C116.243 163.904 115.733 165.474 115.813 165.504C115.843 165.514 116.013 165.134 116.283 164.444C116.553 163.754 116.903 162.724 117.303 161.454C118.093 158.904 118.993 155.314 119.583 151.284C120.173 147.254 120.353 143.564 120.393 140.894C120.413 139.564 120.393 138.484 120.373 137.734C120.343 136.984 120.313 136.574 120.273 136.574Z" fill="#46474E" style="fill:#46474E;fill:color(display-p3 0.2745 0.2784 0.3059);fill-opacity:1;"/>
<path d="M50.4922 189.165C58.5422 166.735 64.0922 118.195 55.7122 110.345C58.0522 108.435 62.6322 107.415 64.9122 109.375C67.2022 111.345 68.3922 114.275 69.3022 117.145C73.6322 130.715 73.6922 145.475 70.4022 159.335C67.1122 173.195 60.5822 186.165 52.1822 197.675" fill="#585960" style="fill:#585960;fill:color(display-p3 0.3451 0.3490 0.3765);fill-opacity:1;"/>
<path d="M60.456 134.634L79.896 153.324L91.8659 120.164L102.916 127.024C102.916 127.024 94.216 168.174 89.486 174.274C84.766 180.374 82.0159 180.604 75.4059 177.734C68.7959 174.864 48.0859 151.034 48.0859 151.034L60.456 134.634Z" fill="#EBD4B0" style="fill:#EBD4B0;fill:color(display-p3 0.9216 0.8314 0.6902);fill-opacity:1;"/>
<path d="M50.3194 158.392C50.3194 158.392 33.2594 133.152 40.1994 120.382C40.1994 120.382 45.0094 113.262 50.4894 112.082C50.4894 112.082 54.7694 113.412 58.0694 117.762C61.3694 122.112 71.9094 137.792 71.9094 137.792L50.3194 158.382V158.392Z" fill="#FF725E" style="fill:#FF725E;fill:color(display-p3 1.0000 0.4471 0.3686);fill-opacity:1;"/>
<path d="M50.3194 158.392C50.3194 158.392 33.2594 133.152 40.1994 120.382C40.1994 120.382 45.0094 113.262 50.4894 112.082C50.4894 112.082 54.7694 113.412 58.0694 117.762C61.3694 122.112 71.9094 137.792 71.9094 137.792L50.3194 158.382V158.392Z" fill="url(#paint4_linear_2666_25365)" style=""/>
<path d="M103.084 126.293C103.084 126.293 103.104 126.173 103.174 125.963C103.264 125.713 103.374 125.413 103.514 125.023C103.824 124.203 104.294 123.013 104.984 121.513C105.344 120.773 105.714 119.933 106.314 119.103C106.924 118.323 107.564 117.453 108.234 116.523C108.894 115.583 109.604 114.573 110.234 113.463C110.564 112.913 110.804 112.323 110.684 111.703C110.584 111.093 110.164 110.523 109.634 110.143L109.524 110.063L109.544 109.923C109.624 109.393 109.724 108.843 109.714 108.283C109.714 107.733 109.634 107.153 109.314 106.733C109.014 106.303 108.474 106.093 107.894 106.113C107.324 106.123 106.704 106.273 106.154 106.513L105.674 106.723L105.824 106.233C106.084 105.393 106.234 104.403 105.764 103.693C105.274 103.003 104.194 102.863 103.294 102.983L102.684 103.063L103.054 102.583C103.354 102.203 103.664 101.823 103.984 101.463C104.144 101.283 104.314 101.093 104.494 100.923L104.764 100.663C104.834 100.603 104.884 100.523 104.934 100.433C105.314 99.6833 104.954 98.6033 104.144 98.1933C103.944 98.1033 103.714 97.9833 103.504 97.9833C103.324 97.9533 103.084 98.0133 102.854 98.0733C102.394 98.2133 101.924 98.4333 101.464 98.6633C100.554 99.1433 99.6541 99.6933 98.7641 100.263C97.1641 101.293 95.6341 102.383 94.1041 103.423C93.7041 103.683 93.3641 103.943 92.8941 104.173C92.5841 104.293 92.254 104.223 92.024 104.103C91.784 103.983 91.5941 103.833 91.4141 103.683C90.7041 103.073 90.124 102.403 89.494 101.793C88.264 100.553 86.9641 99.4633 85.5641 98.6133C84.8841 98.2133 84.1141 97.8533 83.4341 97.9533C82.7441 98.0433 82.4041 98.8233 82.3741 99.5033L82.3241 99.3533C84.4241 102.103 86.2341 104.723 87.6441 107.173C88.3341 108.403 88.954 109.593 89.274 110.803C89.524 112.003 89.8041 113.073 90.0941 114.043C90.6641 115.943 91.1241 117.463 91.4541 118.553C91.6041 119.073 91.714 119.483 91.774 119.753C91.834 120.033 91.844 120.173 91.834 120.173C91.564 119.343 90.9841 117.603 89.8441 114.113C89.5441 113.153 89.2341 112.053 88.9641 110.873C88.6441 109.733 88.0241 108.563 87.3241 107.353C85.9041 104.943 84.0741 102.343 81.9641 99.6233L81.9141 99.5533V99.4733C81.9441 99.0433 82.0441 98.6433 82.2641 98.2533C82.4741 97.8633 82.8941 97.5533 83.3541 97.4733C84.2841 97.3433 85.0941 97.7633 85.8141 98.1733C87.2541 99.0433 88.6041 100.153 89.8541 101.413C90.4841 102.023 91.084 102.703 91.744 103.273C92.064 103.553 92.4541 103.783 92.6941 103.683C93.0441 103.513 93.4441 103.223 93.8141 102.983C95.3341 101.943 96.8641 100.853 98.4741 99.8133C99.3741 99.2333 100.274 98.6733 101.214 98.1933C101.694 97.9533 102.174 97.7333 102.694 97.5733C102.964 97.5033 103.234 97.4233 103.564 97.4733C103.874 97.4933 104.114 97.6233 104.374 97.7433C105.394 98.2833 105.894 99.6233 105.364 100.673C105.294 100.803 105.204 100.923 105.094 101.033L104.834 101.283C104.664 101.453 104.504 101.623 104.344 101.803C104.024 102.163 103.714 102.523 103.434 102.893L103.194 102.493C103.734 102.423 104.254 102.443 104.784 102.563C105.294 102.683 105.824 102.953 106.144 103.423C106.474 103.893 106.534 104.443 106.534 104.943C106.504 105.193 106.484 105.443 106.434 105.683L106.254 106.383L105.924 106.093C106.554 105.833 107.184 105.673 107.854 105.663C108.514 105.633 109.254 105.903 109.644 106.483C110.054 107.043 110.104 107.703 110.114 108.293C110.114 108.893 110.014 109.463 109.924 110.023L109.834 109.803C110.464 110.253 110.924 110.903 111.054 111.653C111.194 112.403 110.864 113.133 110.534 113.673C109.864 114.803 109.154 115.813 108.474 116.743C107.794 117.673 107.134 118.533 106.514 119.313C105.934 120.083 105.534 120.913 105.164 121.643C104.444 123.113 103.944 124.293 103.594 125.093C103.434 125.463 103.294 125.763 103.194 126.003C103.104 126.213 103.054 126.313 103.044 126.313L103.084 126.293Z" fill="#46474E" style="fill:#46474E;fill:color(display-p3 0.2745 0.2784 0.3059);fill-opacity:1;"/>
<path d="M42.7259 195.313C42.7259 195.313 42.6459 195.113 42.5359 194.733C42.4159 194.293 42.2759 193.733 42.0959 193.043C41.7159 191.573 41.2059 189.443 40.6159 186.803C39.4259 181.523 37.9659 174.183 36.6859 166.023C35.4159 157.853 34.5659 150.423 34.0859 145.033C33.8459 142.333 33.6759 140.153 33.5859 138.643C33.5459 137.933 33.5159 137.353 33.4959 136.903C33.4759 136.503 33.4859 136.293 33.4959 136.293C33.5159 136.293 33.5459 136.503 33.5959 136.893C33.6459 137.343 33.7059 137.923 33.7859 138.623C33.9459 140.193 34.1759 142.353 34.4459 144.993C35.0159 150.373 35.9159 157.793 37.1959 165.943C38.4759 174.093 39.8759 181.433 40.9659 186.733C41.5059 189.333 41.9559 191.453 42.2759 193.003C42.4159 193.703 42.5359 194.263 42.6259 194.713C42.6959 195.103 42.7259 195.313 42.7159 195.313H42.7259Z" fill="#46474E" style="fill:#46474E;fill:color(display-p3 0.2745 0.2784 0.3059);fill-opacity:1;"/>
<path d="M46.2004 194.785C46.2604 194.905 45.1604 195.585 43.6404 195.985C42.1204 196.395 40.8304 196.365 40.8204 196.225C40.8104 196.075 42.0404 195.875 43.5104 195.485C44.9804 195.095 46.1404 194.655 46.2104 194.785H46.2004Z" fill="#46474E" style="fill:#46474E;fill:color(display-p3 0.2745 0.2784 0.3059);fill-opacity:1;"/>
<path d="M63.9888 84.475C63.9888 84.475 63.6589 84.175 63.1389 83.555C62.8689 83.255 62.5788 82.855 62.2688 82.385C62.1088 82.145 61.9389 81.895 61.7589 81.625C61.5989 81.335 61.4289 81.035 61.2589 80.725C59.8489 78.225 58.5389 74.335 58.4989 69.915C58.3889 65.485 59.6589 61.585 60.8789 59.005C61.5289 57.725 62.0989 56.705 62.5889 56.065C63.0489 55.405 63.3189 55.055 63.3489 55.075C63.4489 55.135 62.3889 56.575 61.2189 59.155C60.0989 61.735 58.9188 65.575 59.0188 69.905C59.0488 74.235 60.2788 78.055 61.5788 80.555C62.8688 83.085 64.0788 84.405 63.9888 84.475Z" fill="#585960" style="fill:#585960;fill:color(display-p3 0.3451 0.3490 0.3765);fill-opacity:1;"/>
<path d="M127.964 32.9753C127.644 33.0653 103.534 37.8753 103.534 37.8753L66.3838 42.5353L41.4438 42.8853L41.3438 41.4253L88.7938 32.8953L127.894 31.9453L127.964 32.9853V32.9753Z" fill="#46474E" style="fill:#46474E;fill:color(display-p3 0.2745 0.2784 0.3059);fill-opacity:1;"/>
<path d="M106.435 52.4067L103.535 37.8767C103.535 37.8767 88.005 32.3867 64.665 42.5667L61.125 60.3967C61.125 60.3967 73.885 50.5767 93.685 52.1067C93.685 52.1067 101.755 48.8667 106.435 52.4067Z" fill="#585960" style="fill:#585960;fill:color(display-p3 0.3451 0.3490 0.3765);fill-opacity:1;"/>
<path d="M93.6706 52.1059C93.7306 52.1059 93.7306 51.1659 93.6506 49.6459C93.5806 48.1359 93.4206 46.0459 93.2106 43.7459C92.9906 41.5159 92.8006 39.5059 92.6406 37.8559C92.4806 36.3459 92.3606 35.4159 92.3006 35.4259C92.2406 35.4259 92.2406 36.3659 92.3206 37.8859C92.3906 39.3959 92.5506 41.4859 92.7606 43.7859C92.9806 46.0159 93.1706 48.0259 93.3306 49.6759C93.4906 51.1859 93.6106 52.1159 93.6706 52.1059Z" fill="#46474E" style="fill:#46474E;fill:color(display-p3 0.2745 0.2784 0.3059);fill-opacity:1;"/>
<path d="M41.4438 42.8853L89.0837 34.4253L127.964 32.9753L127.884 31.9453L88.5738 32.7953L41.3438 41.4253L41.4438 42.8853Z" fill="#585960" style="fill:#585960;fill:color(display-p3 0.3451 0.3490 0.3765);fill-opacity:1;"/>
<path d="M89.0569 34.5749C89.1869 34.5749 89.2569 34.1649 89.2269 33.6749C89.1969 33.1849 89.0669 32.7949 88.9369 32.8049C88.8069 32.8049 88.7369 33.2149 88.7769 33.7049C88.8169 34.1949 88.9369 34.5849 89.0669 34.5749H89.0569Z" fill="#46474E" style="fill:#46474E;fill:color(display-p3 0.2745 0.2784 0.3059);fill-opacity:1;"/>
<path d="M123.752 42.5048L125.082 42.4648C126.602 43.0148 127.012 44.2348 127.252 45.3148C128.162 49.4448 128.772 53.5848 129.062 57.7448C127.682 57.8348 126.302 57.9248 124.912 58.0148C124.582 58.0348 124.632 47.6848 123.932 57.9648C123.912 58.3148 121.552 58.2448 121.652 57.8548C122.802 53.1348 122.772 48.7348 122.832 44.5948C122.842 43.8548 122.912 43.0248 123.752 42.5048Z" fill="#46474E" style="fill:#46474E;fill:color(display-p3 0.2745 0.2784 0.3059);fill-opacity:1;"/>
<path d="M123.745 40.7148C123.665 39.4548 123.515 38.1948 123.275 36.9548C123.075 35.9348 122.865 34.8848 122.355 33.9648C121.875 33.1048 121.125 32.3548 120.105 32.1348C118.845 31.8548 117.545 32.4048 116.455 32.9748C115.835 33.2948 115.285 32.3848 115.905 32.0548C117.175 31.3948 118.605 30.8348 120.075 31.0448C121.315 31.2248 122.325 31.9848 123.015 32.9748C123.715 33.9848 124.015 35.1748 124.265 36.3548C124.565 37.7848 124.745 39.2448 124.835 40.6948C124.875 41.3748 123.785 41.3748 123.745 40.6948V40.7148Z" fill="#46474E" style="fill:#46474E;fill:color(display-p3 0.2745 0.2784 0.3059);fill-opacity:1;"/>
<path d="M122.231 41.5148C122.301 42.5148 123.231 43.2748 124.301 43.2048C125.371 43.1348 126.191 42.2648 126.121 41.2648C126.051 40.2648 125.121 39.5048 124.051 39.5748C122.981 39.6448 122.161 40.5148 122.231 41.5148Z" fill="#46474E" style="fill:#46474E;fill:color(display-p3 0.2745 0.2784 0.3059);fill-opacity:1;"/>
<path d="M127.455 54.8364C127.515 54.8364 127.575 54.1564 127.525 53.0464C127.475 51.9464 127.305 50.4264 127.005 48.7664C126.695 47.1064 126.325 45.6264 125.955 44.5764C125.765 44.0564 125.585 43.6364 125.415 43.3664C125.255 43.0864 125.085 42.9864 125.075 43.0064C125.045 43.0364 125.155 43.1664 125.255 43.4464C125.375 43.7164 125.505 44.1464 125.645 44.6664C125.935 45.7164 126.255 47.1964 126.555 48.8364C126.855 50.4764 127.065 51.9764 127.195 53.0564C127.325 54.1464 127.375 54.8164 127.445 54.8164L127.455 54.8364Z" fill="#585960" style="fill:#585960;fill:color(display-p3 0.3451 0.3490 0.3765);fill-opacity:1;"/>
<path d="M125.331 52.0544C125.451 52.0544 125.601 50.0344 125.411 47.5344C125.231 45.0444 124.781 43.0544 124.661 43.0744C124.531 43.0944 124.781 45.0944 124.961 47.5644C125.151 50.0344 125.201 52.0444 125.331 52.0444V52.0544Z" fill="#585960" style="fill:#585960;fill:color(display-p3 0.3451 0.3490 0.3765);fill-opacity:1;"/>
<path d="M123.89 45.6453C124.02 45.6453 124.13 45.0953 124.14 44.4253C124.15 43.7453 124.06 43.1953 123.93 43.1953C123.8 43.1953 123.69 43.7453 123.68 44.4153C123.67 45.0953 123.76 45.6453 123.88 45.6453H123.89Z" fill="#585960" style="fill:#585960;fill:color(display-p3 0.3451 0.3490 0.3765);fill-opacity:1;"/>
<path d="M118.126 32.1953L115.016 32.2553V33.2553L118.376 32.9853L118.126 32.1953Z" fill="#585960" style="fill:#585960;fill:color(display-p3 0.3451 0.3490 0.3765);fill-opacity:1;"/>
<defs>
<linearGradient id="paint0_linear_2666_25365" x1="406.527" y1="139.298" x2="439.336" y2="186.652" gradientUnits="userSpaceOnUse">
<stop stop-color="#FFD66B" style="stop-color:#FFD66B;stop-color:color(display-p3 1.0000 0.8378 0.4208);stop-opacity:1;"/>
<stop offset="1" stop-color="#FFA469" style="stop-color:#FFA469;stop-color:color(display-p3 1.0000 0.6431 0.4118);stop-opacity:1;"/>
</linearGradient>
<linearGradient id="paint1_linear_2666_25365" x1="232.911" y1="328.585" x2="235.406" y2="345.549" gradientUnits="userSpaceOnUse">
<stop stop-color="#FFD66B" style="stop-color:#FFD66B;stop-color:color(display-p3 1.0000 0.8378 0.4208);stop-opacity:1;"/>
<stop offset="1" stop-color="#FFA469" style="stop-color:#FFA469;stop-color:color(display-p3 1.0000 0.6431 0.4118);stop-opacity:1;"/>
</linearGradient>
<linearGradient id="paint2_linear_2666_25365" x1="121.928" y1="126.125" x2="140.109" y2="144.892" gradientUnits="userSpaceOnUse">
<stop stop-color="#FFD66B" style="stop-color:#FFD66B;stop-color:color(display-p3 1.0000 0.8378 0.4208);stop-opacity:1;"/>
<stop offset="1" stop-color="#FFA469" style="stop-color:#FFA469;stop-color:color(display-p3 1.0000 0.6431 0.4118);stop-opacity:1;"/>
</linearGradient>
<linearGradient id="paint3_linear_2666_25365" x1="75.0748" y1="135.626" x2="119.823" y2="175.117" gradientUnits="userSpaceOnUse">
<stop stop-color="#FFD66B" style="stop-color:#FFD66B;stop-color:color(display-p3 1.0000 0.8378 0.4208);stop-opacity:1;"/>
<stop offset="1" stop-color="#FFA469" style="stop-color:#FFA469;stop-color:color(display-p3 1.0000 0.6431 0.4118);stop-opacity:1;"/>
</linearGradient>
<linearGradient id="paint4_linear_2666_25365" x1="51.4968" y1="124.074" x2="70.4592" y2="141.617" gradientUnits="userSpaceOnUse">
<stop stop-color="#FFD66B" style="stop-color:#FFD66B;stop-color:color(display-p3 1.0000 0.8378 0.4208);stop-opacity:1;"/>
<stop offset="1" stop-color="#FFA469" style="stop-color:#FFA469;stop-color:color(display-p3 1.0000 0.6431 0.4118);stop-opacity:1;"/>
</linearGradient>
<clipPath id="clip0_2666_25365">
<rect width="539.642" height="414.262" fill="white" style="fill:white;fill-opacity:1;" transform="translate(78.3594)"/>
</clipPath>
<clipPath id="clip1_2666_25365">
<rect width="379.08" height="333.541" fill="white" style="fill:white;fill-opacity:1;" transform="translate(178.484 82.1758)"/>
</clipPath>
<clipPath id="clip2_2666_25365">
<rect width="17.9147" height="17.0525" fill="white" style="fill:white;fill-opacity:1;" transform="translate(99.9844 130.602) rotate(-11.6525)"/>
</clipPath>
</defs>
</svg>
