<svg width="280" height="254" viewBox="0 0 280 254" fill="none" xmlns="http://www.w3.org/2000/svg">
<path d="M16.7468 177.86C16.7468 177.86 7.1505 177.715 7.13672 186.002" stroke="#FFA469" style="stroke:#FFA469;stroke:color(display-p3 1.0000 0.6431 0.4118);stroke-opacity:1;" stroke-width="0.688897" stroke-linecap="round" stroke-linejoin="round"/>
<path d="M15.9517 183.076C15.752 181.857 11.5704 180.348 10.8539 183.503C10.1306 186.658 15.318 184.771 16.9231 183.283C16.9231 183.283 13.947 186.176 14.884 186.996" stroke="#FFA469" style="stroke:#FFA469;stroke:color(display-p3 1.0000 0.6431 0.4118);stroke-opacity:1;" stroke-width="0.688897" stroke-linecap="round" stroke-linejoin="round"/>
<path d="M16.5535 187.922C16.5535 187.922 15.2928 189.506 13.9219 188.755" stroke="#FFA469" style="stroke:#FFA469;stroke:color(display-p3 1.0000 0.6431 0.4118);stroke-opacity:1;" stroke-width="0.688897" stroke-linecap="round" stroke-linejoin="round"/>
<path d="M24.9343 182.359L17.7422 189.703C17.7422 189.703 21.3382 186.031 23.46 187.195C26.0778 188.635 22.6816 192.562 19.8847 189.744" stroke="#FFA469" style="stroke:#FFA469;stroke:color(display-p3 1.0000 0.6431 0.4118);stroke-opacity:1;" stroke-width="0.688897" stroke-linecap="round" stroke-linejoin="round"/>
<path d="M28.5797 184.359C28.5797 184.359 30.4811 193.108 20.6367 193.418" stroke="#FFA469" style="stroke:#FFA469;stroke:color(display-p3 1.0000 0.6431 0.4118);stroke-opacity:1;" stroke-width="0.688897" stroke-linecap="round" stroke-linejoin="round"/>
<path d="M157.098 35.7516L160.563 36.3234L160.618 44.2113L168.216 30.3438L180.217 32.314" stroke="#717278" style="stroke:#717278;stroke:color(display-p3 0.4431 0.4471 0.4706);stroke-opacity:1;" stroke-width="0.688897" stroke-linecap="round" stroke-linejoin="round"/>
<path d="M169.543 36.4219L174.82 45.7358" stroke="#717278" style="stroke:#717278;stroke:color(display-p3 0.4431 0.4471 0.4706);stroke-opacity:1;" stroke-width="0.688897" stroke-linecap="round" stroke-linejoin="round"/>
<path d="M176.164 37.5078L166.719 44.4037" stroke="#717278" style="stroke:#717278;stroke:color(display-p3 0.4431 0.4471 0.4706);stroke-opacity:1;" stroke-width="0.688897" stroke-linecap="round" stroke-linejoin="round"/>
<path d="M109.653 49.7871C108.764 48.6573 103.645 49.4633 104.686 53.0869C105.719 56.7174 109.956 51.8744 110.762 49.4564C110.762 49.4564 109.35 54.0858 110.762 54.3889" stroke="#FFA469" style="stroke:#FFA469;stroke:color(display-p3 1.0000 0.6431 0.4118);stroke-opacity:1;" stroke-width="0.688897" stroke-linecap="round" stroke-linejoin="round"/>
<path d="M113.573 46.0625L112.43 50.1545C112.43 50.1545 113.001 48.1085 114 48.1085C115.233 48.1085 114.786 50.2028 113.215 49.7412" stroke="#FFA469" style="stroke:#FFA469;stroke:color(display-p3 1.0000 0.6431 0.4118);stroke-opacity:1;" stroke-width="0.688897" stroke-linecap="round" stroke-linejoin="round"/>
<path d="M210.067 96.1562L207.656 104.871L212.933 110.637" stroke="#717278" style="stroke:#717278;stroke:color(display-p3 0.4431 0.4471 0.4706);stroke-opacity:1;" stroke-width="0.688897" stroke-linecap="round" stroke-linejoin="round"/>
<path d="M213.086 99.7031L219.128 104.753" stroke="#717278" style="stroke:#717278;stroke:color(display-p3 0.4431 0.4471 0.4706);stroke-opacity:1;" stroke-width="0.688897" stroke-linecap="round" stroke-linejoin="round"/>
<path d="M217.248 98.4531L214.637 104.867" stroke="#717278" style="stroke:#717278;stroke:color(display-p3 0.4431 0.4471 0.4706);stroke-opacity:1;" stroke-width="0.688897" stroke-linecap="round" stroke-linejoin="round"/>
<path d="M221.492 104.047C221.492 104.047 221.547 105.866 220.762 106.1" stroke="#717278" style="stroke:#717278;stroke:color(display-p3 0.4431 0.4471 0.4706);stroke-opacity:1;" stroke-width="0.688897" stroke-linecap="round" stroke-linejoin="round"/>
<path d="M222.25 97.6875L225.887 100.395" stroke="#717278" style="stroke:#717278;stroke:color(display-p3 0.4431 0.4471 0.4706);stroke-opacity:1;" stroke-width="0.688897" stroke-linecap="round" stroke-linejoin="round"/>
<path d="M227.248 95.4688L223.652 108.42" stroke="#717278" style="stroke:#717278;stroke:color(display-p3 0.4431 0.4471 0.4706);stroke-opacity:1;" stroke-width="0.688897" stroke-linecap="round" stroke-linejoin="round"/>
<path d="M227.418 90.9688L233.26 97.5822L230.773 104.816" stroke="#717278" style="stroke:#717278;stroke:color(display-p3 0.4431 0.4471 0.4706);stroke-opacity:1;" stroke-width="0.688897" stroke-linecap="round" stroke-linejoin="round"/>
<path d="M13.284 120.935C18.0361 120.935 21.8883 117.083 21.8883 112.331C21.8883 107.579 18.0361 103.727 13.284 103.727C8.53198 103.727 4.67969 107.579 4.67969 112.331C4.67969 117.083 8.53198 120.935 13.284 120.935Z" stroke="#717278" style="stroke:#717278;stroke:color(display-p3 0.4431 0.4471 0.4706);stroke-opacity:1;" stroke-width="0.688897" stroke-linecap="round" stroke-linejoin="round"/>
<path d="M22.8333 114.346C28.1066 114.346 32.3814 110.071 32.3814 104.798C32.3814 99.5248 28.1066 95.25 22.8333 95.25C17.56 95.25 13.2852 99.5248 13.2852 104.798C13.2852 110.071 17.56 114.346 22.8333 114.346Z" stroke="#717278" style="stroke:#717278;stroke:color(display-p3 0.4431 0.4471 0.4706);stroke-opacity:1;" stroke-width="0.688897" stroke-linecap="round" stroke-linejoin="round"/>
<path d="M14.9767 103.891L13.8125 107.934" stroke="#717278" style="stroke:#717278;stroke:color(display-p3 0.4431 0.4471 0.4706);stroke-opacity:1;" stroke-width="0.688897" stroke-linecap="round" stroke-linejoin="round"/>
<path d="M16.6269 104.391L14.9805 110.219" stroke="#717278" style="stroke:#717278;stroke:color(display-p3 0.4431 0.4471 0.4706);stroke-opacity:1;" stroke-width="0.688897" stroke-linecap="round" stroke-linejoin="round"/>
<path d="M18.3433 105.375L16.6211 111.968" stroke="#717278" style="stroke:#717278;stroke:color(display-p3 0.4431 0.4471 0.4706);stroke-opacity:1;" stroke-width="0.688897" stroke-linecap="round" stroke-linejoin="round"/>
<path d="M20.2731 107.312L19.0469 113.568" stroke="#717278" style="stroke:#717278;stroke:color(display-p3 0.4431 0.4471 0.4706);stroke-opacity:1;" stroke-width="0.688897" stroke-linecap="round" stroke-linejoin="round"/>
<path d="M21.358 109.344L20.2695 113.994" stroke="#717278" style="stroke:#717278;stroke:color(display-p3 0.4431 0.4471 0.4706);stroke-opacity:1;" stroke-width="0.688897" stroke-linecap="round" stroke-linejoin="round"/>
<path d="M5.05876 101.309C4.30787 101.074 2.24806 103.031 3.84631 104.347C5.44455 105.662 5.851 102.156 5.45833 100.812C5.45833 100.812 6.26434 103.341 6.99457 103.038" stroke="#717278" style="stroke:#717278;stroke:color(display-p3 0.4431 0.4471 0.4706);stroke-opacity:1;" stroke-width="0.688897" stroke-linecap="round" stroke-linejoin="round"/>
<path d="M16.1641 90.2578L18.899 95.273C18.899 95.273 17.5281 92.7654 18.4925 91.8216C19.6774 90.6643 21.2206 93.103 19.271 94.1363" stroke="#717278" style="stroke:#717278;stroke:color(display-p3 0.4431 0.4471 0.4706);stroke-opacity:1;" stroke-width="0.688897" stroke-linecap="round" stroke-linejoin="round"/>
<path d="M66.5117 89.6562L70.404 93.3419" stroke="#717278" style="stroke:#717278;stroke:color(display-p3 0.4431 0.4471 0.4706);stroke-opacity:1;" stroke-width="0.688897" stroke-linecap="round" stroke-linejoin="round"/>
<path d="M70.4021 88.6953L67.1367 93.5589" stroke="#717278" style="stroke:#717278;stroke:color(display-p3 0.4431 0.4471 0.4706);stroke-opacity:1;" stroke-width="0.688897" stroke-linecap="round" stroke-linejoin="round"/>
<path d="M74.2305 90.0942L78.1227 88.6406" stroke="#717278" style="stroke:#717278;stroke:color(display-p3 0.4431 0.4471 0.4706);stroke-opacity:1;" stroke-width="0.688897" stroke-linecap="round" stroke-linejoin="round"/>
<path d="M79.9883 84.5781L82.3581 86.6724" stroke="#717278" style="stroke:#717278;stroke:color(display-p3 0.4431 0.4471 0.4706);stroke-opacity:1;" stroke-width="0.688897" stroke-linecap="round" stroke-linejoin="round"/>
<path d="M84.1755 82.0625L81.1719 92.3546" stroke="#717278" style="stroke:#717278;stroke:color(display-p3 0.4431 0.4471 0.4706);stroke-opacity:1;" stroke-width="0.688897" stroke-linecap="round" stroke-linejoin="round"/>
<path d="M254.299 80L254.141 72.1328H260.086C260.086 72.1328 256.793 73.9446 258.302 78.1813C259.81 82.4181 262.263 79.9931 262.263 79.9931" stroke="#717278" style="stroke:#717278;stroke:color(display-p3 0.4431 0.4471 0.4706);stroke-opacity:1;" stroke-width="0.688897" stroke-linecap="round" stroke-linejoin="round"/>
<path d="M48.375 145.391L55.14 140.734L64.0956 141.361L64.6605 152.714L58.0816 157.419L49.9732 156.827L48.375 145.391Z" stroke="#717278" style="stroke:#717278;stroke:color(display-p3 0.4431 0.4471 0.4706);stroke-opacity:1;" stroke-width="0.688897" stroke-linecap="round" stroke-linejoin="round"/>
<path d="M49.9727 156.821L56.5172 152.109L64.66 152.709" stroke="#717278" style="stroke:#717278;stroke:color(display-p3 0.4431 0.4471 0.4706);stroke-opacity:1;" stroke-width="0.688897" stroke-linecap="round" stroke-linejoin="round"/>
<path d="M56.5184 152.115L55.1406 140.734" stroke="#717278" style="stroke:#717278;stroke:color(display-p3 0.4431 0.4471 0.4706);stroke-opacity:1;" stroke-width="0.688897" stroke-linecap="round" stroke-linejoin="round"/>
<path d="M48.375 145.389L57.3169 146.423L64.0956 141.359" stroke="#717278" style="stroke:#717278;stroke:color(display-p3 0.4431 0.4471 0.4706);stroke-opacity:1;" stroke-width="0.688897" stroke-linecap="round" stroke-linejoin="round"/>
<path d="M57.3164 146.422L58.0811 157.417" stroke="#717278" style="stroke:#717278;stroke:color(display-p3 0.4431 0.4471 0.4706);stroke-opacity:1;" stroke-width="0.688897" stroke-linecap="round" stroke-linejoin="round"/>
<path d="M245.461 128.93L245.172 144.065L258.44 138.044L245.461 128.93Z" stroke="#717278" style="stroke:#717278;stroke:color(display-p3 0.4431 0.4471 0.4706);stroke-opacity:1;" stroke-width="0.688897" stroke-linecap="round" stroke-linejoin="round"/>
<path d="M245.461 128.93L251.785 140.979" stroke="#717278" style="stroke:#717278;stroke:color(display-p3 0.4431 0.4471 0.4706);stroke-opacity:1;" stroke-width="0.688897" stroke-linecap="round" stroke-linejoin="round"/>
<path d="M250.773 139.041L252.31 138.297L253.343 140.357" stroke="#717278" style="stroke:#717278;stroke:color(display-p3 0.4431 0.4471 0.4706);stroke-opacity:1;" stroke-width="0.688897" stroke-linecap="round" stroke-linejoin="round"/>
<path d="M129.84 127.5L135.33 133.376" stroke="#717278" style="stroke:#717278;stroke:color(display-p3 0.4431 0.4471 0.4706);stroke-opacity:1;" stroke-width="0.688897" stroke-linecap="round" stroke-linejoin="round"/>
<path d="M135.374 126.703L130.766 133.013" stroke="#717278" style="stroke:#717278;stroke:color(display-p3 0.4431 0.4471 0.4706);stroke-opacity:1;" stroke-width="0.688897" stroke-linecap="round" stroke-linejoin="round"/>
<path d="M137.608 123.63C137.608 123.63 138.883 123.134 139.151 124.457C139.42 125.78 137.25 127.502 137.25 127.502H140.343" stroke="#717278" style="stroke:#717278;stroke:color(display-p3 0.4431 0.4471 0.4706);stroke-opacity:1;" stroke-width="0.688897" stroke-linecap="round" stroke-linejoin="round"/>
<path d="M232.953 54.6363C227.207 54.6914 221.806 51.1298 219.788 45.405C217.887 40.0041 219.54 34.2174 223.522 30.5938" stroke="#717278" style="stroke:#717278;stroke:color(display-p3 0.4431 0.4471 0.4706);stroke-opacity:1;" stroke-width="0.688897" stroke-linecap="round" stroke-linejoin="round"/>
<path d="M245.905 45.2812C244.583 49.146 241.565 52.3907 237.418 53.858" stroke="#717278" style="stroke:#717278;stroke:color(display-p3 0.4431 0.4471 0.4706);stroke-opacity:1;" stroke-width="0.688897" stroke-linecap="round" stroke-linejoin="round"/>
<path d="M228.242 27.7882C235.441 25.2531 243.329 29.0352 245.864 36.2341" stroke="#717278" style="stroke:#717278;stroke:color(display-p3 0.4431 0.4471 0.4706);stroke-opacity:1;" stroke-width="0.688897" stroke-linecap="round" stroke-linejoin="round"/>
<path d="M239.649 30.7188C241.744 32.131 243.424 34.2046 244.327 36.7742C246.559 43.1258 243.225 50.0837 236.873 52.3226C232.113 53.9966 227.001 52.543 223.805 49.0296" stroke="#717278" style="stroke:#717278;stroke:color(display-p3 0.4431 0.4471 0.4706);stroke-opacity:1;" stroke-width="0.688897" stroke-linecap="round" stroke-linejoin="round"/>
<path d="M221.33 44.8695C219.098 38.5179 222.432 31.56 228.784 29.3211C231.168 28.4806 233.634 28.4255 235.9 29.0249" stroke="#717278" style="stroke:#717278;stroke:color(display-p3 0.4431 0.4471 0.4706);stroke-opacity:1;" stroke-width="0.688897" stroke-linecap="round" stroke-linejoin="round"/>
<path d="M228.172 33.2969L232.829 40.8265L228.585 46.3377" stroke="#717278" style="stroke:#717278;stroke:color(display-p3 0.4431 0.4471 0.4706);stroke-opacity:1;" stroke-width="0.688897" stroke-linecap="round" stroke-linejoin="round"/>
<g clip-path="url(#clip0_2640_4225)">
<path d="M216.535 67.0156L196.98 83.3407L167.223 142.253L185.776 150.653L214.708 92.8762L216.535 67.0156Z" fill="#65666D" style="fill:#65666D;fill:color(display-p3 0.3961 0.4000 0.4275);fill-opacity:1;"/>
<path d="M216.535 67.0156L196.98 83.3407L167.223 142.253L185.776 150.653L214.708 92.8762L216.535 67.0156Z" fill="url(#paint0_linear_2640_4225)" style=""/>
<g opacity="0.7">
<path d="M214.709 92.8762C213.702 93.0078 212.789 92.3746 212.864 91.359C211.638 92.7884 209.473 93.3213 207.734 92.6129C205.989 91.9107 204.794 90.0237 204.907 88.1429C203.268 89.0269 201.16 88.9516 199.583 87.9548C198.013 86.958 197.037 85.0835 197.131 83.2216L216.536 67.0156L214.709 92.8762Z" fill="#D7D7D7" style="fill:#D7D7D7;fill:color(display-p3 0.8417 0.8417 0.8417);fill-opacity:1;"/>
</g>
<path d="M208.672 73.5795C208.672 73.5795 208.966 78.457 215.791 77.6106L216.541 67.0156L208.678 73.5795H208.672Z" fill="#FFA469" style="fill:#FFA469;fill:color(display-p3 1.0000 0.6431 0.4118);fill-opacity:1;"/>
<path d="M236.492 131.914V183.265C236.492 183.785 237.293 183.785 237.293 183.265V131.914C237.293 131.393 236.492 131.393 236.492 131.914Z" fill="#FFA469" style="fill:#FFA469;fill:color(display-p3 1.0000 0.6431 0.4118);fill-opacity:1;"/>
<path d="M239.796 171.943C239.796 173.542 238.501 174.84 236.906 174.84C235.311 174.84 234.016 173.542 234.016 171.943C234.016 170.345 235.311 169.047 236.906 169.047C238.501 169.047 239.796 170.345 239.796 171.943Z" fill="#FFA469" style="fill:#FFA469;fill:color(display-p3 1.0000 0.6431 0.4118);fill-opacity:1;"/>
<path d="M236.085 173.442C236.085 173.442 233.983 175.549 233.351 181.737C232.72 187.924 232.582 191.015 232.582 191.015L238.262 191.366C238.262 191.366 238.262 186.727 238.262 186.934C238.262 187.141 239.382 190.238 239.382 190.238L243.873 188.758C243.873 188.758 242.259 172.308 236.085 173.43V173.442Z" fill="#FFA469" style="fill:#FFA469;fill:color(display-p3 1.0000 0.6431 0.4118);fill-opacity:1;"/>
<path d="M206.542 136.109H110.082V170.966H206.542V136.109Z" fill="#65666D" style="fill:#65666D;fill:color(display-p3 0.3961 0.4000 0.4275);fill-opacity:1;"/>
<path d="M240.426 130.109H75.4375V136.109H240.426V130.109Z" fill="#65666D" style="fill:#65666D;fill:color(display-p3 0.3961 0.4000 0.4275);fill-opacity:1;"/>
<path opacity="0.3" d="M110.082 161.073C110.082 161.073 139.389 150.535 158.312 146.648C177.235 142.761 206.542 144.052 206.542 144.052V136.109H110.082V161.073Z" fill="#3F3F46" style="fill:#3F3F46;fill:color(display-p3 0.2471 0.2471 0.2745);fill-opacity:1;"/>
<path opacity="0.3" d="M135.115 130.109H75.4375V136.109H135.115V130.109Z" fill="#65666D" style="fill:#65666D;fill:color(display-p3 0.3961 0.4000 0.4275);fill-opacity:1;"/>
<path d="M239.232 136.107C239.232 136.201 202.544 136.276 157.304 136.276C112.064 136.276 75.3633 136.201 75.3633 136.107C75.3633 136.013 112.039 135.938 157.304 135.938C202.569 135.938 239.232 136.013 239.232 136.107Z" fill="#8F8F92" style="fill:#8F8F92;fill:color(display-p3 0.5608 0.5608 0.5725);fill-opacity:1;"/>
<path d="M135.017 136.164C134.923 136.164 134.848 134.797 134.848 133.117C134.848 131.437 134.923 130.07 135.017 130.07C135.11 130.07 135.185 131.437 135.185 133.117C135.185 134.797 135.11 136.164 135.017 136.164Z" fill="#8F8F92" style="fill:#8F8F92;fill:color(display-p3 0.5608 0.5608 0.5725);fill-opacity:1;"/>
<path d="M148.778 170.968C148.684 170.968 148.609 164.166 148.609 155.784C148.609 147.402 148.684 140.594 148.778 140.594C148.872 140.594 148.947 147.396 148.947 155.784C148.947 164.172 148.872 170.968 148.778 170.968Z" fill="#8F8F92" style="fill:#8F8F92;fill:color(display-p3 0.5608 0.5608 0.5725);fill-opacity:1;"/>
<path d="M123.93 197.899H70.5957C64.4965 197.899 59.5547 192.946 59.5547 186.833V180.909C59.5547 174.796 64.4965 169.844 70.5957 169.844H123.93V197.892V197.899Z" fill="#585960" style="fill:#585960;fill:color(display-p3 0.3451 0.3490 0.3765);fill-opacity:1;"/>
<path d="M220.379 174.51H107.887V169.852H220.379C221.393 169.852 222.212 170.673 222.212 171.688V172.673C222.212 173.688 221.393 174.51 220.379 174.51Z" fill="#585960" style="fill:#585960;fill:color(display-p3 0.3451 0.3490 0.3765);fill-opacity:1;"/>
<path d="M220.379 197.892H107.887V193.234H220.379C221.393 193.234 222.212 194.056 222.212 195.071V196.056C222.212 197.071 221.393 197.892 220.379 197.892Z" fill="#585960" style="fill:#585960;fill:color(display-p3 0.3451 0.3490 0.3765);fill-opacity:1;"/>
<path d="M218.802 193.248H120.647C115.486 193.248 111.301 189.054 111.301 183.882C111.301 178.71 115.486 174.516 120.647 174.516H218.802C216.168 180.76 216.168 187.004 218.802 193.254V193.248Z" fill="#D7D7D7" style="fill:#D7D7D7;fill:color(display-p3 0.8417 0.8417 0.8417);fill-opacity:1;"/>
<path d="M111.294 197.899H70.5897C64.3717 197.899 57.4531 194.913 57.4531 184.733V182.921C57.4531 173.598 64.3342 169.844 70.5021 169.844H112.358C102.224 175.994 102.981 190.727 111.294 197.892V197.899Z" fill="#3F3F46" style="fill:#3F3F46;fill:color(display-p3 0.2471 0.2471 0.2745);fill-opacity:1;"/>
<path d="M206.871 184.747C206.871 184.841 186.722 184.917 161.875 184.917C137.028 184.917 116.879 184.841 116.879 184.747C116.879 184.653 137.022 184.578 161.875 184.578C186.728 184.578 206.871 184.653 206.871 184.747Z" fill="#65666D" style="fill:#65666D;fill:color(display-p3 0.3961 0.4000 0.4275);fill-opacity:1;"/>
<path d="M216.136 188.904C216.136 188.998 195.987 189.073 171.14 189.073C146.294 189.073 126.145 188.998 126.145 188.904C126.145 188.81 146.287 188.734 171.14 188.734C195.987 188.734 216.136 188.81 216.136 188.904Z" fill="#65666D" style="fill:#65666D;fill:color(display-p3 0.3961 0.4000 0.4275);fill-opacity:1;"/>
<path d="M213.402 178.841C213.402 178.935 193.253 179.01 168.406 179.01C143.559 179.01 123.41 178.935 123.41 178.841C123.41 178.747 143.553 178.672 168.406 178.672C193.253 178.672 213.402 178.747 213.402 178.841Z" fill="#65666D" style="fill:#65666D;fill:color(display-p3 0.3961 0.4000 0.4275);fill-opacity:1;"/>
<path d="M106.363 172.185C106.363 172.279 96.9295 172.354 85.3006 172.354C73.6716 172.354 64.2383 172.279 64.2383 172.185C64.2383 172.091 73.6653 172.016 85.3006 172.016C96.9358 172.016 106.363 172.091 106.363 172.185Z" fill="#65666D" style="fill:#65666D;fill:color(display-p3 0.3961 0.4000 0.4275);fill-opacity:1;"/>
<path d="M117.105 253.846H52.5779C47.1014 253.846 42.6641 248.861 42.6641 242.71V228.621C42.6641 222.469 47.1014 217.484 52.5779 217.484H117.105V253.84V253.846Z" fill="#585960" style="fill:#585960;fill:color(display-p3 0.3451 0.3490 0.3765);fill-opacity:1;"/>
<path d="M244.255 223.593H98.8516V217.594H244.248C245.262 217.594 246.081 218.415 246.081 219.431V221.757C246.081 222.772 245.262 223.593 244.248 223.593H244.255Z" fill="#585960" style="fill:#585960;fill:color(display-p3 0.3451 0.3490 0.3765);fill-opacity:1;"/>
<path d="M244.255 253.718H98.8516V247.719H244.248C245.262 247.719 246.081 248.54 246.081 249.556V251.882C246.081 252.897 245.262 253.718 244.248 253.718H244.255Z" fill="#585960" style="fill:#585960;fill:color(display-p3 0.3451 0.3490 0.3765);fill-opacity:1;"/>
<path d="M241.697 247.718H115.286C108.636 247.718 103.25 242.314 103.25 235.656C103.25 228.992 108.642 223.594 115.286 223.594H241.697C238.306 231.637 238.306 239.681 241.697 247.724V247.718Z" fill="#D7D7D7" style="fill:#D7D7D7;fill:color(display-p3 0.8417 0.8417 0.8417);fill-opacity:1;"/>
<path d="M103.242 253.715H46.68C40.6622 253.715 33.9062 245.672 33.9062 235.353C33.9062 225.009 40.8311 217.586 47.0678 217.586H104.618C91.5695 225.51 92.5453 244.481 103.249 253.709L103.242 253.715Z" fill="#3F3F46" style="fill:#3F3F46;fill:color(display-p3 0.2471 0.2471 0.2745);fill-opacity:1;"/>
<path d="M226.329 236.779C226.329 236.873 200.381 236.948 168.385 236.948C136.388 236.948 110.434 236.873 110.434 236.779C110.434 236.685 136.375 236.609 168.385 236.609C200.381 236.609 226.329 236.685 226.329 236.779Z" fill="#65666D" style="fill:#65666D;fill:color(display-p3 0.3961 0.4000 0.4275);fill-opacity:1;"/>
<path d="M238.263 242.138C238.263 242.232 212.315 242.307 180.318 242.307C148.321 242.307 122.367 242.232 122.367 242.138C122.367 242.044 148.309 241.969 180.318 241.969C212.328 241.969 238.263 242.044 238.263 242.138Z" fill="#65666D" style="fill:#65666D;fill:color(display-p3 0.3961 0.4000 0.4275);fill-opacity:1;"/>
<path d="M234.747 231.794C234.747 231.888 208.799 231.964 176.803 231.964C144.806 231.964 118.852 231.888 118.852 231.794C118.852 231.7 144.793 231.625 176.803 231.625C208.812 231.625 234.747 231.7 234.747 231.794Z" fill="#65666D" style="fill:#65666D;fill:color(display-p3 0.3961 0.4000 0.4275);fill-opacity:1;"/>
<path d="M96.9001 220.583C96.9001 220.677 84.7519 220.753 69.7762 220.753C54.8005 220.753 42.6523 220.677 42.6523 220.583C42.6523 220.489 54.7943 220.414 69.7762 220.414C84.7581 220.414 96.9001 220.489 96.9001 220.583Z" fill="#65666D" style="fill:#65666D;fill:color(display-p3 0.3961 0.4000 0.4275);fill-opacity:1;"/>
<path d="M138.345 217.729H79.1306C74.6329 217.729 70.9922 214.074 70.9922 209.573V205.203C70.9922 200.696 74.6391 197.047 79.1306 197.047H138.345V217.729Z" fill="#8F8F92" style="fill:#8F8F92;fill:color(display-p3 0.5608 0.5608 0.5725);fill-opacity:1;"/>
<path d="M241.454 201.918H123.75V197.047H241.454C242.511 197.047 243.374 197.906 243.374 198.972V200C243.374 201.059 242.517 201.924 241.454 201.924V201.918Z" fill="#8F8F92" style="fill:#8F8F92;fill:color(display-p3 0.5608 0.5608 0.5725);fill-opacity:1;"/>
<path d="M241.454 217.731H123.75V212.859H241.454C242.511 212.859 243.374 213.718 243.374 214.784V215.812C243.374 216.872 242.517 217.737 241.454 217.737V217.731Z" fill="#8F8F92" style="fill:#8F8F92;fill:color(display-p3 0.5608 0.5608 0.5725);fill-opacity:1;"/>
<path d="M239.811 212.855H132.779C129.764 212.855 127.324 210.404 127.324 207.389C127.324 204.367 129.77 201.922 132.779 201.922H239.811C237.058 205.571 237.058 209.213 239.811 212.862V212.855Z" fill="#D7D7D7" style="fill:#D7D7D7;fill:color(display-p3 0.8417 0.8417 0.8417);fill-opacity:1;"/>
<path d="M127.321 217.729H79.1791C74.6564 217.729 70.9844 214.055 70.9844 209.516V205.423C70.9844 200.796 74.7252 197.047 79.3417 197.047H128.429C117.826 201.586 118.62 212.45 127.315 217.729H127.321Z" fill="#65666D" style="fill:#65666D;fill:color(display-p3 0.3961 0.4000 0.4275);fill-opacity:1;"/>
<path d="M127.321 217.729H79.1791C74.6564 217.729 70.9844 214.055 70.9844 209.516V205.423C70.9844 200.796 74.7252 197.047 79.3417 197.047H128.429C117.826 201.586 118.62 212.45 127.315 217.729H127.321Z" fill="url(#paint1_linear_2640_4225)" style=""/>
<path d="M227.328 206.529C227.328 206.623 206.247 206.698 180.249 206.698C154.251 206.698 133.164 206.623 133.164 206.529C133.164 206.435 154.239 206.359 180.249 206.359C206.247 206.359 227.328 206.435 227.328 206.529Z" fill="#65666D" style="fill:#65666D;fill:color(display-p3 0.3961 0.4000 0.4275);fill-opacity:1;"/>
<path d="M237.02 209.466C237.02 209.56 215.939 209.635 189.941 209.635C163.943 209.635 142.855 209.56 142.855 209.466C142.855 209.372 163.93 209.297 189.941 209.297C215.951 209.297 237.02 209.372 237.02 209.466Z" fill="#65666D" style="fill:#65666D;fill:color(display-p3 0.3961 0.4000 0.4275);fill-opacity:1;"/>
<path d="M122.162 199.482C122.162 199.576 112.297 199.651 100.124 199.651C87.9509 199.651 78.0859 199.576 78.0859 199.482C78.0859 199.388 87.9509 199.312 100.124 199.312C112.291 199.312 122.162 199.388 122.162 199.482Z" fill="#65666D" style="fill:#65666D;fill:color(display-p3 0.3961 0.4000 0.4275);fill-opacity:1;"/>
<path d="M241.967 197.044C241.967 197.138 205.767 197.214 161.127 197.214C116.488 197.214 80.2812 197.138 80.2812 197.044C80.2812 196.95 116.469 196.875 161.127 196.875C205.785 196.875 241.967 196.95 241.967 197.044Z" fill="#65666D" style="fill:#65666D;fill:color(display-p3 0.3961 0.4000 0.4275);fill-opacity:1;"/>
<path d="M177.051 178.531V189.766L180.935 187.271L185.271 189.766V178.531H177.051Z" fill="#FFA469" style="fill:#FFA469;fill:color(display-p3 1.0000 0.6431 0.4118);fill-opacity:1;"/>
</g>
<line x1="11" y1="253.5" x2="259" y2="253.5" stroke="#D7D7D7" style="stroke:#D7D7D7;stroke:color(display-p3 0.8417 0.8417 0.8417);stroke-opacity:1;"/>
<defs>
<linearGradient id="paint0_linear_2640_4225" x1="161.553" y1="98.995" x2="179.917" y2="125.5" gradientUnits="userSpaceOnUse">
<stop stop-color="#FFD66B" style="stop-color:#FFD66B;stop-color:color(display-p3 1.0000 0.8378 0.4208);stop-opacity:1;"/>
<stop offset="1" stop-color="#FFA469" style="stop-color:#FFA469;stop-color:color(display-p3 1.0000 0.6431 0.4118);stop-opacity:1;"/>
</linearGradient>
<linearGradient id="paint1_linear_2640_4225" x1="64.3798" y1="204.955" x2="65.7763" y2="214.45" gradientUnits="userSpaceOnUse">
<stop stop-color="#FFD66B" style="stop-color:#FFD66B;stop-color:color(display-p3 1.0000 0.8378 0.4208);stop-opacity:1;"/>
<stop offset="1" stop-color="#FFA469" style="stop-color:#FFA469;stop-color:color(display-p3 1.0000 0.6431 0.4118);stop-opacity:1;"/>
</linearGradient>
<clipPath id="clip0_2640_4225">
<rect width="212.18" height="186.691" fill="white" style="fill:white;fill-opacity:1;" transform="translate(33.9102 67.0234)"/>
</clipPath>
</defs>
</svg>
