<svg width="387" height="259" viewBox="0 0 387 259" fill="none" xmlns="http://www.w3.org/2000/svg">
<g clip-path="url(#clip0_2666_23052)">
<path d="M346.181 -0.0078125L319.178 22.5528L278.086 103.967L303.707 115.576L343.659 35.7305L346.181 -0.0078125Z" fill="#65666D" style="fill:#65666D;fill:color(display-p3 0.3961 0.4000 0.4275);fill-opacity:1;"/>
<path d="M346.181 -0.0078125L319.178 22.5528L278.086 103.967L303.707 115.576L343.659 35.7305L346.181 -0.0078125Z" fill="url(#paint0_linear_2666_23052)" style=""/>
<g opacity="0.7">
<path d="M343.657 35.7305C342.266 35.9124 341.005 35.0374 341.109 33.6338C339.416 35.6092 336.427 36.3456 334.025 35.3666C331.615 34.3962 329.965 31.7884 330.121 29.1893C327.858 30.4109 324.947 30.3069 322.77 28.9294C320.602 27.5518 319.254 24.9613 319.384 22.3882L346.179 -0.0078125L343.657 35.7305Z" fill="#D7D7D7" style="fill:#D7D7D7;fill:color(display-p3 0.8417 0.8417 0.8417);fill-opacity:1;"/>
</g>
<path d="M335.32 9.06321C335.32 9.06321 335.726 15.8037 345.151 14.6341L346.187 -0.0078125L335.329 9.06321H335.32Z" fill="#FFA469" style="fill:#FFA469;fill:color(display-p3 1.0000 0.6431 0.4118);fill-opacity:1;"/>
<path d="M373.75 89.676V160.641C373.75 161.361 374.856 161.361 374.856 160.641V89.676C374.856 88.9569 373.75 88.9569 373.75 89.676Z" fill="#FFA469" style="fill:#FFA469;fill:color(display-p3 1.0000 0.6431 0.4118);fill-opacity:1;"/>
<path d="M378.31 144.999C378.31 147.208 376.522 149.001 374.319 149.001C372.116 149.001 370.328 147.208 370.328 144.999C370.328 142.79 372.116 140.996 374.319 140.996C376.522 140.996 378.31 142.79 378.31 144.999Z" fill="#FFA469" style="fill:#FFA469;fill:color(display-p3 1.0000 0.6431 0.4118);fill-opacity:1;"/>
<path d="M373.189 147.074C373.189 147.074 370.287 149.985 369.414 158.536C368.542 167.087 368.352 171.358 368.352 171.358L376.195 171.844C376.195 171.844 376.195 165.432 376.195 165.718C376.195 166.004 377.741 170.284 377.741 170.284L383.944 168.239C383.944 168.239 381.715 145.506 373.189 147.056V147.074Z" fill="#FFA469" style="fill:#FFA469;fill:color(display-p3 1.0000 0.6431 0.4118);fill-opacity:1;"/>
<path d="M332.397 95.4805H199.195V143.651H332.397V95.4805Z" fill="#65666D" style="fill:#65666D;fill:color(display-p3 0.3961 0.4000 0.4275);fill-opacity:1;"/>
<path d="M379.185 87.1875H151.352V95.4788H379.185V87.1875Z" fill="#65666D" style="fill:#65666D;fill:color(display-p3 0.3961 0.4000 0.4275);fill-opacity:1;"/>
<path opacity="0.3" d="M199.195 129.98C199.195 129.98 239.665 115.416 265.796 110.044C291.927 104.673 332.397 106.458 332.397 106.458V95.4805H199.195V129.98Z" fill="#3F3F46" style="fill:#3F3F46;fill:color(display-p3 0.2471 0.2471 0.2745);fill-opacity:1;"/>
<path opacity="0.3" d="M233.76 87.1875H151.352V95.4788H233.76V87.1875Z" fill="#65666D" style="fill:#65666D;fill:color(display-p3 0.3961 0.4000 0.4275);fill-opacity:1;"/>
<path d="M377.537 95.4761C377.537 95.6061 326.874 95.71 264.402 95.71C201.93 95.71 151.25 95.6061 151.25 95.4761C151.25 95.3462 201.896 95.2422 264.402 95.2422C326.908 95.2422 377.537 95.3462 377.537 95.4761Z" fill="#8F8F92" style="fill:#8F8F92;fill:color(display-p3 0.5608 0.5608 0.5725);fill-opacity:1;"/>
<path d="M233.624 95.5501C233.494 95.5501 233.391 93.6614 233.391 91.3395C233.391 89.0176 233.494 87.1289 233.624 87.1289C233.753 87.1289 233.857 89.0176 233.857 91.3395C233.857 93.6614 233.753 95.5501 233.624 95.5501Z" fill="#8F8F92" style="fill:#8F8F92;fill:color(display-p3 0.5608 0.5608 0.5725);fill-opacity:1;"/>
<path d="M252.632 143.644C252.502 143.644 252.398 134.244 252.398 122.66C252.398 111.077 252.502 101.668 252.632 101.668C252.761 101.668 252.865 111.068 252.865 122.66C252.865 134.253 252.761 143.644 252.632 143.644Z" fill="#8F8F92" style="fill:#8F8F92;fill:color(display-p3 0.5608 0.5608 0.5725);fill-opacity:1;"/>
<path d="M218.302 180.86H144.653C136.23 180.86 129.406 174.016 129.406 165.569V157.382C129.406 148.934 136.23 142.09 144.653 142.09H218.302V180.852V180.86Z" fill="#585960" style="fill:#585960;fill:color(display-p3 0.3451 0.3490 0.3765);fill-opacity:1;"/>
<path d="M351.49 148.535H196.148V142.098H351.49C352.889 142.098 354.021 143.233 354.021 144.636V145.996C354.021 147.4 352.889 148.535 351.49 148.535Z" fill="#585960" style="fill:#585960;fill:color(display-p3 0.3451 0.3490 0.3765);fill-opacity:1;"/>
<path d="M351.49 180.859H196.148V174.422H351.49C352.889 174.422 354.021 175.557 354.021 176.96V178.321C354.021 179.724 352.889 180.859 351.49 180.859Z" fill="#585960" style="fill:#585960;fill:color(display-p3 0.3451 0.3490 0.3765);fill-opacity:1;"/>
<path d="M349.315 174.43H213.773C206.646 174.43 200.867 168.634 200.867 161.487C200.867 154.339 206.646 148.543 213.773 148.543H349.315C345.678 157.172 345.678 165.801 349.315 174.439V174.43Z" fill="#D7D7D7" style="fill:#D7D7D7;fill:color(display-p3 0.8417 0.8417 0.8417);fill-opacity:1;"/>
<path d="M200.857 180.86H144.648C136.062 180.86 126.508 176.735 126.508 162.666V160.163C126.508 147.278 136.01 142.09 144.527 142.09H202.326C188.332 150.589 189.377 170.949 200.857 180.852V180.86Z" fill="#3F3F46" style="fill:#3F3F46;fill:color(display-p3 0.2471 0.2471 0.2745);fill-opacity:1;"/>
<path d="M332.84 162.687C332.84 162.817 305.016 162.921 270.705 162.921C236.394 162.921 208.57 162.817 208.57 162.687C208.57 162.557 236.385 162.453 270.705 162.453C305.025 162.453 332.84 162.557 332.84 162.687Z" fill="#65666D" style="fill:#65666D;fill:color(display-p3 0.3961 0.4000 0.4275);fill-opacity:1;"/>
<path d="M345.637 168.437C345.637 168.567 317.813 168.671 283.502 168.671C249.191 168.671 221.367 168.567 221.367 168.437C221.367 168.307 249.182 168.203 283.502 168.203C317.813 168.203 345.637 168.307 345.637 168.437Z" fill="#65666D" style="fill:#65666D;fill:color(display-p3 0.3961 0.4000 0.4275);fill-opacity:1;"/>
<path d="M341.855 154.519C341.855 154.649 314.032 154.753 279.721 154.753C245.41 154.753 217.586 154.649 217.586 154.519C217.586 154.389 245.401 154.285 279.721 154.285C314.032 154.285 341.855 154.389 341.855 154.519Z" fill="#65666D" style="fill:#65666D;fill:color(display-p3 0.3961 0.4000 0.4275);fill-opacity:1;"/>
<path d="M194.045 145.32C194.045 145.45 181.018 145.554 164.96 145.554C148.901 145.554 135.875 145.45 135.875 145.32C135.875 145.19 148.893 145.086 164.96 145.086C181.027 145.086 194.045 145.19 194.045 145.32Z" fill="#65666D" style="fill:#65666D;fill:color(display-p3 0.3961 0.4000 0.4275);fill-opacity:1;"/>
<path d="M208.881 258.172H119.776C112.213 258.172 106.086 251.284 106.086 242.782V223.312C106.086 214.81 112.213 207.922 119.776 207.922H208.881V258.163V258.172Z" fill="#585960" style="fill:#585960;fill:color(display-p3 0.3451 0.3490 0.3765);fill-opacity:1;"/>
<path d="M384.459 216.366H183.672V208.074H384.45C385.85 208.074 386.981 209.209 386.981 210.613V213.827C386.981 215.231 385.85 216.366 384.45 216.366H384.459Z" fill="#585960" style="fill:#585960;fill:color(display-p3 0.3451 0.3490 0.3765);fill-opacity:1;"/>
<path d="M384.459 257.991H183.672V249.699H384.45C385.85 249.699 386.981 250.834 386.981 252.238V255.452C386.981 256.856 385.85 257.991 384.45 257.991H384.459Z" fill="#585960" style="fill:#585960;fill:color(display-p3 0.3451 0.3490 0.3765);fill-opacity:1;"/>
<path d="M380.931 249.698H206.37C197.188 249.698 189.75 242.23 189.75 233.029C189.75 223.819 197.196 216.359 206.37 216.359H380.931C376.249 227.475 376.249 238.591 380.931 249.706V249.698Z" fill="#D7D7D7" style="fill:#D7D7D7;fill:color(display-p3 0.8417 0.8417 0.8417);fill-opacity:1;"/>
<path d="M189.738 257.992H111.631C103.321 257.992 93.9922 246.876 93.9922 232.616C93.9922 218.32 103.555 208.062 112.167 208.062H191.639C173.619 219.014 174.967 245.23 189.747 257.983L189.738 257.992Z" fill="#3F3F46" style="fill:#3F3F46;fill:color(display-p3 0.2471 0.2471 0.2745);fill-opacity:1;"/>
<path d="M359.712 234.582C359.712 234.712 323.881 234.816 279.696 234.816C235.512 234.816 199.672 234.712 199.672 234.582C199.672 234.452 235.495 234.348 279.696 234.348C323.881 234.348 359.712 234.452 359.712 234.582Z" fill="#65666D" style="fill:#65666D;fill:color(display-p3 0.3961 0.4000 0.4275);fill-opacity:1;"/>
<path d="M376.189 241.988C376.189 242.118 340.357 242.222 296.173 242.222C251.988 242.222 216.148 242.118 216.148 241.988C216.148 241.858 251.971 241.754 296.173 241.754C340.375 241.754 376.189 241.858 376.189 241.988Z" fill="#65666D" style="fill:#65666D;fill:color(display-p3 0.3961 0.4000 0.4275);fill-opacity:1;"/>
<path d="M371.329 227.703C371.329 227.833 335.498 227.937 291.314 227.937C247.129 227.937 211.289 227.833 211.289 227.703C211.289 227.573 247.112 227.469 291.314 227.469C335.515 227.469 371.329 227.573 371.329 227.703Z" fill="#65666D" style="fill:#65666D;fill:color(display-p3 0.3961 0.4000 0.4275);fill-opacity:1;"/>
<path d="M180.981 212.203C180.981 212.333 164.206 212.437 143.526 212.437C122.846 212.437 106.07 212.333 106.07 212.203C106.07 212.073 122.837 211.969 143.526 211.969C164.214 211.969 180.981 212.073 180.981 212.203Z" fill="#65666D" style="fill:#65666D;fill:color(display-p3 0.3961 0.4000 0.4275);fill-opacity:1;"/>
<path d="M238.219 208.254H156.449C150.238 208.254 145.211 203.203 145.211 196.982V190.944C145.211 184.714 150.247 179.672 156.449 179.672H238.219V208.254Z" fill="#8F8F92" style="fill:#8F8F92;fill:color(display-p3 0.5608 0.5608 0.5725);fill-opacity:1;"/>
<path d="M380.599 186.404H218.062V179.672H380.599C382.059 179.672 383.251 180.859 383.251 182.332V183.753C383.251 185.217 382.068 186.412 380.599 186.412V186.404Z" fill="#8F8F92" style="fill:#8F8F92;fill:color(display-p3 0.5608 0.5608 0.5725);fill-opacity:1;"/>
<path d="M380.599 208.255H218.062V201.523H380.599C382.059 201.523 383.251 202.71 383.251 204.183V205.604C383.251 207.068 382.068 208.264 380.599 208.264V208.255Z" fill="#8F8F92" style="fill:#8F8F92;fill:color(display-p3 0.5608 0.5608 0.5725);fill-opacity:1;"/>
<path d="M378.333 201.528H230.533C226.369 201.528 223 198.14 223 193.973C223 189.797 226.378 186.418 230.533 186.418H378.333C374.532 191.46 374.532 196.494 378.333 201.536V201.528Z" fill="#D7D7D7" style="fill:#D7D7D7;fill:color(display-p3 0.8417 0.8417 0.8417);fill-opacity:1;"/>
<path d="M222.991 208.254H156.511C150.266 208.254 145.195 203.177 145.195 196.904V191.247C145.195 184.853 150.361 179.672 156.736 179.672H224.52C209.878 185.944 210.975 200.959 222.983 208.254H222.991Z" fill="#65666D" style="fill:#65666D;fill:color(display-p3 0.3961 0.4000 0.4275);fill-opacity:1;"/>
<path d="M222.991 208.254H156.511C150.266 208.254 145.195 203.177 145.195 196.904V191.247C145.195 184.853 150.361 179.672 156.736 179.672H224.52C209.878 185.944 210.975 200.959 222.983 208.254H222.991Z" fill="#65666D" style="fill:#65666D;fill:color(display-p3 0.3961 0.4000 0.4275);fill-opacity:1;"/>
<path d="M361.094 192.777C361.094 192.907 331.983 193.011 296.082 193.011C260.182 193.011 231.062 192.907 231.062 192.777C231.062 192.647 260.165 192.543 296.082 192.543C331.983 192.543 361.094 192.647 361.094 192.777Z" fill="#65666D" style="fill:#65666D;fill:color(display-p3 0.3961 0.4000 0.4275);fill-opacity:1;"/>
<path d="M374.477 196.847C374.477 196.977 345.366 197.081 309.465 197.081C273.565 197.081 244.445 196.977 244.445 196.847C244.445 196.717 273.547 196.613 309.465 196.613C345.383 196.613 374.477 196.717 374.477 196.847Z" fill="#65666D" style="fill:#65666D;fill:color(display-p3 0.3961 0.4000 0.4275);fill-opacity:1;"/>
<path d="M215.865 183.039C215.865 183.169 202.242 183.273 185.432 183.273C168.622 183.273 155 183.169 155 183.039C155 182.909 168.622 182.805 185.432 182.805C202.234 182.805 215.865 182.909 215.865 183.039Z" fill="#65666D" style="fill:#65666D;fill:color(display-p3 0.3961 0.4000 0.4275);fill-opacity:1;"/>
<path d="M381.304 179.675C381.304 179.805 331.314 179.909 269.672 179.909C208.029 179.909 158.031 179.805 158.031 179.675C158.031 179.545 208.003 179.441 269.672 179.441C331.34 179.441 381.304 179.545 381.304 179.675Z" fill="#65666D" style="fill:#65666D;fill:color(display-p3 0.3961 0.4000 0.4275);fill-opacity:1;"/>
<path d="M291.664 154.102V169.627L297.028 166.179L303.015 169.627V154.102H291.664Z" fill="#FFA469" style="fill:#FFA469;fill:color(display-p3 1.0000 0.6431 0.4118);fill-opacity:1;"/>
</g>
<path d="M182.607 127.761C184.521 127.594 185.63 125.153 184.989 123.311C184.347 121.469 182.509 120.298 180.65 119.806C178.79 119.314 174.834 117.852 174.834 117.852C174.834 117.852 172.563 116.698 169.153 112.029C168.033 110.495 167.006 109.22 165.892 107.253C163.219 102.528 162.984 101.732 161.613 94.0028C158.737 73.7434 143.305 60.2483 121.126 65.0587C121.126 65.0587 110.742 70.5618 106.564 82.2272C118.634 96.1583 113.238 128.099 104.705 143.99L120.657 144.656L121.422 144.593C122.331 146.652 123.478 148.547 124.958 150.155C130.338 155.987 137.146 160.314 144.33 163.576C158.836 170.166 159.271 151.485 174.673 147.672C177.927 146.869 181.181 145.756 183.832 143.687C186.482 141.619 188.467 138.437 188.428 135.037C188.389 131.638 185.935 128.205 182.607 127.761Z" fill="#B6866A" style="fill:#B6866A;fill:color(display-p3 0.7126 0.5262 0.4154);fill-opacity:1;"/>
<path d="M148.199 92.8285C148.199 92.8285 138.802 97.2805 129.8 73.8113C126.719 65.7846 118.079 60.1573 118.079 60.1573L121.064 58.7742C121.064 58.7742 141.22 61.4819 141.586 61.6814C141.945 61.8816 147.902 71.0138 147.902 71.0138L148.204 92.8221L148.199 92.8285Z" fill="#B6866A" style="fill:#B6866A;fill:color(display-p3 0.7126 0.5262 0.4154);fill-opacity:1;"/>
<path d="M146.693 77.2421L146.663 73.1711L122.082 69.164C114.521 68.566 106.204 76.9328 105.922 84.5175C105.845 86.6039 106.059 88.2591 105.789 90.5551C105.098 96.4132 105.668 105.139 106.548 109.837C108.794 121.83 119.319 122.201 119.319 122.201C119.36 125.18 119.215 127.462 119.256 130.441C119.366 138.165 125.714 144.33 133.44 144.23C141.145 144.124 147.304 137.806 147.228 130.106L146.695 77.2517L146.693 77.2421Z" fill="#EBD4B0" style="fill:#EBD4B0;fill:color(display-p3 0.9216 0.8314 0.6902);fill-opacity:1;"/>
<path d="M108.879 92.5985C108.873 93.4497 109.591 94.1687 110.483 94.1887C111.375 94.2087 112.101 93.5388 112.107 92.6877C112.113 91.8365 111.396 91.1175 110.503 91.0975C109.611 91.0775 108.876 91.7487 108.869 92.5999L108.879 92.5985Z" fill="#46474E" style="fill:#46474E;fill:color(display-p3 0.2745 0.2784 0.3059);fill-opacity:1;"/>
<path d="M108.769 88.8267C108.974 89.0321 110.179 88.089 111.922 88.0468C113.661 87.9759 114.958 88.8474 115.141 88.6259C115.235 88.5247 115.016 88.155 114.453 87.7659C113.899 87.3754 112.948 87.0119 111.867 87.0383C110.787 87.0742 109.88 87.4962 109.363 87.9213C108.838 88.3478 108.667 88.7335 108.769 88.8267Z" fill="#46474E" style="fill:#46474E;fill:color(display-p3 0.2745 0.2784 0.3059);fill-opacity:1;"/>
<path d="M125.188 92.5064C125.181 93.3576 125.899 94.0766 126.791 94.0966C127.683 94.1166 128.409 93.4467 128.425 92.5942C128.441 91.7417 127.714 91.024 126.822 91.0041C125.929 90.9841 125.194 91.6553 125.188 92.5064Z" fill="#46474E" style="fill:#46474E;fill:color(display-p3 0.2745 0.2784 0.3059);fill-opacity:1;"/>
<path d="M125.894 88.69C126.099 88.8954 127.304 87.9523 129.047 87.9101C130.786 87.8392 132.092 88.7093 132.266 88.4891C132.36 88.388 132.141 88.0183 131.578 87.6292C131.024 87.2387 130.073 86.8752 128.992 86.9016C127.903 86.9389 127.005 87.3595 126.488 87.7846C125.963 88.2111 125.792 88.5968 125.894 88.69Z" fill="#46474E" style="fill:#46474E;fill:color(display-p3 0.2745 0.2784 0.3059);fill-opacity:1;"/>
<path d="M119.672 102.022C119.677 101.923 116.977 101.456 116.977 101.456C116.977 101.456 116.325 101.262 116.243 100.961C116.13 100.645 116.172 100.126 116.371 99.5997C116.764 98.508 117.17 97.3754 117.596 96.1812C119.299 91.3071 120.511 87.3139 120.315 87.244C120.12 87.174 118.581 91.067 116.888 95.9397C116.482 97.1408 115.921 98.2592 115.55 99.3577C115.397 99.868 115.283 100.468 115.532 101.126C115.657 101.45 116.001 101.651 116.276 101.753C116.479 101.829 116.827 101.912 117.043 101.921C118.769 102.066 119.676 102.119 119.672 102.022Z" fill="#46474E" style="fill:#46474E;fill:color(display-p3 0.2745 0.2784 0.3059);fill-opacity:1;"/>
<path d="M119.301 122.205C119.301 122.205 127.102 122.325 134.391 118.049C134.391 118.049 130.766 125.178 119.338 124.693L119.293 122.206L119.301 122.205Z" fill="#CDAF8B" style="fill:#CDAF8B;fill:color(display-p3 0.8054 0.6874 0.5464);fill-opacity:1;"/>
<path d="M120.756 105.952C121.359 105.104 122.444 104.627 123.54 104.706C124.301 104.764 125.074 105.114 125.55 105.711C126.027 106.318 126.141 107.191 125.746 107.784C125.294 108.454 124.313 108.633 123.481 108.419C122.64 108.206 121.909 107.674 121.219 107.147C121.022 106.999 120.835 106.849 120.707 106.643C120.58 106.436 120.552 106.166 120.694 105.999" fill="#EBD4B0" style="fill:#EBD4B0;fill:color(display-p3 0.9216 0.8314 0.6902);fill-opacity:1;"/>
<path d="M125.168 102.423C124.884 102.415 124.927 104.305 123.345 105.692C121.764 107.08 119.748 106.926 119.737 107.191C119.715 107.312 120.198 107.546 121.048 107.543C121.879 107.552 123.098 107.252 124.062 106.402C125.026 105.551 125.425 104.439 125.461 103.662C125.515 102.873 125.283 102.407 125.159 102.425L125.168 102.423Z" fill="#46474E" style="fill:#46474E;fill:color(display-p3 0.2745 0.2784 0.3059);fill-opacity:1;"/>
<path d="M125.251 81.875C125.436 82.3472 127.165 82.0724 129.217 82.27C131.27 82.4183 132.932 82.974 133.194 82.5459C133.312 82.3435 133.014 81.8971 132.336 81.4559C131.667 81.0133 130.603 80.6073 129.367 80.509C128.141 80.4093 127.02 80.6368 126.283 80.9468C125.536 81.2677 125.171 81.6519 125.251 81.875Z" fill="#46474E" style="fill:#46474E;fill:color(display-p3 0.2745 0.2784 0.3059);fill-opacity:1;"/>
<path d="M109.269 83.7601C109.587 84.1449 110.776 83.7027 112.214 83.6451C113.655 83.5383 114.881 83.8433 115.153 83.4234C115.271 83.221 115.069 82.8294 114.519 82.4677C113.979 82.1046 113.099 81.8287 112.11 81.8812C111.122 81.9432 110.266 82.3188 109.779 82.7398C109.282 83.1622 109.125 83.5753 109.259 83.7615L109.269 83.7601Z" fill="#46474E" style="fill:#46474E;fill:color(display-p3 0.2745 0.2784 0.3059);fill-opacity:1;"/>
<path d="M121.344 93.1012C121.401 93.093 121.284 92.4744 121.419 91.3607C121.549 90.277 121.923 88.349 123.228 87.0959C124.164 86.197 124.914 85.8619 126.177 85.5644C127.515 85.2493 128.353 85.3797 129.695 85.6748C131.201 86.006 132.589 86.3772 133.713 87.433C134.928 88.5742 135.106 89.576 135.186 91.1269C135.266 92.6932 134.664 94.1283 134.076 94.9866C133.393 95.9828 132.587 96.9944 131.261 97.8098C130.587 98.224 129.52 98.4586 128.352 98.5413C126.856 98.6472 125.424 98.4114 124.557 97.9481C122.809 96.9941 122.335 95.7458 121.908 94.7315C121.469 93.7089 121.408 93.0725 121.351 93.0807C121.332 93.0834 121.344 93.238 121.386 93.535C121.428 93.832 121.519 94.2686 121.723 94.8066C122.108 95.866 122.575 97.2033 124.386 98.2559C125.279 98.7643 126.769 99.0319 128.332 98.9545C129.591 98.8922 130.737 98.6132 131.475 98.2191C132.946 97.4346 133.679 96.3326 134.509 95.2183C135.105 94.4178 135.781 92.7361 135.682 91.0466C135.584 89.3766 135.37 88.3013 134.064 87.0802C132.857 85.9516 131.403 85.5491 129.786 85.2124C128.354 84.9145 127.458 84.7979 126.042 85.1633C124.721 85.5043 123.935 85.8676 122.976 86.8384C121.654 88.1775 121.304 90.2043 121.229 91.329C121.183 91.9023 121.208 92.3485 121.259 92.6441C121.302 92.9411 121.333 93.093 121.352 93.0903L121.344 93.1012Z" fill="#46474E" style="fill:#46474E;fill:color(display-p3 0.2745 0.2784 0.3059);fill-opacity:1;"/>
<path d="M103.792 92.0771C103.849 92.0689 103.732 91.4503 103.867 90.3366C103.997 89.2529 104.057 87.6355 105.469 86.2232C106.113 85.5788 107.01 85.2071 108.128 84.9C109.883 84.4185 112.016 84.7876 112.87 85.0652C113.723 85.3428 114.973 85.677 115.854 86.6628C116.884 87.8153 117.022 88.8795 117.087 90.4238C117.158 92.1019 116.679 93.3525 115.994 94.5834C115.34 95.8294 114.706 96.8863 113.57 97.4873C112.438 98.1171 111.331 98.211 110.184 98.188C109.027 98.1569 107.912 97.7911 107.045 97.3278C105.297 96.3738 104.783 94.7217 104.356 93.7074C103.917 92.6848 103.856 92.0484 103.799 92.0566C103.78 92.0593 103.792 92.2139 103.834 92.5109C103.876 92.8079 103.967 93.2445 104.171 93.7825C104.556 94.8419 105.063 96.583 106.874 97.6356C107.767 98.144 108.946 98.5495 110.165 98.6013C111.383 98.6434 112.569 98.5579 113.784 97.8967C115.004 97.2642 115.716 96.1376 116.427 94.8151C117.159 93.4993 117.674 92.145 117.584 90.3435C117.501 88.6809 117.336 87.5317 116.205 86.31C115.23 85.2571 113.57 84.8853 112.925 84.6556C112.279 84.426 109.991 83.9512 108.162 84.4918C106.987 84.8393 106.183 85.0027 105.217 85.9657C103.945 87.2358 103.752 89.1802 103.677 90.3049C103.632 90.8782 103.656 91.3244 103.708 91.62C103.75 91.917 103.781 92.0689 103.8 92.0662L103.792 92.0771Z" fill="#46474E" style="fill:#46474E;fill:color(display-p3 0.2745 0.2784 0.3059);fill-opacity:1;"/>
<path d="M121.86 89.0839C121.916 89.0661 121.88 88.7391 121.584 88.3119C121.291 87.8942 120.692 87.3928 119.882 87.2635C119.072 87.1341 118.339 87.414 117.933 87.716C117.518 88.029 117.374 88.3231 117.419 88.3655C117.475 88.4162 117.701 88.218 118.113 88.0227C118.515 87.8287 119.136 87.6528 119.795 87.7547C120.456 87.8661 120.985 88.221 121.304 88.5374C121.632 88.8524 121.786 89.1139 121.85 89.0852L121.86 89.0839Z" fill="#46474E" style="fill:#46474E;fill:color(display-p3 0.2745 0.2784 0.3059);fill-opacity:1;"/>
<path d="M135.912 92.7547C135.882 92.886 137.173 93.2402 138.789 93.5387C140.405 93.8371 141.733 93.971 141.753 93.8315C141.772 93.6919 140.48 93.3377 138.876 93.0475C137.269 92.7477 135.942 92.6233 135.912 92.7547Z" fill="#46474E" style="fill:#46474E;fill:color(display-p3 0.2745 0.2784 0.3059);fill-opacity:1;"/>
<path d="M142.278 62.1793C144.665 62.6069 150.75 68.7407 150.405 71.1343C150.061 73.5278 167.35 120.419 167.91 124.359C168.309 127.174 158.412 134.322 145.77 127.502C133.129 120.681 142.69 95.1744 138.81 86.5638C131.185 69.6453 119.892 69.3306 119.044 68.6934C118.401 68.2103 113.414 69.4924 111.881 74.8789C110.18 80.8559 98.0461 78.5654 105.867 65.3946L114.545 61.2914L122.267 59.0468L130.871 58.9742L142.278 62.1793Z" fill="#B6866A" style="fill:#B6866A;fill:color(display-p3 0.7126 0.5262 0.4154);fill-opacity:1;"/>
<path d="M66.1164 194.359L83.8464 187.204L97.3884 151.828L115.44 161.13C115.44 161.13 113.694 164.625 109.963 173.269C108.523 176.606 103.75 185.909 101.805 190.441C98.1354 198.994 89.8414 204.645 80.5364 204.888L63.8984 205.322L66.1164 194.359Z" fill="#FFBF9D" style="fill:#FFBF9D;fill:color(display-p3 1.0000 0.7490 0.6157);fill-opacity:1;"/>
<path d="M57.3105 187.512L54.6335 184.697C54.1175 184.365 53.5135 184.198 52.9005 184.216L44.4145 184.474C42.8135 184.632 41.3705 185.506 40.4885 186.851L37.4035 192.103C37.4035 192.103 35.3295 195.696 35.5935 196.569C35.9925 197.887 37.3835 197.619 37.3835 197.619C37.3835 197.619 37.6775 199.279 38.2335 199.617C39.1615 200.18 40.2945 199.75 40.2945 199.75C40.6025 200.387 41.2585 200.811 41.9655 200.761C42.1065 200.751 42.2535 200.725 42.4055 200.68C43.4135 200.375 43.8675 198.424 43.8675 198.424L48.1695 197.627C48.1695 197.627 54.3485 201.758 56.5265 204.465C58.7045 207.171 64.4085 205.103 64.4085 205.103L66.5435 194.899L57.3105 187.512Z" fill="#FFBF9D" style="fill:#FFBF9D;fill:color(display-p3 1.0000 0.7490 0.6157);fill-opacity:1;"/>
<path d="M51.0546 188.731C51.0606 188.791 50.3706 188.923 49.1986 189.04C48.0286 189.17 46.3726 189.217 44.5096 189.459L44.7106 189.311C44.4076 189.975 44.0346 190.662 43.6086 191.343C42.2906 193.451 40.7376 195.095 39.5296 196.169C38.3136 197.244 37.4356 197.744 37.4006 197.69C37.3516 197.622 38.1416 197.02 39.2706 195.893C40.3936 194.767 41.8696 193.114 43.1556 191.059C43.5706 190.395 43.9386 189.731 44.2426 189.094L44.3056 188.962L44.4446 188.946C46.3596 188.73 48.0096 188.752 49.1796 188.712C50.3496 188.686 51.0476 188.667 51.0546 188.731Z" fill="#FF9A6C" style="fill:#FF9A6C;fill:color(display-p3 1.0000 0.6039 0.4235);fill-opacity:1;"/>
<path d="M51.2533 192.779C51.2673 192.834 50.6833 193.055 49.6543 193.205C48.6303 193.355 47.1493 193.401 45.5033 193.06L45.8053 192.888C45.6343 193.39 45.4333 193.911 45.1853 194.427C44.2883 196.306 43.0233 197.744 41.9963 198.617C40.9653 199.498 40.2063 199.865 40.1743 199.812C40.1263 199.742 40.8033 199.266 41.7393 198.339C42.6743 197.418 43.8413 196.001 44.7033 194.196C44.9413 193.7 45.1383 193.201 45.3113 192.721L45.3913 192.5L45.6143 192.55C48.7903 193.258 51.2403 192.622 51.2533 192.779Z" fill="#FF9A6C" style="fill:#FF9A6C;fill:color(display-p3 1.0000 0.6039 0.4235);fill-opacity:1;"/>
<path d="M62.023 194.872C59.5 193.699 56.978 192.526 54.455 191.354C53.407 190.867 52.315 190.37 51.16 190.375C49.916 190.381 48.758 190.966 47.653 191.538C46.296 192.241 44.938 192.944 43.581 193.646C43.36 193.76 43.119 193.897 43.041 194.133C42.939 194.443 43.163 194.76 43.392 194.992C45.426 197.052 49.081 197.202 51.276 195.315C51.929 197.092 52.606 198.909 53.829 200.355C55.052 201.8 56.954 202.823 58.816 202.481" fill="#FFBF9D" style="fill:#FFBF9D;fill:color(display-p3 1.0000 0.7490 0.6157);fill-opacity:1;"/>
<path d="M58.8169 202.48C58.8189 202.493 58.7509 202.515 58.6139 202.547C58.4779 202.582 58.2699 202.609 57.9969 202.617C57.4559 202.631 56.6319 202.528 55.7179 202.064C54.8079 201.613 53.8169 200.795 53.0359 199.619C52.2369 198.453 51.6419 196.98 51.0539 195.397L51.4319 195.495C50.3159 196.478 48.6889 197.002 47.0249 196.873C46.1939 196.811 45.3489 196.589 44.5689 196.186C44.1869 195.971 43.8089 195.733 43.4769 195.43C43.3129 195.278 43.1379 195.14 42.9879 194.93C42.8459 194.736 42.6919 194.447 42.7719 194.106C42.8399 193.825 43.0549 193.646 43.2239 193.54C43.4039 193.429 43.5589 193.359 43.7169 193.274C44.0339 193.11 44.3479 192.948 44.6609 192.786C45.2859 192.464 45.9019 192.147 46.5069 191.835C47.7179 191.234 48.8639 190.532 50.1549 190.245C51.4629 189.929 52.7389 190.335 53.7459 190.789C54.7699 191.255 55.6919 191.71 56.5489 192.118C58.1849 192.917 59.5409 193.579 60.5769 194.084C61.5229 194.559 62.0389 194.838 62.0229 194.871C62.0069 194.905 61.4619 194.69 60.4889 194.273C59.4349 193.807 58.0539 193.197 56.3889 192.461C55.5189 192.071 54.5769 191.648 53.5709 191.197C52.5679 190.77 51.4289 190.431 50.2619 190.727C49.0949 190.995 47.9629 191.687 46.7479 192.301C46.1439 192.615 45.5289 192.935 44.9059 193.259C44.5939 193.421 44.2799 193.584 43.9629 193.748C43.6409 193.912 43.3069 194.072 43.2909 194.234C43.2259 194.431 43.5179 194.778 43.8289 195.028C44.1269 195.302 44.4689 195.518 44.8159 195.715C45.5249 196.084 46.2989 196.292 47.0649 196.354C48.5989 196.482 50.0969 196.013 51.1219 195.133L51.3849 194.907L51.4999 195.231C52.0659 196.82 52.6219 198.263 53.3629 199.4C54.0879 200.547 54.9959 201.342 55.8489 201.812C57.5959 202.768 58.8369 202.386 58.8169 202.48Z" fill="#FF9A6C" style="fill:#FF9A6C;fill:color(display-p3 1.0000 0.6039 0.4235);fill-opacity:1;"/>
<path d="M154.146 210.434L104.662 217.62C86.0764 222.88 66.4944 224.421 46.0234 222.644L120.494 257.384L150.392 257.848C150.392 257.848 159.495 257.876 161.086 249.906C162.702 241.812 164.445 217.779 164.445 217.779C164.445 217.779 158.538 212.642 154.146 210.434Z" fill="#46474E" style="fill:#46474E;fill:color(display-p3 0.2745 0.2784 0.3059);fill-opacity:1;"/>
<path d="M154.146 210.434L104.662 217.62C86.0764 222.88 66.4944 224.421 46.0234 222.644L120.494 257.384L150.392 257.848C150.392 257.848 159.495 257.876 161.086 249.906C162.702 241.812 164.445 217.779 164.445 217.779C164.445 217.779 158.538 212.642 154.146 210.434Z" fill="url(#paint1_linear_2666_23052)" style=""/>
<g opacity="0.3">
<path d="M153.998 231.262C154.81 236.211 155.103 241.246 154.871 246.256C157.929 242.954 159.328 238.186 158.539 233.755C158.103 231.31 157.086 228.623 158.366 226.494C159.224 225.066 161.495 223.426 161.163 221.793C161.163 221.793 159.174 221.793 157.37 221.721C155.924 221.663 152.914 221.574 152.914 221.574C154.435 225.489 154.319 227.903 153.714 231.405" fill="#393A3F" style="fill:#393A3F;fill:color(display-p3 0.2235 0.2275 0.2471);fill-opacity:1;"/>
</g>
<path d="M86.4688 158.894C86.4688 158.894 94.0047 144.431 95.8707 141.271C99.0507 135.885 104.986 132.832 104.986 132.832L118.876 129.619C118.876 129.619 117.435 136.579 126.079 137.059C137.072 137.671 143.902 127.129 143.902 127.129C143.902 127.129 156.446 128.419 159.909 129.875C163.373 131.33 173.171 135.43 174.609 148.458L177.966 169.727L151.465 171.747L151.832 200.061L140.571 209.272C140.571 209.272 108.236 220.407 106.171 221.137C105.195 221.482 105.433 207.742 103.122 195.968L98.7567 185.371C97.0097 181.129 95.9237 176.633 95.6667 172.053C95.4977 169.038 95.5797 166.757 95.5797 166.757C95.5797 166.757 88.7808 164.42 86.4688 158.894Z" fill="#46474E" style="fill:#46474E;fill:color(display-p3 0.2745 0.2784 0.3059);fill-opacity:1;"/>
<g clip-path="url(#clip1_2666_23052)">
<path d="M133.174 153.322L131.66 154.486L131.049 157.487L128.579 156.985L130.759 146.267L133.23 146.77L132.378 150.954L136.775 147.491L139.695 148.086L135.202 151.705L137.701 158.835L134.809 158.247L133.17 153.315L133.174 153.322Z" fill="#E8E8E8" style="fill:#E8E8E8;fill:color(display-p3 0.9083 0.9083 0.9083);fill-opacity:1;"/>
<path d="M145.494 159.67C145.161 159.808 144.813 159.907 144.455 159.969C144.12 160.03 143.776 160.048 143.438 160.038C142.618 160.011 141.815 159.807 141.089 159.431C140.631 159.203 140.218 158.901 139.865 158.536C139.516 158.178 139.258 157.744 139.096 157.272C138.927 156.75 138.905 156.195 139.026 155.662L139.839 151.663C139.937 151.126 140.168 150.622 140.518 150.2C140.841 149.82 141.25 149.51 141.704 149.298C142.169 149.082 142.671 148.949 143.182 148.912C143.702 148.866 144.229 148.896 144.746 149.002C145.388 149.132 146.01 149.359 146.593 149.659C147.148 149.93 147.635 150.329 148.016 150.817L146.428 152.488C146.165 152.141 145.819 151.853 145.424 151.662C145.078 151.492 144.717 151.365 144.345 151.29C144.137 151.247 143.922 151.239 143.707 151.26C143.486 151.279 143.275 151.336 143.075 151.43C142.867 151.528 142.685 151.673 142.543 151.855C142.374 152.079 142.264 152.332 142.219 152.611L141.602 155.641C141.536 155.909 141.537 156.19 141.6 156.461C141.655 156.678 141.753 156.885 141.9 157.056C142.037 157.219 142.203 157.352 142.393 157.456C142.578 157.558 142.779 157.634 142.987 157.676C143.184 157.716 143.387 157.728 143.589 157.716C143.808 157.702 144.026 157.641 144.216 157.539L144.511 156.092L143.037 155.792L143.461 153.708L147.405 154.511L146.471 159.101C146.181 159.347 145.848 159.543 145.497 159.682L145.494 159.67Z" fill="#E8E8E8" style="fill:#E8E8E8;fill:color(display-p3 0.9083 0.9083 0.9083);fill-opacity:1;"/>
<path d="M145.315 164.087L127.82 160.527L127.342 162.879L144.836 166.439L145.315 164.087Z" fill="#E8E8E8" style="fill:#E8E8E8;fill:color(display-p3 0.9083 0.9083 0.9083);fill-opacity:1;"/>
</g>
<path d="M107.351 210.014L151.781 196.678L151.467 171.744L174.093 170.02C174.093 170.02 172.288 182.94 172.023 189.565C171.642 199.092 167.059 212.409 163.994 215.236C160.928 218.063 106.172 221.135 106.172 221.135L107.351 210.014Z" fill="#FFBF9D" style="fill:#FFBF9D;fill:color(display-p3 1.0000 0.7490 0.6157);fill-opacity:1;"/>
<path d="M82.1486 217.857C82.5156 218.463 83.2086 218.823 83.9066 218.707C84.0456 218.684 84.1896 218.645 84.3376 218.585C85.3126 218.187 85.0606 216.159 85.0606 216.159L89.7896 215.006C89.7896 215.006 96.3286 218.54 98.7506 221.03C101.173 223.52 106.658 220.927 106.658 220.927L107.827 210.567L98.3946 203.278C98.3946 203.278 98.9726 203.711 98.2496 202.267C97.5266 200.823 94.7996 201.601 94.7996 201.601C94.3116 200.897 92.4816 200.773 92.4816 200.773L84.8186 202.263C83.2396 202.57 81.8846 203.575 81.1326 204.998L78.2636 210.427C78.2636 210.427 76.8256 214.287 77.1706 215.132C77.6906 216.407 79.0516 216.009 79.0516 216.009C79.0516 216.009 79.6216 218.429 80.2716 218.465C80.9206 218.5 82.1486 217.857 82.1486 217.857Z" fill="#FFBF9D" style="fill:#FFBF9D;fill:color(display-p3 1.0000 0.7490 0.6157);fill-opacity:1;"/>
<path d="M98.0398 209.25C98.0378 209.332 97.0018 209.316 95.3558 209.516C93.7148 209.724 91.4568 210.19 89.1368 211.186C87.9768 211.679 86.9158 212.248 85.9908 212.829C85.0968 213.427 84.1558 213.935 83.9088 214.639C83.7848 214.984 83.8778 215.317 84.0648 215.554C84.2468 215.79 84.4828 215.937 84.6868 216.002C85.1058 216.138 85.3598 216.003 85.3728 216.049C85.3928 216.059 85.1498 216.28 84.6388 216.188C84.3918 216.141 84.0998 216.001 83.8528 215.73C83.6018 215.474 83.4318 214.996 83.5768 214.534C83.7098 214.07 84.0668 213.692 84.4548 213.373C84.8548 213.064 85.2738 212.748 85.7448 212.446C86.6758 211.831 87.7568 211.236 88.9438 210.731C91.3188 209.711 93.6458 209.289 95.3218 209.168C97.0058 209.055 98.0438 209.195 98.0398 209.25Z" fill="#FF9A6C" style="fill:#FF9A6C;fill:color(display-p3 1.0000 0.6039 0.4235);fill-opacity:1;"/>
<path d="M98.9643 214.139C98.9663 214.286 95.8102 214.398 91.9612 214.924C88.1102 215.436 85.0363 216.164 85.0003 216.021C84.9843 215.958 85.7332 215.695 86.9752 215.376C88.2172 215.057 89.9543 214.696 91.8953 214.433C93.8353 214.173 95.6063 214.06 96.8883 214.039C98.1703 214.019 98.9633 214.074 98.9643 214.139Z" fill="#FF9A6C" style="fill:#FF9A6C;fill:color(display-p3 1.0000 0.6039 0.4235);fill-opacity:1;"/>
<path d="M82.1779 217.655C82.1519 217.652 82.0959 217.37 82.0169 216.839C81.9439 216.31 81.8509 215.539 81.8369 214.575C81.8319 214.093 81.8429 213.562 81.9309 212.99C82.0099 212.415 82.2329 211.8 82.5599 211.246C83.1749 210.138 84.0589 208.97 85.2279 208.055C86.393 207.15 87.5679 206.371 88.7819 205.899C89.9859 205.43 91.133 205.249 92.082 205.132C93.036 205.024 93.8069 204.986 94.3409 204.964C94.8739 204.945 95.1709 204.95 95.1739 204.984C95.1829 205.063 94.004 205.194 92.1309 205.478C91.2 205.637 90.0909 205.851 88.9509 206.322C87.8199 206.784 86.6659 207.564 85.5399 208.439C84.4129 209.326 83.5859 210.397 82.9549 211.474C82.2829 212.507 82.2299 213.637 82.1869 214.578C82.1459 216.465 82.2849 217.65 82.1779 217.655Z" fill="#FF9A6C" style="fill:#FF9A6C;fill:color(display-p3 1.0000 0.6039 0.4235);fill-opacity:1;"/>
<path d="M92.2626 202.766C92.2696 202.84 91.1136 202.96 89.2826 203.315C87.5246 203.725 84.6876 204.076 83.2566 206.654C81.6736 209.021 80.3436 211.243 79.8236 213.022C79.2646 214.792 79.4176 215.974 79.3156 215.973C79.2896 215.976 79.2216 215.688 79.2066 215.157C79.1876 214.627 79.2416 213.848 79.4866 212.926C79.9396 211.056 81.2546 208.756 82.8466 206.376C83.2536 205.778 83.6996 205.206 84.2316 204.74C84.7616 204.267 85.3966 203.966 85.9846 203.745C87.1776 203.306 88.2906 203.119 89.2216 202.971C91.0906 202.7 92.2586 202.703 92.2626 202.766Z" fill="#FF9A6C" style="fill:#FF9A6C;fill:color(display-p3 1.0000 0.6039 0.4235);fill-opacity:1;"/>
<path d="M96.9331 219.511C96.923 219.523 96.7571 219.415 96.4471 219.196C96.0951 218.955 95.6401 218.644 95.0721 218.256C93.8611 217.461 92.067 216.336 89.719 215.149L89.8301 215.162C88.4201 215.516 86.8311 215.915 85.1091 216.347L85.2571 216.132C85.2981 216.522 85.3051 216.906 85.2581 217.309C85.2081 217.705 85.1161 218.135 84.8041 218.503C84.6411 218.683 84.3971 218.801 84.1921 218.844C83.9831 218.915 83.7531 218.954 83.5221 218.936C83.0601 218.906 82.6121 218.699 82.2801 218.369C82.1951 218.288 82.1201 218.197 82.0501 218.102L82.0001 218.029L81.976 217.992L81.964 217.974L81.963 217.972C81.899 217.953 82.5131 218.125 82.2521 218.053L82.2471 218.056L82.2371 218.061L82.0901 218.135C81.8941 218.231 81.6941 218.319 81.4891 218.402C81.2831 218.484 81.0711 218.559 80.8461 218.616C80.7331 218.644 80.6181 218.67 80.4931 218.682C80.3771 218.696 80.2371 218.711 80.0431 218.631C79.7581 218.459 79.6441 218.24 79.5251 218.034C79.4131 217.824 79.3181 217.611 79.2361 217.394C79.0691 216.96 78.939 216.521 78.824 216.063L79.1191 216.235C78.5071 216.392 77.7631 216.299 77.2881 215.765C77.0741 215.516 76.8891 215.202 76.8841 214.827C76.8741 214.491 76.9261 214.191 76.9821 213.888C77.2261 212.687 77.6121 211.524 78.0351 210.342L78.0401 210.328L78.0481 210.312C78.5361 209.388 79.0541 208.408 79.5771 207.416C79.9031 206.799 80.226 206.188 80.547 205.58C80.871 204.991 81.1521 204.335 81.629 203.791C82.087 203.25 82.6531 202.812 83.2751 202.503C83.8921 202.178 84.5951 202.055 85.2151 201.941C87.7551 201.454 90.1761 200.991 92.4401 200.557L92.471 200.551L92.497 200.554C92.951 200.595 93.3781 200.668 93.8021 200.792C94.2151 200.923 94.6541 201.072 94.9721 201.483L94.6971 201.42C95.4901 201.021 96.437 200.944 97.191 201.367C97.948 201.785 98.3391 202.524 98.5711 203.23L98.5051 203.134C101.213 205.215 103.423 206.912 105.003 208.127C105.733 208.702 106.316 209.161 106.756 209.508C107.154 209.829 107.357 210.004 107.346 210.019C107.335 210.033 107.11 209.886 106.692 209.593C106.237 209.266 105.634 208.832 104.88 208.29C103.276 207.107 101.033 205.454 98.284 203.427L98.2401 203.394L98.2181 203.33C98.0071 202.709 97.6261 202.036 97.0031 201.714C96.3951 201.369 95.565 201.446 94.902 201.785L94.7381 201.869L94.6271 201.722C94.441 201.477 94.0591 201.312 93.6801 201.205C93.2971 201.096 92.8771 201.028 92.4661 200.994L92.523 200.99C90.261 201.436 87.8421 201.913 85.3051 202.414C84.6581 202.536 84.0531 202.644 83.4891 202.941C82.9261 203.221 82.4151 203.619 82.0021 204.11C81.5801 204.586 81.3161 205.201 80.9821 205.812C80.6611 206.419 80.3381 207.031 80.0121 207.648C79.4871 208.64 78.9691 209.62 78.4811 210.543L78.4941 210.514C78.0771 211.67 77.6901 212.836 77.4551 213.979C77.4011 214.262 77.3541 214.553 77.3621 214.808C77.3531 215.03 77.4831 215.258 77.6411 215.447C77.9491 215.818 78.5191 215.898 78.9851 215.785L79.2231 215.727L79.2801 215.957C79.3871 216.389 79.5131 216.824 79.6671 217.231C79.8131 217.616 80.0231 218.083 80.2481 218.227C80.2591 218.232 80.3431 218.251 80.4451 218.233C80.5381 218.225 80.6371 218.204 80.7351 218.18C80.9321 218.131 81.13 218.063 81.324 217.988C81.518 217.912 81.7101 217.829 81.8971 217.739L82.0351 217.671L82.0431 217.667L82.047 217.665C81.788 217.592 82.4031 217.763 82.3401 217.746L82.3411 217.748L82.351 217.763L82.3701 217.792L82.408 217.85C82.463 217.925 82.521 217.998 82.588 218.062C82.848 218.325 83.1981 218.488 83.5521 218.514C83.7291 218.53 83.9031 218.501 84.0761 218.443C84.2651 218.402 84.3881 218.338 84.4991 218.226C84.9181 217.716 84.9181 216.862 84.8681 216.186L84.8551 216.009L85.0161 215.971C86.7441 215.562 88.3381 215.185 89.7531 214.851L89.814 214.837L89.8651 214.864C92.2171 216.102 93.9861 217.272 95.1731 218.117C95.7641 218.543 96.2091 218.888 96.5031 219.13C96.7951 219.366 96.9431 219.499 96.9331 219.511Z" fill="#FF9A6C" style="fill:#FF9A6C;fill:color(display-p3 1.0000 0.6039 0.4235);fill-opacity:1;"/>
<path d="M73.8404 225.946C73.8404 225.946 42.4894 216.095 32.6414 212.903C15.6874 207.407 4.58838 212.962 1.08738 219.028C-3.45462 226.9 7.43637 242.246 11.6314 245.773C24.0634 256.225 45.3724 257.634 45.3724 257.634L121.993 257.49L99.6214 227.158L73.8404 225.946Z" fill="#46474E" style="fill:#46474E;fill:color(display-p3 0.2745 0.2784 0.3059);fill-opacity:1;"/>
<path d="M73.8404 225.946C73.8404 225.946 42.4894 216.095 32.6414 212.903C15.6874 207.407 4.58838 212.962 1.08738 219.028C-3.45462 226.9 7.43637 242.246 11.6314 245.773C24.0634 256.225 45.3724 257.634 45.3724 257.634L121.993 257.49L99.6214 227.158L73.8404 225.946Z" fill="url(#paint2_linear_2666_23052)" style=""/>
<path d="M78.532 240.166C65.832 241.659 52.762 239.88 40.922 235.049C38.852 234.204 36.808 233.265 34.641 232.715C32.534 232.18 30.332 232.025 28.171 232.258C26.461 232.443 24.641 232.955 23.602 234.327C22.074 236.343 22.86 239.206 23.709 241.59C24.704 244.383 25.739 247.246 27.684 249.484C29.959 252.1 33.2581 253.597 36.5651 254.639C43.034 256.677 49.867 257.262 56.645 257.531L79.93 256.256L78.532 240.166Z" fill="#46474E" style="fill:#46474E;fill:color(display-p3 0.2745 0.2784 0.3059);fill-opacity:1;"/>
<path d="M33.5725 232.723C33.6005 232.71 33.7365 232.927 33.9295 233.348C34.1225 233.768 34.3545 234.4 34.5465 235.208C34.9365 236.811 35.0675 239.196 34.2835 241.639C33.4975 244.082 32.0005 245.943 30.7485 247.019C30.1215 247.564 29.5655 247.943 29.1635 248.171C28.7615 248.401 28.5245 248.498 28.5095 248.471C28.4635 248.398 29.3515 247.891 30.5135 246.764C31.6725 245.652 33.0625 243.831 33.8165 241.489C34.5685 239.147 34.5005 236.858 34.2075 235.279C33.9175 233.685 33.4915 232.756 33.5725 232.723Z" fill="#717278" style="fill:#717278;fill:color(display-p3 0.4431 0.4471 0.4706);fill-opacity:1;"/>
<path d="M153.857 224.024C152.037 218.868 151.734 211.285 140.511 207.645C129.288 204.005 120.796 210.981 115.032 213.408C109.269 215.835 77.7238 233.124 77.7238 233.124C77.7238 233.124 71.7838 243.716 73.4748 248.391C75.1658 253.066 82.8488 257.692 82.8488 257.692H105.629C105.629 257.692 109.018 257.692 118.118 257.692C127.218 257.692 144.15 257.389 144.15 257.389C147.265 252.503 150.216 245.863 150.216 245.863L150.519 244.346C150.521 243.133 155.677 229.18 153.857 224.024Z" fill="#46474E" style="fill:#46474E;fill:color(display-p3 0.2745 0.2784 0.3059);fill-opacity:1;"/>
<path d="M153.857 224.024C152.037 218.868 151.734 211.285 140.511 207.645C129.288 204.005 120.796 210.981 115.032 213.408C109.269 215.835 77.7238 233.124 77.7238 233.124C77.7238 233.124 71.7838 243.716 73.4748 248.391C75.1658 253.066 82.8488 257.692 82.8488 257.692H105.629C105.629 257.692 109.018 257.692 118.118 257.692C127.218 257.692 144.15 257.389 144.15 257.389C147.265 252.503 150.216 245.863 150.216 245.863L150.519 244.346C150.521 243.133 155.677 229.18 153.857 224.024Z" fill="url(#paint3_linear_2666_23052)" style=""/>
<path d="M134.312 250.817C134.312 250.817 134.286 251.02 134.052 251.297C133.826 251.577 133.439 251.944 132.891 252.343C131.796 253.142 130.1 254.13 127.904 255.137C126.803 255.634 125.587 256.157 124.222 256.584C122.86 257.014 121.364 257.33 119.777 257.544C116.599 257.997 113.074 257.898 109.416 257.95C102.079 258.068 95.4308 258.343 90.6128 258.29C88.2038 258.272 86.2528 258.175 84.9108 258.035C84.2398 257.966 83.7208 257.893 83.3718 257.818C83.0228 257.752 82.8418 257.71 82.8438 257.693C82.8528 257.642 83.5848 257.774 84.9258 257.844C86.2658 257.924 88.2088 257.968 90.6118 257.942C95.4188 257.907 102.059 257.577 109.409 257.458C113.087 257.406 116.58 257.518 119.718 257.094C121.285 256.896 122.76 256.599 124.102 256.194C125.443 255.794 126.662 255.291 127.762 254.819C129.959 253.861 131.668 252.926 132.781 252.186C133.338 251.816 133.735 251.482 133.977 251.232C134.227 250.986 134.282 250.804 134.312 250.817Z" fill="#46474E" style="fill:#46474E;fill:color(display-p3 0.2745 0.2784 0.3059);fill-opacity:1;"/>
<path d="M82.8505 257.69C82.8505 257.69 82.6855 257.618 82.3835 257.442C82.0805 257.268 81.6395 256.996 81.0705 256.625C79.9445 255.87 78.2855 254.731 76.4335 252.937C75.5275 252.027 74.5545 250.95 73.8095 249.553C73.0265 248.145 72.9915 246.316 73.2925 244.536C73.9165 240.929 75.4945 237.074 77.5555 233.03L77.5805 232.981L77.6325 232.952C83.4055 229.775 90.0335 226.158 97.2755 222.27C100.898 220.33 104.673 218.319 108.59 216.296C110.554 215.291 112.534 214.26 114.615 213.325C116.685 212.445 118.666 211.295 120.735 210.241C123.661 208.741 126.687 207.419 129.851 206.814C131.422 206.469 133.023 206.379 134.597 206.379C136.171 206.456 137.731 206.634 139.218 207.044C142.187 207.83 144.992 209.071 147.297 210.902C148.431 211.838 149.416 212.913 150.233 214.082C151.031 215.265 151.638 216.535 152.129 217.813C152.623 219.092 152.982 220.386 153.341 221.642C153.668 222.905 154.177 224.077 154.35 225.38C154.605 227.938 154.183 230.348 153.748 232.592C153.293 234.84 152.736 236.938 152.182 238.897C151.897 239.874 151.621 240.819 151.355 241.732C151.098 242.634 150.796 243.54 150.662 244.343L150.659 244.371C150.542 244.945 150.444 245.421 150.349 245.886L150.347 245.893L150.346 245.897C149.071 249.873 147.521 252.804 146.295 254.685C145.053 256.565 144.149 257.384 144.149 257.384C144.144 257.38 144.189 257.319 144.281 257.203C144.388 257.073 144.524 256.906 144.698 256.694C145.061 256.242 145.573 255.55 146.173 254.607C147.353 252.715 148.859 249.772 150.085 245.821L150.082 245.832C150.657 245.353 150.544 244.881 150.379 244.314L150.376 244.342C150.518 243.408 150.807 242.57 151.059 241.644C151.318 240.73 151.586 239.784 151.864 238.807C152.404 236.849 152.945 234.754 153.385 232.519C153.806 230.292 154.205 227.888 153.948 225.431C153.791 224.239 153.272 223.023 152.937 221.758C152.572 220.501 152.212 219.221 151.723 217.968C151.237 216.715 150.641 215.48 149.864 214.335C149.068 213.204 148.111 212.166 147.009 211.259C144.771 209.488 142.011 208.271 139.101 207.506C137.646 207.107 136.123 206.937 134.586 206.862C133.048 206.865 131.486 206.953 129.946 207.293C126.848 207.887 123.869 209.187 120.959 210.679C118.904 211.725 116.91 212.883 114.809 213.775C112.759 214.695 110.77 215.728 108.811 216.728C104.896 218.744 101.119 220.748 97.4935 222.679C90.2635 226.577 83.6195 230.16 77.8165 233.289L77.8925 233.212C75.8285 237.208 74.2335 241.048 73.5955 244.585C73.2895 246.347 73.3065 248.069 74.0445 249.432C74.7535 250.795 75.7005 251.872 76.5865 252.783C78.3985 254.584 80.0325 255.748 81.1345 256.531C81.6805 256.899 82.1065 257.185 82.4145 257.393C82.7045 257.584 82.8505 257.69 82.8505 257.69Z" fill="#46474E" style="fill:#46474E;fill:color(display-p3 0.2745 0.2784 0.3059);fill-opacity:1;"/>
<path d="M140.25 244.605C140.25 244.605 150.755 245.858 149.822 251.003C148.888 256.148 145.455 257.875 145.455 257.875L116.898 257.935C116.898 257.935 133.95 256.747 140.25 244.605Z" fill="#46474E" style="fill:#46474E;fill:color(display-p3 0.2745 0.2784 0.3059);fill-opacity:1;"/>
<path d="M141.271 242.107C141.329 242.123 141.247 242.69 140.952 243.566C140.655 244.438 140.115 245.62 139.248 246.75C137.486 249.041 135.249 249.934 135.23 249.829C135.138 249.688 137.189 248.632 138.859 246.45C140.525 244.273 141.111 242.047 141.271 242.107Z" fill="#46474E" style="fill:#46474E;fill:color(display-p3 0.2745 0.2784 0.3059);fill-opacity:1;"/>
<path d="M137.618 244.125C137.755 244.13 137.598 245.897 136.604 247.783C135.64 249.677 134.403 250.899 134.313 250.811C134.201 250.717 135.236 249.39 136.166 247.56C137.126 245.741 137.483 244.104 137.618 244.125Z" fill="#46474E" style="fill:#46474E;fill:color(display-p3 0.2745 0.2784 0.3059);fill-opacity:1;"/>
<path d="M151.022 256.442C150.944 256.402 151.619 255.099 152.444 252.892C153.272 250.689 154.173 247.545 154.586 243.977C154.988 240.406 154.82 237.14 154.51 234.807C154.205 232.471 153.841 231.049 153.926 231.028C153.959 231.019 154.075 231.367 154.256 232.007C154.446 232.644 154.656 233.584 154.853 234.757C155.254 237.099 155.481 240.413 155.073 244.033C154.654 247.651 153.686 250.828 152.766 253.019C152.309 254.117 151.892 254.986 151.564 255.563C151.244 256.145 151.052 256.458 151.022 256.442Z" fill="#46474E" style="fill:#46474E;fill:color(display-p3 0.2745 0.2784 0.3059);fill-opacity:1;"/>
<g opacity="0.3">
<path d="M145.076 241.834C145.002 241.142 144.728 240.323 144.046 240.184C143.215 240.015 142.644 240.97 142.307 241.749C138.686 250.125 126.774 256.648 117.688 257.491C121.424 257.52 127.201 257.081 130.878 256.415C134.555 255.748 138.182 254.337 140.938 251.814C143.694 249.291 145.475 245.549 145.076 241.834Z" fill="#393A3F" style="fill:#393A3F;fill:color(display-p3 0.2235 0.2275 0.2471);fill-opacity:1;"/>
</g>
<path d="M75.4988 230.439C75.4408 230.561 73.1768 229.701 70.4438 228.517C67.7098 227.332 65.5358 226.271 65.5868 226.145C65.6378 226.019 67.9008 226.88 70.6418 228.067C73.3828 229.255 75.5578 230.317 75.4988 230.439Z" fill="#46474E" style="fill:#46474E;fill:color(display-p3 0.2745 0.2784 0.3059);fill-opacity:1;"/>
<g opacity="0.2">
<path d="M85.6901 226.024C72.0921 223.423 58.4391 221.111 44.7431 219.09L34.5391 222.317C37.3991 227.635 43.0501 231.021 48.9231 232.426C54.7961 233.831 60.9341 233.492 66.9471 232.938C73.5691 232.328 80.3691 231.403 86.1311 228.083C86.5721 227.829 87.0641 227.451 87.0101 226.945C86.9511 226.371 86.2581 226.133 85.6901 226.024Z" fill="#393A3F" style="fill:#393A3F;fill:color(display-p3 0.2235 0.2275 0.2471);fill-opacity:1;"/>
</g>
<path d="M18.7291 185.513L35.8631 223.418C36.5721 224.987 38.1261 226.004 39.8481 226.026L89.8241 226.674L96.1241 223.283L86.2581 222.561L70.9011 185.704C70.4111 184.529 69.2671 183.76 67.9941 183.75L20.1111 183.387C19.0131 183.38 18.2771 184.512 18.7291 185.513Z" fill="#E0E0E0" style="fill:#E0E0E0;fill:color(display-p3 0.8784 0.8784 0.8784);fill-opacity:1;"/>
<path d="M18.7274 185.511C18.7274 185.511 18.6274 185.374 18.5774 185.054C18.5284 184.747 18.5794 184.201 19.0454 183.744C19.2784 183.528 19.6144 183.345 20.0154 183.326C20.4004 183.323 20.8194 183.32 21.2724 183.317C22.1824 183.317 23.2284 183.317 24.4034 183.316C29.1434 183.332 35.9774 183.354 44.4584 183.382C48.7104 183.404 53.3744 183.428 58.3934 183.453C60.9044 183.467 63.5034 183.482 66.1844 183.498C66.8604 183.505 67.5414 183.512 68.2264 183.519C68.9574 183.57 69.6724 183.872 70.2314 184.362C70.8134 184.834 71.1354 185.582 71.3774 186.206C71.6474 186.852 71.9194 187.502 72.1934 188.157C76.5684 198.634 81.4014 210.208 86.5144 222.453L86.2774 222.282C89.3134 222.504 92.5415 222.74 95.8055 222.978C95.9214 222.987 96.0364 222.995 96.1434 223.003L97.1024 223.073L96.2564 223.528C94.0914 224.693 91.9584 225.841 89.9554 226.918L89.8914 226.952L89.8194 226.951C76.3034 226.766 63.5094 226.591 51.9164 226.432C49.0194 226.39 46.1974 226.349 43.4574 226.31C42.0784 226.279 40.7604 226.295 39.3904 226.225C37.9974 226.075 36.7284 225.267 36.0004 224.13C33.7694 219.437 31.9064 215.094 30.0984 211.124C26.5574 203.202 23.7014 196.811 21.7194 192.377C20.7524 190.184 19.9984 188.476 19.4764 187.292C19.2334 186.726 19.0444 186.286 18.9064 185.967C18.7784 185.67 18.7274 185.511 18.7274 185.511C18.7274 185.511 18.8124 185.655 18.9544 185.947C19.1034 186.261 19.3084 186.694 19.5724 187.25C20.1164 188.424 20.9004 190.118 21.9074 192.293C23.9264 196.71 26.8364 203.076 30.4444 210.968C32.2604 214.901 34.1914 219.321 36.3754 223.885C37.0374 224.909 38.1854 225.632 39.4394 225.763C40.7194 225.822 42.1024 225.805 43.4614 225.831C46.2014 225.863 49.0234 225.895 51.9204 225.928C63.5134 226.07 76.3084 226.227 89.8244 226.392L89.6884 226.425C91.6904 225.347 93.8244 224.199 95.9884 223.033L96.1004 223.559C95.9944 223.551 95.8784 223.543 95.7624 223.534C92.4984 223.295 89.2704 223.058 86.2344 222.835L86.0634 222.823L85.9974 222.665C80.9034 210.412 76.0884 198.831 71.7294 188.347C71.4574 187.692 71.1874 187.041 70.9184 186.394C70.6564 185.723 70.4104 185.147 69.9054 184.725C69.4274 184.303 68.8154 184.042 68.1874 183.996C67.5124 183.987 66.8424 183.979 66.1774 183.97C63.4964 183.945 60.8974 183.92 58.3864 183.897C53.3674 183.847 48.7044 183.8 44.4524 183.758C35.9724 183.658 29.1384 183.576 24.3984 183.52C23.2234 183.502 22.1774 183.486 21.2674 183.472C20.8174 183.466 20.4014 183.461 20.0184 183.456C19.6494 183.464 19.3364 183.625 19.1134 183.82C18.6674 184.234 18.5954 184.747 18.6264 185.046C18.6614 185.358 18.7434 185.505 18.7274 185.511Z" fill="#46474E" style="fill:#46474E;fill:color(display-p3 0.2745 0.2784 0.3059);fill-opacity:1;"/>
<path d="M84.7869 226.606C84.7709 226.613 84.6929 226.47 84.5569 226.192C84.4019 225.861 84.2139 225.457 83.9859 224.968C83.4809 223.827 82.8029 222.292 81.9789 220.427C80.3079 216.583 78.0389 211.255 75.5959 205.344C73.1519 199.431 71.0009 194.053 69.5059 190.136C68.7609 188.176 68.1669 186.587 67.7839 185.478C67.6099 184.967 67.4669 184.545 67.3499 184.199C67.2559 183.905 67.2139 183.747 67.2299 183.742C67.2459 183.736 67.3189 183.882 67.4429 184.165C67.5839 184.502 67.7559 184.913 67.9629 185.41C68.4319 186.566 69.0629 188.12 69.8289 190.008C71.4469 193.949 73.6339 199.272 76.0499 205.156C78.4769 211.034 80.6729 216.354 82.2989 220.292C83.0639 222.182 83.6939 223.736 84.1619 224.893C84.3559 225.396 84.5159 225.812 84.6479 226.153C84.7549 226.444 84.8029 226.599 84.7869 226.606Z" fill="#46474E" style="fill:#46474E;fill:color(display-p3 0.2745 0.2784 0.3059);fill-opacity:1;"/>
<path d="M53.7848 203.888C53.7848 205.242 52.6878 206.339 51.3338 206.339C49.9808 206.339 48.8828 205.242 48.8828 203.888C48.8828 202.535 49.9798 201.438 51.3338 201.438C52.6878 201.438 53.7848 202.535 53.7848 203.888Z" fill="white" style="fill:white;fill-opacity:1;"/>
<path d="M102.443 142.919C102.519 142.961 101.799 144.31 100.789 146.555C99.7762 148.798 98.5232 151.964 97.5112 155.578C96.5062 159.195 95.9402 162.553 95.6452 164.996C95.3482 167.44 95.2663 168.966 95.1783 168.963C95.1413 168.962 95.1242 168.579 95.1252 167.886C95.1212 167.193 95.1662 166.191 95.2682 164.956C95.4682 162.487 95.9803 159.084 96.9953 155.433C98.0163 151.785 99.3392 148.609 100.446 146.393C100.998 145.284 101.478 144.403 101.84 143.812C102.198 143.219 102.411 142.901 102.443 142.919Z" fill="#46474E" style="fill:#46474E;fill:color(display-p3 0.2745 0.2784 0.3059);fill-opacity:1;"/>
<path d="M177.964 169.724C177.965 169.74 177.777 169.769 177.415 169.809C177.004 169.849 176.477 169.901 175.824 169.965C174.376 170.086 172.37 170.254 169.885 170.462C164.766 170.848 157.687 171.381 149.574 171.992L149.312 172.012L149.296 171.75C149.126 169.053 148.946 166.205 148.761 163.277C148.473 158.178 148.227 153.319 148.148 148.889C147.917 144.436 149.007 140.371 150.754 137.48C152.482 134.545 154.774 132.84 156.447 132.008C157.3 131.606 157.981 131.338 158.464 131.224C158.94 131.089 159.191 131.028 159.196 131.046C159.22 131.119 158.189 131.328 156.544 132.193C154.926 133.07 152.728 134.78 151.081 137.672C149.415 140.534 148.388 144.479 148.641 148.881C148.746 153.296 149.007 158.153 149.295 163.248C149.475 166.175 149.65 169.021 149.815 171.717L149.537 171.475C157.655 170.938 164.738 170.469 169.861 170.131C172.351 169.987 174.361 169.871 175.811 169.787C176.467 169.759 176.996 169.736 177.409 169.718C177.773 169.706 177.963 169.708 177.964 169.724Z" fill="#46474E" style="fill:#46474E;fill:color(display-p3 0.2745 0.2784 0.3059);fill-opacity:1;"/>
<path d="M128.142 187.048C128.127 187.082 127.813 186.965 127.254 186.721C126.971 186.605 126.632 186.448 126.261 186.224C125.887 186.005 125.444 185.781 125.006 185.453C124.092 184.853 123.091 184.009 122.081 182.971C121.095 181.911 120.115 180.645 119.278 179.196C118.46 177.735 117.873 176.245 117.467 174.856C117.092 173.457 116.878 172.165 116.83 171.073C116.772 170.529 116.806 170.033 116.81 169.6C116.807 169.166 116.846 168.795 116.891 168.493C116.968 167.888 117.028 167.559 117.065 167.563C117.171 167.572 116.997 168.909 117.208 171.042C117.303 172.108 117.55 173.362 117.942 174.718C118.364 176.065 118.949 177.508 119.745 178.932C120.561 180.343 121.502 181.584 122.444 182.635C123.409 183.664 124.36 184.518 125.228 185.145C126.95 186.418 128.188 186.953 128.142 187.048Z" fill="#717278" style="fill:#717278;fill:color(display-p3 0.4431 0.4471 0.4706);fill-opacity:1;"/>
<path d="M83.1944 48.2779C83.5185 48.3519 107.838 51.958 107.838 51.958L145.173 54.7664L170.1 53.8768L170.127 52.4136L122.312 46.2518L83.2131 47.2457L83.1949 48.2879L83.1944 48.2779Z" fill="#263238" style="fill:#263238;fill:color(display-p3 0.1490 0.1961 0.2196);fill-opacity:1;"/>
<path d="M105.666 66.6148L107.841 51.9586C107.841 51.9586 123.079 45.7038 146.896 54.7115L151.317 72.3436C151.317 72.3436 138.085 63.1697 118.386 65.6817C118.386 65.6817 110.165 62.8466 105.666 66.6148Z" fill="#455A64" style="fill:#455A64;fill:color(display-p3 0.2706 0.3529 0.3922);fill-opacity:1;"/>
<path d="M118.394 65.6789C118.334 65.6819 118.288 64.743 118.292 63.2209C118.287 61.7093 118.343 59.614 118.438 57.3064C118.547 55.0682 118.637 53.0512 118.715 51.3953C118.8 49.8792 118.873 48.9444 118.934 48.9514C118.994 48.9484 119.04 49.8873 119.036 51.4094C119.041 52.921 118.985 55.0164 118.89 57.324C118.781 59.5621 118.691 61.5791 118.613 63.235C118.528 64.7511 118.455 65.6859 118.394 65.6789Z" fill="#263238" style="fill:#263238;fill:color(display-p3 0.1490 0.1961 0.2196);fill-opacity:1;"/>
<path d="M170.1 53.8768L122.098 47.7943L83.1944 48.2779L83.2231 47.2452L122.527 46.141L170.127 52.4136L170.1 53.8768Z" fill="#455A64" style="fill:#455A64;fill:color(display-p3 0.2706 0.3529 0.3922);fill-opacity:1;"/>
<path d="M122.133 47.9426C122.003 47.9491 121.913 47.5431 121.919 47.0522C121.924 46.5613 122.035 46.1653 122.165 46.1689C122.295 46.1624 122.385 46.5684 122.369 47.0598C122.354 47.5512 122.253 47.9467 122.123 47.9431L122.133 47.9426Z" fill="#263238" style="fill:#263238;fill:color(display-p3 0.1490 0.1961 0.2196);fill-opacity:1;"/>
<path d="M87.8702 57.5859L86.5399 57.612C85.0491 58.2368 84.7002 59.4757 84.5142 60.5663C83.8105 64.7364 83.407 68.9016 83.324 73.0709C84.7068 73.0922 86.0896 73.1135 87.4823 73.1343C87.8129 73.1379 87.2487 62.8032 88.4586 73.0357C88.496 73.3843 90.8496 73.1971 90.7303 72.8126C89.3472 68.1555 89.1586 63.7595 88.893 59.6276C88.8462 58.889 88.735 58.0635 87.8702 57.5859Z" fill="#263238" style="fill:#263238;fill:color(display-p3 0.1490 0.1961 0.2196);fill-opacity:1;"/>
<path d="M87.7947 55.7973C87.812 54.5349 87.8992 53.269 88.0773 52.0186C88.2264 50.9899 88.384 49.9308 88.8476 48.9866C89.2843 48.1038 89.9961 47.3174 91.0039 47.047C92.2484 46.7048 93.5742 47.1895 94.6911 47.7046C95.3263 47.9934 95.8304 47.0572 95.1948 46.7584C93.8935 46.1624 92.4375 45.6741 90.9797 45.9569C89.7502 46.1983 88.7792 47.0075 88.1392 48.0306C87.4903 49.0741 87.2498 50.2776 87.0587 51.4685C86.8301 52.9117 86.7229 54.3788 86.7051 55.8315C86.6989 56.5126 87.7876 56.4585 87.7937 55.7773L87.7947 55.7973Z" fill="#263238" style="fill:#263238;fill:color(display-p3 0.1490 0.1961 0.2196);fill-opacity:1;"/>
<path d="M89.3425 56.5204C89.3222 57.5226 88.4312 58.3279 87.359 58.3112C86.2868 58.2944 85.4246 57.4662 85.4449 56.464C85.4651 55.4618 86.3562 54.6565 87.4283 54.6732C88.5005 54.69 89.3627 55.5182 89.3425 56.5204Z" fill="#263238" style="fill:#263238;fill:color(display-p3 0.1490 0.1961 0.2196);fill-opacity:1;"/>
<path d="M84.7918 70.0848C84.7318 70.0878 84.6382 69.4116 84.6329 68.3005C84.6282 67.1994 84.7225 65.6728 84.9396 63.9999C85.1668 62.3266 85.4628 60.83 85.7801 59.7629C85.9441 59.2341 86.103 58.8057 86.2594 58.5276C86.4052 58.24 86.5701 58.1317 86.581 58.1512C86.6125 58.1796 86.5091 58.3149 86.4231 58.5996C86.3167 58.8752 86.2082 59.3111 86.0942 59.8374C85.8567 60.9005 85.6107 62.3946 85.3926 64.0475C85.1744 65.7004 85.0392 67.2089 84.963 68.2941C84.8873 69.3892 84.8707 70.0608 84.8008 70.0643L84.7918 70.0848Z" fill="#455A64" style="fill:#455A64;fill:color(display-p3 0.2706 0.3529 0.3922);fill-opacity:1;"/>
<path d="M86.7723 67.2034C86.6524 67.2093 86.4022 65.1993 86.4678 62.6929C86.5238 60.197 86.8744 58.1871 86.9953 58.2012C87.1261 58.2147 86.9758 60.2246 86.9187 62.7005C86.8517 65.1769 86.9016 67.1869 86.7718 67.1934L86.7723 67.2034Z" fill="#455A64" style="fill:#455A64;fill:color(display-p3 0.2706 0.3529 0.3922);fill-opacity:1;"/>
<path d="M87.8878 60.727C87.7579 60.7334 87.6207 60.1896 87.5775 59.5209C87.5337 58.8422 87.5963 58.2885 87.7261 58.282C87.856 58.2755 87.9931 58.8194 88.0364 59.4881C88.0802 60.1667 88.0176 60.7205 87.8978 60.7265L87.8878 60.727Z" fill="#455A64" style="fill:#455A64;fill:color(display-p3 0.2706 0.3529 0.3922);fill-opacity:1;"/>
<path d="M92.9798 47.01L96.0889 46.9154L96.1386 47.9142L92.7694 47.8114L92.9798 47.01Z" fill="#455A64" style="fill:#455A64;fill:color(display-p3 0.2706 0.3529 0.3922);fill-opacity:1;"/>
<defs>
<linearGradient id="paint0_linear_2666_23052" x1="270.257" y1="44.1864" x2="295.642" y2="80.7969" gradientUnits="userSpaceOnUse">
<stop stop-color="#FFD66B" style="stop-color:#FFD66B;stop-color:color(display-p3 1.0000 0.8378 0.4208);stop-opacity:1;"/>
<stop offset="1" stop-color="#FFA469" style="stop-color:#FFA469;stop-color:color(display-p3 1.0000 0.6431 0.4118);stop-opacity:1;"/>
</linearGradient>
<linearGradient id="paint1_linear_2666_23052" x1="92.0069" y1="222.712" x2="103.076" y2="258.206" gradientUnits="userSpaceOnUse">
<stop stop-color="#FFD66B" style="stop-color:#FFD66B;stop-color:color(display-p3 1.0000 0.8378 0.4208);stop-opacity:1;"/>
<stop offset="1" stop-color="#FFA469" style="stop-color:#FFA469;stop-color:color(display-p3 1.0000 0.6431 0.4118);stop-opacity:1;"/>
</linearGradient>
<linearGradient id="paint2_linear_2666_23052" x1="47.3702" y1="222.819" x2="57.9908" y2="258.224" gradientUnits="userSpaceOnUse">
<stop stop-color="#FFD66B" style="stop-color:#FFD66B;stop-color:color(display-p3 1.0000 0.8378 0.4208);stop-opacity:1;"/>
<stop offset="1" stop-color="#FFA469" style="stop-color:#FFA469;stop-color:color(display-p3 1.0000 0.6431 0.4118);stop-opacity:1;"/>
</linearGradient>
<linearGradient id="paint3_linear_2666_23052" x1="104.653" y1="219.84" x2="121.246" y2="253.654" gradientUnits="userSpaceOnUse">
<stop stop-color="#FFD66B" style="stop-color:#FFD66B;stop-color:color(display-p3 1.0000 0.8378 0.4208);stop-opacity:1;"/>
<stop offset="1" stop-color="#FFA469" style="stop-color:#FFA469;stop-color:color(display-p3 1.0000 0.6431 0.4118);stop-opacity:1;"/>
</linearGradient>
<clipPath id="clip0_2666_23052">
<rect width="293" height="258" fill="white" style="fill:white;fill-opacity:1;" transform="translate(94)"/>
</clipPath>
<clipPath id="clip1_2666_23052">
<rect width="17.9147" height="17.0525" fill="white" style="fill:white;fill-opacity:1;" transform="translate(130.742 146.152) rotate(11.5017)"/>
</clipPath>
</defs>
</svg>
