<svg width="187" height="141" viewBox="0 0 187 141" fill="none" xmlns="http://www.w3.org/2000/svg">
<g clip-path="url(#clip0_2261_4093)">
<path d="M21.2891 47.6326C21.2891 47.6326 24.1772 59.4614 37.1049 56.7535C37.1049 56.7535 33.3573 44.7726 21.2891 47.6326Z" fill="#717278" style="fill:#717278;fill:color(display-p3 0.4431 0.4471 0.4706);fill-opacity:1;"/>
<path d="M27.5352 65.5393C27.5352 65.5393 33.4693 74.3869 43.2749 68.2696C43.2749 68.2696 36.5885 59.5572 27.5352 65.5393Z" fill="#717278" style="fill:#717278;fill:color(display-p3 0.4431 0.4471 0.4706);fill-opacity:1;"/>
<path d="M36.9922 79.0416C36.9922 79.0416 45.651 86.4071 53.9436 77.2806C53.9436 77.2806 44.5521 70.2729 36.9922 79.0416Z" fill="#717278" style="fill:#717278;fill:color(display-p3 0.4431 0.4471 0.4706);fill-opacity:1;"/>
<path d="M45.9451 50.6445C45.9451 50.6445 36.3423 55.26 41.0028 65.8348C41.6875 65.4516 50.4845 60.2558 45.9451 50.6445Z" fill="#717278" style="fill:#717278;fill:color(display-p3 0.4431 0.4471 0.4706);fill-opacity:1;"/>
<path d="M48.0262 63.4023C48.0262 63.4023 43.2361 69.869 50.3734 75.4227C50.8186 74.7296 55.0001 68.5531 48.0262 63.4023Z" fill="#717278" style="fill:#717278;fill:color(display-p3 0.4431 0.4471 0.4706);fill-opacity:1;"/>
<path d="M25.8112 34.0195C25.8112 34.0195 24.7095 43.6082 35.0674 45.1439C35.0674 45.1439 35.5718 35.2086 25.8112 34.0195Z" fill="#717278" style="fill:#717278;fill:color(display-p3 0.4431 0.4471 0.4706);fill-opacity:1;"/>
<path d="M40.6705 24.3164C40.6705 24.3164 32.2935 27.816 35.9311 37.6329C35.9311 37.6329 44.3251 33.443 40.6705 24.3164Z" fill="#717278" style="fill:#717278;fill:color(display-p3 0.4431 0.4471 0.4706);fill-opacity:1;"/>
<path d="M45.7232 38.3164C45.7232 38.3164 34.6327 39.5816 35.6076 51.6527C35.6076 51.6527 46.9348 49.6239 45.7232 38.3164Z" fill="#717278" style="fill:#717278;fill:color(display-p3 0.4431 0.4471 0.4706);fill-opacity:1;"/>
<path d="M61.5034 80.4579C61.5034 80.4579 61.4555 80.441 61.3625 80.4156C61.2639 80.3903 61.1258 80.3536 60.9483 80.3057C60.582 80.2099 60.041 80.0831 59.3591 79.8577C57.9897 79.4379 56.0314 78.725 53.7744 77.5077C51.5174 76.2989 48.9956 74.5379 46.5413 72.2048C45.3128 71.0382 44.1124 69.7252 42.9685 68.2797C42.6923 67.9106 42.4162 67.5386 42.1372 67.1611C41.9963 66.9723 41.8583 66.7835 41.7174 66.5947C41.5821 66.4031 41.4582 66.2002 41.3257 66.003C41.0665 65.6057 40.8044 65.2028 40.5424 64.7998C40.3029 64.38 40.0634 63.9601 39.8182 63.5347C39.6971 63.3233 39.5787 63.1092 39.4576 62.8979C39.3505 62.6809 39.2434 62.4639 39.1364 62.247C38.925 61.813 38.7081 61.3876 38.5024 60.9565C38.3164 60.5197 38.1333 60.083 37.9501 59.6519C37.8599 59.4349 37.7641 59.2236 37.6796 59.0066C37.6007 58.7868 37.5218 58.5698 37.4457 58.3529C37.2908 57.919 37.1358 57.4907 36.9836 57.0624C36.854 56.6284 36.7272 56.2001 36.6032 55.7747C36.5412 55.5633 36.4793 55.352 36.4144 55.1407C36.3525 54.9322 36.3102 54.7152 36.2567 54.5067C36.158 54.084 36.0594 53.667 35.9636 53.2556C35.2366 49.9448 35.076 46.8735 35.138 44.3178C35.1972 41.7537 35.5691 39.7024 35.8115 38.2936C35.9636 37.5919 36.096 37.0538 36.1778 36.6846C36.2172 36.5043 36.2482 36.3634 36.2707 36.2648C36.2905 36.169 36.2989 36.1211 36.2989 36.1211C36.2989 36.1211 36.282 36.169 36.2595 36.262C36.2341 36.3606 36.2003 36.4987 36.1524 36.679C36.0622 37.0453 35.9213 37.5863 35.7636 38.2851C35.5043 39.694 35.1183 41.7453 35.0479 44.3178C34.9746 46.882 35.1267 49.9617 35.8481 53.2838C35.9439 53.698 36.0425 54.115 36.1411 54.5405C36.1947 54.7518 36.2341 54.966 36.2961 55.1773C36.3581 55.3886 36.4201 55.6 36.4821 55.8141C36.606 56.2396 36.7357 56.6707 36.8625 57.1075C37.0146 57.5357 37.1696 57.9669 37.3246 58.4008C37.4035 58.6178 37.4795 58.8375 37.5584 59.0573C37.643 59.2743 37.7388 59.4884 37.8289 59.7054C38.0121 60.1393 38.1981 60.5761 38.384 61.0156C38.5897 61.4467 38.8067 61.875 39.018 62.3118C39.1251 62.5287 39.2322 62.7457 39.3392 62.9655C39.4604 63.1768 39.5787 63.391 39.6999 63.6023C39.9422 64.0278 40.1846 64.4504 40.4241 64.8703C40.6889 65.276 40.951 65.679 41.2102 66.0791C41.3426 66.2791 41.4666 66.482 41.6019 66.6736C41.7427 66.8652 41.8836 67.054 42.0245 67.2428C42.3063 67.6204 42.5852 67.9923 42.8614 68.3642C44.011 69.8125 45.2198 71.1284 46.4512 72.295C48.9167 74.6337 51.4554 76.3891 53.7237 77.5923C55.9919 78.8039 57.9615 79.5055 59.3338 79.9112C60.0185 80.1282 60.5623 80.2465 60.9314 80.3367C61.1117 80.379 61.2498 80.4128 61.3512 80.4353C61.447 80.4579 61.4949 80.4663 61.4949 80.4663L61.5034 80.4579Z" fill="#717278" style="fill:#717278;fill:color(display-p3 0.4431 0.4471 0.4706);fill-opacity:1;"/>
<path d="M49.0675 68.6111C49.0675 68.6111 49.0619 68.7097 49.076 68.8816C49.0901 69.0563 49.1154 69.3071 49.1521 69.6142C49.2281 70.2313 49.3549 71.0822 49.5381 72.0149C49.7212 72.9476 49.9213 73.7844 50.0847 74.3846C50.1664 74.6861 50.2369 74.9256 50.2876 75.0919C50.3411 75.2581 50.3721 75.3483 50.3806 75.3454C50.389 75.3426 50.3721 75.2468 50.3355 75.0778C50.2904 74.8805 50.2369 74.641 50.1692 74.3592C50.0284 73.7534 49.8424 72.9166 49.6592 71.9867C49.4789 71.0569 49.3352 70.2116 49.2394 69.5973C49.1943 69.3127 49.1549 69.0704 49.1239 68.8703C49.0957 68.6985 49.076 68.6055 49.0675 68.6055V68.6111Z" fill="#717278" style="fill:#717278;fill:color(display-p3 0.4431 0.4471 0.4706);fill-opacity:1;"/>
<path d="M46.7031 78.2223C46.7031 78.2223 46.8017 78.2223 46.9764 78.1969C47.1765 78.1688 47.4216 78.1321 47.7119 78.0899C48.3318 77.9969 49.1912 77.8757 50.1407 77.763C51.0931 77.6531 51.9553 77.5714 52.5809 77.5179C52.8711 77.4925 53.1191 77.47 53.3219 77.4531C53.4966 77.4362 53.5924 77.4221 53.5924 77.4136C53.5924 77.4052 53.4938 77.4023 53.3191 77.4023C53.1444 77.4023 52.888 77.4136 52.5752 77.4277C51.9469 77.4587 51.0819 77.5235 50.1266 77.6362C49.1743 77.7489 48.3149 77.8842 47.6978 77.9997C47.3878 78.0561 47.1399 78.1068 46.968 78.1462C46.7961 78.1857 46.7031 78.211 46.7031 78.2195V78.2223Z" fill="#717278" style="fill:#717278;fill:color(display-p3 0.4431 0.4471 0.4706);fill-opacity:1;"/>
<path d="M35.0312 66.4832C35.0312 66.4832 35.144 66.5199 35.3525 66.5593C35.5835 66.6044 35.8794 66.6636 36.2288 66.7312C36.9698 66.8777 37.9899 67.0919 39.1085 67.3624C40.2271 67.6329 41.233 67.9118 41.9572 68.1203C42.301 68.219 42.5912 68.3035 42.8166 68.3683C43.0195 68.4275 43.1322 68.4528 43.135 68.4472C43.1378 68.4387 43.0279 68.3965 42.8307 68.3232C42.6306 68.25 42.3432 68.1513 41.9826 68.0358C41.2612 67.8048 40.2581 67.5117 39.1367 67.2412C38.0152 66.9707 36.9896 66.7707 36.2429 66.6467C35.8709 66.5847 35.5666 66.5396 35.3581 66.5114C35.1496 66.4861 35.0312 66.4748 35.0312 66.4832Z" fill="#717278" style="fill:#717278;fill:color(display-p3 0.4431 0.4471 0.4706);fill-opacity:1;"/>
<path d="M43.5096 57.418C43.5096 57.418 43.4335 57.5194 43.3123 57.711C43.1912 57.9026 43.0277 58.19 42.8418 58.5535C42.467 59.2748 42.0162 60.3146 41.6724 61.5093C41.3286 62.7068 41.1596 63.8255 41.0948 64.637C41.061 65.0427 41.0469 65.3724 41.0469 65.6006C41.0469 65.8289 41.0469 65.9528 41.0581 65.9557C41.0694 65.9585 41.0807 65.8317 41.0948 65.6034C41.1089 65.378 41.137 65.0512 41.1821 64.6482C41.2695 63.8424 41.4526 62.735 41.7936 61.5459C42.1373 60.3597 42.5684 59.3227 42.9235 58.593C43.0982 58.2295 43.2503 57.9364 43.3574 57.7364C43.4645 57.5363 43.518 57.4236 43.5124 57.418H43.5096Z" fill="#717278" style="fill:#717278;fill:color(display-p3 0.4431 0.4471 0.4706);fill-opacity:1;"/>
<path d="M30.6445 51.8954C30.6445 51.8954 30.7319 51.9659 30.9009 52.0758C31.0897 52.1998 31.3292 52.3547 31.611 52.5407C32.2084 52.9352 33.017 53.5072 33.8652 54.1919C34.7133 54.8794 35.4375 55.5528 35.9503 56.0544C36.1898 56.2939 36.3927 56.494 36.5505 56.6546C36.6914 56.7983 36.7731 56.8715 36.7787 56.8659C36.7843 56.8603 36.7167 56.7729 36.5871 56.6208C36.4575 56.4686 36.2631 56.2516 36.0123 55.9924C35.5164 55.4739 34.7978 54.7864 33.9441 54.0933C33.0903 53.4029 32.2704 52.8422 31.6589 52.4646C31.3546 52.2758 31.1038 52.1293 30.9263 52.0335C30.7488 51.9377 30.6502 51.887 30.6445 51.8954Z" fill="#717278" style="fill:#717278;fill:color(display-p3 0.4431 0.4471 0.4706);fill-opacity:1;"/>
<path d="M42.7522 43.1445C42.7522 43.1445 42.7184 43.1643 42.662 43.215C42.5944 43.2741 42.5155 43.3474 42.4169 43.4319C42.2056 43.6235 41.9069 43.9053 41.5462 44.2632C40.8221 44.976 39.85 45.9932 38.844 47.1739C37.8381 48.3545 36.9872 49.4759 36.3983 50.3044C36.1052 50.7186 35.8713 51.0595 35.7164 51.2962C35.6459 51.4061 35.5868 51.4962 35.5389 51.5723C35.4994 51.6371 35.4797 51.6709 35.4853 51.6738C35.4881 51.6738 35.5135 51.6456 35.5614 51.5864C35.6149 51.5132 35.6797 51.4286 35.7558 51.3244C35.9362 51.0792 36.1757 50.7524 36.4687 50.3579C37.0745 49.5436 37.9339 48.4362 38.937 47.2556C39.9401 46.0778 40.8982 45.0549 41.6054 44.328C41.9492 43.9758 42.2338 43.6884 42.4479 43.4714C42.5381 43.3784 42.6141 43.3023 42.6761 43.2375C42.7269 43.184 42.7522 43.153 42.7494 43.1502L42.7522 43.1445Z" fill="#717278" style="fill:#717278;fill:color(display-p3 0.4431 0.4471 0.4706);fill-opacity:1;"/>
<path d="M29.3984 37.1426C29.3984 37.1426 29.4773 37.2553 29.6379 37.4413C29.8098 37.647 30.0381 37.9146 30.3114 38.2359C30.8749 38.9093 31.6329 39.8589 32.4134 40.9465C33.1911 42.037 33.8448 43.0626 34.3013 43.8121C34.5182 44.1756 34.6986 44.4743 34.8366 44.7053C34.9606 44.9167 35.0339 45.0322 35.0423 45.0266C35.0508 45.0237 34.9916 44.8998 34.8789 44.68C34.7662 44.4602 34.5971 44.1474 34.3773 43.7642C33.9406 43.0006 33.2982 41.9637 32.5148 40.8704C31.7315 39.7772 30.9595 38.8332 30.379 38.1739C30.0888 37.8442 29.8465 37.5822 29.6746 37.4046C29.5027 37.2271 29.4069 37.1313 29.3984 37.137V37.1426Z" fill="#717278" style="fill:#717278;fill:color(display-p3 0.4431 0.4471 0.4706);fill-opacity:1;"/>
<path d="M39.4206 28.033C39.4206 28.033 39.3502 28.1541 39.2459 28.3852C39.1417 28.6134 38.9952 28.9487 38.8205 29.3629C38.4683 30.1942 38.0033 31.3494 37.5243 32.6399C37.0481 33.9305 36.648 35.1111 36.3747 35.9705C36.2366 36.3988 36.1324 36.7482 36.0619 36.9905C35.9915 37.2328 35.9577 37.3681 35.9661 37.3709C35.9746 37.3737 36.0253 37.2441 36.1098 37.0046C36.2 36.7454 36.3183 36.4072 36.462 35.9958C36.7579 35.1449 37.1693 33.9699 37.6455 32.6794C38.1217 31.3917 38.5753 30.2308 38.905 29.3911C39.0628 28.9882 39.1952 28.6529 39.2938 28.3965C39.384 28.1626 39.4319 28.0302 39.4235 28.0273L39.4206 28.033Z" fill="#717278" style="fill:#717278;fill:color(display-p3 0.4431 0.4471 0.4706);fill-opacity:1;"/>
<path d="M173.121 47.6326C173.121 47.6326 170.232 59.4614 157.305 56.7535C157.305 56.7535 161.052 44.7726 173.121 47.6326Z" fill="#717278" style="fill:#717278;fill:color(display-p3 0.4431 0.4471 0.4706);fill-opacity:1;"/>
<path d="M166.865 65.5393C166.865 65.5393 160.931 74.3869 151.125 68.2696C151.125 68.2696 157.811 59.5572 166.865 65.5393Z" fill="#717278" style="fill:#717278;fill:color(display-p3 0.4431 0.4471 0.4706);fill-opacity:1;"/>
<path d="M157.412 79.0416C157.412 79.0416 148.753 86.4071 140.461 77.2806C140.461 77.2806 149.852 70.2729 157.412 79.0416Z" fill="#717278" style="fill:#717278;fill:color(display-p3 0.4431 0.4471 0.4706);fill-opacity:1;"/>
<path d="M148.463 50.6445C148.463 50.6445 158.066 55.26 153.405 65.8348C152.721 65.4516 143.924 60.2558 148.463 50.6445Z" fill="#717278" style="fill:#717278;fill:color(display-p3 0.4431 0.4471 0.4706);fill-opacity:1;"/>
<path d="M146.374 63.4023C146.374 63.4023 151.164 69.869 144.027 75.4255C143.582 74.7324 139.4 68.5559 146.374 63.4023Z" fill="#717278" style="fill:#717278;fill:color(display-p3 0.4431 0.4471 0.4706);fill-opacity:1;"/>
<path d="M168.589 34.0195C168.589 34.0195 169.69 43.6082 159.333 45.1439C159.333 45.1439 158.828 35.2086 168.589 34.0195Z" fill="#717278" style="fill:#717278;fill:color(display-p3 0.4431 0.4471 0.4706);fill-opacity:1;"/>
<path d="M153.738 24.3164C153.738 24.3164 162.115 27.816 158.477 37.6329C158.477 37.6329 150.083 33.443 153.738 24.3164Z" fill="#717278" style="fill:#717278;fill:color(display-p3 0.4431 0.4471 0.4706);fill-opacity:1;"/>
<path d="M148.681 38.3164C148.681 38.3164 159.771 39.5816 158.796 51.6527C158.796 51.6527 147.469 49.6239 148.681 38.3164Z" fill="#717278" style="fill:#717278;fill:color(display-p3 0.4431 0.4471 0.4706);fill-opacity:1;"/>
<path d="M132.898 80.4579C132.898 80.4579 132.946 80.441 133.039 80.4156C133.138 80.3903 133.276 80.3536 133.454 80.3057C133.82 80.2099 134.361 80.0831 135.043 79.8577C136.412 79.4379 138.37 78.725 140.627 77.5077C142.884 76.2989 145.406 74.5379 147.861 72.2048C149.089 71.0382 150.289 69.7252 151.433 68.2797C151.71 67.9106 151.986 67.5386 152.265 67.1611C152.403 66.9723 152.544 66.7835 152.684 66.5947C152.82 66.4031 152.944 66.2002 153.076 66.003C153.335 65.6057 153.597 65.2028 153.859 64.7998C154.099 64.38 154.338 63.9601 154.584 63.5347C154.705 63.3233 154.823 63.1092 154.944 62.8979C155.051 62.6809 155.158 62.4639 155.265 62.247C155.477 61.813 155.694 61.3876 155.899 60.9565C156.085 60.5197 156.269 60.083 156.452 59.6519C156.542 59.4349 156.638 59.2236 156.722 59.0066C156.801 58.7868 156.877 58.5698 156.956 58.3529C157.111 57.919 157.266 57.4878 157.418 57.0624C157.545 56.6284 157.675 56.2001 157.799 55.7747C157.861 55.5633 157.925 55.352 157.987 55.1407C158.052 54.9322 158.092 54.7152 158.142 54.5067C158.241 54.084 158.34 53.667 158.438 53.2556C159.165 49.9448 159.326 46.8735 159.264 44.3178C159.205 41.7537 158.833 39.7024 158.59 38.2936C158.438 37.5919 158.306 37.0538 158.224 36.6846C158.185 36.5043 158.154 36.3634 158.131 36.2648C158.111 36.169 158.103 36.1211 158.103 36.1211C158.103 36.1211 158.12 36.169 158.142 36.262C158.168 36.3606 158.202 36.4987 158.249 36.679C158.34 37.0453 158.48 37.5863 158.638 38.2851C158.898 39.694 159.284 41.7453 159.354 44.3178C159.427 46.882 159.278 49.9617 158.554 53.2838C158.458 53.698 158.359 54.115 158.261 54.5405C158.207 54.7518 158.168 54.966 158.106 55.1773C158.044 55.3886 157.982 55.6 157.92 55.8141C157.793 56.2396 157.666 56.6707 157.539 57.1075C157.387 57.5357 157.232 57.9669 157.077 58.4008C156.998 58.6178 156.922 58.8375 156.843 59.0573C156.759 59.2743 156.663 59.4884 156.573 59.7054C156.39 60.1393 156.204 60.5761 156.018 61.0156C155.812 61.4467 155.595 61.875 155.384 62.3118C155.277 62.5287 155.17 62.7457 155.063 62.9655C154.941 63.1768 154.823 63.391 154.702 63.6023C154.46 64.0278 154.217 64.4504 153.978 64.8703C153.713 65.276 153.451 65.6789 153.189 66.0791C153.056 66.2791 152.932 66.482 152.797 66.6736C152.656 66.8652 152.515 67.054 152.374 67.2428C152.093 67.6204 151.814 67.9923 151.538 68.3642C150.388 69.8125 149.179 71.1284 147.948 72.2978C145.482 74.6365 142.944 76.3919 140.675 77.5951C138.407 78.8067 136.437 79.5083 135.065 79.9141C134.381 80.131 133.837 80.2494 133.468 80.3395C133.287 80.3818 133.149 80.4156 133.051 80.4382C132.955 80.4607 132.907 80.4663 132.907 80.4663L132.898 80.4579Z" fill="#717278" style="fill:#717278;fill:color(display-p3 0.4431 0.4471 0.4706);fill-opacity:1;"/>
<path d="M145.343 68.6033C145.343 68.6033 145.348 68.7019 145.334 68.8738C145.32 69.0485 145.295 69.2993 145.258 69.6064C145.182 70.2235 145.055 71.0744 144.872 72.0071C144.689 72.9398 144.489 73.7766 144.325 74.3768C144.244 74.6783 144.173 74.9178 144.122 75.084C144.069 75.2503 144.038 75.3405 144.029 75.3376C144.021 75.3348 144.038 75.239 144.077 75.07C144.122 74.8727 144.179 74.6332 144.241 74.3514C144.382 73.7456 144.568 72.9088 144.751 71.9789C144.931 71.0491 145.072 70.2038 145.171 69.5895C145.216 69.3049 145.255 69.0626 145.289 68.8625C145.317 68.6906 145.337 68.5977 145.345 68.5977L145.343 68.6033Z" fill="#717278" style="fill:#717278;fill:color(display-p3 0.4431 0.4471 0.4706);fill-opacity:1;"/>
<path d="M147.698 78.2223C147.698 78.2223 147.599 78.2223 147.425 78.1969C147.225 78.1688 146.979 78.1321 146.689 78.0899C146.069 77.9969 145.21 77.8757 144.26 77.763C143.308 77.6531 142.446 77.5714 141.82 77.5179C141.53 77.4925 141.282 77.47 141.079 77.4531C140.904 77.4362 140.809 77.4221 140.809 77.4136C140.809 77.4052 140.907 77.4023 141.082 77.4023C141.257 77.4023 141.513 77.4136 141.826 77.4277C142.454 77.4587 143.319 77.5235 144.274 77.6362C145.227 77.7489 146.086 77.8842 146.703 77.9997C147.013 78.0561 147.261 78.1068 147.433 78.1462C147.605 78.1857 147.698 78.211 147.698 78.2195V78.2223Z" fill="#717278" style="fill:#717278;fill:color(display-p3 0.4431 0.4471 0.4706);fill-opacity:1;"/>
<path d="M159.376 66.4754C159.376 66.4754 159.263 66.5121 159.055 66.5515C158.824 66.5966 158.528 66.6558 158.179 66.7234C157.438 66.8699 156.418 67.0841 155.299 67.3546C154.18 67.6251 153.174 67.904 152.45 68.1125C152.106 68.2111 151.819 68.2957 151.591 68.3605C151.388 68.4197 151.275 68.445 151.27 68.4394C151.267 68.4309 151.377 68.3887 151.574 68.3154C151.771 68.2421 152.061 68.1435 152.422 68.028C153.143 67.7969 154.146 67.5039 155.268 67.2334C156.389 66.9629 157.415 66.7628 158.162 66.6389C158.534 66.5769 158.838 66.5318 159.046 66.5036C159.255 66.4783 159.373 66.467 159.373 66.4754H159.376Z" fill="#717278" style="fill:#717278;fill:color(display-p3 0.4431 0.4471 0.4706);fill-opacity:1;"/>
<path d="M150.897 57.4023C150.897 57.4023 150.973 57.5038 151.094 57.6954C151.215 57.887 151.378 58.1744 151.564 58.5379C151.939 59.2592 152.39 60.299 152.734 61.4937C153.078 62.6912 153.247 63.8098 153.311 64.6213C153.345 65.0271 153.359 65.3568 153.359 65.585C153.359 65.8132 153.359 65.9372 153.348 65.94C153.337 65.9428 153.326 65.816 153.309 65.5878C153.295 65.3624 153.266 65.0355 153.221 64.6326C153.134 63.8267 152.951 62.7194 152.61 61.5303C152.266 60.344 151.835 59.3071 151.48 58.5773C151.305 58.2138 151.153 57.9208 151.046 57.7207C150.939 57.5207 150.885 57.408 150.891 57.4023H150.897Z" fill="#717278" style="fill:#717278;fill:color(display-p3 0.4431 0.4471 0.4706);fill-opacity:1;"/>
<path d="M163.767 51.8904C163.767 51.8904 163.68 51.9609 163.511 52.0708C163.322 52.1948 163.083 52.3497 162.801 52.5357C162.203 52.9302 161.395 53.5022 160.547 54.1869C159.699 54.8744 158.974 55.5478 158.462 56.0494C158.222 56.2889 158.019 56.489 157.861 56.6468C157.72 56.7905 157.639 56.8637 157.633 56.8581C157.628 56.8524 157.695 56.7651 157.825 56.6129C157.954 56.4608 158.149 56.2438 158.4 55.9846C158.895 55.4661 159.614 54.7786 160.468 54.0854C161.322 53.3951 162.141 52.8344 162.753 52.4568C163.057 52.268 163.311 52.1215 163.486 52.0257C163.663 51.9299 163.762 51.8792 163.767 51.8876V51.8904Z" fill="#717278" style="fill:#717278;fill:color(display-p3 0.4431 0.4471 0.4706);fill-opacity:1;"/>
<path d="M151.654 43.1367C151.654 43.1367 151.688 43.1564 151.744 43.2072C151.812 43.2663 151.891 43.3396 151.99 43.4241C152.201 43.6157 152.5 43.8975 152.86 44.2554C153.584 44.9682 154.557 45.9854 155.562 47.1661C156.568 48.3467 157.419 49.4681 158.005 50.2965C158.301 50.7107 158.532 51.0517 158.687 51.2884C158.758 51.3983 158.814 51.4884 158.865 51.5645C158.904 51.6293 158.924 51.6631 158.918 51.6659C158.916 51.6659 158.89 51.6378 158.842 51.5786C158.789 51.5053 158.724 51.4208 158.645 51.3166C158.465 51.0714 158.225 50.7446 157.932 50.3501C157.326 49.5358 156.467 48.4284 155.464 47.2478C154.461 46.07 153.503 45.0471 152.793 44.3202C152.449 43.9679 152.164 43.6805 151.95 43.4636C151.86 43.3706 151.784 43.2945 151.722 43.2297C151.671 43.1762 151.646 43.1452 151.649 43.1424L151.654 43.1367Z" fill="#717278" style="fill:#717278;fill:color(display-p3 0.4431 0.4471 0.4706);fill-opacity:1;"/>
<path d="M165.012 37.1426C165.012 37.1426 164.933 37.2553 164.772 37.4413C164.6 37.647 164.372 37.9146 164.099 38.2359C163.535 38.9093 162.777 39.8589 161.997 40.9465C161.216 42.037 160.566 43.0626 160.109 43.8121C159.892 44.1756 159.712 44.4743 159.574 44.7053C159.447 44.9167 159.376 45.0322 159.368 45.0266C159.36 45.0237 159.419 44.8998 159.531 44.68C159.644 44.4602 159.813 44.1474 160.033 43.7642C160.47 43.0006 161.112 41.9637 161.895 40.8704C162.679 39.7772 163.451 38.8332 164.031 38.1739C164.322 37.8442 164.564 37.5822 164.736 37.4046C164.908 37.2271 165.003 37.1313 165.009 37.137L165.012 37.1426Z" fill="#717278" style="fill:#717278;fill:color(display-p3 0.4431 0.4471 0.4706);fill-opacity:1;"/>
<path d="M154.978 28.0252C154.978 28.0252 155.048 28.1463 155.152 28.3774C155.256 28.6056 155.403 28.9409 155.581 29.3551C155.933 30.1864 156.398 31.3416 156.877 32.6321C157.356 33.9226 157.753 35.1033 158.026 35.9627C158.164 36.391 158.269 36.7404 158.339 36.9827C158.409 37.225 158.443 37.3603 158.435 37.3631C158.426 37.3631 158.376 37.2363 158.291 36.9968C158.201 36.7375 158.083 36.3994 157.939 35.988C157.643 35.1371 157.232 33.9621 156.755 32.6716C156.279 31.3839 155.826 30.223 155.496 29.3833C155.338 28.9804 155.206 28.6451 155.107 28.3887C155.017 28.1548 154.969 28.0223 154.978 28.0195V28.0252Z" fill="#717278" style="fill:#717278;fill:color(display-p3 0.4431 0.4471 0.4706);fill-opacity:1;"/>
<path d="M102.483 71.883L97.6653 70.7669L97.671 70.7038L97.541 70.7344L97.4167 70.7019L97.411 70.765L92.6026 71.8763C92.6026 71.8763 91.9755 89.0071 88.3435 95.8444L97.4193 95.8417L97.6736 95.8436L106.749 95.8409C103.118 89.0119 102.474 71.8716 102.474 71.8716L102.483 71.883Z" fill="#FFA469" style="fill:#FFA469;fill:color(display-p3 1.0000 0.6431 0.4118);fill-opacity:1;"/>
<path d="M117.627 102.853L78.3236 102.857C78.3231 97.4918 82.6742 93.1265 88.0486 93.1375L107.917 93.1396C113.282 93.1391 117.626 97.4883 117.636 102.865L117.627 102.853Z" fill="#FFA469" style="fill:#FFA469;fill:color(display-p3 1.0000 0.6431 0.4118);fill-opacity:1;"/>
<path d="M117.627 102.853L78.3236 102.857C78.3231 97.4918 82.6742 93.1265 88.0486 93.1375L107.917 93.1396C113.282 93.1391 117.626 97.4883 117.636 102.865L117.627 102.853Z" fill="url(#paint0_linear_2261_4093)" style=""/>
<path d="M117.627 102.853L78.3236 102.857C78.3231 97.4918 82.6742 93.1265 88.0486 93.1375L107.917 93.1396C113.282 93.1391 117.626 97.4883 117.636 102.865L117.627 102.853Z" fill="url(#paint1_linear_2261_4093)" style=""/>
<path d="M69.1521 21.8561C66.1944 21.8525 63.2214 21.784 60.256 21.8645C57.6635 21.9259 55.2164 22.9547 53.5475 24.9872C51.7581 27.1784 51.4658 29.6964 51.728 32.4132C52.5222 40.8293 54.8842 49.9604 61.2437 55.9345C65.6395 60.0657 71.3811 61.87 77.3367 61.902C79.7419 61.919 79.7415 58.187 77.3364 58.17C72.8549 58.1341 68.3962 57.0294 64.8723 54.1542C61.9106 51.7435 59.7632 48.4209 58.3443 44.8993C56.9865 41.521 56.1373 37.9134 55.6705 34.298C55.4524 32.6136 55.0144 30.5488 55.5553 28.9122C56.2415 26.8435 58.1208 25.6464 60.2468 25.5851C63.2122 25.5045 66.1737 25.5826 69.1429 25.5766C71.55 25.5726 71.5496 21.8406 69.1426 21.8446L69.1521 21.8561Z" fill="#FFA469" style="fill:#FFA469;fill:color(display-p3 1.0000 0.6431 0.4118);fill-opacity:1;"/>
<path d="M69.1521 21.8561C66.1944 21.8525 63.2214 21.784 60.256 21.8645C57.6635 21.9259 55.2164 22.9547 53.5475 24.9872C51.7581 27.1784 51.4658 29.6964 51.728 32.4132C52.5222 40.8293 54.8842 49.9604 61.2437 55.9345C65.6395 60.0657 71.3811 61.87 77.3367 61.902C79.7419 61.919 79.7415 58.187 77.3364 58.17C72.8549 58.1341 68.3962 57.0294 64.8723 54.1542C61.9106 51.7435 59.7632 48.4209 58.3443 44.8993C56.9865 41.521 56.1373 37.9134 55.6705 34.298C55.4524 32.6136 55.0144 30.5488 55.5553 28.9122C56.2415 26.8435 58.1208 25.6464 60.2468 25.5851C63.2122 25.5045 66.1737 25.5826 69.1429 25.5766C71.55 25.5726 71.5496 21.8406 69.1426 21.8446L69.1521 21.8561Z" fill="#FFA469" style="fill:#FFA469;fill:color(display-p3 1.0000 0.6431 0.4118);fill-opacity:1;"/>
<path d="M125.693 25.2781C128.492 25.2778 131.281 25.2661 134.069 25.2754C135.732 25.2886 137.288 25.6632 138.397 26.9938C139.803 28.68 139.543 30.7238 139.327 32.7505C138.57 39.9125 136.46 47.7362 131.096 52.8682C127.416 56.3826 122.545 57.838 117.537 57.871C115.14 57.8865 115.129 61.628 117.538 61.603C122.874 61.5681 128.04 60.1394 132.267 56.7913C135.887 53.9289 138.369 49.9558 140.068 45.7207C141.655 41.7936 142.511 37.6198 142.998 33.4231C143.281 31.0103 143.504 28.6663 142.427 26.395C141.225 23.8791 138.781 22.0668 136.041 21.6484C132.695 21.1325 129.086 21.5362 125.715 21.5269C123.308 21.531 123.308 25.263 125.715 25.2589L125.693 25.2781Z" fill="#FFA469" style="fill:#FFA469;fill:color(display-p3 1.0000 0.6431 0.4118);fill-opacity:1;"/>
<path d="M125.693 25.2781C128.492 25.2778 131.281 25.2661 134.069 25.2754C135.732 25.2886 137.288 25.6632 138.397 26.9938C139.803 28.68 139.543 30.7238 139.327 32.7505C138.57 39.9125 136.46 47.7362 131.096 52.8682C127.416 56.3826 122.545 57.838 117.537 57.871C115.14 57.8865 115.129 61.628 117.538 61.603C122.874 61.5681 128.04 60.1394 132.267 56.7913C135.887 53.9289 138.369 49.9558 140.068 45.7207C141.655 41.7936 142.511 37.6198 142.998 33.4231C143.281 31.0103 143.504 28.6663 142.427 26.395C141.225 23.8791 138.781 22.0668 136.041 21.6484C132.695 21.1325 129.086 21.5362 125.715 21.5269C123.308 21.531 123.308 25.263 125.715 25.2589L125.693 25.2781Z" fill="#FFA469" style="fill:#FFA469;fill:color(display-p3 1.0000 0.6431 0.4118);fill-opacity:1;"/>
<path d="M129.555 19.1455C129.319 15.8466 126.574 13.2911 123.266 13.2912L97.6258 13.2919L95.951 13.2882L73.0507 13.2962C68.9541 13.2976 65.9784 16.0438 66.0359 20.14C66.2635 36.3504 69.8847 75.6665 97.6255 74.8169L97.7001 74.813C131.173 75.821 129.734 23.4794 129.583 19.6169C129.576 19.4522 129.567 19.3099 129.555 19.1455Z" fill="#FFA469" style="fill:#FFA469;fill:color(display-p3 1.0000 0.6431 0.4118);fill-opacity:1;"/>
<path d="M129.555 19.1455C129.319 15.8466 126.574 13.2911 123.266 13.2912L97.6258 13.2919L95.951 13.2882L73.0507 13.2962C68.9541 13.2976 65.9784 16.0438 66.0359 20.14C66.2635 36.3504 69.8847 75.6665 97.6255 74.8169L97.7001 74.813C131.173 75.821 129.734 23.4794 129.583 19.6169C129.576 19.4522 129.567 19.3099 129.555 19.1455Z" fill="url(#paint2_linear_2261_4093)" style=""/>
<path d="M69.2795 21.6833L69.5032 28.3815C69.7397 24.616 70.954 16.5664 82.4059 16.5664H74.0859C70.9659 16.5664 69.084 18.0406 69.2795 21.6833Z" fill="#FFEB94" style="fill:#FFEB94;fill:color(display-p3 1.0000 0.9229 0.5785);fill-opacity:1;"/>
<path d="M96.5492 32.8269C97.2104 31.4875 99.1199 31.4862 99.7829 32.8246L102.044 37.3892C102.307 37.9205 102.815 38.2885 103.401 38.3736L108.425 39.1025C109.904 39.317 110.496 41.134 109.427 42.178L105.784 45.7351C105.359 46.1497 105.166 46.7468 105.266 47.3317L106.13 52.3463C106.384 53.8201 104.837 54.9448 103.513 54.2489L99.0084 51.8807C98.4832 51.6046 97.8558 51.6044 97.3305 51.8803L92.832 54.2424C91.5085 54.9373 89.9626 53.8132 90.2158 52.3399L91.0775 47.3259C91.1782 46.7396 90.9834 46.1413 90.5566 45.7267L86.917 42.1909C85.844 41.1485 86.4331 39.3283 87.9134 39.1123L92.9386 38.3791C93.5256 38.2934 94.033 37.9246 94.2956 37.3926L96.5492 32.8269Z" fill="#F3F0F0" style="fill:#F3F0F0;fill:color(display-p3 0.9529 0.9412 0.9412);fill-opacity:1;"/>
<path d="M96.5492 32.8269C97.2104 31.4875 99.1199 31.4862 99.7829 32.8246L102.044 37.3892C102.307 37.9205 102.815 38.2885 103.401 38.3736L108.425 39.1025C109.904 39.317 110.496 41.134 109.427 42.178L105.784 45.7351C105.359 46.1497 105.166 46.7468 105.266 47.3317L106.13 52.3463C106.384 53.8201 104.837 54.9448 103.513 54.2489L99.0084 51.8807C98.4832 51.6046 97.8558 51.6044 97.3305 51.8803L92.832 54.2424C91.5085 54.9373 89.9626 53.8132 90.2158 52.3399L91.0775 47.3259C91.1782 46.7396 90.9834 46.1413 90.5566 45.7267L86.917 42.1909C85.844 41.1485 86.4331 39.3283 87.9134 39.1123L92.9386 38.3791C93.5256 38.2934 94.033 37.9246 94.2956 37.3926L96.5492 32.8269Z" fill="url(#paint3_linear_2261_4093)" style=""/>
<path d="M64.4091 77.7581L65.2671 77.2939L65.1978 78.2749C65.1533 79.0585 65.3225 79.8467 65.7017 80.5192L66.1843 81.3753L65.2032 81.3059C64.4196 81.2614 63.6315 81.4307 62.9487 81.8017L62.0907 82.2659L62.1601 81.2849C62.2045 80.5013 62.0353 79.7131 61.6561 79.0405L61.1736 78.1845L62.1444 78.2457C62.9199 78.3003 63.708 78.1311 64.399 77.75L64.4091 77.7581Z" fill="#FFD66B" style="fill:#FFD66B;fill:color(display-p3 1.0000 0.8378 0.4208);fill-opacity:1;"/>
</g>
<path d="M146.008 116.793L146.238 115.845L146.916 116.552C147.456 117.11 148.159 117.509 148.918 117.698L149.866 117.928L149.159 118.606C148.601 119.146 148.202 119.849 148.014 120.608L147.783 121.556L147.106 120.849C146.565 120.291 145.863 119.892 145.103 119.704L144.155 119.473L144.862 118.796C145.42 118.255 145.83 117.56 146.008 116.793Z" fill="#FFA469" style="fill:#FFA469;fill:color(display-p3 1.0000 0.6431 0.4118);fill-opacity:1;"/>
<path d="M148.14 16.0633L148.692 15.8915L148.538 16.46C148.423 16.9117 148.427 17.3835 148.562 17.8302L148.734 18.382L148.165 18.2287C147.713 18.1137 147.242 18.1171 146.795 18.2521L146.243 18.4239L146.396 17.8554C146.511 17.4037 146.508 16.9319 146.373 16.4852L146.201 15.9334L146.77 16.0867C147.221 16.2017 147.693 16.1983 148.14 16.0633Z" fill="#FFD66B" style="fill:#FFD66B;fill:color(display-p3 1.0000 0.8378 0.4208);fill-opacity:1;"/>
<g clip-path="url(#clip1_2261_4093)">
<path d="M124.174 102.277L71.764 102.277C70.5848 102.277 69.6289 103.233 69.6289 104.412L69.6289 138.464C69.6289 139.643 70.5848 140.599 71.764 140.599L124.174 140.599C125.353 140.599 126.309 139.643 126.309 138.464L126.309 104.412C126.309 103.233 125.353 102.277 124.174 102.277Z" fill="#F2CB30" style="fill:#F2CB30;fill:color(display-p3 0.9490 0.7961 0.1882);fill-opacity:1;"/>
<path d="M124.174 102.277L71.764 102.277C70.5848 102.277 69.6289 103.233 69.6289 104.412L69.6289 138.464C69.6289 139.643 70.5848 140.599 71.764 140.599L124.174 140.599C125.353 140.599 126.309 139.643 126.309 138.464L126.309 104.412C126.309 103.233 125.353 102.277 124.174 102.277Z" fill="#393A3F" style="fill:#393A3F;fill:color(display-p3 0.2235 0.2275 0.2471);fill-opacity:1;"/>
<rect x="70" y="102.691" width="56" height="38" rx="6" fill="url(#paint4_linear_2261_4093)" style=""/>
<rect x="70" y="102.691" width="56" height="38" rx="6" fill="url(#paint5_linear_2261_4093)" fill-opacity="0.5" style=""/>
<mask id="path-48-outside-1_2261_4093" maskUnits="userSpaceOnUse" x="83.9727" y="113.105" width="27" height="16" fill="black">
<rect fill="white" x="83.9727" y="113.105" width="27" height="16"/>
<path d="M96.5814 122.022H101.853V123.609H96.5814V122.022ZM88.2117 120.491V128.105H85.2077V115.088H87.9094L90.5923 119.604L92.3493 122.702H92.406V115.088H95.3911V128.105H92.7083L90.0066 123.514L88.3062 120.491H88.2117ZM102.136 118.621C102.136 119.427 101.859 120.057 101.305 120.51C100.763 120.951 100.051 121.172 99.1698 121.172C98.7416 121.172 98.3448 121.115 97.9795 121.002C97.6268 120.888 97.3183 120.725 97.0538 120.51C96.7892 120.284 96.5814 120.013 96.4303 119.698C96.2917 119.383 96.2225 119.024 96.2225 118.621V117.412C96.2225 117.009 96.298 116.65 96.4492 116.335C96.6129 116.02 96.827 115.756 97.0915 115.541C97.3686 115.315 97.6835 115.145 98.0362 115.031C98.4015 114.905 98.7793 114.842 99.1698 114.842C100.039 114.842 100.751 115.075 101.305 115.541C101.859 116.007 102.136 116.644 102.136 117.45V118.621ZM100.02 117.544C100.02 117.267 99.9318 117.059 99.7555 116.921C99.5792 116.782 99.3839 116.713 99.1698 116.713C98.9557 116.713 98.7604 116.782 98.5841 116.921C98.4078 117.059 98.3196 117.267 98.3196 117.544V118.47C98.3196 118.76 98.4078 118.974 98.5841 119.112C98.7604 119.251 98.9557 119.32 99.1698 119.32C99.3839 119.32 99.5792 119.251 99.7555 119.112C99.9318 118.974 100.02 118.76 100.02 118.47V117.544ZM106.932 128.105L106.932 118.753L105.855 119.679L104.286 117.676L107.196 115.088H109.709V128.105H106.932Z"/>
</mask>
<path d="M96.5814 122.022V121.235H95.7942V122.022H96.5814ZM101.853 122.022H102.64V121.235H101.853V122.022ZM101.853 123.609V124.396H102.64V123.609H101.853ZM96.5814 123.609H95.7942V124.396H96.5814V123.609ZM88.2117 120.491V119.704H87.4245V120.491H88.2117ZM88.2117 128.105V128.893H88.9989V128.105H88.2117ZM85.2077 128.105H84.4205V128.893H85.2077V128.105ZM85.2077 115.088V114.301H84.4205V115.088H85.2077ZM87.9094 115.088L88.5862 114.686L88.3574 114.301H87.9094V115.088ZM90.5923 119.604L91.277 119.215L91.2731 119.208L91.269 119.201L90.5923 119.604ZM92.3493 122.702L91.6646 123.09L91.8908 123.489H92.3493V122.702ZM92.406 122.702V123.489H93.1932V122.702H92.406ZM92.406 115.088V114.301H91.6188V115.088H92.406ZM95.3911 115.088H96.1784V114.301H95.3911V115.088ZM95.3911 128.105V128.893H96.1784V128.105H95.3911ZM92.7083 128.105L92.0298 128.505L92.2582 128.893H92.7083V128.105ZM90.0066 123.514L89.3204 123.9L89.3242 123.907L89.3281 123.914L90.0066 123.514ZM88.3062 120.491L88.9923 120.106L88.7666 119.704H88.3062V120.491ZM101.305 120.51L101.802 121.121L101.803 121.12L101.305 120.51ZM97.9795 121.002L97.7386 121.751L97.7462 121.753L97.9795 121.002ZM97.0538 120.51L96.5414 121.108L96.5498 121.115L96.5584 121.122L97.0538 120.51ZM96.4303 119.698L95.7097 120.015L95.715 120.027L95.7206 120.039L96.4303 119.698ZM96.4492 116.335L95.7507 115.972L95.7449 115.983L95.7395 115.994L96.4492 116.335ZM97.0915 115.541L97.5869 116.153L97.59 116.151L97.0915 115.541ZM98.0362 115.031L98.2771 115.781L98.285 115.778L98.2928 115.776L98.0362 115.031ZM99.7555 116.921L99.2691 117.54L99.2691 117.54L99.7555 116.921ZM98.5841 116.921L99.0705 117.54L99.0705 117.54L98.5841 116.921ZM98.5841 119.112L98.0977 119.731L98.0977 119.731L98.5841 119.112ZM99.7555 119.112L100.242 119.731L100.242 119.731L99.7555 119.112ZM96.5814 122.809H101.853V121.235H96.5814V122.809ZM101.065 122.022V123.609H102.64V122.022H101.065ZM101.853 122.822H96.5814V124.396H101.853V122.822ZM97.3686 123.609V122.022H95.7942V123.609H97.3686ZM87.4245 120.491V128.105H88.9989V120.491H87.4245ZM88.2117 127.318H85.2077V128.893H88.2117V127.318ZM85.9949 128.105V115.088H84.4205V128.105H85.9949ZM85.2077 115.875H87.9094V114.301H85.2077V115.875ZM87.2326 115.49L89.9155 120.006L91.269 119.201L88.5862 114.686L87.2326 115.49ZM89.9075 119.992L91.6646 123.09L93.0341 122.314L91.277 119.215L89.9075 119.992ZM92.3493 123.489H92.406V121.915H92.3493V123.489ZM93.1932 122.702V115.088H91.6188V122.702H93.1932ZM92.406 115.875H95.3911V114.301H92.406V115.875ZM94.6039 115.088V128.105H96.1784V115.088H94.6039ZM95.3911 127.318H92.7083V128.893H95.3911V127.318ZM93.3868 127.706L90.685 123.115L89.3281 123.914L92.0298 128.505L93.3868 127.706ZM90.6927 123.128L88.9923 120.106L87.6201 120.877L89.3204 123.9L90.6927 123.128ZM88.3062 119.704H88.2117V121.279H88.3062V119.704ZM101.349 118.621C101.349 119.225 101.153 119.617 100.806 119.901L101.803 121.12C102.565 120.497 102.923 119.63 102.923 118.621H101.349ZM100.808 119.9C100.44 120.199 99.919 120.384 99.1698 120.384V121.959C100.184 121.959 101.086 121.703 101.802 121.121L100.808 119.9ZM99.1698 120.384C98.8113 120.384 98.4941 120.337 98.2129 120.25L97.7462 121.753C98.1955 121.893 98.6718 121.959 99.1698 121.959V120.384ZM98.2204 120.252C97.9521 120.166 97.7316 120.046 97.5491 119.899L96.5584 121.122C96.905 121.403 97.3016 121.611 97.7386 121.751L98.2204 120.252ZM97.5661 119.913C97.3847 119.757 97.244 119.574 97.14 119.357L95.7206 120.039C95.9189 120.452 96.1938 120.81 96.5414 121.108L97.5661 119.913ZM97.1508 119.381C97.0631 119.182 97.0097 118.933 97.0097 118.621H95.4352C95.4352 119.115 95.5203 119.585 95.7097 120.015L97.1508 119.381ZM97.0097 118.621V117.412H95.4352V118.621H97.0097ZM97.0097 117.412C97.0097 117.109 97.0661 116.869 97.1589 116.676L95.7395 115.994C95.53 116.431 95.4352 116.909 95.4352 117.412H97.0097ZM97.1476 116.698C97.2636 116.475 97.41 116.296 97.5869 116.153L96.5962 114.93C96.244 115.215 95.9622 115.565 95.7507 115.972L97.1476 116.698ZM97.59 116.151C97.7882 115.989 98.015 115.865 98.2771 115.781L97.7953 114.282C97.3521 114.424 96.9491 114.641 96.593 114.932L97.59 116.151ZM98.2928 115.776C98.5746 115.678 98.8657 115.63 99.1698 115.63V114.055C98.6929 114.055 98.2283 114.132 97.7796 114.287L98.2928 115.776ZM99.1698 115.63C99.8923 115.63 100.413 115.82 100.798 116.144L101.811 114.939C101.088 114.331 100.186 114.055 99.1698 114.055V115.63ZM100.798 116.144C101.153 116.442 101.349 116.846 101.349 117.45H102.923C102.923 116.441 102.565 115.573 101.811 114.939L100.798 116.144ZM101.349 117.45V118.621H102.923V117.45H101.349ZM100.807 117.544C100.807 117.088 100.653 116.624 100.242 116.302L99.2691 117.54C99.2625 117.534 99.2539 117.526 99.2456 117.515C99.2372 117.504 99.2319 117.494 99.2292 117.488C99.2238 117.475 99.2328 117.488 99.2328 117.544H100.807ZM100.242 116.302C99.9339 116.06 99.5691 115.926 99.1698 115.926V117.5C99.1988 117.5 99.2244 117.505 99.2691 117.54L100.242 116.302ZM99.1698 115.926C98.7705 115.926 98.4057 116.06 98.0977 116.302L99.0705 117.54C99.1152 117.505 99.1408 117.5 99.1698 117.5V115.926ZM98.0977 116.302C97.687 116.624 97.5324 117.088 97.5324 117.544H99.1068C99.1068 117.488 99.1158 117.475 99.1104 117.488C99.1076 117.494 99.1024 117.504 99.094 117.515C99.0857 117.526 99.0771 117.534 99.0705 117.54L98.0977 116.302ZM97.5324 117.544V118.47H99.1068V117.544H97.5324ZM97.5324 118.47C97.5324 118.925 97.6784 119.402 98.0977 119.731L99.0705 118.493C99.0794 118.5 99.0893 118.51 99.0982 118.522C99.1069 118.534 99.1117 118.543 99.1137 118.548C99.1172 118.557 99.1068 118.537 99.1068 118.47H97.5324ZM98.0977 119.731C98.4057 119.973 98.7705 120.107 99.1698 120.107V118.533C99.1408 118.533 99.1152 118.528 99.0705 118.493L98.0977 119.731ZM99.1698 120.107C99.5691 120.107 99.9339 119.973 100.242 119.731L99.2691 118.493C99.2244 118.528 99.1988 118.533 99.1698 118.533V120.107ZM100.242 119.731C100.661 119.402 100.807 118.925 100.807 118.47H99.2328C99.2328 118.537 99.2224 118.557 99.2259 118.548C99.2279 118.543 99.2327 118.534 99.2414 118.522C99.2503 118.51 99.2602 118.5 99.2691 118.493L100.242 119.731ZM100.807 118.47V117.544H99.2328V118.47H100.807ZM106.932 128.105H106.144V128.893H106.932V128.105ZM106.932 118.753H107.719V117.038L106.418 118.156L106.932 118.753ZM105.855 119.679L105.235 120.164L105.743 120.813L106.368 120.276L105.855 119.679ZM104.286 117.676L103.763 117.088L103.211 117.58L103.667 118.162L104.286 117.676ZM107.196 115.088V114.301H106.897L106.673 114.5L107.196 115.088ZM109.709 115.088H110.496V114.301H109.709V115.088ZM109.709 128.105V128.893H110.496V128.105H109.709ZM107.719 128.105V118.753H106.144V128.105H107.719ZM106.418 118.156L105.341 119.082L106.368 120.276L107.445 119.35L106.418 118.156ZM106.474 119.194L104.906 117.191L103.667 118.162L105.235 120.164L106.474 119.194ZM104.81 118.265L107.719 115.676L106.673 114.5L103.763 117.088L104.81 118.265ZM107.196 115.875H109.709V114.301H107.196V115.875ZM108.922 115.088V128.105H110.496V115.088H108.922ZM109.709 127.318H106.932V128.893H109.709V127.318Z" fill="#FFA469" style="fill:#FFA469;fill:color(display-p3 1.0000 0.6431 0.4118);fill-opacity:1;" mask="url(#path-48-outside-1_2261_4093)"/>
</g>
<defs>
<linearGradient id="paint0_linear_2261_4093" x1="110.187" y1="90.4081" x2="85.263" y2="111.182" gradientUnits="userSpaceOnUse">
<stop stop-color="#FFD66B" style="stop-color:#FFD66B;stop-color:color(display-p3 1.0000 0.8392 0.4196);stop-opacity:1;"/>
<stop offset="1" stop-color="#FFA469" style="stop-color:#FFA469;stop-color:color(display-p3 1.0000 0.6431 0.4118);stop-opacity:1;"/>
</linearGradient>
<linearGradient id="paint1_linear_2261_4093" x1="98.3528" y1="87.9059" x2="100.728" y2="105.625" gradientUnits="userSpaceOnUse">
<stop stop-color="#FFD66B" style="stop-color:#FFD66B;stop-color:color(display-p3 1.0000 0.8392 0.4196);stop-opacity:1;"/>
<stop offset="1" stop-color="#FFA469" style="stop-color:#FFA469;stop-color:color(display-p3 1.0000 0.6431 0.4118);stop-opacity:1;"/>
</linearGradient>
<linearGradient id="paint2_linear_2261_4093" x1="88.5194" y1="8.67619" x2="116.466" y2="61.0262" gradientUnits="userSpaceOnUse">
<stop stop-color="#FFD66B" style="stop-color:#FFD66B;stop-color:color(display-p3 1.0000 0.8392 0.4196);stop-opacity:1;"/>
<stop offset="1" stop-color="#FFA469" style="stop-color:#FFA469;stop-color:color(display-p3 1.0000 0.6431 0.4118);stop-opacity:1;"/>
</linearGradient>
<linearGradient id="paint3_linear_2261_4093" x1="98.849" y1="32.5479" x2="99.7878" y2="55.9587" gradientUnits="userSpaceOnUse">
<stop stop-color="#4F5058" style="stop-color:#4F5058;stop-color:color(display-p3 0.3098 0.3137 0.3451);stop-opacity:1;"/>
<stop offset="1" stop-color="#C27B4C" style="stop-color:#C27B4C;stop-color:color(display-p3 0.7592 0.4808 0.2983);stop-opacity:1;"/>
</linearGradient>
<linearGradient id="paint4_linear_2261_4093" x1="48.4926" y1="84.6255" x2="135.385" y2="145.457" gradientUnits="userSpaceOnUse">
<stop stop-color="white" style="stop-color:white;stop-opacity:1;"/>
<stop offset="0.12" stop-color="#51535C" style="stop-color:#51535C;stop-color:color(display-p3 0.3187 0.3238 0.3593);stop-opacity:1;"/>
<stop offset="0.440655" stop-color="white" stop-opacity="0.14" style="stop-color:white;stop-opacity:0.14;"/>
<stop offset="0.440755" stop-color="#46474E" style="stop-color:#46474E;stop-color:color(display-p3 0.2745 0.2784 0.3059);stop-opacity:1;"/>
<stop offset="0.755" stop-color="#393A3F" style="stop-color:#393A3F;stop-color:color(display-p3 0.2235 0.2275 0.2471);stop-opacity:1;"/>
</linearGradient>
<linearGradient id="paint5_linear_2261_4093" x1="130" y1="91.6914" x2="131.881" y2="129.943" gradientUnits="userSpaceOnUse">
<stop stop-color="#FFA469" stop-opacity="0" style="stop-color:none;stop-opacity:0;"/>
<stop offset="0.149619" stop-color="#FFD66B" stop-opacity="0.48" style="stop-color:#FFD66B;stop-color:color(display-p3 1.0000 0.8392 0.4196);stop-opacity:0.48;"/>
<stop offset="0.74054" stop-color="#FFA469" stop-opacity="0" style="stop-color:none;stop-opacity:0;"/>
</linearGradient>
<clipPath id="clip0_2261_4093">
<rect width="185.784" height="109.423" fill="white" style="fill:white;fill-opacity:1;" transform="translate(0.746094 0.691406)"/>
</clipPath>
<clipPath id="clip1_2261_4093">
<rect x="70" y="102.691" width="56" height="38" rx="6" fill="white" style="fill:white;fill-opacity:1;"/>
</clipPath>
</defs>
</svg>
