<svg width="386" height="380" viewBox="0 0 386 380" fill="none" xmlns="http://www.w3.org/2000/svg">
<path d="M354.746 60.7913L342.507 180.214L334.981 253.679L229.798 242.904L209.331 240.808L196.227 239.466L207.841 126.089L215.992 46.5781L354.746 60.7913Z" fill="#F3F0F0" stroke="#65666D" style="fill:#F3F0F0;fill:color(display-p3 0.9529 0.9412 0.9412);fill-opacity:1;stroke:#65666D;stroke:color(display-p3 0.3952 0.3994 0.4292);stroke-opacity:1;" stroke-linecap="round" stroke-linejoin="round"/>
<path d="M202.712 27.3915L185.043 31.1159C182.661 31.6182 180.322 30.0938 179.82 27.712L176.096 10.0429C175.593 7.66102 177.118 5.32246 179.5 4.82011L197.169 1.09574C199.551 0.593385 201.889 2.11778 202.391 4.49964L206.116 22.1687C206.618 24.5506 205.094 26.8891 202.712 27.3915Z" stroke="#65666D" style="stroke:#65666D;stroke:color(display-p3 0.3952 0.3994 0.4292);stroke-opacity:1;" stroke-linecap="round" stroke-linejoin="round"/>
<path d="M189.984 10.7344L192.236 21.4657" stroke="#65666D" style="stroke:#65666D;stroke:color(display-p3 0.3952 0.3994 0.4292);stroke-opacity:1;" stroke-linecap="round" stroke-linejoin="round"/>
<path d="M196.465 14.9688L185.742 17.2294" stroke="#65666D" style="stroke:#65666D;stroke:color(display-p3 0.3952 0.3994 0.4292);stroke-opacity:1;" stroke-linecap="round" stroke-linejoin="round"/>
<path d="M381.497 242.321L363.828 246.046C361.446 246.548 359.108 245.024 358.605 242.642L354.881 224.973C354.379 222.591 355.903 220.252 358.285 219.75L375.954 216.025C378.336 215.523 380.674 217.047 381.177 219.429L384.901 237.098C385.403 239.48 383.879 241.819 381.497 242.321Z" stroke="#65666D" style="stroke:#65666D;stroke:color(display-p3 0.3952 0.3994 0.4292);stroke-opacity:1;" stroke-linecap="round" stroke-linejoin="round"/>
<path d="M372.887 226.445L366.902 235.626" stroke="#65666D" style="stroke:#65666D;stroke:color(display-p3 0.3952 0.3994 0.4292);stroke-opacity:1;" stroke-linecap="round" stroke-linejoin="round"/>
<path d="M374.49 234.024L365.309 228.039" stroke="#65666D" style="stroke:#65666D;stroke:color(display-p3 0.3952 0.3994 0.4292);stroke-opacity:1;" stroke-linecap="round" stroke-linejoin="round"/>
<path d="M136.376 356.935L118.344 355.896C115.91 355.757 114.056 353.67 114.195 351.236L115.234 333.203C115.373 330.769 117.46 328.916 119.894 329.054L137.927 330.094C140.361 330.232 142.214 332.319 142.076 334.753L141.036 352.786C140.898 355.22 138.81 357.074 136.376 356.935Z" stroke="#65666D" style="stroke:#65666D;stroke:color(display-p3 0.3952 0.3994 0.4292);stroke-opacity:1;" stroke-linecap="round" stroke-linejoin="round"/>
<path d="M133.612 343.312L122.664 342.68" stroke="#65666D" style="stroke:#65666D;stroke:color(display-p3 0.3952 0.3994 0.4292);stroke-opacity:1;" stroke-linecap="round" stroke-linejoin="round"/>
<path d="M21.1621 230.885L4.02135 225.203C1.70878 224.441 0.461549 221.947 1.22375 219.634L6.90557 202.493C7.66776 200.181 10.1622 198.925 12.4748 199.696L29.6155 205.378C31.9281 206.14 33.1753 208.634 32.4131 210.947L26.7313 228.088C25.9691 230.4 23.4747 231.656 21.1621 230.885Z" stroke="#65666D" style="stroke:#65666D;stroke:color(display-p3 0.3952 0.3994 0.4292);stroke-opacity:1;" stroke-linecap="round" stroke-linejoin="round"/>
<path d="M23.6718 211.836L9.96094 218.73" stroke="#65666D" style="stroke:#65666D;stroke:color(display-p3 0.3952 0.3994 0.4292);stroke-opacity:1;" stroke-linecap="round" stroke-linejoin="round"/>
<path d="M15.8062 209.003C16.2826 209.948 15.9015 211.099 14.9574 211.567C14.0133 212.044 12.8614 211.662 12.385 210.718C11.9086 209.774 12.2897 208.622 13.2338 208.155C14.1779 207.687 15.3298 208.059 15.8062 209.003Z" stroke="#65666D" style="stroke:#65666D;stroke:color(display-p3 0.3952 0.3994 0.4292);stroke-opacity:1;" stroke-linecap="round" stroke-linejoin="round"/>
<path d="M21.2515 219.839C21.7279 220.783 21.3468 221.935 20.4027 222.403C19.4586 222.871 18.3067 222.498 17.8303 221.554C17.3539 220.61 17.735 219.458 18.6791 218.991C19.6232 218.523 20.7751 218.895 21.2515 219.839Z" stroke="#65666D" style="stroke:#65666D;stroke:color(display-p3 0.3952 0.3994 0.4292);stroke-opacity:1;" stroke-linecap="round" stroke-linejoin="round"/>
<path d="M314.451 65.2372L254.558 59.0963C253.432 58.9837 252.428 59.7979 252.315 60.9239C252.202 62.0498 253.017 63.0546 254.143 63.1672L314.036 69.308C315.162 69.4206 316.166 68.6065 316.279 67.4805C316.391 66.3545 315.577 65.3498 314.451 65.2372Z" fill="#65666D" style="fill:#65666D;fill:color(display-p3 0.3952 0.3994 0.4292);fill-opacity:1;"/>
<path d="M298.622 72.072L268.671 69.0059C268.108 68.9452 267.606 69.361 267.545 69.924C267.484 70.487 267.9 70.9893 268.454 71.0499L298.405 74.116C298.968 74.1767 299.471 73.7609 299.531 73.1979C299.592 72.635 299.176 72.1326 298.622 72.072Z" fill="#65666D" style="fill:#65666D;fill:color(display-p3 0.3952 0.3994 0.4292);fill-opacity:1;"/>
<path d="M331.565 160.209L234.351 150.248C233.788 150.187 233.285 150.603 233.225 151.157C233.164 151.72 233.58 152.223 234.134 152.283L331.349 162.244C331.912 162.305 332.414 161.889 332.475 161.335C332.535 160.78 332.128 160.269 331.565 160.209Z" fill="#65666D" style="fill:#65666D;fill:color(display-p3 0.3952 0.3994 0.4292);fill-opacity:1;"/>
<path d="M330.811 167.524L217.772 155.943C217.209 155.883 216.707 156.298 216.647 156.853C216.586 157.416 217.002 157.918 217.556 157.979L330.595 169.559C331.158 169.62 331.66 169.204 331.721 168.65C331.781 168.087 331.374 167.584 330.811 167.524Z" fill="#65666D" style="fill:#65666D;fill:color(display-p3 0.3952 0.3994 0.4292);fill-opacity:1;"/>
<path d="M298.412 171.605L217.03 163.264C216.467 163.203 215.965 163.619 215.904 164.173C215.844 164.736 216.259 165.238 216.814 165.299L298.195 173.64C298.758 173.701 299.261 173.285 299.321 172.73C299.382 172.176 298.966 171.665 298.412 171.605Z" fill="#65666D" style="fill:#65666D;fill:color(display-p3 0.3952 0.3994 0.4292);fill-opacity:1;"/>
<path d="M251.764 139.699C265.774 139.699 277.132 128.341 277.132 114.33C277.132 100.319 265.774 88.9609 251.764 88.9609C237.753 88.9609 226.395 100.319 226.395 114.33C226.395 128.341 237.753 139.699 251.764 139.699Z" fill="#FBD97E" style="fill:#FBD97E;fill:color(display-p3 0.9843 0.8510 0.4941);fill-opacity:1;"/>
<mask id="mask0_2261_3511" style="mask-type:luminance" maskUnits="userSpaceOnUse" x="226" y="88" width="52" height="52">
<path d="M251.764 139.691C265.774 139.691 277.133 128.333 277.133 114.322C277.133 100.311 265.774 88.9531 251.764 88.9531C237.753 88.9531 226.395 100.311 226.395 114.322C226.395 128.333 237.753 139.691 251.764 139.691Z" fill="white" style="fill:white;fill-opacity:1;"/>
</mask>
<g mask="url(#mask0_2261_3511)">
<path opacity="0.5" d="M251.771 139.699C265.782 139.699 277.14 128.341 277.14 114.33C277.14 100.319 265.782 88.9609 251.771 88.9609C237.76 88.9609 226.402 100.319 226.402 114.33C226.402 128.341 237.76 139.699 251.771 139.699Z" fill="#F3F0F0" style="fill:#F3F0F0;fill:color(display-p3 0.9529 0.9412 0.9412);fill-opacity:1;"/>
</g>
<path d="M251.764 139.699C265.774 139.699 277.132 128.341 277.132 114.33C277.132 100.319 265.774 88.9609 251.764 88.9609C237.753 88.9609 226.395 100.319 226.395 114.33C226.395 128.341 237.753 139.699 251.764 139.699Z" stroke="#65666D" style="stroke:#65666D;stroke:color(display-p3 0.3952 0.3994 0.4292);stroke-opacity:1;" stroke-miterlimit="10"/>
<path d="M252.48 114.257L273.579 124.876C274.775 122.407 275.563 119.696 275.857 116.812C276.524 110.299 274.541 104.123 270.79 99.3594L252.48 114.265V114.257Z" fill="#F3F0F0" style="fill:#F3F0F0;fill:color(display-p3 0.9529 0.9412 0.9412);fill-opacity:1;"/>
<path d="M252.621 113.13L270.29 98.7517C267.683 95.6596 264.314 93.2085 260.425 91.7188L257.238 100.467L252.621 113.13Z" fill="#FBD97E" style="fill:#FBD97E;fill:color(display-p3 0.9843 0.8510 0.4941);fill-opacity:1;"/>
<path d="M254.62 90.2891L252.48 111.197L259.678 91.441C258.067 90.8867 256.378 90.4969 254.628 90.2891H254.62Z" fill="#8F8F92" style="fill:#8F8F92;fill:color(display-p3 0.5613 0.5625 0.5708);fill-opacity:1;"/>
<path d="M251.388 114.079L253.831 90.208C240.683 89.0734 228.999 98.6961 227.648 111.87C227.206 116.166 227.925 120.306 229.527 123.996L251.38 114.07L251.388 114.079Z" fill="#8F8F92" style="fill:#8F8F92;fill:color(display-p3 0.5613 0.5625 0.5708);fill-opacity:1;"/>
<path d="M249.298 138.452C259.45 139.491 268.769 134.104 273.23 125.59L251.758 114.789L229.871 124.732C233.388 132.129 240.559 137.56 249.298 138.452Z" fill="#D7D7D7" style="fill:#D7D7D7;fill:color(display-p3 0.8417 0.8417 0.8417);fill-opacity:1;"/>
<path d="M292.065 101.842L289.172 101.548C288.878 101.513 288.652 101.253 288.687 100.95L288.982 98.0575C289.016 97.763 289.276 97.5464 289.579 97.5724L292.472 97.8669C292.767 97.9016 292.992 98.1614 292.957 98.4645L292.663 101.357C292.628 101.652 292.368 101.877 292.065 101.842Z" fill="#FBD97E" stroke="#65666D" style="fill:#FBD97E;fill:color(display-p3 0.9843 0.8510 0.4941);fill-opacity:1;stroke:#65666D;stroke:color(display-p3 0.3952 0.3994 0.4292);stroke-opacity:1;" stroke-miterlimit="10"/>
<path d="M332.685 103.466L295.398 99.6463C295.147 99.6203 294.965 99.3951 294.991 99.1439C295.017 98.8928 295.242 98.7109 295.493 98.7368L332.78 102.556C333.031 102.582 333.213 102.808 333.187 103.059C333.161 103.31 332.936 103.492 332.685 103.466Z" fill="#65666D" style="fill:#65666D;fill:color(display-p3 0.3952 0.3994 0.4292);fill-opacity:1;"/>
<path d="M328.827 105.078L295.187 101.631C294.936 101.605 294.754 101.379 294.78 101.128C294.806 100.877 295.031 100.695 295.282 100.721L328.923 104.168C329.174 104.194 329.356 104.42 329.33 104.671C329.304 104.922 329.079 105.104 328.827 105.078Z" fill="#65666D" style="fill:#65666D;fill:color(display-p3 0.3952 0.3994 0.4292);fill-opacity:1;"/>
<path d="M291.151 110.749L288.258 110.454C287.964 110.42 287.738 110.16 287.773 109.857L288.068 106.964C288.102 106.669 288.362 106.453 288.665 106.479L291.558 106.773C291.853 106.808 292.069 107.068 292.043 107.371L291.749 110.264C291.714 110.567 291.454 110.783 291.151 110.749Z" fill="#8F8F92" stroke="#65666D" style="fill:#8F8F92;fill:color(display-p3 0.5613 0.5625 0.5708);fill-opacity:1;stroke:#65666D;stroke:color(display-p3 0.3952 0.3994 0.4292);stroke-opacity:1;" stroke-linecap="round" stroke-linejoin="round"/>
<path d="M331.771 112.357L294.484 108.537C294.233 108.511 294.051 108.286 294.077 108.035C294.103 107.783 294.328 107.601 294.579 107.627L331.866 111.447C332.117 111.473 332.299 111.698 332.273 111.949C332.247 112.201 332.022 112.383 331.771 112.357Z" fill="#65666D" style="fill:#65666D;fill:color(display-p3 0.3952 0.3994 0.4292);fill-opacity:1;"/>
<path d="M327.913 113.968L294.273 110.521C294.022 110.495 293.84 110.27 293.866 110.019C293.892 109.768 294.117 109.586 294.368 109.612L328.009 113.059C328.26 113.085 328.442 113.31 328.416 113.561C328.39 113.813 328.165 113.994 327.913 113.968Z" fill="#65666D" style="fill:#65666D;fill:color(display-p3 0.3952 0.3994 0.4292);fill-opacity:1;"/>
<path d="M290.235 119.639L287.343 119.345C287.048 119.31 286.832 119.05 286.858 118.747L287.152 115.854C287.187 115.56 287.447 115.343 287.75 115.369L290.643 115.664C290.937 115.698 291.162 115.958 291.128 116.261L290.833 119.154C290.798 119.449 290.539 119.665 290.235 119.639Z" fill="#8F8F92" stroke="#65666D" style="fill:#8F8F92;fill:color(display-p3 0.5613 0.5625 0.5708);fill-opacity:1;stroke:#65666D;stroke:color(display-p3 0.3952 0.3994 0.4292);stroke-opacity:1;" stroke-linecap="round" stroke-linejoin="round"/>
<path d="M330.849 121.247L293.562 117.428C293.311 117.402 293.129 117.176 293.155 116.925C293.181 116.674 293.406 116.492 293.657 116.518L330.944 120.338C331.195 120.364 331.377 120.589 331.351 120.84C331.325 121.091 331.1 121.273 330.849 121.247Z" fill="#65666D" style="fill:#65666D;fill:color(display-p3 0.3952 0.3994 0.4292);fill-opacity:1;"/>
<path d="M326.992 122.859L293.351 119.412C293.1 119.386 292.918 119.161 292.944 118.91C292.97 118.658 293.195 118.476 293.446 118.502L327.087 121.95C327.338 121.976 327.52 122.201 327.494 122.452C327.468 122.703 327.243 122.885 326.992 122.859Z" fill="#65666D" style="fill:#65666D;fill:color(display-p3 0.3952 0.3994 0.4292);fill-opacity:1;"/>
<path d="M289.323 128.538L286.43 128.243C286.136 128.209 285.91 127.949 285.945 127.646L286.239 124.753C286.274 124.458 286.534 124.242 286.837 124.268L289.73 124.562C290.024 124.597 290.25 124.857 290.215 125.16L289.92 128.053C289.886 128.347 289.626 128.572 289.323 128.538Z" fill="#D7D7D7" stroke="#65666D" style="fill:#D7D7D7;fill:color(display-p3 0.8417 0.8417 0.8417);fill-opacity:1;stroke:#65666D;stroke:color(display-p3 0.3952 0.3994 0.4292);stroke-opacity:1;" stroke-miterlimit="10"/>
<path d="M329.95 130.161L292.663 126.342C292.412 126.316 292.23 126.09 292.256 125.839C292.282 125.588 292.508 125.406 292.759 125.432L330.046 129.252C330.297 129.278 330.479 129.503 330.453 129.754C330.427 130.005 330.202 130.187 329.95 130.161Z" fill="#65666D" style="fill:#65666D;fill:color(display-p3 0.3952 0.3994 0.4292);fill-opacity:1;"/>
<path d="M326.093 131.773L292.453 128.326C292.201 128.3 292.019 128.075 292.045 127.824C292.071 127.572 292.297 127.391 292.548 127.417L326.188 130.864C326.44 130.89 326.621 131.115 326.595 131.366C326.569 131.617 326.344 131.799 326.093 131.773Z" fill="#65666D" style="fill:#65666D;fill:color(display-p3 0.3952 0.3994 0.4292);fill-opacity:1;"/>
<path d="M288.417 137.444L285.524 137.15C285.229 137.115 285.004 136.855 285.039 136.552L285.333 133.659C285.368 133.365 285.628 133.148 285.931 133.174L288.824 133.468C289.118 133.503 289.343 133.763 289.309 134.066L289.014 136.959C288.988 137.253 288.72 137.479 288.417 137.444Z" fill="#F3F0F0" stroke="#65666D" style="fill:#F3F0F0;fill:color(display-p3 0.9529 0.9412 0.9412);fill-opacity:1;stroke:#65666D;stroke:color(display-p3 0.3952 0.3994 0.4292);stroke-opacity:1;" stroke-linecap="round" stroke-linejoin="round"/>
<path d="M329.044 139.052L291.757 135.232C291.506 135.206 291.324 134.981 291.35 134.73C291.376 134.479 291.601 134.297 291.852 134.323L329.139 138.142C329.391 138.168 329.573 138.394 329.547 138.645C329.521 138.896 329.295 139.078 329.044 139.052Z" fill="#65666D" style="fill:#65666D;fill:color(display-p3 0.3952 0.3994 0.4292);fill-opacity:1;"/>
<path d="M325.187 140.664L291.546 137.217C291.295 137.191 291.113 136.965 291.139 136.714C291.165 136.463 291.39 136.281 291.642 136.307L325.282 139.754C325.533 139.78 325.715 140.006 325.689 140.257C325.663 140.508 325.438 140.69 325.187 140.664Z" fill="#65666D" style="fill:#65666D;fill:color(display-p3 0.3952 0.3994 0.4292);fill-opacity:1;"/>
<path d="M313.681 192.005L312.434 204.18L314.562 204.398L315.809 192.223L313.681 192.005Z" fill="#8F8F92" stroke="#65666D" style="fill:#8F8F92;fill:color(display-p3 0.5613 0.5625 0.5708);fill-opacity:1;stroke:#65666D;stroke:color(display-p3 0.3952 0.3994 0.4292);stroke-opacity:1;" stroke-linecap="round" stroke-linejoin="round"/>
<path d="M313.232 196.661L312.645 202.391L314.773 202.609L315.36 196.879L313.232 196.661Z" fill="#FBD97E" stroke="#65666D" style="fill:#FBD97E;fill:color(display-p3 0.9843 0.8510 0.4941);fill-opacity:1;stroke:#65666D;stroke:color(display-p3 0.3952 0.3994 0.4292);stroke-opacity:1;" stroke-miterlimit="10"/>
<path d="M318.814 189.482L317.566 201.656L319.695 201.874L320.942 189.7L318.814 189.482Z" fill="#8F8F92" stroke="#65666D" style="fill:#8F8F92;fill:color(display-p3 0.5613 0.5625 0.5708);fill-opacity:1;stroke:#65666D;stroke:color(display-p3 0.3952 0.3994 0.4292);stroke-opacity:1;" stroke-linecap="round" stroke-linejoin="round"/>
<path d="M318.466 192.7L317.879 198.43L320.007 198.648L320.594 192.918L318.466 192.7Z" fill="#FBD97E" stroke="#65666D" style="fill:#FBD97E;fill:color(display-p3 0.9843 0.8510 0.4941);fill-opacity:1;stroke:#65666D;stroke:color(display-p3 0.3952 0.3994 0.4292);stroke-opacity:1;" stroke-miterlimit="10"/>
<path d="M323.353 192.302L322.105 204.477L324.234 204.695L325.481 192.52L323.353 192.302Z" fill="#8F8F92" stroke="#65666D" style="fill:#8F8F92;fill:color(display-p3 0.5613 0.5625 0.5708);fill-opacity:1;stroke:#65666D;stroke:color(display-p3 0.3952 0.3994 0.4292);stroke-opacity:1;" stroke-linecap="round" stroke-linejoin="round"/>
<path d="M323.153 194.122L322.566 199.852L324.695 200.07L325.282 194.34L323.153 194.122Z" fill="#FBD97E" stroke="#65666D" style="fill:#FBD97E;fill:color(display-p3 0.9843 0.8510 0.4941);fill-opacity:1;stroke:#65666D;stroke:color(display-p3 0.3952 0.3994 0.4292);stroke-opacity:1;" stroke-miterlimit="10"/>
<path d="M309.142 189.114L307.895 201.289L310.023 201.507L311.27 189.332L309.142 189.114Z" fill="#8F8F92" stroke="#65666D" style="fill:#8F8F92;fill:color(display-p3 0.5613 0.5625 0.5708);fill-opacity:1;stroke:#65666D;stroke:color(display-p3 0.3952 0.3994 0.4292);stroke-opacity:1;" stroke-linecap="round" stroke-linejoin="round"/>
<path d="M308.693 193.77L308.105 199.5L310.234 199.718L310.821 193.988L308.693 193.77Z" fill="#FBD97E" stroke="#65666D" style="fill:#FBD97E;fill:color(display-p3 0.9843 0.8510 0.4941);fill-opacity:1;stroke:#65666D;stroke:color(display-p3 0.3952 0.3994 0.4292);stroke-opacity:1;" stroke-miterlimit="10"/>
<path d="M303.978 192.278L302.73 204.453L304.859 204.671L306.106 192.496L303.978 192.278Z" fill="#8F8F92" stroke="#65666D" style="fill:#8F8F92;fill:color(display-p3 0.5613 0.5625 0.5708);fill-opacity:1;stroke:#65666D;stroke:color(display-p3 0.3952 0.3994 0.4292);stroke-opacity:1;" stroke-linecap="round" stroke-linejoin="round"/>
<path d="M303.443 197.301L302.855 203.031L304.984 203.249L305.571 197.52L303.443 197.301Z" fill="#FBD97E" stroke="#65666D" style="fill:#FBD97E;fill:color(display-p3 0.9843 0.8510 0.4941);fill-opacity:1;stroke:#65666D;stroke:color(display-p3 0.3952 0.3994 0.4292);stroke-opacity:1;" stroke-miterlimit="10"/>
<path d="M299.517 188.646L298.27 200.82L300.398 201.038L301.645 188.864L299.517 188.646Z" fill="#8F8F92" stroke="#65666D" style="fill:#8F8F92;fill:color(display-p3 0.5613 0.5625 0.5708);fill-opacity:1;stroke:#65666D;stroke:color(display-p3 0.3952 0.3994 0.4292);stroke-opacity:1;" stroke-linecap="round" stroke-linejoin="round"/>
<path d="M298.888 194.583L298.301 200.312L300.429 200.531L301.016 194.801L298.888 194.583Z" fill="#FBD97E" stroke="#65666D" style="fill:#FBD97E;fill:color(display-p3 0.9843 0.8510 0.4941);fill-opacity:1;stroke:#65666D;stroke:color(display-p3 0.3952 0.3994 0.4292);stroke-opacity:1;" stroke-miterlimit="10"/>
<path d="M294.056 194.466L292.809 206.641L294.937 206.859L296.184 194.684L294.056 194.466Z" fill="#8F8F92" stroke="#65666D" style="fill:#8F8F92;fill:color(display-p3 0.5613 0.5625 0.5708);fill-opacity:1;stroke:#65666D;stroke:color(display-p3 0.3952 0.3994 0.4292);stroke-opacity:1;" stroke-linecap="round" stroke-linejoin="round"/>
<path d="M293.45 200.458L292.863 206.188L294.991 206.406L295.579 200.676L293.45 200.458Z" fill="#FBD97E" stroke="#65666D" style="fill:#FBD97E;fill:color(display-p3 0.9843 0.8510 0.4941);fill-opacity:1;stroke:#65666D;stroke:color(display-p3 0.3952 0.3994 0.4292);stroke-opacity:1;" stroke-miterlimit="10"/>
<path d="M290.064 186.349L288.816 198.523L290.945 198.741L292.192 186.567L290.064 186.349Z" fill="#8F8F92" stroke="#65666D" style="fill:#8F8F92;fill:color(display-p3 0.5613 0.5625 0.5708);fill-opacity:1;stroke:#65666D;stroke:color(display-p3 0.3952 0.3994 0.4292);stroke-opacity:1;" stroke-linecap="round" stroke-linejoin="round"/>
<path d="M289.599 190.973L289.012 196.703L291.14 196.921L291.727 191.191L289.599 190.973Z" fill="#FBD97E" stroke="#65666D" style="fill:#FBD97E;fill:color(display-p3 0.9843 0.8510 0.4941);fill-opacity:1;stroke:#65666D;stroke:color(display-p3 0.3952 0.3994 0.4292);stroke-opacity:1;" stroke-miterlimit="10"/>
<path d="M285.337 185.114L284.09 197.289L286.218 197.507L287.465 185.332L285.337 185.114Z" fill="#8F8F92" stroke="#65666D" style="fill:#8F8F92;fill:color(display-p3 0.5613 0.5625 0.5708);fill-opacity:1;stroke:#65666D;stroke:color(display-p3 0.3952 0.3994 0.4292);stroke-opacity:1;" stroke-linecap="round" stroke-linejoin="round"/>
<path d="M285.169 187.02L284.582 192.75L286.71 192.968L287.297 187.238L285.169 187.02Z" fill="#FBD97E" stroke="#65666D" style="fill:#FBD97E;fill:color(display-p3 0.9843 0.8510 0.4941);fill-opacity:1;stroke:#65666D;stroke:color(display-p3 0.3952 0.3994 0.4292);stroke-opacity:1;" stroke-miterlimit="10"/>
<path d="M279.759 192.302L278.512 204.477L280.64 204.695L281.887 192.52L279.759 192.302Z" fill="#8F8F92" stroke="#65666D" style="fill:#8F8F92;fill:color(display-p3 0.5613 0.5625 0.5708);fill-opacity:1;stroke:#65666D;stroke:color(display-p3 0.3952 0.3994 0.4292);stroke-opacity:1;" stroke-linecap="round" stroke-linejoin="round"/>
<path d="M279.614 193.716L279.027 199.445L281.156 199.663L281.743 193.934L279.614 193.716Z" fill="#FBD97E" stroke="#65666D" style="fill:#FBD97E;fill:color(display-p3 0.9843 0.8510 0.4941);fill-opacity:1;stroke:#65666D;stroke:color(display-p3 0.3952 0.3994 0.4292);stroke-opacity:1;" stroke-miterlimit="10"/>
<path d="M275.517 186.458L274.27 198.633L276.398 198.851L277.645 186.676L275.517 186.458Z" fill="#8F8F92" stroke="#65666D" style="fill:#8F8F92;fill:color(display-p3 0.5613 0.5625 0.5708);fill-opacity:1;stroke:#65666D;stroke:color(display-p3 0.3952 0.3994 0.4292);stroke-opacity:1;" stroke-linecap="round" stroke-linejoin="round"/>
<path d="M275.091 190.606L274.504 196.336L276.632 196.554L277.219 190.824L275.091 190.606Z" fill="#FBD97E" stroke="#65666D" style="fill:#FBD97E;fill:color(display-p3 0.9843 0.8510 0.4941);fill-opacity:1;stroke:#65666D;stroke:color(display-p3 0.3952 0.3994 0.4292);stroke-opacity:1;" stroke-miterlimit="10"/>
<path d="M270.392 189.107L269.145 201.281L271.273 201.499L272.52 189.325L270.392 189.107Z" fill="#8F8F92" stroke="#65666D" style="fill:#8F8F92;fill:color(display-p3 0.5613 0.5625 0.5708);fill-opacity:1;stroke:#65666D;stroke:color(display-p3 0.3952 0.3994 0.4292);stroke-opacity:1;" stroke-linecap="round" stroke-linejoin="round"/>
<path d="M269.935 193.762L269.348 199.492L271.476 199.71L272.063 193.98L269.935 193.762Z" fill="#FBD97E" stroke="#65666D" style="fill:#FBD97E;fill:color(display-p3 0.9843 0.8510 0.4941);fill-opacity:1;stroke:#65666D;stroke:color(display-p3 0.3952 0.3994 0.4292);stroke-opacity:1;" stroke-miterlimit="10"/>
<path d="M265.033 194.075L263.785 206.25L265.913 206.468L267.161 194.293L265.033 194.075Z" fill="#8F8F92" stroke="#65666D" style="fill:#8F8F92;fill:color(display-p3 0.5613 0.5625 0.5708);fill-opacity:1;stroke:#65666D;stroke:color(display-p3 0.3952 0.3994 0.4292);stroke-opacity:1;" stroke-linecap="round" stroke-linejoin="round"/>
<path d="M264.388 200.559L263.801 206.289L265.929 206.507L266.516 200.777L264.388 200.559Z" fill="#FBD97E" stroke="#65666D" style="fill:#FBD97E;fill:color(display-p3 0.9843 0.8510 0.4941);fill-opacity:1;stroke:#65666D;stroke:color(display-p3 0.3952 0.3994 0.4292);stroke-opacity:1;" stroke-miterlimit="10"/>
<path d="M261.048 185.911L259.801 198.086L261.929 198.304L263.176 186.129L261.048 185.911Z" fill="#8F8F92" stroke="#65666D" style="fill:#8F8F92;fill:color(display-p3 0.5613 0.5625 0.5708);fill-opacity:1;stroke:#65666D;stroke:color(display-p3 0.3952 0.3994 0.4292);stroke-opacity:1;" stroke-linecap="round" stroke-linejoin="round"/>
<path d="M260.528 190.989L259.941 196.719L262.07 196.937L262.657 191.207L260.528 190.989Z" fill="#FBD97E" stroke="#65666D" style="fill:#FBD97E;fill:color(display-p3 0.9843 0.8510 0.4941);fill-opacity:1;stroke:#65666D;stroke:color(display-p3 0.3952 0.3994 0.4292);stroke-opacity:1;" stroke-miterlimit="10"/>
<path d="M256.783 180.036L255.535 192.211L257.663 192.429L258.911 180.254L256.783 180.036Z" fill="#8F8F92" stroke="#65666D" style="fill:#8F8F92;fill:color(display-p3 0.5613 0.5625 0.5708);fill-opacity:1;stroke:#65666D;stroke:color(display-p3 0.3952 0.3994 0.4292);stroke-opacity:1;" stroke-linecap="round" stroke-linejoin="round"/>
<path d="M256.278 185.145L255.691 190.875L257.82 191.093L258.407 185.363L256.278 185.145Z" fill="#FBD97E" stroke="#65666D" style="fill:#FBD97E;fill:color(display-p3 0.9843 0.8510 0.4941);fill-opacity:1;stroke:#65666D;stroke:color(display-p3 0.3952 0.3994 0.4292);stroke-opacity:1;" stroke-miterlimit="10"/>
<path d="M251.345 186.028L250.098 198.203L252.226 198.421L253.473 186.246L251.345 186.028Z" fill="#8F8F92" stroke="#65666D" style="fill:#8F8F92;fill:color(display-p3 0.5613 0.5625 0.5708);fill-opacity:1;stroke:#65666D;stroke:color(display-p3 0.3952 0.3994 0.4292);stroke-opacity:1;" stroke-linecap="round" stroke-linejoin="round"/>
<path d="M251.153 187.848L250.566 193.578L252.695 193.796L253.282 188.066L251.153 187.848Z" fill="#FBD97E" stroke="#65666D" style="fill:#FBD97E;fill:color(display-p3 0.9843 0.8510 0.4941);fill-opacity:1;stroke:#65666D;stroke:color(display-p3 0.3952 0.3994 0.4292);stroke-opacity:1;" stroke-miterlimit="10"/>
<path d="M245.853 192.419L244.605 204.594L246.734 204.812L247.981 192.637L245.853 192.419Z" fill="#8F8F92" stroke="#65666D" style="fill:#8F8F92;fill:color(display-p3 0.5613 0.5625 0.5708);fill-opacity:1;stroke:#65666D;stroke:color(display-p3 0.3952 0.3994 0.4292);stroke-opacity:1;" stroke-linecap="round" stroke-linejoin="round"/>
<path d="M245.755 193.364L245.168 199.094L247.296 199.312L247.883 193.582L245.755 193.364Z" fill="#FBD97E" stroke="#65666D" style="fill:#FBD97E;fill:color(display-p3 0.9843 0.8510 0.4941);fill-opacity:1;stroke:#65666D;stroke:color(display-p3 0.3952 0.3994 0.4292);stroke-opacity:1;" stroke-miterlimit="10"/>
<path d="M241.759 185.052L240.512 197.227L242.64 197.445L243.887 185.27L241.759 185.052Z" fill="#8F8F92" stroke="#65666D" style="fill:#8F8F92;fill:color(display-p3 0.5613 0.5625 0.5708);fill-opacity:1;stroke:#65666D;stroke:color(display-p3 0.3952 0.3994 0.4292);stroke-opacity:1;" stroke-linecap="round" stroke-linejoin="round"/>
<path d="M241.286 189.622L240.699 195.352L242.827 195.57L243.414 189.84L241.286 189.622Z" fill="#FBD97E" stroke="#65666D" style="fill:#FBD97E;fill:color(display-p3 0.9843 0.8510 0.4941);fill-opacity:1;stroke:#65666D;stroke:color(display-p3 0.3952 0.3994 0.4292);stroke-opacity:1;" stroke-miterlimit="10"/>
<path d="M237.158 182.489L235.91 194.664L238.038 194.882L239.286 182.707L237.158 182.489Z" fill="#8F8F92" stroke="#65666D" style="fill:#8F8F92;fill:color(display-p3 0.5613 0.5625 0.5708);fill-opacity:1;stroke:#65666D;stroke:color(display-p3 0.3952 0.3994 0.4292);stroke-opacity:1;" stroke-linecap="round" stroke-linejoin="round"/>
<path d="M237.021 183.942L236.434 189.672L238.562 189.89L239.149 184.16L237.021 183.942Z" fill="#FBD97E" stroke="#65666D" style="fill:#FBD97E;fill:color(display-p3 0.9843 0.8510 0.4941);fill-opacity:1;stroke:#65666D;stroke:color(display-p3 0.3952 0.3994 0.4292);stroke-opacity:1;" stroke-miterlimit="10"/>
<path d="M231.978 185.794L230.73 197.969L232.859 198.187L234.106 186.012L231.978 185.794Z" fill="#8F8F92" stroke="#65666D" style="fill:#8F8F92;fill:color(display-p3 0.5613 0.5625 0.5708);fill-opacity:1;stroke:#65666D;stroke:color(display-p3 0.3952 0.3994 0.4292);stroke-opacity:1;" stroke-linecap="round" stroke-linejoin="round"/>
<path d="M231.341 192.286L230.754 198.016L232.882 198.234L233.469 192.504L231.341 192.286Z" fill="#FBD97E" stroke="#65666D" style="fill:#FBD97E;fill:color(display-p3 0.9843 0.8510 0.4941);fill-opacity:1;stroke:#65666D;stroke:color(display-p3 0.3952 0.3994 0.4292);stroke-opacity:1;" stroke-miterlimit="10"/>
<path d="M227.595 181.544L226.348 193.719L228.476 193.937L229.723 181.762L227.595 181.544Z" fill="#8F8F92" stroke="#65666D" style="fill:#8F8F92;fill:color(display-p3 0.5613 0.5625 0.5708);fill-opacity:1;stroke:#65666D;stroke:color(display-p3 0.3952 0.3994 0.4292);stroke-opacity:1;" stroke-linecap="round" stroke-linejoin="round"/>
<path d="M227.013 187.036L226.426 192.766L228.554 192.984L229.141 187.254L227.013 187.036Z" fill="#FBD97E" stroke="#65666D" style="fill:#FBD97E;fill:color(display-p3 0.9843 0.8510 0.4941);fill-opacity:1;stroke:#65666D;stroke:color(display-p3 0.3952 0.3994 0.4292);stroke-opacity:1;" stroke-miterlimit="10"/>
<path d="M222.634 182.7L221.387 194.875L223.515 195.093L224.762 182.918L222.634 182.7Z" fill="#8F8F92" stroke="#65666D" style="fill:#8F8F92;fill:color(display-p3 0.5613 0.5625 0.5708);fill-opacity:1;stroke:#65666D;stroke:color(display-p3 0.3952 0.3994 0.4292);stroke-opacity:1;" stroke-linecap="round" stroke-linejoin="round"/>
<path d="M222.021 188.692L221.434 194.422L223.562 194.64L224.149 188.91L222.021 188.692Z" fill="#FBD97E" stroke="#65666D" style="fill:#FBD97E;fill:color(display-p3 0.9843 0.8510 0.4941);fill-opacity:1;stroke:#65666D;stroke:color(display-p3 0.3952 0.3994 0.4292);stroke-opacity:1;" stroke-miterlimit="10"/>
<path d="M217.993 180.638L216.746 192.812L218.874 193.031L220.122 180.856L217.993 180.638Z" fill="#8F8F92" stroke="#65666D" style="fill:#8F8F92;fill:color(display-p3 0.5613 0.5625 0.5708);fill-opacity:1;stroke:#65666D;stroke:color(display-p3 0.3952 0.3994 0.4292);stroke-opacity:1;" stroke-linecap="round" stroke-linejoin="round"/>
<path d="M217.943 181.13L217.355 186.859L219.484 187.077L220.071 181.348L217.943 181.13Z" fill="#FBD97E" stroke="#65666D" style="fill:#FBD97E;fill:color(display-p3 0.9843 0.8510 0.4941);fill-opacity:1;stroke:#65666D;stroke:color(display-p3 0.3952 0.3994 0.4292);stroke-opacity:1;" stroke-miterlimit="10"/>
<path d="M325.511 219.17L228.296 209.209C227.733 209.148 227.231 209.564 227.17 210.118C227.109 210.681 227.525 211.184 228.079 211.244L325.294 221.205C325.857 221.266 326.359 220.85 326.42 220.295C326.481 219.733 326.065 219.23 325.511 219.17Z" fill="#65666D" style="fill:#65666D;fill:color(display-p3 0.3952 0.3994 0.4292);fill-opacity:1;"/>
<path d="M324.764 226.484L211.726 214.904C211.163 214.844 210.66 215.259 210.6 215.814C210.539 216.377 210.955 216.879 211.509 216.94L324.548 228.52C325.111 228.581 325.613 228.165 325.674 227.61C325.734 227.047 325.327 226.545 324.764 226.484Z" fill="#65666D" style="fill:#65666D;fill:color(display-p3 0.3952 0.3994 0.4292);fill-opacity:1;"/>
<path d="M276.533 228.946L210.976 222.225C210.413 222.164 209.91 222.58 209.85 223.134C209.789 223.697 210.205 224.199 210.759 224.26L276.317 230.981C276.88 231.042 277.382 230.626 277.443 230.072C277.503 229.509 277.087 229.006 276.533 228.946Z" fill="#65666D" style="fill:#65666D;fill:color(display-p3 0.3952 0.3994 0.4292);fill-opacity:1;"/>
<path d="M353.023 368.229L291.528 378.692C291.528 378.692 280.823 321.831 274.439 312.875C268.056 303.91 269.225 300.229 266.124 294.192C264.253 290.546 254.873 283.747 247.511 277.034H247.502C246.862 276.454 246.238 275.874 245.64 275.293C245.38 275.06 245.138 274.808 244.895 274.575C243.917 273.604 243.007 272.66 242.202 271.734C241.907 271.404 241.63 271.075 241.37 270.746C239.837 268.849 238.755 267.074 238.391 265.471C238.365 265.385 238.347 265.298 238.339 265.203C238.313 265.09 238.295 264.986 238.287 264.883C238.122 263.54 237.949 262.007 237.776 260.344C237.741 260.015 237.707 259.668 237.663 259.322C237.646 259.183 237.629 259.053 237.611 258.906C237.464 257.52 237.299 256.048 237.109 254.532C236.918 252.947 236.71 251.302 236.468 249.647C236.39 249.076 236.312 248.504 236.217 247.924C236.217 247.915 236.217 247.906 236.208 247.906C236.113 247.265 236.009 246.624 235.905 245.975C235.81 245.421 235.714 244.866 235.619 244.312C235.602 244.217 235.576 244.13 235.567 244.052C235.446 243.402 235.325 242.77 235.203 242.129C235.177 242.06 235.169 241.991 235.16 241.913C235.039 241.35 234.926 240.795 234.796 240.232C234.528 238.977 234.225 237.747 233.896 236.551C233.246 234.17 232.484 231.944 231.6 229.969C227.166 220.069 232.934 223.646 229.461 198.173C229.461 198.173 232.016 192.266 239.3 196.986C239.863 197.35 240.4 197.749 240.929 198.173H240.937C242.401 199.351 243.7 200.746 244.809 202.313C246.255 204.349 247.381 206.678 248.152 209.208C249.304 212.975 249.676 217.193 249.139 221.593C249.139 221.593 254.613 240.354 257.498 244.624C260.39 248.894 272.308 224.365 271.538 221.507C271.382 220.935 271.165 219.541 270.923 217.626C270.871 217.202 270.819 216.752 270.758 216.275C270.706 215.799 270.645 215.305 270.594 214.794C270.559 214.552 270.533 214.292 270.498 214.041C270.49 213.937 270.481 213.833 270.464 213.737C270.36 212.759 270.238 211.719 270.126 210.645C270.1 210.342 270.065 210.056 270.031 209.762C269.979 209.251 269.927 208.723 269.875 208.203C269.857 208.125 269.857 208.038 269.849 207.943C269.814 207.649 269.779 207.345 269.753 207.034C269.684 206.427 269.623 205.812 269.563 205.197C269.502 204.669 269.459 204.141 269.407 203.612C269.303 202.616 269.208 201.62 269.112 200.659C269.043 199.94 268.974 199.23 268.913 198.537C268.896 198.381 268.879 198.225 268.87 198.078C268.506 194.267 268.22 191.131 268.116 189.798C268.116 189.798 259.446 176.962 258.554 170.916C257.662 164.862 257.74 158.504 261.369 155.915C269.961 149.8 267.449 159.656 271.295 163.736C275.141 167.833 281.039 174.502 284.382 176.589C287.466 178.547 290.22 186.151 290.61 187.26C290.168 185.597 285.759 169.244 285.664 165.953C285.552 162.48 282.901 144.161 287.405 137.587C291.9 131.022 297.894 136.115 298.448 137.414C299.003 138.713 299.167 156.46 300.752 161.406C302.346 166.343 308.972 186.931 308.972 186.931C308.972 186.931 309.249 166.906 310.747 157.941C312.237 148.985 316.135 141.97 319.946 141.571C323.757 141.173 327.282 145.374 327.282 145.374C327.282 145.374 325.775 159.665 326.208 162.965C326.632 166.256 325.584 178.183 327.394 184.592C327.394 184.592 327.187 167.521 329.837 165.338C332.496 163.155 334.765 162.107 336.255 163.58C337.736 165.052 338.065 175.16 339.581 181.24C341.105 187.329 340.906 195.583 341.902 205.067C342.898 214.552 346.822 227.717 346.042 235.244C345.263 242.753 342.864 261.435 340.932 272.392C339.001 283.357 334.072 298.358 334.072 298.358C334.072 298.358 336.316 306.37 335.882 313.516C335.441 320.661 353.023 368.229 353.023 368.229Z" fill="#F3F0F0" style="fill:#F3F0F0;fill:color(display-p3 0.9529 0.9412 0.9412);fill-opacity:1;"/>
<path opacity="0.4" d="M329.842 165.336H329.834C329.834 165.336 329.816 165.362 329.808 165.37C329.712 165.44 329.478 165.621 329.141 165.907C329.357 165.509 329.582 165.128 329.825 164.781L329.842 165.344V165.336Z" fill="#FBD97E" style="fill:#FBD97E;fill:color(display-p3 0.9843 0.8510 0.4941);fill-opacity:1;"/>
<path d="M291.513 378.69C291.513 378.69 280.816 321.829 274.424 312.873C268.041 303.917 269.21 300.227 266.11 294.19C263.009 288.153 239.32 273.464 238.272 264.88C237.224 256.306 236.02 239.867 231.586 229.967C227.151 220.058 232.919 223.644 229.438 198.171C229.438 198.171 232.01 192.273 239.285 196.984C246.561 201.696 250.398 211.146 249.125 221.6C249.125 221.6 254.599 240.352 257.483 244.622C260.376 248.9 272.285 224.363 271.514 221.496C270.743 218.629 268.457 194.239 268.102 189.796C268.102 189.796 259.432 176.959 258.54 170.914C257.647 164.868 257.725 158.502 261.354 155.921C269.946 149.806 267.435 159.663 271.28 163.751C275.126 167.839 281.024 174.508 284.368 176.604C287.711 178.7 290.638 187.405 290.638 187.405C290.638 187.405 285.753 169.441 285.649 165.968C285.546 162.495 282.886 144.176 287.39 137.611C291.894 131.046 297.888 136.139 298.434 137.429C298.988 138.728 299.152 156.475 300.746 161.412C302.331 166.358 308.957 186.946 308.957 186.946C308.957 186.946 309.243 166.921 310.733 157.957C312.231 148.992 316.129 141.985 319.931 141.587C323.742 141.188 327.267 145.389 327.267 145.389C327.267 145.389 325.76 159.68 326.184 162.98C326.609 166.28 325.569 178.198 327.38 184.616C327.38 184.616 327.163 167.545 329.822 165.353C332.481 163.171 334.75 162.123 336.232 163.595C337.713 165.067 338.042 175.175 339.566 181.255C341.091 187.336 340.891 195.599 341.887 205.083C342.883 214.567 346.807 227.732 346.027 235.25C345.248 242.768 342.84 261.442 340.909 272.407C338.977 283.372 334.058 298.374 334.058 298.374C334.058 298.374 336.301 306.385 335.859 313.531C335.417 320.677 353 368.245 353 368.245" stroke="#65666D" style="stroke:#65666D;stroke:color(display-p3 0.3952 0.3994 0.4292);stroke-opacity:1;" stroke-linecap="round" stroke-linejoin="round"/>
<path d="M308.945 186.93C310.738 191.139 315.164 208.912 316.749 211.372C318.334 213.832 320.127 214.577 320.127 214.577" stroke="#65666D" style="stroke:#65666D;stroke:color(display-p3 0.3952 0.3994 0.4292);stroke-opacity:1;" stroke-linecap="round" stroke-linejoin="round"/>
<path d="M327.389 184.594C327.389 184.594 327.008 188.232 328.974 199.846C330.94 211.461 331.902 216.398 333.002 218.988" stroke="#65666D" style="stroke:#65666D;stroke:color(display-p3 0.3952 0.3994 0.4292);stroke-opacity:1;" stroke-linecap="round" stroke-linejoin="round"/>
<path d="M290.633 187.391C293.032 194.467 294.392 205.744 295.76 209.139C297.129 212.534 298.35 213.236 298.35 213.236" stroke="#65666D" style="stroke:#65666D;stroke:color(display-p3 0.3952 0.3994 0.4292);stroke-opacity:1;" stroke-linecap="round" stroke-linejoin="round"/>
<path d="M294.523 204.367C294.523 204.367 297.044 206.238 297.849 208.568" stroke="#65666D" style="stroke:#65666D;stroke:color(display-p3 0.3952 0.3994 0.4292);stroke-opacity:1;" stroke-linecap="round" stroke-linejoin="round"/>
<path d="M257.484 244.625C257.484 244.625 258.801 254.005 264.682 253.26" stroke="#65666D" style="stroke:#65666D;stroke:color(display-p3 0.3952 0.3994 0.4292);stroke-opacity:1;" stroke-linecap="round" stroke-linejoin="round"/>
<path d="M271.517 221.492C271.517 221.492 273.041 232.639 270.547 237.377" stroke="#65666D" style="stroke:#65666D;stroke:color(display-p3 0.3952 0.3994 0.4292);stroke-opacity:1;" stroke-linecap="round" stroke-linejoin="round"/>
<path d="M318.487 221.594C318.487 221.594 322.436 224.01 319.795 231.104C317.153 238.189 312.562 266.814 312.562 266.814" stroke="#65666D" style="stroke:#65666D;stroke:color(display-p3 0.3952 0.3994 0.4292);stroke-opacity:1;" stroke-linecap="round" stroke-linejoin="round"/>
<path d="M335.689 229.086C337.343 235.495 337.491 235.66 334.806 243.533C332.112 251.406 327.781 270.686 327.781 270.686" stroke="#65666D" style="stroke:#65666D;stroke:color(display-p3 0.3952 0.3994 0.4292);stroke-opacity:1;" stroke-linecap="round" stroke-linejoin="round"/>
<path d="M334.059 298.353C334.059 298.353 331.478 293.139 333.608 288.852" stroke="#65666D" style="stroke:#65666D;stroke:color(display-p3 0.3952 0.3994 0.4292);stroke-opacity:1;" stroke-linecap="round" stroke-linejoin="round"/>
<path d="M274.422 312.867C274.422 312.867 280.953 322.04 283.793 332.303" stroke="#65666D" style="stroke:#65666D;stroke:color(display-p3 0.3952 0.3994 0.4292);stroke-opacity:1;" stroke-linecap="round" stroke-linejoin="round"/>
<path d="M322.477 152.083L324.243 150.342L325.04 150.117L324.988 150.983L323.369 153.045L322.477 152.083Z" fill="#8F8F92" stroke="#65666D" style="fill:#8F8F92;fill:color(display-p3 0.5613 0.5625 0.5708);fill-opacity:1;stroke:#65666D;stroke:color(display-p3 0.3952 0.3994 0.4292);stroke-opacity:1;" stroke-linecap="round" stroke-linejoin="round"/>
<path d="M323.919 153.057L321.052 159.579L243.793 262.588L235.184 257.106L246.868 242.451L316.262 155.405L322.386 151.516C322.386 151.516 323.694 151.853 323.927 153.057H323.919Z" fill="#FBD97E" style="fill:#FBD97E;fill:color(display-p3 0.9843 0.8510 0.4941);fill-opacity:1;"/>
<mask id="mask1_2261_3511" style="mask-type:luminance" maskUnits="userSpaceOnUse" x="235" y="151" width="89" height="112">
<path d="M323.919 153.057L321.052 159.579L243.793 262.588L235.184 257.106L246.868 242.451L316.262 155.405L322.386 151.516C322.386 151.516 323.694 151.853 323.927 153.057H323.919Z" fill="white" style="fill:white;fill-opacity:1;"/>
</mask>
<g mask="url(#mask1_2261_3511)">
<path opacity="0.3" d="M323.919 153.056L321.052 159.578L243.793 262.587L235.184 257.105L246.868 242.45C252.238 241.896 253.13 245.066 253.13 245.066L319.692 158.193C319.034 155.854 316.262 155.412 316.262 155.412L322.386 151.523C322.386 151.523 323.694 151.861 323.927 153.065L323.919 153.056Z" fill="#65666D" style="fill:#65666D;fill:color(display-p3 0.3952 0.3994 0.4292);fill-opacity:1;"/>
</g>
<path d="M323.919 153.057L321.052 159.579L243.793 262.588L235.184 257.106L246.868 242.451L316.262 155.405L322.386 151.516C322.386 151.516 323.694 151.853 323.927 153.057H323.919Z" stroke="#65666D" style="stroke:#65666D;stroke:color(display-p3 0.3952 0.3994 0.4292);stroke-opacity:1;" stroke-linecap="round" stroke-linejoin="round"/>
<path d="M268.974 232.095C268.974 232.095 260.356 249.21 252.049 261.318L246.125 262.851C246.125 262.851 232.527 276.363 224.229 283.11C224.229 283.11 222.099 281.871 220.176 279.706C220.176 279.706 231.955 257.083 244.99 242.766C244.99 242.766 246.887 243.346 249.269 245.035C250.681 246.04 252.266 247.425 253.73 249.322L268.255 231.047L268.974 232.104V232.095Z" fill="#FBD97E" style="fill:#FBD97E;fill:color(display-p3 0.9843 0.8510 0.4941);fill-opacity:1;"/>
<mask id="mask2_2261_3511" style="mask-type:luminance" maskUnits="userSpaceOnUse" x="220" y="231" width="49" height="53">
<path d="M268.974 232.095C268.974 232.095 260.356 249.21 252.049 261.318L246.125 262.851C246.125 262.851 232.527 276.363 224.229 283.11C224.229 283.11 222.099 281.871 220.176 279.706C220.176 279.706 231.955 257.083 244.99 242.766C244.99 242.766 246.887 243.346 249.269 245.035C250.681 246.04 252.266 247.425 253.73 249.322L268.255 231.047L268.974 232.104V232.095Z" fill="white" style="fill:white;fill-opacity:1;"/>
</mask>
<g mask="url(#mask2_2261_3511)">
<path opacity="0.3" d="M268.983 232.094C268.983 232.094 260.365 249.209 252.058 261.317L246.134 262.85C246.134 262.85 232.536 276.362 224.238 283.109L224.463 279.445C233.463 265.7 244.896 250.707 249.269 245.043C250.681 246.047 252.266 247.433 253.73 249.33L245.658 260.105L250.283 259.273L268.255 231.055L268.974 232.111L268.983 232.094Z" fill="#65666D" style="fill:#65666D;fill:color(display-p3 0.3952 0.3994 0.4292);fill-opacity:1;"/>
</g>
<path d="M268.974 232.095C268.974 232.095 260.356 249.21 252.049 261.318L246.125 262.851C246.125 262.851 232.527 276.363 224.229 283.11C224.229 283.11 222.099 281.871 220.176 279.706C220.176 279.706 231.955 257.083 244.99 242.766C244.99 242.766 246.887 243.346 249.269 245.035C250.681 246.04 252.266 247.425 253.73 249.322L268.255 231.047L268.974 232.104V232.095Z" stroke="#65666D" style="stroke:#65666D;stroke:color(display-p3 0.3952 0.3994 0.4292);stroke-opacity:1;" stroke-linecap="round" stroke-linejoin="round"/>
<path d="M298.355 213.236L274.224 236.639L270.37 240.38C273.012 233.59 271.73 223.101 271.565 221.819V221.802C271.557 221.732 271.548 221.689 271.548 221.689C271.548 221.629 271.548 221.551 271.531 221.507C271.383 220.944 271.167 219.541 270.924 217.627C270.872 217.203 270.82 216.752 270.76 216.276C270.699 215.799 270.647 215.306 270.587 214.795C270.552 214.552 270.526 214.292 270.5 214.05C270.491 213.946 270.483 213.842 270.465 213.747C270.361 212.768 270.24 211.729 270.127 210.646C270.101 210.352 270.067 210.057 270.032 209.763C269.98 209.252 269.928 208.732 269.876 208.204C269.868 208.126 269.859 208.039 269.85 207.944C269.824 207.649 269.781 207.337 269.755 207.026C269.686 206.419 269.634 205.804 269.564 205.189C269.513 204.661 269.461 204.133 269.409 203.604C269.313 202.608 269.209 201.612 269.123 200.651C269.045 199.932 268.976 199.222 268.915 198.537C268.898 198.382 268.889 198.226 268.872 198.07C268.508 194.259 268.222 191.132 268.118 189.79C268.118 189.79 259.457 176.953 258.556 170.908C257.673 164.862 257.742 158.496 261.371 155.915C269.963 149.792 267.442 159.648 271.288 163.736C275.134 167.833 281.041 174.494 284.375 176.59C287.71 178.694 290.646 187.39 290.646 187.39C293.045 194.467 294.405 205.735 295.774 209.139C297.142 212.534 298.363 213.236 298.363 213.236H298.355Z" fill="#F3F0F0" style="fill:#F3F0F0;fill:color(display-p3 0.9529 0.9412 0.9412);fill-opacity:1;"/>
<path d="M294.539 204.367C294.539 204.367 297.06 206.238 297.865 208.568" stroke="#65666D" style="stroke:#65666D;stroke:color(display-p3 0.3952 0.3994 0.4292);stroke-opacity:1;" stroke-linecap="round" stroke-linejoin="round"/>
<path d="M298.364 213.24C298.364 213.24 297.143 212.538 295.774 209.143C294.406 205.748 293.046 194.471 290.647 187.394C290.647 187.394 287.711 178.69 284.376 176.594C281.033 174.498 275.143 167.828 271.289 163.74C267.435 159.652 269.955 149.796 261.363 155.911C257.734 158.492 257.665 164.858 258.548 170.903C259.44 176.949 268.11 189.794 268.11 189.794C268.465 194.245 270.752 218.636 271.523 221.494" stroke="#65666D" style="stroke:#65666D;stroke:color(display-p3 0.3952 0.3994 0.4292);stroke-opacity:1;" stroke-linecap="round" stroke-linejoin="round"/>
<path d="M271.517 221.5C271.517 221.5 273.041 232.647 270.547 237.385" stroke="#65666D" style="stroke:#65666D;stroke:color(display-p3 0.3952 0.3994 0.4292);stroke-opacity:1;" stroke-linecap="round" stroke-linejoin="round"/>
<path d="M234.15 215.678L117.603 264.728L105.59 269.786L82.9492 215.99L30.375 91.0682L158.935 36.9609L234.15 215.678Z" fill="#F3F0F0" style="fill:#F3F0F0;fill:color(display-p3 0.9529 0.9412 0.9412);fill-opacity:1;"/>
<mask id="mask3_2261_3511" style="mask-type:luminance" maskUnits="userSpaceOnUse" x="30" y="36" width="205" height="234">
<path d="M234.134 215.678L117.587 264.728L105.574 269.786L82.9335 215.99L30.3594 91.0682L158.919 36.9609L234.134 215.678Z" fill="white" style="fill:white;fill-opacity:1;"/>
</mask>
<g mask="url(#mask3_2261_3511)">
<path d="M125.715 60.2089L70.2221 83.5684C69.1827 84.0102 68.689 85.2054 69.1307 86.2448C69.5725 87.2841 70.7677 87.7778 71.8071 87.3361L127.3 63.9765C128.339 63.5348 128.833 62.3396 128.391 61.3002C127.95 60.2608 126.754 59.7671 125.706 60.2089H125.715Z" fill="#65666D" style="fill:#65666D;fill:color(display-p3 0.3952 0.3994 0.4292);fill-opacity:1;"/>
</g>
<mask id="mask4_2261_3511" style="mask-type:luminance" maskUnits="userSpaceOnUse" x="30" y="36" width="205" height="234">
<path d="M234.134 215.678L117.587 264.728L105.574 269.786L82.9335 215.99L30.3594 91.0682L158.919 36.9609L234.134 215.678Z" fill="white" style="fill:white;fill-opacity:1;"/>
</mask>
<g mask="url(#mask4_2261_3511)">
<path d="M115.102 73.7979L87.3514 85.4734C86.8317 85.6899 86.5892 86.2962 86.8057 86.8159C87.0223 87.3356 87.6286 87.5781 88.1482 87.3615L115.899 75.6861C116.419 75.4696 116.661 74.8633 116.445 74.3436C116.228 73.8239 115.622 73.5814 115.102 73.7979Z" fill="#65666D" style="fill:#65666D;fill:color(display-p3 0.3952 0.3994 0.4292);fill-opacity:1;"/>
</g>
<mask id="mask5_2261_3511" style="mask-type:luminance" maskUnits="userSpaceOnUse" x="30" y="36" width="205" height="234">
<path d="M234.134 215.678L117.587 264.728L105.574 269.786L82.9335 215.99L30.3594 91.0682L158.919 36.9609L234.134 215.678Z" fill="white" style="fill:white;fill-opacity:1;"/>
</mask>
<g mask="url(#mask5_2261_3511)">
<path d="M160.752 144.938C160.752 144.938 161.922 154.136 158.5 155.574C155.374 156.89 151.259 151.953 147.665 153.469C144.071 154.985 146.903 168.011 143.438 169.475C139.974 170.939 135.799 165.577 132.811 166.842C129.823 168.098 131.624 174.802 128.55 176.101C126.003 177.175 122.365 171.84 119.455 170.67C118.84 170.419 118.26 170.358 117.723 170.584C114.674 171.866 116.19 185.871 113.557 186.98C112.682 187.352 111.928 187.413 111.218 187.361C110.179 187.291 109.261 186.98 108.247 187.083C107.892 187.118 107.52 187.205 107.139 187.369C104.895 188.313 105.199 195.684 103.146 196.55C101.093 197.416 99.0664 196.342 96.8751 197.269C94.6838 198.196 94.7184 202.024 91.4531 203.401L92.8389 206.684L172.618 173.113" fill="#D7D7D7" style="fill:#D7D7D7;fill:color(display-p3 0.8417 0.8417 0.8417);fill-opacity:1;"/>
<path d="M160.752 144.938C160.752 144.938 161.922 154.136 158.5 155.574C155.374 156.89 151.259 151.953 147.665 153.469C144.071 154.985 146.903 168.011 143.438 169.475C139.974 170.939 135.799 165.577 132.811 166.842C129.823 168.098 131.624 174.802 128.55 176.101C126.003 177.175 122.365 171.84 119.455 170.67C118.84 170.419 118.26 170.358 117.723 170.584C114.674 171.866 116.19 185.871 113.557 186.98C112.682 187.352 111.928 187.413 111.218 187.361C110.179 187.291 109.261 186.98 108.247 187.083C107.892 187.118 107.52 187.205 107.139 187.369C104.895 188.313 105.199 195.684 103.146 196.55C101.093 197.416 99.0664 196.342 96.8751 197.269C94.6838 198.196 94.7184 202.024 91.4531 203.401L92.8389 206.684L172.618 173.113" stroke="#65666D" style="stroke:#65666D;stroke:color(display-p3 0.3952 0.3994 0.4292);stroke-opacity:1;" stroke-miterlimit="10"/>
<path d="M76.6641 168.289L92.8174 206.667L176.347 171.511" stroke="#65666D" style="stroke:#65666D;stroke:color(display-p3 0.3952 0.3994 0.4292);stroke-opacity:1;" stroke-linecap="round" stroke-linejoin="round"/>
<path d="M167.165 160.192C167.165 160.192 166.775 159.707 166.178 159.135C165.147 158.139 163.51 156.875 162.263 157.394C161.05 157.905 160.938 159.932 160.964 162.089C160.99 164.722 161.223 167.545 159.898 168.108C158.772 168.585 157.768 167.874 156.728 167.095C155.542 166.211 154.329 165.241 152.865 165.856C150.405 166.896 151.15 170.1 150.284 172.846C149.842 174.249 148.976 175.531 147.045 176.345C144.914 177.237 142.757 176.363 140.731 174.977C137.301 172.638 134.217 168.845 132.225 169.685C129.047 171.019 132.554 179.619 129.133 181.057C127.228 181.862 123.278 175.843 119.441 170.672C116.41 166.575 113.448 163.015 111.62 163.778C107.497 165.51 114.288 186.063 111.291 187.319C111.265 187.328 111.23 187.345 111.204 187.354C109.957 187.847 109.039 187.536 108.233 187.077C107.151 186.462 106.276 185.596 105.081 186.098C102.872 187.025 104.171 195.088 101.737 196.11C99.3037 197.132 97.8486 195.651 95.1116 196.803C92.799 197.773 91.4219 203.386 91.4219 203.386L92.8077 206.668L172.587 173.097" fill="#8F8F92" style="fill:#8F8F92;fill:color(display-p3 0.5613 0.5625 0.5708);fill-opacity:1;"/>
<path d="M167.165 160.192C167.165 160.192 166.775 159.707 166.178 159.135C165.147 158.139 163.51 156.875 162.263 157.394C161.05 157.905 160.938 159.932 160.964 162.089C160.99 164.722 161.223 167.545 159.898 168.108C158.772 168.585 157.768 167.874 156.728 167.095C155.542 166.211 154.329 165.241 152.865 165.856C150.405 166.896 151.15 170.1 150.284 172.846C149.842 174.249 148.976 175.531 147.045 176.345C144.914 177.237 142.757 176.363 140.731 174.977C137.301 172.638 134.217 168.845 132.225 169.685C129.047 171.019 132.554 179.619 129.133 181.057C127.228 181.862 123.278 175.843 119.441 170.672C116.41 166.575 113.448 163.015 111.62 163.778C107.497 165.51 114.288 186.063 111.291 187.319C111.265 187.328 111.23 187.345 111.204 187.354C109.957 187.847 109.039 187.536 108.233 187.077C107.151 186.462 106.276 185.596 105.081 186.098C102.872 187.025 104.171 195.088 101.737 196.11C99.3037 197.132 97.8486 195.651 95.1116 196.803C92.799 197.773 91.4219 203.386 91.4219 203.386L92.8077 206.668L172.587 173.097" stroke="#65666D" style="stroke:#65666D;stroke:color(display-p3 0.3952 0.3994 0.4292);stroke-opacity:1;" stroke-linecap="round" stroke-linejoin="round"/>
<path d="M150.29 187.595L122.539 199.27C122.019 199.487 121.777 200.093 121.993 200.613C122.21 201.132 122.816 201.375 123.336 201.158L151.087 189.483C151.606 189.266 151.849 188.66 151.632 188.14C151.416 187.621 150.809 187.378 150.29 187.595Z" fill="#65666D" style="fill:#65666D;fill:color(display-p3 0.3952 0.3994 0.4292);fill-opacity:1;"/>
<path d="M173.813 145.284L171.128 146.41C170.851 146.523 170.53 146.393 170.418 146.124L169.292 143.439C169.179 143.162 169.3 142.842 169.578 142.729L172.263 141.603C172.54 141.491 172.86 141.62 172.973 141.889L174.099 144.574C174.211 144.851 174.082 145.172 173.813 145.284Z" fill="#D7D7D7" stroke="#65666D" style="fill:#D7D7D7;fill:color(display-p3 0.8417 0.8417 0.8417);fill-opacity:1;stroke:#65666D;stroke:color(display-p3 0.3952 0.3994 0.4292);stroke-opacity:1;" stroke-miterlimit="10"/>
<path d="M186.766 137.078L175.68 141.747C175.446 141.842 175.177 141.738 175.082 141.504C174.987 141.271 175.091 141.002 175.325 140.907L186.411 136.238C186.645 136.143 186.913 136.247 187.009 136.481C187.104 136.715 187 136.983 186.766 137.078Z" fill="#65666D" style="fill:#65666D;fill:color(display-p3 0.3952 0.3994 0.4292);fill-opacity:1;"/>
<path d="M184.154 140.344L176.445 143.583C176.211 143.679 175.943 143.575 175.848 143.341C175.752 143.107 175.856 142.839 176.09 142.743L183.799 139.504C184.033 139.409 184.301 139.513 184.396 139.746C184.492 139.98 184.388 140.249 184.154 140.344Z" fill="#65666D" style="fill:#65666D;fill:color(display-p3 0.3952 0.3994 0.4292);fill-opacity:1;"/>
<path d="M177.282 153.526L174.597 154.652C174.32 154.765 173.999 154.635 173.887 154.367L172.761 151.681C172.648 151.404 172.769 151.084 173.046 150.971L175.731 149.845C176.009 149.733 176.329 149.863 176.442 150.131L177.568 152.816C177.68 153.093 177.559 153.414 177.282 153.526Z" fill="#8F8F92" stroke="#65666D" style="fill:#8F8F92;fill:color(display-p3 0.5613 0.5625 0.5708);fill-opacity:1;stroke:#65666D;stroke:color(display-p3 0.3952 0.3994 0.4292);stroke-opacity:1;" stroke-linecap="round" stroke-linejoin="round"/>
<path d="M190.219 145.321L179.133 149.989C178.899 150.084 178.63 149.98 178.535 149.747C178.44 149.513 178.544 149.244 178.778 149.149L189.864 144.48C190.098 144.385 190.367 144.489 190.462 144.723C190.557 144.957 190.453 145.225 190.219 145.321Z" fill="#65666D" style="fill:#65666D;fill:color(display-p3 0.3952 0.3994 0.4292);fill-opacity:1;"/>
<path d="M187.607 148.586L179.898 151.826C179.665 151.921 179.396 151.817 179.301 151.583C179.206 151.349 179.309 151.081 179.543 150.985L187.252 147.746C187.486 147.651 187.754 147.755 187.85 147.989C187.945 148.222 187.841 148.491 187.607 148.586Z" fill="#65666D" style="fill:#65666D;fill:color(display-p3 0.3952 0.3994 0.4292);fill-opacity:1;"/>
</g>
<mask id="mask6_2261_3511" style="mask-type:luminance" maskUnits="userSpaceOnUse" x="30" y="36" width="205" height="234">
<path d="M234.134 215.678L117.587 264.728L105.574 269.786L82.9335 215.99L30.3594 91.0682L158.919 36.9609L234.134 215.678Z" fill="white" style="fill:white;fill-opacity:1;"/>
</mask>
<g mask="url(#mask6_2261_3511)">
<path d="M204.834 179.314L114.765 217.215C114.246 217.432 114.003 218.038 114.22 218.558C114.436 219.078 115.043 219.32 115.562 219.104L205.631 181.202C206.151 180.985 206.393 180.379 206.177 179.859C205.96 179.34 205.354 179.097 204.834 179.314Z" fill="#65666D" style="fill:#65666D;fill:color(display-p3 0.3952 0.3994 0.4292);fill-opacity:1;"/>
<path d="M207.686 186.095L102.953 230.172C102.433 230.389 102.191 230.995 102.407 231.515C102.624 232.034 103.23 232.277 103.75 232.06L208.482 187.983C209.002 187.766 209.245 187.16 209.028 186.64C208.812 186.121 208.205 185.878 207.686 186.095Z" fill="#65666D" style="fill:#65666D;fill:color(display-p3 0.3952 0.3994 0.4292);fill-opacity:1;"/>
<path d="M210.537 192.876L105.805 236.953C105.285 237.17 105.042 237.776 105.259 238.296C105.475 238.816 106.082 239.058 106.601 238.842L211.334 194.764C211.854 194.548 212.096 193.941 211.88 193.422C211.663 192.902 211.057 192.66 210.537 192.876Z" fill="#65666D" style="fill:#65666D;fill:color(display-p3 0.3952 0.3994 0.4292);fill-opacity:1;"/>
<path d="M213.389 199.657L108.656 243.735C108.136 243.951 107.894 244.558 108.11 245.077C108.327 245.597 108.933 245.839 109.453 245.623L214.186 201.545C214.705 201.329 214.948 200.723 214.731 200.203C214.515 199.683 213.908 199.441 213.389 199.657Z" fill="#65666D" style="fill:#65666D;fill:color(display-p3 0.3952 0.3994 0.4292);fill-opacity:1;"/>
<path d="M172.257 224.962L111.515 250.522C110.996 250.738 110.753 251.344 110.97 251.864C111.186 252.384 111.793 252.626 112.312 252.41L173.054 226.85C173.574 226.634 173.816 226.027 173.6 225.508C173.383 224.988 172.786 224.745 172.257 224.962Z" fill="#65666D" style="fill:#65666D;fill:color(display-p3 0.3952 0.3994 0.4292);fill-opacity:1;"/>
</g>
<mask id="mask7_2261_3511" style="mask-type:luminance" maskUnits="userSpaceOnUse" x="37" y="44" width="191" height="222">
<path d="M225.212 194.479C230.14 206.187 224.643 219.673 212.935 224.6L117.587 264.728C110.953 267.521 103.31 264.407 100.518 257.772L82.9335 215.99L39.281 112.267C34.3537 100.559 39.8503 87.0737 51.5581 82.1462L137.72 45.8831C149.428 40.9555 162.914 46.4522 167.841 58.1603L225.212 194.479Z" fill="white" style="fill:white;fill-opacity:1;"/>
</mask>
<g mask="url(#mask7_2261_3511)">
<path d="M138.807 92.7344C138.807 92.7344 139.976 101.924 136.555 103.37C133.428 104.687 129.314 99.75 125.72 101.266C122.125 102.782 124.958 115.808 121.493 117.272C118.028 118.736 113.854 113.374 110.866 114.639C107.877 115.895 109.679 122.599 106.604 123.898C104.058 124.972 100.42 119.636 97.5098 118.467C96.8949 118.216 96.3146 118.155 95.7776 118.381C92.7288 119.662 94.2445 133.668 91.6115 134.776C90.7367 135.149 89.9832 135.209 89.2729 135.157C88.2336 135.088 87.3155 134.776 86.3021 134.88C85.947 134.915 85.5832 135.002 85.1935 135.166C82.9502 136.11 83.2533 143.481 81.2006 144.347C79.1479 145.213 77.1211 144.139 74.9298 145.066C72.7385 145.993 72.7731 149.821 69.5078 151.198L70.8936 154.481L150.673 120.91" fill="#D7D7D7" style="fill:#D7D7D7;fill:color(display-p3 0.8417 0.8417 0.8417);fill-opacity:1;"/>
<path d="M138.807 92.7344C138.807 92.7344 139.976 101.924 136.555 103.37C133.428 104.687 129.314 99.75 125.72 101.266C122.125 102.782 124.958 115.808 121.493 117.272C118.028 118.736 113.854 113.374 110.866 114.639C107.877 115.895 109.679 122.599 106.604 123.898C104.058 124.972 100.42 119.636 97.5098 118.467C96.8949 118.216 96.3146 118.155 95.7776 118.381C92.7288 119.662 94.2445 133.668 91.6115 134.776C90.7367 135.149 89.9832 135.209 89.2729 135.157C88.2336 135.088 87.3155 134.776 86.3021 134.88C85.947 134.915 85.5832 135.002 85.1935 135.166C82.9502 136.11 83.2533 143.481 81.2006 144.347C79.1479 145.213 77.1211 144.139 74.9298 145.066C72.7385 145.993 72.7731 149.821 69.5078 151.198L70.8936 154.481L150.673 120.91" stroke="#65666D" style="stroke:#65666D;stroke:color(display-p3 0.3952 0.3994 0.4292);stroke-opacity:1;" stroke-miterlimit="10"/>
<path d="M143.96 104.992C143.96 104.992 144.688 109.453 142.93 110.189C141.466 110.804 140.565 109.946 139.023 109.886C138.408 109.86 137.69 109.964 136.789 110.345C135.377 110.934 135.039 112.839 134.788 114.892C134.485 117.413 134.32 120.141 132.475 120.92C131.185 121.466 129.79 121.146 128.353 120.643C126.066 119.846 123.65 118.582 121.328 119.561C120.202 120.037 119.414 121.258 118.799 122.774C117.353 126.351 116.894 131.53 115.335 132.189C113.109 133.124 109.029 129.296 107.054 130.127C105.08 130.959 105.885 134.397 104.283 135.073C102.68 135.749 101.762 133.756 98.9388 134.943C96.1152 136.13 97.4924 140.304 93.5082 141.976C89.524 143.648 87.7744 140.573 83.9287 142.193C80.0745 143.812 80.776 146.731 78.065 147.874C75.354 149.018 74.2021 147.034 72.262 147.848C70.3738 148.637 69.8628 151.737 69.8281 151.937L70.8935 154.466L150.673 120.894" fill="#FBD97E" style="fill:#FBD97E;fill:color(display-p3 0.9843 0.8510 0.4941);fill-opacity:1;"/>
<path d="M143.96 104.992C143.96 104.992 144.688 109.453 142.93 110.189C141.466 110.804 140.565 109.946 139.023 109.886C138.408 109.86 137.69 109.964 136.789 110.345C135.377 110.934 135.039 112.839 134.788 114.892C134.485 117.413 134.32 120.141 132.475 120.92C131.185 121.466 129.79 121.146 128.353 120.643C126.066 119.846 123.65 118.582 121.328 119.561C120.202 120.037 119.414 121.258 118.799 122.774C117.353 126.351 116.894 131.53 115.335 132.189C113.109 133.124 109.029 129.296 107.054 130.127C105.08 130.959 105.885 134.397 104.283 135.073C102.68 135.749 101.762 133.756 98.9388 134.943C96.1152 136.13 97.4924 140.304 93.5082 141.976C89.524 143.648 87.7744 140.573 83.9287 142.193C80.0745 143.812 80.776 146.731 78.065 147.874C75.354 149.018 74.2021 147.034 72.262 147.848C70.3738 148.637 69.8628 151.737 69.8281 151.937L70.8935 154.466L150.673 120.894" stroke="#65666D" style="stroke:#65666D;stroke:color(display-p3 0.3952 0.3994 0.4292);stroke-opacity:1;" stroke-miterlimit="10"/>
<path d="M54.7188 116.086L70.8721 154.464L154.402 119.308" stroke="#65666D" style="stroke:#65666D;stroke:color(display-p3 0.3952 0.3994 0.4292);stroke-opacity:1;" stroke-linecap="round" stroke-linejoin="round"/>
<path d="M128.079 134.798L100.328 146.473C99.8083 146.69 99.5658 147.296 99.7823 147.816C99.9988 148.336 100.605 148.578 101.125 148.362L128.876 136.686C129.395 136.47 129.638 135.863 129.421 135.344C129.205 134.824 128.598 134.581 128.079 134.798Z" fill="#65666D" style="fill:#65666D;fill:color(display-p3 0.3952 0.3994 0.4292);fill-opacity:1;"/>
<path d="M150.477 89.7451L147.792 90.8711C147.515 90.9837 147.194 90.8538 147.082 90.5853L145.956 87.9003C145.843 87.6231 145.965 87.3026 146.242 87.19L148.927 86.0641C149.204 85.9515 149.524 86.0814 149.637 86.3499L150.763 89.0349C150.875 89.312 150.754 89.6325 150.477 89.7451Z" fill="#D7D7D7" stroke="#65666D" style="fill:#D7D7D7;fill:color(display-p3 0.8417 0.8417 0.8417);fill-opacity:1;stroke:#65666D;stroke:color(display-p3 0.3952 0.3994 0.4292);stroke-opacity:1;" stroke-miterlimit="10"/>
<path d="M163.422 81.555L152.336 86.2235C152.102 86.3187 151.834 86.2148 151.738 85.981C151.643 85.7471 151.747 85.4786 151.981 85.3833L163.067 80.7149C163.301 80.6196 163.57 80.7235 163.665 80.9574C163.76 81.1912 163.656 81.4597 163.422 81.555Z" fill="#65666D" style="fill:#65666D;fill:color(display-p3 0.3952 0.3994 0.4292);fill-opacity:1;"/>
<path d="M160.818 84.8128L153.109 88.0522C152.876 88.1474 152.607 88.0435 152.512 87.8096C152.416 87.5758 152.52 87.3073 152.754 87.212L160.463 83.9727C160.697 83.8774 160.965 83.9813 161.06 84.2152C161.156 84.4491 161.052 84.7176 160.818 84.8128Z" fill="#65666D" style="fill:#65666D;fill:color(display-p3 0.3952 0.3994 0.4292);fill-opacity:1;"/>
<path d="M153.929 97.9951L151.244 99.1211C150.967 99.2337 150.646 99.1038 150.534 98.8353L149.408 96.1502C149.295 95.8731 149.425 95.5526 149.694 95.44L152.379 94.3141C152.656 94.2015 152.976 94.3314 153.089 94.5999L154.215 97.2849C154.327 97.562 154.198 97.8825 153.929 97.9951Z" fill="#FBD97E" stroke="#65666D" style="fill:#FBD97E;fill:color(display-p3 0.9843 0.8510 0.4941);fill-opacity:1;stroke:#65666D;stroke:color(display-p3 0.3952 0.3994 0.4292);stroke-opacity:1;" stroke-miterlimit="10"/>
<path d="M166.883 89.7894L155.797 94.4578C155.563 94.5531 155.295 94.4492 155.199 94.2153C155.104 93.9815 155.208 93.713 155.442 93.6177L166.528 88.9492C166.762 88.854 167.031 88.9579 167.126 89.1918C167.221 89.4256 167.117 89.6941 166.883 89.7894Z" fill="#65666D" style="fill:#65666D;fill:color(display-p3 0.3952 0.3994 0.4292);fill-opacity:1;"/>
<path d="M164.271 93.055L156.563 96.2944C156.329 96.3896 156.06 96.2857 155.965 96.0518C155.87 95.818 155.974 95.5495 156.207 95.4542L163.916 92.2149C164.15 92.1196 164.418 92.2235 164.514 92.4574C164.609 92.6912 164.505 92.9597 164.271 93.055Z" fill="#65666D" style="fill:#65666D;fill:color(display-p3 0.3952 0.3994 0.4292);fill-opacity:1;"/>
</g>
<path d="M234.15 215.678L117.603 264.728L105.59 269.786L82.9492 215.99L30.375 91.0682L158.935 36.9609L234.15 215.678Z" stroke="#65666D" style="stroke:#65666D;stroke:color(display-p3 0.3952 0.3994 0.4292);stroke-opacity:1;" stroke-linecap="round" stroke-linejoin="round"/>
<path d="M110.364 224.642C112.382 217.73 120.289 195.531 119.25 185.718C119.155 184.834 118.964 184.046 118.696 183.327C115.924 176 104.595 176.71 100.239 182.782C95.4575 189.459 91.5599 201.481 91.2221 208.791C91.0402 212.836 89.3079 216.543 87.7922 219.064C87.7922 219.081 87.7922 219.09 87.7749 219.098C86.5536 221.125 85.4796 222.355 85.4796 222.355L59.6256 161.016C59.6256 161.016 55.4509 164.394 52.8611 168.568C51.8131 170.24 51.0336 172.059 50.8777 173.826C50.3494 179.871 43.5069 204.686 40.6573 215.166C40.6054 215.391 40.5361 215.599 40.4841 215.807C37.7471 225.872 44.9707 263.254 42.9093 274.115C40.8392 284.968 39.5574 284.734 39.2629 292.442C39.0463 298.072 30.9913 315.187 21.9662 332.761C16.7954 342.834 11.2955 353.046 6.76562 361.317L72.8688 358.572C74.0121 350.542 75.19 342.063 76.264 333.861C76.7057 330.483 77.4246 327.01 78.2388 323.718C79.6939 317.82 81.4781 312.493 82.5521 309.375C84.2411 304.508 85.9993 295.431 85.9993 295.431C93.6906 287.298 103.772 274.505 106.691 265.835C106.691 265.818 106.709 265.792 106.709 265.774C107.445 263.583 107.713 261.66 107.367 260.153C107.072 258.906 106.916 257.286 106.847 255.424C106.847 255.424 106.847 255.418 106.847 255.407C106.518 246.026 108.666 230.41 110.355 224.65L110.364 224.642Z" fill="#F3F0F0" style="fill:#F3F0F0;fill:color(display-p3 0.9529 0.9412 0.9412);fill-opacity:1;"/>
<path d="M16.8281 343.068C25.117 327.919 33.1807 312.337 38.9838 295.534C39.6767 293.118 38.7499 289.974 39.4515 287.557C47.3073 265.731 38.3948 243.012 39.8586 220.666C41.0885 211.858 43.9034 202.98 46.7183 194.111C48.0435 187.684 48.5459 180.504 50.6592 174.042C52.8419 169.175 54.9985 163.51 59.641 161.016C68.4755 181.266 77.2841 201.594 85.495 222.355C89.2021 220.207 89.7997 215.409 90.432 211.398C92.4241 201.758 94.4422 192.924 98.0886 184.808C101.796 178.286 111.236 175.506 117.031 180.833C118.685 182.357 119.577 184.704 119.681 187.095C118.555 198.285 115.039 209.58 111.496 220.077C110.102 224.91 108.681 228.955 108.084 233.753C108.153 235.338 108.179 236.135 108.248 237.729C106.196 245.775 108.084 252.86 107.616 260.846C105.823 275.25 94.3036 285.279 85.9887 295.976C83.936 304.023 81.8833 312.069 79.0337 320.15C75.5518 332.232 74.4605 344.228 73.2739 355.878" stroke="#65666D" style="stroke:#65666D;stroke:color(display-p3 0.3952 0.3994 0.4292);stroke-opacity:1;" stroke-linecap="round" stroke-linejoin="round"/>
<path d="M85.4889 222.344C85.4889 222.344 82.7693 227.567 81.6866 231.811C80.6039 236.055 75.1213 235.44 72.2891 238.081" stroke="#65666D" style="stroke:#65666D;stroke:color(display-p3 0.3952 0.3994 0.4292);stroke-opacity:1;" stroke-linecap="round" stroke-linejoin="round"/>
<path d="M64.8125 214.875C64.8125 214.875 72.2699 217.508 76.6092 220.895C80.9485 224.281 84.1619 225.113 84.1619 225.113" stroke="#65666D" style="stroke:#65666D;stroke:color(display-p3 0.3952 0.3994 0.4292);stroke-opacity:1;" stroke-linecap="round" stroke-linejoin="round"/>
<path d="M60.0469 196.388C60.0469 196.388 66.0665 198.077 70.5271 195.955C70.5271 195.955 70.8562 192.266 71.6617 189.555" stroke="#65666D" style="stroke:#65666D;stroke:color(display-p3 0.3952 0.3994 0.4292);stroke-opacity:1;" stroke-linecap="round" stroke-linejoin="round"/>
<path d="M71.9766 196.82C71.9766 196.82 72.0372 197.66 75.1033 197.695" stroke="#65666D" style="stroke:#65666D;stroke:color(display-p3 0.3952 0.3994 0.4292);stroke-opacity:1;" stroke-linecap="round" stroke-linejoin="round"/>
<path d="M86.005 295.43C86.005 295.43 80.1327 300.756 76.5469 310.353" stroke="#65666D" style="stroke:#65666D;stroke:color(display-p3 0.3952 0.3994 0.4292);stroke-opacity:1;" stroke-linecap="round" stroke-linejoin="round"/>
<path d="M40.1414 217.648C39.8729 222.837 45.9618 241.277 47.8153 250.432C49.6689 259.595 50.3531 266.074 50.3531 266.074" stroke="#65666D" style="stroke:#65666D;stroke:color(display-p3 0.3952 0.3994 0.4292);stroke-opacity:1;" stroke-linecap="round" stroke-linejoin="round"/>
</svg>
