<svg width="459" height="193" viewBox="0 0 459 193" fill="none" xmlns="http://www.w3.org/2000/svg">
<path d="M28.264 49.8791L18.8857 60.7281L18.8857 83.7659H0L0 1.51264L18.8857 1.51264L18.8857 33.6273L45.9881 1.51264L68.3153 1.51264L40.7397 34.924L69.735 83.7227H47.6228L28.2209 49.8359L28.264 49.8791Z" fill="white" style="fill:white;fill-opacity:1;"/>
<path d="M101.111 1.51264L101.111 83.7659H82.2257L82.2257 1.51264L101.111 1.51264Z" fill="white" style="fill:white;fill-opacity:1;"/>
<path d="M176.06 59.6475C176.146 63.4079 175.243 67.1251 173.436 70.4533C171.672 73.5221 169.263 76.1587 166.381 78.1469C163.197 80.3081 159.67 81.9073 155.927 82.815C151.797 83.8524 147.538 84.371 143.279 84.371C140.354 84.371 137.429 84.1982 134.546 83.8956C131.793 83.593 129.04 82.9879 126.416 82.1667C123.705 81.3022 121.081 80.1352 118.629 78.7088C115.876 77.1096 113.338 75.251 110.972 73.1763L121.554 59.2153C124.695 61.8087 128.265 63.8834 132.051 65.353C135.45 66.6496 139.063 67.298 142.677 67.3412C144.871 67.3844 147.065 67.1683 149.216 66.6064C150.722 66.2606 152.141 65.6123 153.432 64.7478C154.378 64.1427 155.153 63.2782 155.669 62.3273C156.099 61.5493 156.314 60.6849 156.314 59.8204C156.314 58.6966 156.013 57.616 155.411 56.6651C154.637 55.5846 153.604 54.7201 152.4 54.115C150.593 53.1641 148.7 52.3428 146.764 51.7377C144.441 50.9597 141.516 50.052 138.031 49.1011C134.589 48.1934 131.191 47.0264 127.921 45.6001C125.211 44.433 122.716 42.8338 120.479 40.8455C118.5 39.0302 116.908 36.7393 115.919 34.2324C114.8 31.2933 114.284 28.1812 114.37 25.0259C114.327 21.5249 115.058 18.067 116.564 14.955C118.027 11.9726 120.135 9.37922 122.759 7.30452C125.598 5.10015 128.825 3.45768 132.266 2.46355C136.224 1.2533 140.268 0.691406 144.355 0.691406C149.087 0.691406 153.776 1.12364 158.422 1.9881C163.628 3.11189 168.532 5.27304 172.834 8.29865L164.402 23.5563C161.176 21.352 157.562 19.796 153.776 18.8883C150.593 18.2399 147.366 17.9374 144.097 17.9374C141.559 17.8509 139.063 18.3264 136.783 19.4502C134.934 20.4011 133.858 22.3461 133.987 24.4208C133.987 25.4149 134.288 26.4091 134.891 27.2303C135.708 28.2677 136.74 29.0889 137.902 29.694C139.709 30.6449 141.559 31.4229 143.494 32.028C145.774 32.8061 148.614 33.6273 151.926 34.5782C156.314 35.6588 160.53 37.3013 164.531 39.4192C167.327 40.8888 169.78 42.877 171.844 45.2543C173.479 47.2425 174.641 49.5766 175.243 52.0403C175.802 54.504 176.103 57.0541 176.06 59.6043V59.6475Z" fill="white" style="fill:white;fill-opacity:1;"/>
<path d="M186.366 1.51264L243.497 1.51264V18.3264L205.252 18.3264V33.8434H237.904V50.6571H205.252V66.8658L243.497 66.8658V83.6795L186.366 83.6795V1.51264Z" fill="white" style="fill:white;fill-opacity:1;"/>
<path d="M254.963 83.7659V1.51264L273.591 1.51264V66.909L312.438 66.909V83.7227L254.963 83.7227V83.7659Z" fill="white" style="fill:white;fill-opacity:1;"/>
<path d="M322.156 1.51264L379.286 1.51264V18.3264L341.042 18.3264V33.8434H373.694V50.6571H341.042V66.8658H379.286V83.6795H322.156V1.51264Z" fill="white" style="fill:white;fill-opacity:1;"/>
<path d="M423.315 56.06L431.617 26.3226L438.759 1.51264L458.461 1.51264L432.435 83.7227H413.076L386.834 1.51264L407.01 1.51264L414.367 26.7981L422.583 56.0168H423.272L423.315 56.06Z" fill="white" style="fill:white;fill-opacity:1;"/>
<path d="M54.4136 186.277C52.1622 187.794 49.7375 189.051 47.183 190.047C44.8017 191 42.2904 191.65 39.7792 192.084C33.6743 193.124 27.4395 192.82 21.5078 191.13C17.7842 190.134 14.2772 188.531 11.1165 186.364C7.99906 184.241 5.44455 181.424 3.53947 178.174C1.50451 174.577 0.508665 170.504 0.595259 166.388L0.595259 135.622C0.508665 131.505 1.46119 127.432 3.40956 123.792C5.22805 120.498 7.78257 117.595 10.8134 115.342C13.9308 113.045 17.4378 111.312 21.1614 110.272C24.9282 109.145 28.8683 108.582 32.8517 108.582C37.7875 108.582 42.7234 109.319 47.4861 110.662C51.989 111.832 56.1888 114.042 59.7392 117.075L50.5169 131.808C48.049 129.642 45.0615 128.038 41.8575 127.215C39.0432 126.478 36.1855 126.088 33.3279 126.088C31.7259 126.088 30.124 126.348 28.5653 126.825C26.9633 127.302 25.4911 128.038 24.1489 129.035C22.7634 130.075 21.6377 131.418 20.8583 132.978C19.9491 134.885 19.5162 136.922 19.6028 139.045L19.6028 162.358C19.5162 164.438 19.9491 166.518 20.815 168.424C21.5511 169.941 22.5902 171.328 23.9324 172.368C25.188 173.364 26.6169 174.101 28.1756 174.577C29.691 175.054 31.293 175.314 32.895 175.314C34.4104 175.314 35.9257 175.097 37.3978 174.707C38.9998 174.274 40.5152 173.494 41.7708 172.454V161.318H30.427V145.285H60.7783L60.7783 180.601C59.0032 182.854 56.8383 184.804 54.457 186.364L54.4136 186.277Z" fill="white" style="fill:white;fill-opacity:1;"/>
<path d="M111.479 109.405C115.463 109.275 119.446 110.055 123.083 111.659C126.114 113.045 128.798 115.082 130.92 117.639C132.955 120.108 134.47 122.968 135.336 126.088C136.245 129.165 136.722 132.372 136.722 135.578C136.722 137.788 136.375 139.998 135.769 142.078C135.12 144.245 134.254 146.368 133.085 148.318C131.916 150.311 130.487 152.175 128.841 153.821C127.196 155.511 125.291 156.984 123.213 158.198L137.934 191.824L117.628 191.824L105.201 161.448H93.4677V191.824H74.4602L74.4602 109.405H111.523H111.479ZM93.4244 144.808H107.539C110.354 145.068 113.125 144.071 115.116 142.121C116.675 140.301 117.498 137.961 117.454 135.578C117.714 130.682 113.991 126.522 109.098 126.262C108.578 126.262 108.059 126.262 107.496 126.305H93.3811V144.851L93.4244 144.808Z" fill="white" style="fill:white;fill-opacity:1;"/>
<path d="M210.587 165.781C210.673 169.898 209.807 173.927 207.945 177.611C206.257 180.904 203.832 183.764 200.888 185.974C197.814 188.271 194.35 189.961 190.627 191.001C186.643 192.127 182.487 192.69 178.33 192.69C174.174 192.69 170.06 192.127 166.12 191.001C162.44 189.961 158.933 188.271 155.859 185.974C152.871 183.764 150.447 180.904 148.758 177.611C146.94 173.927 146.031 169.854 146.117 165.781V134.798C145.987 130.725 146.983 126.652 148.975 123.055C150.836 119.848 153.391 117.075 156.422 114.909C159.539 112.742 163.046 111.095 166.727 110.142C170.493 109.102 174.39 108.582 178.287 108.582C182.227 108.582 186.124 109.145 189.934 110.272C193.657 111.312 197.164 113.002 200.325 115.255C203.399 117.422 205.91 120.282 207.729 123.575C209.677 127.215 210.63 131.288 210.543 135.405V165.781H210.587ZM191.579 138.958C191.622 136.878 191.233 134.798 190.367 132.892C189.674 131.375 188.635 130.032 187.336 128.948C186.08 127.952 184.652 127.172 183.093 126.738C181.577 126.262 180.019 126.045 178.417 126.002C176.815 126.002 175.213 126.262 173.697 126.738C172.139 127.215 170.71 127.952 169.454 128.948C168.112 129.988 167.073 131.375 166.337 132.892C165.471 134.798 165.081 136.878 165.125 138.958V162.271C165.038 164.351 165.471 166.431 166.337 168.338C167.073 169.854 168.112 171.241 169.454 172.281C170.71 173.277 172.139 174.014 173.697 174.491C175.213 174.967 176.815 175.227 178.417 175.227C180.019 175.227 181.577 174.967 183.093 174.491C184.652 174.057 186.08 173.277 187.336 172.281C188.635 171.198 189.674 169.854 190.367 168.338C191.233 166.431 191.622 164.351 191.579 162.271V138.958Z" fill="white" style="fill:white;fill-opacity:1;"/>
<path d="M286.14 177.481C284.365 180.774 281.854 183.677 278.866 185.931C275.749 188.227 272.285 189.961 268.562 191.001C264.708 192.127 260.725 192.69 256.698 192.69C252.671 192.69 248.688 192.17 244.835 191.087C241.111 190.091 237.647 188.444 234.53 186.191C231.542 184.024 229.031 181.207 227.256 177.957C225.351 174.317 224.398 170.288 224.528 166.171V109.405H243.536V162.531C243.492 164.611 243.882 166.691 244.748 168.554C245.484 170.071 246.523 171.458 247.866 172.498C249.121 173.494 250.55 174.231 252.109 174.707C253.624 175.184 255.226 175.444 256.828 175.444C258.43 175.444 259.989 175.184 261.504 174.707C263.063 174.274 264.492 173.494 265.747 172.498C267.046 171.414 268.085 170.071 268.778 168.554C269.644 166.648 270.034 164.611 269.99 162.531V109.405H288.998V165.651C289.084 169.768 288.175 173.841 286.27 177.481H286.14Z" fill="white" style="fill:white;fill-opacity:1;"/>
<path d="M339.396 109.405C343.466 109.275 347.492 110.055 351.259 111.615C354.333 112.959 357.104 114.995 359.269 117.552C361.347 120.022 362.863 122.838 363.815 125.915C364.768 129.035 365.244 132.328 365.244 135.622C365.244 138.915 364.681 142.208 363.512 145.328C361.131 151.741 356.282 156.898 350.047 159.628C346.496 161.144 342.643 161.924 338.79 161.838H322.38V191.867H303.372V109.405L339.396 109.405ZM322.337 144.938H336.322C339.136 145.241 341.95 144.245 343.985 142.208C345.501 140.345 346.323 138.005 346.237 135.622C346.28 133.238 345.501 130.898 344.029 129.035C341.994 126.998 339.179 126.002 336.322 126.305H322.337V144.981V144.938Z" fill="white" style="fill:white;fill-opacity:1;"/>
</svg>
