<svg width="82" height="109" viewBox="0 0 82 109" fill="none" xmlns="http://www.w3.org/2000/svg">
<path d="M41.228 54.6807C47.8278 54.6807 53.1968 60.0497 53.1968 66.6495L53.1968 81.7703L57.769 81.7703L57.769 66.6495C57.7701 57.5285 50.35 50.1074 41.229 50.1074L41.228 54.6807Z" fill="#65666D" style="fill:#65666D;fill:color(display-p3 0.3961 0.4000 0.4275);fill-opacity:1;"/>
<path d="M68.7206 51.7528C69.8672 50.0426 68.638 47.0165 69.4448 45.0703C70.2272 43.1809 73.2481 41.9208 73.6656 39.8386C74.0831 37.7564 71.781 35.43 71.7857 33.3844C71.7909 31.2778 74.0906 28.9572 73.69 26.9365C73.2832 24.8803 70.2652 23.6119 69.4734 21.6993C68.6766 19.7718 69.9133 16.7452 68.7604 15.0143C67.6075 13.2834 64.3371 13.2608 62.8654 11.7818C61.4041 10.3147 61.396 7.0407 59.6548 5.87449C57.9446 4.72789 54.9184 5.95715 52.9722 5.15037C51.0829 4.36789 49.8228 1.34707 47.7406 0.929533C45.6584 0.511994 43.332 2.81409 41.2864 2.80938C39.1797 2.80419 36.8591 0.504562 34.8385 0.905074C32.7822 1.31188 31.5139 4.32995 29.6013 5.12169C27.6737 5.91848 24.6472 4.68183 22.9163 5.83474C21.1854 6.98764 21.1627 10.258 19.6838 11.7297C18.2167 13.1911 14.9427 13.1991 13.7765 14.9403C12.6299 16.6506 13.8591 19.6767 13.0523 21.6229C12.2699 23.5122 9.24905 24.7723 8.83151 26.8545C8.41397 28.9367 10.7161 31.2631 10.7114 33.3088C10.7062 35.4154 8.40654 37.736 8.80705 39.7566C9.21386 41.8129 12.2319 43.0812 13.0237 44.9939C13.8205 46.9214 12.5838 49.948 13.7367 51.6788C14.8896 53.4097 18.16 53.4324 19.6317 54.9113C21.093 56.3784 21.1011 59.6525 22.8423 60.8187C24.5525 61.9653 27.5787 60.736 29.5249 61.5428C31.4142 62.3253 32.6743 65.3461 34.7565 65.7636C36.8387 66.1812 39.1651 63.8791 41.2107 63.8838C43.3174 63.889 45.638 66.1886 47.6586 65.7881C49.7149 65.3813 50.9832 62.3632 52.8958 61.5715C54.8234 60.7747 57.8499 62.0113 59.5808 60.8584C61.3117 59.7055 61.3344 56.4352 62.8133 54.9634C64.2804 53.5021 67.5544 53.494 68.7206 51.7528Z" fill="#717278" style="fill:#717278;fill:color(display-p3 0.4431 0.4471 0.4706);fill-opacity:1;"/>
<path d="M68.7206 51.7528C69.8672 50.0426 68.638 47.0165 69.4448 45.0703C70.2272 43.1809 73.2481 41.9208 73.6656 39.8386C74.0831 37.7564 71.781 35.43 71.7857 33.3844C71.7909 31.2778 74.0906 28.9572 73.69 26.9365C73.2832 24.8803 70.2652 23.6119 69.4734 21.6993C68.6766 19.7718 69.9133 16.7452 68.7604 15.0143C67.6075 13.2834 64.3371 13.2608 62.8654 11.7818C61.4041 10.3147 61.396 7.0407 59.6548 5.87449C57.9446 4.72789 54.9184 5.95715 52.9722 5.15037C51.0829 4.36789 49.8228 1.34707 47.7406 0.929533C45.6584 0.511994 43.332 2.81409 41.2864 2.80938C39.1797 2.80419 36.8591 0.504562 34.8385 0.905074C32.7822 1.31188 31.5139 4.32995 29.6013 5.12169C27.6737 5.91848 24.6472 4.68183 22.9163 5.83474C21.1854 6.98764 21.1627 10.258 19.6838 11.7297C18.2167 13.1911 14.9427 13.1991 13.7765 14.9403C12.6299 16.6506 13.8591 19.6767 13.0523 21.6229C12.2699 23.5122 9.24905 24.7723 8.83151 26.8545C8.41397 28.9367 10.7161 31.2631 10.7114 33.3088C10.7062 35.4154 8.40654 37.736 8.80705 39.7566C9.21386 41.8129 12.2319 43.0812 13.0237 44.9939C13.8205 46.9214 12.5838 49.948 13.7367 51.6788C14.8896 53.4097 18.16 53.4324 19.6317 54.9113C21.093 56.3784 21.1011 59.6525 22.8423 60.8187C24.5525 61.9653 27.5787 60.736 29.5249 61.5428C31.4142 62.3253 32.6743 65.3461 34.7565 65.7636C36.8387 66.1812 39.1651 63.8791 41.2107 63.8838C43.3174 63.889 45.638 66.1886 47.6586 65.7881C49.7149 65.3813 50.9832 62.3632 52.8958 61.5715C54.8234 60.7747 57.8499 62.0113 59.5808 60.8584C61.3117 59.7055 61.3344 56.4352 62.8133 54.9634C64.2804 53.5021 67.5544 53.494 68.7206 51.7528Z" fill="url(#paint0_linear_2261_3454)" style=""/>
<path d="M56.6573 10.2907C55.8867 9.77406 54.7971 9.83356 53.701 9.89341C52.7604 9.94476 51.8152 9.99638 51.0627 9.68445C50.3429 9.38635 49.7322 8.70018 49.1161 8.00794C48.3783 7.17898 47.6328 6.3413 46.6828 6.15081C45.7326 5.96027 44.7217 6.44621 43.7213 6.92713C42.8863 7.32851 42.0585 7.72639 41.2794 7.7246C40.4652 7.72259 39.6129 7.31123 38.7647 6.90188C37.7756 6.42448 36.7921 5.94982 35.8813 6.13033C34.9477 6.31505 34.208 7.14284 33.4711 7.96755C32.8494 8.66343 32.2295 9.35711 31.4968 9.66044C30.7548 9.96714 29.8184 9.91397 28.8823 9.86083C27.7824 9.79838 26.683 9.73596 25.9002 10.2574C25.1175 10.7787 24.7521 11.817 24.3864 12.856C24.075 13.7408 23.7634 14.6259 23.194 15.1926C22.6318 15.7526 21.7526 16.0577 20.8709 16.3637C19.8262 16.7262 18.7778 17.09 18.2484 17.8805C17.7318 18.6511 17.7913 19.7407 17.8511 20.8368C17.9025 21.7774 17.9541 22.7226 17.6422 23.4751C17.3441 24.1949 16.6579 24.8056 15.9656 25.4217C15.1367 26.1595 14.299 26.905 14.1085 27.855C13.918 28.8052 14.4039 29.8161 14.8848 30.8165C15.2862 31.6515 15.6841 32.4793 15.6823 33.2584C15.6803 34.0726 15.2689 34.9249 14.8596 35.7731C14.3822 36.7622 13.9075 37.7457 14.088 38.6565C14.2728 39.5901 15.1005 40.3298 15.9253 41.0667C16.6211 41.6884 17.3148 42.3083 17.6181 43.041C17.9248 43.783 17.8717 44.7194 17.8185 45.6555C17.7561 46.7554 17.6937 47.8548 18.2151 48.6376C18.7364 49.4203 19.7748 49.7857 20.8137 50.1514C21.6985 50.4628 22.5836 50.7744 23.1503 51.3438C23.7103 51.906 24.0154 52.7852 24.3214 53.6669C24.6839 54.7116 25.0477 55.76 25.8382 56.2894C26.6088 56.806 27.6984 56.7465 28.7945 56.6867C29.7351 56.6353 30.6803 56.5837 31.4328 56.8956C32.1526 57.1937 32.7633 57.8799 33.3794 58.5722C34.1172 59.4011 34.8627 60.2388 35.8127 60.4293C36.7629 60.6198 37.7738 60.1339 38.7743 59.653C39.6093 59.2516 40.437 58.8537 41.2161 58.8555C42.0303 58.8575 42.8826 59.2689 43.7308 59.6782C44.7199 60.1556 45.7034 60.6303 46.6142 60.4498C47.5479 60.265 48.2875 59.4373 49.0244 58.6125C49.6461 57.9167 50.266 57.223 50.9987 56.9196C51.7407 56.613 52.6771 56.6661 53.6132 56.7193C54.7131 56.7817 55.8125 56.8441 56.5954 56.3227C57.378 55.8014 57.7434 54.763 58.1091 53.7241C58.4205 52.8393 58.7321 51.9541 59.3015 51.3875C59.8637 50.8275 60.7429 50.5224 61.6246 50.2164C62.6693 49.8539 63.7177 49.4901 64.2471 48.6996C64.7637 47.929 64.7042 46.8394 64.6444 45.7433C64.593 44.8027 64.5414 43.8575 64.8533 43.105C65.1515 42.3852 65.8376 41.7745 66.5299 41.1584C67.3588 40.4206 68.1965 39.675 68.387 38.7251C68.5775 37.7749 68.0916 36.764 67.6107 35.7635C67.2093 34.9285 66.8114 34.1008 66.8132 33.3217C66.8152 32.5075 67.2266 31.6552 67.6359 30.807C68.1133 29.8179 68.588 28.8343 68.4075 27.9236C68.2228 26.9899 67.395 26.2503 66.5703 25.5134C65.8744 24.8916 65.1807 24.2718 64.8774 23.5391C64.5707 22.7971 64.6238 21.8607 64.677 20.9246C64.7394 19.8247 64.8018 18.7253 64.2804 17.9425C63.7591 17.1598 62.7208 16.7944 61.6818 16.4287C60.797 16.1173 59.9119 15.8057 59.3452 15.2362C58.7852 14.6741 58.4801 13.7949 58.1741 12.9131C57.8116 11.8685 57.4478 10.8201 56.6573 10.2907Z" fill="#585960" style="fill:#585960;fill:color(display-p3 0.3451 0.3490 0.3765);fill-opacity:1;"/>
<path d="M56.6573 10.2907C55.8867 9.77406 54.7971 9.83356 53.701 9.89341C52.7604 9.94476 51.8152 9.99638 51.0627 9.68445C50.3429 9.38635 49.7322 8.70018 49.1161 8.00794C48.3783 7.17898 47.6328 6.3413 46.6828 6.15081C45.7326 5.96027 44.7217 6.44621 43.7213 6.92713C42.8863 7.32851 42.0585 7.72639 41.2794 7.7246C40.4652 7.72259 39.6129 7.31123 38.7647 6.90188C37.7756 6.42448 36.7921 5.94982 35.8813 6.13033C34.9477 6.31505 34.208 7.14284 33.4711 7.96755C32.8494 8.66343 32.2295 9.35711 31.4968 9.66044C30.7548 9.96714 29.8184 9.91397 28.8823 9.86083C27.7824 9.79838 26.683 9.73596 25.9002 10.2574C25.1175 10.7787 24.7521 11.817 24.3864 12.856C24.075 13.7408 23.7634 14.6259 23.194 15.1926C22.6318 15.7526 21.7526 16.0577 20.8709 16.3637C19.8262 16.7262 18.7778 17.09 18.2484 17.8805C17.7318 18.6511 17.7913 19.7407 17.8511 20.8368C17.9025 21.7774 17.9541 22.7226 17.6422 23.4751C17.3441 24.1949 16.6579 24.8056 15.9656 25.4217C15.1367 26.1595 14.299 26.905 14.1085 27.855C13.918 28.8052 14.4039 29.8161 14.8848 30.8165C15.2862 31.6515 15.6841 32.4793 15.6823 33.2584C15.6803 34.0726 15.2689 34.9249 14.8596 35.7731C14.3822 36.7622 13.9075 37.7457 14.088 38.6565C14.2728 39.5901 15.1005 40.3298 15.9253 41.0667C16.6211 41.6884 17.3148 42.3083 17.6181 43.041C17.9248 43.783 17.8717 44.7194 17.8185 45.6555C17.7561 46.7554 17.6937 47.8548 18.2151 48.6376C18.7364 49.4203 19.7748 49.7857 20.8137 50.1514C21.6985 50.4628 22.5836 50.7744 23.1503 51.3438C23.7103 51.906 24.0154 52.7852 24.3214 53.6669C24.6839 54.7116 25.0477 55.76 25.8382 56.2894C26.6088 56.806 27.6984 56.7465 28.7945 56.6867C29.7351 56.6353 30.6803 56.5837 31.4328 56.8956C32.1526 57.1937 32.7633 57.8799 33.3794 58.5722C34.1172 59.4011 34.8627 60.2388 35.8127 60.4293C36.7629 60.6198 37.7738 60.1339 38.7743 59.653C39.6093 59.2516 40.437 58.8537 41.2161 58.8555C42.0303 58.8575 42.8826 59.2689 43.7308 59.6782C44.7199 60.1556 45.7034 60.6303 46.6142 60.4498C47.5479 60.265 48.2875 59.4373 49.0244 58.6125C49.6461 57.9167 50.266 57.223 50.9987 56.9196C51.7407 56.613 52.6771 56.6661 53.6132 56.7193C54.7131 56.7817 55.8125 56.8441 56.5954 56.3227C57.378 55.8014 57.7434 54.763 58.1091 53.7241C58.4205 52.8393 58.7321 51.9541 59.3015 51.3875C59.8637 50.8275 60.7429 50.5224 61.6246 50.2164C62.6693 49.8539 63.7177 49.4901 64.2471 48.6996C64.7637 47.929 64.7042 46.8394 64.6444 45.7433C64.593 44.8027 64.5414 43.8575 64.8533 43.105C65.1515 42.3852 65.8376 41.7745 66.5299 41.1584C67.3588 40.4206 68.1965 39.675 68.387 38.7251C68.5775 37.7749 68.0916 36.764 67.6107 35.7635C67.2093 34.9285 66.8114 34.1008 66.8132 33.3217C66.8152 32.5075 67.2266 31.6552 67.6359 30.807C68.1133 29.8179 68.588 28.8343 68.4075 27.9236C68.2228 26.9899 67.395 26.2503 66.5703 25.5134C65.8744 24.8916 65.1807 24.2718 64.8774 23.5391C64.5707 22.7971 64.6238 21.8607 64.677 20.9246C64.7394 19.8247 64.8018 18.7253 64.2804 17.9425C63.7591 17.1598 62.7208 16.7944 61.6818 16.4287C60.797 16.1173 59.9119 15.8057 59.3452 15.2362C58.7852 14.6741 58.4801 13.7949 58.1741 12.9131C57.8116 11.8685 57.4478 10.8201 56.6573 10.2907Z" fill="url(#paint1_linear_2261_3454)" style=""/>
<path d="M56.6573 10.2907C55.8867 9.77406 54.7971 9.83356 53.701 9.89341C52.7604 9.94476 51.8152 9.99638 51.0627 9.68445C50.3429 9.38635 49.7322 8.70018 49.1161 8.00794C48.3783 7.17898 47.6328 6.3413 46.6828 6.15081C45.7326 5.96027 44.7217 6.44621 43.7213 6.92713C42.8863 7.32851 42.0585 7.72639 41.2794 7.7246C40.4652 7.72259 39.6129 7.31123 38.7647 6.90188C37.7756 6.42448 36.7921 5.94982 35.8813 6.13033C34.9477 6.31505 34.208 7.14284 33.4711 7.96755C32.8494 8.66343 32.2295 9.35711 31.4968 9.66044C30.7548 9.96714 29.8184 9.91397 28.8823 9.86083C27.7824 9.79838 26.683 9.73596 25.9002 10.2574C25.1175 10.7787 24.7521 11.817 24.3864 12.856C24.075 13.7408 23.7634 14.6259 23.194 15.1926C22.6318 15.7526 21.7526 16.0577 20.8709 16.3637C19.8262 16.7262 18.7778 17.09 18.2484 17.8805C17.7318 18.6511 17.7913 19.7407 17.8511 20.8368C17.9025 21.7774 17.9541 22.7226 17.6422 23.4751C17.3441 24.1949 16.6579 24.8056 15.9656 25.4217C15.1367 26.1595 14.299 26.905 14.1085 27.855C13.918 28.8052 14.4039 29.8161 14.8848 30.8165C15.2862 31.6515 15.6841 32.4793 15.6823 33.2584C15.6803 34.0726 15.2689 34.9249 14.8596 35.7731C14.3822 36.7622 13.9075 37.7457 14.088 38.6565C14.2728 39.5901 15.1005 40.3298 15.9253 41.0667C16.6211 41.6884 17.3148 42.3083 17.6181 43.041C17.9248 43.783 17.8717 44.7194 17.8185 45.6555C17.7561 46.7554 17.6937 47.8548 18.2151 48.6376C18.7364 49.4203 19.7748 49.7857 20.8137 50.1514C21.6985 50.4628 22.5836 50.7744 23.1503 51.3438C23.7103 51.906 24.0154 52.7852 24.3214 53.6669C24.6839 54.7116 25.0477 55.76 25.8382 56.2894C26.6088 56.806 27.6984 56.7465 28.7945 56.6867C29.7351 56.6353 30.6803 56.5837 31.4328 56.8956C32.1526 57.1937 32.7633 57.8799 33.3794 58.5722C34.1172 59.4011 34.8627 60.2388 35.8127 60.4293C36.7629 60.6198 37.7738 60.1339 38.7743 59.653C39.6093 59.2516 40.437 58.8537 41.2161 58.8555C42.0303 58.8575 42.8826 59.2689 43.7308 59.6782C44.7199 60.1556 45.7034 60.6303 46.6142 60.4498C47.5479 60.265 48.2875 59.4373 49.0244 58.6125C49.6461 57.9167 50.266 57.223 50.9987 56.9196C51.7407 56.613 52.6771 56.6661 53.6132 56.7193C54.7131 56.7817 55.8125 56.8441 56.5954 56.3227C57.378 55.8014 57.7434 54.763 58.1091 53.7241C58.4205 52.8393 58.7321 51.9541 59.3015 51.3875C59.8637 50.8275 60.7429 50.5224 61.6246 50.2164C62.6693 49.8539 63.7177 49.4901 64.2471 48.6996C64.7637 47.929 64.7042 46.8394 64.6444 45.7433C64.593 44.8027 64.5414 43.8575 64.8533 43.105C65.1515 42.3852 65.8376 41.7745 66.5299 41.1584C67.3588 40.4206 68.1965 39.675 68.387 38.7251C68.5775 37.7749 68.0916 36.764 67.6107 35.7635C67.2093 34.9285 66.8114 34.1008 66.8132 33.3217C66.8152 32.5075 67.2266 31.6552 67.6359 30.807C68.1133 29.8179 68.588 28.8343 68.4075 27.9236C68.2228 26.9899 67.395 26.2503 66.5703 25.5134C65.8744 24.8916 65.1807 24.2718 64.8774 23.5391C64.5707 22.7971 64.6238 21.8607 64.677 20.9246C64.7394 19.8247 64.8018 18.7253 64.2804 17.9425C63.7591 17.1598 62.7208 16.7944 61.6818 16.4287C60.797 16.1173 59.9119 15.8057 59.3452 15.2362C58.7852 14.6741 58.4801 13.7949 58.1741 12.9131C57.8116 11.8685 57.4478 10.8201 56.6573 10.2907Z" stroke="#3A3B40" style="stroke:#3A3B40;stroke:color(display-p3 0.2275 0.2314 0.2510);stroke-opacity:1;"/>
<path d="M36.9049 39.9851C35.8303 39.9859 34.9585 39.1155 34.9578 38.0409L34.9443 19.6384C34.9435 18.5639 35.8139 17.6922 36.8884 17.6914L41.8987 17.6875C44.7054 17.6854 46.7498 18.2666 48.032 19.4313C49.3345 20.596 49.9865 22.1983 49.988 24.2383C49.9889 25.4456 49.7253 26.5803 49.1973 27.6423C48.6693 28.7043 47.7852 29.5584 46.545 30.2047C45.3252 30.8509 43.6576 31.1748 41.5424 31.1764L41.505 31.1765C40.4305 31.1773 39.5601 32.049 39.5608 33.1235L39.5644 38.0375C39.5652 39.112 38.6948 39.9837 37.6203 39.9846L36.9049 39.9851ZM34.0305 36.6464C33.1941 36.647 32.5156 35.9695 32.515 35.1331C32.5144 34.2968 33.1919 33.6183 34.0282 33.6177L42.745 33.611C43.5814 33.6103 44.2599 34.2878 44.2605 35.1242C44.2611 35.9605 43.5837 36.639 42.7473 36.6397L34.0305 36.6464ZM34.448 31.1819C33.3789 31.1827 32.5115 30.3166 32.5107 29.2474C32.5099 28.1783 33.376 27.311 34.4451 27.3101L39.5121 27.3063C40.5813 27.3054 41.4487 28.1715 41.4495 29.2407C41.4503 30.3098 40.5842 31.1772 39.5151 31.178L34.448 31.1819ZM41.082 27.305C41.9565 27.3044 42.709 27.2101 43.3394 27.0223C43.9697 26.8137 44.4576 26.4906 44.803 26.0532C45.1485 25.6158 45.3209 25.0641 45.3204 24.398C45.3197 23.4405 45.0243 22.7329 44.4342 22.2755C43.844 21.7971 42.9184 21.5585 41.6574 21.5594L41.4979 21.5596C40.4234 21.5604 39.553 22.4321 39.5538 23.5066L39.5555 25.7808C39.5561 26.6233 40.2395 27.3057 41.082 27.305Z" fill="#46474E" style="fill:#46474E;fill:color(display-p3 0.2745 0.2784 0.3059);fill-opacity:1;"/>
<path d="M36.9049 39.9851C35.8303 39.9859 34.9585 39.1155 34.9578 38.0409L34.9443 19.6384C34.9435 18.5639 35.8139 17.6922 36.8884 17.6914L41.8987 17.6875C44.7054 17.6854 46.7498 18.2666 48.032 19.4313C49.3345 20.596 49.9865 22.1983 49.988 24.2383C49.9889 25.4456 49.7253 26.5803 49.1973 27.6423C48.6693 28.7043 47.7852 29.5584 46.545 30.2047C45.3252 30.8509 43.6576 31.1748 41.5424 31.1764L41.505 31.1765C40.4305 31.1773 39.5601 32.049 39.5608 33.1235L39.5644 38.0375C39.5652 39.112 38.6948 39.9837 37.6203 39.9846L36.9049 39.9851ZM34.0305 36.6464C33.1941 36.647 32.5156 35.9695 32.515 35.1331C32.5144 34.2968 33.1919 33.6183 34.0282 33.6177L42.745 33.611C43.5814 33.6103 44.2599 34.2878 44.2605 35.1242C44.2611 35.9605 43.5837 36.639 42.7473 36.6397L34.0305 36.6464ZM34.448 31.1819C33.3789 31.1827 32.5115 30.3166 32.5107 29.2474C32.5099 28.1783 33.376 27.311 34.4451 27.3101L39.5121 27.3063C40.5813 27.3054 41.4487 28.1715 41.4495 29.2407C41.4503 30.3098 40.5842 31.1772 39.5151 31.178L34.448 31.1819ZM41.082 27.305C41.9565 27.3044 42.709 27.2101 43.3394 27.0223C43.9697 26.8137 44.4576 26.4906 44.803 26.0532C45.1485 25.6158 45.3209 25.0641 45.3204 24.398C45.3197 23.4405 45.0243 22.7329 44.4342 22.2755C43.844 21.7971 42.9184 21.5585 41.6574 21.5594L41.4979 21.5596C40.4234 21.5604 39.553 22.4321 39.5538 23.5066L39.5555 25.7808C39.5561 26.6233 40.2395 27.3057 41.082 27.305Z" fill="url(#paint2_linear_2261_3454)" style=""/>
<rect x="37.3228" y="47.7686" width="7.84727" height="7.84727" rx="3.92364" transform="rotate(-0.0429595 37.3228 47.7686)" fill="#D9D9D9" style="fill:#D9D9D9;fill:color(display-p3 0.8510 0.8510 0.8510);fill-opacity:1;"/>
<rect x="37.3228" y="47.7686" width="7.84727" height="7.84727" rx="3.92364" transform="rotate(-0.0429595 37.3228 47.7686)" fill="url(#paint3_linear_2261_3454)" style=""/>
<rect x="37.3228" y="47.7686" width="7.84727" height="7.84727" rx="3.92364" transform="rotate(-0.0429595 37.3228 47.7686)" fill="#393A3F" style="fill:#393A3F;fill:color(display-p3 0.2235 0.2275 0.2471);fill-opacity:1;"/>
<path d="M43.7649 54.7056C42.7641 54.4333 41.6699 54.2774 40.584 54.2774C33.9842 54.2774 28.6152 59.6464 28.6152 66.2462L28.6152 81.3669L24.043 81.3669L24.043 66.2462C24.0419 57.1252 31.462 49.7041 40.583 49.7041C42.0784 49.7041 43.5455 49.9129 44.9243 50.2867C45.9022 52.9908 43.8231 54.7056 43.7649 54.7056Z" fill="#65666D" style="fill:#65666D;fill:color(display-p3 0.3961 0.4000 0.4275);fill-opacity:1;"/>
<path d="M43.7649 54.7056C42.7641 54.4333 41.6699 54.2774 40.584 54.2774C33.9842 54.2774 28.6152 59.6464 28.6152 66.2462L28.6152 81.3669L24.043 81.3669L24.043 66.2462C24.0419 57.1252 31.462 49.7041 40.583 49.7041C42.0784 49.7041 43.5455 49.9129 44.9243 50.2867C45.9022 52.9908 43.8231 54.7056 43.7649 54.7056Z" fill="url(#paint4_linear_2261_3454)" style=""/>
<g clip-path="url(#clip0_2261_3454)">
<path d="M61.9474 74.0166L18.8842 74.0166C17.9153 74.0166 17.1299 74.8049 17.1299 75.7773L17.1299 103.858C17.1299 104.831 17.9153 105.619 18.8842 105.619L61.9474 105.619C62.9163 105.619 63.7018 104.831 63.7018 103.858L63.7018 75.7773C63.7018 74.8049 62.9163 74.0166 61.9474 74.0166Z" fill="#F2CB30" style="fill:#F2CB30;fill:color(display-p3 0.9490 0.7961 0.1882);fill-opacity:1;"/>
<path d="M61.9474 74.0166L18.8842 74.0166C17.9153 74.0166 17.1299 74.8049 17.1299 75.7773L17.1299 103.858C17.1299 104.831 17.9153 105.619 18.8842 105.619L61.9474 105.619C62.9163 105.619 63.7018 104.831 63.7018 103.858L63.7018 75.7773C63.7018 74.8049 62.9163 74.0166 61.9474 74.0166Z" fill="url(#paint5_linear_2261_3454)" style=""/>
</g>
<path d="M44.4715 86.2897C44.4718 86.2897 44.472 86.2895 44.472 86.2892C44.4718 84.141 42.73 82.3984 40.5807 82.3984C38.4313 82.3984 36.6895 84.1403 36.6895 86.2897C36.6895 87.2913 37.0694 88.2021 37.6918 88.891C38.0131 89.2467 38.2249 89.7083 38.1581 90.183L37.2383 96.7196C37.1274 97.5076 37.7392 98.2114 38.5349 98.2114L42.6256 98.2114C43.4213 98.2114 44.033 97.5076 43.9221 96.7196L43.0024 90.1836C42.9356 89.7086 43.1477 89.2467 43.4692 88.8908C44.0912 88.2023 44.4709 87.2913 44.471 86.2902C44.471 86.29 44.4712 86.2897 44.4715 86.2897Z" fill="#58595A" style="fill:#58595A;fill:color(display-p3 0.3451 0.3490 0.3529);fill-opacity:1;"/>
<path d="M44.4715 86.2897C44.4718 86.2897 44.472 86.2895 44.472 86.2892C44.4718 84.141 42.73 82.3984 40.5807 82.3984C38.4313 82.3984 36.6895 84.1403 36.6895 86.2897C36.6895 87.2913 37.0694 88.2021 37.6918 88.891C38.0131 89.2467 38.2249 89.7083 38.1581 90.183L37.2383 96.7196C37.1274 97.5076 37.7392 98.2114 38.5349 98.2114L42.6256 98.2114C43.4213 98.2114 44.033 97.5076 43.9221 96.7196L43.0024 90.1836C42.9356 89.7086 43.1477 89.2467 43.4692 88.8908C44.0912 88.2023 44.4709 87.2913 44.471 86.2902C44.471 86.29 44.4712 86.2897 44.4715 86.2897Z" fill="url(#paint6_linear_2261_3454)" style=""/>
<path d="M18.7646 80.3772L18.7646 85.9927C18.9611 82.8647 20.4826 76.0576 29.9956 76.0576L23.0842 76.0576C20.4925 76.0576 18.7646 77.3535 18.7646 80.3772Z" fill="#FFEB94" style="fill:#FFEB94;fill:color(display-p3 1.0000 0.9229 0.5785);fill-opacity:1;"/>
<defs>
<linearGradient id="paint0_linear_2261_3454" x1="50.1466" y1="1.54236" x2="32.9966" y2="65.2708" gradientUnits="userSpaceOnUse">
<stop stop-color="#FFD66B" style="stop-color:#FFD66B;stop-color:color(display-p3 1.0000 0.8392 0.4196);stop-opacity:1;"/>
<stop offset="1" stop-color="#FFA469" style="stop-color:#FFA469;stop-color:color(display-p3 1.0000 0.6431 0.4118);stop-opacity:1;"/>
</linearGradient>
<linearGradient id="paint1_linear_2261_3454" x1="50.4317" y1="7.14529" x2="55.5417" y2="58.5855" gradientUnits="userSpaceOnUse">
<stop stop-color="#4F5058" style="stop-color:#4F5058;stop-color:color(display-p3 0.3098 0.3137 0.3451);stop-opacity:1;"/>
<stop offset="1" stop-color="#C27B4C" style="stop-color:#C27B4C;stop-color:color(display-p3 0.7592 0.4808 0.2983);stop-opacity:1;"/>
</linearGradient>
<linearGradient id="paint2_linear_2261_3454" x1="41.3443" y1="18.5776" x2="41.3451" y2="40.272" gradientUnits="userSpaceOnUse">
<stop stop-color="#FFD66B" style="stop-color:#FFD66B;stop-color:color(display-p3 1.0000 0.8392 0.4196);stop-opacity:1;"/>
<stop offset="1" stop-color="#FFA469" style="stop-color:#FFA469;stop-color:color(display-p3 1.0000 0.6431 0.4118);stop-opacity:1;"/>
</linearGradient>
<linearGradient id="paint3_linear_2261_3454" x1="41.4639" y1="47.6764" x2="44.0821" y2="54.631" gradientUnits="userSpaceOnUse">
<stop stop-color="#505159" style="stop-color:#505159;stop-color:color(display-p3 0.3137 0.3176 0.3490);stop-opacity:1;"/>
<stop offset="1" stop-color="#E48F57" style="stop-color:#E48F57;stop-color:color(display-p3 0.8944 0.5621 0.3406);stop-opacity:1;"/>
</linearGradient>
<linearGradient id="paint4_linear_2261_3454" x1="37.829" y1="52.7965" x2="45.1855" y2="52.7965" gradientUnits="userSpaceOnUse">
<stop stop-color="#65666D" style="stop-color:#65666D;stop-color:color(display-p3 0.3961 0.4000 0.4275);stop-opacity:1;"/>
<stop offset="1" stop-color="#505159" style="stop-color:#505159;stop-color:color(display-p3 0.3137 0.3176 0.3490);stop-opacity:1;"/>
</linearGradient>
<linearGradient id="paint5_linear_2261_3454" x1="30.3116" y1="83.9715" x2="49.0564" y2="106.714" gradientUnits="userSpaceOnUse">
<stop stop-color="#FFD66B" style="stop-color:#FFD66B;stop-color:color(display-p3 1.0000 0.8392 0.4196);stop-opacity:1;"/>
<stop offset="1" stop-color="#FFA469" style="stop-color:#FFA469;stop-color:color(display-p3 1.0000 0.6431 0.4118);stop-opacity:1;"/>
</linearGradient>
<linearGradient id="paint6_linear_2261_3454" x1="40.7964" y1="82.2128" x2="48.5137" y2="92.2787" gradientUnits="userSpaceOnUse">
<stop stop-color="#4F5058" style="stop-color:#4F5058;stop-color:color(display-p3 0.3098 0.3137 0.3451);stop-opacity:1;"/>
<stop offset="1" stop-color="#C27B4C" style="stop-color:#C27B4C;stop-color:color(display-p3 0.7592 0.4808 0.2983);stop-opacity:1;"/>
</linearGradient>
<clipPath id="clip0_2261_3454">
<rect x="17.1304" y="74.0166" width="46.5719" height="31.6024" rx="4.98985" fill="white" style="fill:white;fill-opacity:1;"/>
</clipPath>
</defs>
</svg>
