<svg width="109" height="109" viewBox="0 0 109 109" fill="none" xmlns="http://www.w3.org/2000/svg">
<rect x="2.09015" y="1.72638" width="103.468" height="103.468" rx="51.7338" fill="#F3F0F0" fill-opacity="0.01" stroke="url(#paint0_linear_2261_3387)" style="fill:#F3F0F0;fill:color(display-p3 0.9529 0.9412 0.9412);fill-opacity:0.01;" stroke-width="2.13318"/>
<rect x="18.8264" y="18.449" width="70.0046" height="70.0046" rx="35.0023" stroke="url(#paint1_linear_2261_3387)" style="" stroke-width="0.802257"/>
<path d="M76.1855 91.9831C75.9855 92.0986 75.7671 92.1875 75.5302 92.2498C75.2914 92.3195 75.0395 92.313 74.7747 92.2302L74.8687 91.5713C75.1054 91.6269 75.3006 91.632 75.4543 91.5867C75.606 91.5487 75.733 91.5002 75.8354 91.4411C75.9237 91.3901 76.0087 91.3224 76.0903 91.2382C76.1672 91.1565 76.2264 91.0604 76.2678 90.9496C76.3047 90.8415 76.3178 90.7192 76.3072 90.5827C76.2946 90.4535 76.2454 90.3145 76.1594 90.1657L75.7083 89.3843C75.6224 89.2355 75.5253 89.121 75.417 89.0409C75.3114 88.9654 75.2026 88.9166 75.0906 88.8944C74.9786 88.8723 74.868 88.8741 74.7589 88.8999C74.6451 88.9284 74.5394 88.9708 74.4417 89.0272C74.3394 89.0863 74.2282 89.1784 74.1082 89.3035C73.9835 89.4313 73.8986 89.5795 73.8534 89.7483L73.2419 89.5431C73.3107 89.2864 73.4277 89.07 73.5928 88.8941C73.7532 88.7208 73.9334 88.5765 74.1334 88.461C74.3381 88.3429 74.5416 88.2657 74.7439 88.2295C74.9463 88.1933 75.1411 88.1924 75.3285 88.2269C75.5111 88.2641 75.6803 88.3369 75.836 88.4455C75.9898 88.5614 76.119 88.71 76.2237 88.8914L76.8158 89.917C76.9286 90.1123 76.9934 90.3105 77.0103 90.5116C77.0272 90.7127 77.0051 90.9053 76.9439 91.0895C76.8828 91.2736 76.7869 91.4406 76.6564 91.5904C76.5238 91.7475 76.3669 91.8784 76.1855 91.9831Z" fill="#D7D7D7" style="fill:#D7D7D7;fill:color(display-p3 0.8417 0.8417 0.8417);fill-opacity:1;"/>
<path d="M64.7082 92.5434L65.6669 95.7798L67.4975 95.2375L66.5389 92.0011L67.1954 91.8066L68.328 95.6301L65.1765 96.5636L64.044 92.7401L64.7082 92.5434Z" fill="#D7D7D7" style="fill:#D7D7D7;fill:color(display-p3 0.8417 0.8417 0.8417);fill-opacity:1;"/>
<path d="M59.6337 95.0813C59.5946 94.8537 59.6046 94.6422 59.6636 94.4467C59.7183 94.2575 59.8119 94.0888 59.9445 93.9407C60.0718 93.7935 60.2279 93.6713 60.4128 93.5741C60.5977 93.477 60.8013 93.4093 61.0236 93.3711C61.2512 93.332 61.4684 93.3273 61.6752 93.3572C61.8819 93.3871 62.0699 93.4501 62.239 93.5464C62.4028 93.6436 62.5421 93.7722 62.6568 93.9323C62.7724 94.0978 62.8498 94.2943 62.8889 94.5219L63.0854 95.6651C63.1245 95.8927 63.1167 96.1011 63.062 96.2904C63.003 96.4858 62.9125 96.6567 62.7905 96.803C62.6641 96.9555 62.5084 97.0803 62.3235 97.1775C62.1342 97.2808 61.9284 97.3516 61.7061 97.3898C61.4679 97.4308 61.245 97.4337 61.0373 97.3985C60.8253 97.3695 60.6369 97.3038 60.4721 97.2014C60.303 97.1051 60.1633 96.9738 60.053 96.8075C59.9436 96.6465 59.8693 96.4521 59.8302 96.2245L59.6337 95.0813ZM60.4846 95.9895C60.5137 96.1589 60.5673 96.2968 60.6456 96.4032C60.7247 96.5149 60.8183 96.5997 60.9263 96.6574C61.029 96.716 61.1387 96.7517 61.2553 96.7643C61.3719 96.777 61.4831 96.7742 61.589 96.756C61.7002 96.7369 61.8086 96.702 61.9143 96.6511C62.02 96.6002 62.1141 96.5296 62.1966 96.4391C62.2739 96.3495 62.3311 96.2389 62.3685 96.1071C62.4067 95.9807 62.4112 95.8328 62.3821 95.6634L62.2293 94.7742C62.2002 94.6048 62.1514 94.4633 62.0828 94.3498C62.0099 94.2424 61.9247 94.159 61.8273 94.0994C61.7298 94.0399 61.6202 94.0042 61.4983 93.9925C61.3764 93.9807 61.2492 93.9862 61.1169 94.009C61.0111 94.0272 60.9053 94.0617 60.7996 94.1126C60.6939 94.1634 60.6024 94.2336 60.5252 94.3232C60.4426 94.4137 60.3823 94.5221 60.344 94.6486C60.3067 94.7803 60.3026 94.9309 60.3318 95.1003L60.4846 95.9895Z" fill="#D7D7D7" style="fill:#D7D7D7;fill:color(display-p3 0.8417 0.8417 0.8417);fill-opacity:1;"/>
<path d="M56.7188 93.9754L56.8073 95.6648L57.2739 95.6404C57.3651 95.6356 57.4505 95.623 57.5301 95.6027C57.6046 95.5881 57.673 95.5576 57.7351 95.5113C57.7975 95.4704 57.8534 95.4083 57.9028 95.3251C57.9471 95.2474 57.9847 95.1433 58.0155 95.0126L58.2715 93.894L58.9955 93.8561L58.6692 95.172C58.6421 95.2702 58.6147 95.363 58.587 95.4505C58.5593 95.538 58.5231 95.6179 58.4785 95.6902C58.4339 95.7624 58.3807 95.8244 58.3189 95.876C58.2517 95.9279 58.1731 95.967 58.083 95.9932C58.2354 96.0283 58.3606 96.1078 58.4585 96.2317C58.5567 96.361 58.6404 96.5206 58.7095 96.7106L59.1322 97.8501L58.4243 97.8872L58.01 96.7553C57.9657 96.6286 57.9148 96.5291 57.8572 96.4568C57.7946 96.3902 57.7301 96.3398 57.6638 96.3056C57.5921 96.2717 57.5184 96.2514 57.4428 96.2446C57.3674 96.2432 57.2922 96.2444 57.2171 96.2484L56.839 96.2682L56.9279 97.9656L56.2441 98.0015L56.1552 96.304L55.7771 96.3238C55.702 96.3278 55.627 96.3344 55.5522 96.3437C55.4777 96.3583 55.4092 96.3861 55.3468 96.427C55.2791 96.4682 55.2202 96.5251 55.1703 96.5976C55.1206 96.6755 55.0776 96.78 55.0415 96.9109L54.7478 98.0799L54.0398 98.117L54.3411 96.9396C54.39 96.7434 54.4565 96.5759 54.5407 96.437C54.6251 96.3035 54.7413 96.2114 54.8892 96.1606C54.7046 96.1273 54.5656 96.0404 54.4722 95.9001C54.3737 95.7655 54.2898 95.6005 54.2204 95.4051L53.7583 94.1306L54.4823 94.0926L54.8539 95.1783C54.8981 95.3051 54.9491 95.4046 55.0066 95.4768C55.0591 95.5548 55.1185 95.6108 55.1849 95.645C55.2515 95.6845 55.3253 95.7075 55.4063 95.714C55.4822 95.7262 55.5658 95.7299 55.6569 95.7251L56.1235 95.7007L56.035 94.0112L56.7188 93.9754Z" fill="#D7D7D7" style="fill:#D7D7D7;fill:color(display-p3 0.8417 0.8417 0.8417);fill-opacity:1;"/>
<path d="M52.4044 95.1975L51.75 96.0669L50.2951 97.9414L49.644 97.8988L49.9047 93.9196L50.6121 93.966L50.4235 96.8438L50.4637 96.8464L51.1272 95.9615L52.5735 94.0945L53.2086 94.1361L52.9478 98.1152L52.2485 98.0694L52.4365 95.1996L52.4044 95.1975Z" fill="#D7D7D7" style="fill:#D7D7D7;fill:color(display-p3 0.8417 0.8417 0.8417);fill-opacity:1;"/>
<path d="M47.7639 94.6224C47.6492 94.4755 47.5047 94.3559 47.3307 94.2635C47.1513 94.1702 46.9851 94.1093 46.832 94.0809C46.663 94.0496 46.5201 94.0395 46.4033 94.0507C46.2803 94.0661 46.1796 94.0938 46.1012 94.1339C46.0165 94.1783 45.9519 94.2319 45.9075 94.2947C45.8621 94.3627 45.8326 94.4337 45.8189 94.5076C45.7846 94.6925 45.83 94.8456 45.9549 94.9671C46.0746 95.0876 46.24 95.1674 46.4513 95.2066L46.9899 95.3064L46.8856 95.8688L46.3312 95.766C46.12 95.7269 45.947 95.7467 45.8122 95.8255C45.6764 95.9096 45.5944 96.0282 45.566 96.1813C45.5337 96.3556 45.5868 96.4965 45.7252 96.6041C45.8627 96.717 46.0291 96.7915 46.2245 96.8277C46.3776 96.8561 46.5431 96.8622 46.7209 96.846C46.8924 96.8341 47.0581 96.7802 47.2179 96.6842L47.5511 97.2293C47.334 97.3693 47.0945 97.4533 46.8326 97.4812C46.5707 97.5091 46.3156 97.5001 46.0674 97.4541C45.8404 97.412 45.6477 97.3462 45.4895 97.2568C45.326 97.1664 45.1981 97.0608 45.1058 96.9399C45.0083 96.8181 44.9427 96.6857 44.9091 96.5429C44.8745 96.4054 44.8709 96.2628 44.8983 96.1149C44.909 96.0568 44.927 95.9891 44.9523 95.9119C44.9765 95.8399 45.0171 95.7683 45.0741 95.6969C45.1257 95.6245 45.1954 95.5582 45.283 95.498C45.3644 95.4421 45.4702 95.4016 45.6004 95.3766C45.4878 95.3066 45.3987 95.2272 45.3332 95.1386C45.2677 95.05 45.2217 94.9595 45.1951 94.8672C45.1632 94.7739 45.1467 94.6862 45.1455 94.6041C45.1444 94.5219 45.1492 94.4518 45.16 94.3937C45.1923 94.2194 45.2538 94.0643 45.3446 93.9281C45.4344 93.7973 45.5529 93.6882 45.7002 93.6008C45.8465 93.5187 46.0206 93.4635 46.2224 93.4354C46.4233 93.4126 46.6505 93.4246 46.9039 93.4716C47.1574 93.5186 47.4045 93.5999 47.6453 93.7155C47.8798 93.8355 48.0855 94.0074 48.2624 94.2314L47.7639 94.6224Z" fill="#D7D7D7" style="fill:#D7D7D7;fill:color(display-p3 0.8417 0.8417 0.8417);fill-opacity:1;"/>
<path d="M41.3257 92.1289L40.8216 93.7522L42.6373 94.316L43.1414 92.6927L43.803 92.8981L42.6205 96.7064L41.9589 96.501L42.451 94.9161L40.6353 94.3523L40.1432 95.9372L39.4739 95.7294L40.6564 91.9211L41.3257 92.1289Z" fill="#D7D7D7" style="fill:#D7D7D7;fill:color(display-p3 0.8417 0.8417 0.8417);fill-opacity:1;"/>
<path d="M37.9561 92.7883L38.0642 92.5455C38.1298 92.3983 38.1609 92.2623 38.1577 92.1374C38.1524 92.0174 38.1233 91.9045 38.0705 91.7987C38.0105 91.6956 37.9332 91.6053 37.8383 91.5278C37.7386 91.4481 37.6299 91.3821 37.5121 91.3296C37.3895 91.275 37.2362 91.2362 37.0525 91.2132C36.8687 91.1902 36.6692 91.2159 36.4537 91.2905L36.2496 90.6793C36.5213 90.571 36.7888 90.5314 37.0521 90.5605C37.3084 90.5923 37.5518 90.6595 37.7824 90.7622C37.9885 90.8539 38.1727 90.9683 38.3351 91.1053C38.4953 91.2471 38.6226 91.4037 38.7168 91.575C38.8039 91.749 38.852 91.938 38.8612 92.1419C38.8654 92.3437 38.8184 92.555 38.7201 92.7758L38.2908 93.7398C38.1947 93.9557 38.0705 94.1356 37.9183 94.2794C37.7661 94.4233 37.5988 94.5282 37.4167 94.594C37.2296 94.6577 37.0335 94.6821 36.8285 94.6672C36.6164 94.6551 36.4024 94.601 36.1865 94.5048C35.9707 94.4087 35.7862 94.2884 35.633 94.1438C35.4799 93.9992 35.3658 93.8396 35.2906 93.665C35.2106 93.4883 35.1745 93.2988 35.1822 93.0965C35.1829 92.8969 35.2302 92.6916 35.3241 92.4807L35.6453 91.7594L37.9561 92.7883ZM35.9939 92.6995C35.9262 92.8516 35.8904 92.9914 35.8865 93.119C35.8826 93.2466 35.9046 93.3623 35.9525 93.4659C35.9933 93.5723 36.0587 93.6631 36.1486 93.7384C36.2314 93.8164 36.3293 93.8806 36.4421 93.9308C36.555 93.9811 36.6681 94.0109 36.7815 94.0202C36.8949 94.0295 37.0062 94.0174 37.1153 93.9836C37.2243 93.9499 37.325 93.8889 37.4172 93.8006C37.5072 93.7172 37.5839 93.6044 37.6473 93.4621L37.7194 93.3002L36.0562 92.5597L35.9939 92.6995Z" fill="#D7D7D7" style="fill:#D7D7D7;fill:color(display-p3 0.8417 0.8417 0.8417);fill-opacity:1;"/>
<path d="M32.7061 88.189L31.837 89.6498L33.4709 90.6219L34.34 89.1611L34.9354 89.5153L32.8966 92.9423L32.3012 92.5881L33.1496 91.1619L31.5157 90.1898L30.6673 91.616L30.0649 91.2577L32.1038 87.8307L32.7061 88.189Z" fill="#D7D7D7" style="fill:#D7D7D7;fill:color(display-p3 0.8417 0.8417 0.8417);fill-opacity:1;"/>
<path d="M28.8148 85.4805L27.7801 86.8291L29.2884 87.9864L30.3231 86.6379L30.8728 87.0596L28.4453 90.2233L27.8957 89.8015L28.9059 88.485L27.3976 87.3276L26.3873 88.6442L25.8313 88.2176L28.2588 85.0539L28.8148 85.4805Z" fill="#D7D7D7" style="fill:#D7D7D7;fill:color(display-p3 0.8417 0.8417 0.8417);fill-opacity:1;"/>
<path d="M23.7921 82.8674C23.9532 82.702 24.1302 82.5858 24.323 82.5187C24.5083 82.4517 24.6997 82.4283 24.8975 82.4485C25.0914 82.4649 25.282 82.5194 25.4693 82.6119C25.6566 82.7044 25.8311 82.8293 25.9926 82.9867C26.1581 83.1479 26.2895 83.3209 26.3868 83.5057C26.4842 83.6905 26.5436 83.8796 26.5652 84.073C26.5828 84.2627 26.5606 84.451 26.4985 84.6379C26.4326 84.8287 26.3191 85.0067 26.158 85.1722L25.3485 86.0031C25.1874 86.1685 25.0142 86.2847 24.829 86.3517C24.6362 86.4188 24.4447 86.446 24.2547 86.4333C24.057 86.4207 23.8645 86.3682 23.6772 86.2757C23.4823 86.1833 23.3041 86.0584 23.1425 85.901C22.9694 85.7323 22.836 85.5537 22.7424 85.365C22.6412 85.1764 22.5836 84.9854 22.5697 84.7919C22.5482 84.5985 22.5723 84.4083 22.642 84.2213C22.7079 84.0381 22.8215 83.8638 22.9826 83.6984L23.7921 82.8674ZM23.5574 84.0896C23.4375 84.2127 23.3575 84.3372 23.3174 84.4631C23.2735 84.5928 23.2599 84.7183 23.2767 84.8396C23.2897 84.9572 23.3253 85.0668 23.3836 85.1686C23.4419 85.2704 23.5095 85.3588 23.5864 85.4337C23.6672 85.5124 23.7592 85.5796 23.8625 85.6352C23.9658 85.6908 24.0783 85.7254 24.2 85.739C24.3179 85.7489 24.441 85.7301 24.5696 85.6829C24.6943 85.6395 24.8167 85.5562 24.9366 85.4331L25.5662 84.7868C25.6861 84.6637 25.7718 84.5411 25.8234 84.4189C25.8674 84.2968 25.8848 84.1788 25.8757 84.065C25.8666 83.9512 25.831 83.8415 25.7689 83.736C25.7067 83.6304 25.6276 83.5308 25.5314 83.4371C25.4545 83.3622 25.3644 83.2969 25.2611 83.2413C25.1578 83.1857 25.0472 83.1529 24.9294 83.1431C24.8077 83.1295 24.6844 83.1444 24.5597 83.1878C24.4312 83.2351 24.3069 83.3202 24.187 83.4433L23.5574 84.0896Z" fill="#D7D7D7" style="fill:#D7D7D7;fill:color(display-p3 0.8417 0.8417 0.8417);fill-opacity:1;"/>
<path d="M18.6979 83.5049C18.7362 83.4669 18.7699 83.4189 18.7989 83.3609C18.8279 83.3028 18.8481 83.2381 18.8594 83.1668C18.8665 83.0988 18.8607 83.0275 18.8418 82.953C18.8229 82.8784 18.7864 82.8078 18.7323 82.741C18.6715 82.6659 18.6066 82.6113 18.5376 82.5773C18.4652 82.5392 18.3951 82.5165 18.3271 82.5094C18.2549 82.5056 18.1891 82.514 18.1297 82.5345C18.0669 82.5508 18.0146 82.5758 17.9729 82.6096L17.6129 82.1651C17.7031 82.1059 17.8081 82.052 17.9277 82.0035C18.0432 81.9583 18.1693 81.9391 18.3061 81.9459C18.4395 81.9484 18.5789 81.9841 18.7244 82.0529C18.8666 82.1174 19.0069 82.2353 19.1455 82.4064C19.2841 82.5775 19.3736 82.7435 19.4139 82.9043C19.4509 83.0609 19.4585 83.2068 19.4367 83.342C19.4114 83.473 19.3664 83.5923 19.3017 83.7001C19.2293 83.807 19.1514 83.8943 19.0679 83.9619L18.6979 83.5049ZM22.4256 80.9526L21.343 81.0622L18.9789 81.2663L18.5683 80.7592L21.6672 78.2496L22.1134 78.8005L19.8721 80.6155L19.8975 80.6468L20.9977 80.5333L23.3504 80.3281L23.7509 80.8227L20.652 83.3322L20.2109 82.7876L22.4459 80.9776L22.4256 80.9526Z" fill="#D7D7D7" style="fill:#D7D7D7;fill:color(display-p3 0.8417 0.8417 0.8417);fill-opacity:1;"/>
<path d="M14.6609 73.3524L17.7075 71.8993L18.0092 72.5319L14.4027 74.2521L13.1785 71.6853L13.7384 71.4183L14.6609 73.3524Z" fill="#D7D7D7" style="fill:#D7D7D7;fill:color(display-p3 0.8417 0.8417 0.8417);fill-opacity:1;"/>
<path d="M15.0171 66.3359C15.2867 66.579 15.4798 66.7885 15.5963 66.9645C15.7059 67.1372 15.7866 67.2997 15.8384 67.4523C15.9627 67.8185 15.9603 68.1454 15.8311 68.4332C15.7019 68.7209 15.4619 68.9243 15.111 69.0434C14.9025 69.1142 14.7115 69.128 14.538 69.0848C14.3628 69.0365 14.2087 68.9584 14.0756 68.8504C13.9357 68.7391 13.8212 68.6107 13.7321 68.4651C13.6362 68.3162 13.5666 68.1782 13.5235 68.051L13.148 66.9449L12.8581 67.0433C12.5937 67.1331 12.4356 67.269 12.384 67.451C12.3272 67.6347 12.3455 67.8639 12.4387 68.1385C12.4836 68.2707 12.5592 68.4266 12.6655 68.606C12.765 68.7821 12.9263 68.94 13.1496 69.0797L12.7625 69.5684C12.4915 69.3882 12.2857 69.183 12.1452 68.9528C12.0046 68.7226 11.8981 68.5007 11.8256 68.2871C11.6581 67.7938 11.644 67.3931 11.7833 67.0849C11.9157 66.7734 12.2057 66.5417 12.6533 66.3897L15.1553 65.5403L15.3496 66.1125L15.0246 66.3079L15.0171 66.3359ZM13.6896 66.761L14.0288 67.7604C14.0565 67.8417 14.0943 67.9281 14.1424 68.0196C14.1836 68.1077 14.2384 68.1855 14.3067 68.253C14.3699 68.3223 14.4517 68.3711 14.5521 68.3994C14.6456 68.4244 14.756 68.4153 14.8831 68.3721C15.0662 68.31 15.1828 68.2024 15.2329 68.0492C15.2812 67.891 15.2726 67.7153 15.207 67.522C15.1742 67.4254 15.1279 67.3306 15.0679 67.2375C15.0011 67.141 14.931 67.0514 14.8575 66.9686C14.7823 66.8807 14.7063 66.7987 14.6294 66.7227C14.5475 66.6485 14.4732 66.5801 14.4067 66.5176L13.6896 66.761Z" fill="#D7D7D7" style="fill:#D7D7D7;fill:color(display-p3 0.8417 0.8417 0.8417);fill-opacity:1;"/>
<path d="M10.7274 64.5157L11.1204 64.3498C10.8706 64.0789 10.6973 63.8577 10.6005 63.6861C10.5025 63.5093 10.4384 63.35 10.4083 63.2081C10.3268 62.8246 10.3733 62.4881 10.5478 62.1984C10.7212 61.9035 11.0469 61.7052 11.525 61.6036L12.7227 61.349C13.1692 61.2541 13.5396 61.3044 13.8337 61.5C14.1267 61.6902 14.3184 61.9981 14.4089 62.4237C14.439 62.5655 14.4584 62.7343 14.4671 62.9301C14.481 63.1248 14.4634 63.3647 14.4142 63.6497L16.1714 63.2762L16.3137 63.9459L10.853 65.1067L10.7274 64.5157ZM13.7759 63.7853C13.8243 63.5225 13.8465 63.3036 13.8422 63.1288C13.838 62.954 13.8186 62.7852 13.784 62.6224C13.7617 62.5173 13.7305 62.4223 13.6905 62.3375C13.6442 62.2485 13.5848 62.176 13.5125 62.12C13.435 62.0651 13.3424 62.0299 13.2347 62.0144C13.1207 61.9947 12.9876 62.001 12.8352 62.0334L11.7163 62.2712C11.4169 62.3349 11.2254 62.4415 11.1419 62.591C11.0531 62.7416 11.031 62.922 11.0757 63.1321C11.0913 63.2057 11.1229 63.2896 11.1704 63.3838C11.2179 63.478 11.2743 63.5758 11.3398 63.6772C11.4042 63.7733 11.4764 63.8678 11.5565 63.9606C11.6314 64.0545 11.7066 64.1373 11.7823 64.2091L13.7759 63.7853Z" fill="#D7D7D7" style="fill:#D7D7D7;fill:color(display-p3 0.8417 0.8417 0.8417);fill-opacity:1;"/>
<path d="M13.1542 56.9562C13.3597 57.2555 13.4985 57.5044 13.5707 57.7027C13.637 57.8961 13.6775 58.0731 13.6923 58.2335C13.7276 58.6186 13.6489 58.9359 13.4561 59.1855C13.2633 59.4352 12.9824 59.5769 12.6134 59.6108C12.3941 59.631 12.2052 59.5998 12.0466 59.5173C11.8875 59.4294 11.7559 59.3175 11.6517 59.1814C11.5417 59.0405 11.4604 58.8889 11.4077 58.7265C11.3492 58.5593 11.3138 58.4089 11.3015 58.2752L11.1946 57.112L10.8898 57.14C10.6117 57.1655 10.4263 57.2608 10.3336 57.4257C10.2355 57.5911 10.1998 57.8182 10.2263 58.107C10.2391 58.2461 10.2762 58.4152 10.3376 58.6145C10.3933 58.809 10.5133 59.0002 10.6978 59.1882L10.2073 59.573C9.98581 59.3345 9.83363 59.0869 9.75072 58.8302C9.66782 58.5736 9.61604 58.333 9.59541 58.1083C9.54775 57.5896 9.6276 57.1966 9.83496 56.9295C10.0365 56.6575 10.3726 56.4999 10.8432 56.4566L13.4744 56.2149L13.5297 56.8165L13.1681 56.9307L13.1542 56.9562ZM11.7642 57.0597L11.8608 58.1105C11.8686 58.1961 11.8852 58.289 11.9106 58.3891C11.9302 58.4844 11.9652 58.5729 12.0159 58.6545C12.0612 58.7366 12.1293 58.8032 12.2203 58.8541C12.3054 58.9002 12.4149 58.9172 12.5486 58.9049C12.7411 58.8872 12.8796 58.8097 12.9641 58.6725C13.048 58.53 13.0807 58.3571 13.062 58.1539C13.0527 58.0523 13.0297 57.9492 12.9932 57.8447C12.9508 57.7353 12.9035 57.6318 12.8514 57.5341C12.7988 57.4311 12.744 57.3337 12.687 57.2418C12.6247 57.1505 12.5684 57.0667 12.5183 56.9904L11.7642 57.0597Z" fill="#D7D7D7" style="fill:#D7D7D7;fill:color(display-p3 0.8417 0.8417 0.8417);fill-opacity:1;"/>
<path d="M13.4493 52.3015L11.7501 52.257L11.7003 54.1576L13.3995 54.2021L13.3814 54.8946L9.39511 54.7902L9.41325 54.0977L11.0722 54.1411L11.122 52.2406L9.46303 52.1971L9.48138 51.4965L13.4677 51.6009L13.4493 52.3015Z" fill="#D7D7D7" style="fill:#D7D7D7;fill:color(display-p3 0.8417 0.8417 0.8417);fill-opacity:1;"/>
<path d="M10.4669 47.8292L13.8074 48.3136L13.7045 49.0231L10.3641 48.5388L10.1872 49.7586L9.57332 49.6696L10.0311 46.5125L10.645 46.6015L10.4669 47.8292Z" fill="#D7D7D7" style="fill:#D7D7D7;fill:color(display-p3 0.8417 0.8417 0.8417);fill-opacity:1;"/>
<path d="M13.3542 44.457L12.6292 43.6456L11.0745 41.853L11.2434 41.2227L15.0952 42.2547L14.9117 42.9395L12.126 42.1931L12.1156 42.232L12.8541 43.0554L14.403 44.8381L14.2383 45.4529L10.3865 44.4208L10.5679 43.7438L13.3459 44.4882L13.3542 44.457Z" fill="#D7D7D7" style="fill:#D7D7D7;fill:color(display-p3 0.8417 0.8417 0.8417);fill-opacity:1;"/>
<path d="M14.1365 39.6052L14.3834 39.7037C14.5331 39.7634 14.6702 39.7892 14.7949 39.7811C14.9146 39.7711 15.0262 39.7375 15.1299 39.6806C15.2306 39.6167 15.3178 39.5358 15.3915 39.438C15.4672 39.3352 15.5289 39.224 15.5767 39.1043C15.6264 38.9796 15.6592 38.8249 15.675 38.6404C15.6907 38.4559 15.6572 38.2575 15.5742 38.0451L16.1768 37.8172C16.2958 38.0844 16.3459 38.3501 16.3272 38.6144C16.3055 38.8717 16.2478 39.1176 16.1543 39.3521C16.0707 39.5616 15.9637 39.7502 15.8332 39.9178C15.6977 40.0835 15.5463 40.2168 15.3788 40.3176C15.2084 40.4116 15.0214 40.4671 14.818 40.4842C14.6165 40.4964 14.4036 40.4577 14.1791 40.3681L13.1989 39.9771C12.9794 39.8895 12.7948 39.7725 12.6451 39.626C12.4954 39.4796 12.384 39.3166 12.311 39.1372C12.2401 38.9527 12.208 38.7578 12.2148 38.5523C12.2186 38.3399 12.2642 38.124 12.3518 37.9045C12.4394 37.685 12.5524 37.4959 12.6909 37.3372C12.8293 37.1785 12.9843 37.0582 13.1558 36.9763C13.3292 36.8893 13.5172 36.8458 13.7196 36.8456C13.9191 36.8384 14.126 36.8776 14.3405 36.9632L15.0738 37.2557L14.1365 39.6052ZM14.1482 37.641C13.9936 37.5794 13.8524 37.5491 13.7248 37.5502C13.5971 37.5513 13.4824 37.5778 13.3808 37.6298C13.2761 37.6748 13.1879 37.7436 13.1162 37.8365C13.0415 37.9223 12.9812 38.0226 12.9354 38.1373C12.8897 38.252 12.8643 38.3663 12.8595 38.48C12.8546 38.5936 12.8711 38.7043 12.9091 38.812C12.9471 38.9197 13.012 39.0179 13.1039 39.1065C13.1907 39.1932 13.3065 39.2654 13.4511 39.3231L13.6157 39.3888L14.2904 37.6978L14.1482 37.641Z" fill="#D7D7D7" style="fill:#D7D7D7;fill:color(display-p3 0.8417 0.8417 0.8417);fill-opacity:1;"/>
<path d="M12.8751 32.8294C12.9248 32.8503 12.9821 32.8631 13.0468 32.8677C13.1115 32.8723 13.179 32.8661 13.2493 32.8493C13.3148 32.8299 13.3784 32.7972 13.44 32.7512C13.5017 32.7052 13.553 32.6445 13.594 32.5689C13.6401 32.484 13.6657 32.4031 13.6707 32.3264C13.6782 32.245 13.6723 32.1715 13.6529 32.1059C13.6288 32.0378 13.5959 31.9802 13.5542 31.9332C13.5151 31.8814 13.4719 31.8427 13.4247 31.817L13.6976 31.3144C13.7869 31.3751 13.8769 31.4514 13.9675 31.5434C14.0534 31.6328 14.1194 31.742 14.1655 31.8709C14.2142 31.9951 14.2346 32.1376 14.2268 32.2983C14.2215 32.4544 14.1663 32.6291 14.0612 32.8226C13.9562 33.0161 13.8371 33.1623 13.704 33.2612C13.5734 33.3553 13.4415 33.4181 13.3083 33.4497C13.1776 33.4765 13.0501 33.4806 12.9258 33.462C12.7993 33.4361 12.6888 33.3975 12.5944 33.3462L12.8751 32.8294ZM16.6596 35.2968L16.144 34.3385L15.0509 32.2324L15.3622 31.659L18.8666 33.5617L18.5284 34.1847L15.9939 32.8086L15.9746 32.844L16.5005 33.817L17.5905 35.9122L17.2868 36.4715L13.7824 34.5687L14.1168 33.9528L16.6442 35.3251L16.6596 35.2968Z" fill="#D7D7D7" style="fill:#D7D7D7;fill:color(display-p3 0.8417 0.8417 0.8417);fill-opacity:1;"/>
<path d="M22.4804 28.2927L19.511 25.6191L19.9691 25.1102L21.2323 26.2476L21.6851 25.7447C21.7354 25.6888 21.7838 25.6311 21.8301 25.5717C21.8724 25.5086 21.9012 25.4405 21.9163 25.3675C21.9315 25.2944 21.9311 25.2146 21.9152 25.128C21.8988 25.0338 21.8572 24.9276 21.7901 24.8094L21.1927 23.7512L21.6671 23.2244L22.2651 24.2939C22.3656 24.4712 22.4352 24.6387 22.4739 24.7964C22.5122 24.9465 22.497 25.0918 22.4283 25.2323C22.5824 25.1253 22.7421 25.0884 22.9074 25.1216C23.0687 25.1512 23.2447 25.2085 23.4355 25.2936L24.685 25.8441L24.1999 26.3829L23.1479 25.9019C23.0234 25.8476 22.9152 25.8152 22.8234 25.8048C22.7312 25.7868 22.6496 25.7892 22.5785 25.8119C22.5035 25.8311 22.4368 25.865 22.3785 25.9137C22.3162 25.9588 22.2545 26.0153 22.1934 26.0831L21.6814 26.6519L22.9386 27.7838L22.4804 28.2927Z" fill="#D7D7D7" style="fill:#D7D7D7;fill:color(display-p3 0.8417 0.8417 0.8417);fill-opacity:1;"/>
<path d="M27.0751 21.7097C27.2274 21.8833 27.3294 22.0689 27.3811 22.2664C27.4334 22.4563 27.4417 22.649 27.406 22.8446C27.3744 23.0366 27.3051 23.2223 27.1982 23.4018C27.0913 23.5813 26.9531 23.7454 26.7835 23.8941C26.6099 24.0464 26.4271 24.1638 26.2352 24.2463C26.0433 24.3289 25.8501 24.3733 25.6556 24.3796C25.4652 24.3824 25.2792 24.3454 25.0977 24.2688C24.9127 24.1882 24.7441 24.0611 24.5918 23.8875L23.827 23.0153C23.6747 22.8417 23.5724 22.6599 23.5202 22.47C23.4684 22.2725 23.4564 22.0795 23.4839 21.891C23.512 21.695 23.5795 21.5072 23.6864 21.3277C23.7938 21.1407 23.9323 20.9728 24.1019 20.8241C24.2836 20.6647 24.4722 20.5458 24.6676 20.4673C24.8635 20.3812 25.0585 20.3388 25.2525 20.3401C25.447 20.3338 25.6347 20.3727 25.8157 20.4569C25.9931 20.537 26.158 20.6639 26.3102 20.8375L27.0751 21.7097ZM25.8751 21.3799C25.7618 21.2507 25.644 21.1611 25.5216 21.1112C25.3958 21.0573 25.2717 21.034 25.1495 21.0412C25.0312 21.0448 24.9191 21.0717 24.8131 21.1219C24.707 21.172 24.6136 21.2325 24.5329 21.3033C24.4481 21.3777 24.3739 21.4641 24.3104 21.5627C24.2468 21.6613 24.2035 21.7708 24.1804 21.891C24.1613 22.0078 24.1703 22.132 24.2073 22.2638C24.2408 22.3916 24.3142 22.5201 24.4275 22.6493L25.0224 23.3277C25.1357 23.4569 25.2513 23.552 25.3691 23.613C25.4874 23.6664 25.6036 23.6931 25.7178 23.693C25.8319 23.6928 25.9441 23.6659 26.0542 23.6122C26.1642 23.5586 26.2697 23.4875 26.3707 23.3989C26.4514 23.3281 26.5236 23.2434 26.5871 23.1448C26.6507 23.0462 26.692 22.9386 26.7111 22.8218C26.7342 22.7016 26.729 22.5776 26.6955 22.4498C26.6585 22.3179 26.5833 22.1874 26.47 22.0582L25.8751 21.3799Z" fill="#D7D7D7" style="fill:#D7D7D7;fill:color(display-p3 0.8417 0.8417 0.8417);fill-opacity:1;"/>
<path d="M27.371 18.1935L27.6747 18.4931C27.8294 18.1587 27.9674 17.9139 28.0889 17.7588C28.2148 17.6006 28.3374 17.4804 28.4569 17.3983C28.7801 17.1762 29.1088 17.0904 29.4432 17.1408C29.782 17.1881 30.0898 17.4132 30.3667 17.816L31.0602 18.8251C31.3188 19.2013 31.414 19.5627 31.3459 19.9093C31.2822 20.2528 31.0711 20.5478 30.7126 20.7942C30.5931 20.8763 30.4446 20.9588 30.267 21.0418C30.0924 21.1292 29.8641 21.2047 29.5819 21.2682L30.5995 22.7487L30.0351 23.1366L26.8731 18.5357L27.371 18.1935ZM29.2124 20.7305C29.4738 20.6746 29.6844 20.6113 29.8443 20.5405C30.0042 20.4698 30.1527 20.3872 30.2899 20.2929C30.3784 20.2321 30.4542 20.1669 30.5173 20.0975C30.5818 20.0206 30.626 19.9381 30.6501 19.8499C30.6712 19.7572 30.6683 19.6582 30.6415 19.5528C30.616 19.4399 30.5592 19.3193 30.471 19.191L29.8231 18.2482C29.6497 17.9959 29.4779 17.8598 29.3078 17.8399C29.1347 17.8155 28.9596 17.8642 28.7825 17.9858C28.7206 18.0284 28.6552 18.0897 28.5863 18.1696C28.5174 18.2495 28.4486 18.3391 28.38 18.4384C28.3158 18.5347 28.2562 18.6376 28.2012 18.7471C28.143 18.8522 28.0953 18.9534 28.058 19.0508L29.2124 20.7305Z" fill="#D7D7D7" style="fill:#D7D7D7;fill:color(display-p3 0.8417 0.8417 0.8417);fill-opacity:1;"/>
<path d="M31.7288 15.3464L31.9952 15.6796C32.1881 15.3657 32.354 15.1389 32.4928 14.9991C32.6364 14.8568 32.7724 14.7519 32.9007 14.6843C33.2476 14.5018 33.5842 14.4552 33.9104 14.5445C34.2413 14.6314 34.5205 14.8911 34.7481 15.3236L35.3182 16.4072C35.5308 16.8112 35.5829 17.1813 35.4745 17.5175C35.3709 17.8511 35.1266 18.1192 34.7417 18.3218C34.6133 18.3893 34.4561 18.4538 34.27 18.5153C34.0864 18.5816 33.8508 18.6297 33.5631 18.6597L34.3996 20.2495L33.7936 20.5683L31.1941 15.6277L31.7288 15.3464ZM33.2593 18.0822C33.5254 18.0575 33.742 18.0194 33.9091 17.9679C34.0762 17.9164 34.2334 17.8518 34.3808 17.7743C34.4758 17.7243 34.5588 17.6685 34.6296 17.607C34.7026 17.5382 34.7563 17.4615 34.7906 17.3767C34.8223 17.2871 34.8311 17.1884 34.8169 17.0806C34.8049 16.9656 34.7626 16.8391 34.6901 16.7013L34.1575 15.6889C34.0149 15.418 33.8604 15.2627 33.6938 15.2229C33.5247 15.1783 33.3451 15.2061 33.155 15.3061C33.0884 15.3411 33.0163 15.3942 32.9385 15.4655C32.8607 15.5368 32.7819 15.6177 32.7021 15.7082C32.627 15.7963 32.5557 15.8914 32.4882 15.9937C32.4181 16.0913 32.3588 16.1862 32.3103 16.2785L33.2593 18.0822Z" fill="#D7D7D7" style="fill:#D7D7D7;fill:color(display-p3 0.8417 0.8417 0.8417);fill-opacity:1;"/>
<path d="M37.2705 15.1028L37.3658 15.351C37.4235 15.5014 37.4977 15.6196 37.5882 15.7057C37.6768 15.7867 37.7773 15.8459 37.8894 15.8834C38.0047 15.914 38.1233 15.9231 38.2451 15.9108C38.372 15.8967 38.4956 15.8665 38.6159 15.8203C38.7413 15.7722 38.877 15.6913 39.0233 15.5776C39.1695 15.464 39.2924 15.3046 39.392 15.0995L39.9685 15.3874C39.853 15.6561 39.6919 15.8732 39.4851 16.0389C39.2814 16.1976 39.0617 16.3222 38.8261 16.4127C38.6155 16.4935 38.4043 16.5429 38.1926 16.5609C37.979 16.5739 37.7783 16.5531 37.5906 16.4986C37.4059 16.4372 37.2383 16.3376 37.0876 16.1998C36.9419 16.0602 36.8258 15.8775 36.7392 15.6519L36.361 14.6667C36.2763 14.4461 36.2369 14.2311 36.2429 14.0217C36.2488 13.8123 36.2929 13.6199 36.3751 13.4446C36.4624 13.2672 36.5837 13.1114 36.7392 12.9769C36.8978 12.8355 37.0874 12.7224 37.308 12.6378C37.5286 12.5531 37.7442 12.5077 37.9547 12.5017C38.1652 12.4957 38.3588 12.5278 38.5353 12.5981C38.7169 12.6664 38.8765 12.7749 39.014 12.9234C39.1547 13.065 39.2664 13.2436 39.3491 13.4592L39.632 14.1963L37.2705 15.1028ZM38.7208 13.7781C38.6611 13.6227 38.5876 13.4985 38.5001 13.4055C38.4126 13.3125 38.3153 13.2463 38.2081 13.2069C38.1041 13.1606 37.9936 13.1426 37.8768 13.1529C37.763 13.1563 37.6485 13.1801 37.5332 13.2244C37.4178 13.2686 37.3168 13.3276 37.23 13.4012C37.1432 13.4748 37.0731 13.562 37.0199 13.663C36.9666 13.764 36.9385 13.8783 36.9358 14.006C36.9311 14.1286 36.9566 14.2626 37.0124 14.408L37.0759 14.5734L38.7756 13.921L38.7208 13.7781Z" fill="#D7D7D7" style="fill:#D7D7D7;fill:color(display-p3 0.8417 0.8417 0.8417);fill-opacity:1;"/>
<path d="M41.9167 15.248L40.9331 11.3752L41.5968 11.2066L42.0152 12.8541L42.6711 12.6876C42.744 12.669 42.8162 12.6479 42.8878 12.6242C42.958 12.5953 43.0197 12.5547 43.0729 12.5024C43.1261 12.4501 43.1702 12.3835 43.205 12.3026C43.2438 12.2152 43.2681 12.1037 43.278 11.9682L43.3692 10.7565L44.0563 10.582L43.9593 11.8035C43.9444 12.0068 43.9093 12.1847 43.8538 12.3373C43.8023 12.4834 43.7089 12.5958 43.5737 12.6744C43.7613 12.6711 43.9146 12.7291 44.0336 12.8485C44.1512 12.9627 44.2657 13.1082 44.3771 13.2849L45.1102 14.4369L44.4075 14.6154L43.8001 13.631C43.7267 13.5166 43.6547 13.4296 43.5842 13.3699C43.5175 13.3038 43.4483 13.2604 43.3766 13.2398C43.3035 13.214 43.2292 13.2052 43.1537 13.2133C43.0769 13.2162 42.9942 13.2289 42.9057 13.2513L42.164 13.4397L42.5804 15.0794L41.9167 15.248Z" fill="#D7D7D7" style="fill:#D7D7D7;fill:color(display-p3 0.8417 0.8417 0.8417);fill-opacity:1;"/>
<path d="M47.7076 10.5649L48.1482 13.9114L47.4373 14.005L46.9968 10.6585L45.7748 10.8193L45.6938 10.2043L48.8567 9.78796L48.9376 10.403L47.7076 10.5649Z" fill="#D7D7D7" style="fill:#D7D7D7;fill:color(display-p3 0.8417 0.8417 0.8417);fill-opacity:1;"/>
<path d="M53.6367 13.5343L53.6145 11.8347L51.7135 11.8595L51.7357 13.5592L51.043 13.5682L50.9908 9.58093L51.6835 9.57186L51.7052 11.2312L53.6063 11.2063L53.5845 9.54698L54.2853 9.53781L54.3375 13.5251L53.6367 13.5343Z" fill="#D7D7D7" style="fill:#D7D7D7;fill:color(display-p3 0.8417 0.8417 0.8417);fill-opacity:1;"/>
<path d="M59.2002 12.4678C59.1761 12.6974 59.109 12.8983 58.9991 13.0704C58.8952 13.2376 58.7593 13.3745 58.5915 13.4811C58.429 13.5882 58.2456 13.6635 58.0412 13.7068C57.8369 13.7501 57.6225 13.76 57.3982 13.7364C57.1685 13.7122 56.9582 13.6577 56.7674 13.5729C56.5765 13.488 56.4127 13.3763 56.2761 13.2377C56.1448 13.0997 56.0457 12.9381 55.9787 12.7529C55.9124 12.5623 55.8912 12.3521 55.9154 12.1225L56.0367 10.9688C56.0608 10.7391 56.1249 10.5406 56.2289 10.3734C56.3387 10.2013 56.4722 10.0614 56.6294 9.95376C56.7924 9.84129 56.9761 9.7634 57.1805 9.72008C57.3907 9.67198 57.608 9.65972 57.8323 9.6833C58.0727 9.70856 58.288 9.7663 58.4784 9.85651C58.6746 9.94194 58.8381 10.0563 58.9688 10.1997C59.1054 10.3382 59.2043 10.5025 59.2653 10.6926C59.3269 10.8772 59.3456 11.0844 59.3215 11.3141L59.2002 12.4678ZM58.6278 11.3627C58.6458 11.1918 58.6316 11.0445 58.5852 10.9208C58.5393 10.7918 58.4723 10.6848 58.384 10.5999C58.3011 10.5156 58.2052 10.4515 58.0964 10.4077C57.9876 10.3638 57.8798 10.3363 57.773 10.3251C57.6608 10.3133 57.547 10.3175 57.4314 10.3378C57.3159 10.358 57.2061 10.4005 57.1021 10.4652C57.0035 10.5304 56.9183 10.6214 56.8466 10.738C56.7755 10.8494 56.731 10.9905 56.713 11.1614L56.6187 12.0587C56.6007 12.2296 56.6093 12.379 56.6445 12.5069C56.6856 12.63 56.7449 12.7335 56.8225 12.8172C56.9001 12.901 56.9959 12.9651 57.1101 13.0095C57.2242 13.0539 57.3481 13.0831 57.4816 13.0971C57.5884 13.1084 57.6996 13.1039 57.8151 13.0836C57.9307 13.0633 58.0377 13.0206 58.1364 12.9554C58.2404 12.8907 58.328 12.8027 58.3991 12.6914C58.4707 12.5747 58.5155 12.4309 58.5335 12.26L58.6278 11.3627Z" fill="#D7D7D7" style="fill:#D7D7D7;fill:color(display-p3 0.8417 0.8417 0.8417);fill-opacity:1;"/>
<path d="M62.8135 8.81442C62.8069 8.86798 62.8101 8.92654 62.8233 8.99009C62.8364 9.05363 62.8606 9.11693 62.8959 9.17998C62.9324 9.23779 62.9811 9.29012 63.0421 9.33695C63.1031 9.38379 63.1755 9.41669 63.2593 9.43566C63.3536 9.45699 63.4384 9.45965 63.5136 9.44363C63.594 9.4288 63.6631 9.40314 63.7209 9.36667C63.7799 9.32495 63.8264 9.27766 63.8604 9.22478C63.8997 9.17309 63.9252 9.12105 63.9371 9.06867L64.4949 9.1949C64.4607 9.29729 64.4117 9.40458 64.3477 9.51676C64.285 9.6237 64.1978 9.71686 64.0863 9.79624C63.9799 9.8768 63.8484 9.93512 63.6915 9.97121C63.5399 10.0085 63.3567 10.0028 63.142 9.95423C62.9272 9.90564 62.7542 9.8307 62.6229 9.72941C62.4969 9.62931 62.4006 9.51942 62.3341 9.39975C62.2728 9.28126 62.2343 9.15965 62.2184 9.03493C62.209 8.90616 62.2162 8.78939 62.2399 8.68463L62.8135 8.81442ZM61.466 13.1266L62.2484 12.3703L63.9786 10.7465L64.6151 10.8905L63.735 14.7798L63.0435 14.6234L63.68 11.8105L63.6408 11.8016L62.847 12.5718L61.1264 14.1896L60.5056 14.0491L61.3857 10.1598L62.0693 10.3145L61.4346 13.1195L61.466 13.1266Z" fill="#D7D7D7" style="fill:#D7D7D7;fill:color(display-p3 0.8417 0.8417 0.8417);fill-opacity:1;"/>
<path d="M71.9004 13.4254L71.7874 13.8367C72.1547 13.8083 72.4357 13.8091 72.6305 13.8393C72.83 13.8718 72.9948 13.9201 73.1248 13.9843C73.4765 14.1577 73.712 14.4026 73.8314 14.719C73.9557 15.0377 73.9097 15.4163 73.6936 15.8546L73.152 16.9528C72.9501 17.3622 72.6813 17.6219 72.3457 17.7318C72.0148 17.8441 71.6543 17.8041 71.2642 17.6117C71.1341 17.5476 70.9895 17.4583 70.8304 17.3439C70.6688 17.2343 70.4914 17.0719 70.2981 16.8568L69.5035 18.468L68.8894 18.1652L71.3585 13.1582L71.9004 13.4254ZM70.5867 16.2716C70.7631 16.4724 70.9213 16.6252 71.0612 16.7301C71.201 16.835 71.3456 16.9243 71.495 16.9979C71.5913 17.0455 71.6852 17.0798 71.7765 17.1009C71.8751 17.1195 71.9688 17.1178 72.0575 17.0957C72.1487 17.0688 72.2336 17.0179 72.3125 16.943C72.3985 16.8657 72.476 16.7572 72.5449 16.6175L73.0508 15.5915C73.1862 15.317 73.221 15.1006 73.1553 14.9424C73.092 14.7795 72.964 14.6505 72.7713 14.5555C72.7039 14.5222 72.6185 14.4951 72.5151 14.474C72.4117 14.453 72.2999 14.4368 72.1797 14.4254C72.0644 14.4164 71.9455 14.4147 71.823 14.4202C71.7029 14.4208 71.5913 14.4287 71.4881 14.4436L70.5867 16.2716Z" fill="#D7D7D7" style="fill:#D7D7D7;fill:color(display-p3 0.8417 0.8417 0.8417);fill-opacity:1;"/>
<path d="M76.324 20.0155C75.9617 19.9916 75.6803 19.9466 75.4799 19.8805C75.287 19.8128 75.1229 19.7351 74.9878 19.6473C74.6635 19.4367 74.463 19.1784 74.3863 18.8725C74.3097 18.5665 74.3722 18.2582 74.5741 17.9474C74.694 17.7627 74.8354 17.6337 74.9984 17.5602C75.1659 17.4897 75.3353 17.4556 75.5066 17.458C75.6854 17.4588 75.8548 17.4888 76.015 17.548C76.1825 17.6055 76.3226 17.6709 76.4352 17.744L77.4148 18.3802L77.5815 18.1235C77.7336 17.8893 77.7736 17.6847 77.7015 17.5098C77.6323 17.3304 77.4761 17.1617 77.2329 17.0037C77.1158 16.9277 76.9599 16.8521 76.7654 16.777C76.5783 16.7003 76.3538 16.6762 76.0919 16.7046L76.0934 16.0812C76.4178 16.055 76.7065 16.0887 76.9593 16.1825C77.2122 16.2763 77.4332 16.3846 77.6224 16.5075C78.0593 16.7912 78.3185 17.0972 78.3999 17.4254C78.4887 17.7521 78.4044 18.1136 78.147 18.5099L76.7079 20.726L76.2012 20.3969L76.3355 20.0422L76.324 20.0155ZM77.1033 18.8599L76.2182 18.2851C76.1462 18.2383 76.0629 18.1939 75.9686 18.1518C75.8817 18.1082 75.7905 18.081 75.695 18.0702C75.6025 18.0549 75.508 18.0672 75.4117 18.1071C75.3228 18.1454 75.2417 18.2209 75.1686 18.3335C75.0633 18.4956 75.0384 18.6524 75.0938 18.8036C75.1538 18.9578 75.2693 19.0905 75.4405 19.2017C75.5261 19.2572 75.6212 19.303 75.7259 19.339C75.8381 19.3734 75.9486 19.4004 76.0576 19.4199C76.1711 19.4424 76.2815 19.4597 76.3889 19.4718C76.4992 19.4794 76.5999 19.4871 76.6908 19.495L77.1033 18.8599Z" fill="#D7D7D7" style="fill:#D7D7D7;fill:color(display-p3 0.8417 0.8417 0.8417);fill-opacity:1;"/>
<path d="M80.5937 19.3126C80.692 19.3036 80.7918 19.3097 80.8929 19.3309C80.994 19.3521 81.0882 19.3816 81.1756 19.4193C81.2664 19.4529 81.3462 19.4914 81.415 19.5346C81.4879 19.5813 81.5471 19.6235 81.5925 19.6613C81.9807 19.9841 82.1914 20.327 82.2248 20.6901C82.2623 21.0565 82.1333 21.4173 81.838 21.7724L81.2611 22.4661C81.1134 22.6437 80.9444 22.7755 80.754 22.8617C80.5712 22.9471 80.3787 22.9896 80.1765 22.9891C79.9785 22.9921 79.7807 22.9568 79.5833 22.8835C79.3893 22.806 79.2056 22.6951 79.0322 22.5508C78.6358 22.2212 78.4102 21.8624 78.3555 21.4747C78.3008 21.0869 78.4229 20.7134 78.7216 20.3542L79.4531 19.4747C79.6008 19.2971 79.7584 19.1243 79.926 18.9564C80.1012 18.7878 80.2843 18.6432 80.4754 18.5227C80.6698 18.398 80.8767 18.3046 81.096 18.2425C81.3153 18.1804 81.5467 18.1668 81.7902 18.2016C81.991 18.2289 82.1956 18.2769 82.404 18.3454C82.6124 18.414 82.8129 18.4795 83.0055 18.5418C83.0723 18.5624 83.1273 18.5802 83.1706 18.5953C83.2215 18.6097 83.2724 18.6241 83.3233 18.6385C83.3742 18.6529 83.4289 18.6669 83.4874 18.6806C83.5499 18.6977 83.6263 18.7193 83.7164 18.7454L83.5375 19.351C83.369 19.3017 83.2338 19.2626 83.132 19.2338C83.0337 19.2009 82.9491 19.1725 82.8782 19.1485C82.8115 19.1279 82.7506 19.1087 82.6956 19.0909C82.644 19.0689 82.5811 19.048 82.5068 19.0281C82.2715 18.9582 82.0704 18.9062 81.9032 18.8719C81.7361 18.8377 81.5807 18.8272 81.437 18.8404C81.2933 18.8536 81.1561 18.8967 81.0256 18.9698C80.8984 19.0387 80.7572 19.1412 80.6019 19.2776L80.5937 19.3126ZM81.2343 21.4275C81.4575 21.1591 81.5477 20.9163 81.5048 20.699C81.462 20.4818 81.327 20.2787 81.0999 20.0898C81.0132 20.0177 80.9145 19.9601 80.8037 19.9169C80.693 19.8736 80.5747 19.8521 80.4488 19.8522C80.3305 19.8516 80.2092 19.88 80.0848 19.9372C79.9604 19.9944 79.8432 20.089 79.7334 20.2211L79.3161 20.7228C79.2062 20.855 79.1304 20.984 79.0885 21.1099C79.0543 21.235 79.0461 21.354 79.0641 21.4668C79.0821 21.5795 79.1262 21.6861 79.1965 21.7864C79.2667 21.8867 79.3534 21.9798 79.4567 22.0656C79.5516 22.1446 79.6528 22.2078 79.7601 22.2551C79.8716 22.3059 79.9843 22.3299 80.0985 22.327C80.2168 22.3276 80.3343 22.2996 80.4512 22.2431C80.5714 22.1825 80.6865 22.0861 80.7964 21.954L81.2343 21.4275Z" fill="#D7D7D7" style="fill:#D7D7D7;fill:color(display-p3 0.8417 0.8417 0.8417);fill-opacity:1;"/>
<path d="M84.7312 25.9502C84.5637 26.1091 84.3823 26.2183 84.187 26.2778C83.9993 26.3375 83.8071 26.3533 83.6102 26.3254C83.4171 26.3013 83.2288 26.2394 83.0453 26.1396C82.8617 26.0398 82.6923 25.9081 82.5371 25.7445C82.3781 25.577 82.2536 25.399 82.1636 25.2105C82.0736 25.022 82.0216 24.8307 82.0077 24.6366C81.9975 24.4464 82.0271 24.2591 82.0965 24.0748C82.1698 23.8867 82.2902 23.7132 82.4577 23.5543L83.2992 22.7558C83.4667 22.5968 83.6443 22.4875 83.832 22.4278C84.0273 22.3684 84.2197 22.3487 84.4091 22.3689C84.6061 22.3892 84.7964 22.4493 84.9799 22.5491C85.171 22.6491 85.3442 22.7809 85.4995 22.9445C85.6658 23.1198 85.7921 23.3035 85.8782 23.4957C85.972 23.6881 86.022 23.8813 86.0283 24.0752C86.0422 24.2693 86.0107 24.4584 85.9337 24.6425C85.8605 24.823 85.7402 24.9927 85.5727 25.1516L84.7312 25.9502ZM85.0137 24.7381C85.1384 24.6198 85.2232 24.4986 85.2683 24.3744C85.3172 24.2465 85.3357 24.1216 85.3237 23.9998C85.3154 23.8818 85.2841 23.7708 85.2298 23.6668C85.1756 23.5628 85.1115 23.4718 85.0375 23.3939C84.9599 23.3121 84.8706 23.2414 84.7696 23.1818C84.6686 23.1221 84.5575 23.0831 84.4364 23.0648C84.3191 23.0503 84.1952 23.0642 84.065 23.1063C83.9386 23.1448 83.8131 23.2232 83.6884 23.3415L83.0339 23.9626C82.9093 24.0809 82.8188 24.2001 82.7624 24.3201C82.7137 24.4404 82.6916 24.5576 82.6962 24.6717C82.7009 24.7858 82.7321 24.8968 82.7901 25.0047C82.848 25.1125 82.9232 25.2152 83.0157 25.3126C83.0896 25.3905 83.1771 25.4593 83.2781 25.5189C83.3791 25.5785 83.4883 25.6156 83.6057 25.63C83.7267 25.6484 83.8505 25.6384 83.9768 25.5999C84.1071 25.5577 84.2346 25.4775 84.3592 25.3592L85.0137 24.7381Z" fill="#D7D7D7" style="fill:#D7D7D7;fill:color(display-p3 0.8417 0.8417 0.8417);fill-opacity:1;"/>
<path d="M88.5047 27.4502L85.8001 29.4698L85.3711 28.8953L88.0757 26.8757L87.3382 25.8881L87.8353 25.517L89.744 28.0731L89.247 28.4442L88.5047 27.4502Z" fill="#D7D7D7" style="fill:#D7D7D7;fill:color(display-p3 0.8417 0.8417 0.8417);fill-opacity:1;"/>
<path d="M88.9518 34.3216L92.4052 32.3277L92.7395 32.9068L89.2861 34.9006L88.9518 34.3216ZM89.4794 32.7704C89.6097 32.6952 89.7001 32.5779 89.7507 32.4185C89.8059 32.2564 89.7691 32.0637 89.6402 31.8404L89.1206 30.9404L88.0601 31.5527L88.5797 32.4527C88.6952 32.6527 88.828 32.7806 88.9781 32.8366C89.1356 32.8945 89.3027 32.8725 89.4794 32.7704ZM89.6479 30.6453L90.1755 31.5593C90.2883 31.7546 90.3597 31.9428 90.3899 32.1239C90.4273 32.3069 90.4277 32.4741 90.3911 32.6255C90.3571 32.7815 90.2898 32.9227 90.1891 33.049C90.0931 33.1727 89.9707 33.2775 89.8218 33.3634C89.5009 33.5487 89.1823 33.5931 88.8662 33.4966C88.5527 33.4047 88.2831 33.1634 88.0576 32.7727L87.1875 31.2658L90.6479 29.268L90.9943 29.8679L89.6479 30.6453Z" fill="#D7D7D7" style="fill:#D7D7D7;fill:color(display-p3 0.8417 0.8417 0.8417);fill-opacity:1;"/>
<path d="M39.222 48.3812C39.1934 48.5903 39.1284 48.7916 39.0271 48.985C38.9314 49.1792 38.8016 49.3486 38.6379 49.4931C38.4806 49.6328 38.2904 49.7392 38.0673 49.8123C37.8442 49.8854 37.5971 49.9034 37.3257 49.8662L34.8077 49.5213L35.6077 43.6798L38.0325 44.0119C38.2982 44.0483 38.5269 44.1228 38.7188 44.2355C38.9163 44.3489 39.0761 44.4859 39.198 44.6466C39.32 44.8072 39.4049 44.9859 39.4528 45.1824C39.5008 45.379 39.5108 45.5791 39.4829 45.7825C39.4512 46.0143 39.3661 46.2358 39.2278 46.4472C39.0902 46.6529 38.8785 46.8111 38.5928 46.9217C38.8552 47.1073 39.0344 47.3334 39.1304 47.5999C39.2263 47.8664 39.2569 48.1268 39.222 48.3812ZM38.7091 45.6938C38.7509 45.3886 38.6818 45.1575 38.5018 45.0004C38.3274 44.844 38.0876 44.745 37.7824 44.7032L36.2987 44.5L36.063 46.2211L37.6145 46.4336C37.7445 46.4514 37.8712 46.4514 37.9945 46.4338C38.1186 46.4105 38.2281 46.3679 38.3229 46.306C38.4234 46.2449 38.5065 46.1642 38.5721 46.0637C38.6441 45.9584 38.6897 45.8351 38.7091 45.6938ZM38.4505 48.2755C38.4722 48.1173 38.4601 47.9745 38.4142 47.8473C38.3747 47.7152 38.3099 47.5998 38.2197 47.5011C38.1353 47.4032 38.0311 47.3227 37.9073 47.2597C37.7891 47.1974 37.6622 47.157 37.5266 47.1384L35.9666 46.9248L35.6926 48.9256L37.2695 49.1416C37.6143 49.1888 37.8863 49.1368 38.0855 48.9856C38.2847 48.8344 38.4064 48.5977 38.4505 48.2755ZM42.5125 50.5766L42.7575 48.7877L40.7567 48.5136L40.5117 50.3025L39.7825 50.2027L40.3573 46.0059L41.0864 46.1058L40.8472 47.8523L42.8481 48.1263L43.0873 46.3798L43.8249 46.4808L43.2501 50.6776L42.5125 50.5766ZM45.0505 49.0585L45.0122 49.3383C44.9889 49.5078 44.9975 49.6558 45.0377 49.7823C45.0788 49.9031 45.1419 50.0096 45.2272 50.1019C45.3188 50.1893 45.4245 50.2585 45.5442 50.3094C45.6696 50.3611 45.8001 50.3963 45.9357 50.4149C46.0771 50.4342 46.2448 50.4284 46.4391 50.3974C46.6334 50.3665 46.8293 50.281 47.027 50.1411L47.4163 50.704C47.1713 50.895 46.9102 51.0147 46.633 51.0631C46.3621 51.1067 46.0939 51.1102 45.8282 51.0739C45.5908 51.0413 45.369 50.9793 45.1627 50.8877C44.9572 50.7905 44.7811 50.6684 44.6342 50.5216C44.4937 50.37 44.3886 50.1915 44.3188 49.9861C44.2547 49.7816 44.2401 49.5521 44.2749 49.2978L44.427 48.1871C44.4611 47.9384 44.5344 47.7181 44.6471 47.5263C44.7597 47.3344 44.8992 47.1779 45.0655 47.0567C45.2375 46.9363 45.4302 46.8533 45.6438 46.8077C45.8637 46.7572 46.0981 46.749 46.3468 46.783C46.5955 46.8171 46.8194 46.8852 47.0184 46.9873C47.2175 47.0894 47.3812 47.2184 47.5096 47.3742C47.6436 47.5307 47.7367 47.7133 47.7887 47.922C47.8472 48.1258 47.8597 48.3492 47.8265 48.5922L47.7127 49.4231L45.0505 49.0585ZM47.0784 48.5675C47.1024 48.3923 47.0975 48.239 47.0636 48.1077C47.0298 47.9764 46.9731 47.865 46.8935 47.7735C46.8203 47.6771 46.7267 47.6038 46.6126 47.5536C46.505 47.4986 46.3862 47.4621 46.2562 47.4443C46.1262 47.4265 46.002 47.4297 45.8835 47.4538C45.765 47.4778 45.6552 47.5233 45.5539 47.59C45.4526 47.6567 45.3681 47.7488 45.3002 47.8662C45.233 47.9779 45.1882 48.1157 45.1658 48.2797L45.1402 48.4662L47.0563 48.7286L47.0784 48.5675ZM50.0374 47.9881L49.8344 49.0918C49.7514 49.5296 49.6648 49.8891 49.5744 50.1704C49.4905 50.4468 49.3732 50.6726 49.2225 50.8477L51.3082 51.1334L51.7076 48.2169L50.0374 47.9881ZM48.2633 50.725C48.3744 50.6711 48.4728 50.604 48.5587 50.5236C48.6453 50.4376 48.7234 50.3302 48.7928 50.2015C48.863 50.0672 48.9254 49.9059 48.98 49.7176C49.0354 49.5236 49.0901 49.2922 49.1442 49.0232L49.4898 47.2567L52.525 47.6724L52.0373 51.2332L52.3838 51.2893L52.1504 52.9935L51.4636 52.8994L51.6111 51.8227L48.5759 51.407L48.4284 52.4837L47.7417 52.3897L47.9727 50.7025L48.2633 50.725ZM54.2403 47.9073L54.2647 48.3598C54.6252 48.2076 54.9087 48.114 55.115 48.0789C55.327 48.0446 55.5093 48.0379 55.6619 48.0588C56.0746 48.1153 56.3942 48.2829 56.6209 48.5615C56.8533 48.841 56.9343 49.2379 56.8638 49.7522L56.6873 51.0409C56.6215 51.5213 56.438 51.8734 56.1367 52.097C55.8411 52.3214 55.4644 52.4022 55.0066 52.3395C54.854 52.3186 54.6782 52.2773 54.4794 52.2155C54.2798 52.1594 54.0464 52.0554 53.7793 51.9037L53.5204 53.7943L52.7997 53.6956L53.6044 47.8202L54.2403 47.9073ZM53.8734 51.2169C54.1187 51.3599 54.3294 51.4608 54.5056 51.5195C54.6819 51.5782 54.8576 51.6195 55.0328 51.6435C55.1458 51.659 55.252 51.662 55.3511 51.6525C55.4568 51.6382 55.5506 51.605 55.6325 51.5529C55.7153 51.4951 55.7838 51.4153 55.8381 51.3133C55.8988 51.2064 55.9404 51.071 55.9628 50.9071L56.1277 49.7032C56.1718 49.381 56.1342 49.1513 56.0148 49.014C55.8962 48.8711 55.7238 48.7842 55.4977 48.7532C55.4186 48.7424 55.3234 48.7437 55.2122 48.7573C55.1009 48.7708 54.9828 48.7921 54.8579 48.8211C54.7387 48.8508 54.6183 48.889 54.4967 48.9357C54.376 48.9767 54.2661 49.0221 54.1671 49.0719L53.8734 51.2169ZM58.2481 50.866L58.2098 51.1458C58.1866 51.3153 58.1951 51.4633 58.2354 51.5898C58.2764 51.7106 58.3395 51.8171 58.4248 51.9094C58.5165 51.9968 58.6222 52.066 58.7419 52.1169C58.8672 52.1686 58.9977 52.2038 59.1334 52.2224C59.2747 52.2417 59.4425 52.2359 59.6367 52.2049C59.831 52.1739 60.0269 52.0885 60.2246 51.9486L60.6139 52.5115C60.369 52.7025 60.1078 52.8222 59.8306 52.8706C59.5597 52.9142 59.2915 52.9177 59.0258 52.8813C58.7885 52.8488 58.5666 52.7868 58.3604 52.6952C58.1549 52.5979 57.9787 52.4759 57.8318 52.3291C57.6913 52.1775 57.5862 51.999 57.5165 51.7936C57.4523 51.5891 57.4377 51.3596 57.4725 51.1053L57.6246 49.9946C57.6587 49.7459 57.7321 49.5256 57.8447 49.3338C57.9574 49.1419 58.0968 48.9854 58.2631 48.8642C58.4351 48.7438 58.6279 48.6608 58.8414 48.6152C59.0614 48.5647 59.2957 48.5565 59.5444 48.5905C59.7931 48.6246 60.017 48.6927 60.216 48.7948C60.4151 48.8969 60.5788 49.0259 60.7072 49.1816C60.8412 49.3382 60.9343 49.5208 60.9863 49.7295C61.0448 49.9333 61.0574 50.1567 61.0241 50.3997L60.9103 51.2306L58.2481 50.866ZM60.276 50.375C60.3 50.1998 60.2951 50.0465 60.2613 49.9152C60.2274 49.7839 60.1707 49.6725 60.0911 49.581C60.0179 49.4846 59.9243 49.4113 59.8103 49.3611C59.7026 49.3061 59.5838 49.2696 59.4538 49.2518C59.3238 49.234 59.1996 49.2372 59.0811 49.2612C58.9627 49.2853 58.8528 49.3307 58.7515 49.3975C58.6503 49.4642 58.5657 49.5563 58.4978 49.6737C58.4306 49.7854 58.3859 49.9232 58.3634 50.0871L58.3379 50.2737L60.254 50.5361L60.276 50.375ZM64.1305 53.5373L64.3755 51.7483L62.3746 51.4743L62.1296 53.2632L61.4005 53.1634L61.9752 48.9666L62.7044 49.0665L62.4652 50.813L64.466 51.087L64.7052 49.3405L65.4428 49.4415L64.8681 53.6383L64.1305 53.5373ZM66.6457 52.6898L67.4043 51.8177L69.0865 49.9406L69.7733 50.0346L69.1985 54.2314L68.4524 54.1292L68.8681 51.094L68.8257 51.0881L68.0563 51.9761L66.3837 53.8459L65.7139 53.7541L66.2887 49.5574L67.0263 49.6584L66.6118 52.6851L66.6457 52.6898ZM70.9986 52.6122L70.9603 52.892C70.9371 53.0616 70.9456 53.2096 70.9859 53.336C71.0269 53.4568 71.0901 53.5633 71.1753 53.6556C71.267 53.743 71.3727 53.8122 71.4924 53.8632C71.6177 53.9149 71.7482 53.95 71.8839 53.9686C72.0252 53.988 72.193 53.9822 72.3872 53.9512C72.5815 53.9202 72.7775 53.8348 72.9751 53.6948L73.3645 54.2578C73.1195 54.4488 72.8584 54.5685 72.5811 54.6169C72.3103 54.6604 72.042 54.664 71.7764 54.6276C71.539 54.5951 71.3171 54.533 71.1109 54.4414C70.9054 54.3442 70.7292 54.2222 70.5823 54.0754C70.4419 53.9237 70.3367 53.7452 70.267 53.5399C70.2029 53.3353 70.1882 53.1059 70.2231 52.8515L70.3752 51.7409C70.4092 51.4922 70.4826 51.2719 70.5952 51.08C70.7079 50.8881 70.8474 50.7316 71.0137 50.6104C71.1856 50.49 71.3784 50.407 71.5919 50.3614C71.8119 50.3109 72.0462 50.3027 72.2949 50.3368C72.5436 50.3708 72.7675 50.4389 72.9666 50.541C73.1656 50.6432 73.3294 50.7721 73.4577 50.9279C73.5918 51.0845 73.6848 51.2671 73.7368 51.4757C73.7953 51.6795 73.8079 51.9029 73.7746 52.146L73.6608 52.9768L70.9986 52.6122ZM73.0265 52.1213C73.0505 51.946 73.0456 51.7928 73.0118 51.6615C72.9779 51.5301 72.9212 51.4187 72.8416 51.3272C72.7685 51.2308 72.6748 51.1575 72.5608 51.1074C72.4532 51.0523 72.3344 51.0159 72.2043 50.9981C72.0743 50.9803 71.9501 50.9834 71.8317 51.0075C71.7132 51.0316 71.6033 51.077 71.5021 51.1437C71.4008 51.2105 71.3162 51.3026 71.2483 51.4199C71.1812 51.5317 71.1364 51.6695 71.1139 51.8334L71.0884 52.0199L73.0045 52.2823L73.0265 52.1213ZM32.3941 58.0922L33.1527 57.2201L34.8349 55.343L35.5217 55.437L34.9469 59.6338L34.2008 59.5316L34.6165 56.4964L34.5741 56.4906L33.8047 57.3785L32.1321 59.2483L31.4623 59.1565L32.0371 54.9598L32.7747 55.0608L32.3602 58.0875L32.3941 58.0922ZM40.5678 60.4036L40.8128 58.6147L38.8119 58.3406L38.5669 60.1295L37.8378 60.0297L38.4126 55.8329L39.1417 55.9328L38.9025 57.6793L40.9034 57.9534L41.1426 56.2068L41.8802 56.3078L41.3054 60.5046L40.5678 60.4036ZM44.8352 60.5734C44.4762 60.7143 44.1854 60.7983 43.9629 60.8254C43.7468 60.8476 43.554 60.8471 43.3844 60.8239C42.9775 60.7681 42.6679 60.6106 42.4559 60.3512C42.2438 60.0918 42.1645 59.7672 42.2179 59.3772C42.2496 59.1454 42.3272 58.9574 42.4506 58.8131C42.5797 58.6695 42.7271 58.5601 42.8928 58.4849C43.065 58.4049 43.2415 58.3571 43.4221 58.3415C43.6092 58.321 43.7733 58.3205 43.9146 58.3399L45.144 58.5082L45.1881 58.186C45.2284 57.8921 45.1743 57.6774 45.0259 57.5419C44.8782 57.4008 44.6518 57.3093 44.3465 57.2675C44.1996 57.2474 44.0156 57.2452 43.7946 57.261C43.5801 57.272 43.3534 57.3503 43.1146 57.4961L42.834 56.8963C43.134 56.7243 43.4267 56.6262 43.7122 56.6019C43.9976 56.5777 44.2591 56.5818 44.4965 56.6143C45.0447 56.6894 45.4322 56.8663 45.6589 57.1449C45.8921 57.4187 45.9746 57.8043 45.9065 58.3017L45.5256 61.0826L44.8897 60.9955L44.8584 60.5939L44.8352 60.5734ZM45.0616 59.1102L43.9509 58.9581C43.8605 58.9457 43.7604 58.9406 43.6507 58.9429C43.5474 58.9402 43.4474 58.9553 43.3508 58.9882C43.255 59.0153 43.1697 59.0699 43.0952 59.1518C43.0271 59.2289 42.9833 59.338 42.964 59.4793C42.9361 59.6828 42.983 59.8447 43.1047 59.965C43.2321 60.0861 43.4032 60.1614 43.618 60.1908C43.7254 60.2055 43.8375 60.2065 43.9544 60.1937C44.0778 60.176 44.1962 60.1519 44.3098 60.1214C44.429 60.0917 44.543 60.0584 44.6517 60.0214C44.7612 59.9788 44.8614 59.9407 44.9524 59.9071L45.0616 59.1102ZM48.5753 57.173C48.8183 57.2062 49.0596 57.2738 49.299 57.3757C49.5448 57.4727 49.7519 57.6422 49.9203 57.884L49.4125 58.3759C49.2499 58.1751 49.0894 58.0438 48.9309 57.9817C48.7789 57.9149 48.6407 57.8729 48.5163 57.8559C48.4089 57.8412 48.2936 57.8426 48.1702 57.8603C48.0525 57.8787 47.9402 57.9209 47.8333 57.9869C47.732 58.0536 47.6414 58.1478 47.5614 58.2692C47.4879 58.3858 47.4387 58.5346 47.4139 58.7155L47.2839 59.665C47.2591 59.8459 47.2661 60.0052 47.3048 60.1429C47.3443 60.275 47.4039 60.3868 47.4834 60.4783C47.563 60.5699 47.657 60.6403 47.7654 60.6897C47.8795 60.7399 47.9959 60.7731 48.1146 60.7893C48.2389 60.8064 48.3922 60.8015 48.5744 60.7746C48.7622 60.7485 48.93 60.6793 49.0778 60.5671L49.4575 61.1374C49.2326 61.3081 48.9936 61.4136 48.7405 61.4538C48.493 61.4947 48.2478 61.4986 48.0047 61.4653C47.756 61.4312 47.535 61.3635 47.3415 61.2622C47.1481 61.1608 46.984 61.0347 46.8492 60.8838C46.7201 60.7337 46.6255 60.5624 46.5655 60.3699C46.5119 60.1725 46.5002 59.9636 46.5304 59.7432L46.7011 58.4969C46.7336 58.2595 46.8082 58.0509 46.925 57.8711C47.0417 57.6913 47.1857 57.5441 47.3569 57.4293C47.5281 57.3146 47.7172 57.2368 47.9243 57.1961C48.1379 57.1505 48.3549 57.1428 48.5753 57.173ZM52.1996 58.3776L51.7131 61.93L50.9585 61.8266L51.445 58.2742L50.1479 58.0966L50.2373 57.4438L53.5947 57.9036L53.5052 58.5564L52.1996 58.3776ZM54.738 58.0688L54.7624 58.5213C55.123 58.3691 55.4064 58.2755 55.6128 58.2404C55.8248 58.2061 56.0071 58.1994 56.1597 58.2203C56.5723 58.2768 56.8919 58.4444 57.1187 58.7231C57.351 59.0025 57.432 59.3994 57.3615 59.9137L57.1851 61.2024C57.1193 61.6829 56.9357 62.0349 56.6345 62.2585C56.3389 62.4829 55.9621 62.5637 55.5043 62.501C55.3517 62.4801 55.176 62.4388 54.9771 62.377C54.7775 62.3209 54.5442 62.2169 54.277 62.0652L54.0181 63.9559L53.2975 63.8572L54.1021 57.9817L54.738 58.0688ZM54.3711 61.3785C54.6164 61.5215 54.8271 61.6223 55.0034 61.681C55.1796 61.7397 55.3553 61.781 55.5305 61.805C55.6436 61.8205 55.7497 61.8235 55.8489 61.8141C55.9545 61.7997 56.0483 61.7665 56.1303 61.7144C56.213 61.6566 56.2816 61.5768 56.3358 61.4748C56.3965 61.3679 56.4381 61.2326 56.4606 61.0686L56.6254 59.8647C56.6696 59.5426 56.6319 59.3128 56.5125 59.1756C56.3939 59.0326 56.2216 58.9457 55.9955 58.9147C55.9163 58.9039 55.8211 58.9052 55.7099 58.9188C55.5986 58.9324 55.4805 58.9536 55.3557 58.9826C55.2364 59.0123 55.116 59.0505 54.9945 59.0972C54.8737 59.1383 54.7638 59.1837 54.6649 59.2335L54.3711 61.3785ZM61.4537 61.7525C61.4204 61.9955 61.3425 62.2066 61.2201 62.3856C61.1042 62.5597 60.9553 62.7005 60.7736 62.8081C60.5975 62.9164 60.4003 62.9902 60.1819 63.0294C59.9634 63.0685 59.7355 63.0719 59.4981 63.0394C59.2551 63.0061 59.0337 62.9412 58.8338 62.8447C58.634 62.7483 58.4638 62.6242 58.3234 62.4725C58.1886 62.3216 58.0887 62.1467 58.0238 61.9478C57.9597 61.7433 57.9443 61.5195 57.9776 61.2764L58.1448 60.0555C58.1781 59.8125 58.2527 59.6039 58.3687 59.4298C58.4911 59.2508 58.6375 59.1067 58.8079 58.9976C58.9848 58.8836 59.1824 58.807 59.4008 58.7679C59.6256 58.7238 59.8568 58.718 60.0942 58.7505C60.3485 58.7854 60.5752 58.8538 60.7743 58.956C60.9798 59.0532 61.1495 59.1801 61.2836 59.3367C61.424 59.4883 61.5235 59.6661 61.5819 59.8698C61.6412 60.068 61.6542 60.2886 61.6209 60.5316L61.4537 61.7525ZM60.8828 60.5601C60.9076 60.3792 60.8974 60.2223 60.8522 60.0895C60.8079 59.951 60.7402 59.8352 60.6493 59.7421C60.5641 59.6498 60.4644 59.5786 60.3504 59.5284C60.2363 59.4783 60.1228 59.4454 60.0097 59.43C59.891 59.4137 59.77 59.4144 59.6467 59.4321C59.5233 59.4497 59.4054 59.4911 59.2928 59.5563C59.1859 59.6223 59.0924 59.716 59.0125 59.8375C58.9333 59.9534 58.8813 60.1017 58.8565 60.2826L58.7264 61.2321C58.7017 61.413 58.7058 61.5719 58.7389 61.7089C58.7784 61.841 58.8379 61.9528 58.9175 62.0443C58.9971 62.1358 59.0968 62.207 59.2165 62.258C59.3362 62.3089 59.4667 62.3441 59.608 62.3634C59.721 62.3789 59.8392 62.3778 59.9626 62.3602C60.0859 62.3425 60.201 62.3007 60.308 62.2347C60.4205 62.1695 60.5164 62.079 60.5956 61.9632C60.6756 61.8417 60.728 61.6905 60.7528 61.5097L60.8828 60.5601ZM64.0342 57.5972C64.0321 57.6545 64.041 57.7162 64.0607 57.7822C64.0805 57.8483 64.1119 57.9131 64.155 57.9765C64.1989 58.0344 64.2553 58.0853 64.3241 58.1293C64.393 58.1732 64.4726 58.2014 64.563 58.2138C64.6648 58.2277 64.7547 58.2228 64.8328 58.1989C64.9166 58.1759 64.9874 58.1424 65.0452 58.0985C65.1039 58.0489 65.1487 57.9946 65.1798 57.9355C65.2166 57.8772 65.2389 57.8198 65.2466 57.7633L65.8486 57.8457C65.8218 57.9572 65.7797 58.0753 65.7223 58.1998C65.6658 58.3188 65.5821 58.4253 65.4713 58.5196C65.3661 58.6146 65.2322 58.6884 65.0695 58.741C64.9125 58.7943 64.7181 58.8051 64.4864 58.7734C64.2547 58.7416 64.0647 58.6782 63.9165 58.583C63.7739 58.4887 63.662 58.3812 63.5806 58.2606C63.5049 58.1409 63.4529 58.0157 63.4247 57.8852C63.403 57.7497 63.3998 57.6255 63.4153 57.5125L64.0342 57.5972ZM63.0036 62.2843L63.7622 61.4122L65.4445 59.5351L66.1312 59.6292L65.5564 63.8259L64.8104 63.7237L65.226 60.6885L65.1836 60.6827L64.4142 61.5706L62.7417 63.4404L62.0719 63.3487L62.6466 59.1519L63.3842 59.2529L62.9697 62.2797L63.0036 62.2843ZM66.4021 63.9417L66.978 59.7365L67.6987 59.8352L67.4537 61.6241L68.1658 61.7216C68.245 61.7325 68.3245 61.7405 68.4044 61.7457C68.4851 61.7452 68.562 61.7298 68.6353 61.6996C68.7085 61.6693 68.7784 61.6213 68.845 61.5555C68.918 61.4849 68.9864 61.3849 69.0502 61.2554L69.6232 60.0988L70.3693 60.201L69.7867 61.3649C69.691 61.5591 69.5854 61.7203 69.47 61.8484C69.361 61.9717 69.2242 62.0451 69.0598 62.0686C69.2458 62.1402 69.3735 62.2584 69.443 62.4234C69.5134 62.5828 69.5681 62.7717 69.6073 62.9901L69.8697 64.4166L69.1066 64.3121L68.9012 63.1007C68.8745 62.9588 68.8384 62.8445 68.7927 62.7576C68.7534 62.6658 68.7026 62.5955 68.6402 62.5467C68.5785 62.4922 68.5089 62.4539 68.4313 62.4317C68.3545 62.4039 68.2681 62.3834 68.172 62.3703L67.3666 62.26L67.1227 64.0404L66.4021 63.9417ZM73.1927 64.4571C72.8337 64.598 72.5429 64.682 72.3204 64.7091C72.1043 64.7313 71.9115 64.7308 71.7419 64.7076C71.335 64.6519 71.0255 64.4943 70.8134 64.2349C70.6013 63.9756 70.522 63.6509 70.5754 63.2609C70.6071 63.0291 70.6847 62.8411 70.8081 62.6968C70.9372 62.5532 71.0846 62.4438 71.2504 62.3687C71.4225 62.2886 71.599 62.2408 71.7796 62.2252C71.9667 62.2048 72.1308 62.2042 72.2721 62.2236L73.5015 62.3919L73.5456 62.0698C73.5859 61.7758 73.5318 61.5611 73.3834 61.4256C73.2357 61.2845 73.0093 61.193 72.704 61.1512C72.5571 61.1311 72.3731 61.1289 72.1521 61.1447C71.9376 61.1557 71.7109 61.234 71.4721 61.3798L71.1915 60.78C71.4915 60.608 71.7842 60.5099 72.0697 60.4856C72.3551 60.4614 72.6166 60.4655 72.854 60.4981C73.4022 60.5731 73.7897 60.75 74.0164 61.0287C74.2496 61.3024 74.3321 61.688 74.264 62.1854L73.8831 64.9663L73.2472 64.8792L73.2159 64.4776L73.1927 64.4571ZM73.4191 62.9939L72.3084 62.8418C72.218 62.8294 72.1179 62.8243 72.0082 62.8266C71.9049 62.8239 71.8049 62.839 71.7083 62.8719C71.6125 62.8991 71.5272 62.9536 71.4527 63.0355C71.3846 63.1126 71.3408 63.2217 71.3215 63.363C71.2936 63.5665 71.3405 63.7284 71.4622 63.8487C71.5896 63.9698 71.7607 64.0451 71.9755 64.0745C72.0829 64.0892 72.195 64.0902 72.3119 64.0774C72.4353 64.0597 72.5537 64.0357 72.6673 64.0051C72.7865 63.9754 72.9005 63.9421 73.0092 63.9051C73.1187 63.8625 73.2189 63.8245 73.3099 63.7908L73.4191 62.9939ZM37.3521 68.2945C37.3235 68.5036 37.2609 68.7081 37.1645 68.908C37.0688 69.1022 36.9419 69.2719 36.7838 69.4173C36.6257 69.5626 36.4351 69.6718 36.212 69.7449C35.9946 69.8188 35.7446 69.8364 35.462 69.7977L33.0372 69.4656L33.8372 63.624L37.3303 64.1024L37.2316 64.8231L34.5185 64.4515L34.2875 66.1387L35.9068 66.3605C36.1838 66.3984 36.4198 66.4826 36.615 66.6129C36.811 66.7377 36.9684 66.8917 37.0873 67.0749C37.2069 67.2525 37.2867 67.4477 37.3267 67.6605C37.3723 67.874 37.3808 68.0854 37.3521 68.2945ZM36.5806 68.1888C36.6023 68.0306 36.593 67.8882 36.5527 67.7618C36.5189 67.6305 36.4597 67.5159 36.3752 67.4179C36.2908 67.32 36.1862 67.2423 36.0617 67.1849C35.9378 67.1219 35.7996 67.08 35.647 67.0591L34.1888 66.8593L33.9147 68.8602L35.3984 69.0634C35.7037 69.1052 35.9647 69.0488 36.1817 68.8943C36.4043 68.7405 36.5372 68.5054 36.5806 68.1888ZM38.7124 69.0509L39.471 68.1787L41.1532 66.3016L41.8399 66.3957L41.2652 70.5924L40.5191 70.4902L40.9348 67.455L40.8924 67.4492L40.123 68.3371L38.4504 70.2069L37.7806 70.1152L38.3554 65.9185L39.093 66.0195L38.6784 69.0462L38.7124 69.0509ZM44.3184 67.3916L43.8319 70.944L43.0773 70.8406L43.5638 67.2882L42.2667 67.1106L42.3561 66.4577L45.7135 66.9175L45.6241 67.5704L44.3184 67.3916ZM46.8568 67.0828L46.8812 67.5353C47.2418 67.3831 47.5252 67.2895 47.7316 67.2544C47.9436 67.2201 48.1259 67.2134 48.2785 67.2343C48.6911 67.2908 49.0108 67.4584 49.2375 67.737C49.4698 68.0165 49.5508 68.4133 49.4804 68.9277L49.3039 70.2164C49.2381 70.6968 49.0545 71.0489 48.7533 71.2725C48.4577 71.4969 48.081 71.5777 47.6231 71.515C47.4705 71.4941 47.2948 71.4528 47.096 71.391C46.8964 71.3349 46.663 71.2309 46.3959 71.0792L46.1369 72.9698L45.4163 72.8711L46.2209 66.9957L46.8568 67.0828ZM46.4899 70.3924C46.7352 70.5354 46.946 70.6363 47.1222 70.695C47.2984 70.7536 47.4741 70.795 47.6494 70.819C47.7624 70.8345 47.8685 70.8375 47.9677 70.828C48.0733 70.8137 48.1671 70.7805 48.2491 70.7284C48.3319 70.6706 48.4004 70.5907 48.4547 70.4888C48.5154 70.3819 48.5569 70.2465 48.5794 70.0826L48.7443 68.8787C48.7884 68.5565 48.7508 68.3268 48.6314 68.1895C48.5127 68.0466 48.3404 67.9597 48.1143 67.9287C48.0352 67.9179 47.94 67.9192 47.8287 67.9328C47.7174 67.9463 47.5994 67.9676 47.4745 67.9965C47.3552 68.0263 47.2348 68.0645 47.1133 68.1112C46.9925 68.1522 46.8826 68.1976 46.7837 68.2474L46.4899 70.3924ZM50.8419 70.7121L51.6005 69.8399L53.2827 67.9628L53.9695 68.0569L53.3947 72.2536L52.6486 72.1515L53.0643 69.1162L53.0219 69.1104L52.2525 69.9983L50.5799 71.8681L49.9102 71.7764L50.4849 67.5797L51.2225 67.6807L50.808 70.7074L50.8419 70.7121ZM54.2404 72.3695L54.8163 68.1642L55.5369 68.2629L55.2919 70.0518L56.0041 70.1494C56.0832 70.1602 56.1628 70.1682 56.2427 70.1734C56.3233 70.1729 56.4003 70.1576 56.4736 70.1273C56.5468 70.097 56.6167 70.049 56.6833 69.9833C56.7563 69.9127 56.8247 69.8126 56.8885 69.6832L57.4615 68.5265L58.2076 68.6287L57.625 69.7927C57.5293 69.9869 57.4237 70.148 57.3083 70.2762C57.1992 70.3994 57.0625 70.4728 56.8981 70.4964C57.084 70.5679 57.2118 70.6862 57.2813 70.8512C57.3516 71.0105 57.4064 71.1994 57.4456 71.4178L57.708 72.8444L56.9449 72.7399L56.7394 71.5284C56.7128 71.3866 56.6766 71.2722 56.631 71.1853C56.5917 71.0936 56.5409 71.0233 56.4785 70.9744C56.4168 70.9199 56.3472 70.8816 56.2696 70.8595C56.1928 70.8317 56.1064 70.8112 56.0103 70.798L55.2049 70.6877L54.961 72.4681L54.2404 72.3695ZM60.5651 68.9084C60.8081 68.9417 61.0493 69.0092 61.2887 69.1111C61.5346 69.2081 61.7417 69.3776 61.9101 69.6195L61.4022 70.1113C61.2397 69.9106 61.0792 69.7792 60.9207 69.7172C60.7686 69.6503 60.6304 69.6083 60.5061 69.5913C60.3987 69.5766 60.2833 69.578 60.16 69.5957C60.0423 69.6141 59.93 69.6563 59.8231 69.7223C59.7218 69.789 59.6312 69.8832 59.5512 70.0046C59.4776 70.1213 59.4285 70.27 59.4037 70.4509L59.2737 71.4004C59.2489 71.5813 59.2559 71.7406 59.2946 71.8783C59.3341 72.0104 59.3936 72.1222 59.4732 72.2138C59.5528 72.3053 59.6468 72.3757 59.7552 72.4251C59.8693 72.4753 59.9856 72.5085 60.1043 72.5248C60.2287 72.5418 60.3819 72.5369 60.5641 72.51C60.752 72.4839 60.9198 72.4147 61.0676 72.3026L61.4473 72.8728C61.2223 73.0435 60.9833 73.149 60.7302 73.1892C60.4828 73.2301 60.2375 73.234 59.9945 73.2007C59.7458 73.1666 59.5247 73.0989 59.3313 72.9976C59.1379 72.8962 58.9738 72.7701 58.839 72.6192C58.7098 72.4691 58.6153 72.2978 58.5552 72.1053C58.5017 71.9079 58.49 71.699 58.5201 71.4786L58.6908 70.2323C58.7233 69.9949 58.798 69.7863 58.9147 69.6065C59.0315 69.4267 59.1755 69.2795 59.3466 69.1647C59.5178 69.05 59.707 68.9722 59.9141 68.9315C60.1276 68.8859 60.3446 68.8782 60.5651 68.9084ZM66.0389 69.5371C66.0095 69.7519 65.9275 69.9508 65.793 70.134C65.6642 70.3179 65.5086 70.4866 65.3264 70.6401C65.1506 70.7888 64.9625 70.9214 64.7623 71.0379C64.5677 71.1552 64.3872 71.2543 64.2206 71.3351C64.1032 71.3939 63.9668 71.4645 63.8116 71.5469C63.662 71.63 63.5137 71.7249 63.3667 71.8314C63.2253 71.9387 63.0993 72.0597 62.9888 72.1943C62.8839 72.3296 62.8198 72.4821 62.7966 72.6516L62.7664 72.8721L65.5133 73.2483L65.4239 73.9011L61.9139 73.4204L62.008 72.7336C62.0405 72.4963 62.1102 72.2812 62.2172 72.0886C62.3242 71.896 62.4576 71.7213 62.6172 71.5647C62.7769 71.408 62.9544 71.2682 63.1497 71.1453C63.3458 71.0167 63.5489 70.9005 63.7589 70.7968C63.9367 70.7176 64.1101 70.629 64.2789 70.5312C64.4534 70.4342 64.6114 70.332 64.7528 70.2247C64.8949 70.1117 65.012 69.9925 65.1041 69.8669C65.1961 69.7413 65.2518 69.6078 65.2712 69.4665C65.2921 69.3139 65.276 69.1793 65.2229 69.0626C65.1762 68.941 65.1038 68.839 65.0057 68.7565C64.9083 68.6683 64.7942 68.5979 64.6632 68.5454C64.5378 68.4937 64.4073 68.4586 64.2717 68.44C64.0343 68.4075 63.808 68.4197 63.5929 68.4766C63.3786 68.5279 63.1863 68.608 63.0158 68.7171L62.7098 68.1138C62.9244 67.9762 63.1723 67.8691 63.4534 67.7924C63.7346 67.7158 64.039 67.6999 64.3669 67.7448C64.6043 67.7773 64.8321 67.8373 65.0505 67.9248C65.2688 68.0123 65.4571 68.1302 65.6153 68.2785C65.7742 68.4212 65.8939 68.5988 65.9742 68.8114C66.0552 69.0182 66.0768 69.2602 66.0389 69.5371ZM69.4301 73.5342L69.307 74.4329L68.5609 74.3307L68.684 73.432L66.1405 73.0837L66.2264 72.4563C66.6461 71.7882 67.0666 71.1145 67.4879 70.4352C67.9148 69.7566 68.3385 69.0805 68.759 68.4068L69.539 68.5136L67.0535 72.535L68.7745 72.7707L69.0137 71.0242L69.7598 71.1264L69.5206 72.8729L70.0208 72.9414L69.9303 73.6027L69.4301 73.5342Z" fill="#D7D7D7" style="fill:#D7D7D7;fill:color(display-p3 0.8417 0.8417 0.8417);fill-opacity:1;"/>
<path d="M60.0172 40.188C59.7946 40.1575 59.5187 40.047 59.1904 39.7881L58.0362 38.8725C57.9163 38.7791 57.6643 38.7445 57.5279 38.8029L56.1659 39.3738C55.3619 39.7131 54.9492 39.4768 54.7714 39.3069C54.5977 39.1377 54.3453 38.7308 54.6578 37.9177L55.1326 36.6689C55.1847 36.5391 55.1491 36.2988 55.0621 36.1842L54.163 34.9998C53.7134 34.4075 53.8164 33.968 53.9177 33.7593C54.0191 33.5507 54.2988 33.1953 55.0381 33.1724L56.4086 33.1333C56.5375 33.1296 56.7365 33.0199 56.8067 32.9139L57.7533 31.5329C58.182 30.9026 58.6368 30.8622 58.8679 30.8939C59.0989 30.9255 59.5262 31.0867 59.7696 31.8091L60.3064 33.389C60.3497 33.5104 60.5119 33.6696 60.6351 33.7079L61.9446 34.114C62.6547 34.3354 62.8286 34.7529 62.8659 34.9806C62.9032 35.2082 62.8842 35.6592 62.2961 36.1094L61.1111 37.0127C60.9965 37.0997 60.9024 37.3179 60.9128 37.4605L61.0345 38.791C61.1126 39.6576 60.7643 39.9822 60.5515 40.0986C60.4362 40.1598 60.2566 40.2208 60.0172 40.188Z" fill="#FFBA6B" style="fill:#FFBA6B;fill:color(display-p3 1.0000 0.7294 0.4196);fill-opacity:1;"/>
<path d="M60.0172 40.188C59.7946 40.1575 59.5187 40.047 59.1904 39.7881L58.0362 38.8725C57.9163 38.7791 57.6643 38.7445 57.5279 38.8029L56.1659 39.3738C55.3619 39.7131 54.9492 39.4768 54.7714 39.3069C54.5977 39.1377 54.3453 38.7308 54.6578 37.9177L55.1326 36.6689C55.1847 36.5391 55.1491 36.2988 55.0621 36.1842L54.163 34.9998C53.7134 34.4075 53.8164 33.968 53.9177 33.7593C54.0191 33.5507 54.2988 33.1953 55.0381 33.1724L56.4086 33.1333C56.5375 33.1296 56.7365 33.0199 56.8067 32.9139L57.7533 31.5329C58.182 30.9026 58.6368 30.8622 58.8679 30.8939C59.0989 30.9255 59.5262 31.0867 59.7696 31.8091L60.3064 33.389C60.3497 33.5104 60.5119 33.6696 60.6351 33.7079L61.9446 34.114C62.6547 34.3354 62.8286 34.7529 62.8659 34.9806C62.9032 35.2082 62.8842 35.6592 62.2961 36.1094L61.1111 37.0127C60.9965 37.0997 60.9024 37.3179 60.9128 37.4605L61.0345 38.791C61.1126 39.6576 60.7643 39.9822 60.5515 40.0986C60.4362 40.1598 60.2566 40.2208 60.0172 40.188Z" fill="url(#paint2_linear_2261_3387)" style=""/>
<path d="M68.7664 41.617C68.5808 41.5916 68.3509 41.4994 68.0774 41.2837L67.1155 40.5207C67.0156 40.4428 66.8056 40.4141 66.692 40.4627L65.5569 40.9385C64.887 41.2212 64.5431 41.0243 64.3948 40.8827C64.2501 40.7417 64.0398 40.4026 64.3002 39.725L64.6959 38.6844C64.7393 38.5762 64.7096 38.376 64.6371 38.2805L63.8879 37.2934C63.5132 36.7999 63.5991 36.4336 63.6835 36.2597C63.7679 36.0859 64.0011 35.7897 64.6171 35.7706L65.7592 35.738C65.8666 35.7349 66.0325 35.6435 66.0909 35.5552L66.8798 34.4044C67.237 33.8791 67.6161 33.8455 67.8086 33.8718C68.0011 33.8982 68.3572 34.0326 68.56 34.6345L69.0074 35.9511C69.0435 36.0523 69.1786 36.185 69.2813 36.2168L70.3725 36.5553C70.9642 36.7398 71.1092 37.0877 71.1402 37.2774C71.1713 37.4671 71.1555 37.843 70.6655 38.2181L69.678 38.9708C69.5824 39.0433 69.504 39.2252 69.5127 39.3441L69.6141 40.4528C69.6792 41.175 69.389 41.4455 69.2117 41.5424C69.1155 41.5935 68.9659 41.6443 68.7664 41.617Z" fill="#FFBA6B" style="fill:#FFBA6B;fill:color(display-p3 1.0000 0.7294 0.4196);fill-opacity:1;"/>
<path d="M68.7664 41.617C68.5808 41.5916 68.3509 41.4994 68.0774 41.2837L67.1155 40.5207C67.0156 40.4428 66.8056 40.4141 66.692 40.4627L65.5569 40.9385C64.887 41.2212 64.5431 41.0243 64.3948 40.8827C64.2501 40.7417 64.0398 40.4026 64.3002 39.725L64.6959 38.6844C64.7393 38.5762 64.7096 38.376 64.6371 38.2805L63.8879 37.2934C63.5132 36.7999 63.5991 36.4336 63.6835 36.2597C63.7679 36.0859 64.0011 35.7897 64.6171 35.7706L65.7592 35.738C65.8666 35.7349 66.0325 35.6435 66.0909 35.5552L66.8798 34.4044C67.237 33.8791 67.6161 33.8455 67.8086 33.8718C68.0011 33.8982 68.3572 34.0326 68.56 34.6345L69.0074 35.9511C69.0435 36.0523 69.1786 36.185 69.2813 36.2168L70.3725 36.5553C70.9642 36.7398 71.1092 37.0877 71.1402 37.2774C71.1713 37.4671 71.1555 37.843 70.6655 38.2181L69.678 38.9708C69.5824 39.0433 69.504 39.2252 69.5127 39.3441L69.6141 40.4528C69.6792 41.175 69.389 41.4455 69.2117 41.5424C69.1155 41.5935 68.9659 41.6443 68.7664 41.617Z" fill="url(#paint3_linear_2261_3387)" style=""/>
<path d="M48.6018 38.8816C48.4163 38.8562 48.1864 38.7641 47.9128 38.5483L46.951 37.7854C46.8511 37.7075 46.6411 37.6787 46.5274 37.7273L45.3924 38.2031C44.7224 38.4858 44.3785 38.2889 44.2303 38.1474C44.0855 38.0063 43.8752 37.6672 44.1356 36.9897L44.5314 35.949C44.5747 35.8408 44.5451 35.6406 44.4726 35.5451L43.7233 34.5581C43.3487 34.0645 43.4345 33.6983 43.5189 33.5244C43.6034 33.3505 43.8365 33.0543 44.4525 33.0353L45.5946 33.0027C45.702 32.9996 45.8679 32.9082 45.9264 32.8199L46.7152 31.669C47.0724 31.1438 47.4515 31.1101 47.644 31.1365C47.8366 31.1629 48.1926 31.2972 48.3955 31.8992L48.8428 33.2157C48.8789 33.317 49.0141 33.4496 49.1167 33.4815L50.208 33.82C50.7997 34.0044 50.9446 34.3524 50.9757 34.5421C51.0068 34.7318 50.991 35.1076 50.5009 35.4827L49.5134 36.2355C49.4179 36.308 49.3395 36.4898 49.3482 36.6087L49.4495 37.7174C49.5147 38.4396 49.2244 38.7101 49.0471 38.8071C48.951 38.8581 48.8013 38.9089 48.6018 38.8816Z" fill="#FFBA6B" style="fill:#FFBA6B;fill:color(display-p3 1.0000 0.7294 0.4196);fill-opacity:1;"/>
<path d="M48.6018 38.8816C48.4163 38.8562 48.1864 38.7641 47.9128 38.5483L46.951 37.7854C46.8511 37.7075 46.6411 37.6787 46.5274 37.7273L45.3924 38.2031C44.7224 38.4858 44.3785 38.2889 44.2303 38.1474C44.0855 38.0063 43.8752 37.6672 44.1356 36.9897L44.5314 35.949C44.5747 35.8408 44.5451 35.6406 44.4726 35.5451L43.7233 34.5581C43.3487 34.0645 43.4345 33.6983 43.5189 33.5244C43.6034 33.3505 43.8365 33.0543 44.4525 33.0353L45.5946 33.0027C45.702 32.9996 45.8679 32.9082 45.9264 32.8199L46.7152 31.669C47.0724 31.1438 47.4515 31.1101 47.644 31.1365C47.8366 31.1629 48.1926 31.2972 48.3955 31.8992L48.8428 33.2157C48.8789 33.317 49.0141 33.4496 49.1167 33.4815L50.208 33.82C50.7997 34.0044 50.9446 34.3524 50.9757 34.5421C51.0068 34.7318 50.991 35.1076 50.5009 35.4827L49.5134 36.2355C49.4179 36.308 49.3395 36.4898 49.3482 36.6087L49.4495 37.7174C49.5147 38.4396 49.2244 38.7101 49.0471 38.8071C48.951 38.8581 48.8013 38.9089 48.6018 38.8816Z" fill="url(#paint4_linear_2261_3387)" style=""/>
<defs>
<linearGradient id="paint0_linear_2261_3387" x1="53.8239" y1="2.79297" x2="53.8239" y2="104.127" gradientUnits="userSpaceOnUse">
<stop stop-color="#FFD66B" style="stop-color:#FFD66B;stop-color:color(display-p3 1.0000 0.8392 0.4196);stop-opacity:1;"/>
<stop offset="1" stop-color="#FFA469" style="stop-color:#FFA469;stop-color:color(display-p3 1.0000 0.6431 0.4118);stop-opacity:1;"/>
</linearGradient>
<linearGradient id="paint1_linear_2261_3387" x1="53.8287" y1="18.0479" x2="53.8287" y2="88.8547" gradientUnits="userSpaceOnUse">
<stop stop-color="#FFD66B" style="stop-color:#FFD66B;stop-color:color(display-p3 1.0000 0.8392 0.4196);stop-opacity:1;"/>
<stop offset="1" stop-color="#FFA469" style="stop-color:#FFA469;stop-color:color(display-p3 1.0000 0.6431 0.4118);stop-opacity:1;"/>
</linearGradient>
<linearGradient id="paint2_linear_2261_3387" x1="58.8665" y1="30.8937" x2="57.6382" y2="39.8622" gradientUnits="userSpaceOnUse">
<stop stop-color="#FFD66B" style="stop-color:#FFD66B;stop-color:color(display-p3 1.0000 0.8392 0.4196);stop-opacity:1;"/>
<stop offset="1" stop-color="#FFA469" style="stop-color:#FFA469;stop-color:color(display-p3 1.0000 0.6431 0.4118);stop-opacity:1;"/>
</linearGradient>
<linearGradient id="paint3_linear_2261_3387" x1="67.8075" y1="33.8717" x2="66.7839" y2="41.3455" gradientUnits="userSpaceOnUse">
<stop stop-color="#FFD66B" style="stop-color:#FFD66B;stop-color:color(display-p3 1.0000 0.8392 0.4196);stop-opacity:1;"/>
<stop offset="1" stop-color="#FFA469" style="stop-color:#FFA469;stop-color:color(display-p3 1.0000 0.6431 0.4118);stop-opacity:1;"/>
</linearGradient>
<linearGradient id="paint4_linear_2261_3387" x1="47.6429" y1="31.1363" x2="46.6193" y2="38.6101" gradientUnits="userSpaceOnUse">
<stop stop-color="#FFD66B" style="stop-color:#FFD66B;stop-color:color(display-p3 1.0000 0.8392 0.4196);stop-opacity:1;"/>
<stop offset="1" stop-color="#FFA469" style="stop-color:#FFA469;stop-color:color(display-p3 1.0000 0.6431 0.4118);stop-opacity:1;"/>
</linearGradient>
</defs>
</svg>
