<svg width="155" height="118" viewBox="0 0 155 118" fill="none" xmlns="http://www.w3.org/2000/svg">
<g clip-path="url(#clip0_2261_3325)">
<path d="M17.2417 39.7214C17.2417 39.7214 19.6436 49.5587 30.3948 47.3067C30.3948 47.3067 27.2782 37.3429 17.2417 39.7214Z" fill="#717278" style="fill:#717278;fill:color(display-p3 0.4431 0.4471 0.4706);fill-opacity:1;"/>
<path d="M22.436 54.6138C22.436 54.6138 27.3711 61.9719 35.5259 56.8845C35.5259 56.8845 29.9652 49.6389 22.436 54.6138Z" fill="#717278" style="fill:#717278;fill:color(display-p3 0.4431 0.4471 0.4706);fill-opacity:1;"/>
<path d="M30.3008 65.8427C30.3008 65.8427 37.5018 71.9681 44.3982 64.3781C44.3982 64.3781 36.5879 58.5502 30.3008 65.8427Z" fill="#717278" style="fill:#717278;fill:color(display-p3 0.4431 0.4471 0.4706);fill-opacity:1;"/>
<path d="M37.7468 42.2266C37.7468 42.2266 29.7607 46.0649 33.6366 54.8594C34.206 54.5408 41.5219 50.2197 37.7468 42.2266Z" fill="#717278" style="fill:#717278;fill:color(display-p3 0.4431 0.4471 0.4706);fill-opacity:1;"/>
<path d="M39.4772 52.8359C39.4772 52.8359 35.4935 58.2139 41.4292 62.8326C41.7994 62.2561 45.2769 57.1195 39.4772 52.8359Z" fill="#717278" style="fill:#717278;fill:color(display-p3 0.4431 0.4471 0.4706);fill-opacity:1;"/>
<path d="M21.0023 28.4014C21.0023 28.4014 20.0861 36.3757 28.7002 37.6528C28.7002 37.6528 29.1196 29.3903 21.0023 28.4014Z" fill="#717278" style="fill:#717278;fill:color(display-p3 0.4431 0.4471 0.4706);fill-opacity:1;"/>
<path d="M33.3601 20.3311C33.3601 20.3311 26.3934 23.2415 29.4186 31.4056C29.4186 31.4056 36.3994 27.9211 33.3601 20.3311Z" fill="#717278" style="fill:#717278;fill:color(display-p3 0.4431 0.4471 0.4706);fill-opacity:1;"/>
<path d="M37.5617 31.9736C37.5617 31.9736 28.3383 33.0258 29.1491 43.0646C29.1491 43.0646 38.5693 41.3774 37.5617 31.9736Z" fill="#717278" style="fill:#717278;fill:color(display-p3 0.4431 0.4471 0.4706);fill-opacity:1;"/>
<path d="M50.6857 67.0207C50.6857 67.0207 50.6459 67.0067 50.5686 66.9856C50.4865 66.9645 50.3717 66.934 50.2241 66.8942C49.9195 66.8145 49.4695 66.7091 48.9025 66.5216C47.7636 66.1724 46.135 65.5796 44.258 64.5673C42.381 63.562 40.2837 62.0974 38.2427 60.1571C37.221 59.187 36.2227 58.095 35.2713 56.8929C35.0417 56.5859 34.812 56.2766 34.58 55.9626C34.4629 55.8056 34.348 55.6486 34.2309 55.4915C34.1184 55.3322 34.0153 55.1635 33.9052 54.9994C33.6896 54.669 33.4716 54.3339 33.2537 53.9988C33.0545 53.6497 32.8553 53.3005 32.6515 52.9467C32.5507 52.7709 32.4523 52.5928 32.3515 52.4171C32.2625 52.2367 32.1734 52.0562 32.0844 51.8758C31.9086 51.5149 31.7282 51.1611 31.5571 50.8025C31.4025 50.4393 31.2502 50.0761 31.0978 49.7176C31.0229 49.5371 30.9432 49.3614 30.8729 49.181C30.8073 48.9982 30.7417 48.8177 30.6784 48.6373C30.5495 48.2764 30.4206 47.9202 30.2941 47.5641C30.1863 47.2032 30.0808 46.847 29.9777 46.4932C29.9262 46.3174 29.8746 46.1417 29.8207 45.9659C29.7692 45.7925 29.734 45.6121 29.6895 45.4387C29.6075 45.0872 29.5255 44.7403 29.4458 44.3982C28.8412 41.6448 28.7077 39.0906 28.7592 36.9652C28.8084 34.8328 29.1177 33.1268 29.3193 31.9551C29.4458 31.3717 29.5559 30.9241 29.6239 30.6171C29.6567 30.4671 29.6825 30.35 29.7012 30.2679C29.7176 30.1883 29.7247 30.1484 29.7247 30.1484C29.7247 30.1484 29.7106 30.1883 29.6918 30.2656C29.6708 30.3476 29.6426 30.4624 29.6028 30.6124C29.5278 30.917 29.4106 31.367 29.2794 31.9481C29.0638 33.1198 28.7428 34.8257 28.6842 36.9652C28.6233 39.0976 28.7498 41.6589 29.3497 44.4217C29.4294 44.7661 29.5114 45.1129 29.5934 45.4668C29.638 45.6425 29.6708 45.8206 29.7223 45.9964C29.7739 46.1721 29.8254 46.3479 29.877 46.526C29.9801 46.8798 30.0879 47.2383 30.1933 47.6016C30.3199 47.9577 30.4487 48.3163 30.5776 48.6771C30.6432 48.8576 30.7065 49.0404 30.7721 49.2231C30.8424 49.4036 30.9221 49.5817 30.9971 49.7621C31.1494 50.123 31.3041 50.4862 31.4587 50.8518C31.6298 51.2103 31.8102 51.5665 31.986 51.9297C32.075 52.1101 32.1641 52.2906 32.2531 52.4733C32.3539 52.6491 32.4523 52.8272 32.5531 53.0029C32.7546 53.3568 32.9561 53.7083 33.1553 54.0574C33.3756 54.3949 33.5935 54.73 33.8091 55.0627C33.9192 55.2291 34.0223 55.3978 34.1348 55.5572C34.252 55.7165 34.3691 55.8735 34.4863 56.0305C34.7206 56.3445 34.9526 56.6538 35.1823 56.9632C36.1383 58.1676 37.1436 59.262 38.1677 60.2321C40.2181 62.1771 42.3294 63.637 44.2158 64.6376C46.1022 65.6452 47.7402 66.2287 48.8814 66.5661C49.4508 66.7466 49.9031 66.845 50.21 66.92C50.36 66.9551 50.4748 66.9832 50.5592 67.002C50.6389 67.0207 50.6787 67.0278 50.6787 67.0278L50.6857 67.0207Z" fill="#717278" style="fill:#717278;fill:color(display-p3 0.4431 0.4471 0.4706);fill-opacity:1;"/>
<path d="M40.3422 57.1688C40.3422 57.1688 40.3375 57.2508 40.3493 57.3937C40.361 57.539 40.3821 57.7476 40.4125 58.003C40.4758 58.5162 40.5813 59.2239 40.7336 59.9995C40.8859 60.7751 41.0523 61.4711 41.1882 61.9702C41.2561 62.221 41.3147 62.4201 41.3569 62.5584C41.4014 62.6967 41.4272 62.7716 41.4342 62.7693C41.4413 62.767 41.4272 62.6873 41.3967 62.5467C41.3592 62.3827 41.3147 62.1835 41.2585 61.9491C41.1413 61.4453 40.9866 60.7494 40.8343 59.9761C40.6844 59.2028 40.5649 58.4998 40.4852 57.9889C40.4477 57.7522 40.4149 57.5507 40.3891 57.3843C40.3657 57.2414 40.3493 57.1641 40.3422 57.1641V57.1688Z" fill="#717278" style="fill:#717278;fill:color(display-p3 0.4431 0.4471 0.4706);fill-opacity:1;"/>
<path d="M38.3765 65.1614C38.3765 65.1614 38.4585 65.1614 38.6038 65.1403C38.7701 65.1169 38.974 65.0864 39.2154 65.0513C39.7309 64.9739 40.4456 64.8732 41.2353 64.7794C42.0274 64.688 42.7444 64.6201 43.2646 64.5756C43.506 64.5545 43.7122 64.5357 43.8809 64.5217C44.0262 64.5076 44.1059 64.4959 44.1059 64.4889C44.1059 64.4818 44.0239 64.4795 43.8786 64.4795C43.7333 64.4795 43.5201 64.4889 43.26 64.5006C42.7374 64.5264 42.018 64.5803 41.2236 64.674C40.4316 64.7677 39.7168 64.8802 39.2037 64.9763C38.9459 65.0231 38.7397 65.0653 38.5967 65.0981C38.4538 65.1309 38.3765 65.152 38.3765 65.1591V65.1614Z" fill="#717278" style="fill:#717278;fill:color(display-p3 0.4431 0.4471 0.4706);fill-opacity:1;"/>
<path d="M28.6699 55.3978C28.6699 55.3978 28.7637 55.4283 28.9371 55.4611C29.1292 55.4986 29.3753 55.5478 29.6658 55.604C30.2821 55.7259 31.1304 55.904 32.0607 56.1289C32.991 56.3539 33.8276 56.5859 34.4298 56.7593C34.7157 56.8413 34.9571 56.9116 35.1445 56.9655C35.3133 57.0147 35.407 57.0358 35.4093 57.0311C35.4117 57.0241 35.3203 56.9889 35.1563 56.928C34.9899 56.8671 34.7509 56.7851 34.4509 56.689C33.851 56.4968 33.0168 56.2531 32.0842 56.0282C31.1515 55.8032 30.2985 55.6368 29.6776 55.5337C29.3682 55.4822 29.1152 55.4447 28.9417 55.4213C28.7683 55.4002 28.6699 55.3908 28.6699 55.3978Z" fill="#717278" style="fill:#717278;fill:color(display-p3 0.4431 0.4471 0.4706);fill-opacity:1;"/>
<path d="M35.7214 47.8594C35.7214 47.8594 35.6581 47.9437 35.5574 48.1031C35.4566 48.2624 35.3207 48.5014 35.166 48.8037C34.8544 49.4036 34.4794 50.2683 34.1936 51.2619C33.9077 52.2578 33.7671 53.1881 33.7132 53.863C33.6851 54.2004 33.6733 54.4746 33.6733 54.6644C33.6733 54.8542 33.6733 54.9573 33.6827 54.9597C33.6921 54.962 33.7015 54.8566 33.7132 54.6667C33.7249 54.4793 33.7483 54.2075 33.7858 53.8724C33.8585 53.2022 34.0108 52.2812 34.2943 51.2924C34.5802 50.3058 34.9387 49.4435 35.234 48.8365C35.3793 48.5343 35.5058 48.2905 35.5949 48.1242C35.6839 47.9578 35.7284 47.8641 35.7238 47.8594H35.7214Z" fill="#717278" style="fill:#717278;fill:color(display-p3 0.4431 0.4471 0.4706);fill-opacity:1;"/>
<path d="M25.0215 43.2664C25.0215 43.2664 25.0941 43.325 25.2347 43.4164C25.3917 43.5195 25.5909 43.6483 25.8252 43.803C26.322 44.1311 26.9946 44.6068 27.6999 45.1762C28.4053 45.748 29.0075 46.308 29.434 46.7251C29.6332 46.9243 29.8019 47.0907 29.9331 47.2243C30.0503 47.3438 30.1182 47.4047 30.1229 47.4C30.1276 47.3953 30.0714 47.3227 29.9636 47.1961C29.8558 47.0696 29.6941 46.8892 29.4855 46.6736C29.0731 46.2424 28.4756 45.6706 27.7655 45.0942C27.0555 44.5201 26.3736 44.0537 25.8651 43.7397C25.612 43.5827 25.4034 43.4609 25.2558 43.3812C25.1082 43.3015 25.0262 43.2594 25.0215 43.2664Z" fill="#717278" style="fill:#717278;fill:color(display-p3 0.4431 0.4471 0.4706);fill-opacity:1;"/>
<path d="M35.0906 35.9893C35.0906 35.9893 35.0625 36.0057 35.0156 36.0478C34.9594 36.0971 34.8938 36.158 34.8118 36.2283C34.636 36.3876 34.3876 36.622 34.0877 36.9196C33.4854 37.5124 32.677 38.3584 31.8404 39.3402C31.0039 40.3221 30.2962 41.2547 29.8064 41.9437C29.5627 42.2881 29.3682 42.5717 29.2393 42.7685C29.1807 42.8599 29.1315 42.9349 29.0917 42.9982C29.0589 43.0521 29.0425 43.0802 29.0472 43.0825C29.0495 43.0825 29.0706 43.0591 29.1104 43.0099C29.155 42.9489 29.2089 42.8786 29.2721 42.7919C29.4221 42.5881 29.6213 42.3162 29.865 41.9882C30.3688 41.311 31.0835 40.39 31.9178 39.4082C32.752 38.4287 33.5487 37.578 34.1369 36.9735C34.4228 36.6805 34.6594 36.4415 34.8375 36.2611C34.9125 36.1838 34.9758 36.1205 35.0274 36.0666C35.0695 36.0221 35.0906 35.9963 35.0883 35.9939L35.0906 35.9893Z" fill="#717278" style="fill:#717278;fill:color(display-p3 0.4431 0.4471 0.4706);fill-opacity:1;"/>
<path d="M23.9858 30.998C23.9858 30.998 24.0515 31.0918 24.185 31.2464C24.328 31.4175 24.5178 31.6401 24.7451 31.9073C25.2137 32.4673 25.8441 33.257 26.4932 34.1615C27.14 35.0684 27.6836 35.9214 28.0632 36.5447C28.2437 36.847 28.3936 37.0954 28.5085 37.2875C28.6116 37.4633 28.6725 37.5594 28.6795 37.5547C28.6866 37.5523 28.6373 37.4492 28.5436 37.2665C28.4499 37.0837 28.3093 36.8236 28.1265 36.5049C27.7633 35.8698 27.229 35.0075 26.5776 34.0983C25.9261 33.1891 25.284 32.404 24.8013 31.8557C24.56 31.5815 24.3584 31.3636 24.2155 31.216C24.0725 31.0683 23.9929 30.9887 23.9858 30.9934V30.998Z" fill="#717278" style="fill:#717278;fill:color(display-p3 0.4431 0.4471 0.4706);fill-opacity:1;"/>
<path d="M32.3198 23.4217C32.3198 23.4217 32.2612 23.5224 32.1745 23.7146C32.0878 23.9044 31.9659 24.1833 31.8207 24.5277C31.5277 25.219 31.1411 26.1798 30.7427 27.253C30.3467 28.3263 30.0139 29.3081 29.7866 30.0228C29.6718 30.379 29.5851 30.6696 29.5265 30.8711C29.468 31.0726 29.4398 31.1851 29.4469 31.1875C29.4539 31.1898 29.4961 31.082 29.5664 30.8828C29.6414 30.6673 29.7398 30.3861 29.8593 30.0439C30.1053 29.3362 30.4475 28.3591 30.8435 27.2858C31.2395 26.2149 31.6168 25.2495 31.891 24.5512C32.0222 24.2161 32.1323 23.9372 32.2143 23.724C32.2893 23.5295 32.3292 23.4193 32.3221 23.417L32.3198 23.4217Z" fill="#717278" style="fill:#717278;fill:color(display-p3 0.4431 0.4471 0.4706);fill-opacity:1;"/>
<path d="M143.512 39.7214C143.512 39.7214 141.11 49.5587 130.358 47.3067C130.358 47.3067 133.475 37.3429 143.512 39.7214Z" fill="#717278" style="fill:#717278;fill:color(display-p3 0.4431 0.4471 0.4706);fill-opacity:1;"/>
<path d="M138.31 54.6138C138.31 54.6138 133.375 61.9719 125.22 56.8845C125.22 56.8845 130.78 49.6389 138.31 54.6138Z" fill="#717278" style="fill:#717278;fill:color(display-p3 0.4431 0.4471 0.4706);fill-opacity:1;"/>
<path d="M130.449 65.8427C130.449 65.8427 123.248 71.9681 116.352 64.3781C116.352 64.3781 124.162 58.5502 130.449 65.8427Z" fill="#717278" style="fill:#717278;fill:color(display-p3 0.4431 0.4471 0.4706);fill-opacity:1;"/>
<path d="M123.005 42.2266C123.005 42.2266 130.991 46.0649 127.116 54.8594C126.546 54.5408 119.23 50.2197 123.005 42.2266Z" fill="#717278" style="fill:#717278;fill:color(display-p3 0.4431 0.4471 0.4706);fill-opacity:1;"/>
<path d="M121.268 52.8359C121.268 52.8359 125.252 58.2139 119.316 62.8349C118.946 62.2585 115.469 57.1219 121.268 52.8359Z" fill="#717278" style="fill:#717278;fill:color(display-p3 0.4431 0.4471 0.4706);fill-opacity:1;"/>
<path d="M139.744 28.4014C139.744 28.4014 140.66 36.3757 132.046 37.6528C132.046 37.6528 131.627 29.3903 139.744 28.4014Z" fill="#717278" style="fill:#717278;fill:color(display-p3 0.4431 0.4471 0.4706);fill-opacity:1;"/>
<path d="M127.392 20.3311C127.392 20.3311 134.359 23.2415 131.334 31.4056C131.334 31.4056 124.353 27.9211 127.392 20.3311Z" fill="#717278" style="fill:#717278;fill:color(display-p3 0.4431 0.4471 0.4706);fill-opacity:1;"/>
<path d="M123.187 31.9736C123.187 31.9736 132.41 33.0258 131.599 43.0646C131.599 43.0646 122.179 41.3774 123.187 31.9736Z" fill="#717278" style="fill:#717278;fill:color(display-p3 0.4431 0.4471 0.4706);fill-opacity:1;"/>
<path d="M110.062 67.0207C110.062 67.0207 110.102 67.0067 110.179 66.9856C110.261 66.9645 110.376 66.934 110.524 66.8942C110.828 66.8145 111.278 66.7091 111.845 66.5216C112.984 66.1724 114.613 65.5796 116.49 64.5673C118.367 63.562 120.464 62.0974 122.505 60.1571C123.527 59.187 124.525 58.095 125.476 56.8929C125.706 56.5859 125.936 56.2766 126.168 55.9626C126.283 55.8055 126.4 55.6485 126.517 55.4915C126.629 55.3322 126.732 55.1635 126.843 54.9994C127.058 54.669 127.276 54.3339 127.494 53.9988C127.693 53.6497 127.892 53.3005 128.096 52.9467C128.197 52.7709 128.295 52.5928 128.396 52.4171C128.485 52.2367 128.574 52.0562 128.663 51.8758C128.839 51.5149 129.02 51.1611 129.191 50.8025C129.345 50.4393 129.498 50.0761 129.65 49.7176C129.725 49.5371 129.805 49.3614 129.875 49.181C129.94 48.9982 130.004 48.8177 130.069 48.6373C130.198 48.2764 130.327 47.9179 130.454 47.5641C130.559 47.2032 130.667 46.847 130.77 46.4932C130.822 46.3174 130.875 46.1417 130.927 45.9659C130.981 45.7925 131.014 45.6121 131.056 45.4387C131.138 45.0872 131.22 44.7403 131.302 44.3982C131.907 41.6448 132.04 39.0906 131.989 36.9652C131.939 34.8328 131.63 33.1268 131.428 31.9551C131.302 31.3717 131.192 30.9241 131.124 30.6171C131.091 30.4671 131.065 30.35 131.047 30.2679C131.03 30.1883 131.023 30.1484 131.023 30.1484C131.023 30.1484 131.037 30.1883 131.056 30.2656C131.077 30.3476 131.105 30.4624 131.145 30.6124C131.22 30.917 131.337 31.367 131.468 31.9481C131.684 33.1198 132.005 34.8257 132.064 36.9652C132.124 39.0976 132 41.6589 131.398 44.4217C131.318 44.7661 131.236 45.1129 131.154 45.4668C131.11 45.6425 131.077 45.8206 131.025 45.9964C130.974 46.1721 130.922 46.3479 130.871 46.526C130.765 46.8798 130.66 47.2383 130.554 47.6016C130.428 47.9577 130.299 48.3163 130.17 48.6771C130.105 48.8576 130.041 49.0404 129.976 49.2231C129.905 49.4036 129.826 49.5817 129.751 49.7621C129.598 50.123 129.444 50.4862 129.289 50.8518C129.118 51.2103 128.938 51.5665 128.762 51.9297C128.673 52.1101 128.584 52.2906 128.495 52.4733C128.394 52.6491 128.295 52.8272 128.195 53.0029C127.993 53.3568 127.792 53.7083 127.592 54.0574C127.372 54.3949 127.154 54.73 126.936 55.0627C126.826 55.2291 126.723 55.3978 126.611 55.5572C126.493 55.7165 126.376 55.8735 126.259 56.0305C126.025 56.3445 125.793 56.6538 125.563 56.9632C124.607 58.1676 123.602 59.262 122.578 60.2344C120.527 62.1794 118.416 63.6393 116.53 64.6399C114.643 65.6475 113.005 66.231 111.864 66.5685C111.295 66.7489 110.842 66.8473 110.535 66.9223C110.385 66.9575 110.271 66.9856 110.189 67.0043C110.109 67.0231 110.069 67.0278 110.069 67.0278L110.062 67.0207Z" fill="#717278" style="fill:#717278;fill:color(display-p3 0.4431 0.4471 0.4706);fill-opacity:1;"/>
<path d="M120.41 57.1619C120.41 57.1619 120.414 57.2439 120.403 57.3869C120.391 57.5322 120.37 57.7407 120.339 57.9961C120.276 58.5093 120.171 59.217 120.018 59.9927C119.866 60.7683 119.7 61.4643 119.564 61.9634C119.496 62.2141 119.437 62.4133 119.395 62.5516C119.35 62.6898 119.325 62.7648 119.318 62.7625C119.311 62.7601 119.325 62.6805 119.358 62.5399C119.395 62.3758 119.442 62.1766 119.493 61.9423C119.611 61.4385 119.765 60.7425 119.918 59.9692C120.068 59.1959 120.185 58.4929 120.267 57.9821C120.304 57.7454 120.337 57.5439 120.365 57.3775C120.389 57.2346 120.405 57.1572 120.412 57.1572L120.41 57.1619Z" fill="#717278" style="fill:#717278;fill:color(display-p3 0.4431 0.4471 0.4706);fill-opacity:1;"/>
<path d="M122.37 65.1614C122.37 65.1614 122.288 65.1614 122.142 65.1403C121.976 65.1169 121.772 65.0864 121.531 65.0513C121.015 64.9739 120.3 64.8732 119.511 64.7794C118.719 64.688 118.002 64.6201 117.481 64.5756C117.24 64.5545 117.034 64.5357 116.865 64.5217C116.72 64.5076 116.64 64.4959 116.64 64.4889C116.64 64.4818 116.722 64.4795 116.867 64.4795C117.013 64.4795 117.226 64.4889 117.486 64.5006C118.009 64.5264 118.728 64.5803 119.522 64.674C120.314 64.7677 121.029 64.8802 121.542 64.9763C121.8 65.0231 122.006 65.0653 122.149 65.0981C122.292 65.1309 122.37 65.152 122.37 65.1591V65.1614Z" fill="#717278" style="fill:#717278;fill:color(display-p3 0.4431 0.4471 0.4706);fill-opacity:1;"/>
<path d="M132.082 55.3929C132.082 55.3929 131.988 55.4234 131.815 55.4562C131.622 55.4937 131.376 55.5429 131.086 55.5991C130.469 55.721 129.621 55.8991 128.691 56.1241C127.761 56.349 126.924 56.581 126.322 56.7544C126.036 56.8364 125.797 56.9067 125.607 56.9606C125.438 57.0098 125.345 57.0309 125.34 57.0262C125.338 57.0192 125.429 56.9841 125.593 56.9231C125.757 56.8622 125.998 56.7802 126.298 56.6841C126.898 56.492 127.732 56.2482 128.665 56.0233C129.598 55.7983 130.451 55.632 131.072 55.5288C131.381 55.4773 131.634 55.4398 131.807 55.4164C131.981 55.3953 132.079 55.3859 132.079 55.3929H132.082Z" fill="#717278" style="fill:#717278;fill:color(display-p3 0.4431 0.4471 0.4706);fill-opacity:1;"/>
<path d="M125.029 47.8467C125.029 47.8467 125.093 47.931 125.193 48.0904C125.294 48.2497 125.43 48.4888 125.585 48.791C125.896 49.3909 126.271 50.2556 126.557 51.2492C126.843 52.2451 126.984 53.1754 127.038 53.8503C127.066 54.1877 127.078 54.4619 127.078 54.6517C127.078 54.8415 127.078 54.9446 127.068 54.947C127.059 54.9493 127.049 54.8439 127.035 54.6541C127.024 54.4666 127 54.1948 126.963 53.8597C126.89 53.1895 126.738 52.2685 126.454 51.2797C126.168 50.2931 125.81 49.4308 125.515 48.8238C125.369 48.5216 125.243 48.2779 125.154 48.1115C125.065 47.9451 125.02 47.8514 125.025 47.8467H125.029Z" fill="#717278" style="fill:#717278;fill:color(display-p3 0.4431 0.4471 0.4706);fill-opacity:1;"/>
<path d="M135.734 43.2629C135.734 43.2629 135.661 43.3215 135.52 43.4128C135.363 43.5159 135.164 43.6448 134.93 43.7995C134.433 44.1276 133.76 44.6033 133.055 45.1727C132.35 45.7445 131.748 46.3045 131.321 46.7216C131.122 46.9208 130.953 47.0872 130.822 47.2184C130.705 47.3379 130.637 47.3988 130.632 47.3942C130.627 47.3895 130.684 47.3168 130.791 47.1903C130.899 47.0637 131.061 46.8833 131.269 46.6677C131.682 46.2366 132.279 45.6648 132.989 45.0883C133.7 44.5142 134.381 44.0479 134.89 43.7339C135.143 43.5769 135.354 43.455 135.499 43.3753C135.647 43.2957 135.729 43.2535 135.734 43.2605V43.2629Z" fill="#717278" style="fill:#717278;fill:color(display-p3 0.4431 0.4471 0.4706);fill-opacity:1;"/>
<path d="M125.66 35.9824C125.66 35.9824 125.688 35.9988 125.735 36.041C125.791 36.0902 125.857 36.1511 125.939 36.2214C126.115 36.3808 126.363 36.6151 126.663 36.9127C127.265 37.5056 128.074 38.3515 128.91 39.3334C129.747 40.3152 130.455 41.2479 130.942 41.9368C131.188 42.2813 131.38 42.5648 131.509 42.7617C131.568 42.8531 131.615 42.928 131.657 42.9913C131.69 43.0452 131.706 43.0733 131.701 43.0757C131.699 43.0757 131.678 43.0522 131.638 43.003C131.593 42.9421 131.54 42.8718 131.474 42.7851C131.324 42.5812 131.125 42.3094 130.881 41.9813C130.377 41.3041 129.663 40.3832 128.828 39.4013C127.994 38.4218 127.197 37.5712 126.607 36.9666C126.321 36.6737 126.084 36.4347 125.906 36.2542C125.831 36.1769 125.768 36.1136 125.716 36.0598C125.674 36.0152 125.653 35.9895 125.655 35.9871L125.66 35.9824Z" fill="#717278" style="fill:#717278;fill:color(display-p3 0.4431 0.4471 0.4706);fill-opacity:1;"/>
<path d="M136.767 30.998C136.767 30.998 136.701 31.0918 136.568 31.2464C136.425 31.4175 136.235 31.6401 136.008 31.9073C135.539 32.4673 134.909 33.257 134.26 34.1615C133.611 35.0684 133.069 35.9214 132.69 36.5447C132.509 36.847 132.359 37.0954 132.244 37.2875C132.139 37.4633 132.08 37.5594 132.073 37.5547C132.066 37.5523 132.116 37.4492 132.209 37.2665C132.303 37.0837 132.444 36.8236 132.626 36.5049C132.99 35.8698 133.524 35.0075 134.175 34.0983C134.827 33.1891 135.469 32.404 135.952 31.8557C136.193 31.5815 136.395 31.3636 136.537 31.216C136.68 31.0683 136.76 30.9887 136.765 30.9934L136.767 30.998Z" fill="#717278" style="fill:#717278;fill:color(display-p3 0.4431 0.4471 0.4706);fill-opacity:1;"/>
<path d="M128.424 23.4148C128.424 23.4148 128.482 23.5156 128.569 23.7078C128.656 23.8976 128.777 24.1764 128.925 24.5209C129.218 25.2122 129.605 26.1729 130.003 27.2462C130.401 28.3194 130.732 29.3013 130.959 30.016C131.074 30.3722 131.161 30.6628 131.219 30.8643C131.278 31.0658 131.306 31.1783 131.299 31.1806C131.292 31.1806 131.25 31.0752 131.179 30.876C131.104 30.6604 131.006 30.3792 130.886 30.0371C130.64 29.3294 130.298 28.3522 129.902 27.279C129.506 26.2081 129.129 25.2426 128.855 24.5443C128.724 24.2092 128.613 23.9304 128.531 23.7171C128.456 23.5226 128.417 23.4125 128.424 23.4102V23.4148Z" fill="#717278" style="fill:#717278;fill:color(display-p3 0.4431 0.4471 0.4706);fill-opacity:1;"/>
<path d="M84.7672 59.8894L80.7603 58.9612L80.765 58.9087L80.6569 58.9342L80.5536 58.9072L80.5488 58.9596L76.55 59.8838C76.55 59.8838 76.0284 74.1305 73.0079 79.8167L80.5557 79.8144L80.7672 79.816L88.315 79.8137C85.295 74.1345 84.7592 59.8799 84.7592 59.8799L84.7672 59.8894Z" fill="#FFA469" style="fill:#FFA469;fill:color(display-p3 1.0000 0.6431 0.4118);fill-opacity:1;"/>
<path d="M97.3613 85.6458L64.6754 85.6487C64.675 81.1871 68.2935 77.5568 72.7631 77.5659L89.2865 77.5676C93.7481 77.5673 97.3609 81.1842 97.3693 85.6553L97.3613 85.6458Z" fill="#FFA469" style="fill:#FFA469;fill:color(display-p3 1.0000 0.6431 0.4118);fill-opacity:1;"/>
<path d="M97.3613 85.6458L64.6754 85.6487C64.675 81.1871 68.2935 77.5568 72.7631 77.5659L89.2865 77.5676C93.7481 77.5673 97.3609 81.1842 97.3693 85.6553L97.3613 85.6458Z" fill="url(#paint0_linear_2261_3325)" style=""/>
<path d="M97.3613 85.6458L64.6754 85.6487C64.675 81.1871 68.2935 77.5568 72.7631 77.5659L89.2865 77.5676C93.7481 77.5673 97.3609 81.1842 97.3693 85.6553L97.3613 85.6458Z" fill="url(#paint1_linear_2261_3325)" style=""/>
<path d="M57.0486 18.286C54.5889 18.283 52.1164 18.226 49.6503 18.293C47.4942 18.344 45.4591 19.1996 44.0711 20.89C42.5831 22.7122 42.34 24.8063 42.558 27.0657C43.2185 34.0649 45.1828 41.6586 50.4716 46.627C54.1274 50.0627 58.9023 51.5632 63.8552 51.5898C65.8555 51.6039 65.8552 48.5002 63.855 48.4861C60.128 48.4562 56.42 47.5375 53.4894 45.1464C51.0263 43.1416 49.2404 40.3783 48.0604 37.4496C46.9312 34.6402 46.225 31.6398 45.8367 28.6332C45.6554 27.2324 45.2911 25.5152 45.741 24.1541C46.3116 22.4337 47.8745 21.4382 49.6426 21.3871C52.1087 21.3201 54.5716 21.3851 57.0409 21.3801C59.0428 21.3768 59.0425 18.2731 57.0407 18.2764L57.0486 18.286Z" fill="#FFA469" style="fill:#FFA469;fill:color(display-p3 1.0000 0.6431 0.4118);fill-opacity:1;"/>
<path d="M57.0486 18.286C54.5889 18.283 52.1164 18.226 49.6503 18.293C47.4942 18.344 45.4591 19.1996 44.0711 20.89C42.5831 22.7122 42.34 24.8063 42.558 27.0657C43.2185 34.0649 45.1828 41.6586 50.4716 46.627C54.1274 50.0627 58.9023 51.5632 63.8552 51.5898C65.8555 51.6039 65.8552 48.5002 63.855 48.4861C60.128 48.4562 56.42 47.5375 53.4894 45.1464C51.0263 43.1416 49.2404 40.3783 48.0604 37.4496C46.9312 34.6402 46.225 31.6398 45.8367 28.6332C45.6554 27.2324 45.2911 25.5152 45.741 24.1541C46.3116 22.4337 47.8745 21.4382 49.6426 21.3871C52.1087 21.3201 54.5716 21.3851 57.0409 21.3801C59.0428 21.3768 59.0425 18.2731 57.0407 18.2764L57.0486 18.286Z" fill="#FFA469" style="fill:#FFA469;fill:color(display-p3 1.0000 0.6431 0.4118);fill-opacity:1;"/>
<path d="M104.069 21.1323C106.396 21.1321 108.716 21.1223 111.034 21.1301C112.418 21.1411 113.712 21.4526 114.634 22.5592C115.803 23.9615 115.587 25.6612 115.408 27.3466C114.778 33.3029 113.024 39.8094 108.562 44.0774C105.502 47.0001 101.451 48.2105 97.2864 48.2379C95.2926 48.2508 95.2833 51.3624 97.2867 51.3416C101.724 51.3126 106.021 50.1244 109.536 47.34C112.547 44.9595 114.611 41.6553 116.024 38.1333C117.343 34.8673 118.055 31.3962 118.46 27.9061C118.696 25.8994 118.881 23.9501 117.986 22.0612C116.986 19.9688 114.954 18.4617 112.675 18.1137C109.893 17.6846 106.891 18.0204 104.087 18.0127C102.086 18.016 102.086 21.1197 104.088 21.1164L104.069 21.1323Z" fill="#FFA469" style="fill:#FFA469;fill:color(display-p3 1.0000 0.6431 0.4118);fill-opacity:1;"/>
<path d="M104.069 21.1323C106.396 21.1321 108.716 21.1223 111.034 21.1301C112.418 21.1411 113.712 21.4526 114.634 22.5592C115.803 23.9615 115.587 25.6612 115.408 27.3466C114.778 33.3029 113.024 39.8094 108.562 44.0774C105.502 47.0001 101.451 48.2105 97.2864 48.2379C95.2926 48.2508 95.2833 51.3624 97.2867 51.3416C101.724 51.3126 106.021 50.1244 109.536 47.34C112.547 44.9595 114.611 41.6553 116.024 38.1333C117.343 34.8673 118.055 31.3962 118.46 27.9061C118.696 25.8994 118.881 23.9501 117.986 22.0612C116.986 19.9688 114.954 18.4617 112.675 18.1137C109.893 17.6846 106.891 18.0204 104.087 18.0127C102.086 18.016 102.086 21.1197 104.088 21.1164L104.069 21.1323Z" fill="#FFA469" style="fill:#FFA469;fill:color(display-p3 1.0000 0.6431 0.4118);fill-opacity:1;"/>
<path d="M107.282 16.0326C107.086 13.2891 104.803 11.1638 102.052 11.1639L80.7286 11.1645L79.3358 11.1615L60.2909 11.168C56.884 11.1692 54.4093 13.4531 54.4571 16.8596C54.6464 30.3409 57.6579 63.0378 80.7284 62.3312L80.7904 62.328C108.628 63.1662 107.431 19.6369 107.305 16.4246C107.3 16.2876 107.292 16.1693 107.282 16.0326Z" fill="#FFA469" style="fill:#FFA469;fill:color(display-p3 1.0000 0.6431 0.4118);fill-opacity:1;"/>
<path d="M107.282 16.0326C107.086 13.2891 104.803 11.1638 102.052 11.1639L80.7286 11.1645L79.3358 11.1615L60.2909 11.168C56.884 11.1692 54.4093 13.4531 54.4571 16.8596C54.6464 30.3409 57.6579 63.0378 80.7284 62.3312L80.7904 62.328C108.628 63.1662 107.431 19.6369 107.305 16.4246C107.3 16.2876 107.292 16.1693 107.282 16.0326Z" fill="url(#paint2_linear_2261_3325)" style=""/>
<path d="M57.1546 18.1431L57.3407 23.7136C57.5373 20.5821 58.5472 13.8877 68.071 13.8877H61.1518C58.5571 13.8877 56.992 15.1137 57.1546 18.1431Z" fill="#FFEB94" style="fill:#FFEB94;fill:color(display-p3 1.0000 0.9229 0.5785);fill-opacity:1;"/>
<path d="M79.8317 27.409C80.3815 26.2951 81.9696 26.294 82.521 27.4071L84.4015 31.2032C84.6203 31.645 85.0423 31.951 85.5303 32.0218L89.7084 32.628C90.9384 32.8064 91.4302 34.3174 90.541 35.1857L87.5115 38.1439C87.1583 38.4888 86.9974 38.9853 87.0812 39.4717L87.7993 43.6421C88.0104 44.8678 86.7239 45.8031 85.623 45.2244L81.8768 43.2549C81.44 43.0253 80.9183 43.0251 80.4814 43.2545L76.7403 45.2189C75.6397 45.7969 74.354 44.862 74.5646 43.6368L75.2811 39.467C75.3649 38.9793 75.2029 38.4817 74.848 38.137L71.8211 35.1964C70.9288 34.3295 71.4187 32.8158 72.6498 32.6361L76.8289 32.0264C77.3171 31.9551 77.7391 31.6484 77.9574 31.206L79.8317 27.409Z" fill="#F3F0F0" style="fill:#F3F0F0;fill:color(display-p3 0.9529 0.9412 0.9412);fill-opacity:1;"/>
<path d="M79.8317 27.409C80.3815 26.2951 81.9696 26.294 82.521 27.4071L84.4015 31.2032C84.6203 31.645 85.0423 31.951 85.5303 32.0218L89.7084 32.628C90.9384 32.8064 91.4302 34.3174 90.541 35.1857L87.5115 38.1439C87.1583 38.4888 86.9974 38.9853 87.0812 39.4717L87.7993 43.6421C88.0104 44.8678 86.7239 45.8031 85.623 45.2244L81.8768 43.2549C81.44 43.0253 80.9183 43.0251 80.4814 43.2545L76.7403 45.2189C75.6397 45.7969 74.354 44.862 74.5646 43.6368L75.2811 39.467C75.3649 38.9793 75.2029 38.4817 74.848 38.137L71.8211 35.1964C70.9288 34.3295 71.4187 32.8158 72.6498 32.6361L76.8289 32.0264C77.3171 31.9551 77.7391 31.6484 77.9574 31.206L79.8317 27.409Z" fill="url(#paint3_linear_2261_3325)" style=""/>
<path d="M53.1016 64.7753L53.8152 64.3892L53.7575 65.2051C53.7205 65.8568 53.8612 66.5122 54.1766 67.0716L54.5779 67.7835L53.762 67.7258C53.1104 67.6888 52.4549 67.8296 51.8871 68.1381L51.1735 68.5242L51.2312 67.7083C51.2682 67.0567 51.1274 66.4012 50.8121 65.8418L50.4108 65.1299L51.2182 65.1808C51.8631 65.2263 52.5186 65.0855 53.0932 64.7685L53.1016 64.7753Z" fill="#FFD66B" style="fill:#FFD66B;fill:color(display-p3 1.0000 0.8378 0.4208);fill-opacity:1;"/>
</g>
<path d="M120.962 97.2388L121.154 96.4503L121.717 97.038C122.166 97.5022 122.751 97.8341 123.382 97.9906L124.171 98.1826L123.583 98.746C123.119 99.1953 122.787 99.7797 122.63 100.411L122.438 101.2L121.875 100.612C121.426 100.148 120.841 99.8158 120.21 99.6592L119.421 99.4673L120.009 98.9039C120.473 98.4546 120.814 97.876 120.962 97.2388Z" fill="#FFA469" style="fill:#FFA469;fill:color(display-p3 1.0000 0.6431 0.4118);fill-opacity:1;"/>
<path d="M122.736 13.4671L123.195 13.3242L123.067 13.797C122.972 14.1727 122.974 14.565 123.087 14.9365L123.23 15.3954L122.757 15.2679C122.381 15.1723 121.989 15.1751 121.617 15.2874L121.158 15.4302L121.286 14.9575C121.381 14.5818 121.379 14.1895 121.266 13.8179L121.124 13.3591L121.596 13.4866C121.972 13.5822 122.364 13.5794 122.736 13.4671Z" fill="#FFD66B" style="fill:#FFD66B;fill:color(display-p3 1.0000 0.8378 0.4208);fill-opacity:1;"/>
<g clip-path="url(#clip1_2261_3325)">
<path d="M102.804 85.167L59.218 85.167C58.2374 85.167 57.4424 85.962 57.4424 86.9426L57.4424 115.261C57.4424 116.242 58.2374 117.037 59.218 117.037L102.804 117.037C103.785 117.037 104.58 116.242 104.58 115.261L104.58 86.9426C104.58 85.962 103.785 85.167 102.804 85.167Z" fill="#F2CB30" style="fill:#F2CB30;fill:color(display-p3 0.9490 0.7961 0.1882);fill-opacity:1;"/>
<path d="M102.804 85.167L59.218 85.167C58.2374 85.167 57.4424 85.962 57.4424 86.9426L57.4424 115.261C57.4424 116.242 58.2374 117.037 59.218 117.037L102.804 117.037C103.785 117.037 104.58 116.242 104.58 115.261L104.58 86.9426C104.58 85.962 103.785 85.167 102.804 85.167Z" fill="#393A3F" style="fill:#393A3F;fill:color(display-p3 0.2235 0.2275 0.2471);fill-opacity:1;"/>
<rect x="57.75" y="85.5107" width="46.5719" height="31.6024" rx="4.98985" fill="url(#paint4_linear_2261_3325)" style=""/>
<rect x="57.75" y="85.5107" width="46.5719" height="31.6024" rx="4.98985" fill="url(#paint5_linear_2261_3325)" fill-opacity="0.5" style=""/>
<mask id="path-48-outside-1_2261_3325" maskUnits="userSpaceOnUse" x="69.3696" y="94.835" width="22" height="13" fill="black">
<rect fill="white" x="69.3696" y="94.835" width="22" height="13"/>
<path d="M79.7126 101.776H84.0964V103.095H79.7126V101.776ZM72.752 100.503V106.835H70.2538V96.0091H72.5006L74.7318 99.7644L76.193 102.341H76.2402V96.0091H78.7227V106.835H76.4916L74.2447 103.017L72.8306 100.503H72.752ZM84.3321 98.9473C84.3321 99.6177 84.1016 100.141 83.6407 100.519C83.1903 100.885 82.5985 101.069 81.8652 101.069C81.5091 101.069 81.1791 101.021 80.8753 100.927C80.582 100.833 80.3254 100.697 80.1054 100.519C79.8855 100.33 79.7126 100.105 79.5869 99.8429C79.4717 99.5811 79.4141 99.2825 79.4141 98.9473V97.9417C79.4141 97.6065 79.4769 97.308 79.6026 97.0461C79.7388 96.7843 79.9169 96.5643 80.1369 96.3862C80.3673 96.1977 80.6292 96.0563 80.9225 95.962C81.2262 95.8572 81.5405 95.8049 81.8652 95.8049C82.588 95.8049 83.1798 95.9986 83.6407 96.3862C84.1016 96.7738 84.3321 97.3028 84.3321 97.9732V98.9473ZM82.5723 98.0517C82.5723 97.8213 82.499 97.6484 82.3523 97.5332C82.2057 97.418 82.0433 97.3604 81.8652 97.3604C81.6871 97.3604 81.5248 97.418 81.3781 97.5332C81.2315 97.6484 81.1582 97.8213 81.1582 98.0517V98.8216C81.1582 99.0626 81.2315 99.2406 81.3781 99.3559C81.5248 99.4711 81.6871 99.5287 81.8652 99.5287C82.0433 99.5287 82.2057 99.4711 82.3523 99.3559C82.499 99.2406 82.5723 99.0626 82.5723 98.8216V98.0517ZM88.3202 106.835V99.0573L87.4246 99.8272L86.1205 98.1617L88.5402 96.0091H90.6299V106.835H88.3202Z"/>
</mask>
<path d="M79.7126 101.776V101.121H79.0579V101.776H79.7126ZM84.0964 101.776H84.7511V101.121H84.0964V101.776ZM84.0964 103.095V103.75H84.7511V103.095H84.0964ZM79.7126 103.095H79.0579V103.75H79.7126V103.095ZM72.752 100.503V99.8482H72.0973V100.503H72.752ZM72.752 106.835V107.49H73.4067V106.835H72.752ZM70.2538 106.835H69.5991V107.49H70.2538V106.835ZM70.2538 96.0091V95.3544H69.5991V96.0091H70.2538ZM72.5006 96.0091L73.0635 95.6747L72.8732 95.3544H72.5006V96.0091ZM74.7318 99.7644L75.3014 99.4414L75.2946 99.43L74.7318 99.7644ZM76.193 102.341L75.6236 102.664L75.8117 102.996H76.193V102.341ZM76.2402 102.341V102.996H76.8949V102.341H76.2402ZM76.2402 96.0091V95.3544H75.5855V96.0091H76.2402ZM78.7227 96.0091H79.3774V95.3544H78.7227V96.0091ZM78.7227 106.835V107.49H79.3774V106.835H78.7227ZM76.4916 106.835L75.9273 107.167L76.1172 107.49H76.4916V106.835ZM74.2447 103.017L73.674 103.338L73.6805 103.349L74.2447 103.017ZM72.8306 100.503L73.4012 100.182L73.2135 99.8482H72.8306V100.503ZM83.6407 100.519L84.054 101.026L84.0553 101.025L83.6407 100.519ZM80.8753 100.927L80.675 101.55L80.6813 101.552L80.8753 100.927ZM80.1054 100.519L79.6794 101.016L79.6864 101.022L79.6935 101.027L80.1054 100.519ZM79.5869 99.8429L78.9877 100.107L78.992 100.117L78.9967 100.126L79.5869 99.8429ZM79.6026 97.0461L79.0218 96.7441L79.017 96.7534L79.0124 96.7628L79.6026 97.0461ZM80.1369 96.3862L80.5488 96.8951L80.5514 96.8929L80.1369 96.3862ZM80.9225 95.962L81.1229 96.5854L81.1359 96.5809L80.9225 95.962ZM82.3523 97.5332L81.9478 98.048L81.9478 98.048L82.3523 97.5332ZM81.3781 97.5332L81.7826 98.048L81.7826 98.048L81.3781 97.5332ZM81.3781 99.3559L80.9737 99.8706L80.9737 99.8706L81.3781 99.3559ZM82.3523 99.3559L82.7568 99.8706L82.7568 99.8706L82.3523 99.3559ZM79.7126 102.43H84.0964V101.121H79.7126V102.43ZM83.4417 101.776V103.095H84.7511V101.776H83.4417ZM84.0964 102.441H79.7126V103.75H84.0964V102.441ZM80.3673 103.095V101.776H79.0579V103.095H80.3673ZM72.0973 100.503V106.835H73.4067V100.503H72.0973ZM72.752 106.18H70.2538V107.49H72.752V106.18ZM70.9084 106.835V96.0091H69.5991V106.835H70.9084ZM70.2538 96.6638H72.5006V95.3544H70.2538V96.6638ZM71.9378 96.3435L74.169 100.099L75.2946 99.43L73.0635 95.6747L71.9378 96.3435ZM74.1623 100.087L75.6236 102.664L76.7625 102.018L75.3013 99.4414L74.1623 100.087ZM76.193 102.996H76.2402V101.687H76.193V102.996ZM76.8949 102.341V96.0091H75.5855V102.341H76.8949ZM76.2402 96.6638H78.7227V95.3544H76.2402V96.6638ZM78.0681 96.0091V106.835H79.3774V96.0091H78.0681ZM78.7227 106.18H76.4916V107.49H78.7227V106.18ZM77.0558 106.503L74.8089 102.685L73.6805 103.349L75.9273 107.167L77.0558 106.503ZM74.8153 102.696L73.4012 100.182L72.26 100.824L73.6741 103.338L74.8153 102.696ZM72.8306 99.8482H72.752V101.158H72.8306V99.8482ZM83.6774 98.9473C83.6774 99.4492 83.5147 99.7758 83.2262 100.012L84.0553 101.025C84.6885 100.507 84.9868 99.7862 84.9868 98.9473H83.6774ZM83.2274 100.011C82.9217 100.26 82.4883 100.414 81.8652 100.414V101.723C82.7086 101.723 83.4589 101.511 84.054 101.026L83.2274 100.011ZM81.8652 100.414C81.5671 100.414 81.3033 100.374 81.0694 100.302L80.6813 101.552C81.0549 101.668 81.4511 101.723 81.8652 101.723V100.414ZM81.0757 100.304C80.8525 100.232 80.6691 100.133 80.5174 100.01L79.6935 101.027C79.9817 101.261 80.3116 101.434 80.675 101.55L81.0757 100.304ZM80.5315 100.022C80.3807 99.8922 80.2636 99.7399 80.1771 99.5596L78.9967 100.126C79.1616 100.47 79.3903 100.768 79.6794 101.016L80.5315 100.022ZM80.1862 99.5793C80.1132 99.4135 80.0688 99.2072 80.0688 98.9473H78.7594C78.7594 99.3579 78.8302 99.7486 78.9877 100.107L80.1862 99.5793ZM80.0688 98.9473V97.9417H78.7594V98.9473H80.0688ZM80.0688 97.9417C80.0688 97.6895 80.1157 97.4902 80.1928 97.3294L79.0124 96.7628C78.8382 97.1258 78.7594 97.5236 78.7594 97.9417H80.0688ZM80.1835 97.3482C80.28 97.1626 80.4017 97.0141 80.5488 96.8951L79.7249 95.8774C79.432 96.1145 79.1976 96.4059 79.0218 96.7441L80.1835 97.3482ZM80.5514 96.8929C80.7162 96.7581 80.9048 96.6553 81.1228 96.5853L80.7221 95.3387C80.3535 95.4572 80.0184 95.6372 79.7223 95.8795L80.5514 96.8929ZM81.1359 96.5809C81.3703 96.5001 81.6123 96.4595 81.8652 96.4595V95.1502C81.4686 95.1502 81.0822 95.2144 80.7091 95.3431L81.1359 96.5809ZM81.8652 96.4595C82.466 96.4595 82.899 96.6179 83.2194 96.8873L84.0621 95.8851C83.4607 95.3794 82.7099 95.1502 81.8652 95.1502V96.4595ZM83.2194 96.8873C83.5144 97.1354 83.6774 97.4714 83.6774 97.9732H84.9868C84.9868 97.1342 84.6888 96.4122 84.0621 95.8851L83.2194 96.8873ZM83.6774 97.9732V98.9473H84.9868V97.9732H83.6774ZM83.227 98.0517C83.227 97.6727 83.0984 97.2868 82.7568 97.0184L81.9478 98.048C81.9423 98.0437 81.9352 98.0369 81.9282 98.0278C81.9213 98.0187 81.9169 98.0104 81.9146 98.005C81.9101 97.9943 81.9176 98.0049 81.9176 98.0517H83.227ZM82.7568 97.0184C82.5007 96.8172 82.1973 96.7057 81.8652 96.7057V98.0151C81.8893 98.0151 81.9106 98.0188 81.9478 98.048L82.7568 97.0184ZM81.8652 96.7057C81.5332 96.7057 81.2298 96.8172 80.9737 97.0184L81.7826 98.048C81.8198 98.0188 81.8411 98.0151 81.8652 98.0151V96.7057ZM80.9737 97.0184C80.6321 97.2868 80.5035 97.6727 80.5035 98.0517H81.8128C81.8128 98.0049 81.8203 97.9943 81.8158 98.005C81.8135 98.0104 81.8092 98.0187 81.8022 98.0278C81.7952 98.0369 81.7881 98.0437 81.7826 98.048L80.9737 97.0184ZM80.5035 98.0517V98.8216H81.8128V98.0517H80.5035ZM80.5035 98.8216C80.5035 99.1997 80.6249 99.5966 80.9737 99.8706L81.7826 98.8411C81.7901 98.8469 81.7983 98.855 81.8056 98.8648C81.8129 98.8746 81.8169 98.8826 81.8185 98.8866C81.8215 98.8938 81.8128 98.8773 81.8128 98.8216H80.5035ZM80.9737 99.8706C81.2298 100.072 81.5332 100.183 81.8652 100.183V98.874C81.8411 98.874 81.8198 98.8703 81.7826 98.8411L80.9737 99.8706ZM81.8652 100.183C82.1973 100.183 82.5007 100.072 82.7568 99.8706L81.9478 98.8411C81.9107 98.8703 81.8893 98.874 81.8652 98.874V100.183ZM82.7568 99.8706C83.1055 99.5966 83.227 99.1997 83.227 98.8216H81.9176C81.9176 98.8773 81.909 98.8938 81.9119 98.8866C81.9136 98.8826 81.9175 98.8746 81.9248 98.8648C81.9322 98.855 81.9404 98.8469 81.9478 98.8411L82.7568 99.8706ZM83.227 98.8216V98.0517H81.9176V98.8216H83.227ZM88.3202 106.835H87.6655V107.49H88.3202V106.835ZM88.3202 99.0573H88.9749V97.6312L87.8934 98.5609L88.3202 99.0573ZM87.4246 99.8272L86.9091 100.231L87.3317 100.77L87.8514 100.324L87.4246 99.8272ZM86.1205 98.1617L85.6853 97.6726L85.2259 98.0812L85.605 98.5653L86.1205 98.1617ZM88.5402 96.0091V95.3544H88.2911L88.105 95.52L88.5402 96.0091ZM90.6299 96.0091H91.2846V95.3544H90.6299V96.0091ZM90.6299 106.835V107.49H91.2846V106.835H90.6299ZM88.9749 106.835V99.0573H87.6655V106.835H88.9749ZM87.8934 98.5609L86.9978 99.3308L87.8514 100.324L88.747 99.5538L87.8934 98.5609ZM87.9401 99.4236L86.6359 97.7581L85.605 98.5653L86.9091 100.231L87.9401 99.4236ZM86.5556 98.6509L88.9753 96.4983L88.105 95.52L85.6853 97.6726L86.5556 98.6509ZM88.5402 96.6638H90.6299V95.3544H88.5402V96.6638ZM89.9752 96.0091V106.835H91.2846V96.0091H89.9752ZM90.6299 106.18H88.3202V107.49H90.6299V106.18Z" fill="#FFA469" style="fill:#FFA469;fill:color(display-p3 1.0000 0.6431 0.4118);fill-opacity:1;" mask="url(#path-48-outside-1_2261_3325)"/>
</g>
<defs>
<linearGradient id="paint0_linear_2261_3325" x1="91.1747" y1="75.2961" x2="70.4465" y2="92.5727" gradientUnits="userSpaceOnUse">
<stop stop-color="#FFD66B" style="stop-color:#FFD66B;stop-color:color(display-p3 1.0000 0.8392 0.4196);stop-opacity:1;"/>
<stop offset="1" stop-color="#FFA469" style="stop-color:#FFA469;stop-color:color(display-p3 1.0000 0.6431 0.4118);stop-opacity:1;"/>
</linearGradient>
<linearGradient id="paint1_linear_2261_3325" x1="81.3325" y1="73.2151" x2="83.3082" y2="87.9507" gradientUnits="userSpaceOnUse">
<stop stop-color="#FFD66B" style="stop-color:#FFD66B;stop-color:color(display-p3 1.0000 0.8392 0.4196);stop-opacity:1;"/>
<stop offset="1" stop-color="#FFA469" style="stop-color:#FFA469;stop-color:color(display-p3 1.0000 0.6431 0.4118);stop-opacity:1;"/>
</linearGradient>
<linearGradient id="paint2_linear_2261_3325" x1="73.1553" y1="7.32587" x2="96.3966" y2="50.8623" gradientUnits="userSpaceOnUse">
<stop stop-color="#FFD66B" style="stop-color:#FFD66B;stop-color:color(display-p3 1.0000 0.8392 0.4196);stop-opacity:1;"/>
<stop offset="1" stop-color="#FFA469" style="stop-color:#FFA469;stop-color:color(display-p3 1.0000 0.6431 0.4118);stop-opacity:1;"/>
</linearGradient>
<linearGradient id="paint3_linear_2261_3325" x1="81.7443" y1="27.1769" x2="82.5251" y2="46.6463" gradientUnits="userSpaceOnUse">
<stop stop-color="#4F5058" style="stop-color:#4F5058;stop-color:color(display-p3 0.3098 0.3137 0.3451);stop-opacity:1;"/>
<stop offset="1" stop-color="#C27B4C" style="stop-color:#C27B4C;stop-color:color(display-p3 0.7592 0.4808 0.2983);stop-opacity:1;"/>
</linearGradient>
<linearGradient id="paint4_linear_2261_3325" x1="39.8635" y1="70.4864" x2="112.127" y2="121.076" gradientUnits="userSpaceOnUse">
<stop stop-color="white" style="stop-color:white;stop-opacity:1;"/>
<stop offset="0.12" stop-color="#51535C" style="stop-color:#51535C;stop-color:color(display-p3 0.3187 0.3238 0.3593);stop-opacity:1;"/>
<stop offset="0.440655" stop-color="white" stop-opacity="0.14" style="stop-color:white;stop-opacity:0.14;"/>
<stop offset="0.440755" stop-color="#46474E" style="stop-color:#46474E;stop-color:color(display-p3 0.2745 0.2784 0.3059);stop-opacity:1;"/>
<stop offset="0.755" stop-color="#393A3F" style="stop-color:#393A3F;stop-color:color(display-p3 0.2235 0.2275 0.2471);stop-opacity:1;"/>
</linearGradient>
<linearGradient id="paint5_linear_2261_3325" x1="107.648" y1="76.3627" x2="109.213" y2="108.175" gradientUnits="userSpaceOnUse">
<stop stop-color="#FFA469" stop-opacity="0" style="stop-color:none;stop-opacity:0;"/>
<stop offset="0.149619" stop-color="#FFD66B" stop-opacity="0.48" style="stop-color:#FFD66B;stop-color:color(display-p3 1.0000 0.8392 0.4196);stop-opacity:0.48;"/>
<stop offset="0.74054" stop-color="#FFA469" stop-opacity="0" style="stop-color:none;stop-opacity:0;"/>
</linearGradient>
<clipPath id="clip0_2261_3325">
<rect width="154.505" height="91.001" fill="white" style="fill:white;fill-opacity:1;" transform="translate(0.156738 0.683594)"/>
</clipPath>
<clipPath id="clip1_2261_3325">
<rect x="57.75" y="85.5107" width="46.5719" height="31.6024" rx="4.98985" fill="white" style="fill:white;fill-opacity:1;"/>
</clipPath>
</defs>
</svg>
