<svg width="517" height="461" viewBox="0 0 517 461" fill="none" xmlns="http://www.w3.org/2000/svg">
<path d="M309.823 31.986L308.076 20.7685C306.454 10.3557 298.233 2.08559 287.715 1.43009C283.129 1.14429 278.505 1 273.847 1C270.77 1 267.707 1.06476 264.658 1.19179C253.936 1.63855 245.449 9.99612 243.799 20.6001L241.909 32.7513C240.363 42.6918 232.728 50.4573 223.104 53.3867C213.462 56.3215 204.178 60.0727 195.325 64.5544C186.552 68.9947 175.947 68.766 168.008 62.9653L157.081 54.9814C148.571 48.7632 136.908 48.7265 129.001 55.695C123.221 60.7887 117.71 66.1835 112.495 71.8544C105.241 79.7411 105.157 91.6314 111.478 100.284L118.763 110.258C124.697 118.382 124.788 129.272 120.049 138.146C115.377 146.895 111.434 156.094 108.293 165.659C105.225 175.004 97.5639 182.348 87.8456 183.861L74.4648 185.945C64.0515 187.566 55.7808 195.787 55.1253 206.306C54.8396 210.891 54.6953 215.515 54.6953 220.174C54.6953 223.247 54.76 226.307 54.8868 229.351C55.3334 240.073 63.6914 248.56 74.2954 250.21L86.4466 252.1C96.3872 253.646 104.152 261.281 107.082 270.905C110.017 280.544 113.769 289.826 118.256 298.678C122.703 307.454 122.48 318.068 116.677 326.013L108.696 336.939C102.479 345.449 102.443 357.111 109.411 365.017C114.506 370.799 119.903 376.31 125.576 381.525C133.461 388.774 145.345 388.855 153.995 382.537L163.973 375.25C172.093 369.319 182.976 369.225 191.846 373.96C200.604 378.634 209.807 382.577 219.376 385.718C228.716 388.784 236.057 396.439 237.574 406.152L239.667 419.554C241.292 429.962 249.512 438.227 260.026 438.883C264.612 439.169 269.236 439.314 273.891 439.314C276.967 439.314 280.031 439.249 283.08 439.122C293.802 438.675 302.289 430.317 303.939 419.713L305.829 407.562C307.375 397.622 315.01 389.856 324.634 386.927C334.275 383.992 343.559 380.241 352.413 375.759C361.185 371.319 371.791 371.548 379.73 377.348L390.656 385.332C399.166 391.55 410.83 391.587 418.737 384.619C424.518 379.524 430.029 374.128 435.246 368.456C442.498 360.571 442.583 348.683 436.265 340.03L428.97 330.04C423.044 321.924 422.948 311.047 427.681 302.181C432.355 293.425 436.301 284.224 439.444 274.654C442.513 265.31 450.174 257.966 459.892 256.452L473.273 254.369C483.686 252.747 491.957 244.526 492.613 234.008C492.898 229.424 493.042 224.804 493.042 220.151C493.042 217.075 492.978 214.011 492.851 210.963C492.404 200.24 484.046 191.753 473.442 190.104L451.702 186.722C447.524 186.072 444.223 182.875 443.212 178.769V178.769M440.247 168.116C437.376 158.945 433.762 150.098 429.481 141.648C425.035 132.871 425.258 122.256 431.061 114.311L439.042 103.385C445.258 94.8756 445.294 83.2137 438.327 75.3074C433.231 69.5258 427.835 64.015 422.162 58.7998C414.277 51.5507 402.392 51.4697 393.743 57.7872L383.765 65.0752C375.645 71.0058 364.762 71.0996 355.892 66.3635C345.075 60.5876 333.579 55.9251 321.554 52.515C316.232 51.0059 312.118 46.6609 311.267 41.1956V41.1956M152.723 283.623C142.763 264.655 137.134 243.069 137.134 220.162C137.134 144.672 198.345 83.4614 273.847 83.4614C349.348 83.4614 410.559 144.672 410.559 220.162C410.559 295.652 349.348 356.874 273.847 356.874C225.404 356.874 182.847 331.674 158.564 293.672" stroke="#686054" style="stroke:#686054;stroke:color(display-p3 0.4078 0.3765 0.3294);stroke-opacity:1;" stroke-width="0.867728" stroke-linecap="round" stroke-linejoin="round"/>
<path fill-rule="evenodd" clip-rule="evenodd" d="M232.782 155.576C235.322 157.129 238.497 157.109 241.148 155.753C243.994 154.298 246.918 153.042 249.898 151.987C252.705 150.993 254.901 148.698 255.518 145.785L256.871 139.395C257.645 135.738 260.848 133.105 264.585 133.052L281.197 132.819C284.934 132.766 288.209 135.307 289.086 138.94L290.619 145.29C291.318 148.184 293.579 150.416 296.413 151.33C299.421 152.3 302.38 153.473 305.267 154.848C307.954 156.128 311.128 156.058 313.623 154.435L319.095 150.876C322.228 148.838 326.355 149.241 329.034 151.846L340.946 163.427C343.625 166.032 344.144 170.145 342.195 173.334L338.794 178.901C337.241 181.441 337.261 184.616 338.617 187.267C340.073 190.114 341.328 193.038 342.383 196.018C343.376 198.826 345.671 201.023 348.584 201.64L354.975 202.993C358.631 203.767 361.264 206.969 361.317 210.706L361.551 227.317C361.604 231.054 359.063 234.329 355.43 235.207L349.078 236.741C346.184 237.44 343.953 239.7 343.039 242.533C342.068 245.541 340.896 248.499 339.521 251.385C338.241 254.073 338.31 257.248 339.933 259.744L343.492 265.215C345.53 268.348 345.127 272.474 342.523 275.154L330.943 287.065C328.338 289.745 324.224 290.264 321.035 288.315L315.468 284.913C312.927 283.361 309.751 283.381 307.1 284.737C304.254 286.192 301.329 287.447 298.35 288.502C295.543 289.495 293.346 291.789 292.729 294.702L291.376 301.093C290.602 304.75 287.4 307.383 283.662 307.436L267.051 307.67C263.314 307.722 260.038 305.181 259.161 301.548L257.628 295.196C256.929 292.302 254.669 290.071 251.835 289.157C248.827 288.187 245.869 287.014 242.982 285.639C240.295 284.359 237.12 284.429 234.625 286.052L229.154 289.611C226.021 291.649 221.895 291.246 219.215 288.641L207.304 277.061C204.624 274.456 204.105 270.342 206.054 267.153L209.456 261.586C211.008 259.046 210.988 255.871 209.633 253.22C208.177 250.373 206.922 247.449 205.867 244.469C204.873 241.661 202.579 239.464 199.665 238.847L193.275 237.494C189.619 236.72 186.986 233.518 186.933 229.78L186.699 213.169C186.647 209.433 189.188 206.158 192.82 205.28L199.173 203.746C202.067 203.047 204.298 200.787 205.212 197.954C206.183 194.946 207.355 191.988 208.729 189.101C210.009 186.413 209.939 183.239 208.316 180.745L204.756 175.272C202.719 172.139 203.121 168.013 205.726 165.333L217.305 153.422C219.91 150.742 224.024 150.223 227.214 152.173L232.782 155.576Z" fill="#E8505B" style="fill:#E8505B;fill:color(display-p3 0.9098 0.3137 0.3569);fill-opacity:1;"/>
<path fill-rule="evenodd" clip-rule="evenodd" d="M232.782 155.576C235.322 157.129 238.497 157.109 241.148 155.753C243.994 154.298 246.918 153.042 249.898 151.987C252.705 150.993 254.901 148.698 255.518 145.785L256.871 139.395C257.645 135.738 260.848 133.105 264.585 133.052L281.197 132.819C284.934 132.766 288.209 135.307 289.086 138.94L290.619 145.29C291.318 148.184 293.579 150.416 296.413 151.33C299.421 152.3 302.38 153.473 305.267 154.848C307.954 156.128 311.128 156.058 313.623 154.435L319.095 150.876C322.228 148.838 326.355 149.241 329.034 151.846L340.946 163.427C343.625 166.032 344.144 170.145 342.195 173.334L338.794 178.901C337.241 181.441 337.261 184.616 338.617 187.267C340.073 190.114 341.328 193.038 342.383 196.018C343.376 198.826 345.671 201.023 348.584 201.64L354.975 202.993C358.631 203.767 361.264 206.969 361.317 210.706L361.551 227.317C361.604 231.054 359.063 234.329 355.43 235.207L349.078 236.741C346.184 237.44 343.953 239.7 343.039 242.533C342.068 245.541 340.896 248.499 339.521 251.385C338.241 254.073 338.31 257.248 339.933 259.744L343.492 265.215C345.53 268.348 345.127 272.474 342.523 275.154L330.943 287.065C328.338 289.745 324.224 290.264 321.035 288.315L315.468 284.913C312.927 283.361 309.751 283.381 307.1 284.737C304.254 286.192 301.329 287.447 298.35 288.502C295.543 289.495 293.346 291.789 292.729 294.702L291.376 301.093C290.602 304.75 287.4 307.383 283.662 307.436L267.051 307.67C263.314 307.722 260.038 305.181 259.161 301.548L257.628 295.196C256.929 292.302 254.669 290.071 251.835 289.157C248.827 288.187 245.869 287.014 242.982 285.639C240.295 284.359 237.12 284.429 234.625 286.052L229.154 289.611C226.021 291.649 221.895 291.246 219.215 288.641L207.304 277.061C204.624 274.456 204.105 270.342 206.054 267.153L209.456 261.586C211.008 259.046 210.988 255.871 209.633 253.22C208.177 250.373 206.922 247.449 205.867 244.469C204.873 241.661 202.579 239.464 199.665 238.847L193.275 237.494C189.619 236.72 186.986 233.518 186.933 229.78L186.699 213.169C186.647 209.433 189.188 206.158 192.82 205.28L199.173 203.746C202.067 203.047 204.298 200.787 205.212 197.954C206.183 194.946 207.355 191.988 208.729 189.101C210.009 186.413 209.939 183.239 208.316 180.745L204.756 175.272C202.719 172.139 203.121 168.013 205.726 165.333L217.305 153.422C219.91 150.742 224.024 150.223 227.214 152.173L232.782 155.576Z" fill="url(#paint0_linear_2840_3378)" style=""/>
<path d="M235.634 198.259V193.096H236.876C237.987 193.096 238.902 193.226 239.556 193.619C240.209 194.011 240.601 194.664 240.601 195.71C240.601 197.475 239.556 198.259 237.072 198.259H235.634ZM232.628 200.742H237.007C241.909 200.742 243.673 198.586 243.673 195.579C243.673 193.553 242.824 192.181 241.32 191.396C240.144 190.743 238.641 190.547 236.811 190.547H235.634V186.625H242.235L243.02 184.207H232.562V200.742H232.628ZM245.699 200.742H248.575L252.3 195.383C253.019 194.403 253.542 193.422 253.869 192.9H253.934C253.869 193.619 253.804 194.534 253.804 195.449V200.677H256.745V188.913H253.869L250.144 194.272C249.49 195.252 248.902 196.233 248.575 196.756H248.51C248.575 196.037 248.64 195.122 248.64 194.207V188.978H245.699V200.742ZM261.777 200.742H264.784V191.396H268.313L269.097 188.913H258.183V191.396H261.777V200.742ZM270.143 206.69H273.084V200.742C273.672 200.939 274.261 201.004 274.914 201.004C278.64 201.004 281.058 198.455 281.058 194.795C281.058 191.004 278.836 188.586 274.587 188.586C272.953 188.586 271.385 188.913 270.078 189.305V206.69H270.143ZM273.084 198.194V191.266C273.542 191.135 273.934 191.07 274.457 191.07C276.613 191.07 277.986 192.246 277.986 194.795C277.986 197.082 276.875 198.52 274.653 198.52C274.065 198.52 273.607 198.39 273.084 198.194ZM282.822 200.742H285.698L289.424 195.383C290.142 194.403 290.665 193.422 290.992 192.9H291.057C290.992 193.619 290.927 194.534 290.927 195.449V200.677H293.868V188.913H290.992L287.267 194.272C286.613 195.252 286.025 196.233 285.698 196.756H285.633C285.698 196.037 285.764 195.122 285.764 194.207V188.978H282.822V200.742ZM296.221 200.742H299.227V195.841H300.992C301.319 195.841 301.645 196.167 302.038 196.952L303.541 200.742H306.743L304.586 196.233C304.194 195.449 303.802 194.991 303.214 194.795V194.73C304.194 194.141 304.325 192.442 304.913 191.592C305.109 191.331 305.371 191.2 305.763 191.2C305.959 191.2 306.22 191.2 306.416 191.331V188.782C306.09 188.651 305.501 188.586 305.175 188.586C304.129 188.586 303.475 188.978 303.018 189.632C302.038 191.07 302.038 193.553 300.6 193.553H299.227V188.913H296.221V200.742ZM313.41 201.004C315.044 201.004 316.547 200.481 317.462 199.827L316.612 197.801C315.763 198.259 314.978 198.586 313.867 198.586C311.841 198.586 310.534 197.279 310.534 194.86C310.534 192.704 311.841 191.004 314.063 191.004C315.24 191.004 316.089 191.331 316.939 191.919V189.37C316.285 188.978 315.24 188.586 313.737 188.586C310.207 188.586 307.462 191.2 307.462 194.926C307.462 198.324 309.554 201.004 313.41 201.004Z" fill="url(#paint1_linear_2840_3378)" style=""/>
<path d="M227.805 255.81H257.804V249.163H238.032C240.759 238.254 257.463 235.867 257.463 223.765C257.463 217.288 253.031 212.516 243.657 212.516C237.861 212.516 232.748 214.22 229.339 215.925L231.384 222.061C234.452 220.527 238.032 219.163 242.464 219.163C245.873 219.163 249.111 220.697 249.111 224.618C249.111 233.481 229.509 234.163 227.805 255.81ZM258.656 245.242H277.917V255.81H285.588V245.242H292.065V238.765H285.588V212.516H279.963L258.656 240.129V245.242ZM267.349 239.106L278.258 224.447C278.258 225.64 277.917 229.39 277.917 232.799V238.936H272.804C271.27 238.936 268.372 239.106 267.349 239.106Z" fill="url(#paint2_linear_2840_3378)" style=""/>
<path d="M317.467 245.239C325.819 245.239 332.637 238.421 332.637 230.069C332.637 221.716 325.819 214.898 317.467 214.898C309.115 214.898 302.297 221.716 302.297 230.069C302.467 238.421 309.115 245.239 317.467 245.239Z" fill="url(#paint3_linear_2840_3378)" style=""/>
<path d="M327.013 230.071H318.661V221.719H316.445V232.287H327.013V230.071Z" fill="url(#paint4_linear_2840_3378)" style=""/>
<path fill-rule="evenodd" clip-rule="evenodd" d="M392.197 205.163C394.823 206.565 397.986 206.345 400.599 204.918C401.617 204.362 402.651 203.844 403.699 203.364C406.407 202.125 408.475 199.722 408.922 196.778L409.061 195.861C409.621 192.166 412.666 189.352 416.393 189.082L423.714 188.553C427.441 188.283 430.858 190.63 431.945 194.206L432.214 195.092C433.08 197.941 435.473 200.022 438.331 200.859C439.438 201.183 440.536 201.547 441.624 201.951C444.415 202.986 447.575 202.749 449.972 200.984L450.716 200.436C453.725 198.219 457.868 198.382 460.695 200.827L466.245 205.629C469.071 208.074 469.828 212.151 468.067 215.447L467.633 216.26C466.231 218.886 466.452 222.048 467.878 224.661C468.434 225.679 468.952 226.714 469.432 227.762C470.672 230.47 473.075 232.539 476.019 232.986L476.935 233.125C480.63 233.685 483.445 236.73 483.714 240.457L484.244 247.777C484.514 251.504 482.167 254.922 478.591 256.008L477.703 256.279C474.854 257.144 472.774 259.537 471.937 262.394C471.613 263.5 471.25 264.598 470.846 265.686C469.81 268.477 470.047 271.638 471.812 274.035L472.36 274.779C474.576 277.788 474.414 281.931 471.969 284.757L467.168 290.307C464.723 293.134 460.646 293.891 457.349 292.13L456.536 291.696C453.91 290.294 450.747 290.515 448.134 291.941C447.116 292.497 446.081 293.015 445.033 293.495C442.325 294.734 440.257 297.137 439.81 300.081L439.671 300.997C439.111 304.692 436.066 307.507 432.339 307.777L425.019 308.306C421.291 308.575 417.874 306.228 416.787 302.653L416.517 301.765C415.652 298.916 413.259 296.836 410.402 295.999C409.295 295.675 408.197 295.311 407.109 294.908C404.318 293.872 401.157 294.109 398.761 295.874L398.017 296.422C395.008 298.638 390.865 298.476 388.039 296.031L382.489 291.23C379.662 288.784 378.905 284.708 380.666 281.411L381.1 280.598C382.502 277.972 382.282 274.81 380.855 272.197C380.299 271.179 379.781 270.144 379.301 269.096C378.062 266.388 375.658 264.318 372.714 263.872L371.799 263.733C368.104 263.172 365.289 260.128 365.019 256.4L364.49 249.081C364.221 245.353 366.567 241.936 370.143 240.849L371.032 240.579C373.88 239.713 375.96 237.321 376.797 234.464C377.121 233.357 377.485 232.259 377.889 231.171C378.924 228.381 378.687 225.22 376.922 222.824L376.373 222.079C374.157 219.07 374.319 214.927 376.764 212.101L381.565 206.551C384.01 203.724 388.087 202.968 391.384 204.728L392.197 205.163Z" fill="#E8505B" style="fill:#E8505B;fill:color(display-p3 0.9098 0.3137 0.3569);fill-opacity:1;"/>
<path fill-rule="evenodd" clip-rule="evenodd" d="M392.197 205.163C394.823 206.565 397.986 206.345 400.599 204.918C401.617 204.362 402.651 203.844 403.699 203.364C406.407 202.125 408.475 199.722 408.922 196.778L409.061 195.861C409.621 192.166 412.666 189.352 416.393 189.082L423.714 188.553C427.441 188.283 430.858 190.63 431.945 194.206L432.214 195.092C433.08 197.941 435.473 200.022 438.331 200.859C439.438 201.183 440.536 201.547 441.624 201.951C444.415 202.986 447.575 202.749 449.972 200.984L450.716 200.436C453.725 198.219 457.868 198.382 460.695 200.827L466.245 205.629C469.071 208.074 469.828 212.151 468.067 215.447L467.633 216.26C466.231 218.886 466.452 222.048 467.878 224.661C468.434 225.679 468.952 226.714 469.432 227.762C470.672 230.47 473.075 232.539 476.019 232.986L476.935 233.125C480.63 233.685 483.445 236.73 483.714 240.457L484.244 247.777C484.514 251.504 482.167 254.922 478.591 256.008L477.703 256.279C474.854 257.144 472.774 259.537 471.937 262.394C471.613 263.5 471.25 264.598 470.846 265.686C469.81 268.477 470.047 271.638 471.812 274.035L472.36 274.779C474.576 277.788 474.414 281.931 471.969 284.757L467.168 290.307C464.723 293.134 460.646 293.891 457.349 292.13L456.536 291.696C453.91 290.294 450.747 290.515 448.134 291.941C447.116 292.497 446.081 293.015 445.033 293.495C442.325 294.734 440.257 297.137 439.81 300.081L439.671 300.997C439.111 304.692 436.066 307.507 432.339 307.777L425.019 308.306C421.291 308.575 417.874 306.228 416.787 302.653L416.517 301.765C415.652 298.916 413.259 296.836 410.402 295.999C409.295 295.675 408.197 295.311 407.109 294.908C404.318 293.872 401.157 294.109 398.761 295.874L398.017 296.422C395.008 298.638 390.865 298.476 388.039 296.031L382.489 291.23C379.662 288.784 378.905 284.708 380.666 281.411L381.1 280.598C382.502 277.972 382.282 274.81 380.855 272.197C380.299 271.179 379.781 270.144 379.301 269.096C378.062 266.388 375.658 264.318 372.714 263.872L371.799 263.733C368.104 263.172 365.289 260.128 365.019 256.4L364.49 249.081C364.221 245.353 366.567 241.936 370.143 240.849L371.032 240.579C373.88 239.713 375.96 237.321 376.797 234.464C377.121 233.357 377.485 232.259 377.889 231.171C378.924 228.381 378.687 225.22 376.922 222.824L376.373 222.079C374.157 219.07 374.319 214.927 376.764 212.101L381.565 206.551C384.01 203.724 388.087 202.968 391.384 204.728L392.197 205.163Z" fill="url(#paint5_linear_2840_3378)" style=""/>
<path d="M433.828 266.761C431.844 266.761 429.756 266.308 427.597 265.436C425.491 264.581 423.368 263.407 421.297 261.981C419.243 260.539 417.26 258.929 415.382 257.168C413.522 255.374 411.837 253.479 410.346 251.533C408.836 249.521 407.625 247.509 406.765 245.563C405.853 243.484 405.396 241.471 405.396 239.576C405.396 238.268 405.642 237.027 406.116 235.87C406.607 234.68 407.397 233.573 408.468 232.617C409.819 231.342 411.363 230.705 413.013 230.705C413.698 230.705 414.4 230.856 414.996 231.124C415.681 231.426 416.26 231.879 416.681 232.483L420.753 237.967C421.121 238.453 421.402 238.922 421.595 239.392C421.823 239.895 421.946 240.398 421.946 240.884C421.946 241.522 421.753 242.142 421.385 242.729C421.121 243.182 420.718 243.668 420.209 244.155L419.015 245.345C419.033 245.396 419.05 245.429 419.068 245.463C419.279 245.815 419.7 246.419 420.507 247.324C421.367 248.263 422.174 249.119 422.982 249.907C424.017 250.879 424.877 251.651 425.684 252.288C426.685 253.093 427.334 253.496 427.72 253.68L427.685 253.764L428.966 252.556C429.51 252.037 430.037 251.651 430.546 251.399C431.511 250.829 432.739 250.728 433.968 251.215C434.424 251.399 434.916 251.651 435.442 252.003L441.269 255.961C441.918 256.38 442.392 256.917 442.673 257.554C442.936 258.191 443.059 258.778 443.059 259.365C443.059 260.17 442.866 260.975 442.497 261.73C442.129 262.484 441.672 263.138 441.093 263.742C440.093 264.799 439.005 265.553 437.741 266.04C436.53 266.509 435.214 266.761 433.828 266.761ZM413.013 233.221C412.048 233.221 411.153 233.623 410.293 234.428C409.486 235.149 408.924 235.937 408.573 236.793C408.204 237.665 408.029 238.587 408.029 239.576C408.029 241.136 408.415 242.83 409.187 244.574C409.977 246.352 411.083 248.196 412.487 250.041C413.891 251.886 415.488 253.68 417.243 255.374C418.998 257.034 420.893 258.577 422.841 259.935C424.737 261.26 426.685 262.333 428.615 263.105C431.616 264.329 434.424 264.614 436.741 263.692C437.636 263.34 438.426 262.803 439.145 262.031C439.549 261.612 439.865 261.159 440.128 260.623C440.339 260.204 440.444 259.768 440.444 259.332C440.444 259.063 440.391 258.795 440.251 258.493C440.198 258.392 440.093 258.208 439.759 257.99L433.933 254.032C433.582 253.797 433.266 253.63 432.968 253.512C432.581 253.361 432.424 253.21 431.827 253.563C431.476 253.73 431.16 253.982 430.809 254.317L429.475 255.575C428.791 256.212 427.738 256.363 426.93 256.078L426.457 255.877C425.737 255.508 424.895 254.938 423.964 254.183C423.122 253.496 422.209 252.691 421.104 251.651C420.244 250.812 419.384 249.924 418.489 248.934C417.664 248.012 417.067 247.224 416.699 246.57L416.488 246.066C416.383 245.681 416.348 245.463 416.348 245.228C416.348 244.624 416.576 244.088 417.015 243.668L418.331 242.36C418.682 242.025 418.945 241.706 419.121 241.421C419.261 241.203 419.314 241.019 419.314 240.851C419.314 240.717 419.261 240.516 419.173 240.314C419.05 240.046 418.857 239.744 418.612 239.425L414.54 233.925C414.365 233.69 414.154 233.522 413.891 233.405C413.61 233.288 413.312 233.221 413.013 233.221ZM427.685 253.781L427.404 254.921L427.878 253.747C427.79 253.73 427.72 253.747 427.685 253.781Z" fill="url(#paint6_linear_2840_3378)" style=""/>
<path fill-rule="evenodd" clip-rule="evenodd" d="M22.3776 222.158C24.4448 223.262 26.9329 223.085 28.9988 221.978C29.5713 221.672 30.1507 221.381 30.7362 221.108C32.8603 220.114 34.4912 218.225 34.8429 215.906C35.2843 212.997 37.6816 210.78 40.6171 210.568L45.1775 210.238C48.1127 210.026 50.8038 211.874 51.6595 214.69C52.3413 216.933 54.2273 218.568 56.4723 219.246C57.0912 219.432 57.7065 219.636 58.3172 219.857C60.5208 220.655 63.0085 220.472 64.8954 219.082C67.2647 217.337 70.5265 217.465 72.7519 219.39L76.2118 222.384C78.4364 224.308 79.0321 227.517 77.6465 230.112C76.5428 232.179 76.7198 234.667 77.8259 236.732C78.1327 237.305 78.423 237.885 78.6969 238.471C79.6901 240.595 81.5796 242.226 83.8981 242.578C86.8078 243.019 89.0241 245.416 89.2365 248.352L89.5664 252.911C89.7788 255.847 87.9304 258.538 85.1142 259.394C82.8707 260.076 81.2358 261.962 80.5584 264.207C80.3717 264.826 80.168 265.44 79.9471 266.051C79.1493 268.255 79.332 270.743 80.722 272.63C82.4669 274.999 82.3391 278.26 80.4142 280.485L77.4211 283.946C75.4964 286.171 72.2877 286.766 69.6925 285.381C67.6251 284.277 65.1368 284.454 63.0706 285.56C62.498 285.867 61.9185 286.157 61.3329 286.431C59.2087 287.424 57.5779 289.313 57.2262 291.631C56.7848 294.541 54.3874 296.758 51.4519 296.97L46.8923 297.3C43.9567 297.512 41.2652 295.664 40.4095 292.848C39.7277 290.604 37.8419 288.969 35.597 288.292C34.9782 288.105 34.3631 287.901 33.7524 287.68C31.5488 286.883 29.0611 287.066 27.1742 288.456C24.8052 290.201 21.5438 290.073 19.3186 288.148L15.8585 285.155C13.6335 283.23 13.0378 280.021 14.4235 277.426C15.5273 275.359 15.3503 272.871 14.2441 270.805C13.9373 270.232 13.647 269.653 13.3732 269.067C12.3799 266.943 10.4905 265.311 8.17194 264.959C5.2624 264.518 3.04616 262.121 2.83391 259.186L2.50421 254.626C2.29192 251.691 4.14038 248.999 6.95663 248.143C9.20015 247.461 10.8351 245.575 11.5124 243.33C11.6991 242.712 11.9028 242.097 12.1237 241.486C12.921 239.283 12.7379 236.795 11.348 234.908C9.60294 232.539 9.73075 229.277 11.6559 227.051L14.6479 223.593C16.5729 221.367 19.7822 220.771 22.3776 222.158Z" fill="#E8505B" style="fill:#E8505B;fill:color(display-p3 0.9098 0.3137 0.3569);fill-opacity:1;"/>
<path fill-rule="evenodd" clip-rule="evenodd" d="M22.3776 222.158C24.4448 223.262 26.9329 223.085 28.9988 221.978C29.5713 221.672 30.1507 221.381 30.7362 221.108C32.8603 220.114 34.4912 218.225 34.8429 215.906C35.2843 212.997 37.6816 210.78 40.6171 210.568L45.1775 210.238C48.1127 210.026 50.8038 211.874 51.6595 214.69C52.3413 216.933 54.2273 218.568 56.4723 219.246C57.0912 219.432 57.7065 219.636 58.3172 219.857C60.5208 220.655 63.0085 220.472 64.8954 219.082C67.2647 217.337 70.5265 217.465 72.7519 219.39L76.2118 222.384C78.4364 224.308 79.0321 227.517 77.6465 230.112C76.5428 232.179 76.7198 234.667 77.8259 236.732C78.1327 237.305 78.423 237.885 78.6969 238.471C79.6901 240.595 81.5796 242.226 83.8981 242.578C86.8078 243.019 89.0241 245.416 89.2365 248.352L89.5664 252.911C89.7788 255.847 87.9304 258.538 85.1142 259.394C82.8707 260.076 81.2358 261.962 80.5584 264.207C80.3717 264.826 80.168 265.44 79.9471 266.051C79.1493 268.255 79.332 270.743 80.722 272.63C82.4669 274.999 82.3391 278.26 80.4142 280.485L77.4211 283.946C75.4964 286.171 72.2877 286.766 69.6925 285.381C67.6251 284.277 65.1368 284.454 63.0706 285.56C62.498 285.867 61.9185 286.157 61.3329 286.431C59.2087 287.424 57.5779 289.313 57.2262 291.631C56.7848 294.541 54.3874 296.758 51.4519 296.97L46.8923 297.3C43.9567 297.512 41.2652 295.664 40.4095 292.848C39.7277 290.604 37.8419 288.969 35.597 288.292C34.9782 288.105 34.3631 287.901 33.7524 287.68C31.5488 286.883 29.0611 287.066 27.1742 288.456C24.8052 290.201 21.5438 290.073 19.3186 288.148L15.8585 285.155C13.6335 283.23 13.0378 280.021 14.4235 277.426C15.5273 275.359 15.3503 272.871 14.2441 270.805C13.9373 270.232 13.647 269.653 13.3732 269.067C12.3799 266.943 10.4905 265.311 8.17194 264.959C5.2624 264.518 3.04616 262.121 2.83391 259.186L2.50421 254.626C2.29192 251.691 4.14038 248.999 6.95663 248.143C9.20015 247.461 10.8351 245.575 11.5124 243.33C11.6991 242.712 11.9028 242.097 12.1237 241.486C12.921 239.283 12.7379 236.795 11.348 234.908C9.60294 232.539 9.73075 229.277 11.6559 227.051L14.6479 223.593C16.5729 221.367 19.7822 220.771 22.3776 222.158Z" fill="url(#paint7_linear_2840_3378)" style=""/>
<path d="M54.1062 265.751C53.6709 265.751 53.2357 265.645 52.8426 265.419L47.2125 262.263C46.6228 262.25 46.0331 262.21 45.4715 262.131C45.0925 262.078 44.7695 261.839 44.6291 261.494C44.4887 261.15 44.5589 260.778 44.8117 260.5C45.7383 259.479 46.2157 258.259 46.2157 256.959C46.2157 253.75 43.2251 251.138 39.5467 251.138C38.1707 251.138 36.851 251.496 35.7418 252.186C35.4329 252.371 35.0538 252.398 34.7169 252.252C34.394 252.106 34.1553 251.814 34.1132 251.47C34.0711 251.098 34.043 250.727 34.043 250.343C34.043 243.766 40.0802 238.422 47.4933 238.422C54.9064 238.422 60.9437 243.766 60.9437 250.343C60.9437 253.949 59.1746 257.264 56.0577 259.532L56.5351 263.139C56.6474 264.04 56.2262 264.889 55.4259 265.38C55.0328 265.618 54.5695 265.751 54.1062 265.751ZM47.4793 260.261C47.6758 260.248 47.8724 260.301 48.0409 260.407L53.9236 263.709C54.0781 263.802 54.2044 263.762 54.2887 263.709C54.3589 263.669 54.4712 263.563 54.4431 263.377L53.8956 259.187C53.8534 258.816 54.0219 258.458 54.3308 258.246C57.195 256.349 58.8377 253.459 58.8377 250.316C58.8377 244.84 53.7552 240.384 47.4933 240.384C41.4701 240.384 36.528 244.522 36.163 249.719C37.216 249.335 38.3533 249.123 39.5326 249.123C44.3764 249.123 48.3076 252.623 48.3076 256.933C48.3217 258.1 48.0268 259.227 47.4793 260.261Z" fill="url(#paint8_linear_2840_3378)" style=""/>
<path d="M35.4465 266.916C35.0814 266.916 34.7304 266.824 34.4075 266.625C33.7757 266.24 33.4387 265.577 33.523 264.874L33.8038 262.832C31.9084 261.374 30.7852 259.212 30.7852 256.945C30.7852 254.359 32.2173 251.946 34.6181 250.501C36.0642 249.612 37.7771 249.135 39.5602 249.135C44.404 249.135 48.3352 252.635 48.3352 256.945C48.3352 258.695 47.6613 260.419 46.4257 261.785C44.8392 263.601 42.4665 264.662 39.855 264.742L36.4293 266.664C36.1204 266.837 35.7834 266.916 35.4465 266.916ZM39.5461 251.124C38.1702 251.124 36.8504 251.482 35.7413 252.171C33.9442 253.259 32.8771 255.035 32.8771 256.945C32.8771 258.788 33.8319 260.472 35.5167 261.559C35.8396 261.772 36.008 262.13 35.9659 262.501L35.657 264.768L39.0126 262.885C39.1811 262.793 39.3636 262.739 39.5461 262.739C41.61 262.739 43.5616 261.904 44.7971 260.485C45.7238 259.451 46.2152 258.231 46.2152 256.932C46.2152 253.736 43.2246 251.124 39.5461 251.124Z" fill="url(#paint9_linear_2840_3378)" style=""/>
<path fill-rule="evenodd" clip-rule="evenodd" d="M114.166 259.757C116.792 261.159 119.954 260.939 122.567 259.512C123.585 258.956 124.62 258.438 125.668 257.958C128.375 256.719 130.444 254.315 130.891 251.371L131.03 250.455C131.59 246.76 134.634 243.945 138.362 243.676L145.682 243.146C149.41 242.877 152.827 245.224 153.914 248.8L154.183 249.686C155.049 252.535 157.442 254.615 160.3 255.452C161.407 255.777 162.505 256.141 163.593 256.544C166.383 257.58 169.544 257.343 171.941 255.578L172.685 255.03C175.694 252.813 179.837 252.976 182.663 255.421L188.213 260.223C191.04 262.668 191.796 266.744 190.036 270.041L189.602 270.854C188.2 273.48 188.421 276.642 189.847 279.255C190.403 280.273 190.921 281.308 191.401 282.356C192.64 285.064 195.044 287.133 197.988 287.58L198.904 287.719C202.599 288.279 205.413 291.323 205.683 295.051L206.213 302.371C206.482 306.098 204.136 309.515 200.56 310.602L199.671 310.872C196.823 311.738 194.743 314.13 193.906 316.988C193.582 318.094 193.218 319.192 192.815 320.279C191.779 323.071 192.015 326.232 193.781 328.629L194.328 329.373C196.545 332.382 196.382 336.524 193.938 339.351L189.136 344.901C186.691 347.728 182.615 348.485 179.318 346.724L178.505 346.29C175.879 344.888 172.716 345.109 170.103 346.535C169.084 347.091 168.05 347.609 167.001 348.089C164.294 349.328 162.226 351.731 161.779 354.674L161.64 355.591C161.08 359.286 158.035 362.101 154.307 362.37L146.987 362.9C143.26 363.169 139.843 360.822 138.756 357.247L138.486 356.358C137.62 353.51 135.228 351.43 132.371 350.593C131.264 350.269 130.166 349.905 129.078 349.501C126.287 348.466 123.126 348.703 120.729 350.468L119.986 351.016C116.977 353.232 112.834 353.07 110.008 350.625L104.458 345.823C101.631 343.378 100.874 339.302 102.635 336.005L103.069 335.192C104.471 332.566 104.25 329.404 102.824 326.791C102.268 325.772 101.75 324.738 101.27 323.69C100.031 320.982 97.6272 318.912 94.6826 318.466L93.7676 318.327C90.0724 317.766 87.2578 314.722 86.9882 310.994L86.4589 303.674C86.1894 299.947 88.5361 296.53 92.1116 295.443L93.0008 295.173C95.8491 294.307 97.929 291.915 98.7658 289.058C99.0899 287.951 99.4537 286.853 99.8573 285.765C100.893 282.974 100.656 279.814 98.8904 277.418L98.3418 276.673C96.1255 273.664 96.2878 269.521 98.7328 266.695L103.533 261.145C105.979 258.318 110.056 257.561 113.353 259.322L114.166 259.757Z" fill="#E8505B" style="fill:#E8505B;fill:color(display-p3 0.9098 0.3137 0.3569);fill-opacity:1;"/>
<path fill-rule="evenodd" clip-rule="evenodd" d="M114.166 259.757C116.792 261.159 119.954 260.939 122.567 259.512C123.585 258.956 124.62 258.438 125.668 257.958C128.375 256.719 130.444 254.315 130.891 251.371L131.03 250.455C131.59 246.76 134.634 243.945 138.362 243.676L145.682 243.146C149.41 242.877 152.827 245.224 153.914 248.8L154.183 249.686C155.049 252.535 157.442 254.615 160.3 255.452C161.407 255.777 162.505 256.141 163.593 256.544C166.383 257.58 169.544 257.343 171.941 255.578L172.685 255.03C175.694 252.813 179.837 252.976 182.663 255.421L188.213 260.223C191.04 262.668 191.796 266.744 190.036 270.041L189.602 270.854C188.2 273.48 188.421 276.642 189.847 279.255C190.403 280.273 190.921 281.308 191.401 282.356C192.64 285.064 195.044 287.133 197.988 287.58L198.904 287.719C202.599 288.279 205.413 291.323 205.683 295.051L206.213 302.371C206.482 306.098 204.136 309.515 200.56 310.602L199.671 310.872C196.823 311.738 194.743 314.13 193.906 316.988C193.582 318.094 193.218 319.192 192.815 320.279C191.779 323.071 192.015 326.232 193.781 328.629L194.328 329.373C196.545 332.382 196.382 336.524 193.938 339.351L189.136 344.901C186.691 347.728 182.615 348.485 179.318 346.724L178.505 346.29C175.879 344.888 172.716 345.109 170.103 346.535C169.084 347.091 168.05 347.609 167.001 348.089C164.294 349.328 162.226 351.731 161.779 354.674L161.64 355.591C161.08 359.286 158.035 362.101 154.307 362.37L146.987 362.9C143.26 363.169 139.843 360.822 138.756 357.247L138.486 356.358C137.62 353.51 135.228 351.43 132.371 350.593C131.264 350.269 130.166 349.905 129.078 349.501C126.287 348.466 123.126 348.703 120.729 350.468L119.986 351.016C116.977 353.232 112.834 353.07 110.008 350.625L104.458 345.823C101.631 343.378 100.874 339.302 102.635 336.005L103.069 335.192C104.471 332.566 104.25 329.404 102.824 326.791C102.268 325.772 101.75 324.738 101.27 323.69C100.031 320.982 97.6272 318.912 94.6826 318.466L93.7676 318.327C90.0724 317.766 87.2578 314.722 86.9882 310.994L86.4589 303.674C86.1894 299.947 88.5361 296.53 92.1116 295.443L93.0008 295.173C95.8491 294.307 97.929 291.915 98.7658 289.058C99.0899 287.951 99.4537 286.853 99.8573 285.765C100.893 282.974 100.656 279.814 98.8904 277.418L98.3418 276.673C96.1255 273.664 96.2878 269.521 98.7328 266.695L103.533 261.145C105.979 258.318 110.056 257.561 113.353 259.322L114.166 259.757Z" fill="url(#paint10_linear_2840_3378)" style=""/>
<g clip-path="url(#clip0_2840_3378)">
<mask id="mask0_2840_3378" style="mask-type:luminance" maskUnits="userSpaceOnUse" x="-137" y="225" width="573" height="546">
<path d="M-136.852 770.551H435.814V225.383H-136.852V770.551Z" fill="white" style="fill:white;fill-opacity:1;"/>
</mask>
<g mask="url(#mask0_2840_3378)">
<path d="M148.68 314.628C147.511 314.553 146.163 314.358 145.1 314.065C144.901 314.01 144.077 313.722 143.867 313.63C140.166 311.998 137.588 308.436 137.588 304.303C137.588 298.634 142.432 294.016 148.391 294.016C153.994 294.016 158.612 298.101 159.142 303.306C159.19 303.778 159.573 304.16 160.047 304.16H162.218C162.7 304.16 163.093 303.764 163.057 303.283C162.505 296.039 156.14 290.305 148.391 290.305C140.284 290.305 133.686 296.583 133.686 304.303C133.686 309.624 136.83 314.253 141.433 316.618C142.264 317.036 143.457 317.468 143.862 317.586C145.174 317.958 146.785 318.205 148.218 318.308C148.705 318.343 150.405 318.361 150.9 318.363H176.909C177.389 318.363 177.777 317.975 177.777 317.496V315.53C177.777 315.051 177.389 314.662 176.909 314.662H150.945C150.588 314.662 149.029 314.65 148.68 314.628ZM150.945 308.817C150.662 308.817 149.177 308.808 148.903 308.786C148.438 308.748 147.765 308.682 147.332 308.588C146.843 308.463 146.384 308.298 146.178 308.19C144.728 307.444 143.74 305.984 143.74 304.303C143.74 301.856 145.821 299.873 148.391 299.873C150.607 299.873 152.459 301.351 152.925 303.33C153.032 303.785 153.407 304.16 153.874 304.16H155.902C156.388 304.16 156.784 303.76 156.719 303.279C156.193 299.346 152.668 296.304 148.391 296.304C143.749 296.304 139.987 299.885 139.987 304.303C139.987 307.418 141.863 310.109 144.595 311.427C145.015 311.661 145.806 311.907 146.031 311.963C146.803 312.156 147.839 312.288 148.68 312.346C148.99 312.371 150.505 312.382 150.831 312.384C150.833 312.384 150.834 312.385 150.834 312.387C150.834 312.388 150.835 312.389 150.837 312.389H176.908C177.388 312.389 177.776 312.001 177.776 311.522V309.684C177.776 309.205 177.388 308.817 176.908 308.817H150.945ZM131.281 317.482C131.281 317.961 130.892 318.35 130.413 318.35H128.22C127.74 318.35 127.352 317.961 127.352 317.482V294.892C127.352 294.413 126.963 294.024 126.484 294.024H122.478C121.999 294.024 121.611 293.636 121.611 293.157V291.151C121.611 290.672 121.999 290.283 122.478 290.283H130.413C130.892 290.283 131.281 290.672 131.281 291.151V317.482ZM118.165 295.894C117.685 295.894 117.297 296.282 117.297 296.761V298.623C117.297 299.102 117.685 299.491 118.165 299.491H120.743C121.222 299.491 121.611 299.879 121.611 300.359V317.482C121.611 317.961 121.999 318.35 122.478 318.35H124.518C124.997 318.35 125.386 317.961 125.386 317.482V296.761C125.386 296.282 124.997 295.894 124.518 295.894H118.165Z" fill="url(#paint11_linear_2840_3378)" style=""/>
</g>
</g>
<path d="M314.484 232.132L293.455 235.269L292.47 217.277C292.47 217.277 290.951 217.211 289.607 209.535C288.263 201.858 285.781 188.848 285.781 188.848C294.385 183.527 305.241 183.095 314.152 187.72L315.475 188.406L314.484 232.132Z" fill="#FFBE9D" style="fill:#FFBE9D;fill:color(display-p3 1.0000 0.7451 0.6157);fill-opacity:1;"/>
<path d="M314.461 198.271C314.587 198.192 319.682 195.822 320.36 201.109C321.037 206.396 315.402 206.022 315.373 205.872C315.344 205.722 314.461 198.271 314.461 198.271Z" fill="#FFBE9D" style="fill:#FFBE9D;fill:color(display-p3 1.0000 0.7451 0.6157);fill-opacity:1;"/>
<path d="M288.786 201.295C288.641 201.261 283.581 200.783 284.606 206.014C285.632 211.245 290.861 209.112 290.841 208.959C290.822 208.809 288.786 201.295 288.786 201.295Z" fill="#FFBE9D" style="fill:#FFBE9D;fill:color(display-p3 1.0000 0.7451 0.6157);fill-opacity:1;"/>
<path d="M316.178 197.391C316.078 201.93 316.613 204.219 316.336 207.285C315.899 212.136 314.081 216.095 310.112 219.125C306.142 222.155 300.257 223.065 296.011 220.503C293.064 218.724 290.826 216.539 289.906 213.292C288.986 210.045 287.653 204.249 287.089 200.923C286.073 194.926 284.727 189.253 284.727 189.253L301.992 183.271L313.042 187.44L316.178 197.391Z" fill="#333439" style="fill:#333439;fill:color(display-p3 0.2000 0.2039 0.2235);fill-opacity:1;"/>
<path d="M301.547 223.237C301.539 223.364 302.991 223.471 304.703 222.999C306.418 222.535 307.607 221.707 307.534 221.602C307.461 221.479 306.211 222.089 304.571 222.53C302.935 222.984 301.545 223.094 301.547 223.237Z" fill="#46474E" style="fill:#46474E;fill:color(display-p3 0.2745 0.2784 0.3059);fill-opacity:1;"/>
<path d="M316.542 205.026C316.332 200.425 315.833 195.205 315.794 190.326C315.779 188.495 316.021 185.812 315.564 184.04C315.107 182.26 314.627 180.435 313.54 178.939C312.175 177.063 309.871 175.864 307.488 175.789C305.106 175.715 302.701 176.767 301.172 178.554C299.578 176.895 296.88 176.335 294.696 177.208C292.512 178.081 290.987 180.329 291.036 182.606C289.585 181.649 287.463 181.77 286.114 182.886C284.764 184.001 284.307 186.013 285.054 187.552C283.812 187.962 282.808 189.005 282.471 190.231C282.135 191.458 282.477 192.832 283.351 193.765C284.372 194.855 285.966 195.289 287.062 196.309C288.325 197.483 288.753 199.422 288.104 201.012" fill="#333439" style="fill:#333439;fill:color(display-p3 0.2000 0.2039 0.2235);fill-opacity:1;"/>
<path d="M289.19 192.694C289.174 192.704 289.247 192.878 289.467 193.156C289.688 193.429 290.069 193.808 290.681 194.11C291.282 194.408 292.143 194.626 293.106 194.442C294.055 194.266 295.09 193.695 295.745 192.692L295.354 192.654C295.727 193.76 296.837 194.641 298.156 194.901C299.479 195.218 301.032 194.757 302.083 193.765C303.065 192.873 303.649 191.695 303.875 190.548L303.452 190.665C304.647 191.923 306.391 192.349 307.821 192.143C309.289 191.948 310.38 191.086 310.99 190.26C311.617 189.418 311.828 188.597 311.89 188.05C311.947 187.495 311.878 187.197 311.859 187.199C311.82 187.2 311.83 187.5 311.724 188.027C311.614 188.547 311.364 189.314 310.742 190.079C310.132 190.835 309.109 191.588 307.77 191.737C306.46 191.9 304.871 191.478 303.819 190.347L303.493 189.996L303.396 190.464C303.179 191.518 302.632 192.605 301.741 193.411C300.776 194.307 299.443 194.708 298.261 194.439C297.078 194.216 296.103 193.451 295.767 192.512L295.615 192.089L295.375 192.474C294.816 193.369 293.893 193.917 293.037 194.102C292.171 194.297 291.373 194.133 290.793 193.884C289.609 193.362 289.244 192.639 289.19 192.694Z" fill="#585960" style="fill:#585960;fill:color(display-p3 0.3451 0.3490 0.3765);fill-opacity:1;"/>
<path d="M288.871 190.613C288.962 190.618 288.714 189.757 289.32 188.575C289.623 188.004 290.169 187.387 290.992 187.06C291.798 186.729 292.863 186.682 293.782 187.121L294.262 187.35L294.134 186.843C294.011 186.36 293.989 185.831 294.071 185.302C294.268 184.116 294.969 183.073 295.859 182.493C296.748 181.896 297.776 181.75 298.59 181.81C300.269 181.954 301.055 182.782 301.103 182.693C301.122 182.676 300.962 182.461 300.566 182.181C300.17 181.909 299.517 181.581 298.63 181.468C297.757 181.359 296.622 181.472 295.602 182.123C294.586 182.756 293.792 183.908 293.573 185.234C293.481 185.825 293.509 186.423 293.654 186.969L294.006 186.692C292.925 186.191 291.723 186.276 290.82 186.676C289.897 187.077 289.313 187.805 289.027 188.444C288.732 189.093 288.698 189.67 288.728 190.046C288.761 190.425 288.846 190.619 288.871 190.613Z" fill="#585960" style="fill:#585960;fill:color(display-p3 0.3451 0.3490 0.3765);fill-opacity:1;"/>
<path d="M300.259 188.926C300.322 188.885 300.196 188.628 300.157 188.2C300.113 187.771 300.19 187.179 300.461 186.557C300.729 185.955 301.064 185.331 301.261 184.996C301.492 184.681 301.778 184.829 301.812 184.796C301.838 184.783 301.821 184.674 301.66 184.603C301.515 184.529 301.211 184.559 301 184.764C300.789 184.967 300.659 185.202 300.483 185.463C300.316 185.728 300.139 186.032 299.994 186.377C299.691 187.062 299.654 187.793 299.806 188.269C299.954 188.753 300.211 188.963 300.259 188.926Z" fill="#585960" style="fill:#585960;fill:color(display-p3 0.3451 0.3490 0.3765);fill-opacity:1;"/>
<path d="M309.687 180.611C309.74 180.582 309.623 180.201 309.2 179.705C308.984 179.464 308.684 179.191 308.257 179.012C307.836 178.827 307.277 178.782 306.763 178.941C305.716 179.263 305.132 180.068 304.817 180.596C304.498 181.146 304.371 181.509 304.427 181.541C304.489 181.578 304.732 181.266 305.112 180.786C305.491 180.317 306.058 179.662 306.904 179.407C307.748 179.136 308.509 179.562 308.944 179.948C309.391 180.338 309.621 180.651 309.687 180.611Z" fill="#585960" style="fill:#585960;fill:color(display-p3 0.3451 0.3490 0.3765);fill-opacity:1;"/>
<path d="M310.536 203.36C310.652 203.413 311.485 201.832 311.869 199.701C312.267 197.571 312.047 195.82 311.918 195.834C311.769 195.841 311.76 197.554 311.373 199.62C311.001 201.688 310.398 203.306 310.536 203.36Z" fill="#585960" style="fill:#585960;fill:color(display-p3 0.3451 0.3490 0.3765);fill-opacity:1;"/>
<path d="M308.396 204.999C308.526 205.037 309.008 203.886 309.328 202.396C309.651 200.906 309.684 199.669 309.549 199.656C309.407 199.642 309.153 200.837 308.834 202.302C308.52 203.766 308.261 204.96 308.396 204.999Z" fill="#585960" style="fill:#585960;fill:color(display-p3 0.3451 0.3490 0.3765);fill-opacity:1;"/>
<path d="M293.452 207.799C293.329 207.792 293.435 210.014 294.814 212.322C296.172 214.643 298.091 215.85 298.147 215.742C298.251 215.628 296.548 214.301 295.252 212.077C293.929 209.87 293.607 207.768 293.452 207.799Z" fill="#585960" style="fill:#585960;fill:color(display-p3 0.3451 0.3490 0.3765);fill-opacity:1;"/>
<path d="M290.499 204.342C290.38 204.305 289.992 206.294 290.826 208.562C291.635 210.84 293.214 212.144 293.283 212.042C293.402 211.944 292.064 210.555 291.301 208.396C290.507 206.25 290.655 204.345 290.499 204.342Z" fill="#585960" style="fill:#585960;fill:color(display-p3 0.3451 0.3490 0.3765);fill-opacity:1;"/>
<path d="M292.516 231.622L292.701 227.109L314.681 222.467L315.458 226.182L292.516 231.622Z" fill="white" style="fill:white;fill-opacity:1;"/>
<path d="M223.722 286.201C223.722 286.201 222.636 286.759 223.393 287.553C224.151 288.348 234.147 297.225 235.498 298.096C236.847 298.966 240.893 300.016 240.893 300.016L243.534 299.525L245.081 293.158L246.945 290.096L246.47 289.392L248.225 282.585C248.225 282.585 246.702 281.967 246.004 283.064C245.022 284.612 243.663 287.113 243.663 287.113C243.663 287.113 240.914 287.531 239.914 286.338C238.913 285.145 233.087 275.312 232.382 275.141C231.677 274.97 230.606 275.185 231.176 276.749C231.747 278.313 235.473 283.889 235.331 284.194C235.189 284.499 234.624 284.919 234.35 284.648C234.077 284.378 228.131 276.527 227.19 276.393C226.186 276.249 225.467 277.06 226.389 278.574C227.311 280.088 232.149 285.607 231.927 285.961C231.705 286.315 231.062 285.887 231.062 285.887C231.062 285.887 225.529 280.111 224.753 280.214C223.891 280.328 223.757 281.196 224.194 281.913C224.631 282.63 230.236 288.05 230.335 288.481C230.399 288.763 230.162 289.878 229.711 289.497C229.261 289.117 224.161 285.834 223.722 286.201Z" fill="#FFBE9D" style="fill:#FFBE9D;fill:color(display-p3 1.0000 0.7451 0.6157);fill-opacity:1;"/>
<path d="M280.234 343.692L279.07 419.205L279.072 460.345H297.784L304.963 419.205L313.133 362.493L314.932 362.382L331.006 421.426L339.779 460.656C341.024 460.345 361.11 460.345 361.11 460.345L348.04 341.976L345.862 329.217L289.846 330.462L280.234 343.692Z" fill="url(#paint12_linear_2840_3378)" style=""/>
<path d="M343.207 303.019L341.587 259.343L338.892 229.182H320.527L315.838 224.609L292.281 229.182L290.101 235.761C290.101 235.761 271.182 241.784 270.133 243.62C270.133 243.62 276.768 269.809 279.893 284.484C282.038 294.554 284.295 304.874 284.295 304.874L278.32 353.189C278.082 353.189 314.712 351.577 314.712 351.577L350.098 347.75L343.207 303.019Z" fill="#585960" style="fill:#585960;fill:color(display-p3 0.3451 0.3490 0.3765);fill-opacity:1;"/>
<path d="M362.341 215.452C362.341 215.452 356.951 215.874 356.632 215.874C356.312 215.874 350.763 216.384 350.763 216.384C350.763 216.384 351.018 215.045 352.294 214.47C353.57 213.896 356.003 213.007 356.258 212.561C356.514 212.114 357.079 211.472 356.569 210.77C356.059 210.068 346.762 200.631 346.442 200.121C346.123 199.611 345.613 198.654 346.442 198.463C347.272 198.272 348.292 199.165 348.994 199.738C349.696 200.312 353.315 203.371 353.698 203.179C354.081 202.987 353.762 202.669 353.762 202.669C353.762 202.669 347.613 196.342 347.55 196.15C347.486 195.959 346.762 194.093 348.513 194.399C349.351 194.546 355.74 201.074 355.995 200.82C356.251 200.564 350.637 193.356 351.147 192.782C351.657 192.208 352.232 191.634 353.252 192.782C354.272 193.931 358.668 199.799 358.99 199.863C359.312 199.927 359.695 199.607 359.567 199.161C359.44 198.714 356.827 194.166 356.827 193.655C356.827 193.145 357.34 193.019 357.85 192.955C358.36 192.892 363.84 200.82 363.84 200.82C363.84 200.82 368.069 207.624 368.496 208.41C368.993 209.323 369.709 211.855 369.709 211.855L362.341 215.452Z" fill="#FFBE9D" style="fill:#FFBE9D;fill:color(display-p3 1.0000 0.7451 0.6157);fill-opacity:1;"/>
<path d="M360.991 215.802L364.664 229.97L356.268 233.119L338.164 229.183V255.945L340.724 262.905C340.724 262.905 378.611 244.621 381.127 242.607C385.831 238.845 378.363 225.888 378.363 225.888L371.486 211.078L360.991 215.802Z" fill="#585960" style="fill:#585960;fill:color(display-p3 0.3451 0.3490 0.3765);fill-opacity:1;"/>
<path d="M270.128 243.623L265.891 252.107L255.184 287.554L243.218 290.746L240.969 301.683C240.969 301.683 259.68 306.069 263.151 304.562C269.045 302.003 278.881 277.598 278.881 277.598L277.55 256.734L270.128 243.623Z" fill="#585960" style="fill:#585960;fill:color(display-p3 0.3451 0.3490 0.3765);fill-opacity:1;"/>
<path d="M376.529 235.766C376.422 235.884 374.313 233.596 370.947 231.914C367.599 230.195 364.507 229.848 364.539 229.691C364.545 229.634 365.322 229.644 366.553 229.879C367.781 230.112 369.455 230.614 371.168 231.479C372.877 232.348 374.273 233.402 375.187 234.254C376.105 235.107 376.573 235.728 376.529 235.766Z" fill="#46474E" style="fill:#46474E;fill:color(display-p3 0.2745 0.2784 0.3059);fill-opacity:1;"/>
<path d="M372.956 229.888C372.914 230.035 370.917 229.359 368.388 229.536C365.856 229.68 363.961 230.604 363.901 230.463C363.824 230.371 365.703 229.204 368.357 229.049C371.008 228.868 373.019 229.787 372.956 229.888Z" fill="#46474E" style="fill:#46474E;fill:color(display-p3 0.2745 0.2784 0.3059);fill-opacity:1;"/>
<path d="M320.516 229.184C320.533 229.213 320.166 229.465 319.487 229.899C319.151 230.122 318.727 230.375 318.22 230.644C317.719 230.92 317.15 231.241 316.494 231.541C315.206 232.194 313.608 232.833 311.814 233.483C310.008 234.099 307.991 234.685 305.844 235.17C301.54 236.119 297.559 236.495 294.682 236.598C293.242 236.652 292.077 236.656 291.272 236.624C290.467 236.597 290.023 236.566 290.023 236.532C290.023 236.498 290.468 236.466 291.271 236.434C292.073 236.408 293.234 236.351 294.663 236.253C297.523 236.062 301.468 235.635 305.738 234.694C307.868 234.214 309.87 233.645 311.668 233.058C313.454 232.436 315.051 231.835 316.348 231.228C317.007 230.949 317.583 230.653 318.093 230.401C318.608 230.158 319.042 229.93 319.391 229.733C320.098 229.353 320.498 229.155 320.516 229.184Z" fill="#46474E" style="fill:#46474E;fill:color(display-p3 0.2745 0.2784 0.3059);fill-opacity:1;"/>
<path d="M326.056 304.918C326.062 304.951 325.581 305.072 324.705 305.263C323.83 305.461 322.549 305.683 320.959 305.897C317.78 306.328 313.328 306.599 308.435 306.233C303.54 305.855 299.179 304.917 296.102 304.01C294.562 303.558 293.329 303.147 292.494 302.818C291.657 302.498 291.2 302.305 291.211 302.274C291.222 302.242 291.702 302.374 292.555 302.638C293.406 302.911 294.649 303.271 296.193 303.677C299.278 304.494 303.613 305.372 308.47 305.746C313.326 306.109 317.745 305.896 320.917 305.554C322.505 305.385 323.788 305.217 324.67 305.076C325.556 304.944 326.049 304.886 326.056 304.918Z" fill="#46474E" style="fill:#46474E;fill:color(display-p3 0.2745 0.2784 0.3059);fill-opacity:1;"/>
<path d="M254.532 290.802C254.403 290.764 255.717 285.87 257.467 279.871C259.217 273.871 260.74 269.039 260.869 269.076C260.998 269.114 259.685 274.007 257.935 280.008C256.184 286.006 254.661 290.839 254.532 290.802Z" fill="#46474E" style="fill:#46474E;fill:color(display-p3 0.2745 0.2784 0.3059);fill-opacity:1;"/>
<path d="M311.968 319.078C312.103 319.074 312.348 324.522 312.516 331.242C312.683 337.966 312.71 343.417 312.576 343.42C312.441 343.424 312.196 337.978 312.028 331.255C311.861 324.533 311.834 319.081 311.968 319.078Z" fill="#46474E" style="fill:#46474E;fill:color(display-p3 0.2745 0.2784 0.3059);fill-opacity:1;"/>
<path d="M325.392 360.478C325.417 360.611 320.657 361.593 314.764 362.674C308.868 363.754 304.071 364.522 304.047 364.389C304.023 364.257 308.781 363.274 314.677 362.193C320.569 361.114 325.368 360.346 325.392 360.478Z" fill="#585960" style="fill:#585960;fill:color(display-p3 0.3451 0.3490 0.3765);fill-opacity:1;"/>
<path d="M346.986 417.764C346.983 417.92 344.177 417.731 340.863 418.557C337.541 419.351 335.138 420.812 335.064 420.675C335.032 420.625 335.591 420.194 336.594 419.655C337.595 419.116 339.056 418.499 340.748 418.084C342.44 417.673 344.021 417.546 345.159 417.564C346.296 417.581 346.99 417.705 346.986 417.764Z" fill="#585960" style="fill:#585960;fill:color(display-p3 0.3451 0.3490 0.3765);fill-opacity:1;"/>
<path d="M295.735 421.441C295.703 421.584 293.97 421.226 291.821 421.329C289.67 421.413 287.975 421.92 287.931 421.78C287.879 421.669 289.565 420.932 291.8 420.843C294.034 420.738 295.776 421.326 295.735 421.441Z" fill="#585960" style="fill:#585960;fill:color(display-p3 0.3451 0.3490 0.3765);fill-opacity:1;"/>
<path d="M284.31 304.875C284.293 304.879 284.241 304.714 284.157 304.397C284.064 304.025 283.949 303.565 283.808 303.005C283.51 301.723 283.105 299.984 282.613 297.867C281.624 293.459 280.283 287.487 278.802 280.888C277.328 274.286 275.995 268.313 275.01 263.903C274.535 261.782 274.147 260.041 273.86 258.756C273.74 258.191 273.641 257.727 273.561 257.353C273.498 257.031 273.473 256.859 273.489 256.856C273.505 256.852 273.562 257.015 273.657 257.329C273.76 257.698 273.888 258.155 274.044 258.711C274.372 259.913 274.815 261.661 275.346 263.824C276.407 268.151 277.799 274.146 279.278 280.783C280.757 287.416 282.045 293.434 282.951 297.794C283.382 299.926 283.734 301.675 283.995 302.966C284.099 303.534 284.184 304 284.253 304.377C284.306 304.7 284.326 304.871 284.31 304.875Z" fill="#46474E" style="fill:#46474E;fill:color(display-p3 0.2745 0.2784 0.3059);fill-opacity:1;"/>
<path d="M340.664 244.316C340.672 244.315 340.687 244.406 340.706 244.583C340.726 244.787 340.749 245.046 340.78 245.368C340.84 246.059 340.921 247.079 341.005 248.392C341.184 251.018 341.391 254.822 341.628 259.522C342.097 268.923 342.647 281.914 343.186 296.264C343.271 298.576 343.354 300.853 343.433 303.013L343.43 302.985C345.342 315.61 347.034 326.783 348.256 334.841C348.839 338.83 349.309 342.046 349.639 344.304C349.788 345.389 349.905 346.242 349.99 346.86C350.023 347.131 350.049 347.349 350.07 347.524C350.085 347.673 350.09 347.75 350.082 347.752C350.075 347.753 350.055 347.678 350.025 347.531C349.992 347.358 349.952 347.142 349.901 346.874C349.797 346.26 349.652 345.411 349.467 344.331C349.102 342.079 348.583 338.87 347.939 334.891C346.678 326.838 344.929 315.673 342.954 303.059L342.953 303.045L342.952 303.03C342.871 300.87 342.786 298.592 342.7 296.28C341.589 267.95 340.768 246.971 340.664 244.316Z" fill="#46474E" style="fill:#46474E;fill:color(display-p3 0.2745 0.2784 0.3059);fill-opacity:1;"/>
<g opacity="0.3">
<path d="M318.07 230.844C309.216 234.412 300.468 236.614 290.969 236.621C292.182 237.942 294.061 238.63 295.924 238.802C297.787 238.973 299.656 238.679 301.482 238.327C306.104 237.436 310.635 236.163 315.002 234.529C316.51 233.965 318.277 232.339 318.07 230.844Z" fill="#333439" style="fill:#333439;fill:color(display-p3 0.2000 0.2039 0.2235);fill-opacity:1;"/>
</g>
<g opacity="0.3">
<path d="M273.984 258.379C274.129 261.789 273.752 265.887 274.466 269.223C275.18 272.559 276.495 275.83 278.728 278.392C277.077 271.968 275.682 264.929 273.984 258.379Z" fill="#333439" style="fill:#333439;fill:color(display-p3 0.2000 0.2039 0.2235);fill-opacity:1;"/>
</g>
<g opacity="0.3">
<path d="M301.454 309.779L301.164 309.734C304.029 312.99 308.785 313.329 313.121 313.359C317.458 313.389 322.17 313.109 325.079 309.893C317.305 311.458 309.213 311.418 301.454 309.779Z" fill="#333439" style="fill:#333439;fill:color(display-p3 0.2000 0.2039 0.2235);fill-opacity:1;"/>
</g>
<path d="M357.758 15.5488V41.9916" stroke="#686054" style="stroke:#686054;stroke:color(display-p3 0.4078 0.3765 0.3294);stroke-opacity:1;" stroke-width="0.867728" stroke-linecap="round" stroke-linejoin="round"/>
<path d="M370.982 28.7793H344.539" stroke="#686054" style="stroke:#686054;stroke:color(display-p3 0.4078 0.3765 0.3294);stroke-opacity:1;" stroke-width="0.867728" stroke-linecap="round" stroke-linejoin="round"/>
<path d="M172.992 6.5957V23.7057" stroke="#686054" style="stroke:#686054;stroke:color(display-p3 0.4078 0.3765 0.3294);stroke-opacity:1;" stroke-width="0.867728" stroke-linecap="round" stroke-linejoin="round"/>
<path d="M181.536 15.1562H164.438" stroke="#686054" style="stroke:#686054;stroke:color(display-p3 0.4078 0.3765 0.3294);stroke-opacity:1;" stroke-width="0.867728" stroke-linecap="round" stroke-linejoin="round"/>
<path d="M159.383 22.7305V34.7824" stroke="#FFA469" style="stroke:#FFA469;stroke:color(display-p3 1.0000 0.6431 0.4118);stroke-opacity:1;" stroke-width="0.867728" stroke-linecap="round" stroke-linejoin="round"/>
<path d="M165.404 28.7617H153.352" stroke="#FFA469" style="stroke:#FFA469;stroke:color(display-p3 1.0000 0.6431 0.4118);stroke-opacity:1;" stroke-width="0.867728" stroke-linecap="round" stroke-linejoin="round"/>
<path d="M486.547 416.645V431.136" stroke="#686054" style="stroke:#686054;stroke:color(display-p3 0.4078 0.3765 0.3294);stroke-opacity:1;" stroke-width="0.867728" stroke-linecap="round" stroke-linejoin="round"/>
<path d="M493.796 423.895H479.305" stroke="#686054" style="stroke:#686054;stroke:color(display-p3 0.4078 0.3765 0.3294);stroke-opacity:1;" stroke-width="0.867728" stroke-linecap="round" stroke-linejoin="round"/>
<path d="M503.031 400.492V426.857" stroke="#686054" style="stroke:#686054;stroke:color(display-p3 0.4078 0.3765 0.3294);stroke-opacity:1;" stroke-width="0.867728" stroke-linecap="round" stroke-linejoin="round"/>
<path d="M516.205 413.676H489.852" stroke="#686054" style="stroke:#686054;stroke:color(display-p3 0.4078 0.3765 0.3294);stroke-opacity:1;" stroke-width="0.867728" stroke-linecap="round" stroke-linejoin="round"/>
<path d="M405.809 348.883C405.809 351.278 403.862 353.225 401.467 353.225C399.072 353.225 397.125 351.278 397.125 348.883C397.125 346.488 399.072 344.541 401.467 344.541C403.862 344.541 405.809 346.488 405.809 348.883Z" stroke="#FFA469" style="stroke:#FFA469;stroke:color(display-p3 1.0000 0.6431 0.4118);stroke-opacity:1;" stroke-width="0.867728" stroke-linecap="round" stroke-linejoin="round"/>
<path d="M84.3041 151.645C86.0469 151.645 87.4598 150.232 87.4598 148.49C87.4598 146.747 86.0469 145.334 84.3041 145.334C82.5613 145.334 81.1484 146.747 81.1484 148.49C81.1484 150.232 82.5613 151.645 84.3041 151.645Z" stroke="#FFA469" style="stroke:#FFA469;stroke:color(display-p3 1.0000 0.6431 0.4118);stroke-opacity:1;" stroke-width="0.867728" stroke-linecap="round" stroke-linejoin="round"/>
<path d="M97.332 22.9237C99.2973 22.9237 100.89 21.3305 100.89 19.3652C100.89 17.3998 99.2973 15.8066 97.332 15.8066C95.3666 15.8066 93.7734 17.3998 93.7734 19.3652C93.7734 21.3305 95.3666 22.9237 97.332 22.9237Z" stroke="#686054" style="stroke:#686054;stroke:color(display-p3 0.4078 0.3765 0.3294);stroke-opacity:1;" stroke-width="0.867728" stroke-linecap="round" stroke-linejoin="round"/>
<path d="M388.373 49.7667C388.373 52.3852 386.247 54.5002 383.64 54.5002C381.032 54.5002 378.906 52.3741 378.906 49.7667C378.906 47.1594 381.032 45.0332 383.64 45.0332C386.247 45.0332 388.373 47.1594 388.373 49.7667Z" stroke="#686054" style="stroke:#686054;stroke:color(display-p3 0.4078 0.3765 0.3294);stroke-opacity:1;" stroke-width="0.867728" stroke-linecap="round" stroke-linejoin="round"/>
<path d="M173.933 454.911C177.641 454.911 180.647 451.905 180.647 448.197C180.647 444.488 177.641 441.482 173.933 441.482C170.225 441.482 167.219 444.488 167.219 448.197C167.219 451.905 170.225 454.911 173.933 454.911Z" stroke="#686054" style="stroke:#686054;stroke:color(display-p3 0.4078 0.3765 0.3294);stroke-opacity:1;" stroke-width="0.867728" stroke-linecap="round" stroke-linejoin="round"/>
<path d="M69.2967 381.07C69.2967 383.029 67.7077 384.629 65.7382 384.629C63.7687 384.629 62.1797 383.04 62.1797 381.07C62.1797 379.101 63.7687 377.512 65.7382 377.512C67.7077 377.512 69.2967 379.101 69.2967 381.07Z" stroke="#686054" style="stroke:#686054;stroke:color(display-p3 0.4078 0.3765 0.3294);stroke-opacity:1;" stroke-width="0.867728" stroke-linecap="round" stroke-linejoin="round"/>
<path d="M84.8561 365.211C84.8561 366.733 83.614 367.975 82.0921 367.975C80.5703 367.975 79.3281 366.733 79.3281 365.211C79.3281 363.689 80.5703 362.447 82.0921 362.447C83.614 362.447 84.8561 363.689 84.8561 365.211Z" stroke="#FFA469" style="stroke:#FFA469;stroke:color(display-p3 1.0000 0.6431 0.4118);stroke-opacity:1;" stroke-width="0.867728" stroke-linecap="round" stroke-linejoin="round"/>
<path d="M480.37 353.038C484.079 353.038 487.085 350.032 487.085 346.324C487.085 342.615 484.079 339.609 480.37 339.609C476.662 339.609 473.656 342.615 473.656 346.324C473.656 350.032 476.662 353.038 480.37 353.038Z" stroke="#686054" style="stroke:#686054;stroke:color(display-p3 0.4078 0.3765 0.3294);stroke-opacity:1;" stroke-width="0.867728" stroke-linecap="round" stroke-linejoin="round"/>
<path d="M509.196 176.922C509.196 180.85 506.018 184.028 502.09 184.028C498.162 184.028 494.984 180.85 494.984 176.922C494.984 172.994 498.162 169.816 502.09 169.816C506.018 169.816 509.196 172.994 509.196 176.922Z" stroke="#686054" style="stroke:#686054;stroke:color(display-p3 0.4078 0.3765 0.3294);stroke-opacity:1;" stroke-width="0.867728" stroke-linecap="round" stroke-linejoin="round"/>
<path d="M485.5 181.266C485.5 183.224 483.911 184.824 481.941 184.824C479.972 184.824 478.383 183.235 478.383 181.266C478.383 179.296 479.972 177.707 481.941 177.707C483.911 177.707 485.5 179.296 485.5 181.266Z" stroke="#686054" style="stroke:#686054;stroke:color(display-p3 0.4078 0.3765 0.3294);stroke-opacity:1;" stroke-width="0.867728" stroke-linecap="round" stroke-linejoin="round"/>
<defs>
<linearGradient id="paint0_linear_2840_3378" x1="166.485" y1="199.653" x2="195.225" y2="270.007" gradientUnits="userSpaceOnUse">
<stop stop-color="#FFD66B" style="stop-color:#FFD66B;stop-color:color(display-p3 1.0000 0.8378 0.4208);stop-opacity:1;"/>
<stop offset="1" stop-color="#FFA469" style="stop-color:#FFA469;stop-color:color(display-p3 1.0000 0.6431 0.4118);stop-opacity:1;"/>
</linearGradient>
<linearGradient id="paint1_linear_2840_3378" x1="244.779" y1="188.755" x2="254.196" y2="216.843" gradientUnits="userSpaceOnUse">
<stop stop-color="#4F5058" style="stop-color:#4F5058;stop-color:color(display-p3 0.3098 0.3137 0.3451);stop-opacity:1;"/>
<stop offset="1" stop-color="#C27B4C" style="stop-color:#C27B4C;stop-color:color(display-p3 0.7592 0.4808 0.2983);stop-opacity:1;"/>
</linearGradient>
<linearGradient id="paint2_linear_2840_3378" x1="237.051" y1="221.273" x2="266.759" y2="256.102" gradientUnits="userSpaceOnUse">
<stop stop-color="#4F5058" style="stop-color:#4F5058;stop-color:color(display-p3 0.3098 0.3137 0.3451);stop-opacity:1;"/>
<stop offset="1" stop-color="#C27B4C" style="stop-color:#C27B4C;stop-color:color(display-p3 0.7592 0.4808 0.2983);stop-opacity:1;"/>
</linearGradient>
<linearGradient id="paint3_linear_2840_3378" x1="306.663" y1="221.036" x2="327.172" y2="237.236" gradientUnits="userSpaceOnUse">
<stop stop-color="#4F5058" style="stop-color:#4F5058;stop-color:color(display-p3 0.3098 0.3137 0.3451);stop-opacity:1;"/>
<stop offset="1" stop-color="#C27B4C" style="stop-color:#C27B4C;stop-color:color(display-p3 0.7592 0.4808 0.2983);stop-opacity:1;"/>
</linearGradient>
<linearGradient id="paint4_linear_2840_3378" x1="317.966" y1="223.856" x2="325.11" y2="229.499" gradientUnits="userSpaceOnUse">
<stop stop-color="#4F5058" style="stop-color:#4F5058;stop-color:color(display-p3 0.3098 0.3137 0.3451);stop-opacity:1;"/>
<stop offset="1" stop-color="#C27B4C" style="stop-color:#C27B4C;stop-color:color(display-p3 0.7592 0.4808 0.2983);stop-opacity:1;"/>
</linearGradient>
<linearGradient id="paint5_linear_2840_3378" x1="349.995" y1="238.637" x2="372.43" y2="285.57" gradientUnits="userSpaceOnUse">
<stop stop-color="#FFD66B" style="stop-color:#FFD66B;stop-color:color(display-p3 1.0000 0.8378 0.4208);stop-opacity:1;"/>
<stop offset="1" stop-color="#FFA469" style="stop-color:#FFA469;stop-color:color(display-p3 1.0000 0.6431 0.4118);stop-opacity:1;"/>
</linearGradient>
<linearGradient id="paint6_linear_2840_3378" x1="410.816" y1="237.998" x2="435.414" y2="258.294" gradientUnits="userSpaceOnUse">
<stop stop-color="#4F5058" style="stop-color:#4F5058;stop-color:color(display-p3 0.3098 0.3137 0.3451);stop-opacity:1;"/>
<stop offset="1" stop-color="#C27B4C" style="stop-color:#C27B4C;stop-color:color(display-p3 0.7592 0.4808 0.2983);stop-opacity:1;"/>
</linearGradient>
<linearGradient id="paint7_linear_2840_3378" x1="-8.06868" y1="246.645" x2="8.25222" y2="280.788" gradientUnits="userSpaceOnUse">
<stop stop-color="#FFD66B" style="stop-color:#FFD66B;stop-color:color(display-p3 1.0000 0.8378 0.4208);stop-opacity:1;"/>
<stop offset="1" stop-color="#FFA469" style="stop-color:#FFA469;stop-color:color(display-p3 1.0000 0.6431 0.4118);stop-opacity:1;"/>
</linearGradient>
<linearGradient id="paint8_linear_2840_3378" x1="37.9137" y1="243.95" x2="56.3179" y2="258.259" gradientUnits="userSpaceOnUse">
<stop stop-color="#4F5058" style="stop-color:#4F5058;stop-color:color(display-p3 0.3098 0.3137 0.3451);stop-opacity:1;"/>
<stop offset="1" stop-color="#C27B4C" style="stop-color:#C27B4C;stop-color:color(display-p3 0.7592 0.4808 0.2983);stop-opacity:1;"/>
</linearGradient>
<linearGradient id="paint9_linear_2840_3378" x1="33.3104" y1="252.732" x2="45.2931" y2="262.073" gradientUnits="userSpaceOnUse">
<stop stop-color="#4F5058" style="stop-color:#4F5058;stop-color:color(display-p3 0.3098 0.3137 0.3451);stop-opacity:1;"/>
<stop offset="1" stop-color="#C27B4C" style="stop-color:#C27B4C;stop-color:color(display-p3 0.7592 0.4808 0.2983);stop-opacity:1;"/>
</linearGradient>
<linearGradient id="paint10_linear_2840_3378" x1="71.9633" y1="293.231" x2="94.3984" y2="340.164" gradientUnits="userSpaceOnUse">
<stop stop-color="#FFD66B" style="stop-color:#FFD66B;stop-color:color(display-p3 1.0000 0.8378 0.4208);stop-opacity:1;"/>
<stop offset="1" stop-color="#FFA469" style="stop-color:#FFA469;stop-color:color(display-p3 1.0000 0.6431 0.4118);stop-opacity:1;"/>
</linearGradient>
<linearGradient id="paint11_linear_2840_3378" x1="125.999" y1="312.683" x2="143.047" y2="283.68" gradientUnits="userSpaceOnUse">
<stop stop-color="#4F5058" style="stop-color:#4F5058;stop-color:color(display-p3 0.3098 0.3137 0.3451);stop-opacity:1;"/>
<stop offset="1" stop-color="#C27B4C" style="stop-color:#C27B4C;stop-color:color(display-p3 0.7592 0.4808 0.2983);stop-opacity:1;"/>
</linearGradient>
<linearGradient id="paint12_linear_2840_3378" x1="318.809" y1="329.217" x2="318.809" y2="460.345" gradientUnits="userSpaceOnUse">
<stop stop-color="#46474E" style="stop-color:#46474E;stop-color:color(display-p3 0.2745 0.2784 0.3059);stop-opacity:1;"/>
<stop offset="1" stop-color="#393A3F" style="stop-color:#393A3F;stop-color:color(display-p3 0.2235 0.2275 0.2471);stop-opacity:1;"/>
</linearGradient>
<clipPath id="clip0_2840_3378">
<rect width="59.9041" height="28.08" fill="white" style="fill:white;fill-opacity:1;" transform="translate(116.75 290.287)"/>
</clipPath>
</defs>
</svg>
