<svg width="168" height="26" viewBox="0 0 168 26" fill="none" xmlns="http://www.w3.org/2000/svg">
<g clip-path="url(#clip0_2302_1852)">
<path d="M5.5188 9.42639L3.6876 11.5348V16.012H0V0.0267875H3.6876V6.26799L8.9796 0.0267875H13.3392L7.9548 6.51999L13.6164 16.0036H9.2988L5.5104 9.41799L5.5188 9.42639Z" fill="#fff"/>
<path d="M19.152 0.0267875V16.012H15.4644V0.0267875H19.152Z" fill="#fff"/>
<path d="M34.5744 11.3248C34.5912 12.0556 34.4148 12.778 34.062 13.4248C33.7176 14.0212 33.2472 14.5336 32.6844 14.92C32.0628 15.34 31.374 15.6508 30.6432 15.8272C29.8368 16.0288 29.0052 16.1296 28.1736 16.1296C27.6024 16.1296 27.0312 16.096 26.4684 16.0372C25.9308 15.9784 25.3932 15.8608 24.8808 15.7012C24.3516 15.5332 23.8392 15.3064 23.3604 15.0292C22.8228 14.7184 22.3272 14.3572 21.8652 13.954L23.9316 11.2408C24.5448 11.7448 25.242 12.148 25.9812 12.4336C26.6448 12.6856 27.3504 12.8116 28.056 12.82C28.4844 12.8284 28.9128 12.7864 29.3328 12.6772C29.6268 12.61 29.904 12.484 30.156 12.316C30.3408 12.1984 30.492 12.0304 30.5928 11.8456C30.6768 11.6944 30.7188 11.5264 30.7188 11.3584C30.7188 11.14 30.66 10.93 30.5424 10.7452C30.3912 10.5352 30.1896 10.3672 29.9544 10.2496C29.6016 10.0648 29.232 9.90519 28.854 9.78759C28.4004 9.63639 27.8292 9.45999 27.1488 9.27519C26.4768 9.09879 25.8132 8.87199 25.1748 8.59479C24.6456 8.36799 24.1584 8.05719 23.7216 7.67079C23.3352 7.31799 23.0244 6.87279 22.8312 6.38559C22.6128 5.81439 22.512 5.20959 22.5288 4.59639C22.5204 3.91599 22.6632 3.24399 22.9572 2.63919C23.2428 2.05959 23.6544 1.55559 24.1668 1.15239C24.7212 0.723987 25.3512 0.404787 26.0232 0.211587C26.796 -0.0236125 27.5856 -0.132812 28.3836 -0.132812C29.3076 -0.132812 30.2232 -0.0488125 31.1304 0.119188C32.1468 0.337587 33.1044 0.757588 33.9444 1.34559L32.298 4.31079C31.668 3.88239 30.9624 3.57999 30.2232 3.40359C29.6016 3.27759 28.9716 3.21879 28.3332 3.21879C27.8376 3.20199 27.3504 3.29439 26.9052 3.51279C26.544 3.69759 26.334 4.07559 26.3592 4.47879C26.3592 4.67199 26.418 4.86519 26.5356 5.02479C26.6952 5.22639 26.8968 5.38599 27.1236 5.50359C27.4764 5.68839 27.8376 5.83959 28.2156 5.95719C28.6608 6.10839 29.2152 6.26799 29.862 6.45279C30.7188 6.66279 31.542 6.98199 32.3232 7.39359C32.8692 7.67919 33.348 8.06559 33.7512 8.52759C34.0704 8.91399 34.2972 9.36759 34.4148 9.84639C34.524 10.3252 34.5828 10.8208 34.5744 11.3164V11.3248Z" fill="#fff"/>
<path d="M36.7836 0.0267875H47.9388V3.29439H40.4712V6.30999H46.8468V9.57759H40.4712V12.7276H47.9388V15.9952H36.7836V0.0267875Z" fill="#fff"/>
<path d="M50.3748 16.012V0.0267875H54.012V12.736H61.5972V16.0036H50.3748V16.012Z" fill="#fff"/>
<path d="M63.1008 0.0267875H74.256V3.29439H66.7884V6.30999H73.164V9.57759H66.7884V12.7276H74.256V15.9952H63.1008V0.0267875Z" fill="#fff"/>
<path d="M82.656 10.6276L84.2772 4.84839L85.6716 0.0267875H89.5188L84.4368 16.0036H80.6568L75.5328 0.0267875H79.4724L80.9088 4.94079L82.5132 10.6192H82.6476L82.656 10.6276Z" fill="#fff"/>
<path d="M107.646 14.9284C107.209 15.2224 106.739 15.466 106.243 15.6592C105.781 15.844 105.294 15.97 104.807 16.054C103.622 16.2556 102.413 16.1968 101.262 15.8692C100.54 15.676 99.8592 15.3652 99.246 14.9452C98.6412 14.5336 98.1456 13.9876 97.776 13.3576C97.3812 12.6604 97.188 11.8708 97.2048 11.0728V5.10879C97.188 4.31079 97.3728 3.52119 97.7508 2.81559C98.1036 2.17719 98.5992 1.61439 99.1872 1.17759C99.792 0.732387 100.472 0.396387 101.195 0.194788C101.926 -0.0236125 102.69 -0.132812 103.463 -0.132812C104.42 -0.132812 105.378 0.00998749 106.302 0.270388C107.176 0.497187 107.99 0.925588 108.679 1.51359L106.89 4.36959C106.411 3.94959 105.832 3.63879 105.21 3.47919C104.664 3.33639 104.11 3.26079 103.555 3.26079C103.244 3.26079 102.934 3.31119 102.631 3.40359C102.32 3.49599 102.035 3.63879 101.774 3.83199C101.506 4.03359 101.287 4.29399 101.136 4.59639C100.96 4.96599 100.876 5.36079 100.892 5.77239V10.2916C100.876 10.6948 100.96 11.098 101.128 11.4676C101.27 11.7616 101.472 12.0304 101.732 12.232C101.976 12.4252 102.253 12.568 102.556 12.6604C102.85 12.7528 103.16 12.8032 103.471 12.8032C103.765 12.8032 104.059 12.7612 104.345 12.6856C104.656 12.6016 104.95 12.4504 105.193 12.2488V10.09H102.992V6.98199H108.881V13.828C108.536 14.2648 108.116 14.6428 107.654 14.9452L107.646 14.9284Z" fill="#fff"/>
<path d="M118.717 0.0267875C119.49 0.0015875 120.263 0.152787 120.968 0.463587C121.556 0.732387 122.077 1.12719 122.489 1.62279C122.884 2.10159 123.178 2.65599 123.346 3.26079C123.522 3.85719 123.614 4.47879 123.614 5.10039C123.614 5.52879 123.547 5.95719 123.43 6.36039C123.304 6.78039 123.136 7.19199 122.909 7.56999C122.682 7.95639 122.405 8.31759 122.086 8.63679C121.766 8.96439 121.397 9.24999 120.994 9.48519L123.85 16.0036H119.91L117.499 10.1152H115.223V16.0036H111.535V0.0267875H118.726H118.717ZM115.214 6.88959H117.953C118.499 6.93999 119.036 6.74679 119.423 6.36879C119.725 6.01599 119.885 5.56239 119.876 5.10039C119.927 4.15119 119.204 3.34479 118.255 3.29439C118.154 3.29439 118.054 3.29439 117.944 3.30279H115.206V6.89799L115.214 6.88959Z" fill="#fff"/>
<path d="M137.945 10.9552C137.962 11.7532 137.794 12.5344 137.432 13.2484C137.105 13.8868 136.634 14.4412 136.063 14.8696C135.467 15.3148 134.795 15.6424 134.072 15.844C133.3 16.0624 132.493 16.1716 131.687 16.1716C130.88 16.1716 130.082 16.0624 129.318 15.844C128.604 15.6424 127.924 15.3148 127.327 14.8696C126.748 14.4412 126.277 13.8868 125.95 13.2484C125.597 12.5344 125.42 11.7448 125.437 10.9552V4.94919C125.412 4.15959 125.605 3.36999 125.992 2.67279C126.353 2.05119 126.848 1.51359 127.436 1.09359C128.041 0.673588 128.722 0.354388 129.436 0.169588C130.166 -0.0320125 130.922 -0.132812 131.678 -0.132812C132.443 -0.132812 133.199 -0.0236125 133.938 0.194788C134.66 0.396387 135.341 0.723987 135.954 1.16079C136.55 1.58079 137.038 2.13519 137.39 2.77359C137.768 3.47919 137.953 4.26879 137.936 5.06679V10.9552H137.945ZM134.257 5.75559C134.266 5.35239 134.19 4.94919 134.022 4.57959C133.888 4.28559 133.686 4.02519 133.434 3.81519C133.19 3.62199 132.913 3.47079 132.611 3.38679C132.317 3.29439 132.014 3.25239 131.704 3.24399C131.393 3.24399 131.082 3.29439 130.788 3.38679C130.486 3.47919 130.208 3.62199 129.965 3.81519C129.704 4.01679 129.503 4.28559 129.36 4.57959C129.192 4.94919 129.116 5.35239 129.125 5.75559V10.2748C129.108 10.678 129.192 11.0812 129.36 11.4508C129.503 11.7448 129.704 12.0136 129.965 12.2152C130.208 12.4084 130.486 12.5512 130.788 12.6436C131.082 12.736 131.393 12.7864 131.704 12.7864C132.014 12.7864 132.317 12.736 132.611 12.6436C132.913 12.5596 133.19 12.4084 133.434 12.2152C133.686 12.0052 133.888 11.7448 134.022 11.4508C134.19 11.0812 134.266 10.678 134.257 10.2748V5.75559Z" fill="#fff"/>
<path d="M152.603 13.2232C152.258 13.8616 151.771 14.4244 151.192 14.8612C150.587 15.3064 149.915 15.6424 149.192 15.844C148.445 16.0624 147.672 16.1716 146.891 16.1716C146.11 16.1716 145.337 16.0708 144.589 15.8608C143.867 15.6676 143.195 15.3484 142.59 14.9116C142.01 14.4916 141.523 13.9456 141.179 13.3156C140.809 12.61 140.624 11.8288 140.65 11.0308V0.0267875H144.337V10.3252C144.329 10.7284 144.404 11.1316 144.572 11.4928C144.715 11.7868 144.917 12.0556 145.177 12.2572C145.421 12.4504 145.698 12.5932 146 12.6856C146.294 12.778 146.605 12.8284 146.916 12.8284C147.227 12.8284 147.529 12.778 147.823 12.6856C148.126 12.6016 148.403 12.4504 148.646 12.2572C148.898 12.0472 149.1 11.7868 149.234 11.4928C149.402 11.1232 149.478 10.7284 149.47 10.3252V0.0267875H153.157V10.93C153.174 11.728 152.998 12.5176 152.628 13.2232H152.603Z" fill="#fff"/>
<path d="M162.935 0.0267875C163.724 0.0015875 164.506 0.152788 165.236 0.455187C165.833 0.715587 166.37 1.11039 166.79 1.60599C167.194 2.08479 167.488 2.63079 167.672 3.22719C167.857 3.83199 167.95 4.47039 167.95 5.10879C167.95 5.74719 167.84 6.38559 167.614 6.99039C167.152 8.23359 166.211 9.23319 165.001 9.76239C164.312 10.0564 163.565 10.2076 162.817 10.1908H159.634V16.012H155.946V0.0267875H162.935ZM159.625 6.91479H162.338C162.884 6.97359 163.43 6.78039 163.825 6.38559C164.119 6.02439 164.279 5.57079 164.262 5.10879C164.27 4.64679 164.119 4.19319 163.834 3.83199C163.439 3.43719 162.893 3.24399 162.338 3.30279H159.625V6.92319V6.91479Z" fill="#fff"/>
<path d="M88.0645 24.5369C88.1485 24.4865 88.2157 24.4193 88.2745 24.3437C88.3417 24.2597 88.3921 24.1673 88.4257 24.0665C88.4677 23.9321 88.5013 23.7977 88.5181 23.6633C88.5433 23.5037 88.5601 23.3189 88.5685 23.1005L88.6525 21.6641H91.0885V24.5285H91.3657V25.9061H90.8113V25.0409H88.3669V25.9061H87.8125V24.5453L88.0477 24.5285L88.0645 24.5369ZM89.1733 22.1849L89.1313 23.0753C89.1229 23.3693 89.0893 23.6633 89.0473 23.9489C89.0137 24.1505 88.9465 24.3521 88.8373 24.5285H90.5173V22.1849H89.1733Z" fill="#fff"/>
<path d="M92.9756 22.1921V23.1077C92.9756 23.4017 92.9504 23.6957 92.8916 23.9813C92.8496 24.1829 92.774 24.3761 92.6648 24.5525C92.5724 24.6953 92.4548 24.8213 92.3204 24.9137C92.186 25.0061 92.0348 25.0817 91.8836 25.1489L91.6484 24.6785C91.766 24.6281 91.8752 24.5609 91.9844 24.4937C92.0852 24.4265 92.1608 24.3341 92.2196 24.2333C92.2868 24.0989 92.3372 23.9477 92.354 23.7965C92.3876 23.5613 92.4044 23.3177 92.396 23.0825V21.6797H94.7396V25.0565H94.1516V22.2005H92.9756V22.1921Z" fill="#fff"/>
<path d="M95.4563 22.7057C95.4563 22.5629 95.4815 22.4285 95.5319 22.2941C95.5823 22.1681 95.6495 22.0589 95.7419 21.9665C95.8343 21.8741 95.9519 21.7985 96.0695 21.7481C96.2039 21.6893 96.3551 21.6641 96.5063 21.6641H98.1023V25.0409H97.5143V23.6465H96.7835C96.6491 23.6465 96.5147 23.6801 96.3971 23.7473C96.2627 23.8481 96.1787 23.9909 96.1619 24.1505L95.9603 25.0409H95.3555L95.5739 24.1253C95.6075 23.9909 95.6579 23.8649 95.7251 23.7473C95.7923 23.6297 95.8931 23.5457 96.0191 23.5121C95.8427 23.4617 95.6915 23.3525 95.5907 23.2013C95.4983 23.0585 95.4479 22.8821 95.4479 22.7141L95.4563 22.7057ZM96.0191 22.6889C96.0023 22.8317 96.0695 22.9661 96.1871 23.0417C96.3131 23.1089 96.4559 23.1425 96.5987 23.1341H97.5227V22.1681H96.5819C96.4391 22.1681 96.3047 22.2101 96.1955 22.2941C96.0779 22.3865 96.0107 22.5293 96.0191 22.6805V22.6889Z" fill="#fff"/>
<path d="M102.503 24.7167C102.293 24.8427 102.074 24.9351 101.847 25.0107C101.696 25.0527 101.545 25.0695 101.385 25.0779C101.1 25.0947 100.814 24.9939 100.604 24.8007C100.403 24.6075 100.293 24.3387 100.31 24.0531C100.31 23.8851 100.352 23.7255 100.436 23.5827C100.52 23.4567 100.621 23.3559 100.747 23.2719C100.873 23.1963 101.007 23.1375 101.15 23.1039C101.276 23.0703 101.402 23.0535 101.537 23.0535H102.528V22.7931C102.553 22.6083 102.477 22.4151 102.326 22.2975C102.158 22.1967 101.957 22.1463 101.763 22.1547C101.621 22.1547 101.469 22.1715 101.335 22.2051C101.142 22.2471 100.965 22.3395 100.823 22.4655L100.537 22.0203C100.73 21.8607 100.957 21.7515 101.201 21.6927C101.402 21.6423 101.612 21.6171 101.822 21.6171C102.175 21.5919 102.528 21.6927 102.805 21.9111C103.032 22.1463 103.149 22.4739 103.124 22.8015V25.0359H102.603L102.536 24.7251L102.519 24.7083L102.503 24.7167ZM102.519 23.5407H101.629C101.553 23.5407 101.469 23.5407 101.394 23.5575C101.31 23.5659 101.234 23.5911 101.159 23.6247C101.083 23.6583 101.024 23.7171 100.982 23.7843C100.932 23.8683 100.907 23.9607 100.907 24.0615C100.898 24.2043 100.957 24.3387 101.075 24.4311C101.201 24.5151 101.352 24.5571 101.503 24.5571C101.595 24.5571 101.688 24.5403 101.772 24.5235C101.864 24.4983 101.957 24.4731 102.041 24.4311C102.125 24.3975 102.209 24.3555 102.293 24.3135L102.519 24.1959V23.5575V23.5407Z" fill="#fff"/>
<path d="M106.454 24.0167C106.454 24.1427 106.429 24.2686 106.387 24.3863C106.345 24.5122 106.278 24.6214 106.185 24.7138C106.093 24.8146 105.975 24.8986 105.849 24.949C105.698 25.0078 105.538 25.0415 105.379 25.0331H103.732V21.6562H105.362C105.522 21.6562 105.673 21.6815 105.816 21.7319C105.933 21.7739 106.042 21.8494 106.135 21.9334C106.219 22.0174 106.286 22.1183 106.32 22.2275C106.362 22.3367 106.378 22.4626 106.378 22.5802C106.378 22.7146 106.345 22.8406 106.286 22.9582C106.11 22.9582 105.967 23.1094 105.967 23.2858C105.967 23.4622 106.118 23.605 106.294 23.605C106.311 23.605 106.32 23.605 106.336 23.605C106.404 23.731 106.437 23.8739 106.446 24.0167H106.454ZM105.799 22.597C105.807 22.471 105.748 22.345 105.631 22.2778C105.522 22.2106 105.396 22.177 105.27 22.177H104.32V23.0087H105.303C105.429 23.0087 105.555 22.975 105.664 22.8994C105.757 22.8238 105.807 22.7063 105.799 22.5887V22.597ZM105.858 24.0167C105.858 23.8823 105.807 23.7478 105.698 23.6638C105.597 23.5798 105.471 23.5378 105.337 23.5378H104.32V24.5206H105.278C105.438 24.5374 105.597 24.487 105.723 24.3863C105.816 24.2854 105.866 24.1511 105.858 24.0167Z" fill="#fff"/>
<path d="M108.441 22.1849V25.0409H107.837V22.1849H106.795V21.6641H109.5V22.1849H108.45H108.441Z" fill="#fff"/>
<path d="M112.699 23.8543C112.699 24.0307 112.665 24.2155 112.59 24.3751C112.514 24.5263 112.413 24.6607 112.279 24.7615C112.145 24.8707 111.993 24.9463 111.834 24.9967C111.657 25.0555 111.481 25.0807 111.296 25.0807C111.111 25.0807 110.927 25.0555 110.75 24.9967C110.591 24.9463 110.439 24.8623 110.313 24.7615C110.187 24.6523 110.087 24.5263 110.019 24.3751C109.944 24.2155 109.91 24.0307 109.91 23.8543V22.8715C109.91 22.6951 109.944 22.5103 110.028 22.3507C110.103 22.1995 110.204 22.0735 110.33 21.9643C110.465 21.8551 110.607 21.7711 110.775 21.7207C110.952 21.6619 111.137 21.6367 111.321 21.6367C111.515 21.6367 111.699 21.6619 111.884 21.7207C112.044 21.7711 112.195 21.8551 112.329 21.9643C112.455 22.0735 112.556 22.1995 112.623 22.3507C112.691 22.5187 112.733 22.6951 112.724 22.8715V23.8543H112.699ZM112.111 22.9807C112.111 22.8547 112.086 22.7287 112.035 22.6111C111.993 22.5103 111.926 22.4263 111.842 22.3591C111.767 22.3003 111.674 22.2499 111.582 22.2247C111.489 22.1995 111.397 22.1827 111.305 22.1827C111.204 22.1827 111.111 22.1995 111.019 22.2247C110.927 22.2499 110.834 22.3003 110.759 22.3591C110.675 22.4263 110.607 22.5103 110.565 22.6111C110.515 22.7287 110.49 22.8547 110.49 22.9807V23.7367C110.49 23.8627 110.507 23.9887 110.557 24.1063C110.599 24.1987 110.658 24.2827 110.733 24.3499C110.809 24.4171 110.893 24.4591 110.994 24.4843C111.095 24.5095 111.204 24.5263 111.313 24.5263C111.405 24.5263 111.498 24.5095 111.59 24.4843C111.683 24.4591 111.775 24.4087 111.851 24.3499C111.935 24.2827 112.002 24.1987 112.044 24.1063C112.094 23.9887 112.119 23.8627 112.119 23.7367V22.9807H112.111Z" fill="#fff"/>
<path d="M116.162 22.9073L115.792 23.6045L115.255 24.5621H114.851L114.406 23.7641L113.986 22.9577H113.961V25.0409H113.373V21.6641H113.911L114.591 22.9493L115.061 23.8649L115.54 22.9577L116.246 21.6641H116.775V25.0409H116.187V22.9073H116.153H116.162Z" fill="#fff"/>
<path d="M119.594 24.7167C119.384 24.8427 119.166 24.9351 118.939 25.0107C118.788 25.0527 118.637 25.0695 118.477 25.0779C118.192 25.0947 117.906 24.9939 117.696 24.8007C117.494 24.6075 117.385 24.3387 117.402 24.0531C117.402 23.8851 117.444 23.7255 117.528 23.5827C117.612 23.4567 117.713 23.3559 117.839 23.2719C117.965 23.1963 118.099 23.1375 118.242 23.1039C118.368 23.0703 118.494 23.0535 118.628 23.0535H119.62V22.7931C119.645 22.6083 119.569 22.4235 119.418 22.2975C119.25 22.1967 119.048 22.1463 118.855 22.1547C118.712 22.1547 118.561 22.1715 118.418 22.2051C118.225 22.2471 118.049 22.3395 117.906 22.4655L117.62 22.0203C117.814 21.8607 118.04 21.7515 118.284 21.6927C118.486 21.6423 118.696 21.6171 118.906 21.6171C119.258 21.5919 119.611 21.6927 119.888 21.9111C120.115 22.1463 120.233 22.4739 120.208 22.8015V25.0359H119.695L119.628 24.7251L119.611 24.7083L119.594 24.7167ZM119.611 23.5407H118.721C118.645 23.5407 118.561 23.5407 118.486 23.5575C118.402 23.5659 118.326 23.5911 118.25 23.6247C118.175 23.6583 118.116 23.7171 118.066 23.7843C118.015 23.8683 117.99 23.9607 117.998 24.0615C117.99 24.2043 118.049 24.3387 118.166 24.4311C118.292 24.5151 118.444 24.5571 118.595 24.5571C118.687 24.5571 118.78 24.5403 118.864 24.5235C118.956 24.4983 119.048 24.4731 119.132 24.4311C119.216 24.3975 119.3 24.3555 119.384 24.3135L119.611 24.1959V23.5575V23.5407Z" fill="#fff"/>
<path d="M122.254 22.1849V25.0409H121.649V22.1849H120.607V21.6641H123.312V22.1849H122.262H122.254Z" fill="#fff"/>
<path d="M124.33 24.1006L124.834 23.3278L125.968 21.6646H126.522V25.0414H125.918V22.597H125.884L125.372 23.3782L124.254 25.0331H123.717V21.6562H124.305V24.0923H124.338L124.33 24.1006Z" fill="#fff"/>
<path d="M127.304 24.2497C127.43 24.3589 127.573 24.4345 127.724 24.4765C127.867 24.5269 128.018 24.5521 128.161 24.5521C128.287 24.5521 128.405 24.5437 128.531 24.5101C128.615 24.4849 128.699 24.4513 128.766 24.3925C128.825 24.3505 128.867 24.2917 128.9 24.2245C128.926 24.1657 128.942 24.0985 128.942 24.0397C128.942 23.8969 128.884 23.7625 128.758 23.6785C128.623 23.5945 128.464 23.5525 128.304 23.5525H127.842V23.0653H128.321C128.472 23.0737 128.623 23.0317 128.741 22.9309C128.842 22.8469 128.892 22.7293 128.892 22.6033C128.892 22.4605 128.816 22.3345 128.69 22.2757C128.548 22.2085 128.396 22.1665 128.237 22.1749C128.094 22.1749 127.96 22.1917 127.825 22.2337C127.682 22.2757 127.548 22.3513 127.43 22.4521L127.069 22.0489C127.229 21.8977 127.422 21.7885 127.632 21.7213C127.842 21.6541 128.06 21.6289 128.27 21.6289C128.447 21.6289 128.623 21.6541 128.783 21.7045C128.917 21.7465 129.043 21.8137 129.152 21.9061C129.245 21.9901 129.32 22.0909 129.371 22.2001C129.421 22.3093 129.446 22.4353 129.446 22.5613C129.446 22.6201 129.446 22.6789 129.43 22.7377C129.421 22.8049 129.396 22.8721 129.362 22.9393C129.329 23.0149 129.278 23.0737 129.22 23.1325C129.144 23.1997 129.06 23.2501 128.968 23.2837C129.06 23.3173 129.152 23.3761 129.228 23.4433C129.346 23.5525 129.43 23.7037 129.463 23.8633C129.472 23.9221 129.48 23.9809 129.48 24.0397C129.48 24.1825 129.455 24.3253 129.396 24.4513C129.337 24.5773 129.253 24.6865 129.152 24.7789C129.035 24.8797 128.892 24.9553 128.741 24.9973C128.556 25.0561 128.363 25.0813 128.17 25.0729C127.951 25.0729 127.733 25.0393 127.514 24.9805C127.296 24.9133 127.086 24.8041 126.918 24.6445L127.279 24.2413L127.304 24.2497Z" fill="#fff"/>
<path d="M132.206 24.7167C131.996 24.8427 131.777 24.9351 131.551 25.0107C131.399 25.0527 131.248 25.0695 131.089 25.0779C130.803 25.0947 130.517 24.9939 130.307 24.8007C130.106 24.6075 129.997 24.3387 130.013 24.0531C130.013 23.8851 130.055 23.7255 130.139 23.5827C130.223 23.4567 130.324 23.3475 130.45 23.2719C130.576 23.1963 130.711 23.1375 130.853 23.1039C130.979 23.0703 131.105 23.0535 131.24 23.0535H132.231V22.7931C132.256 22.6083 132.181 22.4151 132.029 22.2975C131.861 22.1967 131.66 22.1463 131.467 22.1547C131.324 22.1547 131.173 22.1715 131.038 22.2051C130.845 22.2471 130.669 22.3395 130.526 22.4655L130.24 22.0203C130.433 21.8607 130.66 21.7515 130.904 21.6927C131.105 21.6423 131.315 21.6171 131.525 21.6171C131.878 21.5919 132.231 21.6927 132.508 21.9111C132.735 22.1463 132.853 22.4739 132.827 22.8015V25.0359H132.307L132.239 24.7251L132.214 24.7083L132.206 24.7167ZM132.223 23.5407H131.332C131.257 23.5407 131.173 23.5407 131.097 23.5575C131.013 23.5659 130.937 23.5911 130.862 23.6247C130.786 23.6583 130.727 23.7171 130.677 23.7843C130.627 23.8683 130.601 23.9607 130.601 24.0615C130.593 24.2043 130.652 24.3387 130.769 24.4311C130.895 24.5151 131.047 24.5571 131.198 24.5571C131.29 24.5571 131.383 24.5403 131.467 24.5235C131.559 24.4983 131.651 24.4647 131.735 24.4311C131.819 24.3975 131.903 24.3555 131.987 24.3135L132.214 24.1959V23.5575L132.223 23.5407Z" fill="#fff"/>
<path d="M135.945 25.0414H133.525V21.6562H134.097V24.5206H135.651V21.6562H136.213V24.529H136.491V25.9067H135.936V25.0414H135.945Z" fill="#fff"/>
<path d="M137.631 24.1006L138.135 23.3278L139.269 21.6646H139.823V25.0414H139.218V22.597H139.185L138.672 23.3782L137.555 25.0331H137.018V21.6562H137.606V24.0923H137.631V24.1006Z" fill="#fff"/>
<path d="M141.115 24.1006L141.619 23.3278L142.753 21.6646H143.308V25.0414H142.703V22.597H142.669L142.157 23.3782L141.04 25.0331H140.502V21.6562H141.09V24.0923H141.124L141.115 24.1006Z" fill="#fff"/>
<path d="M146.271 22.1238C146.329 22.065 146.397 22.0146 146.481 21.9726C146.556 21.9306 146.632 21.897 146.716 21.8718C146.791 21.8466 146.859 21.8298 146.934 21.8214C147.346 21.7626 147.766 21.8802 148.093 22.1322C148.329 22.3758 148.446 22.7118 148.429 23.0478V23.8122C148.429 23.997 148.396 24.1734 148.312 24.3414C148.236 24.4926 148.135 24.6354 148.009 24.7446C147.875 24.8538 147.724 24.9378 147.564 24.9966C147.388 25.0554 147.211 25.0806 147.027 25.0806C146.657 25.1058 146.287 24.9798 146.002 24.7446C145.75 24.5094 145.615 24.165 145.632 23.8206V22.8546C145.632 22.653 145.641 22.4598 145.666 22.2582C145.683 22.065 145.725 21.8634 145.783 21.6786C145.842 21.4938 145.926 21.3258 146.035 21.1662C146.145 21.0066 146.296 20.8638 146.464 20.763C146.615 20.6706 146.775 20.5866 146.943 20.5278L147.438 20.3262L147.581 20.2674L147.699 20.217L147.833 20.1582C147.883 20.133 147.942 20.1078 148.018 20.0742L148.228 20.5614C148.093 20.6202 147.984 20.6706 147.9 20.7042C147.816 20.7378 147.749 20.763 147.69 20.7882C147.631 20.8134 147.581 20.8302 147.539 20.847C147.497 20.8638 147.438 20.8806 147.379 20.9142C147.186 20.9982 147.027 21.0738 146.901 21.141C146.783 21.1998 146.674 21.2838 146.581 21.3762C146.497 21.4602 146.43 21.5694 146.38 21.6786C146.329 21.8214 146.296 21.9642 146.271 22.107V22.1322V22.1238ZM147.841 23.157C147.867 22.9302 147.783 22.7034 147.623 22.5354C147.455 22.4094 147.245 22.3422 147.027 22.359C146.926 22.359 146.833 22.3758 146.741 22.4094C146.649 22.443 146.556 22.4934 146.481 22.5522C146.397 22.6194 146.329 22.7034 146.287 22.8042C146.237 22.9218 146.212 23.0478 146.212 23.1822V23.7282C146.212 23.8542 146.229 23.9802 146.279 24.0978C146.321 24.1902 146.38 24.2742 146.455 24.3414C146.531 24.4086 146.615 24.4506 146.716 24.4758C146.817 24.501 146.926 24.5178 147.035 24.5178C147.136 24.5178 147.237 24.501 147.337 24.4758C147.43 24.4506 147.522 24.4002 147.598 24.3414C147.673 24.2742 147.741 24.1902 147.783 24.0978C147.833 23.9802 147.858 23.8542 147.85 23.7282V23.157H147.841Z" fill="#fff"/>
<path d="M149.699 24.1006L150.203 23.3278L151.337 21.6646H151.892V25.0414H151.287V22.597H151.253L150.741 23.3782L149.624 25.0331H149.086V21.6562H149.674V24.0923H149.708L149.699 24.1006Z" fill="#fff"/>
<path d="M152.672 24.2497C152.798 24.3589 152.94 24.4345 153.092 24.4765C153.234 24.5269 153.386 24.5521 153.528 24.5521C153.654 24.5521 153.772 24.5437 153.898 24.5101C153.982 24.4849 154.066 24.4513 154.133 24.3925C154.192 24.3505 154.234 24.2917 154.268 24.2245C154.293 24.1657 154.31 24.0985 154.31 24.0397C154.31 23.8969 154.251 23.7625 154.125 23.6785C153.99 23.5945 153.831 23.5525 153.671 23.5525H153.209V23.0653H153.688C153.839 23.0737 153.99 23.0317 154.108 22.9309C154.209 22.8469 154.259 22.7293 154.259 22.6033C154.259 22.4605 154.184 22.3345 154.058 22.2757C153.915 22.2085 153.764 22.1665 153.604 22.1749C153.461 22.1749 153.327 22.1917 153.192 22.2337C153.05 22.2757 152.915 22.3513 152.798 22.4521L152.436 22.0489C152.596 21.8977 152.789 21.7885 152.999 21.7213C153.209 21.6541 153.428 21.6289 153.638 21.6289C153.814 21.6289 153.99 21.6541 154.15 21.7045C154.284 21.7465 154.41 21.8137 154.52 21.9061C154.612 21.9901 154.688 22.0909 154.738 22.2001C154.788 22.3093 154.814 22.4353 154.814 22.5613C154.814 22.6201 154.814 22.6789 154.797 22.7377C154.788 22.8049 154.763 22.8721 154.73 22.9393C154.696 23.0149 154.646 23.0737 154.587 23.1325C154.511 23.1997 154.427 23.2501 154.335 23.2837C154.427 23.3173 154.52 23.3761 154.595 23.4433C154.662 23.5021 154.713 23.5693 154.755 23.6449C154.788 23.7121 154.814 23.7793 154.83 23.8549C154.839 23.9137 154.847 23.9725 154.847 24.0313C154.847 24.1741 154.822 24.3169 154.763 24.4429C154.704 24.5689 154.62 24.6781 154.52 24.7705C154.402 24.8713 154.259 24.9469 154.108 24.9889C153.923 25.0477 153.73 25.0729 153.537 25.0645C153.318 25.0645 153.1 25.0309 152.882 24.9721C152.663 24.9049 152.453 24.7957 152.285 24.6361L152.646 24.2413L152.672 24.2497Z" fill="#fff"/>
<path d="M157.656 25.0409V23.6045H156.043V25.0409H155.455V21.6641H156.043V23.0669H157.656V21.6641H158.244V25.0409H157.656Z" fill="#fff"/>
<path d="M159.508 23.572V23.7988C159.508 23.9164 159.524 24.034 159.575 24.1432C159.617 24.2356 159.684 24.3112 159.76 24.3784C159.844 24.4372 159.936 24.4876 160.028 24.5128C160.129 24.538 160.238 24.5548 160.348 24.5548C160.482 24.5548 160.616 24.5296 160.742 24.4876C160.91 24.4372 161.053 24.3448 161.179 24.2188L161.549 24.622C161.389 24.79 161.196 24.916 160.969 24.9916C160.759 25.0588 160.549 25.0924 160.331 25.0924C160.146 25.0924 159.961 25.0672 159.785 25.0168C159.617 24.9664 159.466 24.8908 159.331 24.7816C159.197 24.6808 159.096 24.5464 159.02 24.3952C158.945 24.2272 158.903 24.0424 158.911 23.8576V22.9672C158.911 22.7824 158.945 22.5976 159.012 22.4212C159.071 22.2616 159.172 22.1188 159.298 22.0012C159.424 21.8836 159.566 21.7996 159.726 21.7408C159.902 21.682 160.087 21.6484 160.272 21.6484C160.457 21.6484 160.65 21.6736 160.826 21.7408C160.986 21.7912 161.129 21.8836 161.255 21.9928C161.372 22.102 161.473 22.2364 161.532 22.396C161.599 22.564 161.633 22.7404 161.633 22.9252V23.5888H159.499L159.508 23.572ZM161.053 22.9672C161.053 22.8412 161.036 22.7236 160.994 22.606C160.961 22.5136 160.902 22.4212 160.826 22.354C160.759 22.2868 160.675 22.2364 160.583 22.2112C160.49 22.1776 160.39 22.1692 160.289 22.1692C160.188 22.1692 160.087 22.186 159.995 22.2196C159.902 22.2532 159.818 22.3036 159.751 22.3624C159.676 22.4296 159.617 22.5136 159.583 22.606C159.541 22.7152 159.516 22.8328 159.524 22.9504V23.1016H161.062V22.9756L161.053 22.9672Z" fill="#fff"/>
<path d="M163.543 21.6289C163.745 21.6289 163.947 21.6541 164.14 21.7045C164.35 21.7633 164.535 21.8809 164.686 22.0489L164.341 22.4941C164.224 22.3765 164.081 22.2841 163.921 22.2337C163.812 22.2001 163.695 22.1833 163.577 22.1833C163.485 22.1833 163.392 22.2001 163.308 22.2253C163.216 22.2505 163.132 22.3009 163.056 22.3597C162.981 22.4269 162.913 22.5109 162.871 22.6117C162.821 22.7293 162.796 22.8553 162.804 22.9813V23.7373C162.804 23.8633 162.821 23.9893 162.871 24.1069C162.913 24.1993 162.972 24.2833 163.048 24.3505C163.123 24.4177 163.207 24.4597 163.3 24.4849C163.392 24.5101 163.485 24.5269 163.585 24.5269C163.711 24.5269 163.829 24.5017 163.955 24.4681C164.098 24.4261 164.224 24.3505 164.325 24.2497L164.686 24.6613C164.543 24.8125 164.358 24.9301 164.157 24.9973C163.972 25.0561 163.77 25.0897 163.577 25.0897C163.392 25.0897 163.207 25.0645 163.031 25.0057C162.871 24.9553 162.729 24.8713 162.603 24.7621C162.485 24.6613 162.384 24.5269 162.325 24.3841C162.258 24.2329 162.225 24.0649 162.225 23.8969V22.8973C162.225 22.5445 162.367 22.2169 162.628 21.9817C162.754 21.8725 162.897 21.7885 163.056 21.7297C163.216 21.6709 163.392 21.6457 163.56 21.6457L163.543 21.6289Z" fill="#fff"/>
<path d="M167.274 24.7167C167.064 24.8427 166.846 24.9351 166.619 25.0107C166.468 25.0527 166.317 25.0695 166.157 25.0779C165.871 25.0947 165.586 24.9939 165.376 24.8007C165.174 24.6075 165.065 24.3387 165.082 24.0531C165.082 23.8851 165.124 23.7255 165.208 23.5827C165.292 23.4567 165.393 23.3559 165.519 23.2719C165.645 23.1963 165.779 23.1375 165.922 23.1039C166.048 23.0703 166.174 23.0535 166.308 23.0535H167.299V22.7931C167.325 22.6083 167.249 22.4235 167.098 22.2975C166.93 22.1967 166.728 22.1463 166.535 22.1547C166.392 22.1547 166.241 22.1715 166.098 22.2051C165.905 22.2471 165.729 22.3395 165.586 22.4655L165.3 22.0203C165.493 21.8607 165.72 21.7515 165.964 21.6927C166.165 21.6423 166.375 21.6171 166.585 21.6171C166.938 21.5919 167.291 21.6927 167.568 21.9111C167.803 22.1463 167.921 22.4739 167.887 22.8015V25.0359H167.367L167.299 24.7251L167.274 24.7083V24.7167ZM167.291 23.5407H166.401C166.325 23.5407 166.241 23.5407 166.165 23.5575C166.081 23.5659 166.006 23.5911 165.93 23.6247C165.855 23.6583 165.796 23.7171 165.745 23.7843C165.695 23.8683 165.67 23.9607 165.67 24.0615C165.661 24.2043 165.72 24.3387 165.838 24.4311C165.964 24.5151 166.115 24.5571 166.266 24.5571C166.359 24.5571 166.451 24.5403 166.535 24.5235C166.627 24.4983 166.72 24.4731 166.804 24.4311C166.888 24.3975 166.972 24.3555 167.056 24.3135L167.283 24.1959V23.5575L167.291 23.5407Z" fill="#fff"/>
<path d="M82.1688 21.6328H0V25.0432H82.1688V21.6328Z" fill="#fff"/>
</g>
<defs>
<clipPath id="clip0_2302_1852">
<rect width="168" height="25.4831" fill="white" style="fill:white;fill-opacity:1;"/>
</clipPath>
</defs>
</svg>
