<svg width="152" height="125" viewBox="0 0 152 125" fill="none" xmlns="http://www.w3.org/2000/svg">
<g id="Group 998" filter="url(#filter0_d_2261_3901)">
<path id="Vector" fill-rule="evenodd" clip-rule="evenodd" d="M39.4613 87.8005C37.8209 87.3053 36.3242 86.4244 35.0975 85.2321C33.8707 84.0399 32.9499 82.5712 32.4127 80.95C29.3431 72.5708 28.4336 37.5823 34.3454 30.6752C36.3129 28.4283 39.0908 27.0449 42.0761 26.8253C57.9356 25.1268 106.935 25.3533 112.562 27.3915C114.145 27.9029 115.591 28.7645 116.792 29.9117C117.993 31.0588 118.918 32.4618 119.497 34.0155C122.851 42.6777 122.965 74.1561 119.043 82.4786C118.002 84.645 116.26 86.3998 114.097 87.4608C108.185 90.4048 47.3058 90.3482 39.4613 87.8005Z" fill="white" style="fill:white;fill-opacity:1;"/>
<path id="Vector_2" fill-rule="evenodd" clip-rule="evenodd" d="M39.4613 87.8005C37.8209 87.3053 36.3242 86.4244 35.0975 85.2321C33.8707 84.0399 32.9499 82.5712 32.4127 80.95C29.3431 72.5708 28.4336 37.5823 34.3454 30.6752C36.3129 28.4283 39.0908 27.0449 42.0761 26.8253C57.9355 25.1268 106.935 25.3533 112.562 27.3915C114.145 27.9029 115.591 28.7645 116.792 29.9117C117.993 31.0588 118.918 32.4618 119.497 34.0155C122.851 42.6777 122.965 74.1561 119.043 82.4786C118.002 84.645 116.26 86.3998 114.097 87.4608C108.185 90.4048 47.3058 90.3482 39.4613 87.8005ZM64.6431 68.0938C64.6431 69.593 66.2316 70.5592 67.5629 69.8697L89.6491 58.431C91.0868 57.6863 91.0901 55.6311 89.6547 54.882L67.5685 43.3552C66.2369 42.6603 64.6431 43.6263 64.6431 45.1283V68.0938Z" fill="#F94343" style="fill:#F94343;fill:color(display-p3 0.9750 0.2641 0.2641);fill-opacity:1;"/>
</g>
<defs>
<filter id="filter0_d_2261_3901" x="0" y="0.691406" width="152" height="124" filterUnits="userSpaceOnUse" color-interpolation-filters="sRGB">
<feFlood flood-opacity="0" result="BackgroundImageFix"/>
<feColorMatrix in="SourceAlpha" type="matrix" values="0 0 0 0 0 0 0 0 0 0 0 0 0 0 0 0 0 0 127 0" result="hardAlpha"/>
<feOffset dy="5"/>
<feGaussianBlur stdDeviation="15"/>
<feComposite in2="hardAlpha" operator="out"/>
<feColorMatrix type="matrix" values="0 0 0 0 0.223529 0 0 0 0 0.227451 0 0 0 0 0.247059 0 0 0 0.6 0"/>
<feBlend mode="multiply" in2="BackgroundImageFix" result="effect1_dropShadow_2261_3901"/>
<feBlend mode="normal" in="SourceGraphic" in2="effect1_dropShadow_2261_3901" result="shape"/>
</filter>
</defs>
</svg>
