<svg width="20" height="21" viewBox="0 0 20 21" fill="none" xmlns="http://www.w3.org/2000/svg">
<path d="M9.9987 11.3177C7.35703 11.3177 5.20703 9.16771 5.20703 6.52604C5.20703 3.88437 7.35703 1.73438 9.9987 1.73438C12.6404 1.73438 14.7904 3.88437 14.7904 6.52604C14.7904 9.16771 12.6404 11.3177 9.9987 11.3177ZM9.9987 2.98438C8.0487 2.98438 6.45703 4.57604 6.45703 6.52604C6.45703 8.47604 8.0487 10.0677 9.9987 10.0677C11.9487 10.0677 13.5404 8.47604 13.5404 6.52604C13.5404 4.57604 11.9487 2.98438 9.9987 2.98438Z" fill="#FFA469" style="fill:#FFA469;fill:color(display-p3 1.0000 0.6431 0.4118);fill-opacity:1;"/>
<path d="M2.83984 19.6497C2.49818 19.6497 2.21484 19.3664 2.21484 19.0247C2.21484 15.4664 5.70651 12.5664 9.99817 12.5664C10.8398 12.5664 11.6648 12.6748 12.4648 12.8998C12.7982 12.9914 12.9899 13.3331 12.8982 13.6664C12.8065 13.9997 12.4648 14.1914 12.1315 14.0998C11.4482 13.9081 10.7315 13.8164 9.99817 13.8164C6.39817 13.8164 3.46484 16.1497 3.46484 19.0247C3.46484 19.3664 3.18151 19.6497 2.83984 19.6497Z" fill="#FFA469" style="fill:#FFA469;fill:color(display-p3 1.0000 0.6431 0.4118);fill-opacity:1;"/>
<path d="M15.0013 19.651C14.018 19.651 13.0846 19.2844 12.3596 18.6261C12.068 18.3761 11.8096 18.0677 11.6096 17.726C11.243 17.126 11.043 16.4177 11.043 15.6927C11.043 14.651 11.443 13.676 12.1596 12.9344C12.9096 12.1594 13.918 11.7344 15.0013 11.7344C16.1346 11.7344 17.2096 12.2177 17.943 13.0511C18.593 13.7761 18.9596 14.7094 18.9596 15.6927C18.9596 16.0094 18.918 16.326 18.8346 16.626C18.7513 17.001 18.593 17.3927 18.3763 17.7344C17.6846 18.9177 16.3846 19.651 15.0013 19.651ZM15.0013 12.9844C14.2596 12.9844 13.5763 13.276 13.0596 13.801C12.568 14.3094 12.293 14.976 12.293 15.6927C12.293 16.1844 12.4263 16.6677 12.6846 17.0844C12.818 17.3177 12.993 17.526 13.193 17.701C13.693 18.1594 14.3346 18.4094 15.0013 18.4094C15.943 18.4094 16.8346 17.9094 17.318 17.101C17.4596 16.8677 17.568 16.6011 17.6263 16.3427C17.6846 16.1261 17.7096 15.9177 17.7096 15.701C17.7096 15.0344 17.4596 14.3927 17.0096 13.8927C16.5096 13.3094 15.7763 12.9844 15.0013 12.9844Z" fill="#FFA469" style="fill:#FFA469;fill:color(display-p3 1.0000 0.6431 0.4118);fill-opacity:1;"/>
<path d="M16.2495 16.3008H13.7578C13.4161 16.3008 13.1328 16.0174 13.1328 15.6758C13.1328 15.3341 13.4161 15.0508 13.7578 15.0508H16.2495C16.5911 15.0508 16.8745 15.3341 16.8745 15.6758C16.8745 16.0174 16.5911 16.3008 16.2495 16.3008Z" fill="#FFA469" style="fill:#FFA469;fill:color(display-p3 1.0000 0.6431 0.4118);fill-opacity:1;"/>
<path d="M15 17.5737C14.6583 17.5737 14.375 17.2904 14.375 16.9487V14.457C14.375 14.1154 14.6583 13.832 15 13.832C15.3417 13.832 15.625 14.1154 15.625 14.457V16.9487C15.625 17.2987 15.3417 17.5737 15 17.5737Z" fill="#FFA469" style="fill:#FFA469;fill:color(display-p3 1.0000 0.6431 0.4118);fill-opacity:1;"/>
</svg>
