<svg width="20" height="21" viewBox="0 0 20 21" fill="none" xmlns="http://www.w3.org/2000/svg">
<path d="M10 12.151C9.65833 12.151 9.375 11.8677 9.375 11.526V7.35938C9.375 7.01771 9.65833 6.73438 10 6.73438C10.3417 6.73438 10.625 7.01771 10.625 7.35938V11.526C10.625 11.8677 10.3417 12.151 10 12.151Z" fill="#FFA469" style="fill:#FFA469;fill:color(display-p3 1.0000 0.6431 0.4118);fill-opacity:1;"/>
<path d="M9.9987 19.6497C5.63203 19.6497 2.08203 16.0997 2.08203 11.7331C2.08203 7.36641 5.63203 3.81641 9.9987 3.81641C14.3654 3.81641 17.9154 7.36641 17.9154 11.7331C17.9154 12.0747 17.632 12.3581 17.2904 12.3581C16.9487 12.3581 16.6654 12.0747 16.6654 11.7331C16.6654 8.05807 13.6737 5.06641 9.9987 5.06641C6.3237 5.06641 3.33203 8.05807 3.33203 11.7331C3.33203 15.4081 6.3237 18.3997 9.9987 18.3997C10.3404 18.3997 10.6237 18.6831 10.6237 19.0247C10.6237 19.3664 10.3404 19.6497 9.9987 19.6497Z" fill="#FFA469" style="fill:#FFA469;fill:color(display-p3 1.0000 0.6431 0.4118);fill-opacity:1;"/>
<path d="M12.5 2.98438H7.5C7.15833 2.98438 6.875 2.70104 6.875 2.35938C6.875 2.01771 7.15833 1.73438 7.5 1.73438H12.5C12.8417 1.73438 13.125 2.01771 13.125 2.35938C13.125 2.70104 12.8417 2.98438 12.5 2.98438Z" fill="#FFA469" style="fill:#FFA469;fill:color(display-p3 1.0000 0.6431 0.4118);fill-opacity:1;"/>
<path d="M13.4557 19.0408C13.1641 19.0408 12.8974 18.9741 12.6557 18.8324C12.1057 18.5158 11.7891 17.8741 11.7891 17.0741V15.1491C11.7891 14.3491 12.1057 13.7074 12.6557 13.3908C13.2057 13.0741 13.9141 13.1241 14.6057 13.5158L16.2724 14.4824C16.9641 14.8824 17.3641 15.4741 17.3641 16.1074C17.3641 16.7408 16.9641 17.3324 16.2724 17.7324L14.6057 18.6991C14.2224 18.9241 13.8307 19.0408 13.4557 19.0408ZM13.4641 14.4241C13.3974 14.4241 13.3307 14.4408 13.2807 14.4658C13.1307 14.5491 13.0391 14.8074 13.0391 15.1408V17.0658C13.0391 17.3991 13.1307 17.6574 13.2807 17.7408C13.4307 17.8241 13.6974 17.7824 13.9807 17.6158L15.6474 16.6491C15.9391 16.4824 16.1141 16.2741 16.1141 16.1074C16.1141 15.9408 15.9391 15.7324 15.6474 15.5658L13.9807 14.5991C13.7891 14.4824 13.6057 14.4241 13.4641 14.4241Z" fill="#FFA469" style="fill:#FFA469;fill:color(display-p3 1.0000 0.6431 0.4118);fill-opacity:1;"/>
</svg>
