<svg width="100" height="54" viewBox="0 0 100 54" fill="none" xmlns="http://www.w3.org/2000/svg">
<rect width="100" height="54" rx="20" fill="#393A3F" style="fill:#393A3F;fill:color(display-p3 0.2235 0.2275 0.2471);fill-opacity:1;"/>
<path fill-rule="evenodd" clip-rule="evenodd" d="M18.0032 11.2123C18.9209 11.7732 20.0656 11.7585 21.0416 11.3066C21.3121 11.1814 21.5853 11.0638 21.8608 10.9539C22.8605 10.5554 23.6581 9.73318 23.881 8.68037V8.68037C24.1608 7.35891 25.3182 6.40727 26.6688 6.38825L28.767 6.3587C30.1175 6.33967 31.3012 7.25817 31.6182 8.57106V8.57106C31.8708 9.61718 32.6914 10.4165 33.7019 10.7867C33.9805 10.8887 34.257 10.9985 34.5309 11.1161C35.5193 11.5402 36.6639 11.5227 37.5655 10.9362V10.9362C38.6975 10.1998 40.1886 10.3453 41.1568 11.2868L42.6623 12.7505C43.6303 13.6916 43.8177 15.1775 43.1137 16.3296V16.3296C42.5529 17.2472 42.5677 18.3917 43.0194 19.3677C43.1447 19.6383 43.2623 19.9117 43.3722 20.1874C43.7706 21.1872 44.5928 21.9849 45.6457 22.2078V22.2078C46.9671 22.4876 47.9187 23.6449 47.9377 24.9954L47.9674 27.0932C47.9865 28.4439 47.0678 29.6279 45.7547 29.945V29.945C44.7087 30.1977 43.9094 31.0182 43.5392 32.0286C43.4372 32.307 43.3274 32.5833 43.2099 32.857C42.7857 33.8456 42.8031 34.9904 43.3897 35.8922V35.8922C44.126 37.0241 43.9805 38.5149 43.0393 39.4831L41.5757 40.9887C40.6346 41.9568 39.1486 42.1443 37.9965 41.4403V41.4403C37.0787 40.8794 35.9339 40.8943 34.9578 41.3461C34.6872 41.4713 34.414 41.5888 34.1384 41.6986C33.1387 42.097 32.3411 42.9191 32.1182 43.9719V43.9719C31.8384 45.2934 30.6809 46.2451 29.3303 46.2641L27.2325 46.2936C25.8818 46.3127 24.6979 45.394 24.3809 44.0809V44.0809C24.1283 43.0348 23.3079 42.2355 22.2974 41.8653C22.0188 41.7633 21.7425 41.6536 21.4686 41.536C20.4802 41.1119 19.3355 41.1294 18.434 41.716V41.716C17.3021 42.4523 15.8112 42.3068 14.843 41.3656L13.3375 39.9019C12.3693 38.9608 12.1819 37.4747 12.886 36.3226V36.3226C13.4468 35.4049 13.432 34.2603 12.9802 33.2844C12.8549 33.0138 12.7374 32.7405 12.6275 32.4648C12.229 31.465 11.4069 30.6672 10.3539 30.4442V30.4442C9.03263 30.1645 8.0811 29.0072 8.06208 27.6567L8.03253 25.5589C8.01351 24.2081 8.93214 23.0242 10.2453 22.707V22.707C11.2914 22.4544 12.0907 21.634 12.4609 20.6235C12.5628 20.345 12.6726 20.0687 12.79 19.7949C13.2141 18.8065 13.1965 17.6618 12.61 16.7602V16.7602C11.8736 15.6282 12.0191 14.1371 12.9604 13.1687L14.4235 11.6637C15.3647 10.6954 16.851 10.508 18.0032 11.2123V11.2123Z" fill="#E8505B" style="fill:#E8505B;fill:color(display-p3 0.9098 0.3137 0.3569);fill-opacity:1;"/>
<path fill-rule="evenodd" clip-rule="evenodd" d="M18.0032 11.2123C18.9209 11.7732 20.0656 11.7585 21.0416 11.3066C21.3121 11.1814 21.5853 11.0638 21.8608 10.9539C22.8605 10.5554 23.6581 9.73318 23.881 8.68037V8.68037C24.1608 7.35891 25.3182 6.40727 26.6688 6.38825L28.767 6.3587C30.1175 6.33967 31.3012 7.25817 31.6182 8.57106V8.57106C31.8708 9.61718 32.6914 10.4165 33.7019 10.7867C33.9805 10.8887 34.257 10.9985 34.5309 11.1161C35.5193 11.5402 36.6639 11.5227 37.5655 10.9362V10.9362C38.6975 10.1998 40.1886 10.3453 41.1568 11.2868L42.6623 12.7505C43.6303 13.6916 43.8177 15.1775 43.1137 16.3296V16.3296C42.5529 17.2472 42.5677 18.3917 43.0194 19.3677C43.1447 19.6383 43.2623 19.9117 43.3722 20.1874C43.7706 21.1872 44.5928 21.9849 45.6457 22.2078V22.2078C46.9671 22.4876 47.9187 23.6449 47.9377 24.9954L47.9674 27.0932C47.9865 28.4439 47.0678 29.6279 45.7547 29.945V29.945C44.7087 30.1977 43.9094 31.0182 43.5392 32.0286C43.4372 32.307 43.3274 32.5833 43.2099 32.857C42.7857 33.8456 42.8031 34.9904 43.3897 35.8922V35.8922C44.126 37.0241 43.9805 38.5149 43.0393 39.4831L41.5757 40.9887C40.6346 41.9568 39.1486 42.1443 37.9965 41.4403V41.4403C37.0787 40.8794 35.9339 40.8943 34.9578 41.3461C34.6872 41.4713 34.414 41.5888 34.1384 41.6986C33.1387 42.097 32.3411 42.9191 32.1182 43.9719V43.9719C31.8384 45.2934 30.6809 46.2451 29.3303 46.2641L27.2325 46.2936C25.8818 46.3127 24.6979 45.394 24.3809 44.0809V44.0809C24.1283 43.0348 23.3079 42.2355 22.2974 41.8653C22.0188 41.7633 21.7425 41.6536 21.4686 41.536C20.4802 41.1119 19.3355 41.1294 18.434 41.716V41.716C17.3021 42.4523 15.8112 42.3068 14.843 41.3656L13.3375 39.9019C12.3693 38.9608 12.1819 37.4747 12.886 36.3226V36.3226C13.4468 35.4049 13.432 34.2603 12.9802 33.2844C12.8549 33.0138 12.7374 32.7405 12.6275 32.4648C12.229 31.465 11.4069 30.6672 10.3539 30.4442V30.4442C9.03263 30.1645 8.0811 29.0072 8.06208 27.6567L8.03253 25.5589C8.01351 24.2081 8.93214 23.0242 10.2453 22.707V22.707C11.2914 22.4544 12.0907 21.634 12.4609 20.6235C12.5628 20.345 12.6726 20.0687 12.79 19.7949C13.2141 18.8065 13.1965 17.6618 12.61 16.7602V16.7602C11.8736 15.6282 12.0191 14.1371 12.9604 13.1687L14.4235 11.6637C15.3647 10.6954 16.851 10.508 18.0032 11.2123V11.2123Z" fill="url(#paint0_linear_2818_7174)" style=""/>
<path d="M34.0638 19.8262C32.4511 18.219 30.3008 17.3262 28.031 17.3262C23.3122 17.3262 19.4894 21.1357 19.4894 25.8381C19.4894 27.3262 19.9075 28.8143 20.6243 30.0643L19.4297 34.469L23.9693 33.2786C25.2236 33.9333 26.5974 34.2905 28.031 34.2905C32.7497 34.2905 36.5725 30.4809 36.5725 25.7786C36.5128 23.5762 35.6766 21.4333 34.0638 19.8262ZM32.1524 28.8738C31.9732 29.35 31.137 29.8262 30.7189 29.8857C30.3605 29.9452 29.8826 29.9452 29.4048 29.8262C29.1061 29.7071 28.688 29.5881 28.2102 29.35C26.0599 28.4571 24.686 26.3143 24.5666 26.1357C24.4471 26.0166 23.6706 25.0047 23.6706 23.9333C23.6706 22.8619 24.2082 22.3857 24.3874 22.1476C24.5666 21.9095 24.8055 21.9095 24.9847 21.9095C25.1042 21.9095 25.2833 21.9095 25.4028 21.9095C25.5223 21.9095 25.7015 21.85 25.8807 22.2666C26.0599 22.6833 26.478 23.7547 26.5377 23.8143C26.5974 23.9333 26.5974 24.0524 26.5377 24.1714C26.478 24.2905 26.4182 24.4095 26.2988 24.5286C26.1793 24.6476 26.0598 24.8262 26.0001 24.8857C25.8807 25.0047 25.7612 25.1238 25.8807 25.3024C26.0001 25.5405 26.4182 26.1952 27.0753 26.7905C27.9115 27.5047 28.5686 27.7428 28.8075 27.8619C29.0464 27.9809 29.1659 27.9214 29.2853 27.8024C29.4048 27.6833 29.8229 27.2071 29.9424 26.969C30.0618 26.7309 30.241 26.7905 30.4202 26.85C30.5994 26.9095 31.6746 27.4452 31.8538 27.5643C32.0927 27.6833 32.2122 27.7428 32.2719 27.8024C32.3316 27.9809 32.3316 28.3976 32.1524 28.8738Z" fill="#46474E" style="fill:#46474E;fill:color(display-p3 0.2745 0.2784 0.3059);fill-opacity:1;"/>
<path d="M59.4902 15.0213C59.6911 14.8199 59.897 14.6245 60.1075 14.4352C61.0607 13.5781 61.6549 12.2925 61.458 10.9379C61.3141 9.94792 61.8749 8.99027 62.8086 8.63129L64.7673 7.87829C65.7009 7.51934 66.7587 7.85462 67.3151 8.68585C68.0765 9.82345 69.379 10.3798 70.6608 10.3774C70.944 10.3769 71.2278 10.3841 71.5119 10.399C72.791 10.4661 74.1193 9.9773 74.9376 8.88082C75.5357 8.07931 76.6091 7.79877 77.523 8.2051L79.4416 9.05822C80.3551 9.4644 80.8656 10.4489 80.6713 11.4296C80.4054 12.7715 80.9324 14.085 81.839 14.9896C82.0405 15.1907 82.2359 15.3967 82.4253 15.6074C83.2823 16.5608 84.568 17.1551 85.9228 16.9582C86.9126 16.8144 87.8702 17.375 88.2292 18.3087L88.9821 20.2669C89.3412 21.2007 89.0059 22.2588 88.1745 22.8154C87.037 23.5768 86.4806 24.8791 86.4829 26.1609C86.4834 26.4439 86.4763 26.7275 86.4614 27.0114C86.3942 28.2907 86.8829 29.6193 87.9795 30.4377C88.7809 31.0358 89.0615 32.109 88.6553 33.0227L87.8023 34.9414C87.3962 35.8549 86.4116 36.3656 85.4309 36.1713C84.0887 35.9054 82.7751 36.4326 81.8703 37.3392C81.6694 37.5405 81.4635 37.7359 81.2528 37.9252C80.2994 38.7821 79.7053 40.0677 79.9022 41.4224C80.046 42.4124 79.4853 43.37 78.5515 43.729L76.5932 44.4819C75.6594 44.8409 74.6015 44.5055 74.045 43.6741C73.2835 42.5366 71.9812 41.9802 70.6994 41.9825C70.4162 41.983 70.1325 41.9759 69.8485 41.961C68.5693 41.8939 67.241 42.3827 66.4228 43.4792C65.8247 44.2806 64.7515 44.5612 63.8378 44.155L61.9191 43.3019C61.0055 42.8958 60.4949 41.9112 60.6892 40.9304C60.9551 39.5884 60.4281 38.2749 59.5215 37.3702C59.32 37.1692 59.1246 36.9632 58.9352 36.7526C58.0783 35.7992 56.7926 35.2048 55.4378 35.4017C54.448 35.5455 53.4905 34.9848 53.1315 34.0512L52.3787 32.093C52.0196 31.1591 52.355 30.101 53.1864 29.5444C54.3239 28.7829 54.8803 27.4807 54.878 26.1988C54.8774 25.9157 54.8846 25.6321 54.8994 25.3481C54.9664 24.069 54.4776 22.7407 53.3811 21.9225C52.5795 21.3243 52.2989 20.2508 52.7052 19.3369L53.5578 17.419C53.964 16.5052 54.9488 15.9945 55.9297 16.189C57.2718 16.455 58.5855 15.9281 59.4902 15.0213Z" fill="#46474E" style="fill:#46474E;fill:color(display-p3 0.2745 0.2784 0.3059);fill-opacity:1;"/>
<path d="M59.4902 15.0213C59.6911 14.8199 59.897 14.6245 60.1075 14.4352C61.0607 13.5781 61.6549 12.2925 61.458 10.9379C61.3141 9.94792 61.8749 8.99027 62.8086 8.63129L64.7673 7.87829C65.7009 7.51934 66.7587 7.85462 67.3151 8.68585C68.0765 9.82345 69.379 10.3798 70.6608 10.3774C70.944 10.3769 71.2278 10.3841 71.5119 10.399C72.791 10.4661 74.1193 9.9773 74.9376 8.88082C75.5357 8.07931 76.6091 7.79877 77.523 8.2051L79.4416 9.05822C80.3551 9.4644 80.8656 10.4489 80.6713 11.4296C80.4054 12.7715 80.9324 14.085 81.839 14.9896C82.0405 15.1907 82.2359 15.3967 82.4253 15.6074C83.2823 16.5608 84.568 17.1551 85.9228 16.9582C86.9126 16.8144 87.8702 17.375 88.2292 18.3087L88.9821 20.2669C89.3412 21.2007 89.0059 22.2588 88.1745 22.8154C87.037 23.5768 86.4806 24.8791 86.4829 26.1609C86.4834 26.4439 86.4763 26.7275 86.4614 27.0114C86.3942 28.2907 86.8829 29.6193 87.9795 30.4377C88.7809 31.0358 89.0615 32.109 88.6553 33.0227L87.8023 34.9414C87.3962 35.8549 86.4116 36.3656 85.4309 36.1713C84.0887 35.9054 82.7751 36.4326 81.8703 37.3392C81.6694 37.5405 81.4635 37.7359 81.2528 37.9252C80.2994 38.7821 79.7053 40.0677 79.9022 41.4224C80.046 42.4124 79.4853 43.37 78.5515 43.729L76.5932 44.4819C75.6594 44.8409 74.6015 44.5055 74.045 43.6741C73.2835 42.5366 71.9812 41.9802 70.6994 41.9825C70.4162 41.983 70.1325 41.9759 69.8485 41.961C68.5693 41.8939 67.241 42.3827 66.4228 43.4792C65.8247 44.2806 64.7515 44.5612 63.8378 44.155L61.9191 43.3019C61.0055 42.8958 60.4949 41.9112 60.6892 40.9304C60.9551 39.5884 60.4281 38.2749 59.5215 37.3702C59.32 37.1692 59.1246 36.9632 58.9352 36.7526C58.0783 35.7992 56.7926 35.2048 55.4378 35.4017C54.448 35.5455 53.4905 34.9848 53.1315 34.0512L52.3787 32.093C52.0196 31.1591 52.355 30.101 53.1864 29.5444C54.3239 28.7829 54.8803 27.4807 54.878 26.1988C54.8774 25.9157 54.8846 25.6321 54.8994 25.3481C54.9664 24.069 54.4776 22.7407 53.3811 21.9225C52.5795 21.3243 52.2989 20.2508 52.7052 19.3369L53.5578 17.419C53.964 16.5052 54.9488 15.9945 55.9297 16.189C57.2718 16.455 58.5855 15.9281 59.4902 15.0213Z" stroke="black" style="stroke:black;stroke-opacity:1;" stroke-width="1.5"/>
<path d="M59.4902 15.0213C59.6911 14.8199 59.897 14.6245 60.1075 14.4352C61.0607 13.5781 61.6549 12.2925 61.458 10.9379C61.3141 9.94792 61.8749 8.99027 62.8086 8.63129L64.7673 7.87829C65.7009 7.51934 66.7587 7.85462 67.3151 8.68585C68.0765 9.82345 69.379 10.3798 70.6608 10.3774C70.944 10.3769 71.2278 10.3841 71.5119 10.399C72.791 10.4661 74.1193 9.9773 74.9376 8.88082C75.5357 8.07931 76.6091 7.79877 77.523 8.2051L79.4416 9.05822C80.3551 9.4644 80.8656 10.4489 80.6713 11.4296C80.4054 12.7715 80.9324 14.085 81.839 14.9896C82.0405 15.1907 82.2359 15.3967 82.4253 15.6074C83.2823 16.5608 84.568 17.1551 85.9228 16.9582C86.9126 16.8144 87.8702 17.375 88.2292 18.3087L88.9821 20.2669C89.3412 21.2007 89.0059 22.2588 88.1745 22.8154C87.037 23.5768 86.4806 24.8791 86.4829 26.1609C86.4834 26.4439 86.4763 26.7275 86.4614 27.0114C86.3942 28.2907 86.8829 29.6193 87.9795 30.4377C88.7809 31.0358 89.0615 32.109 88.6553 33.0227L87.8023 34.9414C87.3962 35.8549 86.4116 36.3656 85.4309 36.1713C84.0887 35.9054 82.7751 36.4326 81.8703 37.3392C81.6694 37.5405 81.4635 37.7359 81.2528 37.9252C80.2994 38.7821 79.7053 40.0677 79.9022 41.4224C80.046 42.4124 79.4853 43.37 78.5515 43.729L76.5932 44.4819C75.6594 44.8409 74.6015 44.5055 74.045 43.6741C73.2835 42.5366 71.9812 41.9802 70.6994 41.9825C70.4162 41.983 70.1325 41.9759 69.8485 41.961C68.5693 41.8939 67.241 42.3827 66.4228 43.4792C65.8247 44.2806 64.7515 44.5612 63.8378 44.155L61.9191 43.3019C61.0055 42.8958 60.4949 41.9112 60.6892 40.9304C60.9551 39.5884 60.4281 38.2749 59.5215 37.3702C59.32 37.1692 59.1246 36.9632 58.9352 36.7526C58.0783 35.7992 56.7926 35.2048 55.4378 35.4017C54.448 35.5455 53.4905 34.9848 53.1315 34.0512L52.3787 32.093C52.0196 31.1591 52.355 30.101 53.1864 29.5444C54.3239 28.7829 54.8803 27.4807 54.878 26.1988C54.8774 25.9157 54.8846 25.6321 54.8994 25.3481C54.9664 24.069 54.4776 22.7407 53.3811 21.9225C52.5795 21.3243 52.2989 20.2508 52.7052 19.3369L53.5578 17.419C53.964 16.5052 54.9488 15.9945 55.9297 16.189C57.2718 16.455 58.5855 15.9281 59.4902 15.0213Z" stroke="url(#paint1_linear_2818_7174)" style="" stroke-width="1.5"/>
<path d="M61.6858 22.4511H66.8634V24.0741H63.5031V25.3428H65.1033C65.9186 25.3428 66.5586 25.5638 67.0234 26.0057C67.4959 26.4401 67.7321 27.0459 67.7321 27.8231C67.7321 28.1126 67.6864 28.406 67.5949 28.7032C67.5035 29.0003 67.3549 29.2708 67.1492 29.5147C66.9434 29.7509 66.6767 29.9452 66.3491 30.0976C66.0291 30.25 65.6366 30.3262 65.1718 30.3262H61.6858V22.4511ZM63.5031 28.7032H64.8975C65.2252 28.7032 65.4842 28.6193 65.6747 28.4517C65.8729 28.2764 65.9719 28.0669 65.9719 27.8231C65.9719 27.5792 65.8767 27.3735 65.6862 27.2059C65.4957 27.0306 65.2328 26.943 64.8975 26.943H63.5031V28.7032ZM73.7027 24.657C73.7027 24.9237 73.6531 25.1752 73.5541 25.4114C73.455 25.64 73.3293 25.8534 73.1769 26.0515C73.0245 26.242 72.8569 26.421 72.674 26.5887C72.4911 26.7563 72.3159 26.9087 72.1482 27.0459C72.0187 27.1525 71.8587 27.2744 71.6682 27.4116C71.4853 27.5411 71.3024 27.6821 71.1196 27.8345C70.9443 27.9793 70.7843 28.1355 70.6395 28.3031C70.5024 28.4708 70.4147 28.6422 70.3766 28.8175H73.657V30.3262H68.6279V29.2289C68.6279 28.9013 68.6736 28.6003 68.765 28.326C68.8565 28.044 68.9746 27.785 69.1194 27.5488C69.2718 27.3125 69.447 27.0954 69.6451 26.8973C69.8432 26.6992 70.0452 26.5201 70.2509 26.3601C70.4566 26.2001 70.6586 26.0515 70.8567 25.9143C71.0624 25.7772 71.2453 25.64 71.4053 25.5028C71.5653 25.3657 71.691 25.2285 71.7825 25.0914C71.8815 24.9542 71.9311 24.8094 71.9311 24.657C71.9311 24.4742 71.8587 24.318 71.7139 24.1884C71.5691 24.0589 71.3367 23.9941 71.0167 23.9941C70.7805 23.9941 70.5328 24.036 70.2738 24.1199C70.0223 24.2037 69.7861 24.3446 69.5651 24.5427L68.685 23.1826C68.9974 22.9083 69.3708 22.7064 69.8051 22.5768C70.2395 22.4397 70.689 22.3711 71.1538 22.3711C71.4586 22.3711 71.7634 22.4092 72.0682 22.4854C72.373 22.554 72.6435 22.6797 72.8797 22.8626C73.1236 23.0378 73.3217 23.2741 73.4741 23.5712C73.6265 23.8608 73.7027 24.2227 73.7027 24.657ZM79.6096 29.2289V30.3262H77.9066V29.2289H74.6834V27.8916L77.1636 22.4511H78.9581L76.5579 27.7316H77.9066V25.5371H79.6096V27.7316H80.2382V29.2289H79.6096Z" fill="white" style="fill:white;fill-opacity:1;"/>
<defs>
<linearGradient id="paint0_linear_2818_7174" x1="3.40107" y1="21.6204" x2="9.96895" y2="37.6985" gradientUnits="userSpaceOnUse">
<stop stop-color="#FFD66B" style="stop-color:#FFD66B;stop-color:color(display-p3 1.0000 0.8378 0.4208);stop-opacity:1;"/>
<stop offset="1" stop-color="#FFA469" style="stop-color:#FFA469;stop-color:color(display-p3 1.0000 0.6431 0.4118);stop-opacity:1;"/>
</linearGradient>
<linearGradient id="paint1_linear_2818_7174" x1="90.7368" y1="12.8651" x2="79.0161" y2="0.048362" gradientUnits="userSpaceOnUse">
<stop stop-color="#FFD66B" style="stop-color:#FFD66B;stop-color:color(display-p3 1.0000 0.8378 0.4208);stop-opacity:1;"/>
<stop offset="1" stop-color="#FFA469" style="stop-color:#FFA469;stop-color:color(display-p3 1.0000 0.6431 0.4118);stop-opacity:1;"/>
</linearGradient>
</defs>
</svg>
