<svg width="573" height="555" viewBox="0 0 573 555" fill="none" xmlns="http://www.w3.org/2000/svg">
<path d="M320.154 38.7668L316.063 12.5011C315.252 7.29468 311.142 3.19861 305.905 2.61991C296.187 1.54613 286.31 1 276.304 1C268.153 1 260.073 1.3731 252.097 2.08807C246.752 2.5671 242.51 6.70466 241.686 12.0067L235.528 51.5935C234.755 56.5637 230.955 60.4918 226.067 61.678C206.241 66.4889 187.522 74.097 170.305 84.0331C166.047 86.4903 160.726 86.3323 156.757 83.432L123.695 59.2737C119.44 56.1646 113.636 56.1741 109.522 59.4665C95.4781 70.7029 82.5912 83.3343 71.0687 97.1469C67.6367 101.261 67.5674 107.176 70.7277 111.503L94.3838 143.887C97.351 147.949 97.4409 153.414 94.8214 157.708C84.4705 174.678 76.4554 193.232 71.179 212.915C69.9057 217.665 66.0312 221.319 61.172 222.075L20.6969 228.378C15.4902 229.189 11.3939 233.298 10.8152 238.536C9.74143 248.254 9.19531 258.131 9.19531 268.136C9.19531 276.287 9.56833 284.358 10.2832 292.33C10.7624 297.675 14.9 301.917 20.202 302.741L59.7888 308.899C64.7591 309.672 68.6871 313.472 69.8734 318.36C74.6843 338.185 82.294 356.903 92.2465 374.12C94.7085 378.379 94.5533 383.704 91.6515 387.676L67.4946 420.746C64.3865 425.001 64.3963 430.804 67.6883 434.918C78.9253 448.962 91.5574 461.849 105.371 473.364C109.485 476.793 115.397 476.861 119.722 473.702L152.101 450.053C156.161 447.088 161.621 446.996 165.914 449.612C182.902 459.964 201.452 467.973 221.129 473.248C225.876 474.521 229.529 478.393 230.287 483.249L236.611 523.735C237.424 528.939 241.532 533.033 246.768 533.611C256.486 534.685 266.362 535.231 276.359 535.231C284.51 535.231 292.59 534.858 300.566 534.143C305.911 533.664 310.153 529.527 310.978 524.225L317.135 484.638C317.908 479.668 321.708 475.74 326.596 474.554C346.422 469.743 365.141 462.134 382.358 452.198C386.616 449.741 391.937 449.899 395.906 452.799L428.969 476.958C433.224 480.067 439.027 480.057 443.142 476.765C457.186 465.528 470.073 452.896 481.596 439.083C485.027 434.97 485.097 429.055 481.938 424.729L458.285 392.336C455.322 388.278 455.23 382.82 457.844 378.529C468.19 361.543 476.206 343 481.484 323.317C482.757 318.567 486.632 314.913 491.491 314.156L531.966 307.854C537.173 307.043 541.269 302.933 541.848 297.696C542.922 287.978 543.468 278.104 543.468 268.109C543.468 259.958 543.095 251.878 542.38 243.901C541.901 238.557 537.763 234.315 532.461 233.49L492.889 227.335C487.911 226.561 483.979 222.752 482.779 217.86C482.764 217.797 482.748 217.734 482.733 217.671M479.118 204.687C474.435 189.721 468.125 175.464 460.416 162.126C457.955 157.867 458.11 152.541 461.012 148.569L485.169 115.499C488.277 111.244 488.267 105.442 484.975 101.327C473.738 87.2831 461.106 74.3966 447.292 62.8813C443.179 59.4521 437.266 59.3841 432.941 62.5429L400.562 86.1922C396.503 89.1575 391.042 89.249 386.749 86.6324C369.762 76.2789 351.213 68.2619 331.538 62.9845C326.789 61.7106 323.135 57.8365 322.379 52.978L321.914 49.9918M128.674 345.47C116.535 322.352 109.675 296.042 109.675 268.123C109.675 176.113 184.281 101.507 276.304 101.507C368.328 101.507 442.934 176.113 442.934 268.123C442.934 360.132 368.328 434.752 276.304 434.752C217.26 434.752 165.391 404.037 135.794 357.718" stroke="#585960" style="stroke:#585960;stroke:color(display-p3 0.3451 0.3490 0.3765);stroke-opacity:1;" stroke-width="0.755423" stroke-linecap="round" stroke-linejoin="round"/>
<path d="M253.322 223.516C255.911 222.19 258.57 221.048 261.281 220.09C263.949 219.146 266.056 216.958 266.649 214.157L267.894 208.275C268.549 205.179 271.261 202.95 274.426 202.905L289.615 202.691C292.779 202.646 295.553 204.799 296.296 207.875L297.707 213.718C298.379 216.502 300.547 218.629 303.241 219.497C305.977 220.378 308.668 221.445 311.294 222.697C313.847 223.915 316.883 223.857 319.282 222.296L324.318 219.02C326.971 217.295 330.465 217.636 332.734 219.842L343.626 230.431C345.895 232.637 346.334 236.12 344.684 238.82L341.553 243.943C340.06 246.386 340.088 249.422 341.377 251.941C342.703 254.53 343.845 257.19 344.803 259.901C345.746 262.569 347.934 264.677 350.736 265.27L356.617 266.515C359.713 267.171 361.943 269.883 361.987 273.047L362.202 288.236C362.247 291.4 360.095 294.173 357.019 294.916L351.173 296.328C348.39 297 346.263 299.168 345.395 301.861C344.514 304.597 343.447 307.287 342.195 309.912C340.977 312.466 341.035 315.503 342.596 317.902L345.871 322.938C347.597 325.59 347.256 329.084 345.05 331.354L334.462 342.245C332.256 344.514 328.773 344.954 326.072 343.304L320.948 340.173C318.506 338.68 315.468 338.708 312.95 339.997C310.361 341.322 307.701 342.464 304.99 343.422C302.322 344.365 300.215 346.553 299.622 349.354L298.377 355.236C297.721 358.332 295.01 360.562 291.845 360.606L276.656 360.82C273.492 360.865 270.718 358.713 269.975 355.637L268.564 349.791C267.892 347.008 265.725 344.881 263.031 344.013C260.295 343.132 257.604 342.065 254.978 340.813C252.425 339.596 249.389 339.654 246.989 341.215L241.955 344.49C239.302 346.216 235.808 345.875 233.538 343.669L222.647 333.08C220.378 330.874 219.938 327.391 221.589 324.691L224.72 319.567C226.213 317.124 226.185 314.088 224.895 311.57C223.57 308.98 222.428 306.321 221.47 303.61C220.527 300.941 218.339 298.833 215.537 298.24L209.656 296.995C206.56 296.34 204.33 293.628 204.286 290.463L204.072 275.275C204.027 272.11 206.179 269.337 209.255 268.594L215.102 267.182C217.884 266.51 220.012 264.343 220.879 261.65C221.761 258.913 222.827 256.222 224.079 253.597C225.296 251.044 225.238 248.008 223.677 245.609L220.401 240.572C218.675 237.92 219.016 234.426 221.222 232.157L231.809 221.266C234.016 218.996 237.499 218.557 240.2 220.207L245.324 223.34C247.767 224.833 250.803 224.805 253.322 223.516Z" fill="#393A3F" style="fill:#393A3F;fill:color(display-p3 0.2235 0.2275 0.2471);fill-opacity:1;"/>
<path d="M253.322 223.516C255.911 222.19 258.57 221.048 261.281 220.09C263.949 219.146 266.056 216.958 266.649 214.157L267.894 208.275C268.549 205.179 271.261 202.95 274.426 202.905L289.615 202.691C292.779 202.646 295.553 204.799 296.296 207.875L297.707 213.718C298.379 216.502 300.547 218.629 303.241 219.497C305.977 220.378 308.668 221.445 311.294 222.697C313.847 223.915 316.883 223.857 319.282 222.296L324.318 219.02C326.971 217.295 330.465 217.636 332.734 219.842L343.626 230.431C345.895 232.637 346.334 236.12 344.684 238.82L341.553 243.943C340.06 246.386 340.088 249.422 341.377 251.941C342.703 254.53 343.845 257.19 344.803 259.901C345.746 262.569 347.934 264.677 350.736 265.27L356.617 266.515C359.713 267.171 361.943 269.883 361.987 273.047L362.202 288.236C362.247 291.4 360.095 294.173 357.019 294.916L351.173 296.328C348.39 297 346.263 299.168 345.395 301.861C344.514 304.597 343.447 307.287 342.195 309.912C340.977 312.466 341.035 315.503 342.596 317.902L345.871 322.938C347.597 325.59 347.256 329.084 345.05 331.354L334.462 342.245C332.256 344.514 328.773 344.954 326.072 343.304L320.948 340.173C318.506 338.68 315.468 338.708 312.95 339.997C310.361 341.322 307.701 342.464 304.99 343.422C302.322 344.365 300.215 346.553 299.622 349.354L298.377 355.236C297.721 358.332 295.01 360.562 291.845 360.606L276.656 360.82C273.492 360.865 270.718 358.713 269.975 355.637L268.564 349.791C267.892 347.008 265.725 344.881 263.031 344.013C260.295 343.132 257.604 342.065 254.978 340.813C252.425 339.596 249.389 339.654 246.989 341.215L241.955 344.49C239.302 346.216 235.808 345.875 233.538 343.669L222.647 333.08C220.378 330.874 219.938 327.391 221.589 324.691L224.72 319.567C226.213 317.124 226.185 314.088 224.895 311.57C223.57 308.98 222.428 306.321 221.47 303.61C220.527 300.941 218.339 298.833 215.537 298.24L209.656 296.995C206.56 296.34 204.33 293.628 204.286 290.463L204.072 275.275C204.027 272.11 206.179 269.337 209.255 268.594L215.102 267.182C217.884 266.51 220.012 264.343 220.879 261.65C221.761 258.913 222.827 256.222 224.079 253.597C225.296 251.044 225.238 248.008 223.677 245.609L220.401 240.572C218.675 237.92 219.016 234.426 221.222 232.157L231.809 221.266C234.016 218.996 237.499 218.557 240.2 220.207L245.324 223.34C247.767 224.833 250.803 224.805 253.322 223.516Z" stroke="url(#paint0_linear_2818_5346)" style="" stroke-width="0.903234"/>
<path d="M253.322 223.516C255.911 222.19 258.57 221.048 261.281 220.09C263.949 219.146 266.056 216.958 266.649 214.157L267.894 208.275C268.549 205.179 271.261 202.95 274.426 202.905L289.615 202.691C292.779 202.646 295.553 204.799 296.296 207.875L297.707 213.718C298.379 216.502 300.547 218.629 303.241 219.497C305.977 220.378 308.668 221.445 311.294 222.697C313.847 223.915 316.883 223.857 319.282 222.296L324.318 219.02C326.971 217.295 330.465 217.636 332.734 219.842L343.626 230.431C345.895 232.637 346.334 236.12 344.684 238.82L341.553 243.943C340.06 246.386 340.088 249.422 341.377 251.941C342.703 254.53 343.845 257.19 344.803 259.901C345.746 262.569 347.934 264.677 350.736 265.27L356.617 266.515C359.713 267.171 361.943 269.883 361.987 273.047L362.202 288.236C362.247 291.4 360.095 294.173 357.019 294.916L351.173 296.328C348.39 297 346.263 299.168 345.395 301.861C344.514 304.597 343.447 307.287 342.195 309.912C340.977 312.466 341.035 315.503 342.596 317.902L345.871 322.938C347.597 325.59 347.256 329.084 345.05 331.354L334.462 342.245C332.256 344.514 328.773 344.954 326.072 343.304L320.948 340.173C318.506 338.68 315.468 338.708 312.95 339.997C310.361 341.322 307.701 342.464 304.99 343.422C302.322 344.365 300.215 346.553 299.622 349.354L298.377 355.236C297.721 358.332 295.01 360.562 291.845 360.606L276.656 360.82C273.492 360.865 270.718 358.713 269.975 355.637L268.564 349.791C267.892 347.008 265.725 344.881 263.031 344.013C260.295 343.132 257.604 342.065 254.978 340.813C252.425 339.596 249.389 339.654 246.989 341.215L241.955 344.49C239.302 346.216 235.808 345.875 233.538 343.669L222.647 333.08C220.378 330.874 219.938 327.391 221.589 324.691L224.72 319.567C226.213 317.124 226.185 314.088 224.895 311.57C223.57 308.98 222.428 306.321 221.47 303.61C220.527 300.941 218.339 298.833 215.537 298.24L209.656 296.995C206.56 296.34 204.33 293.628 204.286 290.463L204.072 275.275C204.027 272.11 206.179 269.337 209.255 268.594L215.102 267.182C217.884 266.51 220.012 264.343 220.879 261.65C221.761 258.913 222.827 256.222 224.079 253.597C225.296 251.044 225.238 248.008 223.677 245.609L220.401 240.572C218.675 237.92 219.016 234.426 221.222 232.157L231.809 221.266C234.016 218.996 237.499 218.557 240.2 220.207L245.324 223.34C247.767 224.833 250.803 224.805 253.322 223.516Z" stroke="#FFA469" style="stroke:#FFA469;stroke:color(display-p3 1.0000 0.6431 0.4118);stroke-opacity:1;" stroke-width="0.903234"/>
<path d="M248.153 261.759V257.063H249.283C250.293 257.063 251.125 257.182 251.72 257.538C252.314 257.895 252.671 258.49 252.671 259.441C252.671 261.046 251.72 261.759 249.461 261.759H248.153ZM245.419 264.018H249.402C253.86 264.018 255.465 262.056 255.465 259.322C255.465 257.479 254.692 256.231 253.325 255.517C252.255 254.923 250.888 254.745 249.223 254.745H248.153V251.178H254.157L254.87 248.979H245.359V264.018H245.419ZM257.308 264.018H259.923L263.312 259.143C263.965 258.252 264.441 257.36 264.738 256.885H264.798C264.738 257.538 264.679 258.371 264.679 259.203V263.958H267.354V253.259H264.738L261.35 258.133C260.755 259.025 260.22 259.916 259.923 260.392H259.864C259.923 259.738 259.983 258.906 259.983 258.073V253.318H257.308V264.018ZM271.931 264.018H274.665V255.517H277.875L278.589 253.259H268.662V255.517H271.931V264.018ZM279.54 269.427H282.215V264.018C282.75 264.196 283.285 264.256 283.879 264.256C287.268 264.256 289.467 261.937 289.467 258.608C289.467 255.161 287.446 252.961 283.582 252.961C282.096 252.961 280.669 253.259 279.48 253.615V269.427H279.54ZM282.215 261.7V255.398C282.631 255.28 282.988 255.22 283.463 255.22C285.425 255.22 286.673 256.29 286.673 258.608C286.673 260.689 285.663 261.997 283.641 261.997C283.106 261.997 282.69 261.878 282.215 261.7ZM291.072 264.018H293.688L297.076 259.143C297.73 258.252 298.205 257.36 298.503 256.885H298.562C298.503 257.538 298.443 258.371 298.443 259.203V263.958H301.118V253.259H298.503L295.114 258.133C294.52 259.025 293.985 259.916 293.688 260.392H293.628C293.688 259.738 293.747 258.906 293.747 258.073V253.318H291.072V264.018ZM303.258 264.018H305.992V259.56H307.597C307.895 259.56 308.192 259.857 308.549 260.57L309.916 264.018H312.829L310.867 259.916C310.51 259.203 310.154 258.787 309.619 258.608V258.549C310.51 258.014 310.629 256.468 311.164 255.696C311.342 255.458 311.58 255.339 311.937 255.339C312.115 255.339 312.353 255.339 312.531 255.458V253.14C312.234 253.021 311.699 252.961 311.402 252.961C310.451 252.961 309.856 253.318 309.44 253.912C308.549 255.22 308.549 257.479 307.241 257.479H305.992V253.259H303.258V264.018ZM318.892 264.256C320.378 264.256 321.745 263.78 322.577 263.186L321.805 261.343C321.032 261.759 320.319 262.056 319.308 262.056C317.465 262.056 316.276 260.867 316.276 258.668C316.276 256.706 317.465 255.161 319.486 255.161C320.556 255.161 321.329 255.458 322.102 255.993V253.675C321.507 253.318 320.556 252.961 319.189 252.961C315.979 252.961 313.482 255.339 313.482 258.727C313.482 261.818 315.385 264.256 318.892 264.256Z" fill="#46474E" style="fill:#46474E;fill:color(display-p3 0.2745 0.2784 0.3059);fill-opacity:1;"/>
<path d="M241.039 314.1H268.324V308.054H250.341C252.821 298.132 268.014 295.962 268.014 284.955C268.014 279.063 263.983 274.723 255.457 274.723C250.186 274.723 245.535 276.273 242.434 277.823L244.295 283.404C247.085 282.009 250.341 280.769 254.372 280.769C257.472 280.769 260.418 282.164 260.418 285.73C260.418 293.791 242.589 294.411 241.039 314.1ZM269.099 304.488H286.618V314.1H293.594V304.488H299.485V298.597H293.594V274.723H288.478L269.099 299.837V304.488ZM277.006 298.907L286.928 285.575C286.928 286.66 286.618 290.071 286.618 293.171V298.752H281.967C280.572 298.752 277.936 298.907 277.006 298.907Z" fill="#46474E" style="fill:#46474E;fill:color(display-p3 0.2745 0.2784 0.3059);fill-opacity:1;"/>
<path d="M322.571 304.486C330.168 304.486 336.369 298.285 336.369 290.688C336.369 283.092 330.168 276.891 322.571 276.891C314.975 276.891 308.773 283.092 308.773 290.688C308.928 298.285 314.975 304.486 322.571 304.486Z" stroke="#46474E" style="stroke:#46474E;stroke:color(display-p3 0.2745 0.2784 0.3059);stroke-opacity:1;" stroke-width="1.16054"/>
<path d="M331.268 290.688H323.672V283.092H321.656V292.704H331.268V290.688Z" fill="#46474E" style="fill:#46474E;fill:color(display-p3 0.2745 0.2784 0.3059);fill-opacity:1;"/>
<path d="M339.135 352.688C340.07 352.177 341.019 351.701 341.981 351.261C344.543 350.09 346.528 347.803 346.958 344.97L347.095 344.067C347.569 340.938 350.147 338.555 353.304 338.327L360.042 337.839C363.198 337.611 366.092 339.598 367.012 342.626L367.278 343.5C368.111 346.242 370.404 348.219 373.108 349.009C374.124 349.306 375.132 349.64 376.13 350.011C378.77 350.993 381.789 350.779 384.095 349.08L384.829 348.54C387.377 346.663 390.885 346.8 393.278 348.871L398.387 353.291C400.78 355.362 401.421 358.813 399.931 361.605L399.503 362.406C398.153 364.933 398.376 367.952 399.727 370.423C400.238 371.357 400.713 372.307 401.153 373.269C402.324 375.832 404.611 377.817 407.445 378.247L408.347 378.384C411.476 378.858 413.86 381.436 414.088 384.593L414.575 391.33C414.804 394.486 412.817 397.38 409.789 398.301L408.913 398.567C406.172 399.4 404.195 401.693 403.405 404.396C403.108 405.412 402.774 406.419 402.403 407.417C401.421 410.057 401.635 413.077 403.334 415.384L403.874 416.117C405.751 418.665 405.614 422.173 403.543 424.566L399.124 429.675C397.053 432.068 393.602 432.709 390.81 431.219L390.008 430.791C387.481 429.441 384.461 429.664 381.99 431.015C381.056 431.526 380.106 432.001 379.144 432.441C376.582 433.612 374.597 435.899 374.168 438.731L374.031 439.635C373.556 442.764 370.978 445.147 367.821 445.375L361.083 445.863C357.927 446.091 355.033 444.103 354.113 441.076L353.847 440.2C353.014 437.459 350.721 435.482 348.018 434.692C347.002 434.395 345.994 434.061 344.996 433.69C342.356 432.709 339.337 432.923 337.03 434.622L336.298 435.161C333.75 437.038 330.241 436.901 327.848 434.83L322.739 430.411C320.346 428.34 319.705 424.889 321.196 422.097L321.624 421.295C322.973 418.768 322.75 415.749 321.399 413.278C320.888 412.344 320.413 411.395 319.973 410.432C318.802 407.87 316.515 405.884 313.682 405.454L312.779 405.317C309.65 404.843 307.267 402.265 307.039 399.108L306.552 392.371C306.323 389.215 308.311 386.321 311.338 385.401L312.215 385.134C314.955 384.301 316.933 382.009 317.722 379.305C318.019 378.289 318.353 377.281 318.724 376.283C319.705 373.644 319.491 370.625 317.793 368.319L317.252 367.584C315.375 365.036 315.512 361.529 317.583 359.135L322.002 354.027C324.072 351.633 327.524 350.992 330.316 352.483L331.119 352.912C333.645 354.261 336.665 354.039 339.135 352.688Z" fill="#393A3F" style="fill:#393A3F;fill:color(display-p3 0.2235 0.2275 0.2471);fill-opacity:1;"/>
<path d="M339.135 352.688C340.07 352.177 341.019 351.701 341.981 351.261C344.543 350.09 346.528 347.803 346.958 344.97L347.095 344.067C347.569 340.938 350.147 338.555 353.304 338.327L360.042 337.839C363.198 337.611 366.092 339.598 367.012 342.626L367.278 343.5C368.111 346.242 370.404 348.219 373.108 349.009C374.124 349.306 375.132 349.64 376.13 350.011C378.77 350.993 381.789 350.779 384.095 349.08L384.829 348.54C387.377 346.663 390.885 346.8 393.278 348.871L398.387 353.291C400.78 355.362 401.421 358.813 399.931 361.605L399.503 362.406C398.153 364.933 398.376 367.952 399.727 370.423C400.238 371.357 400.713 372.307 401.153 373.269C402.324 375.832 404.611 377.817 407.445 378.247L408.347 378.384C411.476 378.858 413.86 381.436 414.088 384.593L414.575 391.33C414.804 394.486 412.817 397.38 409.789 398.301L408.913 398.567C406.172 399.4 404.195 401.693 403.405 404.396C403.108 405.412 402.774 406.419 402.403 407.417C401.421 410.057 401.635 413.077 403.334 415.384L403.874 416.117C405.751 418.665 405.614 422.173 403.543 424.566L399.124 429.675C397.053 432.068 393.602 432.709 390.81 431.219L390.008 430.791C387.481 429.441 384.461 429.664 381.99 431.015C381.056 431.526 380.106 432.001 379.144 432.441C376.582 433.612 374.597 435.899 374.168 438.731L374.031 439.635C373.556 442.764 370.978 445.147 367.821 445.375L361.083 445.863C357.927 446.091 355.033 444.103 354.113 441.076L353.847 440.2C353.014 437.459 350.721 435.482 348.018 434.692C347.002 434.395 345.994 434.061 344.996 433.69C342.356 432.709 339.337 432.923 337.03 434.622L336.298 435.161C333.75 437.038 330.241 436.901 327.848 434.83L322.739 430.411C320.346 428.34 319.705 424.889 321.196 422.097L321.624 421.295C322.973 418.768 322.75 415.749 321.399 413.278C320.888 412.344 320.413 411.395 319.973 410.432C318.802 407.87 316.515 405.884 313.682 405.454L312.779 405.317C309.65 404.843 307.267 402.265 307.039 399.108L306.552 392.371C306.323 389.215 308.311 386.321 311.338 385.401L312.215 385.134C314.955 384.301 316.933 382.009 317.722 379.305C318.019 378.289 318.353 377.281 318.724 376.283C319.705 373.644 319.491 370.625 317.793 368.319L317.252 367.584C315.375 365.036 315.512 361.529 317.583 359.135L322.002 354.027C324.072 351.633 327.524 350.992 330.316 352.483L331.119 352.912C333.645 354.261 336.665 354.039 339.135 352.688Z" stroke="url(#paint1_linear_2818_5346)" style="" stroke-width="0.903234"/>
<path d="M339.135 352.688C340.07 352.177 341.019 351.701 341.981 351.261C344.543 350.09 346.528 347.803 346.958 344.97L347.095 344.067C347.569 340.938 350.147 338.555 353.304 338.327L360.042 337.839C363.198 337.611 366.092 339.598 367.012 342.626L367.278 343.5C368.111 346.242 370.404 348.219 373.108 349.009C374.124 349.306 375.132 349.64 376.13 350.011C378.77 350.993 381.789 350.779 384.095 349.08L384.829 348.54C387.377 346.663 390.885 346.8 393.278 348.871L398.387 353.291C400.78 355.362 401.421 358.813 399.931 361.605L399.503 362.406C398.153 364.933 398.376 367.952 399.727 370.423C400.238 371.357 400.713 372.307 401.153 373.269C402.324 375.832 404.611 377.817 407.445 378.247L408.347 378.384C411.476 378.858 413.86 381.436 414.088 384.593L414.575 391.33C414.804 394.486 412.817 397.38 409.789 398.301L408.913 398.567C406.172 399.4 404.195 401.693 403.405 404.396C403.108 405.412 402.774 406.419 402.403 407.417C401.421 410.057 401.635 413.077 403.334 415.384L403.874 416.117C405.751 418.665 405.614 422.173 403.543 424.566L399.124 429.675C397.053 432.068 393.602 432.709 390.81 431.219L390.008 430.791C387.481 429.441 384.461 429.664 381.99 431.015C381.056 431.526 380.106 432.001 379.144 432.441C376.582 433.612 374.597 435.899 374.168 438.731L374.031 439.635C373.556 442.764 370.978 445.147 367.821 445.375L361.083 445.863C357.927 446.091 355.033 444.103 354.113 441.076L353.847 440.2C353.014 437.459 350.721 435.482 348.018 434.692C347.002 434.395 345.994 434.061 344.996 433.69C342.356 432.709 339.337 432.923 337.03 434.622L336.298 435.161C333.75 437.038 330.241 436.901 327.848 434.83L322.739 430.411C320.346 428.34 319.705 424.889 321.196 422.097L321.624 421.295C322.973 418.768 322.75 415.749 321.399 413.278C320.888 412.344 320.413 411.395 319.973 410.432C318.802 407.87 316.515 405.884 313.682 405.454L312.779 405.317C309.65 404.843 307.267 402.265 307.039 399.108L306.552 392.371C306.323 389.215 308.311 386.321 311.338 385.401L312.215 385.134C314.955 384.301 316.933 382.009 317.722 379.305C318.019 378.289 318.353 377.281 318.724 376.283C319.705 373.644 319.491 370.625 317.793 368.319L317.252 367.584C315.375 365.036 315.512 361.529 317.583 359.135L322.002 354.027C324.072 351.633 327.524 350.992 330.316 352.483L331.119 352.912C333.645 354.261 336.665 354.039 339.135 352.688Z" stroke="#FFA469" style="stroke:#FFA469;stroke:color(display-p3 1.0000 0.6431 0.4118);stroke-opacity:1;" stroke-width="0.903234"/>
<path d="M369.183 408.526C367.379 408.526 365.48 408.114 363.516 407.321C361.601 406.543 359.669 405.475 357.786 404.179C355.918 402.867 354.115 401.403 352.407 399.801C350.715 398.169 349.182 396.446 347.826 394.676C346.453 392.846 345.351 391.016 344.569 389.246C343.739 387.355 343.324 385.525 343.324 383.801C343.324 382.611 343.548 381.483 343.979 380.43C344.426 379.347 345.144 378.341 346.118 377.471C347.347 376.312 348.751 375.732 350.252 375.732C350.874 375.732 351.513 375.87 352.056 376.114C352.678 376.388 353.205 376.8 353.588 377.349L357.291 382.337C357.626 382.779 357.882 383.206 358.057 383.633C358.265 384.091 358.377 384.549 358.377 384.991C358.377 385.57 358.201 386.135 357.866 386.669C357.626 387.08 357.259 387.523 356.796 387.965L355.711 389.048C355.727 389.094 355.743 389.124 355.759 389.155C355.95 389.475 356.333 390.024 357.068 390.848C357.85 391.702 358.584 392.48 359.318 393.197C360.26 394.081 361.042 394.783 361.776 395.363C362.686 396.095 363.277 396.461 363.628 396.629L363.596 396.705L364.761 395.607C365.256 395.134 365.735 394.783 366.198 394.554C367.076 394.036 368.193 393.944 369.311 394.387C369.726 394.554 370.173 394.783 370.651 395.103L375.951 398.703C376.542 399.084 376.972 399.572 377.228 400.152C377.467 400.732 377.579 401.266 377.579 401.799C377.579 402.531 377.403 403.264 377.068 403.95C376.733 404.636 376.318 405.231 375.791 405.78C374.881 406.741 373.892 407.428 372.743 407.87C371.641 408.297 370.444 408.526 369.183 408.526ZM350.252 378.02C349.374 378.02 348.56 378.386 347.778 379.119C347.043 379.774 346.533 380.491 346.213 381.269C345.878 382.062 345.719 382.901 345.719 383.801C345.719 385.22 346.07 386.76 346.772 388.346C347.49 389.963 348.496 391.641 349.773 393.319C351.05 394.997 352.502 396.629 354.099 398.169C355.695 399.679 357.419 401.082 359.191 402.318C360.915 403.523 362.686 404.499 364.442 405.201C367.172 406.314 369.726 406.573 371.833 405.735C372.647 405.414 373.365 404.926 374.019 404.225C374.387 403.843 374.674 403.431 374.913 402.943C375.105 402.562 375.201 402.165 375.201 401.769C375.201 401.525 375.153 401.281 375.025 401.006C374.977 400.915 374.881 400.747 374.578 400.549L369.279 396.949C368.959 396.735 368.672 396.583 368.401 396.476C368.05 396.339 367.906 396.202 367.363 396.522C367.044 396.674 366.757 396.903 366.437 397.208L365.224 398.352C364.602 398.932 363.644 399.069 362.91 398.81L362.479 398.627C361.824 398.291 361.058 397.773 360.212 397.086C359.446 396.461 358.616 395.729 357.61 394.783C356.828 394.02 356.046 393.212 355.232 392.312C354.482 391.473 353.939 390.756 353.604 390.162L353.412 389.704C353.317 389.353 353.285 389.155 353.285 388.941C353.285 388.392 353.492 387.904 353.891 387.523L355.088 386.333C355.408 386.028 355.647 385.738 355.807 385.479C355.934 385.281 355.982 385.113 355.982 384.96C355.982 384.838 355.934 384.655 355.855 384.472C355.743 384.228 355.567 383.954 355.344 383.664L351.641 378.661C351.481 378.447 351.289 378.295 351.05 378.188C350.795 378.081 350.523 378.02 350.252 378.02ZM363.596 396.72L363.341 397.757L363.772 396.69C363.692 396.674 363.628 396.69 363.596 396.72Z" fill="#46474E" style="fill:#46474E;fill:color(display-p3 0.2745 0.2784 0.3059);fill-opacity:1;"/>
<path d="M435.932 333.348C436.446 333.073 436.965 332.813 437.49 332.567C439.534 331.611 441.134 329.778 441.481 327.495C441.85 325.057 443.859 323.2 446.319 323.023L450.466 322.723C452.926 322.545 455.18 324.093 455.897 326.452C456.569 328.662 458.416 330.245 460.576 330.897C461.131 331.064 461.683 331.247 462.231 331.446C464.352 332.213 466.777 332.048 468.636 330.679C470.621 329.217 473.353 329.325 475.218 330.938L478.365 333.66C480.229 335.273 480.728 337.961 479.567 340.135C478.48 342.17 478.666 344.595 479.73 346.582C480.005 347.096 480.266 347.616 480.511 348.142C481.467 350.186 483.3 351.786 485.583 352.133C488.021 352.502 489.878 354.511 490.056 356.97L490.356 361.117C490.534 363.576 488.985 365.832 486.626 366.549C484.417 367.22 482.833 369.067 482.181 371.228C482.014 371.782 481.831 372.334 481.633 372.881C480.865 375.002 481.03 377.429 482.399 379.287C483.861 381.272 483.754 384.004 482.141 385.868L479.419 389.015C477.806 390.88 475.118 391.379 472.944 390.218C470.908 389.131 468.483 389.317 466.495 390.381C465.981 390.656 465.462 390.917 464.936 391.162C462.892 392.118 461.292 393.951 460.946 396.234C460.576 398.672 458.567 400.529 456.108 400.707L451.961 401.007C449.501 401.184 447.246 399.636 446.529 397.276C445.858 395.067 444.011 393.483 441.85 392.832C441.295 392.664 440.744 392.481 440.196 392.283C438.076 391.516 435.65 391.681 433.792 393.049C431.807 394.511 429.074 394.404 427.21 392.791L424.063 390.069C422.199 388.456 421.7 385.768 422.861 383.594C423.948 381.558 423.762 379.134 422.697 377.146C422.422 376.632 422.162 376.112 421.916 375.587C420.96 373.543 419.127 371.942 416.844 371.596C414.406 371.226 412.55 369.218 412.372 366.759L412.072 362.612C411.894 360.152 413.443 357.897 415.802 357.18C418.011 356.508 419.595 354.661 420.247 352.501C420.414 351.946 420.597 351.394 420.795 350.847C421.562 348.726 421.397 346.3 420.029 344.442C418.567 342.457 418.674 339.724 420.287 337.86L423.008 334.714C424.621 332.849 427.31 332.35 429.484 333.512C431.52 334.599 433.944 334.413 435.932 333.348Z" fill="#393A3F" style="fill:#393A3F;fill:color(display-p3 0.2235 0.2275 0.2471);fill-opacity:1;"/>
<path d="M435.932 333.348C436.446 333.073 436.965 332.813 437.49 332.567C439.534 331.611 441.134 329.778 441.481 327.495C441.85 325.057 443.859 323.2 446.319 323.023L450.466 322.723C452.926 322.545 455.18 324.093 455.897 326.452C456.569 328.662 458.416 330.245 460.576 330.897C461.131 331.064 461.683 331.247 462.231 331.446C464.352 332.213 466.777 332.048 468.636 330.679C470.621 329.217 473.353 329.325 475.218 330.938L478.365 333.66C480.229 335.273 480.728 337.961 479.567 340.135C478.48 342.17 478.666 344.595 479.73 346.582C480.005 347.096 480.266 347.616 480.511 348.142C481.467 350.186 483.3 351.786 485.583 352.133C488.021 352.502 489.878 354.511 490.056 356.97L490.356 361.117C490.534 363.576 488.985 365.832 486.626 366.549C484.417 367.22 482.833 369.067 482.181 371.228C482.014 371.782 481.831 372.334 481.633 372.881C480.865 375.002 481.03 377.429 482.399 379.287C483.861 381.272 483.754 384.004 482.141 385.868L479.419 389.015C477.806 390.88 475.118 391.379 472.944 390.218C470.908 389.131 468.483 389.317 466.495 390.381C465.981 390.656 465.462 390.917 464.936 391.162C462.892 392.118 461.292 393.951 460.946 396.234C460.576 398.672 458.567 400.529 456.108 400.707L451.961 401.007C449.501 401.184 447.246 399.636 446.529 397.276C445.858 395.067 444.011 393.483 441.85 392.832C441.295 392.664 440.744 392.481 440.196 392.283C438.076 391.516 435.65 391.681 433.792 393.049C431.807 394.511 429.074 394.404 427.21 392.791L424.063 390.069C422.199 388.456 421.7 385.768 422.861 383.594C423.948 381.558 423.762 379.134 422.697 377.146C422.422 376.632 422.162 376.112 421.916 375.587C420.96 373.543 419.127 371.942 416.844 371.596C414.406 371.226 412.55 369.218 412.372 366.759L412.072 362.612C411.894 360.152 413.443 357.897 415.802 357.18C418.011 356.508 419.595 354.661 420.247 352.501C420.414 351.946 420.597 351.394 420.795 350.847C421.562 348.726 421.397 346.3 420.029 344.442C418.567 342.457 418.674 339.724 420.287 337.86L423.008 334.714C424.621 332.849 427.31 332.35 429.484 333.512C431.52 334.599 433.944 334.413 435.932 333.348Z" stroke="url(#paint2_linear_2818_5346)" style="" stroke-width="0.903234"/>
<path d="M435.932 333.348C436.446 333.073 436.965 332.813 437.49 332.567C439.534 331.611 441.134 329.778 441.481 327.495C441.85 325.057 443.859 323.2 446.319 323.023L450.466 322.723C452.926 322.545 455.18 324.093 455.897 326.452C456.569 328.662 458.416 330.245 460.576 330.897C461.131 331.064 461.683 331.247 462.231 331.446C464.352 332.213 466.777 332.048 468.636 330.679C470.621 329.217 473.353 329.325 475.218 330.938L478.365 333.66C480.229 335.273 480.728 337.961 479.567 340.135C478.48 342.17 478.666 344.595 479.73 346.582C480.005 347.096 480.266 347.616 480.511 348.142C481.467 350.186 483.3 351.786 485.583 352.133C488.021 352.502 489.878 354.511 490.056 356.97L490.356 361.117C490.534 363.576 488.985 365.832 486.626 366.549C484.417 367.22 482.833 369.067 482.181 371.228C482.014 371.782 481.831 372.334 481.633 372.881C480.865 375.002 481.03 377.429 482.399 379.287C483.861 381.272 483.754 384.004 482.141 385.868L479.419 389.015C477.806 390.88 475.118 391.379 472.944 390.218C470.908 389.131 468.483 389.317 466.495 390.381C465.981 390.656 465.462 390.917 464.936 391.162C462.892 392.118 461.292 393.951 460.946 396.234C460.576 398.672 458.567 400.529 456.108 400.707L451.961 401.007C449.501 401.184 447.246 399.636 446.529 397.276C445.858 395.067 444.011 393.483 441.85 392.832C441.295 392.664 440.744 392.481 440.196 392.283C438.076 391.516 435.65 391.681 433.792 393.049C431.807 394.511 429.074 394.404 427.21 392.791L424.063 390.069C422.199 388.456 421.7 385.768 422.861 383.594C423.948 381.558 423.762 379.134 422.697 377.146C422.422 376.632 422.162 376.112 421.916 375.587C420.96 373.543 419.127 371.942 416.844 371.596C414.406 371.226 412.55 369.218 412.372 366.759L412.072 362.612C411.894 360.152 413.443 357.897 415.802 357.18C418.011 356.508 419.595 354.661 420.247 352.501C420.414 351.946 420.597 351.394 420.795 350.847C421.562 348.726 421.397 346.3 420.029 344.442C418.567 342.457 418.674 339.724 420.287 337.86L423.008 334.714C424.621 332.849 427.31 332.35 429.484 333.512C431.52 334.599 433.944 334.413 435.932 333.348Z" stroke="#FFA469" style="stroke:#FFA469;stroke:color(display-p3 1.0000 0.6431 0.4118);stroke-opacity:1;" stroke-width="0.903234"/>
<path d="M458.553 372.759C458.157 372.759 457.761 372.662 457.403 372.457L452.283 369.587C451.746 369.575 451.21 369.539 450.699 369.466C450.354 369.418 450.061 369.201 449.933 368.887C449.805 368.574 449.869 368.236 450.099 367.983C450.942 367.054 451.376 365.945 451.376 364.763C451.376 361.844 448.656 359.468 445.31 359.468C444.059 359.468 442.859 359.794 441.85 360.421C441.569 360.59 441.224 360.614 440.918 360.481C440.624 360.349 440.407 360.083 440.369 359.77C440.33 359.432 440.305 359.094 440.305 358.745C440.305 352.763 445.796 347.902 452.538 347.902C459.281 347.902 464.772 352.763 464.772 358.745C464.772 362.025 463.163 365.04 460.328 367.102L460.762 370.383C460.864 371.203 460.481 371.975 459.753 372.421C459.395 372.638 458.974 372.759 458.553 372.759ZM452.525 367.766C452.704 367.754 452.883 367.802 453.036 367.898L458.387 370.901C458.527 370.986 458.642 370.95 458.719 370.901C458.782 370.865 458.885 370.769 458.859 370.6L458.361 366.789C458.323 366.451 458.476 366.125 458.757 365.933C461.362 364.208 462.856 361.579 462.856 358.72C462.856 353.739 458.233 349.687 452.538 349.687C447.06 349.687 442.565 353.45 442.233 358.178C443.191 357.828 444.225 357.635 445.298 357.635C449.703 357.635 453.279 360.819 453.279 364.738C453.292 365.8 453.023 366.825 452.525 367.766Z" fill="#46474E" style="fill:#46474E;fill:color(display-p3 0.2745 0.2784 0.3059);fill-opacity:1;"/>
<path d="M441.583 373.819C441.251 373.819 440.932 373.735 440.638 373.554C440.064 373.204 439.757 372.601 439.834 371.962L440.089 370.105C438.365 368.778 437.344 366.812 437.344 364.75C437.344 362.398 438.646 360.203 440.83 358.889C442.145 358.081 443.703 357.646 445.325 357.646C449.73 357.646 453.306 360.83 453.306 364.75C453.306 366.342 452.693 367.91 451.569 369.152C450.126 370.804 447.968 371.769 445.593 371.841L442.477 373.59C442.196 373.747 441.89 373.819 441.583 373.819ZM445.312 359.456C444.061 359.456 442.86 359.781 441.851 360.408C440.217 361.397 439.246 363.013 439.246 364.75C439.246 366.426 440.115 367.958 441.647 368.947C441.941 369.14 442.094 369.466 442.056 369.803L441.775 371.866L444.827 370.153C444.98 370.069 445.146 370.02 445.312 370.02C447.189 370.02 448.964 369.261 450.088 367.97C450.931 367.029 451.378 365.92 451.378 364.738C451.378 361.831 448.658 359.456 445.312 359.456Z" fill="#46474E" style="fill:#46474E;fill:color(display-p3 0.2745 0.2784 0.3059);fill-opacity:1;"/>
<path d="M372.19 168.615C373.124 168.104 374.073 167.629 375.036 167.189C377.598 166.018 379.583 163.731 380.012 160.898L380.149 159.995C380.624 156.866 383.202 154.483 386.358 154.254L393.097 153.767C396.253 153.539 399.147 155.526 400.067 158.554L400.332 159.428C401.165 162.169 403.459 164.147 406.163 164.937C407.179 165.234 408.187 165.568 409.185 165.939C411.824 166.92 414.844 166.706 417.15 165.008L417.883 164.467C420.432 162.59 423.94 162.728 426.333 164.799L431.442 169.219C433.835 171.289 434.476 174.741 432.985 177.532L432.557 178.334C431.208 180.861 431.431 183.88 432.782 186.351C433.293 187.285 433.768 188.235 434.208 189.197C435.379 191.76 437.666 193.745 440.499 194.175L441.402 194.311C444.531 194.786 446.914 197.364 447.143 200.52L447.63 207.258C447.859 210.414 445.871 213.308 442.844 214.228L441.968 214.495C439.227 215.328 437.25 217.62 436.46 220.324C436.163 221.339 435.829 222.347 435.458 223.345C434.476 225.985 434.69 229.005 436.389 231.311L436.929 232.045C438.806 234.593 438.668 238.1 436.598 240.494L432.179 245.603C430.108 247.996 426.656 248.637 423.865 247.146L423.063 246.718C420.536 245.369 417.516 245.592 415.045 246.943C414.111 247.454 413.161 247.929 412.199 248.369C409.636 249.539 407.652 251.826 407.222 254.659L407.085 255.563C406.611 258.692 404.033 261.075 400.876 261.303L394.138 261.79C390.982 262.019 388.088 260.031 387.168 257.003L386.902 256.128C386.069 253.387 383.776 251.409 381.072 250.62C380.057 250.323 379.049 249.989 378.051 249.618C375.411 248.636 372.391 248.851 370.085 250.549L369.352 251.089C366.804 252.966 363.296 252.829 360.903 250.758L355.794 246.339C353.401 244.268 352.76 240.816 354.25 238.025L354.678 237.223C356.028 234.696 355.805 231.677 354.454 229.206C353.943 228.272 353.468 227.323 353.028 226.36C351.857 223.797 349.57 221.812 346.736 221.382L345.834 221.245C342.705 220.771 340.322 218.193 340.093 215.036L339.606 208.298C339.378 205.142 341.365 202.249 344.393 201.328L345.269 201.062C348.01 200.229 349.987 197.936 350.777 195.233C351.074 194.217 351.408 193.209 351.779 192.211C352.76 189.572 352.546 186.552 350.847 184.247L350.306 183.512C348.43 180.964 348.567 177.456 350.637 175.063L355.056 169.955C357.127 167.561 360.579 166.92 363.371 168.411L364.173 168.84C366.7 170.189 369.719 169.967 372.19 168.615Z" fill="#393A3F" style="fill:#393A3F;fill:color(display-p3 0.2235 0.2275 0.2471);fill-opacity:1;"/>
<path d="M372.19 168.615C373.124 168.104 374.073 167.629 375.036 167.189C377.598 166.018 379.583 163.731 380.012 160.898L380.149 159.995C380.624 156.866 383.202 154.483 386.358 154.254L393.097 153.767C396.253 153.539 399.147 155.526 400.067 158.554L400.332 159.428C401.165 162.169 403.459 164.147 406.163 164.937C407.179 165.234 408.187 165.568 409.185 165.939C411.824 166.92 414.844 166.706 417.15 165.008L417.883 164.467C420.432 162.59 423.94 162.728 426.333 164.799L431.442 169.219C433.835 171.289 434.476 174.741 432.985 177.532L432.557 178.334C431.208 180.861 431.431 183.88 432.782 186.351C433.293 187.285 433.768 188.235 434.208 189.197C435.379 191.76 437.666 193.745 440.499 194.175L441.402 194.311C444.531 194.786 446.914 197.364 447.143 200.52L447.63 207.258C447.859 210.414 445.871 213.308 442.844 214.228L441.968 214.495C439.227 215.328 437.25 217.62 436.46 220.324C436.163 221.339 435.829 222.347 435.458 223.345C434.476 225.985 434.69 229.005 436.389 231.311L436.929 232.045C438.806 234.593 438.668 238.1 436.598 240.494L432.179 245.603C430.108 247.996 426.656 248.637 423.865 247.146L423.063 246.718C420.536 245.369 417.516 245.592 415.045 246.943C414.111 247.454 413.161 247.929 412.199 248.369C409.636 249.539 407.652 251.826 407.222 254.659L407.085 255.563C406.611 258.692 404.033 261.075 400.876 261.303L394.138 261.79C390.982 262.019 388.088 260.031 387.168 257.003L386.902 256.128C386.069 253.387 383.776 251.409 381.072 250.62C380.057 250.323 379.049 249.989 378.051 249.618C375.411 248.636 372.391 248.851 370.085 250.549L369.352 251.089C366.804 252.966 363.296 252.829 360.903 250.758L355.794 246.339C353.401 244.268 352.76 240.816 354.25 238.025L354.678 237.223C356.028 234.696 355.805 231.677 354.454 229.206C353.943 228.272 353.468 227.323 353.028 226.36C351.857 223.797 349.57 221.812 346.736 221.382L345.834 221.245C342.705 220.771 340.322 218.193 340.093 215.036L339.606 208.298C339.378 205.142 341.365 202.249 344.393 201.328L345.269 201.062C348.01 200.229 349.987 197.936 350.777 195.233C351.074 194.217 351.408 193.209 351.779 192.211C352.76 189.572 352.546 186.552 350.847 184.247L350.306 183.512C348.43 180.964 348.567 177.456 350.637 175.063L355.056 169.955C357.127 167.561 360.579 166.92 363.371 168.411L364.173 168.84C366.7 170.189 369.719 169.967 372.19 168.615Z" stroke="url(#paint3_linear_2818_5346)" style="" stroke-width="0.903234"/>
<path d="M372.19 168.615C373.124 168.104 374.073 167.629 375.036 167.189C377.598 166.018 379.583 163.731 380.012 160.898L380.149 159.995C380.624 156.866 383.202 154.483 386.358 154.254L393.097 153.767C396.253 153.539 399.147 155.526 400.067 158.554L400.332 159.428C401.165 162.169 403.459 164.147 406.163 164.937C407.179 165.234 408.187 165.568 409.185 165.939C411.824 166.92 414.844 166.706 417.15 165.008L417.883 164.467C420.432 162.59 423.94 162.728 426.333 164.799L431.442 169.219C433.835 171.289 434.476 174.741 432.985 177.532L432.557 178.334C431.208 180.861 431.431 183.88 432.782 186.351C433.293 187.285 433.768 188.235 434.208 189.197C435.379 191.76 437.666 193.745 440.499 194.175L441.402 194.311C444.531 194.786 446.914 197.364 447.143 200.52L447.63 207.258C447.859 210.414 445.871 213.308 442.844 214.228L441.968 214.495C439.227 215.328 437.25 217.62 436.46 220.324C436.163 221.339 435.829 222.347 435.458 223.345C434.476 225.985 434.69 229.005 436.389 231.311L436.929 232.045C438.806 234.593 438.668 238.1 436.598 240.494L432.179 245.603C430.108 247.996 426.656 248.637 423.865 247.146L423.063 246.718C420.536 245.369 417.516 245.592 415.045 246.943C414.111 247.454 413.161 247.929 412.199 248.369C409.636 249.539 407.652 251.826 407.222 254.659L407.085 255.563C406.611 258.692 404.033 261.075 400.876 261.303L394.138 261.79C390.982 262.019 388.088 260.031 387.168 257.003L386.902 256.128C386.069 253.387 383.776 251.409 381.072 250.62C380.057 250.323 379.049 249.989 378.051 249.618C375.411 248.636 372.391 248.851 370.085 250.549L369.352 251.089C366.804 252.966 363.296 252.829 360.903 250.758L355.794 246.339C353.401 244.268 352.76 240.816 354.25 238.025L354.678 237.223C356.028 234.696 355.805 231.677 354.454 229.206C353.943 228.272 353.468 227.323 353.028 226.36C351.857 223.797 349.57 221.812 346.736 221.382L345.834 221.245C342.705 220.771 340.322 218.193 340.093 215.036L339.606 208.298C339.378 205.142 341.365 202.249 344.393 201.328L345.269 201.062C348.01 200.229 349.987 197.936 350.777 195.233C351.074 194.217 351.408 193.209 351.779 192.211C352.76 189.572 352.546 186.552 350.847 184.247L350.306 183.512C348.43 180.964 348.567 177.456 350.637 175.063L355.056 169.955C357.127 167.561 360.579 166.92 363.371 168.411L364.173 168.84C366.7 170.189 369.719 169.967 372.19 168.615Z" stroke="#FFA469" style="stroke:#FFA469;stroke:color(display-p3 1.0000 0.6431 0.4118);stroke-opacity:1;" stroke-width="0.903234"/>
<g clip-path="url(#clip0_2818_5346)">
<mask id="mask0_2818_5346" style="mask-type:luminance" maskUnits="userSpaceOnUse" x="136" y="137" width="521" height="497">
<path d="M136.055 633.004H656.908V137.161H136.055V633.004Z" fill="white" style="fill:white;fill-opacity:1;"/>
</mask>
<g mask="url(#mask0_2818_5346)">
<path d="M395.754 218.327C394.691 218.259 393.466 218.082 392.499 217.816C392.318 217.766 391.568 217.503 391.377 217.42C388.011 215.936 385.666 212.695 385.666 208.936C385.666 203.78 390.072 199.58 395.492 199.58C400.548 199.58 404.722 203.237 405.258 207.918C405.314 208.409 405.712 208.806 406.205 208.806H407.952C408.455 208.806 408.864 208.394 408.821 207.894C408.261 201.359 402.498 196.205 395.492 196.205C388.119 196.205 382.117 201.915 382.117 208.936C382.117 213.776 384.976 217.986 389.163 220.137C389.919 220.518 391.004 220.91 391.373 221.017C392.566 221.356 394.031 221.581 395.334 221.675C395.777 221.706 397.323 221.723 397.774 221.725H421.316C421.815 221.725 422.219 221.32 422.219 220.821V219.262C422.219 218.763 421.815 218.359 421.316 218.359H397.815C397.49 218.359 396.072 218.347 395.754 218.327ZM397.815 213.042C397.557 213.042 396.207 213.033 395.957 213.013C395.535 212.979 394.922 212.919 394.529 212.834C394.084 212.72 393.667 212.57 393.479 212.472C392.16 211.793 391.261 210.465 391.261 208.936C391.261 206.711 393.154 204.907 395.492 204.907C397.468 204.907 399.124 206.198 399.589 207.944C399.714 208.415 400.102 208.806 400.589 208.806H402.207C402.713 208.806 403.125 208.389 403.05 207.89C402.519 204.369 399.34 201.661 395.492 201.661C391.27 201.661 387.848 204.918 387.848 208.936C387.848 211.77 389.554 214.217 392.039 215.416C392.422 215.629 393.141 215.852 393.346 215.903C394.047 216.079 394.99 216.199 395.754 216.252C396.036 216.274 397.414 216.284 397.711 216.286C397.713 216.286 397.714 216.287 397.714 216.289V216.289C397.714 216.29 397.715 216.291 397.716 216.291H421.315C421.814 216.291 422.218 215.887 422.218 215.388V213.945C422.218 213.446 421.814 213.042 421.315 213.042H397.815ZM379.93 220.809C379.93 221.308 379.525 221.712 379.026 221.712H377.259C376.761 221.712 376.356 221.308 376.356 220.809V200.491C376.356 199.992 375.952 199.588 375.453 199.588H372.038C371.539 199.588 371.134 199.183 371.134 198.685V197.088C371.134 196.59 371.539 196.185 372.038 196.185H379.026C379.525 196.185 379.93 196.59 379.93 197.088V220.809ZM368.114 201.288C367.615 201.288 367.211 201.692 367.211 202.191V203.657C367.211 204.155 367.615 204.56 368.114 204.56H370.231C370.73 204.56 371.134 204.964 371.134 205.463V220.809C371.134 221.308 371.539 221.712 372.038 221.712H373.665C374.163 221.712 374.568 221.308 374.568 220.809V202.191C374.568 201.692 374.163 201.288 373.665 201.288H368.114Z" fill="#46474E" style="fill:#46474E;fill:color(display-p3 0.2745 0.2784 0.3059);fill-opacity:1;"/>
</g>
</g>
<path d="M378.562 18.7266V50.9559" stroke="#585960" style="stroke:#585960;stroke:color(display-p3 0.3451 0.3490 0.3765);stroke-opacity:1;" stroke-width="0.755423" stroke-linecap="round" stroke-linejoin="round"/>
<path d="M394.682 34.8457H362.453" stroke="#585960" style="stroke:#585960;stroke:color(display-p3 0.3451 0.3490 0.3765);stroke-opacity:1;" stroke-width="0.755423" stroke-linecap="round" stroke-linejoin="round"/>
<path d="M153.375 7.82031V28.6746" stroke="#585960" style="stroke:#585960;stroke:color(display-p3 0.3451 0.3490 0.3765);stroke-opacity:1;" stroke-width="0.755423" stroke-linecap="round" stroke-linejoin="round"/>
<path d="M163.786 18.2559H142.945" stroke="#585960" style="stroke:#585960;stroke:color(display-p3 0.3451 0.3490 0.3765);stroke-opacity:1;" stroke-width="0.755423" stroke-linecap="round" stroke-linejoin="round"/>
<path d="M136.789 27.4863V42.1757" stroke="#FFA469" style="stroke:#FFA469;stroke:color(display-p3 1.0000 0.6431 0.4118);stroke-opacity:1;" stroke-width="0.755423" stroke-linecap="round" stroke-linejoin="round"/>
<path d="M144.119 34.8379H129.43" stroke="#FFA469" style="stroke:#FFA469;stroke:color(display-p3 1.0000 0.6431 0.4118);stroke-opacity:1;" stroke-width="0.755423" stroke-linecap="round" stroke-linejoin="round"/>
<path d="M524.938 175.227V189.916" stroke="#585960" style="stroke:#585960;stroke:color(display-p3 0.3451 0.3490 0.3765);stroke-opacity:1;" stroke-width="0.755423" stroke-linecap="round" stroke-linejoin="round"/>
<path d="M532.268 182.578H517.578" stroke="#585960" style="stroke:#585960;stroke:color(display-p3 0.3451 0.3490 0.3765);stroke-opacity:1;" stroke-width="0.755423" stroke-linecap="round" stroke-linejoin="round"/>
<path d="M513.656 145.738V174.421" stroke="#585960" style="stroke:#585960;stroke:color(display-p3 0.3451 0.3490 0.3765);stroke-opacity:1;" stroke-width="0.755423" stroke-linecap="round" stroke-linejoin="round"/>
<path d="M528.001 160.072H499.305" stroke="#585960" style="stroke:#585960;stroke:color(display-p3 0.3451 0.3490 0.3765);stroke-opacity:1;" stroke-width="0.755423" stroke-linecap="round" stroke-linejoin="round"/>
<path d="M11.4297 399.607V420.462" stroke="#585960" style="stroke:#585960;stroke:color(display-p3 0.3451 0.3490 0.3765);stroke-opacity:1;" stroke-width="0.755423" stroke-linecap="round" stroke-linejoin="round"/>
<path d="M21.8542 410.025H1" stroke="#585960" style="stroke:#585960;stroke:color(display-p3 0.3451 0.3490 0.3765);stroke-opacity:1;" stroke-width="0.755423" stroke-linecap="round" stroke-linejoin="round"/>
<path d="M35.1172 376.387V414.304" stroke="#585960" style="stroke:#585960;stroke:color(display-p3 0.3451 0.3490 0.3765);stroke-opacity:1;" stroke-width="0.755423" stroke-linecap="round" stroke-linejoin="round"/>
<path d="M54.0731 395.35H16.1562" stroke="#585960" style="stroke:#585960;stroke:color(display-p3 0.3451 0.3490 0.3765);stroke-opacity:1;" stroke-width="0.755423" stroke-linecap="round" stroke-linejoin="round"/>
<path d="M535.539 507.598V525.26" stroke="#585960" style="stroke:#585960;stroke:color(display-p3 0.3451 0.3490 0.3765);stroke-opacity:1;" stroke-width="0.755423" stroke-linecap="round" stroke-linejoin="round"/>
<path d="M544.381 516.436H526.719" stroke="#585960" style="stroke:#585960;stroke:color(display-p3 0.3451 0.3490 0.3765);stroke-opacity:1;" stroke-width="0.755423" stroke-linecap="round" stroke-linejoin="round"/>
<path d="M555.625 487.914V520.048" stroke="#585960" style="stroke:#585960;stroke:color(display-p3 0.3451 0.3490 0.3765);stroke-opacity:1;" stroke-width="0.755423" stroke-linecap="round" stroke-linejoin="round"/>
<path d="M571.683 503.977H539.562" stroke="#585960" style="stroke:#585960;stroke:color(display-p3 0.3451 0.3490 0.3765);stroke-opacity:1;" stroke-width="0.755423" stroke-linecap="round" stroke-linejoin="round"/>
<path d="M437.131 425.011C437.131 427.93 434.758 430.303 431.839 430.303C428.92 430.303 426.547 427.93 426.547 425.011C426.547 422.092 428.92 419.719 431.839 419.719C434.758 419.719 437.131 422.092 437.131 425.011Z" stroke="#FFA469" style="stroke:#FFA469;stroke:color(display-p3 1.0000 0.6431 0.4118);stroke-opacity:1;" stroke-width="0.755423" stroke-linecap="round" stroke-linejoin="round"/>
<path d="M45.2681 184.612C47.3923 184.612 49.1143 182.89 49.1143 180.766C49.1143 178.642 47.3923 176.92 45.2681 176.92C43.1439 176.92 41.4219 178.642 41.4219 180.766C41.4219 182.89 43.1439 184.612 45.2681 184.612Z" stroke="#FFA469" style="stroke:#FFA469;stroke:color(display-p3 1.0000 0.6431 0.4118);stroke-opacity:1;" stroke-width="0.755423" stroke-linecap="round" stroke-linejoin="round"/>
<path d="M61.1654 27.7175C63.5608 27.7175 65.5026 25.7756 65.5026 23.3802C65.5026 20.9848 63.5608 19.043 61.1654 19.043C58.77 19.043 56.8281 20.9848 56.8281 23.3802C56.8281 25.7756 58.77 27.7175 61.1654 27.7175Z" stroke="#585960" style="stroke:#585960;stroke:color(display-p3 0.3451 0.3490 0.3765);stroke-opacity:1;" stroke-width="0.755423" stroke-linecap="round" stroke-linejoin="round"/>
<path d="M415.867 60.4315C415.867 63.623 413.275 66.2008 410.097 66.2008C406.92 66.2008 404.328 63.6094 404.328 60.4315C404.328 57.2536 406.92 54.6621 410.097 54.6621C413.275 54.6621 415.867 57.2536 415.867 60.4315Z" stroke="#585960" style="stroke:#585960;stroke:color(display-p3 0.3451 0.3490 0.3765);stroke-opacity:1;" stroke-width="0.755423" stroke-linecap="round" stroke-linejoin="round"/>
<path d="M154.504 554.242C159.023 554.242 162.687 550.578 162.687 546.058C162.687 541.539 159.023 537.875 154.504 537.875C149.984 537.875 146.32 541.539 146.32 546.058C146.32 550.578 149.984 554.242 154.504 554.242Z" stroke="#585960" style="stroke:#585960;stroke:color(display-p3 0.3451 0.3490 0.3765);stroke-opacity:1;" stroke-width="0.755423" stroke-linecap="round" stroke-linejoin="round"/>
<path d="M26.9792 464.242C26.9792 466.628 25.0424 468.579 22.6419 468.579C20.2414 468.579 18.3047 466.642 18.3047 464.242C18.3047 461.841 20.2414 459.904 22.6419 459.904C25.0424 459.904 26.9792 461.841 26.9792 464.242Z" stroke="#585960" style="stroke:#585960;stroke:color(display-p3 0.3451 0.3490 0.3765);stroke-opacity:1;" stroke-width="0.755423" stroke-linecap="round" stroke-linejoin="round"/>
<path d="M45.933 444.914C45.933 446.769 44.4191 448.283 42.5642 448.283C40.7093 448.283 39.1953 446.769 39.1953 444.914C39.1953 443.059 40.7093 441.545 42.5642 441.545C44.4191 441.545 45.933 443.059 45.933 444.914Z" stroke="#FFA469" style="stroke:#FFA469;stroke:color(display-p3 1.0000 0.6431 0.4118);stroke-opacity:1;" stroke-width="0.755423" stroke-linecap="round" stroke-linejoin="round"/>
<path d="M528.012 430.076C532.531 430.076 536.195 426.412 536.195 421.892C536.195 417.373 532.531 413.709 528.012 413.709C523.492 413.709 519.828 417.373 519.828 421.892C519.828 426.412 523.492 430.076 528.012 430.076Z" stroke="#585960" style="stroke:#585960;stroke:color(display-p3 0.3451 0.3490 0.3765);stroke-opacity:1;" stroke-width="0.755423" stroke-linecap="round" stroke-linejoin="round"/>
<path d="M563.15 215.421C563.15 220.208 559.276 224.081 554.489 224.081C549.702 224.081 545.828 220.208 545.828 215.421C545.828 210.633 549.702 206.76 554.489 206.76C559.276 206.76 563.15 210.633 563.15 215.421Z" stroke="#585960" style="stroke:#585960;stroke:color(display-p3 0.3451 0.3490 0.3765);stroke-opacity:1;" stroke-width="0.755423" stroke-linecap="round" stroke-linejoin="round"/>
<path d="M563.15 215.421C563.15 220.208 559.276 224.081 554.489 224.081C549.702 224.081 545.828 220.208 545.828 215.421C545.828 210.633 549.702 206.76 554.489 206.76C559.276 206.76 563.15 210.633 563.15 215.421Z" stroke="#FFA469" style="stroke:#FFA469;stroke:color(display-p3 1.0000 0.6431 0.4118);stroke-opacity:1;" stroke-width="0.755423" stroke-linecap="round" stroke-linejoin="round"/>
<path d="M534.26 220.708C534.26 223.095 532.324 225.046 529.923 225.046C527.523 225.046 525.586 223.109 525.586 220.708C525.586 218.308 527.523 216.371 529.923 216.371C532.324 216.371 534.26 218.308 534.26 220.708Z" stroke="#585960" style="stroke:#585960;stroke:color(display-p3 0.3451 0.3490 0.3765);stroke-opacity:1;" stroke-width="0.755423" stroke-linecap="round" stroke-linejoin="round"/>
<defs>
<linearGradient id="paint0_linear_2818_5346" x1="376.356" y1="259.622" x2="350.217" y2="195.633" gradientUnits="userSpaceOnUse">
<stop stop-color="#FFD66B" style="stop-color:#FFD66B;stop-color:color(display-p3 1.0000 0.8378 0.4208);stop-opacity:1;"/>
<stop offset="1" stop-color="#FFA469" style="stop-color:#FFA469;stop-color:color(display-p3 1.0000 0.6431 0.4118);stop-opacity:1;"/>
</linearGradient>
<linearGradient id="paint1_linear_2818_5346" x1="423.384" y1="373.021" x2="402.979" y2="330.334" gradientUnits="userSpaceOnUse">
<stop stop-color="#FFD66B" style="stop-color:#FFD66B;stop-color:color(display-p3 1.0000 0.8378 0.4208);stop-opacity:1;"/>
<stop offset="1" stop-color="#FFA469" style="stop-color:#FFA469;stop-color:color(display-p3 1.0000 0.6431 0.4118);stop-opacity:1;"/>
</linearGradient>
<linearGradient id="paint2_linear_2818_5346" x1="496.914" y1="348.166" x2="482.07" y2="317.113" gradientUnits="userSpaceOnUse">
<stop stop-color="#FFD66B" style="stop-color:#FFD66B;stop-color:color(display-p3 1.0000 0.8378 0.4208);stop-opacity:1;"/>
<stop offset="1" stop-color="#FFA469" style="stop-color:#FFA469;stop-color:color(display-p3 1.0000 0.6431 0.4118);stop-opacity:1;"/>
</linearGradient>
<linearGradient id="paint3_linear_2818_5346" x1="456.439" y1="188.949" x2="436.033" y2="146.262" gradientUnits="userSpaceOnUse">
<stop stop-color="#FFD66B" style="stop-color:#FFD66B;stop-color:color(display-p3 1.0000 0.8378 0.4208);stop-opacity:1;"/>
<stop offset="1" stop-color="#FFA469" style="stop-color:#FFA469;stop-color:color(display-p3 1.0000 0.6431 0.4118);stop-opacity:1;"/>
</linearGradient>
<clipPath id="clip0_2818_5346">
<rect width="54.4842" height="25.5395" fill="white" style="fill:white;fill-opacity:1;" transform="translate(366.711 196.193)"/>
</clipPath>
</defs>
</svg>
